<svg width="90" height="90" viewBox="0 0 90 90" fill="none" xmlns="http://www.w3.org/2000/svg">
<circle cx="45" cy="45" r="41" fill="white" stroke="white" stroke-width="8"/>
<path fill-rule="evenodd" clip-rule="evenodd" d="M32.5763 38.2082C31.3957 38.2082 30.4387 39.1652 30.4387 40.3458V42.7888C30.4387 43.2947 30.0285 43.7049 29.5226 43.7049C29.0166 43.7049 28.6064 43.2947 28.6064 42.7888V40.3458C28.6064 38.1533 30.3838 36.376 32.5763 36.376H58.2275C60.42 36.376 62.1973 38.1533 62.1973 40.3458V42.7888C62.1973 43.2947 61.7872 43.7049 61.2812 43.7049C60.7753 43.7049 60.3651 43.2947 60.3651 42.7888V40.3458C60.3651 39.1652 59.4081 38.2082 58.2275 38.2082H32.5763Z" fill="#BDC4D4"/>
<path fill-rule="evenodd" clip-rule="evenodd" d="M58.2284 60.1951C59.409 60.1951 60.366 59.2381 60.366 58.0575L60.366 55.0038C60.366 54.4978 60.7762 54.0877 61.2821 54.0877C61.7881 54.0877 62.1982 54.4978 62.1982 55.0038L62.1982 58.0575C62.1982 60.25 60.4209 62.0273 58.2284 62.0273L32.5772 62.0273C30.3847 62.0273 28.6073 60.25 28.6073 58.0575L28.6073 55.0038C28.6073 54.4978 29.0175 54.0877 29.5235 54.0877C30.0294 54.0877 30.4396 54.4978 30.4396 55.0038L30.4396 58.0575C30.4396 59.2381 31.3966 60.1951 32.5772 60.1951L58.2284 60.1951Z" fill="#BDC4D4"/>
<path fill-rule="evenodd" clip-rule="evenodd" d="M45.4009 16.8322C38.8773 16.8322 33.4914 22.4842 33.4914 29.5802V33.6277C33.4914 34.1336 33.0813 34.5438 32.5753 34.5438C32.0693 34.5438 31.6592 34.1336 31.6592 33.6277V29.5802C31.6592 21.5833 37.7578 15 45.4009 15C53.0441 15 59.1426 21.5833 59.1426 29.5802V33.6277C59.1426 34.1336 58.7325 34.5438 58.2265 34.5438C57.7206 34.5438 57.3104 34.1336 57.3104 33.6277V29.5802C57.3104 22.4842 51.9246 16.8322 45.4009 16.8322Z" fill="#BDC4D4"/>
<path fill-rule="evenodd" clip-rule="evenodd" d="M45.4001 21.1076C41.1838 21.1076 37.7658 24.5256 37.7658 28.7419V32.0603C37.7658 32.5662 37.3557 32.9764 36.8497 32.9764C36.3438 32.9764 35.9336 32.5662 35.9336 32.0603V28.7419C35.9336 23.5137 40.1719 19.2754 45.4001 19.2754C50.6283 19.2754 54.8666 23.5137 54.8666 28.7419V32.0603C54.8666 32.5662 54.4565 32.9764 53.9505 32.9764C53.4446 32.9764 53.0344 32.5662 53.0344 32.0603V28.7419C53.0344 24.5256 49.6164 21.1076 45.4001 21.1076Z" fill="#BDC4D4"/>
<path d="M32.306 48.0351C32.5854 48.0218 32.8019 48.1019 32.9556 48.2754C33.1093 48.4356 33.1862 48.6358 33.1862 48.8761C33.1862 49.1164 33.1093 49.3233 32.9556 49.4969C32.8019 49.6704 32.5854 49.7505 32.306 49.7372L30.2522 49.6371L31.3839 51.259C31.4817 51.4059 31.5306 51.5527 31.5306 51.6996C31.5306 51.9265 31.4258 52.1268 31.2162 52.3003C31.0206 52.4605 30.7971 52.5406 30.5456 52.5406C30.2242 52.5406 29.9867 52.4004 29.8331 52.1201L28.9109 50.378L27.9888 52.1201C27.8212 52.4138 27.5837 52.5606 27.2763 52.5606C27.0248 52.5606 26.7943 52.4805 26.5847 52.3203C26.3891 52.1468 26.2913 51.9465 26.2913 51.7196C26.2913 51.5594 26.3402 51.4125 26.438 51.2791L27.5697 49.6371L25.5159 49.7372C25.2365 49.7505 25.02 49.6771 24.8663 49.5169C24.7126 49.3434 24.6357 49.1364 24.6357 48.8962C24.6357 48.6559 24.7126 48.4489 24.8663 48.2754C25.02 48.1019 25.2365 48.0218 25.5159 48.0351L27.5697 48.1352L26.438 46.5133C26.3402 46.3798 26.2913 46.2329 26.2913 46.0727C26.2913 45.8458 26.3891 45.6522 26.5847 45.492C26.7943 45.3318 27.0248 45.2517 27.2763 45.2517C27.5976 45.2517 27.8352 45.3919 27.9888 45.6722L28.9109 47.4143L29.8331 45.6722C29.9867 45.3785 30.2312 45.2317 30.5665 45.2317C30.8041 45.2317 31.0206 45.3185 31.2162 45.492C31.4258 45.6522 31.5306 45.8458 31.5306 46.0727C31.5306 46.2329 31.4817 46.3798 31.3839 46.5133L30.2522 48.1352L32.306 48.0351Z" fill="#3FBB7D"/>
<path d="M65.2864 48.0351C65.5659 48.0218 65.7824 48.1019 65.9361 48.2754C66.0898 48.4356 66.1666 48.6358 66.1666 48.8761C66.1666 49.1164 66.0898 49.3233 65.9361 49.4969C65.7824 49.6704 65.5659 49.7505 65.2864 49.7372L63.2327 49.6371L64.3643 51.259C64.4621 51.4059 64.511 51.5527 64.511 51.6996C64.511 51.9265 64.4062 52.1268 64.1967 52.3003C64.0011 52.4605 63.7775 52.5406 63.5261 52.5406C63.2047 52.5406 62.9672 52.4004 62.8135 52.1201L61.8914 50.378L60.9693 52.1201C60.8017 52.4138 60.5641 52.5606 60.2568 52.5606C60.0053 52.5606 59.7748 52.4805 59.5652 52.3203C59.3696 52.1468 59.2718 51.9465 59.2718 51.7196C59.2718 51.5594 59.3207 51.4125 59.4185 51.2791L60.5502 49.6371L58.4964 49.7372C58.217 49.7505 58.0004 49.6771 57.8467 49.5169C57.6931 49.3434 57.6162 49.1364 57.6162 48.8962C57.6162 48.6559 57.6931 48.4489 57.8467 48.2754C58.0004 48.1019 58.217 48.0218 58.4964 48.0351L60.5502 48.1352L59.4185 46.5133C59.3207 46.3798 59.2718 46.2329 59.2718 46.0727C59.2718 45.8458 59.3696 45.6522 59.5652 45.492C59.7748 45.3318 60.0053 45.2517 60.2568 45.2517C60.5781 45.2517 60.8156 45.3919 60.9693 45.6722L61.8914 47.4143L62.8135 45.6722C62.9672 45.3785 63.2117 45.2317 63.547 45.2317C63.7845 45.2317 64.0011 45.3185 64.1967 45.492C64.4062 45.6522 64.511 45.8458 64.511 46.0727C64.511 46.2329 64.4621 46.3798 64.3643 46.5133L63.2327 48.1352L65.2864 48.0351Z" fill="#3FBB7D"/>
<path d="M54.2923 48.0351C54.5717 48.0218 54.7883 48.1019 54.942 48.2754C55.0956 48.4356 55.1725 48.6358 55.1725 48.8761C55.1725 49.1164 55.0956 49.3233 54.942 49.4969C54.7883 49.6704 54.5717 49.7505 54.2923 49.7372L52.2385 49.6371L53.3702 51.259C53.468 51.4059 53.5169 51.5527 53.5169 51.6996C53.5169 51.9265 53.4121 52.1268 53.2025 52.3003C53.0069 52.4605 52.7834 52.5406 52.5319 52.5406C52.2106 52.5406 51.9731 52.4004 51.8194 52.1201L50.8973 50.378L49.9752 52.1201C49.8075 52.4138 49.57 52.5606 49.2626 52.5606C49.0112 52.5606 48.7806 52.4805 48.5711 52.3203C48.3755 52.1468 48.2777 51.9465 48.2777 51.7196C48.2777 51.5594 48.3266 51.4125 48.4244 51.2791L49.556 49.6371L47.5023 49.7372C47.2228 49.7505 47.0063 49.6771 46.8526 49.5169C46.6989 49.3434 46.6221 49.1364 46.6221 48.8962C46.6221 48.6559 46.6989 48.4489 46.8526 48.2754C47.0063 48.1019 47.2228 48.0218 47.5023 48.0351L49.556 48.1352L48.4244 46.5133C48.3266 46.3798 48.2777 46.2329 48.2777 46.0727C48.2777 45.8458 48.3755 45.6522 48.5711 45.492C48.7806 45.3318 49.0112 45.2517 49.2626 45.2517C49.584 45.2517 49.8215 45.3919 49.9752 45.6722L50.8973 47.4143L51.8194 45.6722C51.9731 45.3785 52.2176 45.2317 52.5529 45.2317C52.7904 45.2317 53.0069 45.3185 53.2025 45.492C53.4121 45.6522 53.5169 45.8458 53.5169 46.0727C53.5169 46.2329 53.468 46.3798 53.3702 46.5133L52.2385 48.1352L54.2923 48.0351Z" fill="#3FBB7D"/>
<path d="M43.2991 48.0351C43.5786 48.0218 43.7951 48.1019 43.9488 48.2754C44.1025 48.4356 44.1793 48.6358 44.1793 48.8761C44.1793 49.1164 44.1025 49.3233 43.9488 49.4969C43.7951 49.6704 43.5786 49.7505 43.2991 49.7372L41.2454 49.6371L42.377 51.259C42.4748 51.4059 42.5237 51.5527 42.5237 51.6996C42.5237 51.9265 42.4189 52.1268 42.2094 52.3003C42.0138 52.4605 41.7902 52.5406 41.5387 52.5406C41.2174 52.5406 40.9799 52.4004 40.8262 52.1201L39.9041 50.378L38.982 52.1201C38.8144 52.4138 38.5768 52.5606 38.2695 52.5606C38.018 52.5606 37.7875 52.4805 37.5779 52.3203C37.3823 52.1468 37.2845 51.9465 37.2845 51.7196C37.2845 51.5594 37.3334 51.4125 37.4312 51.2791L38.5629 49.6371L36.5091 49.7372C36.2297 49.7505 36.0131 49.6771 35.8594 49.5169C35.7057 49.3434 35.6289 49.1364 35.6289 48.8962C35.6289 48.6559 35.7057 48.4489 35.8594 48.2754C36.0131 48.1019 36.2297 48.0218 36.5091 48.0351L38.5629 48.1352L37.4312 46.5133C37.3334 46.3798 37.2845 46.2329 37.2845 46.0727C37.2845 45.8458 37.3823 45.6522 37.5779 45.492C37.7875 45.3318 38.018 45.2517 38.2695 45.2517C38.5908 45.2517 38.8283 45.3919 38.982 45.6722L39.9041 47.4143L40.8262 45.6722C40.9799 45.3785 41.2244 45.2317 41.5597 45.2317C41.7972 45.2317 42.0138 45.3185 42.2094 45.492C42.4189 45.6522 42.5237 45.8458 42.5237 46.0727C42.5237 46.2329 42.4748 46.3798 42.377 46.5133L41.2454 48.1352L43.2991 48.0351Z" fill="#3FBB7D"/>
<path fill-rule="evenodd" clip-rule="evenodd" d="M28.7839 21.6667C28.7839 20.8416 27.8749 20.3508 27.2109 20.8405C19.8044 26.3033 15 35.0905 15 44.9998C15 61.5684 28.4315 74.9999 45.0001 74.9999C61.5688 74.9999 75.0003 61.5684 75.0003 44.9998C75.0003 35.4697 70.5566 26.9775 63.6281 21.4822C62.9679 20.9585 62.0273 21.4462 62.0273 22.2889C62.0273 22.6137 62.179 22.9191 62.4329 23.1216C68.8569 28.2471 72.9733 36.1427 72.9733 44.9998C72.9733 60.4489 60.4493 72.9729 45.0001 72.9729C29.551 72.9729 17.027 60.4489 17.027 44.9998C17.027 35.7884 21.4793 27.6169 28.3493 22.5199C28.62 22.3191 28.7839 22.0038 28.7839 21.6667Z" fill="#ECEFF5"/>
</svg>
