<svg width="90" height="90" viewBox="0 0 90 90" fill="none" xmlns="http://www.w3.org/2000/svg">
<circle cx="45" cy="45" r="41" fill="white" stroke="white" stroke-width="8"/>
<path d="M55.6241 34.3759C55.5065 34.2568 55.3664 34.1623 55.212 34.0977C55.0576 34.0332 54.8919 34 54.7245 34C54.5571 34 54.3914 34.0332 54.237 34.0977C54.0826 34.1623 53.9425 34.2568 53.8249 34.3759L44.9982 43.2199L36.1716 34.3929C36.054 34.2738 35.9139 34.1792 35.7595 34.1147C35.605 34.0502 35.4393 34.017 35.272 34.017C35.1046 34.017 34.9389 34.0502 34.7845 34.1147C34.63 34.1792 34.4899 34.2738 34.3723 34.3929C34.136 34.6326 34.0035 34.9558 34.0035 35.2925C34.0035 35.6292 34.136 35.9524 34.3723 36.1922L43.1989 45.0192L34.3723 53.8207C34.1945 53.9988 34.0734 54.2255 34.0244 54.4724C33.9754 54.7192 34.0006 54.975 34.0968 55.2075C34.1931 55.44 34.3561 55.6387 34.5653 55.7786C34.7744 55.9185 35.0203 55.9933 35.272 55.9935C35.4386 55.9954 35.604 55.9642 35.7585 55.9015C35.9129 55.8388 36.0533 55.7461 36.1716 55.6286L44.9982 46.8016L53.8249 55.6286C54.0646 55.8672 54.3893 56.0008 54.7275 56C55.0657 55.9992 55.3898 55.8641 55.6284 55.6243C55.867 55.3846 56.0006 55.0599 55.9998 54.7217C55.999 54.3834 55.8639 54.0594 55.6241 53.8207L46.7975 45.0022L55.6241 36.1752C55.7432 36.0576 55.8377 35.9175 55.9023 35.7631C55.9668 35.6086 56 35.4429 56 35.2756C56 35.1082 55.9668 34.9425 55.9023 34.788C55.8377 34.6336 55.7432 34.4935 55.6241 34.3759Z" fill="#EB5757"/>
<circle cx="45" cy="45" r="28.85" stroke="#ECEFF5" stroke-width="2.3"/>
</svg>
