<svg width="90" height="90" viewBox="0 0 90 90" fill="none" xmlns="http://www.w3.org/2000/svg">
<circle cx="45" cy="45" r="41" fill="white" stroke="white" stroke-width="8"/>
<path fill-rule="evenodd" clip-rule="evenodd" d="M56.6071 23.4237C55.674 22.8849 54.4809 23.2046 53.9422 24.1377C53.4035 25.0708 53.7232 26.2639 54.6562 26.8027C55.5893 27.3414 56.7825 27.0217 57.3212 26.0886C57.8599 25.1555 57.5402 23.9624 56.6071 23.4237ZM51.3205 22.6241C52.6952 20.2432 55.7397 19.4274 58.1207 20.802C60.5017 22.1767 61.3175 25.2212 59.9428 27.6022C58.5682 29.9832 55.5236 30.799 53.1426 29.4243C50.7617 28.0496 49.9459 25.0051 51.3205 22.6241Z" fill="#3FBB7D" stroke="white" stroke-width="0.7"/>
<path d="M66.11 34.6773C69.4653 29.0451 68.4753 21.5906 63.3747 16.9621C57.5454 11.6724 48.5151 12.0332 43.2551 17.7689C37.9952 23.5046 38.4496 32.4827 44.2789 37.7724C44.3882 37.8867 44.5196 37.9778 44.6652 38.04C44.8107 38.1022 44.9672 38.1342 45.125 38.1339C45.2828 38.1337 45.4385 38.1012 45.5825 38.0386C45.7264 37.976 45.8556 37.8845 45.962 37.7698C46.0684 37.6552 46.1497 37.5197 46.2009 37.3719C46.2521 37.2242 46.2721 37.0672 46.2597 36.9108C46.2472 36.7543 46.2026 36.6017 46.1286 36.4624C46.0546 36.3231 45.9527 36.2001 45.8293 36.101C40.9248 31.6505 40.5377 24.1269 44.9631 19.3011C49.3887 14.4753 56.9198 14.183 61.8243 18.6335C66.7288 23.084 67.1069 30.5751 62.6814 35.4009C60.1813 38.1271 56.5389 39.507 52.8202 39.1543C52.6038 39.1329 52.3865 39.1724 52.193 39.2684C51.9996 39.3643 51.8378 39.5128 51.7263 39.6968C51.7094 39.7234 51.6937 39.7507 51.679 39.7787L38.4615 62.6722L35.4167 62.6344L33.6935 59.7283C33.32 59.0946 32.5729 58.8348 32.0226 59.1458C31.4724 59.4569 31.3348 60.2146 31.7086 60.8485L33.6872 64.2297C33.769 64.394 33.8882 64.5112 34.0436 64.6265C34.0837 64.6597 34.1153 64.6915 34.1572 64.7194C34.1823 64.7341 34.2141 64.7542 34.2408 64.7677C34.2914 64.7965 34.3467 64.8102 34.399 64.8317C34.5625 64.8991 34.7316 64.9367 34.8999 64.9298L34.9208 64.9419C34.9973 64.9371 35.0853 64.937 35.1591 64.9156L38.8175 64.9528C39.0512 64.9549 39.268 64.8933 39.4603 64.8051C39.5819 64.7494 39.6896 64.6666 39.7839 64.5824C39.8295 64.5419 39.8708 64.5094 39.9085 64.4633C40.1595 64.2407 40.3787 63.9856 40.5514 63.6877L53.3734 41.576C53.388 41.5509 53.396 41.5383 53.4088 41.5146C57.5646 41.6748 61.5871 39.9888 64.3894 36.933C65.0469 36.2161 65.6306 35.4819 66.11 34.6773Z" fill="#3FBB7D"/>
<path fill-rule="evenodd" clip-rule="evenodd" d="M39.158 17.9558C39.7313 16.9629 38.9073 15.7718 37.7934 16.0433C30.0891 17.9211 23.1798 22.7684 18.946 30.1014C10.6168 44.5281 15.7977 63.1129 30.5179 71.6116C45.2381 80.1103 63.9235 75.3048 72.2527 60.878C77.1295 52.4312 77.3749 42.559 73.7859 34.1203C73.3694 33.1412 72.041 33.1061 71.509 34.0276C71.2927 34.4023 71.2711 34.8572 71.438 35.2564C74.6479 42.936 74.3958 51.8901 69.9682 59.559C62.3528 72.7492 45.2691 77.1429 31.8106 69.3726C18.3521 61.6023 13.6153 44.6105 21.2306 31.4204C25.0676 24.7746 31.3082 20.3619 38.2777 18.613C38.6474 18.5202 38.9674 18.286 39.158 17.9558Z" fill="#ECEFF5"/>
</svg>
