<svg width="60" height="60" viewBox="0 0 60 60" fill="none" xmlns="http://www.w3.org/2000/svg">
<path fill-rule="evenodd" clip-rule="evenodd" d="M17.5757 23.2082C16.3952 23.2082 15.4381 24.1652 15.4381 25.3458V27.7887C15.4381 28.2947 15.028 28.7048 14.522 28.7048C14.0161 28.7048 13.6059 28.2947 13.6059 27.7887V25.3458C13.6059 23.1533 15.3833 21.3759 17.5757 21.3759H43.227C45.4194 21.3759 47.1968 23.1533 47.1968 25.3458V27.7887C47.1968 28.2947 46.7866 28.7048 46.2807 28.7048C45.7747 28.7048 45.3646 28.2947 45.3646 27.7887V25.3458C45.3646 24.1652 44.4075 23.2082 43.227 23.2082H17.5757Z" fill="#BDC4D4"/>
<path fill-rule="evenodd" clip-rule="evenodd" d="M43.2279 45.1952C44.4085 45.1952 45.3655 44.2382 45.3655 43.0576L45.3655 40.0039C45.3655 39.4979 45.7757 39.0878 46.2816 39.0878C46.7876 39.0878 47.1978 39.4979 47.1978 40.0039L47.1978 43.0576C47.1978 45.2501 45.4204 47.0274 43.2279 47.0274L17.5767 47.0274C15.3842 47.0274 13.6069 45.2501 13.6069 43.0576L13.6069 40.0039C13.6069 39.4979 14.017 39.0878 14.523 39.0878C15.0289 39.0878 15.4391 39.4979 15.4391 40.0039L15.4391 43.0576C15.4391 44.2382 16.3961 45.1952 17.5767 45.1952L43.2279 45.1952Z" fill="#BDC4D4"/>
<path fill-rule="evenodd" clip-rule="evenodd" d="M30.4004 1.83223C23.8767 1.83223 18.4909 7.48418 18.4909 14.5802V18.6277C18.4909 19.1336 18.0807 19.5438 17.5747 19.5438C17.0688 19.5438 16.6586 19.1336 16.6586 18.6277V14.5802C16.6586 6.5833 22.7572 0 30.4004 0C38.0435 0 44.1421 6.5833 44.1421 14.5802V18.6277C44.1421 19.1336 43.7319 19.5438 43.226 19.5438C42.72 19.5438 42.3099 19.1336 42.3099 18.6277V14.5802C42.3099 7.48418 36.924 1.83223 30.4004 1.83223Z" fill="#BDC4D4"/>
<path fill-rule="evenodd" clip-rule="evenodd" d="M30.4002 6.10753C26.1839 6.10753 22.7659 9.52552 22.7659 13.7418V17.0602C22.7659 17.5662 22.3557 17.9763 21.8498 17.9763C21.3438 17.9763 20.9337 17.5662 20.9337 17.0602V13.7418C20.9337 8.51361 25.172 4.2753 30.4002 4.2753C35.6284 4.2753 39.8667 8.51361 39.8667 13.7418V17.0602C39.8667 17.5662 39.4565 17.9763 38.9506 17.9763C38.4446 17.9763 38.0345 17.5662 38.0345 17.0602V13.7418C38.0345 9.52552 34.6165 6.10753 30.4002 6.10753Z" fill="#BDC4D4"/>
<path d="M17.3058 33.0352C17.5852 33.0219 17.8018 33.102 17.9554 33.2755C18.1091 33.4357 18.186 33.6359 18.186 33.8762C18.186 34.1165 18.1091 34.3234 17.9554 34.497C17.8018 34.6705 17.5852 34.7506 17.3058 34.7373L15.252 34.6372L16.3837 36.2591C16.4815 36.406 16.5304 36.5528 16.5304 36.6997C16.5304 36.9266 16.4256 37.1269 16.216 37.3004C16.0204 37.4606 15.7969 37.5407 15.5454 37.5407C15.2241 37.5407 14.9866 37.4005 14.8329 37.1202L13.9108 35.3781L12.9887 37.1202C12.821 37.4139 12.5835 37.5607 12.2761 37.5607C12.0246 37.5607 11.7941 37.4806 11.5845 37.3204C11.389 37.1469 11.2912 36.9466 11.2912 36.7197C11.2912 36.5595 11.3401 36.4127 11.4379 36.2792L12.5695 34.6372L10.5157 34.7373C10.2363 34.7506 10.0198 34.6772 9.86608 34.517C9.7124 34.3435 9.63556 34.1366 9.63556 33.8963C9.63556 33.656 9.7124 33.449 9.86608 33.2755C10.0198 33.102 10.2363 33.0219 10.5157 33.0352L12.5695 33.1353L11.4379 31.5134C11.3401 31.3799 11.2912 31.233 11.2912 31.0728C11.2912 30.8459 11.389 30.6523 11.5845 30.4921C11.7941 30.3319 12.0246 30.2518 12.2761 30.2518C12.5975 30.2518 12.835 30.392 12.9887 30.6723L13.9108 32.4145L14.8329 30.6723C14.9866 30.3786 15.231 30.2318 15.5664 30.2318C15.8039 30.2318 16.0204 30.3186 16.216 30.4921C16.4256 30.6523 16.5304 30.8459 16.5304 31.0728C16.5304 31.233 16.4815 31.3799 16.3837 31.5134L15.252 33.1353L17.3058 33.0352Z" fill="#3FBB7D"/>
<path d="M50.2859 33.0352C50.5654 33.0219 50.7819 33.102 50.9356 33.2755C51.0893 33.4357 51.1661 33.6359 51.1661 33.8762C51.1661 34.1165 51.0893 34.3234 50.9356 34.497C50.7819 34.6705 50.5654 34.7506 50.2859 34.7373L48.2322 34.6372L49.3638 36.2591C49.4616 36.406 49.5105 36.5528 49.5105 36.6997C49.5105 36.9266 49.4058 37.1269 49.1962 37.3004C49.0006 37.4606 48.777 37.5407 48.5256 37.5407C48.2042 37.5407 47.9667 37.4005 47.813 37.1202L46.8909 35.3781L45.9688 37.1202C45.8012 37.4139 45.5637 37.5607 45.2563 37.5607C45.0048 37.5607 44.7743 37.4806 44.5647 37.3204C44.3691 37.1469 44.2713 36.9466 44.2713 36.7197C44.2713 36.5595 44.3202 36.4127 44.418 36.2792L45.5497 34.6372L43.4959 34.7373C43.2165 34.7506 42.9999 34.6772 42.8462 34.517C42.6926 34.3435 42.6157 34.1366 42.6157 33.8963C42.6157 33.656 42.6926 33.449 42.8462 33.2755C42.9999 33.102 43.2165 33.0219 43.4959 33.0352L45.5497 33.1353L44.418 31.5134C44.3202 31.3799 44.2713 31.233 44.2713 31.0728C44.2713 30.8459 44.3691 30.6523 44.5647 30.4921C44.7743 30.3319 45.0048 30.2518 45.2563 30.2518C45.5776 30.2518 45.8151 30.392 45.9688 30.6723L46.8909 32.4145L47.813 30.6723C47.9667 30.3786 48.2112 30.2318 48.5465 30.2318C48.784 30.2318 49.0006 30.3186 49.1962 30.4921C49.4058 30.6523 49.5105 30.8459 49.5105 31.0728C49.5105 31.233 49.4616 31.3799 49.3638 31.5134L48.2322 33.1353L50.2859 33.0352Z" fill="#3FBB7D"/>
<path d="M39.2925 33.0352C39.572 33.0219 39.7885 33.102 39.9422 33.2755C40.0959 33.4357 40.1727 33.6359 40.1727 33.8762C40.1727 34.1165 40.0959 34.3234 39.9422 34.497C39.7885 34.6705 39.572 34.7506 39.2925 34.7373L37.2388 34.6372L38.3704 36.2591C38.4682 36.406 38.5171 36.5528 38.5171 36.6997C38.5171 36.9266 38.4123 37.1269 38.2028 37.3004C38.0072 37.4606 37.7836 37.5407 37.5322 37.5407C37.2108 37.5407 36.9733 37.4005 36.8196 37.1202L35.8975 35.3781L34.9754 37.1202C34.8078 37.4139 34.5703 37.5607 34.2629 37.5607C34.0114 37.5607 33.7809 37.4806 33.5713 37.3204C33.3757 37.1469 33.2779 36.9466 33.2779 36.7197C33.2779 36.5595 33.3268 36.4127 33.4246 36.2792L34.5563 34.6372L32.5025 34.7373C32.2231 34.7506 32.0065 34.6772 31.8528 34.517C31.6992 34.3435 31.6223 34.1366 31.6223 33.8963C31.6223 33.656 31.6992 33.449 31.8528 33.2755C32.0065 33.102 32.2231 33.0219 32.5025 33.0352L34.5563 33.1353L33.4246 31.5134C33.3268 31.3799 33.2779 31.233 33.2779 31.0728C33.2779 30.8459 33.3757 30.6523 33.5713 30.4921C33.7809 30.3319 34.0114 30.2518 34.2629 30.2518C34.5842 30.2518 34.8217 30.392 34.9754 30.6723L35.8975 32.4145L36.8196 30.6723C36.9733 30.3786 37.2178 30.2318 37.5531 30.2318C37.7906 30.2318 38.0072 30.3186 38.2028 30.4921C38.4123 30.6523 38.5171 30.8459 38.5171 31.0728C38.5171 31.233 38.4682 31.3799 38.3704 31.5134L37.2388 33.1353L39.2925 33.0352Z" fill="#3FBB7D"/>
<path d="M28.2992 33.0352C28.5786 33.0219 28.7952 33.102 28.9489 33.2755C29.1025 33.4357 29.1794 33.6359 29.1794 33.8762C29.1794 34.1165 29.1025 34.3234 28.9489 34.497C28.7952 34.6705 28.5786 34.7506 28.2992 34.7373L26.2454 34.6372L27.3771 36.2591C27.4749 36.406 27.5238 36.5528 27.5238 36.6997C27.5238 36.9266 27.419 37.1269 27.2094 37.3004C27.0138 37.4606 26.7903 37.5407 26.5388 37.5407C26.2175 37.5407 25.98 37.4005 25.8263 37.1202L24.9042 35.3781L23.9821 37.1202C23.8144 37.4139 23.5769 37.5607 23.2695 37.5607C23.0181 37.5607 22.7875 37.4806 22.578 37.3204C22.3824 37.1469 22.2846 36.9466 22.2846 36.7197C22.2846 36.5595 22.3335 36.4127 22.4313 36.2792L23.5629 34.6372L21.5092 34.7373C21.2297 34.7506 21.0132 34.6772 20.8595 34.517C20.7058 34.3435 20.629 34.1366 20.629 33.8963C20.629 33.656 20.7058 33.449 20.8595 33.2755C21.0132 33.102 21.2297 33.0219 21.5092 33.0352L23.5629 33.1353L22.4313 31.5134C22.3335 31.3799 22.2846 31.233 22.2846 31.0728C22.2846 30.8459 22.3824 30.6523 22.578 30.4921C22.7875 30.3319 23.0181 30.2518 23.2695 30.2518C23.5909 30.2518 23.8284 30.392 23.9821 30.6723L24.9042 32.4145L25.8263 30.6723C25.98 30.3786 26.2245 30.2318 26.5598 30.2318C26.7973 30.2318 27.0138 30.3186 27.2094 30.4921C27.419 30.6523 27.5238 30.8459 27.5238 31.0728C27.5238 31.233 27.4749 31.3799 27.3771 31.5134L26.2454 33.1353L28.2992 33.0352Z" fill="#3FBB7D"/>
<path fill-rule="evenodd" clip-rule="evenodd" d="M13.7839 6.66673C13.7839 5.84163 12.8749 5.35078 12.2109 5.84054C4.80439 11.3033 0 20.0905 0 29.9998C0 46.5684 13.4315 59.9999 30.0001 59.9999C46.5688 59.9999 60.0003 46.5684 60.0003 29.9998C60.0003 20.4697 55.5566 11.9775 48.6281 6.48217C47.9679 5.95849 47.0273 6.44617 47.0273 7.28889C47.0273 7.61368 47.179 7.91909 47.4329 8.12165C53.8569 13.2471 57.9733 21.1427 57.9733 29.9998C57.9733 45.4489 45.4493 57.9729 30.0001 57.9729C14.551 57.9729 2.02704 45.4489 2.02704 29.9998C2.02704 20.7884 6.47932 12.6169 13.3493 7.51996C13.62 7.31911 13.7839 7.00382 13.7839 6.66673Z" fill="#ECEFF5"/>
</svg>
