<svg width="90" height="90" viewBox="0 0 90 90" fill="none" xmlns="http://www.w3.org/2000/svg">
<circle cx="45" cy="45" r="41" fill="white" stroke="white" stroke-width="8"/>
<path d="M36.2549 67.8429C35.7251 67.8438 35.1982 67.7652 34.6917 67.6096L20.2962 63.2933C18.7945 62.7865 17.4831 61.8338 16.5368 60.5624C15.5905 59.291 15.0544 57.7612 15 56.1772V32.8458C15.0775 31.2821 15.6242 29.778 16.5689 28.5295C17.5136 27.281 18.8125 26.346 20.2962 25.8464L34.6917 21.4134C35.3899 21.1754 36.1345 21.1063 36.8645 21.2117C37.5945 21.3172 38.2891 21.5942 38.8914 22.02C39.4666 22.4738 39.9268 23.0567 40.2349 23.7215C40.543 24.3862 40.6901 25.1142 40.6646 25.8464V35.179C40.6646 35.4883 40.5417 35.7851 40.3229 36.0038C40.1041 36.2226 39.8074 36.3455 39.498 36.3455C39.1886 36.3455 38.8919 36.2226 38.6731 36.0038C38.4543 35.7851 38.3314 35.4883 38.3314 35.179V25.8464C38.3572 25.4765 38.2945 25.1057 38.1484 24.7649C38.0024 24.4241 37.7772 24.123 37.4915 23.8865C37.1837 23.6776 36.8304 23.5453 36.4611 23.5006C36.0917 23.456 35.7171 23.5003 35.3683 23.6299L20.9728 27.9462C19.9523 28.3156 19.063 28.9771 18.4157 29.8483C17.7685 30.7196 17.392 31.7621 17.3331 32.8458V56.1772C17.392 57.261 17.7685 58.3035 18.4157 59.1747C19.063 60.046 19.9523 60.7075 20.9728 61.0768L35.3683 65.3932C35.7131 65.5377 36.0897 65.5896 36.4607 65.5439C36.8318 65.4981 37.1844 65.3562 37.4838 65.1323C37.7831 64.9084 38.0188 64.6101 38.1675 64.2671C38.3162 63.9241 38.3727 63.5482 38.3314 63.1767V53.8441C38.3314 53.5347 38.4543 53.238 38.6731 53.0192C38.8919 52.8004 39.1886 52.6775 39.498 52.6775C39.8074 52.6775 40.1041 52.8004 40.3229 53.0192C40.5417 53.238 40.6646 53.5347 40.6646 53.8441V63.1767C40.6901 63.9089 40.543 64.6368 40.2349 65.3016C39.9268 65.9663 39.4666 66.5492 38.8914 67.003C38.1262 67.5601 37.2013 67.8548 36.2549 67.8429Z" fill="#BDC4D4"/>
<path d="M58.1621 52.6776C57.9318 52.673 57.7067 52.6087 57.5088 52.491C57.2515 52.3156 57.0732 52.0464 57.0121 51.741C56.951 51.4357 57.0121 51.1186 57.1822 50.8578L61.4285 44.5116L57.1822 38.1655C57.0089 37.9056 56.946 37.5875 57.0073 37.2812C57.0685 36.9749 57.2489 36.7055 57.5088 36.5323C57.7687 36.359 58.0868 36.2961 58.3931 36.3573C58.6993 36.4186 58.9688 36.599 59.142 36.8589L63.8083 43.8583C63.933 44.0534 63.9992 44.2801 63.9992 44.5116C63.9992 44.7431 63.933 44.9698 63.8083 45.1649L59.142 52.1643C59.0311 52.3214 58.8843 52.4499 58.714 52.5392C58.5436 52.6284 58.3544 52.6759 58.1621 52.6776Z" fill="#3FBB7D"/>
<path d="M62.8292 45.6779H20.8326C20.5232 45.6779 20.2265 45.555 20.0077 45.3362C19.7889 45.1174 19.666 44.8207 19.666 44.5113C19.666 44.2019 19.7889 43.9052 20.0077 43.6864C20.2265 43.4676 20.5232 43.3447 20.8326 43.3447H62.8292C63.1385 43.3447 63.4353 43.4676 63.654 43.6864C63.8728 43.9052 63.9957 44.2019 63.9957 44.5113C63.9957 44.8207 63.8728 45.1174 63.654 45.3362C63.4353 45.555 63.1385 45.6779 62.8292 45.6779Z" fill="#3FBB7D"/>
<path fill-rule="evenodd" clip-rule="evenodd" d="M72.6998 45C72.6998 60.2983 60.2981 72.7 44.9998 72.7C39.4193 72.7 34.2243 71.0498 29.8761 68.2108C29.6678 68.0748 29.4252 68 29.1764 68C28.0083 68 27.5181 69.4109 28.493 70.0545C33.228 73.1804 38.9014 75 44.9998 75C61.5683 75 74.9998 61.5685 74.9998 45C74.9998 28.4315 61.5683 15 44.9998 15C39.6134 15 34.5586 16.4195 30.189 18.9049C29.1241 19.5106 29.5926 21 30.8177 21C31.0418 21 31.2615 20.9404 31.4569 20.8307C35.461 18.5822 40.0807 17.3 44.9998 17.3C60.2981 17.3 72.6998 29.7017 72.6998 45Z" fill="#ECEFF5"/>
</svg>
