<svg width="60" height="60" viewBox="0 0 60 60" fill="none" xmlns="http://www.w3.org/2000/svg">
<path fill-rule="evenodd" clip-rule="evenodd" d="M17.85 9C17.85 4.93719 20.9969 1.25 25.18 1.25C29.2683 1.25 32.65 4.91069 32.65 9V11.75H42.4C45.7542 11.75 48.75 14.7458 48.75 18.1V22.75C48.75 23.3023 48.3023 23.75 47.75 23.75H47.55C46.9977 23.75 46.55 23.3023 46.55 22.75V18.1C46.55 15.9242 44.5758 13.95 42.4 13.95H30.45V9C30.45 6.02095 27.9533 3.45 25.18 3.45C22.4236 3.45 20.05 5.93304 20.05 9V13.95H8.1C5.92421 13.95 3.95 15.9242 3.95 18.1V26.45H6.7C11.4226 26.45 15.15 30.4652 15.15 35.32C15.15 40.1876 11.4803 44.05 6.7 44.05H3.95V52.4C3.95 54.5758 5.92421 56.55 8.1 56.55H16.45V53.8C16.45 49.0197 20.3124 45.35 25.18 45.35C30.0348 45.35 34.05 49.0774 34.05 53.8V56.55H42.4C44.5758 56.55 46.55 54.5758 46.55 52.4V50.25C46.55 49.6977 46.9977 49.25 47.55 49.25H47.75C48.3023 49.25 48.75 49.6977 48.75 50.25V52.4C48.75 55.7542 45.7542 58.75 42.4 58.75H33.6C32.6335 58.75 31.85 57.9665 31.85 57V53.8C31.85 50.28 28.8138 47.55 25.18 47.55C21.5652 47.55 18.65 50.2622 18.65 53.8V57C18.65 57.9665 17.8665 58.75 16.9 58.75H8.1C4.74579 58.75 1.75 55.7542 1.75 52.4V43.6C1.75 42.6335 2.5335 41.85 3.5 41.85H6.7C10.2378 41.85 12.95 38.9348 12.95 35.32C12.95 31.6862 10.22 28.65 6.7 28.65H3.5C2.5335 28.65 1.75 27.8665 1.75 26.9V18.1C1.75 14.7458 4.74579 11.75 8.1 11.75H17.85V9Z" fill="#DEE1E9"/>
<path d="M58.7703 38.9592L53.8129 34.0024L57.671 30.1396C57.671 30.1396 57.6867 30.1291 57.6919 30.1187C58.0008 29.8151 57.9955 29.3231 57.6867 29.0195C57.5506 28.8782 57.3674 28.7997 57.1894 28.7892L32.0305 20.0376C31.4703 19.8387 30.8422 20.4668 31.0359 21.0269L39.8566 46.3709C39.9456 46.6221 40.1603 46.8158 40.4168 46.8786C40.6785 46.9309 40.956 46.8576 41.1444 46.664L44.9973 42.8116L49.9548 47.7684C50.2636 48.0772 50.7505 48.0772 51.0593 47.7684L58.7703 40.0584C59.0792 39.7496 59.0739 39.2628 58.7703 38.9592ZM50.5097 46.1144L45.547 41.1524C45.2381 40.8488 44.7513 40.8488 44.4476 41.1524L40.9193 44.6854L33.0408 22.0423L55.687 29.9198L52.1586 33.4476C51.8498 33.7564 51.8498 34.2432 52.1586 34.5468L57.1161 39.5088L50.5097 46.1144Z" fill="#3FBB7D"/>
<path fill-rule="evenodd" clip-rule="evenodd" d="M32.1629 19.6601C32.1634 19.6603 32.1638 19.6605 32.1643 19.6606L57.2742 28.3952C57.5274 28.4242 57.7788 28.5404 57.9709 28.738C58.4246 29.1879 58.4424 29.9179 57.9941 30.3818C57.9697 30.4112 57.9481 30.4296 57.9406 30.436L57.9398 30.4367C57.9391 30.4373 57.9385 30.4378 57.9379 30.4383L54.3784 34.0022L59.0531 38.6763C59.5112 39.1344 59.52 39.8744 59.0531 40.3412L51.3421 48.0512C50.877 48.5162 50.137 48.5162 49.6719 48.0512L44.9973 43.3772L41.429 46.945C41.1369 47.2436 40.7189 47.3469 40.3383 47.2708L40.3299 47.2691L40.3216 47.267C39.9339 47.1721 39.6135 46.8824 39.4796 46.5044L39.4788 46.5023L30.658 21.1583C30.4984 20.6968 30.6869 20.2445 30.9681 19.9643C31.2492 19.6841 31.7014 19.4969 32.1629 19.6601ZM31.4138 20.8961C31.4139 20.8962 31.4138 20.896 31.4138 20.8961L40.2337 46.2372C40.2337 46.2375 40.2336 46.237 40.2337 46.2372C40.277 46.3586 40.3822 46.4552 40.5038 46.4879C40.6427 46.5129 40.7747 46.4703 40.8577 46.385L40.8615 46.381L44.9973 42.2459L50.2375 47.4855C50.3902 47.6381 50.6238 47.6381 50.7765 47.4855L58.4875 39.7755C58.6383 39.6247 58.6366 39.3912 58.4875 39.242L53.2473 34.0026L57.3631 29.8817L57.3639 29.8801L57.4086 29.8362L57.416 29.8288C57.5572 29.685 57.5576 29.4534 57.4063 29.3047L57.3984 29.297C57.3342 29.2304 57.2466 29.1932 57.1659 29.1884L57.1104 29.1852L31.899 20.4154L31.8966 20.4145C31.7985 20.3796 31.6572 20.407 31.5328 20.5309C31.4084 20.6549 31.3799 20.7975 31.4138 20.8961ZM32.3913 21.3928L56.4209 29.7515L52.4414 33.7304C52.2875 33.8844 52.291 34.116 52.439 34.2615L52.4416 34.264L57.6816 39.5089L50.5096 46.68L45.2665 41.4376C45.2662 41.4373 45.2659 41.4369 45.2656 41.4366C45.111 41.2857 44.8764 41.2894 44.7306 41.435C44.7305 41.4351 44.7306 41.435 44.7306 41.435L40.7513 45.4197L32.3913 21.3928ZM33.6903 22.6917L41.0873 43.9511L44.1646 40.8697C44.6257 40.4086 45.3642 40.4118 45.8273 40.867L45.8298 40.8694L50.5096 45.5487L56.5505 39.5086L51.8782 34.832C51.8778 34.8316 51.8773 34.8311 51.8768 34.8307C51.4085 34.3689 51.4125 33.6279 51.8758 33.1647L54.953 30.0879L33.6903 22.6917Z" fill="#3FBB7D"/>
</svg>
