<svg width="90" height="90" viewBox="0 0 90 90" fill="none" xmlns="http://www.w3.org/2000/svg">
<circle cx="45" cy="45" r="41" fill="white" stroke="white" stroke-width="8"/>
<path d="M69.4587 27.4908L56.6155 40.1043L43.7722 52.7178L32.5882 41.7405C32.4246 41.5777 32.2296 41.4484 32.0147 41.3602C31.7999 41.272 31.5693 41.2266 31.3364 41.2266C31.1035 41.2266 30.8729 41.272 30.658 41.3602C30.4431 41.4484 30.2482 41.5777 30.0845 41.7405C29.7557 42.0683 29.5713 42.5102 29.5713 42.9705C29.5713 43.4308 29.7557 43.8727 30.0845 44.2005L42.5204 56.4195C42.8555 56.7399 43.3046 56.9191 43.7722 56.9191C44.2398 56.9191 44.6889 56.7399 45.0241 56.4195L71.9152 29.9509C72.2441 29.623 72.4284 29.1812 72.4284 28.7209C72.4284 28.2605 72.2441 27.8187 71.9152 27.4908C71.5866 27.1761 71.1458 27 70.687 27C70.2281 27 69.7873 27.1761 69.4587 27.4908Z" fill="#3FBB7D"/>
<path fill-rule="evenodd" clip-rule="evenodd" d="M72.4286 45C72.4286 60.1484 60.1484 72.4286 45 72.4286C29.8516 72.4286 17.5714 60.1484 17.5714 45C17.5714 29.8516 29.8516 17.5714 45 17.5714C52.3199 17.5714 58.9702 20.4388 63.8887 25.1117C64.411 25.6079 65.2378 25.6193 65.7472 25.1099C66.2418 24.6154 66.2517 23.8139 65.7466 23.3302C60.3585 18.1702 53.0495 15 45 15C28.4315 15 15 28.4315 15 45C15 61.5685 28.4315 75 45 75C61.5685 75 75 61.5685 75 45C75 41.8212 74.5056 38.7579 73.5895 35.8827C73.3387 35.0956 72.4075 34.7891 71.7126 35.2358C71.2046 35.5623 70.9918 36.1949 71.1728 36.771C71.9887 39.3688 72.4286 42.133 72.4286 45Z" fill="#ECEFF5"/>
</svg>
