<svg width="61" height="60" viewBox="0 0 61 60" fill="none" xmlns="http://www.w3.org/2000/svg">
<path d="M28.9075 26.5459L24.1348 33.8186" stroke="#EB5757" stroke-width="2.5" stroke-linecap="round"/>
<path d="M36.8616 26.5459L32.0889 33.8186" stroke="#EB5757" stroke-width="2.5" stroke-linecap="round"/>
<path fill-rule="evenodd" clip-rule="evenodd" d="M43.1667 44L18.4467 44C18.1139 46.2931 16.1504 47.9956 13.8333 48H6.5C6.13183 48 5.83333 47.7015 5.83333 47.3333V46.6667H3.16666C2.7985 46.6667 2.5 46.3682 2.5 46V40.6667C2.5 40.2985 2.7985 40 3.16666 40H5.83333V39.3333C5.83333 38.9652 6.13183 38.6667 6.5 38.6667H13.8333C16.1504 38.6711 18.114 40.3736 18.4467 42.6667L43.1667 42.6667C46.4804 42.6667 49.1667 39.9804 49.1667 36.6667C49.1667 33.353 46.4804 30.6667 43.1667 30.6667H35.0451V29.3333H43.1667C47.2167 29.3333 50.5 32.6166 50.5 36.6667C50.5 40.7168 47.2167 44 43.1667 44ZM17.8333 29.3333H26.8633V30.6667H17.8333C13.7832 30.6667 10.5 27.3834 10.5 23.3333C10.5 19.2832 13.7832 16 17.8333 16L42.5533 16C42.8861 13.7069 44.8496 12.0044 47.1667 12H54.5C54.8682 12 55.1667 12.2985 55.1667 12.6667V13.3333L57.8333 13.3333C58.2015 13.3333 58.5 13.6318 58.5 14V19.3333C58.5 19.7015 58.2015 20 57.8333 20H55.1667V20.6667C55.1667 21.0348 54.8682 21.3333 54.5 21.3333L47.1667 21.3333C44.8496 21.3289 42.886 19.6264 42.5533 17.3333L17.8333 17.3333C14.5197 17.3333 11.8333 20.0197 11.8333 23.3333C11.8333 26.6471 14.5197 29.3333 17.8333 29.3333ZM55.1667 18.6667H57.1667V14.6667L55.1667 14.6667V18.6667ZM53.8333 13.3333L47.1667 13.3333C45.3257 13.3333 43.8333 14.8257 43.8333 16.6667C43.8333 18.5076 45.3257 20 47.1667 20L53.8333 20V13.3333ZM3.83333 41.3333L3.83333 45.3333H5.83333L5.83333 41.3333H3.83333ZM7.16666 40V46.6667H13.8333C15.6742 46.6667 17.1667 45.1742 17.1667 43.3333C17.1667 41.4924 15.6742 40 13.8333 40H7.16666Z" fill="#EB5757"/>
<path d="M18.4467 44V43.5H18.014L17.9518 43.9282L18.4467 44ZM43.1667 44V44.5V44ZM13.8333 48V48.5H13.8343L13.8333 48ZM5.83333 46.6667H6.33333V46.1667H5.83333V46.6667ZM5.83333 40V40.5H6.33333V40H5.83333ZM13.8333 38.6667L13.8343 38.1667H13.8333V38.6667ZM18.4467 42.6667L17.9518 42.7385L18.014 43.1667H18.4467V42.6667ZM43.1667 42.6667V43.1667V42.6667ZM49.1667 36.6667H48.6667H49.1667ZM35.0451 30.6667H34.5451V31.1667H35.0451V30.6667ZM35.0451 29.3333V28.8333H34.5451V29.3333H35.0451ZM26.8633 29.3333H27.3633V28.8333H26.8633V29.3333ZM26.8633 30.6667V31.1667H27.3633V30.6667H26.8633ZM17.8333 16V15.5V16ZM42.5533 16V16.5L42.986 16.5L43.0481 16.0718L42.5533 16ZM47.1667 12V11.5L47.1657 11.5L47.1667 12ZM55.1667 13.3333H54.6667V13.8333H55.1667V13.3333ZM57.8333 13.3333V13.8333V13.3333ZM55.1667 20V19.5H54.6667V20H55.1667ZM54.5 21.3333V21.8333V21.3333ZM47.1667 21.3333L47.1657 21.8333H47.1667V21.3333ZM42.5533 17.3333L43.0481 17.2615L42.986 16.8333H42.5533V17.3333ZM17.8333 17.3333V16.8333V17.3333ZM11.8333 23.3333H11.3333H11.8333ZM57.1667 18.6667V19.1667H57.6667V18.6667H57.1667ZM55.1667 18.6667H54.6667V19.1667H55.1667V18.6667ZM57.1667 14.6667H57.6667V14.1667H57.1667V14.6667ZM55.1667 14.6667V14.1667H54.6667V14.6667H55.1667ZM47.1667 13.3333V13.8333V13.3333ZM53.8333 13.3333H54.3333V12.8333H53.8333V13.3333ZM47.1667 20V19.5V20ZM53.8333 20V20.5H54.3333V20H53.8333ZM3.83333 45.3333H3.33333V45.8333H3.83333V45.3333ZM3.83333 41.3333V40.8333H3.33333V41.3333H3.83333ZM5.83333 45.3333V45.8333H6.33333V45.3333H5.83333ZM5.83333 41.3333H6.33333V40.8333H5.83333V41.3333ZM7.16666 46.6667H6.66666V47.1667H7.16666V46.6667ZM7.16666 40V39.5H6.66666V40H7.16666ZM13.8333 46.6667L13.8333 46.1667H13.8333V46.6667ZM18.4467 44.5H43.1667V43.5L18.4467 43.5V44.5ZM13.8343 48.5C16.3994 48.4951 18.5731 46.6103 18.9415 44.0718L17.9518 43.9282C17.6547 45.9758 15.9014 47.4961 13.8324 47.5L13.8343 48.5ZM6.5 48.5H13.8333V47.5H6.5V48.5ZM5.33333 47.3333C5.33333 47.9776 5.85569 48.5 6.5 48.5V47.5C6.40797 47.5 6.33333 47.4254 6.33333 47.3333H5.33333ZM5.33333 46.6667V47.3333H6.33333V46.6667H5.33333ZM3.16666 47.1667H5.83333V46.1667H3.16666V47.1667ZM2 46C2 46.6443 2.52235 47.1667 3.16666 47.1667V46.1667C3.07464 46.1667 3 46.092 3 46H2ZM2 40.6667V46H3V40.6667H2ZM3.16666 39.5C2.52235 39.5 2 40.0224 2 40.6667H3C3 40.5746 3.07464 40.5 3.16666 40.5V39.5ZM5.83333 39.5H3.16666V40.5H5.83333V39.5ZM5.33333 39.3333V40H6.33333V39.3333H5.33333ZM6.5 38.1667C5.85569 38.1667 5.33333 38.689 5.33333 39.3333H6.33333C6.33333 39.2413 6.40797 39.1667 6.5 39.1667V38.1667ZM13.8333 38.1667H6.5V39.1667H13.8333V38.1667ZM18.9415 42.5949C18.5732 40.0563 16.3994 38.1716 13.8343 38.1667L13.8324 39.1667C15.9014 39.1706 17.6548 40.6909 17.9518 42.7385L18.9415 42.5949ZM43.1667 42.1667L18.4467 42.1667V43.1667L43.1667 43.1667V42.1667ZM48.6667 36.6667C48.6667 39.7043 46.2043 42.1667 43.1667 42.1667V43.1667C46.7566 43.1667 49.6667 40.2566 49.6667 36.6667H48.6667ZM43.1667 31.1667C46.2043 31.1667 48.6667 33.6291 48.6667 36.6667H49.6667C49.6667 33.0769 46.7566 30.1667 43.1667 30.1667V31.1667ZM35.0451 31.1667H43.1667V30.1667H35.0451V31.1667ZM34.5451 29.3333V30.6667H35.5451V29.3333H34.5451ZM43.1667 28.8333H35.0451V29.8333H43.1667V28.8333ZM51 36.6667C51 32.3404 47.4929 28.8333 43.1667 28.8333V29.8333C46.9406 29.8333 50 32.8927 50 36.6667H51ZM43.1667 44.5C47.4929 44.5 51 40.9929 51 36.6667H50C50 40.4406 46.9406 43.5 43.1667 43.5V44.5ZM26.8633 28.8333H17.8333V29.8333H26.8633V28.8333ZM27.3633 30.6667V29.3333H26.3633V30.6667H27.3633ZM17.8333 31.1667H26.8633V30.1667H17.8333V31.1667ZM10 23.3333C10 27.6596 13.5071 31.1667 17.8333 31.1667V30.1667C14.0594 30.1667 11 27.1073 11 23.3333H10ZM17.8333 15.5C13.5071 15.5 10 19.0071 10 23.3333H11C11 19.5594 14.0594 16.5 17.8333 16.5V15.5ZM42.5533 15.5L17.8333 15.5V16.5L42.5533 16.5V15.5ZM47.1657 11.5C44.6006 11.5049 42.4269 13.3897 42.0585 15.9282L43.0481 16.0718C43.3453 14.0242 45.0986 12.5039 47.1676 12.5L47.1657 11.5ZM54.5 11.5H47.1667V12.5H54.5V11.5ZM55.6667 12.6667C55.6667 12.0224 55.1443 11.5 54.5 11.5V12.5C54.592 12.5 54.6667 12.5746 54.6667 12.6667H55.6667ZM55.6667 13.3333V12.6667H54.6667V13.3333H55.6667ZM57.8333 12.8333L55.1667 12.8333V13.8333L57.8333 13.8333V12.8333ZM59 14C59 13.3557 58.4776 12.8333 57.8333 12.8333V13.8333C57.9254 13.8333 58 13.908 58 14H59ZM59 19.3333V14H58V19.3333H59ZM57.8333 20.5C58.4776 20.5 59 19.9776 59 19.3333H58C58 19.4254 57.9254 19.5 57.8333 19.5V20.5ZM55.1667 20.5H57.8333V19.5H55.1667V20.5ZM55.6667 20.6667V20H54.6667V20.6667H55.6667ZM54.5 21.8333C55.1443 21.8333 55.6667 21.311 55.6667 20.6667H54.6667C54.6667 20.7587 54.592 20.8333 54.5 20.8333V21.8333ZM47.1667 21.8333L54.5 21.8333V20.8333L47.1667 20.8333V21.8333ZM42.0585 17.4051C42.4268 19.9437 44.6006 21.8284 47.1657 21.8333L47.1676 20.8333C45.0986 20.8294 43.3452 19.3091 43.0481 17.2615L42.0585 17.4051ZM17.8333 17.8333L42.5533 17.8333V16.8333L17.8333 16.8333V17.8333ZM12.3333 23.3333C12.3333 20.2958 14.7958 17.8333 17.8333 17.8333V16.8333C14.2435 16.8333 11.3333 19.7435 11.3333 23.3333H12.3333ZM17.8333 28.8333C14.7958 28.8333 12.3333 26.3709 12.3333 23.3333H11.3333C11.3333 26.9232 14.2435 29.8333 17.8333 29.8333V28.8333ZM57.1667 18.1667H55.1667V19.1667H57.1667V18.1667ZM56.6667 14.6667V18.6667H57.6667V14.6667H56.6667ZM55.1667 15.1667L57.1667 15.1667V14.1667L55.1667 14.1667V15.1667ZM55.6667 18.6667V14.6667H54.6667V18.6667H55.6667ZM47.1667 13.8333L53.8333 13.8333V12.8333L47.1667 12.8333V13.8333ZM44.3333 16.6667C44.3333 15.1019 45.6019 13.8333 47.1667 13.8333V12.8333C45.0496 12.8333 43.3333 14.5496 43.3333 16.6667H44.3333ZM47.1667 19.5C45.6019 19.5 44.3333 18.2314 44.3333 16.6667H43.3333C43.3333 18.7837 45.0496 20.5 47.1667 20.5V19.5ZM53.8333 19.5L47.1667 19.5V20.5L53.8333 20.5V19.5ZM53.3333 13.3333V20H54.3333V13.3333H53.3333ZM4.33333 45.3333L4.33333 41.3333H3.33333L3.33333 45.3333H4.33333ZM5.83333 44.8333H3.83333V45.8333H5.83333V44.8333ZM5.33333 41.3333L5.33333 45.3333H6.33333L6.33333 41.3333H5.33333ZM3.83333 41.8333H5.83333V40.8333H3.83333V41.8333ZM7.66666 46.6667V40H6.66666V46.6667H7.66666ZM13.8333 46.1667H7.16666V47.1667H13.8333V46.1667ZM16.6667 43.3333C16.6667 44.8981 15.3981 46.1667 13.8333 46.1667L13.8333 47.1667C15.9504 47.1667 17.6667 45.4504 17.6667 43.3333H16.6667ZM13.8333 40.5C15.3981 40.5 16.6667 41.7686 16.6667 43.3333H17.6667C17.6667 41.2163 15.9504 39.5 13.8333 39.5V40.5ZM7.16666 40.5H13.8333V39.5H7.16666V40.5Z" fill="#EB5757"/>
<path fill-rule="evenodd" clip-rule="evenodd" d="M30.5 57.5C45.6878 57.5 58 45.1878 58 30C58 28.473 57.8755 26.9752 57.6362 25.5159C57.508 24.734 58.0953 24 58.8877 24C59.4766 24 59.9869 24.4144 60.0844 24.9952C60.3577 26.6227 60.5 28.2948 60.5 30C60.5 46.5685 47.0685 60 30.5 60C22.6797 60 15.5583 57.0077 10.2182 52.1057C9.3755 51.332 9.95535 50 11.0993 50C11.4371 50 11.7612 50.1302 12.0112 50.3574C16.8947 54.7953 23.3815 57.5 30.5 57.5ZM2.11231 36C2.90466 36 3.49199 35.266 3.36376 34.4841C3.12445 33.0248 3 31.527 3 30C3 14.8122 15.3122 2.5 30.5 2.5C37.6185 2.5 44.1053 5.20473 48.9888 9.64258C49.2388 9.86976 49.5629 10 49.9007 10C51.0447 10 51.6245 8.66795 50.7818 7.89433C45.4417 2.99227 38.3203 0 30.5 0C13.9315 0 0.5 13.4315 0.5 30C0.5 31.7052 0.642275 33.3773 0.915603 35.0048C1.01314 35.5856 1.52337 36 2.11231 36Z" fill="#DEE1E9"/>
</svg>
