<svg width="61" height="60" viewBox="0 0 61 60" fill="none" xmlns="http://www.w3.org/2000/svg">
<path d="M32.8996 13C34.6669 13 36.0996 14.3838 36.0996 16.0909L36.0996 24.5909L24.8996 24.5909L24.8996 16.0909C24.8996 14.3838 26.3323 13 28.0996 13L32.8996 13Z" fill="white"/>
<path fill-rule="evenodd" clip-rule="evenodd" d="M33.6996 22.2727L33.6996 16.0909C33.6996 15.6641 33.3414 15.3182 32.8996 15.3182L28.0996 15.3182C27.6578 15.3182 27.2996 15.6641 27.2996 16.0909L27.2996 22.2727L33.6996 22.2727ZM36.0996 16.0909C36.0996 14.3838 34.6669 13 32.8996 13L28.0996 13C26.3323 13 24.8996 14.3838 24.8996 16.0909L24.8996 24.5909L36.0996 24.5909L36.0996 16.0909Z" fill="#EB5757"/>
<path d="M28.9002 47C27.1329 47 25.7002 45.6162 25.7002 43.9091L25.7002 38.5L35.3002 38.5L35.3002 43.9091C35.3002 45.6162 33.8675 47 32.1002 47L30.5002 47L28.9002 47Z" fill="white"/>
<path fill-rule="evenodd" clip-rule="evenodd" d="M28.1002 40.8182L28.1002 43.9091C28.1002 44.3359 28.4584 44.6818 28.9002 44.6818L32.1002 44.6818C32.542 44.6818 32.9002 44.3359 32.9002 43.9091L32.9002 40.8182L28.1002 40.8182ZM25.7002 43.9091C25.7002 45.6162 27.1329 47 28.9002 47L32.1002 47C33.8675 47 35.3002 45.6162 35.3002 43.9091L35.3002 38.5L25.7002 38.5L25.7002 43.9091Z" fill="#EB5757"/>
<path d="M37.4942 23.4298C38.1017 23.6645 38.5 24.2327 38.5 24.8647L38.5 38.2266C38.5 38.8585 38.1017 39.4268 37.4942 39.6615L36.4423 40.0679C32.6277 41.5418 28.3723 41.5418 24.5577 40.0679L23.5058 39.6615C22.8983 39.4268 22.5 38.8585 22.5 38.2266L22.5 24.8647C22.5 24.2327 22.8983 23.6645 23.5058 23.4298L24.5577 23.0233C28.3723 21.5495 32.6277 21.5495 36.4423 23.0233L37.4942 23.4298Z" fill="white"/>
<path fill-rule="evenodd" clip-rule="evenodd" d="M36.1 25.3879L35.5509 25.1757C32.3085 23.923 28.6915 23.923 25.4491 25.1757L24.9 25.3879L24.9 37.7034L25.4491 37.9156C28.6915 39.1683 32.3085 39.1683 35.5509 37.9156L36.1 37.7034L36.1 25.3879ZM38.5 24.8647C38.5 24.2327 38.1017 23.6645 37.4942 23.4298L36.4423 23.0233C32.6277 21.5495 28.3723 21.5495 24.5577 23.0233L23.5058 23.4298C22.8983 23.6645 22.5 24.2327 22.5 24.8647L22.5 38.2266C22.5 38.8585 22.8983 39.4268 23.5058 39.6615L24.5577 40.0679C28.3723 41.5418 32.6277 41.5418 36.4423 40.0679L37.4942 39.6615C38.1017 39.4268 38.5 38.8585 38.5 38.2266L38.5 24.8647Z" fill="#EB5757"/>
<path fill-rule="evenodd" clip-rule="evenodd" d="M32.5 17.6364C32.5 18.2765 31.9627 18.7955 31.3 18.7955L29.7 18.7955C29.0373 18.7955 28.5 18.2765 28.5 17.6364C28.5 16.9962 29.0373 16.4773 29.7 16.4773L31.3 16.4773C31.9627 16.4773 32.5 16.9962 32.5 17.6364Z" fill="#EB5757"/>
<path d="M30.5004 47V54C30.3337 56 31.4004 59.6 37.0004 58" stroke="#DEE1E9" stroke-width="2.5"/>
<path fill-rule="evenodd" clip-rule="evenodd" d="M35.1709 57.4217C35.3713 57.1815 35.6507 57.0203 35.9574 56.9585C48.5309 54.427 58 43.3193 58 30C58 14.8122 45.6878 2.5 30.5 2.5C15.3122 2.5 3 14.8122 3 30C3 40.2586 8.61723 49.2053 16.9437 53.932C17.6399 54.3272 17.838 55.2594 17.325 55.8741C16.9527 56.3202 16.3187 56.4496 15.8123 56.1647C6.67332 51.0234 0.5 41.2326 0.5 30C0.5 13.4315 13.9315 0 30.5 0C47.0685 0 60.5 13.4315 60.5 30C60.5 44.5867 50.0896 56.7419 36.2933 59.4411C35.1261 59.6694 34.4088 58.3348 35.1709 57.4217Z" fill="#DEE1E9"/>
</svg>
