<svg width="61" height="60" viewBox="0 0 61 60" fill="none" xmlns="http://www.w3.org/2000/svg">
<circle cx="30.5" cy="30" r="21.75" stroke="#DEE1E9" stroke-width="2.5"/>
<path d="M40.5581 34.6868C40.4952 34.1947 40.2798 33.8257 39.8777 33.5225C39.4752 33.2274 39.0286 33.1137 38.5105 33.1784C37.9979 33.2442 37.6349 33.4527 37.3678 33.8212C36.2014 35.2658 34.7027 36.232 32.8897 36.7178C31.0421 37.2128 29.1936 36.9526 27.4021 35.9454C25.6005 34.9304 24.4293 33.4481 23.9176 31.5387C23.4057 29.6281 23.6843 27.7494 24.7489 25.9544C25.814 24.1621 27.2804 23.0056 29.1081 22.5159C30.9014 22.0354 32.6746 22.1236 34.3798 22.7787C34.8743 23.0014 35.2935 23.0031 35.7581 22.8176C36.2221 22.6205 36.5469 22.2988 36.7491 21.8363C36.943 21.3828 36.94 20.9264 36.7386 20.4422C36.5339 19.9548 36.215 19.6254 35.7646 19.4386C34.1156 18.7615 32.4514 18.4918 30.7924 18.5644L29.9706 15.4973C29.8031 14.8721 29.1617 14.5018 28.5366 14.6693C27.9114 14.8368 27.5411 15.4782 27.7086 16.1034L28.4556 18.8909C28.4235 18.8992 28.3911 18.8999 28.3589 18.9085C27.4723 19.1552 26.6655 19.5167 25.8987 19.9339L25.0623 16.8124C24.8948 16.1873 24.2535 15.817 23.6283 15.9845C23.0032 16.152 22.6329 16.7934 22.8004 17.4185L23.8632 21.3848C22.9981 22.1577 22.2149 23.039 21.5786 24.1053C19.9963 26.768 19.6077 29.4926 20.3957 32.4334C21.1734 35.3359 22.9231 37.5724 25.5933 39.0784C26.6775 39.6901 27.796 40.0633 28.9312 40.299L29.9589 44.1343C30.1264 44.7595 30.7678 45.1298 31.3929 44.9623C32.018 44.7948 32.3883 44.1534 32.2208 43.5283L31.4173 40.5294C32.2879 40.5022 33.1655 40.4056 34.0552 40.1672C34.0871 40.1586 34.1159 40.1431 34.1477 40.1342L34.8671 42.8192C35.0346 43.4443 35.676 43.8146 36.3011 43.6471C36.9263 43.4796 37.2966 42.8382 37.1291 42.2131L36.3352 39.2504C37.7901 38.4985 39.1072 37.457 40.2418 36.0785C40.5027 35.6773 40.6197 35.2032 40.5581 34.6868Z" fill="#EB5757"/>
<path fill-rule="evenodd" clip-rule="evenodd" d="M39.7556 57.1311C39.9394 57.8347 40.6825 58.2372 41.3603 57.9739C52.5607 53.6225 60.5 42.7384 60.5 30C60.5 13.4315 47.0685 0 30.5 0C29.0722 0 27.6676 0.0997489 26.293 0.292658C25.5723 0.393799 25.1204 1.10859 25.3044 1.81274C25.47 2.4465 26.095 2.843 26.744 2.75436C27.9721 2.58665 29.2259 2.5 30.5 2.5C45.6878 2.5 58 14.8122 58 30C58 41.64 50.7681 51.5909 40.5524 55.6048C39.9421 55.8445 39.5898 56.4967 39.7556 57.1311ZM20.6734 3.0991C20.8365 3.72364 20.498 4.36728 19.9025 4.61622C9.97555 8.76547 3 18.5681 3 30C3 45.1878 15.3122 57.5 30.5 57.5C31.5729 57.5 32.6314 57.4386 33.6722 57.319C34.3128 57.2454 34.9218 57.6412 35.0848 58.2652C35.2715 58.9798 34.8039 59.7028 34.0703 59.7898C32.8996 59.9286 31.7081 60 30.5 60C13.9315 60 0.5 46.5685 0.5 30C0.5 17.4887 8.15874 6.76625 19.0437 2.2651C19.7259 1.98301 20.4868 2.38488 20.6734 3.0991Z" fill="#DEE1E9"/>
</svg>
