<svg width="60" height="60" viewBox="0 0 60 60" fill="none" xmlns="http://www.w3.org/2000/svg">
<path d="M40.6241 19.3759C40.5065 19.2568 40.3664 19.1623 40.212 19.0977C40.0576 19.0332 39.8919 19 39.7245 19C39.5571 19 39.3914 19.0332 39.237 19.0977C39.0826 19.1623 38.9425 19.2568 38.8249 19.3759L29.9982 28.2199L21.1716 19.3929C21.054 19.2738 20.9139 19.1792 20.7595 19.1147C20.605 19.0502 20.4393 19.017 20.272 19.017C20.1046 19.017 19.9389 19.0502 19.7845 19.1147C19.63 19.1792 19.4899 19.2738 19.3723 19.3929C19.136 19.6326 19.0035 19.9558 19.0035 20.2925C19.0035 20.6292 19.136 20.9524 19.3723 21.1922L28.1989 30.0192L19.3723 38.8207C19.1945 38.9988 19.0734 39.2255 19.0244 39.4724C18.9754 39.7192 19.0006 39.975 19.0968 40.2075C19.1931 40.44 19.3561 40.6387 19.5653 40.7786C19.7744 40.9185 20.0203 40.9933 20.272 40.9935C20.4386 40.9954 20.604 40.9642 20.7585 40.9015C20.9129 40.8388 21.0533 40.7461 21.1716 40.6286L29.9982 31.8016L38.8249 40.6286C39.0646 40.8672 39.3893 41.0008 39.7275 41C40.0657 40.9992 40.3898 40.8641 40.6284 40.6243C40.867 40.3846 41.0006 40.0599 40.9998 39.7217C40.999 39.3834 40.8639 39.0594 40.6241 38.8207L31.7975 30.0022L40.6241 21.1752C40.7432 21.0576 40.8377 20.9175 40.9023 20.7631C40.9668 20.6086 41 20.4429 41 20.2756C41 20.1082 40.9668 19.9425 40.9023 19.788C40.8377 19.6336 40.7432 19.4935 40.6241 19.3759Z" fill="#EB5757"/>
<circle cx="30" cy="30" r="28.85" stroke="#ECEFF5" stroke-width="2.3"/>
</svg>
