<svg width="61" height="60" viewBox="0 0 61 60" fill="none" xmlns="http://www.w3.org/2000/svg">
<path d="M30.5 18.25C41.228 18.25 47.9352 25.0649 52.7501 29.9989C52.6482 30.1031 52.5466 30.2069 52.4455 30.3104C49.3739 33.4513 46.6621 36.2242 43.4085 38.2731C40.0416 40.3932 36.0637 41.75 30.5 41.75C20.3626 41.75 14.3708 36.1885 8.25254 29.9972C8.27444 29.9748 8.29635 29.9524 8.31828 29.93C13.7235 24.3967 19.728 18.25 30.5 18.25Z" stroke="#BDC4D4" stroke-width="2.5"/>
<path fill-rule="evenodd" clip-rule="evenodd" d="M36.5 29.9998C36.5 33.3135 33.8137 35.9998 30.5 35.9998C27.1863 35.9998 24.5 33.3135 24.5 29.9998C24.5 26.686 27.1863 23.9998 30.5 23.9998C31.3525 23.9998 32.1635 24.1775 32.8978 24.4981C33.3338 24.6883 33.8532 24.6348 34.1896 24.2985V24.2985C34.6438 23.8442 34.5765 23.0848 33.999 22.8035C32.942 22.2886 31.7548 21.9998 30.5 21.9998C26.0817 21.9998 22.5 25.5815 22.5 29.9998C22.5 34.418 26.0817 37.9998 30.5 37.9998C34.9183 37.9998 38.5 34.418 38.5 29.9998C38.5 28.8982 38.2774 27.8487 37.8747 26.8937C37.6154 26.279 36.824 26.1895 36.3523 26.6612V26.6612C36.0298 26.9837 35.964 27.4757 36.1234 27.9029C36.3669 28.5557 36.5 29.2622 36.5 29.9998Z" fill="#3FBB7D"/>
<circle cx="30.5" cy="30" r="28.75" stroke="#ECEFF5" stroke-width="2.5"/>
<circle cx="30.5" cy="30" r="4" fill="#3FBB7D"/>
</svg>
