<svg width="60" height="60" viewBox="0 0 60 60" fill="none" xmlns="http://www.w3.org/2000/svg">
<path d="M54.4586 12.4908L41.6154 25.1043L28.7721 37.7178L17.5881 26.7405C17.4245 26.5777 17.2295 26.4484 17.0147 26.3602C16.7998 26.272 16.5692 26.2266 16.3363 26.2266C16.1034 26.2266 15.8728 26.272 15.6579 26.3602C15.443 26.4484 15.2481 26.5777 15.0844 26.7405C14.7556 27.0683 14.5712 27.5102 14.5712 27.9705C14.5712 28.4308 14.7556 28.8727 15.0844 29.2005L27.5203 41.4195C27.8554 41.7399 28.3045 41.9191 28.7721 41.9191C29.2397 41.9191 29.6888 41.7399 30.024 41.4195L56.9151 14.9509C57.244 14.623 57.4283 14.1812 57.4283 13.7209C57.4283 13.2605 57.244 12.8187 56.9151 12.4908C56.5865 12.1761 56.1457 12 55.6869 12C55.228 12 54.7872 12.1761 54.4586 12.4908Z" fill="#3FBB7D"/>
<path fill-rule="evenodd" clip-rule="evenodd" d="M57.4286 30C57.4286 45.1484 45.1484 57.4286 30 57.4286C14.8516 57.4286 2.57143 45.1484 2.57143 30C2.57143 14.8516 14.8516 2.57143 30 2.57143C37.3199 2.57143 43.9702 5.43882 48.8887 10.1117C49.411 10.6079 50.2378 10.6193 50.7472 10.1099C51.2418 9.61537 51.2517 8.81389 50.7466 8.33018C45.3585 3.17021 38.0495 0 30 0C13.4315 0 0 13.4315 0 30C0 46.5685 13.4315 60 30 60C46.5685 60 60 46.5685 60 30C60 26.8212 59.5056 23.7579 58.5895 20.8827C58.3387 20.0956 57.4075 19.7891 56.7126 20.2358C56.2046 20.5623 55.9918 21.1949 56.1728 21.771C56.9887 24.3688 57.4286 27.133 57.4286 30Z" fill="#ECEFF5"/>
</svg>
