<svg width="20" height="20" viewBox="0 0 20 20" fill="none" xmlns="http://www.w3.org/2000/svg">
<g opacity="0.9">
<path opacity="0.6" fill-rule="evenodd" clip-rule="evenodd" d="M3.08729 9.61569C2.42694 10.2755 1.44423 10.388 0.783868 9.72815C0.255355 9.20008 0.22397 8.45312 0.571044 7.83764C0.642176 7.72076 0.7283 7.61042 0.829414 7.50939L5.98766 2.35546C7.25975 1.08444 9.26895 0.998785 10.6404 2.09851C10.5413 2.17797 10.4455 2.26362 10.3536 2.35546L3.08729 9.61569Z" fill="white"/>
<path fill-rule="evenodd" clip-rule="evenodd" d="M3.0873 9.61569C2.42694 10.2755 1.44423 10.388 0.78387 9.72816C0.144289 9.08911 0.232737 8.1295 0.838901 7.47028C0.858784 7.44898 0.87902 7.42789 0.89961 7.40701C0.878833 7.42777 0.858594 7.44887 0.838901 7.47028C-0.305446 8.69641 -0.278203 10.6156 0.915506 11.8086L6.67104 17.5609C8.30778 19.1967 10.9619 19.1969 12.5988 17.5613L18.9003 11.2651C20.3666 9.80006 20.3666 7.42469 18.9003 5.95961L18.4926 5.55231C18.4538 5.59963 18.4123 5.64548 18.3681 5.68965L16.6217 7.43457C15.8984 8.15734 14.7255 8.15734 14.0022 7.43457C13.2788 6.7118 13.2788 5.53996 14.0022 4.81719L15.7485 3.07227C15.7927 3.0281 15.8386 2.98663 15.886 2.94785L15.2931 2.35547C13.9291 0.992598 11.7176 0.992594 10.3536 2.35546L3.0873 9.61569Z" fill="white"/>
<path opacity="0.65" d="M16.6217 7.43459L18.3681 5.68967C19.0915 4.9669 19.0915 3.79506 18.3681 3.07229C17.6447 2.34952 16.4719 2.34952 15.7485 3.07229L14.0022 4.81721C13.2788 5.53998 13.2788 6.71182 14.0022 7.43459C14.7255 8.15736 15.8984 8.15736 16.6217 7.43459Z" fill="white"/>
</g>
</svg>
