<svg width="24" height="24" viewBox="0 0 24 24" fill="none" xmlns="http://www.w3.org/2000/svg">
<path fill-rule="evenodd" clip-rule="evenodd" d="M12 24C5.37257 24 0 18.6274 0 12C0 5.37257 5.37257 0 12 0C18.6274 0 24 5.37257 24 12C24 18.6274 18.6274 24 12 24ZM11.951 22.8735C5.94578 22.8735 1.07755 18.0052 1.07755 12C1.07755 5.99476 5.94578 1.12653 11.951 1.12653C17.9563 1.12653 22.8245 5.99476 22.8245 12C22.8245 18.0052 17.9563 22.8735 11.951 22.8735ZM12 22.0408C6.45463 22.0408 1.95918 17.5454 1.95918 12C1.95918 6.45463 6.45463 1.95918 12 1.95918C17.5454 1.95918 22.0408 6.45463 22.0408 12C22.0408 17.5454 17.5454 22.0408 12 22.0408ZM11.9755 20.8163C7.09288 20.8163 3.13469 16.8581 3.13469 11.9755C3.13469 7.09288 7.09288 3.13469 11.9755 3.13469C16.8581 3.13469 20.8163 7.09288 20.8163 11.9755C20.8163 16.8581 16.8581 20.8163 11.9755 20.8163ZM12.4745 4.83252L6.07406 15.936L5.38775 14.7453L11.1018 4.83252H12.4745ZM18.6122 14.7253L13.1343 5.22196L13.123 5.24155L13.1122 5.22284L6.62042 16.4848H7.99308L9.63311 13.6397C10.3783 13.4041 11.1718 13.277 11.9949 13.277C12.4192 13.277 12.8333 13.3067 13.2359 13.3658L12.4453 11.9965C12.2961 11.9892 12.1459 11.9856 11.9949 11.9856C11.492 11.9856 10.9987 12.0263 10.518 12.1046L13.1234 7.58454L17.9259 15.9159L18.6122 14.7253ZM14.8881 14.5808L12.4266 10.3105L13.1129 9.11985L17.3582 16.4848H15.9856L15.9725 16.4621C14.7952 15.7533 13.4443 15.395 11.9691 15.395C11.0271 15.395 10.124 15.5614 9.28761 15.8664L10.2072 14.2736C10.7876 14.1602 11.3777 14.1033 11.9691 14.1036C12.9899 14.1036 13.9716 14.2713 14.8881 14.5808Z" fill="#1D1D22"/>
</svg>
