<svg width="20" height="20" viewBox="0 0 20 20" fill="none" xmlns="http://www.w3.org/2000/svg">
<path fill-rule="evenodd" clip-rule="evenodd" d="M10 20C4.47714 20 4.09782e-07 15.5229 4.09782e-07 10C4.09782e-07 4.47714 4.47714 0 10 0C15.5229 0 20 4.47714 20 10C20 15.5229 15.5229 20 10 20ZM9.95918 19.0612C4.95482 19.0612 0.89796 15.0044 0.89796 10C0.89796 4.99563 4.95482 0.938775 9.95918 0.938775C14.9636 0.938775 19.0204 4.99563 19.0204 10C19.0204 15.0044 14.9636 19.0612 9.95918 19.0612ZM10 18.3673C5.37886 18.3673 1.63265 14.6211 1.63265 10C1.63265 5.37886 5.37886 1.63265 10 1.63265C14.6211 1.63265 18.3673 5.37886 18.3673 10C18.3673 14.6211 14.6211 18.3673 10 18.3673ZM9.97959 17.3469C5.91074 17.3469 2.61225 14.0484 2.61225 9.97959C2.61225 5.91073 5.91074 2.61224 9.97959 2.61224C14.0484 2.61224 17.3469 5.91073 17.3469 9.97959C17.3469 14.0484 14.0484 17.3469 9.97959 17.3469ZM10.3954 4.0271L5.06171 13.28L4.4898 12.2878L9.25151 4.0271H10.3954V4.0271ZM15.5102 12.2711L10.9452 4.35163L10.9358 4.36796L10.9268 4.35237L5.51702 13.7373H6.6609L8.02759 11.3664C8.64861 11.1701 9.3098 11.0642 9.99576 11.0642C10.3493 11.0642 10.6944 11.0889 11.0299 11.1382L10.3711 9.9971C10.2467 9.99102 10.1216 9.98796 9.99576 9.98796C9.57669 9.98796 9.16559 10.0219 8.76498 10.0871L10.9362 6.32045L14.9382 13.2633L15.5102 12.2711ZM12.4067 12.1507L10.3555 8.59208L10.9274 7.59988L14.4652 13.7373H13.3213L13.3104 13.7184C12.3293 13.1278 11.2036 12.8292 9.97425 12.8292C9.18927 12.8292 8.43669 12.9678 7.73967 13.222L8.506 11.8947C8.9897 11.8002 9.4814 11.7527 9.97425 11.753C10.8249 11.753 11.643 11.8928 12.4067 12.1507Z" fill="white"/>
</svg>
