<svg width="20" height="20" viewBox="0 0 20 20" fill="none" xmlns="http://www.w3.org/2000/svg">
<g clip-path="url(#clip0)">
<path d="M10.91 5.36853C10.5971 5.55011 10.368 5.84883 10.2724 6.19977C10.1769 6.55069 10.2226 6.92544 10.3998 7.24255C10.58 7.55775 10.8765 7.78853 11.2247 7.88467C11.5728 7.98081 11.9446 7.93458 12.2591 7.75598C12.5717 7.57428 12.8005 7.27566 12.8958 6.92492C12.9912 6.5742 12.9455 6.19972 12.7685 5.8828C12.6805 5.72544 12.5624 5.58723 12.4211 5.47609C12.2798 5.36497 12.118 5.28316 11.9451 5.23536C11.7723 5.18753 11.5918 5.17469 11.414 5.19755C11.2362 5.22042 11.0646 5.27852 10.9092 5.36853H10.91ZM9.60023 3.03211C9.37925 3.15945 9.2173 3.36984 9.14984 3.61722C9.08237 3.86462 9.11489 4.12888 9.24027 4.35217C9.36673 4.57475 9.57555 4.7378 9.821 4.80564C10.0664 4.87348 10.3286 4.84059 10.55 4.71417C10.6597 4.65133 10.7559 4.56731 10.8334 4.46695C10.9108 4.36661 10.9678 4.25186 11.0013 4.12928C11.0347 4.0067 11.0438 3.87869 11.0282 3.75255C11.0125 3.62639 10.9724 3.50461 10.91 3.39409C10.8476 3.28359 10.7643 3.18656 10.6647 3.10853C10.5651 3.0305 10.4513 2.97298 10.3297 2.9393C10.208 2.90561 10.081 2.89639 9.95588 2.91217C9.83072 2.92795 9.70988 2.96844 9.60023 3.0313V3.03211ZM9.60023 13.8696C9.37925 13.9969 9.2173 14.2073 9.14984 14.4547C9.08237 14.7021 9.11489 14.9663 9.24027 15.1897C9.36673 15.4122 9.57555 15.5753 9.821 15.6431C10.0664 15.7111 10.3286 15.6781 10.55 15.5516C10.7677 15.4228 10.9263 15.2128 10.9915 14.9671C11.0567 14.7213 11.0232 14.4595 10.8984 14.2384C10.7735 14.0173 10.5673 13.8547 10.3244 13.7856C10.0814 13.7166 9.82128 13.7468 9.60023 13.8696ZM14.2374 5.72083C14.0166 5.84817 13.8548 6.05841 13.7874 6.30559C13.7199 6.55281 13.7523 6.81684 13.8774 7.04008C14.0038 7.26281 14.2125 7.42602 14.458 7.49402C14.7034 7.56202 14.9656 7.52923 15.1872 7.40289C15.4082 7.27553 15.5701 7.06516 15.6375 6.81777C15.705 6.57036 15.6725 6.30611 15.5472 6.08283C15.4853 5.97181 15.4022 5.87428 15.3027 5.79588C15.2031 5.71747 15.0891 5.65977 14.9673 5.62609C14.8455 5.59242 14.7182 5.58347 14.5929 5.59972C14.4676 5.61598 14.3468 5.65714 14.2374 5.72083ZM4.87308 11.1404C4.65209 11.2677 4.49016 11.4781 4.42269 11.7255C4.35522 11.9729 4.38773 12.2371 4.51309 12.4604C4.63959 12.683 4.84839 12.8461 5.09384 12.9139C5.3393 12.9818 5.60139 12.9489 5.82284 12.8225C6.04369 12.695 6.20547 12.4845 6.27278 12.2371C6.34009 11.9897 6.30747 11.7256 6.18202 11.5024C6.05555 11.28 5.84687 11.1171 5.60162 11.0493C5.35637 10.9815 5.09447 11.0142 4.87308 11.1404ZM4.81283 5.72163C4.59241 5.84909 4.43094 6.05925 4.36364 6.30625C4.29636 6.55323 4.32872 6.81702 4.45364 7.04008C4.57998 7.26258 4.78859 7.42564 5.03386 7.49363C5.27913 7.56161 5.54111 7.52898 5.76259 7.40289C5.98358 7.27553 6.14552 7.06516 6.21298 6.81777C6.28044 6.57036 6.24794 6.30611 6.12258 6.08283C6.06159 5.97092 5.97894 5.8725 5.8795 5.79341C5.78006 5.71433 5.66587 5.65616 5.54372 5.62241C5.42156 5.58864 5.29392 5.57995 5.16834 5.59686C5.0428 5.61377 4.92189 5.65592 4.81283 5.72083V5.72163ZM14.2382 11.0796C14.0173 11.2068 13.8553 11.417 13.7877 11.6642C13.7201 11.9114 13.7524 12.1756 13.8774 12.3989C14.0038 12.6216 14.2125 12.7848 14.458 12.8528C14.7034 12.9208 14.9656 12.8881 15.1872 12.7617C15.4082 12.6343 15.5701 12.424 15.6375 12.1766C15.705 11.9292 15.6725 11.6649 15.5472 11.4416C15.4853 11.3306 15.4022 11.2331 15.3027 11.1547C15.2031 11.0763 15.0891 11.0186 14.9673 10.9849C14.8455 10.9512 14.7182 10.9423 14.5929 10.9585C14.4676 10.9748 14.3468 11.016 14.2374 11.0796H14.2382ZM16.6761 8.59095C16.4986 8.69255 16.3684 8.86106 16.3141 9.05941C16.2598 9.25775 16.2861 9.46969 16.3869 9.64863C16.4358 9.73673 16.5017 9.81425 16.5805 9.87667C16.6592 9.93911 16.7495 9.98523 16.8459 10.0124C16.9425 10.0396 17.0434 10.0472 17.143 10.035C17.2425 10.0227 17.3386 9.99078 17.4258 9.94097C17.5131 9.89153 17.59 9.82516 17.6519 9.7457C17.7138 9.66627 17.7594 9.57528 17.7863 9.47797C17.8133 9.38067 17.8208 9.27898 17.8084 9.17875C17.7962 9.0785 17.7645 8.98167 17.7152 8.89383C17.6678 8.80402 17.6031 8.7247 17.5248 8.66058C17.4464 8.59647 17.3563 8.54887 17.2592 8.52063C17.1623 8.49238 17.0606 8.48405 16.9606 8.49612C16.8605 8.5082 16.7636 8.54045 16.6761 8.59095ZM2.56455 8.59095C2.38692 8.69244 2.25656 8.86088 2.20217 9.05923C2.17522 9.15744 2.16775 9.26005 2.18016 9.36117C2.19256 9.46231 2.22461 9.55998 2.27447 9.64863C2.32433 9.73727 2.39102 9.81514 2.47073 9.8778C2.55047 9.94047 2.64164 9.9867 2.73909 10.0138C2.93589 10.0687 3.14625 10.0425 3.32387 9.94097C3.41125 9.89153 3.48806 9.82516 3.54994 9.7457C3.6118 9.66627 3.65748 9.57528 3.68434 9.47797C3.71123 9.38067 3.71878 9.27898 3.70656 9.17875C3.69433 9.0785 3.66259 8.98167 3.61314 8.89383C3.56473 8.80384 3.499 8.72448 3.41981 8.66041C3.34063 8.59631 3.24955 8.54878 3.15192 8.52058C3.05428 8.49238 2.95206 8.48408 2.8512 8.49616C2.75034 8.50825 2.65291 8.54047 2.56455 8.59095ZM12.8385 3.14305C12.8354 3.34716 12.9125 3.5442 13.0529 3.69133C13.1933 3.83845 13.3857 3.92372 13.5882 3.92861C13.7907 3.93166 13.9862 3.85398 14.1321 3.71247C14.2781 3.57095 14.3627 3.37708 14.3676 3.17302C14.3706 2.96891 14.2935 2.77186 14.1531 2.62473C14.0127 2.47762 13.8204 2.39234 13.6179 2.38745C13.5173 2.38498 13.4173 2.40261 13.3236 2.43934C13.2299 2.47606 13.1443 2.53114 13.0718 2.60142C12.9993 2.67169 12.9414 2.75572 12.9013 2.84869C12.8613 2.94166 12.8399 3.0417 12.8385 3.14305ZM5.63242 15.3613C5.62939 15.5655 5.70647 15.7625 5.84686 15.9095C5.98727 16.0567 6.17964 16.142 6.38211 16.147C6.58461 16.15 6.78013 16.0723 6.92609 15.9308C7.07206 15.7892 7.15667 15.5954 7.16153 15.3914C7.16455 15.1872 7.08748 14.9902 6.94708 14.843C6.80667 14.6959 6.61431 14.6106 6.41184 14.6058C6.20933 14.6027 6.01381 14.6804 5.86784 14.8219C5.72187 14.9634 5.63727 15.1573 5.63242 15.3613ZM6.05266 3.79742C6.13987 3.84853 6.23627 3.8818 6.33627 3.89531C6.43627 3.90881 6.53792 3.90228 6.63542 3.87611C6.73292 3.84991 6.82433 3.80459 6.90441 3.74273C6.98448 3.68086 7.05166 3.60367 7.10206 3.51558C7.15277 3.42764 7.18572 3.33045 7.19906 3.22962C7.21241 3.1288 7.20586 3.02631 7.1798 2.92803C7.15373 2.82978 7.1087 2.73766 7.04723 2.65698C6.98577 2.57631 6.90911 2.50866 6.82164 2.45791C6.73442 2.4068 6.63803 2.37353 6.53803 2.36002C6.43803 2.34652 6.33637 2.35305 6.23887 2.37922C6.14137 2.40539 6.04997 2.45073 5.96989 2.51259C5.88981 2.57445 5.82264 2.65166 5.77222 2.73975C5.6722 2.91794 5.64555 3.12856 5.69798 3.32634C5.75042 3.52413 5.87778 3.69327 6.05266 3.79742ZM13.1784 16.0667C13.2656 16.1178 13.362 16.1511 13.4621 16.1645C13.5621 16.178 13.6638 16.1713 13.7613 16.145C13.8588 16.1187 13.9502 16.0734 14.0302 16.0114C14.1103 15.9495 14.1774 15.8722 14.2278 15.7841C14.2785 15.6961 14.3114 15.5989 14.3247 15.4981C14.3381 15.3974 14.3315 15.2949 14.3055 15.1965C14.2794 15.0983 14.2344 15.0062 14.1729 14.9255C14.1115 14.8448 14.0348 14.7772 13.9473 14.7264C13.8601 14.6754 13.7638 14.6422 13.6639 14.6288C13.564 14.6154 13.4624 14.6219 13.365 14.6481C13.2676 14.6743 13.1763 14.7196 13.0963 14.7814C13.0163 14.8432 12.9491 14.9202 12.8987 15.0082C12.7986 15.1864 12.7718 15.3969 12.8241 15.5946C12.8764 15.7925 13.0036 15.9616 13.1784 16.0659V16.0667ZM12.4688 8.1188C12.1561 8.30037 11.9272 8.59894 11.8316 8.94967C11.7361 9.30042 11.7817 9.67497 11.9586 9.992C12.1388 10.3074 12.4351 10.5383 12.7833 10.6346C13.1315 10.7309 13.5033 10.6848 13.818 10.5063C14.1307 10.3245 14.3597 10.0258 14.4551 9.67484C14.5505 9.32394 14.5046 8.94925 14.3274 8.63225C14.2401 8.47427 14.1223 8.33544 13.9811 8.22384C13.84 8.11225 13.6781 8.03016 13.505 7.98236C13.332 7.93455 13.1512 7.922 12.9733 7.94542C12.7954 7.96884 12.6239 8.02778 12.4688 8.1188ZM10.91 10.8585C10.5973 11.0401 10.3683 11.3387 10.2728 11.6894C10.1773 12.0401 10.2229 12.4147 10.3998 12.7317C10.5799 13.0471 10.8763 13.278 11.2245 13.3743C11.5727 13.4706 11.9445 13.4245 12.2591 13.246C12.5719 13.0643 12.8008 12.7655 12.8962 12.4146C12.9916 12.0637 12.9457 11.689 12.7685 11.372C12.5887 11.0563 12.2923 10.8251 11.9439 10.7289C11.5955 10.6327 11.2236 10.6793 10.9092 10.8585H10.91ZM9.0908 5.36853C9.40356 5.55025 9.63252 5.84902 9.72792 6.19994C9.82331 6.55084 9.77742 6.92553 9.60023 7.24255C9.41995 7.55755 9.12364 7.78816 8.77567 7.8843C8.42769 7.98041 8.05612 7.93433 7.74169 7.75598C7.429 7.57441 7.20002 7.27584 7.10448 6.92511C7.00895 6.57438 7.05458 6.19983 7.23144 5.8828C7.31981 5.72575 7.43806 5.58784 7.57942 5.47698C7.72078 5.36609 7.88247 5.28444 8.0552 5.23666C8.22794 5.18887 8.40833 5.17594 8.58605 5.19856C8.76375 5.22119 8.93528 5.27895 9.0908 5.36853ZM7.53195 8.1188C7.84452 8.30052 8.07331 8.59914 8.16869 8.94987C8.26406 9.30059 8.21833 9.67506 8.04139 9.992C7.86123 10.3074 7.56484 10.5383 7.21666 10.6346C6.86847 10.7309 6.49666 10.6848 6.18202 10.5063C5.86927 10.3245 5.6403 10.0258 5.54491 9.67484C5.44952 9.32394 5.49539 8.94925 5.67259 8.63225C5.75994 8.47427 5.87764 8.33544 6.01883 8.22384C6.16003 8.11225 6.32191 8.03016 6.49494 7.98236C6.668 7.93455 6.84877 7.922 7.02669 7.94542C7.20461 7.96884 7.37609 8.02778 7.53116 8.1188H7.53195ZM9.09 10.8585C9.40267 11.0401 9.63166 11.3387 9.7272 11.6894C9.82273 12.0401 9.77711 12.4147 9.60023 12.7317C9.42008 13.0469 9.12384 13.2777 8.77584 13.374C8.42786 13.4702 8.05622 13.4242 7.74169 13.246C7.42878 13.0644 7.19964 12.7657 7.10411 12.4148C7.00856 12.0638 7.05431 11.6891 7.23144 11.372C7.41173 11.0568 7.70817 10.826 8.05634 10.7299C8.40452 10.6337 8.77627 10.68 9.0908 10.8585H9.09ZM10.5894 0.61387C10.5894 0.946725 10.3202 1.22937 9.98031 1.22937C9.81861 1.22872 9.66373 1.16365 9.54948 1.04834C9.43522 0.933027 9.37086 0.776838 9.37042 0.61387C9.37042 0.272111 9.64041 0 9.98031 0C10.1412 0.00251181 10.2948 0.0681038 10.4085 0.182861C10.5222 0.297619 10.5871 0.452511 10.5894 0.61468V0.61387ZM10.5894 17.8695C10.5894 18.2016 10.3202 18.4834 9.98031 18.4834C9.81889 18.4828 9.66425 18.4178 9.55005 18.303C9.43583 18.188 9.37128 18.032 9.37042 17.8695C9.37042 17.5269 9.64041 17.2541 9.98031 17.2541C10.1413 17.2566 10.295 17.3222 10.4088 17.437C10.5225 17.552 10.5873 17.7072 10.5894 17.8695ZM2.85461 4.44206C3.14389 4.61294 3.24433 4.98628 3.08442 5.27783C3.00319 5.41772 2.87103 5.52016 2.71603 5.56341C2.56105 5.60666 2.39544 5.5873 2.25439 5.50945C2.11581 5.42756 2.01431 5.29453 1.97141 5.1385C1.92852 4.9825 1.94758 4.81577 2.02458 4.67367C2.10539 4.53333 2.23755 4.43047 2.3927 4.38717C2.54787 4.34387 2.7137 4.36358 2.85461 4.44206ZM17.7255 12.9836C18.0147 13.1553 18.1152 13.5278 17.9553 13.8202C17.8741 13.9599 17.7422 14.0621 17.5872 14.1054C17.4325 14.1486 17.267 14.1294 17.1261 14.0518C16.9872 13.9699 16.8858 13.8367 16.8427 13.6805C16.7998 13.5243 16.8191 13.3574 16.8962 13.2152C16.9775 13.0756 17.1095 12.9732 17.2642 12.93C17.4192 12.8868 17.5845 12.906 17.7255 12.9836ZM2.24473 12.9836C2.38453 12.912 2.54634 12.8975 2.69648 12.9431C2.84661 12.9887 2.97352 13.0909 3.05075 13.2285C3.128 13.366 3.14963 13.5283 3.11114 13.6815C3.07267 13.8347 2.97705 13.967 2.84417 14.051C2.7038 14.131 2.53766 14.1516 2.3822 14.1084C2.22675 14.0651 2.09467 13.9615 2.01492 13.8202C1.93706 13.6782 1.91752 13.511 1.96047 13.3546C2.00344 13.1982 2.10548 13.065 2.24473 12.9836ZM17.1261 4.45177C17.2658 4.38016 17.4277 4.36566 17.5778 4.41128C17.728 4.45688 17.8548 4.55911 17.9322 4.69664C18.0094 4.83419 18.0311 4.99644 17.9925 5.14967C17.9541 5.30288 17.8584 5.43522 17.7255 5.51917C17.5852 5.59919 17.4191 5.61981 17.2636 5.57655C17.1081 5.53328 16.9759 5.42964 16.8962 5.28836C16.8178 5.14645 16.7978 4.97913 16.8408 4.82255C16.8837 4.66597 16.9862 4.53277 17.1261 4.45177ZM5.67259 1.00746C5.66747 1.13492 5.61364 1.25543 5.52234 1.34377C5.43105 1.43213 5.30941 1.48148 5.18284 1.48148C5.05628 1.48148 4.93462 1.43213 4.84333 1.34377C4.75205 1.25543 4.6982 1.13492 4.69309 1.00746C4.69309 0.876447 4.74472 0.750786 4.83664 0.658141C4.92858 0.565495 5.05325 0.513448 5.18325 0.513448C5.248 0.511892 5.31239 0.523611 5.37252 0.547897C5.43264 0.572181 5.48723 0.608527 5.533 0.654725C5.57875 0.700923 5.61472 0.756012 5.63873 0.816641C5.66272 0.877286 5.67425 0.9422 5.67259 1.00746ZM15.3165 17.5066C15.3094 17.6325 15.2547 17.7511 15.1637 17.8375C15.0727 17.9241 14.9523 17.9723 14.8272 17.9723C14.7021 17.9723 14.5817 17.9241 14.4907 17.8375C14.3997 17.7511 14.345 17.6325 14.3378 17.5066C14.345 17.3808 14.3997 17.2622 14.4907 17.1758C14.5817 17.0892 14.7021 17.0409 14.8272 17.0409C14.9523 17.0409 15.0727 17.0892 15.1637 17.1758C15.2547 17.2622 15.3094 17.3808 15.3165 17.5066ZM15.0474 1.43101C14.9909 1.46299 14.9287 1.48338 14.8644 1.49104C14.8001 1.49869 14.7349 1.49344 14.6726 1.4756C14.6104 1.45777 14.5522 1.42769 14.5015 1.38708C14.4508 1.3465 14.4085 1.2962 14.3772 1.23908C14.3455 1.18218 14.3253 1.11951 14.3177 1.05471C14.3101 0.989891 14.3153 0.9242 14.333 0.86142C14.3507 0.798641 14.3805 0.740019 14.4208 0.688916C14.4611 0.637811 14.511 0.595242 14.5677 0.563659C14.6241 0.531816 14.6862 0.511519 14.7504 0.503934C14.8146 0.496348 14.8797 0.501625 14.9419 0.519459C15.0041 0.537294 15.0622 0.567334 15.1128 0.607858C15.1635 0.648381 15.2057 0.698588 15.237 0.755595C15.3672 0.987217 15.2772 1.28928 15.0474 1.4302V1.43101ZM5.43234 17.9497C5.37597 17.9814 5.31391 18.0019 5.2497 18.0095C5.18552 18.017 5.12047 18.012 5.0583 17.9941C4.99609 17.9764 4.938 17.9466 4.88733 17.9061C4.83664 17.8655 4.79439 17.8155 4.763 17.7584C4.73125 17.7017 4.71095 17.6391 4.70331 17.5744C4.69566 17.5095 4.7008 17.4439 4.71842 17.3811C4.73605 17.3183 4.7658 17.2595 4.806 17.2084C4.8462 17.1573 4.89603 17.1147 4.95263 17.083C5.00909 17.0511 5.07125 17.0306 5.13556 17.0231C5.19986 17.0153 5.26505 17.0208 5.32733 17.0384C5.38962 17.0562 5.4478 17.0864 5.49848 17.127C5.5492 17.1677 5.59144 17.218 5.62277 17.275C5.65558 17.3316 5.6767 17.3942 5.68488 17.4592C5.69305 17.5242 5.68809 17.5903 5.6703 17.6533C5.65252 17.7163 5.62225 17.775 5.58136 17.8259C5.54047 17.8769 5.48978 17.9191 5.43234 17.9497ZM19.2547 9.65997C19.1416 9.59223 19.0595 9.48253 19.0258 9.35444C18.9922 9.22633 19.0097 9.09005 19.0747 8.97481C19.1419 8.86091 19.2506 8.77811 19.3778 8.74419C19.5048 8.71027 19.6402 8.72795 19.7544 8.79342C19.8673 8.86112 19.9497 8.97083 19.9833 9.09894C20.017 9.22703 19.9994 9.36334 19.9344 9.47855C19.7842 9.71988 19.4845 9.80086 19.2547 9.65997ZM0.245561 9.71017C0.132543 9.64245 0.0503843 9.53277 0.0167303 9.40466C-0.0169236 9.27655 0.000611818 9.14025 0.0655702 9.02503C0.132763 8.91111 0.241598 8.82831 0.368702 8.79439C0.495805 8.76048 0.631037 8.77816 0.745356 8.84363C0.985611 8.97481 1.05552 9.28742 0.925347 9.52875C0.892902 9.58605 0.849475 9.63625 0.797595 9.67645C0.745713 9.71667 0.686413 9.74606 0.623147 9.76295C0.559881 9.77983 0.493916 9.78386 0.429092 9.7748C0.364267 9.76573 0.301878 9.74377 0.245561 9.71017Z" fill="white"/>
</g>
<defs>
<clipPath id="clip0">
<rect width="20" height="20" fill="white"/>
</clipPath>
</defs>
</svg>
