<svg width="20" height="20" viewBox="0 0 20 20" fill="none" xmlns="http://www.w3.org/2000/svg">
<path opacity="0.6" d="M17.8411 14.1668L17.9383 11L14.0728 6.78146L12.8209 8.99709L13.5235 9.72223L17.8411 14.1668Z" fill="white"/>
<path opacity="0.6" d="M15.7359 16.6669L17.4203 15.0001L12.3677 9.58378L11.4025 11.6626L11.927 12.2512L15.7359 16.6669Z" fill="white"/>
<path d="M1.00098 15.1355L2.97269 16.2599L9.53401 5.8464L8.42048 5.81789C7.47171 5.80464 6.44964 6.04864 5.98058 6.80659L2.25463 12.5219L1.0017 14.4279V15.1361L1.00098 15.1355Z" fill="white"/>
<path d="M13.3208 5.84668L10.386 5.85723L3.74609 16.701L6.06689 18.0235L6.69797 16.9641L13.3208 5.84668Z" fill="white"/>
<path d="M19 5.83215C18.9866 5.53241 18.8997 5.2404 18.7468 4.98131C18.5939 4.72221 18.3797 4.50379 18.1225 4.34489L10.8264 0.192538C10.566 0.0658673 10.2796 0 9.98941 0C9.6992 0 9.41286 0.0658673 9.1524 0.192538C9.09148 0.222896 2.05707 4.26052 2.05707 4.26052C1.95933 4.30696 1.86585 4.3617 1.77768 4.42414C1.54927 4.58489 1.36063 4.79477 1.22594 5.03802C1.09125 5.28126 1.014 5.55156 1 5.82859V14.4283L2.25293 12.5223L2.24328 5.88717C2.24914 5.7962 2.27532 5.70765 2.31992 5.6279C2.36452 5.54814 2.42644 5.47917 2.50121 5.42595C2.53433 5.40244 9.68885 1.30396 9.71161 1.2927C9.79726 1.25144 9.8912 1.22978 9.98646 1.22934C10.0817 1.22889 10.1759 1.24967 10.2619 1.29013L17.4636 5.38989C17.5475 5.44261 17.6173 5.51452 17.6672 5.59955C17.7171 5.68459 17.7456 5.78026 17.7502 5.87847V14.0982C17.7485 14.1835 17.7284 14.2673 17.6913 14.3442C17.6541 14.4211 17.6008 14.4893 17.5349 14.5442L16.138 15.3449L15.4179 15.7582L12.8429 17.2351L10.2315 18.7329C10.0871 18.7833 9.92918 18.7802 9.78693 18.7242L6.69738 16.9656L6.0663 18.0248L8.84291 19.6069C8.93479 19.6585 9.01659 19.7044 9.0837 19.7417C9.18768 19.7987 9.25854 19.8379 9.28345 19.8499C9.51575 19.9506 9.7669 20.0018 10.0205 20C10.2531 20.0003 10.4837 19.9574 10.7003 19.8734L18.2851 15.5263C18.4991 15.3616 18.674 15.1524 18.7974 14.9136C18.9209 14.6747 18.99 14.412 18.9997 14.1438L19 5.83215Z" fill="white"/>
</svg>
