<svg width="24" height="24" viewBox="0 0 24 24" fill="none" xmlns="http://www.w3.org/2000/svg">
<path d="M14.3927 10.9961L16.1552 8.00559L20.9057 15.4047L20.9079 16.8243L20.8924 7.05312C20.8868 6.93526 20.853 6.82046 20.7938 6.71841C20.7346 6.61637 20.6516 6.53008 20.552 6.46682L11.9993 1.54745C11.8971 1.4989 11.7853 1.47396 11.6722 1.4745C11.559 1.47503 11.4475 1.50102 11.3458 1.55053C11.3194 1.56376 11.2938 1.57855 11.2691 1.59482L11.2394 1.61364L2.93735 6.42441L2.90502 6.43894C2.86199 6.45887 2.82093 6.48281 2.78239 6.51043C2.62669 6.62162 2.52058 6.78923 2.48668 6.97752C2.48149 7.00608 2.47795 7.03492 2.47607 7.06389L2.48907 15.0264L6.914 8.16807C7.47105 7.2587 8.68485 6.96572 9.81161 6.98163L11.134 7.01583L3.34184 19.5121L4.26044 20.0409L12.146 7.02832L15.6315 7.01566L7.76624 20.3561L11.0442 22.2426L11.4359 22.4678C11.6048 22.535 11.7924 22.5387 11.9639 22.4783L20.6369 17.4522L18.9779 18.413L14.3927 10.9961ZM15.0652 20.6811L11.7547 15.4853L13.7754 12.0563L18.123 18.9088L15.0652 20.6811Z" fill="#1D1D22"/>
<path d="M1.00098 18.1637L3.34257 19.513L11.1348 7.01675L9.81234 6.98254C8.68558 6.96664 7.47177 7.25944 6.91472 8.16899L2.4898 15.0273L1.00183 17.3145V18.1644L1.00098 18.1637Z" fill="white"/>
<path d="M15.6321 7.0166L12.1468 7.02926L4.26123 20.0418L7.0174 21.6288L7.76686 20.3576L15.6321 7.0166Z" fill="white"/>
<path opacity="0.5" d="M22.3767 6.99858C22.3607 6.6389 22.2575 6.28849 22.076 5.97757C21.8944 5.66665 21.64 5.40455 21.3346 5.21387L12.6698 0.231045C12.3605 0.0790407 12.0204 0 11.6758 0C11.3311 0 10.9911 0.0790407 10.6817 0.231045C10.6094 0.267475 2.25537 5.11262 2.25537 5.11262C2.1393 5.16835 2.02828 5.23404 1.92357 5.30896C1.65231 5.50186 1.42829 5.75372 1.26832 6.04562C1.10836 6.33752 1.01663 6.66187 1 6.99431V17.314L2.48797 15.0268L2.47651 7.0646C2.48347 6.95544 2.51456 6.84918 2.56753 6.75348C2.62049 6.65777 2.69403 6.57501 2.78283 6.51114C2.82217 6.48292 11.3188 1.56475 11.3459 1.55124C11.4476 1.50172 11.5591 1.47574 11.6723 1.47521C11.7854 1.47467 11.8972 1.49961 11.9994 1.54816L20.5521 6.46787C20.6517 6.53113 20.7346 6.61742 20.7939 6.71946C20.8531 6.82151 20.8869 6.93631 20.8925 7.05417V16.9179C20.8904 17.0201 20.8665 17.1208 20.8224 17.2131C20.7783 17.3054 20.715 17.3872 20.6368 17.453L18.9778 18.4139L18.1226 18.9099L15.0646 20.6821L11.9633 22.4795C11.7918 22.54 11.6042 22.5363 11.4353 22.469L7.76617 20.3587L7.01671 21.6298L10.3142 23.5282C10.4233 23.5902 10.5205 23.6452 10.6002 23.69C10.7236 23.7584 10.8078 23.8055 10.8374 23.8199C11.1133 23.9407 11.4115 24.0021 11.7127 23.9999C11.9889 24.0003 12.2628 23.9488 12.52 23.8481L21.5277 18.6316C21.7818 18.4339 21.9895 18.1829 22.1361 17.8963C22.2828 17.6097 22.3648 17.2944 22.3763 16.9726L22.3767 6.99858Z" fill="#1D1D22"/>
</svg>
