<svg width="24" height="24" viewBox="0 0 24 24" fill="none" xmlns="http://www.w3.org/2000/svg">
<path d="M17.989 8.36737H16.0468C15.831 8.36737 15.6152 8.26928 15.4583 8.11234L14.6736 7.22954C14.4382 6.97451 14.0654 6.95489 13.7908 7.17068L13.7319 7.22954L13.0649 7.99463C12.8491 8.24966 12.5156 8.38699 12.1821 8.38699H1.56892C1.27465 9.25017 1.07847 10.1722 1 11.0942H11.0443C11.2209 11.0942 11.3974 11.0158 11.5151 10.8981L12.4568 9.91717C12.5745 9.79947 12.7314 9.72099 12.908 9.72099H12.9472C13.1238 9.72099 13.3003 9.79947 13.418 9.93679L14.2028 10.8196C14.3597 10.9962 14.5755 11.0942 14.7913 11.0942H22.9719C22.8934 10.1722 22.6973 9.25017 22.403 8.38699H17.989V8.36737ZM11.5544 13.7819L10.7697 12.8991C10.5342 12.644 10.1615 12.6244 9.88685 12.8402L9.828 12.8991L9.14138 13.6642C8.92558 13.9192 8.6117 14.0565 8.27819 14.0565H1.15694C1.3335 14.9982 1.64739 15.9202 2.05936 16.803H7.06189C7.23845 16.803 7.39539 16.7245 7.53272 16.6068L8.47437 15.6259C8.59208 15.5082 8.74902 15.4298 8.92558 15.4298H8.96482C9.14138 15.4298 9.31793 15.5082 9.43564 15.6456L10.2204 16.5284C10.3773 16.7049 10.5931 16.803 10.8089 16.803H21.9125C22.3245 15.9398 22.6384 15.0178 22.815 14.0565H12.1429C11.9075 14.0565 11.6917 13.9584 11.5544 13.7819ZM15.3994 5.22852L16.3411 4.24764C16.4588 4.12993 16.6157 4.05146 16.7923 4.05146H16.8315C17.0081 4.05146 17.1847 4.12993 17.3024 4.24764L18.0871 5.13043C18.244 5.30699 18.4598 5.38547 18.6756 5.38547H20.7943C17.1062 0.520259 10.1811 -0.441012 5.29629 3.22751C4.49196 3.83566 3.76611 4.56152 3.13834 5.38547H14.9286C15.1248 5.4247 15.2817 5.34623 15.3994 5.22852ZM7.80737 19.5103C7.57195 19.5103 7.35616 19.4122 7.21883 19.2552L6.43412 18.3724C6.19871 18.1174 5.80635 18.0978 5.55132 18.3332L5.51209 18.3724L4.82547 19.1375C4.60967 19.3926 4.29579 19.5299 3.96228 19.5299H3.92305C8.0624 23.9635 15.0659 24.1793 19.5192 20.0007C19.6957 19.8438 19.8527 19.6672 20.0292 19.4906H7.80737V19.5103Z" fill="#1D1D22"/>
</svg>
