<svg width="20" height="20" viewBox="0 0 20 20" fill="none" xmlns="http://www.w3.org/2000/svg">
<g clip-path="url(#clip0_7348_85190)">
<path d="M14.9905 6.97248H13.372C13.1922 6.97248 13.0124 6.89074 12.8816 6.75995L12.2277 6.02429C12.0315 5.81176 11.7209 5.79541 11.492 5.97524L11.443 6.02429L10.8871 6.66187C10.7073 6.87439 10.4294 6.98883 10.1514 6.98883H1.3071C1.06188 7.70815 0.8984 8.47651 0.833008 9.24487H9.20326C9.35039 9.24487 9.49752 9.17948 9.59561 9.08139L10.3803 8.26398C10.4784 8.1659 10.6092 8.1005 10.7563 8.1005H10.789C10.9362 8.1005 11.0833 8.1659 11.1814 8.28033L11.8353 9.016C11.9661 9.16313 12.1459 9.24487 12.3258 9.24487H19.1429C19.0775 8.47651 18.9141 7.70815 18.6688 6.98883H14.9905V6.97248ZM9.62831 11.4846L8.97438 10.7489C8.77821 10.5364 8.46759 10.52 8.23872 10.6999L8.18967 10.7489L7.61749 11.3865C7.43766 11.599 7.17609 11.7134 6.89817 11.7134H0.963793C1.11093 12.4982 1.3725 13.2665 1.71581 14.0022H5.88458C6.03172 14.0022 6.1625 13.9368 6.27694 13.8387L7.06165 13.0213C7.15974 12.9232 7.29052 12.8578 7.43766 12.8578H7.47035C7.61749 12.8578 7.76462 12.9232 7.86271 13.0376L8.51663 13.7733C8.64742 13.9204 8.82725 14.0022 9.00708 14.0022H18.2601C18.6034 13.2829 18.865 12.5145 19.0121 11.7134H10.1188C9.92258 11.7134 9.74275 11.6317 9.62831 11.4846ZM12.8325 4.35678L13.6173 3.53937C13.7153 3.44128 13.8461 3.37589 13.9933 3.37589H14.026C14.1731 3.37589 14.3202 3.44128 14.4183 3.53937L15.0722 4.27504C15.203 4.42217 15.3829 4.48756 15.5627 4.48756H17.3283C14.2548 0.433224 8.48394 -0.367836 4.41325 2.68927C3.74298 3.19606 3.1381 3.80094 2.61496 4.48756H12.4402C12.6037 4.52026 12.7345 4.45487 12.8325 4.35678ZM6.50581 16.2582C6.30964 16.2582 6.12981 16.1765 6.01537 16.0457L5.36144 15.31C5.16527 15.0975 4.8383 15.0812 4.62578 15.2773L4.59308 15.31L4.0209 15.9476C3.84107 16.1601 3.5795 16.2746 3.30158 16.2746H3.26888C6.71834 19.9693 12.5546 20.1491 16.2657 16.6669C16.4128 16.5361 16.5436 16.389 16.6907 16.2419H6.50581V16.2582Z" fill="white"/>
</g>
<defs>
<clipPath id="clip0_7348_85190">
<rect width="20" height="20" fill="white"/>
</clipPath>
</defs>
</svg>
