<svg width="20" height="20" viewBox="0 0 20 20" fill="none" xmlns="http://www.w3.org/2000/svg">
<path fill-rule="evenodd" clip-rule="evenodd" d="M8.73516 7.40199C8.71758 7.72965 8.70324 8.06395 8.69233 8.40398C7.91167 8.84542 7.17296 9.2945 6.48866 9.74022C5.21414 8.86797 4.32213 8.15303 4.32213 8.15303C2.29129 6.52011 2.13872 5.72379 2.13872 5.72379L2.1381 5.72157C2.04898 5.51979 2.23711 5.47118 2.23711 5.47118C3.07001 5.32099 4.23996 5.66328 4.23996 5.66328C5.51367 5.94027 7.18655 6.6501 8.73516 7.40199ZM8.76367 6.91989C5.16831 5.23011 2.23071 4.52442 1.73832 5.33756C1.27459 6.10337 3.11146 7.99158 6.1031 9.99483C3.11364 11.9967 1.27819 13.8874 1.73699 14.6577C2.2251 15.4772 5.16219 14.7754 8.76402 13.0855C9.02411 17.0984 9.77785 20 10.667 20C11.5239 20 12.255 17.305 12.5397 13.5176C15.6841 14.886 18.1481 15.4014 18.5956 14.6624C19.0597 13.8979 17.2224 12.0088 14.2315 10.005C17.2206 8.00325 19.0558 6.11275 18.597 5.34251C18.1532 4.59757 15.688 5.10906 12.5393 6.47654C12.2543 2.6922 11.5234 0 10.667 0C9.77746 0 9.02344 2.90421 8.76367 6.91989ZM9.11003 7.58595C9.10753 7.67903 9.1025 7.88452 9.09805 8.17736C9.2893 8.07183 9.47987 7.9685 9.66953 7.86743C9.48627 7.77394 9.29944 7.67987 9.11003 7.58595ZM10.1606 7.60969C9.81828 7.43263 9.47954 7.26326 9.1458 7.10201C9.56996 2.00721 10.2972 0.77911 10.5491 0.500681C10.5756 0.471483 10.6104 0.453644 10.6474 0.450297C10.6844 0.446949 10.7213 0.458312 10.7516 0.482385C11.1272 0.779792 11.4421 2.02359 11.4421 2.02359C11.846 3.69903 12.0586 5.3301 12.1699 6.63949C11.5223 6.92957 10.8489 7.25408 10.1606 7.60969ZM10.1416 8.11091C9.83012 8.28127 9.47496 8.47867 9.09207 8.69692C9.08652 9.38999 9.08843 10.3355 9.11728 11.3771C9.30992 11.4837 9.5037 11.5874 9.69763 11.6873C9.69763 11.6873 9.86585 11.786 10.1725 11.9494C10.6079 11.7258 11.0425 11.489 11.4602 11.2419C11.4602 11.2419 11.7741 11.0787 12.2908 10.771C12.2992 10.3487 12.2992 9.924 12.288 9.50589C12.288 9.50589 12.2898 9.42763 12.29 9.28187C11.7585 8.97968 11.0033 8.56018 10.1416 8.11091ZM12.2849 8.78355C11.952 8.5875 11.6104 8.39231 11.2611 8.1989C11.0468 8.08023 10.8333 7.96431 10.6209 7.85123C11.1095 7.58909 11.4085 7.43684 11.4085 7.43684C11.6848 7.31304 11.9502 7.19663 12.2051 7.08719C12.2553 7.78259 12.2765 8.36475 12.2849 8.78355ZM12.6645 9.49654C12.6662 9.66332 12.667 9.83117 12.667 10C12.667 10.1827 12.666 10.3643 12.6641 10.5446C12.9121 10.3916 13.1904 10.2147 13.4911 10.0153C13.3636 9.92854 13.2327 9.84027 13.0983 9.75045C13.0983 9.75045 12.9412 9.65645 12.6645 9.49654ZM13.8655 9.763C13.4794 9.51097 13.0759 9.25778 12.6572 9.00542C12.6431 8.28932 12.6138 7.59541 12.5711 6.93178C16.4795 5.29115 17.7628 5.37532 18.1105 5.4675C18.1495 5.47798 18.1834 5.50143 18.2062 5.5337C18.229 5.56594 18.2392 5.60492 18.235 5.64371C18.1892 6.1232 17.3088 6.988 17.3088 6.988C16.1357 8.11585 14.8984 9.05591 13.8655 9.763ZM13.8465 10.2592C13.4661 10.507 13.0689 10.7558 12.657 11.0038C12.6427 11.7229 12.6131 12.4196 12.5699 13.0857C13.6692 13.5498 15.0118 14.0424 16.4672 14.4151C16.4672 14.4151 17.6876 14.7119 18.1433 14.5127C18.1802 14.4967 18.21 14.4688 18.2274 14.4339C18.2449 14.399 18.2489 14.3592 18.2386 14.3218C18.1442 13.9786 17.5465 12.8217 13.8465 10.2592ZM12.1842 12.9199C12.225 12.3838 12.2589 11.812 12.2785 11.229C11.9442 11.4255 11.6011 11.6212 11.2502 11.815C11.0309 11.9361 10.8125 12.0543 10.5953 12.1695C11.0074 12.3793 11.547 12.6408 12.1842 12.9199ZM9.74546 12.1644C9.54177 12.0562 9.33701 11.9454 9.13145 11.832C9.13851 12.0352 9.14664 12.2411 9.15599 12.4486C9.35054 12.357 9.54754 12.2622 9.74546 12.1644ZM8.67961 11.1293C8.67127 10.7587 8.66699 10.3818 8.66699 10C8.66699 9.64019 8.67079 9.28482 8.6782 8.93484C8.11231 9.26293 7.50226 9.62833 6.89319 10.0135C7.44498 10.3815 8.0521 10.7662 8.67961 11.1293ZM6.50639 10.261C7.18568 10.703 7.91827 11.1484 8.69202 11.5865C8.70346 11.9451 8.71871 12.2974 8.73756 12.6423C7.00975 13.4298 5.57506 13.9312 5.57506 13.9312C3.08485 14.7954 2.28813 14.5202 2.28813 14.5202H2.28804C2.05937 14.4924 2.11103 14.3114 2.11103 14.3114C2.39153 13.5433 3.28417 12.7425 3.28417 12.7425C4.05002 11.949 5.25583 11.0708 6.50639 10.261ZM10.1751 12.3896C10.8511 12.7392 11.5129 13.0587 12.1499 13.3451C12.0104 14.9796 11.8219 16.1882 11.8219 16.1882C11.3984 18.8705 10.8051 19.4357 10.8051 19.4357C10.6788 19.6239 10.5525 19.4827 10.5525 19.4827C10.0438 18.824 9.78952 17.6003 9.78952 17.6003C9.44798 16.3719 9.26877 14.6025 9.17758 12.8885C9.50568 12.7299 9.83861 12.5634 10.1751 12.3896Z" fill="white"/>
<path d="M10.667 11C11.2193 11 11.667 10.5523 11.667 9.99999C11.667 9.44771 11.2193 9 10.667 9C10.1147 9 9.66699 9.44771 9.66699 9.99999C9.66699 10.5523 10.1147 11 10.667 11Z" fill="white"/>
<path d="M15.167 6C15.4431 6 15.667 5.77615 15.667 5.49999C15.667 5.22385 15.4431 5 15.167 5C14.8909 5 14.667 5.22385 14.667 5.49999C14.667 5.77615 14.8909 6 15.167 6Z" fill="white"/>
<path d="M4.16698 9C4.44313 9 4.66699 8.55228 4.66699 8C4.66699 7.44772 4.44313 7 4.16698 7C3.89083 7 3.66699 7.44772 3.66699 8C3.66699 8.55228 3.89083 9 4.16698 9Z" fill="white"/>
<path d="M9.16701 17C9.44314 17 9.66699 16.7761 9.66699 16.5C9.66699 16.2239 9.44314 16 9.16701 16C8.89084 16 8.66699 16.2239 8.66699 16.5C8.66699 16.7761 8.89084 17 9.16701 17Z" fill="white"/>
</svg>
