<svg width="24" height="24" viewBox="0 0 24 24" fill="none" xmlns="http://www.w3.org/2000/svg">
<path fill-rule="evenodd" clip-rule="evenodd" d="M10.4818 8.88238C10.4607 9.27558 10.4435 9.67674 10.4304 10.0848C9.49361 10.6145 8.60716 11.1534 7.786 11.6883C6.25657 10.6416 5.18616 9.78363 5.18616 9.78363C2.74916 7.82414 2.56608 6.86855 2.56608 6.86855L2.56533 6.86588C2.45838 6.62375 2.68414 6.56541 2.68414 6.56541C3.68362 6.38518 5.08757 6.79594 5.08757 6.79594C6.61601 7.12833 8.62348 7.98012 10.4818 8.88238ZM10.516 8.30387C6.20158 6.27614 2.67646 5.4293 2.08559 6.40507C1.52912 7.32404 3.73336 9.5899 7.32332 11.9938C3.73598 14.396 1.53344 16.6649 2.084 17.5892C2.66973 18.5726 6.19423 17.7305 10.5164 15.7026C10.8285 20.518 11.733 24 12.8 24C13.8283 24 14.7056 20.766 15.0473 16.2211C18.8206 17.8632 21.7773 18.4817 22.3143 17.5949C22.8713 16.6774 20.6665 14.4105 17.0774 12.0059C20.6643 9.6039 22.8665 7.3353 22.316 6.41101C21.7834 5.51708 18.8252 6.13087 15.0468 7.77184C14.7047 3.23063 13.8277 0 12.8 0C11.7326 0 10.8277 3.48505 10.516 8.30387ZM10.9316 9.10314C10.9286 9.21484 10.9226 9.46142 10.9173 9.81282C11.1468 9.68619 11.3754 9.5622 11.603 9.44092C11.3831 9.32873 11.1589 9.21584 10.9316 9.10314ZM12.1924 9.13163C11.7815 8.91915 11.3751 8.71591 10.9746 8.52242C11.4836 2.40865 12.3563 0.934932 12.6586 0.600817C12.6903 0.56578 12.732 0.544373 12.7765 0.540356C12.8209 0.536339 12.8652 0.549974 12.9015 0.578862C13.3522 0.93575 13.7302 2.42831 13.7302 2.42831C14.2148 4.43883 14.4699 6.39612 14.6035 7.96739C13.8264 8.31548 13.0183 8.70489 12.1924 9.13163ZM12.1695 9.73309C11.7958 9.93752 11.3696 10.1744 10.9101 10.4363C10.9034 11.268 10.9057 12.4026 10.9403 13.6525C11.1715 13.7804 11.404 13.9049 11.6368 14.0248C11.6368 14.0248 11.8386 14.1432 12.2066 14.3393C12.729 14.071 13.2506 13.7868 13.7518 13.4902C13.7518 13.4902 14.1286 13.2944 14.7486 12.9252C14.7586 12.4185 14.7586 11.9088 14.7452 11.4071C14.7452 11.4071 14.7474 11.3132 14.7476 11.1382C14.1098 10.7756 13.2036 10.2722 12.1695 9.73309ZM14.7415 10.5403C14.3421 10.305 13.9321 10.0708 13.513 9.83868C13.2557 9.69628 12.9995 9.55717 12.7447 9.42148C13.3311 9.1069 13.6898 8.92421 13.6898 8.92421C14.0214 8.77565 14.3399 8.63595 14.6457 8.50462C14.7059 9.33911 14.7314 10.0377 14.7415 10.5403ZM15.197 11.3958C15.199 11.596 15.2 11.7974 15.2 12C15.2 12.2193 15.1988 12.4372 15.1965 12.6536C15.4941 12.47 15.828 12.2577 16.189 12.0183C16.036 11.9142 15.8789 11.8083 15.7176 11.7005C15.7176 11.7005 15.529 11.5877 15.197 11.3958ZM16.6383 11.7156C16.1749 11.4132 15.6907 11.1093 15.1883 10.8065C15.1713 9.94718 15.1362 9.1145 15.0849 8.31814C19.775 6.34938 21.315 6.45039 21.7322 6.561C21.779 6.57357 21.8197 6.60171 21.847 6.64044C21.8744 6.67912 21.8866 6.72591 21.8816 6.77246C21.8267 7.34785 20.7702 8.3856 20.7702 8.3856C19.3624 9.73902 17.8777 10.8671 16.6383 11.7156ZM16.6154 12.311C16.1589 12.6084 15.6823 12.907 15.1881 13.2045C15.1709 14.0675 15.1354 14.9036 15.0835 15.7029C16.4026 16.2597 18.0138 16.8509 19.7603 17.2981C19.7603 17.2981 21.2247 17.6543 21.7715 17.4152C21.8158 17.396 21.8516 17.3625 21.8725 17.3207C21.8935 17.2788 21.8982 17.2311 21.886 17.1862C21.7727 16.7744 21.0554 15.3861 16.6154 12.311ZM14.6206 15.5038C14.6696 14.8605 14.7103 14.1744 14.7338 13.4748C14.3327 13.7106 13.9209 13.9454 13.4998 14.178C13.2367 14.3233 12.9746 14.4651 12.714 14.6034C13.2084 14.8551 13.8561 15.169 14.6206 15.5038ZM11.6942 14.5973C11.4497 14.4674 11.204 14.3345 10.9574 14.1984C10.9658 14.4423 10.9756 14.6893 10.9868 14.9383C11.2203 14.8284 11.4567 14.7146 11.6942 14.5973ZM10.4151 13.3552C10.4051 12.9104 10.4 12.4582 10.4 12C10.4 11.5682 10.4046 11.1418 10.4135 10.7218C9.73438 11.1155 9.00233 11.554 8.27143 12.0162C8.93358 12.4578 9.66213 12.9194 10.4151 13.3552ZM7.80728 12.3132C8.62243 12.8436 9.50154 13.378 10.43 13.9038C10.4438 14.3342 10.4621 14.7569 10.4847 15.1708C8.41131 16.1157 6.68968 16.7175 6.68968 16.7175C3.70143 17.7545 2.74537 17.4242 2.74537 17.4242H2.74526C2.47085 17.3909 2.53284 17.1737 2.53284 17.1737C2.86945 16.2519 3.94062 15.291 3.94062 15.291C4.85963 14.3388 6.30661 13.2849 7.80728 12.3132ZM12.2097 14.8675C13.0209 15.287 13.8151 15.6704 14.5794 16.0141C14.4121 17.9755 14.1859 19.4259 14.1859 19.4259C13.6776 22.6446 12.9657 23.3228 12.9657 23.3228C12.8141 23.5487 12.6626 23.3792 12.6626 23.3792C12.0522 22.5888 11.747 21.1204 11.747 21.1204C11.3372 19.6463 11.1221 17.523 11.0127 15.4662C11.4064 15.2758 11.8059 15.0761 12.2097 14.8675Z" fill="#1D1D22"/>
<path d="M12.8001 13.1998C13.4629 13.1998 14.0001 12.6625 14.0001 11.9998C14.0001 11.3371 13.4629 10.7998 12.8001 10.7998C12.1374 10.7998 11.6001 11.3371 11.6001 11.9998C11.6001 12.6625 12.1374 13.1998 12.8001 13.1998Z" fill="#1D1D22"/>
<path d="M18.2001 7.2C18.5315 7.2 18.8001 6.93138 18.8001 6.59999C18.8001 6.26862 18.5315 6 18.2001 6C17.8687 6 17.6001 6.26862 17.6001 6.59999C17.6001 6.93138 17.8687 7.2 18.2001 7.2Z" fill="#1D1D22"/>
<path d="M4.99989 10.8004C5.33127 10.8004 5.5999 10.2631 5.5999 9.60039C5.5999 8.93765 5.33127 8.40039 4.99989 8.40039C4.66851 8.40039 4.3999 8.93765 4.3999 9.60039C4.3999 10.2631 4.66851 10.8004 4.99989 10.8004Z" fill="#1D1D22"/>
<path d="M10.9999 20.4002C11.3313 20.4002 11.5999 20.1316 11.5999 19.8002C11.5999 19.4688 11.3313 19.2002 10.9999 19.2002C10.6685 19.2002 10.3999 19.4688 10.3999 19.8002C10.3999 20.1316 10.6685 20.4002 10.9999 20.4002Z" fill="#1D1D22"/>
</svg>
