<svg width="24" height="24" viewBox="0 0 24 24" fill="none" xmlns="http://www.w3.org/2000/svg">
<path d="M6.02338 21.9996H1.98792C1.13997 21.9996 0.721075 21.9996 0.465636 21.8384C0.189822 21.6621 0.0212219 21.3701 0.000781692 21.0478C-0.0145163 20.7506 0.1949 20.3881 0.613795 19.6629L10.5779 2.34834C11.0019 1.61308 11.2164 1.24549 11.4871 1.1095C11.7783 0.9635 12.1257 0.9635 12.4169 1.1095C12.6876 1.24549 12.9021 1.61308 13.3261 2.34834L15.3745 5.87348L15.385 5.89148C15.8429 6.68028 16.0751 7.08026 16.1765 7.50007C16.2889 7.95835 16.2889 8.44178 16.1765 8.90005C16.0744 9.3231 15.8444 9.72599 15.3796 10.5267L10.1457 19.6478L10.1322 19.6712C9.67118 20.4664 9.4376 20.8695 9.11384 21.1737C8.7614 21.506 8.33743 21.7477 7.87257 21.8837C7.4486 21.9996 6.97353 21.9996 6.02338 21.9996Z" fill="#1D1D22"/>
<path d="M16.2143 22H21.9968C22.8499 22 23.279 22 23.5344 21.8338C23.8102 21.6576 23.9839 21.3604 23.9993 21.0381C24.014 20.7508 23.8091 20.4022 23.4076 19.7193L23.3658 19.6482L20.4695 14.7634L20.4365 14.7085C20.0295 14.0299 19.8239 13.6872 19.5602 13.5548C19.269 13.4087 18.9268 13.4087 18.6356 13.5548C18.37 13.6907 18.1554 14.0483 17.7314 14.7684L14.8453 19.6532L14.8354 19.6701C14.4129 20.3891 14.2018 20.7484 14.217 21.0432C14.2374 21.3655 14.406 21.6626 14.6819 21.8389C14.9322 22 15.3612 22 16.2143 22Z" fill="#1D1D22"/>
</svg>
