<svg width="20" height="20" viewBox="0 0 20 20" fill="none" xmlns="http://www.w3.org/2000/svg">
<path d="M5.01948 18.3326H1.6566C0.949975 18.3326 0.600895 18.3326 0.38803 18.1984C0.158185 18.0514 0.0176849 17.8081 0.00065141 17.5395C-0.0120969 17.2919 0.162416 16.9897 0.511496 16.3854L8.8149 1.95662C9.16821 1.34391 9.34701 1.03758 9.57262 0.924257C9.81527 0.802591 10.1047 0.802591 10.3474 0.924257C10.573 1.03758 10.7518 1.34391 11.1051 1.95662L12.8121 4.89424L12.8208 4.90924C13.2024 5.56658 13.3959 5.89989 13.4804 6.24973C13.5741 6.63163 13.5741 7.03449 13.4804 7.41639C13.3953 7.76892 13.2037 8.10466 12.8163 8.77193L8.45479 16.3728L8.44348 16.3923C8.05932 17.055 7.86467 17.3909 7.59486 17.6444C7.30117 17.9214 6.94786 18.1228 6.56048 18.2361C6.20717 18.3326 5.81127 18.3326 5.01948 18.3326Z" fill="white"/>
<path d="M13.5119 18.333H18.3307C19.0416 18.333 19.3991 18.333 19.612 18.1945C19.8418 18.0476 19.9866 17.8 19.9994 17.5315C20.0117 17.292 19.8409 17.0015 19.5063 16.4324L19.4715 16.3732L17.0579 12.3025L17.0304 12.2567C16.6912 11.6912 16.5199 11.4057 16.3002 11.2953C16.0575 11.1736 15.7723 11.1736 15.5297 11.2953C15.3083 11.4086 15.1295 11.7066 14.7762 12.3067L12.3711 16.3774L12.3629 16.3914C12.0108 16.9906 11.8348 17.29 11.8475 17.5357C11.8645 17.8043 12.005 18.0519 12.2349 18.1987C12.4435 18.333 12.801 18.333 13.5119 18.333Z" fill="white"/>
</svg>
