<svg width="24" height="24" viewBox="0 0 24 24" fill="none" xmlns="http://www.w3.org/2000/svg">
<path d="M19.8713 7.61745C19.8713 5.91034 19.0468 4.39928 17.7793 3.47161L21.2 0L19.1551 0.00956268L16.4365 2.76868C15.9324 2.59653 15.3952 2.50568 14.8345 2.50568H5.4772V15.957L16.7428 4.52361C17.7558 5.16916 18.4343 6.3168 18.4343 7.62223C18.4343 9.63538 16.8182 11.2756 14.8345 11.2756H14.5377L2 24H4.03544L6.49492 21.5039H14.8345C17.6144 21.5039 19.8713 19.2086 19.8713 16.3921C19.8713 14.532 18.8866 12.9062 17.4213 12.012C18.8866 11.1082 19.8713 9.47758 19.8713 7.61745ZM6.91426 12.428V3.96414H14.8345C14.9712 3.96414 15.1031 3.9737 15.235 3.98805L6.91426 12.428ZM18.4343 16.3825C18.4343 18.3957 16.8182 20.0359 14.8345 20.0359H7.93198L15.1031 12.7579C16.9595 12.9014 18.4343 14.465 18.4343 16.3825Z" fill="#1D1D22"/>
</svg>
