<svg width="20" height="20" viewBox="0 0 20 20" fill="none" xmlns="http://www.w3.org/2000/svg">
<path d="M16.5598 6.34788C16.5598 4.92528 15.8726 3.66607 14.8164 2.89301L17.667 0L15.9629 0.0079689L13.6974 2.30723C13.2773 2.16378 12.8297 2.08807 12.3625 2.08807H4.56466V13.2975L13.9526 3.76967C14.7968 4.30763 15.3622 5.264 15.3622 6.35186C15.3622 8.02949 14.0155 9.39629 12.3625 9.39629H12.1151L1.66699 20H3.36319L5.41276 17.9199H12.3625C14.679 17.9199 16.5598 16.0072 16.5598 13.6601C16.5598 12.11 15.7391 10.7551 14.518 10.01C15.7391 9.25682 16.5598 7.89799 16.5598 6.34788ZM5.76221 10.3566V3.30345H12.3625C12.4763 3.30345 12.5863 3.31142 12.6962 3.32337L5.76221 10.3566ZM15.3622 13.6521C15.3622 15.3297 14.0155 16.6966 12.3625 16.6966H6.61031L12.5863 10.6316C14.1333 10.7511 15.3622 12.0542 15.3622 13.6521Z" fill="white"/>
</svg>
