<svg width="20" height="20" viewBox="0 0 20 20" fill="none" xmlns="http://www.w3.org/2000/svg">
<mask id="mask0" mask-type="alpha" maskUnits="userSpaceOnUse" x="2" y="0" width="16" height="20">
<path d="M11.2502 8.37242C11.3287 8.32544 11.5146 8.15152 11.6693 8.0093C12.3679 7.36181 12.2594 6.17731 11.4211 5.70375C10.9869 5.43588 10.4754 5.40414 9.99388 5.46761C9.26407 5.56156 8.59663 5.76723 7.86807 5.97292C7.71338 6.00466 7.69716 6.06684 7.72835 6.22555C8.02275 7.25138 8.30222 8.23148 8.56669 9.27253C8.56669 9.383 8.64405 9.39948 8.75257 9.39948C8.93971 9.33602 9.09441 9.30427 9.28029 9.25731C9.94772 8.95769 10.5677 8.76725 11.2514 8.37242H11.2502ZM10.196 14.8003C10.2421 14.7685 10.3045 14.8003 10.3045 14.8003C11.0805 14.5781 11.9014 14.3737 12.6474 13.9941C13.1751 13.7415 13.6404 13.4736 13.9972 13.0318C14.6484 12.3043 14.384 11.0411 13.5319 10.631C13.1277 10.4101 12.6786 10.3936 12.2133 10.3784C11.2202 10.3936 10.2421 10.7415 9.29525 11.0576C9.14055 11.0893 9.1705 11.1363 9.20293 11.2785C9.35763 11.752 9.45119 12.2103 9.60589 12.6839C9.7768 13.3949 9.99388 14.0576 10.196 14.8003ZM2.06452 5.49936C2.59224 5.35717 3.10497 5.16673 3.64766 5.0258C4.17535 4.88361 4.68683 4.69317 5.23078 4.55098C5.38546 4.52052 5.40044 4.45703 5.3705 4.29833C5.12099 3.47819 4.90391 2.6885 4.65564 1.86709C4.62572 1.70966 4.64069 1.64617 4.79539 1.61444C5.29189 1.48748 5.71108 1.36179 6.17641 1.20436C6.33235 1.17262 6.34733 1.21961 6.36353 1.33131C6.58061 2.11973 6.82888 2.94116 7.04596 3.71433C7.07714 3.76256 7.0921 3.79303 7.10833 3.90477C7.49507 3.79303 7.91424 3.65084 8.30222 3.54038C8.34963 3.50994 8.33341 3.3982 8.34963 3.33598C8.1625 2.70375 7.99282 2.11973 7.8531 1.47226C7.79072 1.28182 7.74458 1.07869 7.68219 0.88825C7.63479 0.809521 7.651 0.729552 7.75954 0.729552C8.25607 0.602594 8.72138 0.446425 9.2491 0.304243C9.29525 0.272504 9.31147 0.319468 9.35763 0.304243C9.54475 0.935214 9.71443 1.51922 9.86911 2.10448C9.94772 2.34063 10.0251 2.57806 10.0712 2.84594C10.1024 3.00336 10.1648 3.01986 10.3207 2.98811C10.9096 2.92464 11.4834 2.87767 12.0735 2.81419C12.6312 2.8307 13.2063 2.94116 13.749 3.1938C14.4938 3.62038 14.9279 4.26786 15.1462 5.05627C15.2847 5.59331 15.3633 6.13033 15.2236 6.66863C15.115 7.07745 14.8817 7.44181 14.6185 7.77317C14.5711 7.80491 14.5561 7.86713 14.4788 7.91538C14.727 7.94711 14.9279 7.93059 15.1774 7.96234C15.906 8.05755 16.4948 8.32544 17.0076 8.83074C17.3643 9.25731 17.6126 9.79434 17.7523 10.3314C17.9232 11.0258 18.0005 11.6568 17.8921 12.3525C17.7523 13.1727 17.3332 13.8202 16.6969 14.3102C15.8898 14.9577 15.0053 15.3678 14.0896 15.7322C13.9348 15.7627 13.8725 15.8578 13.9037 15.9987C14.1207 16.7897 14.369 17.6111 14.5873 18.3844C14.6497 18.5747 14.6647 18.6205 14.4002 18.6522C13.9823 18.7944 13.4857 18.9061 13.0503 19.047C12.8956 19.0788 12.8794 19.0319 12.8645 18.92C12.6152 18.1069 12.3926 17.2853 12.197 16.457C12.1509 16.3784 12.1658 16.2997 12.0573 16.3161C11.6706 16.4266 11.2813 16.537 10.8634 16.6792C11.0019 17.1045 11.0955 17.5794 11.2202 18.0047C11.3599 18.4312 11.4523 18.9061 11.577 19.3314C11.577 19.4417 11.6082 19.4902 11.4523 19.5219C10.9557 19.6475 10.4904 19.805 10.0251 19.9637C9.87036 19.9955 9.85416 19.9472 9.83793 19.8367C9.58908 19.0234 9.36691 18.202 9.17174 17.3738C9.14055 17.3267 9.17174 17.2633 9.10936 17.1833C7.99282 17.5006 6.89 17.8003 5.72729 18.1481C5.71108 17.9259 5.67989 17.7673 5.66491 17.5477C5.6271 17.082 5.57008 16.6183 5.494 16.1575C5.46282 16 5.51021 15.9836 5.63372 15.9048C5.97555 15.8109 6.36354 15.6992 6.67294 15.5735C7.06091 15.463 7.21686 15.1469 7.0921 14.8155C6.43293 12.3042 5.73464 9.80364 4.99749 7.31484C4.88896 6.92128 4.4548 6.66736 4.00444 6.76258C3.55533 6.85653 3.11994 6.99872 2.74818 7.10919C2.66958 7.15742 2.59224 7.14092 2.59224 7.03045C2.4525 6.49344 2.2816 5.89419 2.14313 5.35717C2.04957 5.57806 2.04957 5.57806 2.06452 5.49936Z" fill="white"/>
</mask>
<g mask="url(#mask0)">
<path d="M-4.84151 4.40771L12.0506 -5.51721L24.1617 15.8305L7.26962 25.7555L-4.84151 4.40771Z" fill="#57BD91"/>
</g>
</svg>
