<svg width="20" height="20" viewBox="0 0 20 20" fill="none" xmlns="http://www.w3.org/2000/svg">
<path d="M17.8347 14.0076H17.7498C17.4718 14.3252 17.1225 14.5726 16.7306 14.7294H16.6882C16.3415 14.8844 15.9636 14.957 15.5842 14.9417C15.0255 14.9763 14.4679 14.8589 13.9706 14.602H13.8432C13.3651 14.3487 12.9679 13.9662 12.6967 13.498V13.4131L11.6351 14.4747C11.6351 14.4747 11.4228 15.5362 11.3379 16.0458H11.3804C11.8982 16.6248 12.5332 17.087 13.2434 17.4018C13.9535 17.7166 14.7225 17.8768 15.4992 17.8717H15.6691C16.6948 17.8703 17.7033 17.6072 18.599 17.1073C19.0889 16.8534 19.5453 16.5396 19.9578 16.1732H20.0003L17.8347 14.0076Z" fill="white"/>
<path d="M3.14207 8.82644L3.5667 10.3976L3.65162 10.2702C3.86411 9.93671 4.14378 9.6512 4.47279 9.43187C4.80179 9.21253 5.1729 9.06418 5.56244 8.99629H5.60491C5.88222 8.92607 6.16843 8.89745 6.45416 8.91137C6.8864 8.95346 7.30546 9.08352 7.68558 9.29353V9.29353C8.21089 9.5806 8.67301 9.97052 9.04438 10.44L9.12931 10.525L10.1059 9.12368L10.4032 7.63749L10.2758 7.55256C9.6306 6.95491 8.86247 6.50562 8.02528 6.23622C7.57139 6.0902 7.10025 6.00454 6.62401 5.98145H6.58155C5.51131 5.99273 4.46068 6.26997 3.52424 6.78824V6.78824L3.09961 8.65659L3.14207 8.82644Z" fill="white"/>
<path d="M12.4416 12.9034V11.9267C12.4176 11.234 12.6437 10.5557 13.0785 10.0159H13.121L13.2908 9.80358C13.5784 9.50906 13.9218 9.27476 14.3009 9.11437C14.68 8.95398 15.0872 8.8707 15.4989 8.8694H15.9235C16.5938 8.98155 17.215 9.29217 17.7069 9.76112H17.7494L19.8725 7.63798H19.7876C18.7311 6.59031 17.3246 5.97024 15.8386 5.89701H15.4139C14.5262 5.90223 13.6473 6.07511 12.8237 6.40657C12.2927 6.65167 11.8051 6.98153 11.38 7.38321H11.2951L10.8704 7.8503L10.5307 9.33649L9.38425 10.8651V11.9692C9.3785 12.5563 9.20837 13.13 8.89315 13.6254C8.57793 14.1207 8.13023 14.5178 7.60082 14.7717V14.7717C7.12711 14.9709 6.61224 15.0524 6.10017 15.0094C5.5881 14.9664 5.09404 14.8002 4.66017 14.5248C4.22629 14.2495 3.86549 13.8732 3.60856 13.4282C3.35163 12.9832 3.20621 12.4826 3.1847 11.9692V10.9076L2.63269 8.74201L3.09977 6.74627V3.56157L0 2.5L0.0849254 9.50634V12.0116C0.0787324 12.0987 0.093285 12.186 0.127388 12.2664H0.169851C0.213534 13.1178 0.441118 13.9496 0.836948 14.7046C1.23278 15.4596 1.78746 16.1199 2.46283 16.6401C3.58612 17.4941 4.95833 17.9565 6.3694 17.9564H6.62418C8.0539 17.968 9.43481 17.4369 10.4883 16.4702V16.4702L10.9129 16.0031L11.2526 14.2622L12.4416 12.8609V12.9034Z" fill="white"/>
</svg>
