<svg width="24" height="24" viewBox="0 0 24 24" fill="none" xmlns="http://www.w3.org/2000/svg">
<path d="M21.4011 16.8088H21.2992C20.9656 17.19 20.5466 17.4869 20.0763 17.6751H20.0253C19.6093 17.861 19.1558 17.9482 18.7005 17.9298C18.0301 17.9713 17.361 17.8304 16.7642 17.5222H16.6113C16.0377 17.2182 15.561 16.7592 15.2355 16.1974V16.0955L13.9617 17.3693C13.9617 17.3693 13.7069 18.6432 13.605 19.2547H13.6559C14.2773 19.9495 15.0394 20.5042 15.8916 20.8819C16.7437 21.2597 17.6665 21.4519 18.5986 21.4458H18.8024C20.0333 21.4441 21.2434 21.1284 22.3183 20.5286C22.9061 20.2238 23.4538 19.8473 23.9489 19.4075H23.9998L21.4011 16.8088Z" fill="#1D1D22"/>
<path d="M3.77068 10.5923L4.28023 12.4777L4.38214 12.3248C4.63713 11.9247 4.97274 11.5821 5.36754 11.3188C5.76234 11.0556 6.20768 10.8776 6.67513 10.7962H6.72608C7.05886 10.7119 7.40231 10.6776 7.74519 10.6943C8.26387 10.7448 8.76674 10.9008 9.22289 11.1528C9.85326 11.4973 10.4078 11.9652 10.8535 12.5286L10.9554 12.6306L12.1273 10.949L12.484 9.1656L12.3312 9.06369C11.5569 8.3465 10.6352 7.80736 9.63053 7.48408C9.08586 7.30885 8.5205 7.20606 7.94901 7.17834H7.89805C6.61377 7.19188 5.35302 7.52458 4.22928 8.14649L3.71973 10.3885L3.77068 10.5923Z" fill="#1D1D22"/>
<path d="M14.9299 15.484V14.3121C14.9012 13.4808 15.1725 12.6669 15.6942 12.0191H15.7452L15.949 11.7643C16.2941 11.4109 16.7061 11.1297 17.161 10.9372C17.616 10.7448 18.1047 10.6448 18.5986 10.6433H19.1082C19.9125 10.7779 20.658 11.1506 21.2483 11.7133H21.2993L23.847 9.16558H23.7451C22.4774 7.90838 20.7896 7.16429 19.0063 7.07642H18.4967C17.4314 7.08267 16.3768 7.29013 15.3885 7.68788C14.7512 7.98201 14.1661 8.37783 13.656 8.85985H13.5541L13.0445 9.42036L12.6369 11.2038L11.2611 13.0382V14.363C11.2542 15.0675 11.05 15.756 10.6718 16.3505C10.2935 16.9449 9.75628 17.4214 9.12098 17.7261C8.55253 17.965 7.93469 18.0629 7.32021 18.0113C6.70573 17.9597 6.11285 17.7602 5.5922 17.4298C5.07155 17.0994 4.63859 16.6479 4.33027 16.1139C4.02196 15.5798 3.84745 14.9791 3.82164 14.363V13.0891L3.15922 10.4904L3.71973 8.09552V4.27388L0 3L0.10191 11.4076V14.414C0.0944788 14.5185 0.111942 14.6233 0.152866 14.7197H0.203821C0.256241 15.7413 0.529342 16.7395 1.00434 17.6455C1.47933 18.5515 2.14495 19.3439 2.9554 19.9681C4.30335 20.9929 5.95 21.5478 7.64328 21.5477H7.94901C9.66468 21.5616 11.3218 20.9243 12.5859 19.7643L13.0955 19.2038L13.5031 17.1146L14.9299 15.4331V15.484Z" fill="#1D1D22"/>
</svg>
