<svg width="20" height="20" viewBox="0 0 20 20" fill="none" xmlns="http://www.w3.org/2000/svg">
<path d="M14.9739 9.35047C16.1076 8.61151 16.8858 7.77976 16.8858 6.21129C16.8858 3.7194 14.2757 2.55115 12.6876 2.40246C12.558 2.38904 12.1966 2.38345 12.1966 2.38345V0H9.60655L9.61244 2.38345H7.8818V0.00894375H5.24935V2.37228C4.7855 2.38234 2 2.3801 2 2.3801V4.48966C2 4.48966 2.70638 4.48966 2.90534 4.48966C3.77773 4.48966 4.17094 5.01286 4.17094 5.37731V5.50922V14.6059C4.16576 14.7555 4.10301 14.8982 3.99447 15.0067C3.88604 15.1153 3.73935 15.1823 3.58229 15.1951C3.18672 15.2118 2.59807 15.1951 2.59807 15.1951L2.09065 17.5864H5.25642V19.9955H7.89004V17.5998H9.62068V20H12.1954V17.6087C12.1954 17.6087 12.3367 17.6087 12.385 17.6087C15.3636 17.6087 17.9607 15.9318 17.9995 13.223C18.0349 10.9983 16.0334 9.71045 14.9739 9.35047ZM7.88887 8.2739V4.65623C8.24206 4.65623 9.54651 4.65623 10.3235 4.65623C10.3977 4.65623 10.4566 4.66853 10.5272 4.67188C11.5868 4.71995 12.2437 5.11906 12.5981 5.59978C12.8159 5.88809 12.9369 6.2322 12.9454 6.58692C12.9402 6.83264 12.8958 7.07613 12.8135 7.30911C12.7404 7.51202 12.6305 7.70117 12.4886 7.86808C12.3754 8.00838 12.2391 8.13035 12.0848 8.22918C11.6904 8.49189 11.1359 8.69871 10.3388 8.73561C10.3282 8.73561 7.92772 8.74231 7.88887 8.73561V8.2739ZM13.72 13.64C13.6403 13.8589 13.5207 14.0629 13.3669 14.2426C13.2448 14.3945 13.0973 14.5263 12.9301 14.6328C12.5039 14.9178 11.9046 15.1414 11.0464 15.1805C11.0358 15.1805 7.93125 15.1873 7.89004 15.1861V10.7736C8.27267 10.7736 10.1905 10.7792 11.0311 10.7792C11.11 10.7792 11.1747 10.7926 11.2501 10.796C12.3944 10.8485 13.1067 11.28 13.4869 11.8021C13.7228 12.1138 13.8537 12.4861 13.8625 12.8698C13.8553 13.1339 13.8056 13.3956 13.7153 13.6456L13.72 13.64Z" fill="white"/>
</svg>
