<svg width="20" height="20" viewBox="0 0 20 20" fill="none" xmlns="http://www.w3.org/2000/svg">
<path d="M15.163 8.88295C16.2259 8.18094 16.9554 7.39078 16.9554 5.90073C16.9554 3.53343 14.5085 2.42359 13.0196 2.28234C12.8982 2.26959 12.5593 2.26428 12.5593 2.26428V0H10.1311L10.1367 2.26428H8.51419V0.00849656H6.04627V2.25366C5.6114 2.26322 3 2.2611 3 2.2611V4.26518C3 4.26518 3.66223 4.26518 3.84876 4.26518C4.66662 4.26518 5.03526 4.76221 5.03526 5.10844V5.23376V13.8756C5.0304 14.0177 4.97158 14.1532 4.86981 14.2564C4.76816 14.3595 4.63064 14.4232 4.4834 14.4353C4.11255 14.4513 3.56069 14.4353 3.56069 14.4353L3.08499 16.707H6.05289V18.9958H8.52192V16.7198H10.1444V19H12.5582V16.7283C12.5582 16.7283 12.6907 16.7283 12.7359 16.7283C15.5283 16.7283 17.9631 15.1352 17.9996 12.5619C18.0327 10.4484 16.1564 9.22493 15.163 8.88295ZM8.52081 7.8602V4.42342C8.85193 4.42342 10.0749 4.42342 10.8033 4.42342C10.8728 4.42342 10.928 4.4351 10.9943 4.43829C11.9876 4.48396 12.6035 4.86311 12.9357 5.31979C13.1399 5.59369 13.2533 5.92059 13.2613 6.25757C13.2564 6.49101 13.2148 6.72233 13.1377 6.94366C13.0691 7.13642 12.966 7.31612 12.833 7.47468C12.727 7.60797 12.5992 7.72383 12.4545 7.81772C12.0847 8.0673 11.5649 8.26378 10.8177 8.29883C10.8077 8.29883 8.55724 8.3052 8.52081 8.29883V7.8602ZM13.9875 12.958C13.9128 13.166 13.8007 13.3598 13.6564 13.5305C13.542 13.6748 13.4037 13.8 13.2469 13.9011C12.8474 14.1719 12.2856 14.3843 11.481 14.4215C11.4711 14.4215 8.56055 14.4279 8.52192 14.4268V10.2349C8.88063 10.2349 10.6786 10.2402 11.4666 10.2402C11.5406 10.2402 11.6013 10.253 11.6719 10.2562C12.7448 10.3061 13.4125 10.716 13.769 11.212C13.9901 11.5081 14.1128 11.8618 14.1211 12.2263C14.1144 12.4772 14.0678 12.7259 13.9831 12.9633L13.9875 12.958Z" fill="#EAB300"/>
</svg>
