<svg width="20" height="20" viewBox="0 0 20 20" fill="none" xmlns="http://www.w3.org/2000/svg">
<path d="M17.416 8.1106C17.7287 5.99078 16.1027 4.88479 13.8825 4.08602L14.6017 1.19816L12.8193 0.798771L12.1001 3.59447C11.6623 3.5023 11.1308 3.41014 10.693 3.25653L11.4122 0.430108L9.62982 0L8.91061 2.88786C8.50411 2.7957 8.16014 2.73425 7.7849 2.64209L5.34586 2.05837L4.90809 3.93241C4.90809 3.93241 6.22141 4.23963 6.19014 4.23963C6.90935 4.42396 7.03443 4.88479 7.00316 5.22273L6.19014 8.47926C6.22141 8.47926 6.28395 8.50998 6.37776 8.50998C6.34649 8.50998 6.28395 8.47926 6.19014 8.47926L5.00189 13.0261C4.90809 13.2104 4.6892 13.5791 4.18888 13.4255C4.18888 13.4562 2.87555 13.1183 2.87555 13.1183L2 15.1152L4.31396 15.6682C4.75174 15.7604 5.15824 15.8525 5.59602 15.9754L4.84555 18.8633L6.62792 19.2934L7.34713 16.4055C7.84744 16.5591 8.31649 16.6513 8.75426 16.7435L8.03506 19.5699L9.81744 20L10.5679 17.1121C13.6011 17.6651 15.8838 17.4501 16.8531 14.7773C17.6036 12.596 16.8219 11.3364 15.2271 10.5684C16.2903 10.4455 17.1658 9.67742 17.416 8.1106ZM13.3509 13.7327C12.7881 15.914 9.09823 14.7158 7.87871 14.4393L8.84807 10.6298C10.0676 10.9063 13.9138 11.4286 13.3509 13.7327ZM13.9138 8.1106C13.4135 10.1075 10.3177 9.0937 9.31712 8.84793L10.1614 5.37634C11.1933 5.5914 14.4141 6.0215 13.9138 8.1106Z" fill="white"/>
</svg>
