<svg width="24" height="24" viewBox="0 0 24 24" fill="none" xmlns="http://www.w3.org/2000/svg">
<path fill-rule="evenodd" clip-rule="evenodd" d="M8.88423 10.103C8.87079 17.9406 8.85659 20.2327 8.82078 20.3205C8.76375 20.4605 8.60844 20.6278 8.45843 20.7107C8.35932 20.7655 8.2198 20.772 7.3456 20.7625C6.2435 20.7505 6.29131 20.7609 6.1277 20.4964L6.04668 20.3654L6.03407 11.0971C6.02712 5.99963 6.01662 1.6207 6.01073 1.36627L6 0.903638L6.47381 0.719703C7.20778 0.434781 8.62291 0.00615195 8.84994 6.49087e-07C8.89345 -0.00116923 8.89881 1.57839 8.88423 10.103ZM15.1619 10.5862C15.2343 10.6285 15.3407 10.7303 15.3984 10.8124L15.5032 10.9615L15.4776 17.3128L15.4521 23.6641L15.313 23.8073C15.2331 23.8896 15.1212 23.9611 15.0501 23.9753C14.9821 23.9889 14.5222 24 14.0283 24H13.1302L12.9472 23.8345L12.7641 23.6689L12.7406 22.8061C12.7277 22.3316 12.7259 19.4554 12.7366 16.4147C12.7552 11.1352 12.7591 10.8816 12.8252 10.7872C12.9208 10.6507 13.0763 10.5549 13.2551 10.5225C13.3382 10.5075 13.7716 10.4983 14.2182 10.5022C14.9603 10.5085 15.0416 10.5158 15.1619 10.5862ZM11.6877 11.5446C11.8213 11.5703 11.892 11.6152 12.0182 11.7542L12.1787 11.9311L12.176 16.6164C12.1744 19.1933 12.1605 21.6184 12.1451 22.0054C12.1134 22.7997 12.0983 22.8466 11.8287 22.9894C11.6774 23.0695 11.6251 23.0741 10.8568 23.0747C9.94879 23.0755 9.81392 23.0581 9.64792 22.9185C9.38199 22.6949 9.40265 23.1695 9.40265 17.2826C9.40265 11.4416 9.38475 11.8877 9.62855 11.6597C9.71345 11.5803 9.7783 11.5618 10.0382 11.5434C10.5318 11.5084 11.5025 11.5091 11.6877 11.5446ZM18.5091 12.5276C18.5529 12.5588 18.6332 12.6372 18.6876 12.7019L18.7866 12.8195L18.7968 17.2709L18.8071 21.7223L18.7161 21.8551C18.6661 21.9281 18.5653 22.0288 18.4922 22.0788C18.3596 22.1696 18.3576 22.1697 17.4011 22.162L16.4428 22.1544L16.322 22.0536C16.2555 21.9981 16.1671 21.8998 16.1255 21.8352C16.0515 21.72 16.0498 21.6433 16.0387 18.0001C16.0324 15.9554 16.0413 13.9478 16.0584 13.5387L16.0895 12.795L16.2019 12.6756C16.406 12.4589 16.4488 12.4517 17.4852 12.4618C18.2532 12.4693 18.4443 12.4816 18.5091 12.5276Z" fill="#1D1D22"/>
</svg>
