<svg width="20" height="20" viewBox="0 0 20 20" fill="none" xmlns="http://www.w3.org/2000/svg">
<path fill-rule="evenodd" clip-rule="evenodd" d="M7.40353 8.41914C7.39232 14.9505 7.38049 16.8606 7.35065 16.9338C7.30312 17.0504 7.1737 17.1898 7.04869 17.2589C6.9661 17.3046 6.84983 17.31 6.12133 17.3021C5.20291 17.2921 5.24276 17.3008 5.10641 17.0803L5.0389 16.9712L5.02839 9.24761C5.0226 4.99969 5.01385 1.35058 5.00894 1.13856L5 0.753032L5.39484 0.599753C6.00648 0.362317 7.18576 0.00512663 7.37495 5.40906e-07C7.41121 -0.000974359 7.41568 1.31533 7.40353 8.41914ZM12.6349 8.8218C12.6953 8.85712 12.7839 8.94194 12.832 9.0103L12.9193 9.13459L12.898 14.4273L12.8767 19.7201L12.7608 19.8395C12.6942 19.908 12.601 19.9675 12.5418 19.9794C12.4851 19.9907 12.1019 20 11.6903 20H10.9418L10.7893 19.8621L10.6367 19.7241L10.6172 19.0051C10.6064 18.6096 10.6049 16.2128 10.6138 13.6789C10.6293 9.27935 10.6326 9.06798 10.6877 8.98936C10.7673 8.87555 10.8969 8.79573 11.0459 8.76878C11.1152 8.75626 11.4763 8.74862 11.8485 8.7518C12.4669 8.75711 12.5346 8.76315 12.6349 8.8218ZM9.73973 9.62053C9.85106 9.64191 9.91001 9.67931 10.0151 9.79516L10.1489 9.94259L10.1466 13.847C10.1454 15.9945 10.1338 18.0153 10.1209 18.3378C10.0945 18.9998 10.0819 19.0388 9.85729 19.1578C9.73117 19.2246 9.68755 19.2284 9.0473 19.2289C8.29066 19.2296 8.17827 19.215 8.03994 19.0987C7.81833 18.9124 7.83554 19.3079 7.83554 14.4022C7.83554 9.53467 7.82062 9.90639 8.02379 9.71638C8.09454 9.65022 8.14858 9.63487 8.36513 9.61949C8.7765 9.59031 9.58545 9.5909 9.73973 9.62053ZM15.4242 10.4397C15.4607 10.4656 15.5277 10.531 15.573 10.5849L15.6555 10.6829L15.664 14.3924L15.6726 18.1019L15.5968 18.2126C15.5551 18.2734 15.4711 18.3573 15.4102 18.399C15.2997 18.4746 15.298 18.4748 14.5009 18.4684L13.7024 18.462L13.6016 18.378C13.5462 18.3318 13.4726 18.2499 13.438 18.196C13.3763 18.1 13.3748 18.0361 13.3656 15.0001C13.3604 13.2962 13.3678 11.6232 13.382 11.2823L13.4079 10.6625L13.5016 10.563C13.6717 10.3824 13.7074 10.3765 14.571 10.3849C15.211 10.3911 15.3703 10.4013 15.4242 10.4397Z" fill="white"/>
</svg>
