<svg width="24" height="24" viewBox="0 0 24 24" fill="none" xmlns="http://www.w3.org/2000/svg">
<path opacity="0.9" fill-rule="evenodd" clip-rule="evenodd" d="M0 14.5C0 19.7465 4.25347 24 9.5 24C14.7465 24 19 19.7465 19 14.5C19 9.25347 14.7465 5 9.5 5C4.25347 5 0 9.25347 0 14.5ZM16.4666 14.5C16.4666 18.3481 13.3481 21.4666 9.5 21.4666C5.65185 21.4666 2.53332 18.3481 2.53332 14.5C2.53332 10.6519 5.65185 7.53332 9.5 7.53332C13.3481 7.53332 16.4666 10.6519 16.4666 14.5Z" fill="#1D1D22"/>
<path opacity="0.9" fill-rule="evenodd" clip-rule="evenodd" d="M5 9.5C5 14.7465 9.25347 19 14.5 19C19.7465 19 24 14.7465 24 9.5C24 4.25347 19.7465 0 14.5 0C9.25347 0 5 4.25347 5 9.5ZM21.4667 9.5C21.4667 13.3481 18.3481 16.4666 14.5 16.4666C10.6519 16.4666 7.53332 13.3481 7.53332 9.5C7.53332 5.65185 10.6519 2.53332 14.5 2.53332C18.3481 2.53332 21.4667 5.65185 21.4667 9.5Z" fill="#1D1D22"/>
<path fill-rule="evenodd" clip-rule="evenodd" d="M5 9.13893C5.80436 8.4771 6.74365 8.00362 7.75165 7.75165C8.00366 6.74109 8.4771 5.80183 9.13893 5C7.97309 5.03817 6.81999 5.29018 5.74328 5.74328C5.28763 6.81999 5.03565 7.97056 5 9.13893ZM16.2484 16.2484C15.9964 17.2589 15.5229 18.1982 14.8611 19C16.0295 18.9644 17.18 18.7124 18.2568 18.2593C18.7124 17.18 18.9644 16.0295 19 14.8611C18.1956 15.5229 17.2564 15.9964 16.2484 16.2484Z" fill="#1D1D22"/>
</svg>
