<svg width="20" height="20" viewBox="0 0 20 20" fill="none" xmlns="http://www.w3.org/2000/svg">
<path opacity="0.9" fill-rule="evenodd" clip-rule="evenodd" d="M0 12.0837C0 16.4558 3.54456 20.0003 7.91667 20.0003C12.2888 20.0003 15.8333 16.4558 15.8333 12.0837C15.8333 7.71155 12.2888 4.16699 7.91667 4.16699C3.54456 4.16699 0 7.71155 0 12.0837ZM13.7222 12.0837C13.7222 15.2904 11.1234 17.8892 7.91667 17.8892C4.70987 17.8892 2.1111 15.2904 2.1111 12.0837C2.1111 8.87689 4.70987 6.2781 7.91667 6.2781C11.1234 6.2781 13.7222 8.87689 13.7222 12.0837Z" fill="white"/>
<path opacity="0.9" fill-rule="evenodd" clip-rule="evenodd" d="M4.16699 7.91667C4.16699 12.2888 7.71155 15.8333 12.0837 15.8333C16.4558 15.8333 20.0003 12.2888 20.0003 7.91667C20.0003 3.54456 16.4558 0 12.0837 0C7.71155 0 4.16699 3.54456 4.16699 7.91667ZM17.8892 7.91667C17.8892 11.1234 15.2904 13.7222 12.0837 13.7222C8.87689 13.7222 6.2781 11.1234 6.2781 7.91667C6.2781 4.70987 8.87689 2.1111 12.0837 2.1111C15.2904 2.1111 17.8892 4.70987 17.8892 7.91667Z" fill="white"/>
<path fill-rule="evenodd" clip-rule="evenodd" d="M4.16699 7.6161C4.83729 7.06458 5.62003 6.67001 6.46003 6.46003C6.67004 5.6179 7.06458 4.83519 7.6161 4.16699C6.64456 4.1988 5.68365 4.40881 4.78639 4.78639C4.40668 5.68365 4.1967 6.64246 4.16699 7.6161ZM13.5406 13.5406C13.3306 14.3827 12.9361 15.1655 12.3846 15.8337C13.3582 15.804 14.317 15.594 15.2143 15.2164C15.594 14.317 15.804 13.3582 15.8337 12.3846C15.1634 12.9361 14.3806 13.3306 13.5406 13.5406Z" fill="white"/>
</svg>
