<svg width="20" height="20" viewBox="0 0 20 20" fill="none" xmlns="http://www.w3.org/2000/svg">
<path fill-rule="evenodd" clip-rule="evenodd" d="M19.7385 1.09758C19.9274 1.28639 20.0022 1.4484 20 1.66328C19.9944 2.17703 20.058 2.11024 17.1442 4.6703C15.6492 5.98392 15.2669 6.31121 15.125 6.39955C15.0334 6.45658 12.5687 6.50681 8.46272 6.53532L1.94579 6.58058V12.2829V17.9852L8.08103 18.0085L14.2163 18.0317L15.3221 17.0642C15.9302 16.532 16.4412 16.0643 16.4574 16.0247C16.4736 15.9851 13.9204 15.9416 10.7836 15.928L5.08025 15.9034L4.80283 15.6376L4.52541 15.3717V11.3156C4.52541 9.08471 4.556 7.25762 4.59329 7.25544C4.72001 7.24793 6.19926 7.2454 6.31304 7.25246C6.40147 7.25789 6.42618 8.01186 6.42618 10.701V14.1427L12.8954 14.1361C17.2823 14.1315 19.4221 14.1602 19.5434 14.2251C20.0085 14.474 20.1434 15.1123 19.8183 15.5256C19.7166 15.6549 19.0344 16.2809 18.3022 16.9168C17.57 17.5526 16.8284 18.2012 16.6541 18.3579C15.6444 19.2659 15.137 19.6828 14.9511 19.757C14.6626 19.8723 0.89774 19.868 0.594069 19.7525C0.466356 19.704 0.280532 19.5308 0.181149 19.3678C0.00482986 19.0785 0.000394709 18.9081 0.00012317 12.301C-0.000238882 4.96257 -0.0163498 5.20587 0.489798 4.87423C0.696168 4.739 1.35121 4.72506 7.48943 4.72506H14.2614L15.3447 3.77404C15.9404 3.25106 16.4414 2.78266 16.458 2.73315C16.4777 2.67431 14.749 2.64327 11.4572 2.64327H6.42618V3.36737V4.09147H5.47579H4.52541V2.75396C4.52541 1.3244 4.5865 1.09378 5.01029 0.922796C5.117 0.879712 8.41493 0.841878 12.3391 0.83871L19.474 0.833008L19.7385 1.09758Z" fill="white"/>
</svg>
