<svg width="24" height="24" viewBox="0 0 24 24" fill="none" xmlns="http://www.w3.org/2000/svg">
<path fill-rule="evenodd" clip-rule="evenodd" d="M23.6863 1.31748C23.9128 1.54405 24.0027 1.73848 23.9999 1.99633C23.9933 2.61283 24.0696 2.53267 20.573 5.60476C18.779 7.18109 18.3203 7.57385 18.15 7.67985C18.0401 7.74828 15.0825 7.80856 10.1553 7.84278L2.33495 7.89709V14.7399V21.5826L9.69723 21.6106L17.0595 21.6385L18.3865 20.4775C19.1163 19.8388 19.7294 19.2775 19.7488 19.23C19.7683 19.1825 16.7045 19.1303 12.9403 19.114L6.0963 19.0845L5.7634 18.7655L5.43049 18.4465V13.5791C5.43049 10.902 5.4672 8.70953 5.51195 8.70692C5.66401 8.69791 7.43912 8.69487 7.57565 8.70334C7.68176 8.70986 7.71141 9.61462 7.71141 12.8416V16.9716L15.4745 16.9637C20.7388 16.9582 23.3065 16.9927 23.4521 17.0705C24.0103 17.3692 24.1721 18.1352 23.7819 18.6311C23.66 18.7862 22.8412 19.5374 21.9626 20.3005C21.084 21.0636 20.1941 21.8418 19.985 22.0298C18.7733 23.1194 18.1644 23.6197 17.9414 23.7088C17.5951 23.8472 1.07729 23.842 0.712883 23.7034C0.559627 23.6451 0.336639 23.4374 0.217379 23.2417C0.00579583 22.8946 0.00047365 22.6901 0.000147804 14.7616C-0.000286658 5.95547 -0.0196198 6.24743 0.587758 5.84946C0.835402 5.68719 1.62145 5.67047 8.98732 5.67047H17.1137L18.4136 4.52924C19.1285 3.90166 19.7297 3.33958 19.7496 3.28017C19.7733 3.20957 17.6988 3.17231 13.7486 3.17231H7.71141V4.04123V4.91016H6.57095H5.43049V3.30515C5.43049 1.58967 5.5038 1.31292 6.01234 1.10775C6.1404 1.05605 10.0979 1.01064 14.8069 1.00684L23.3688 1L23.6863 1.31748Z" fill="#1D1D22"/>
</svg>
