<svg width="24" height="24" viewBox="0 0 24 24" fill="none" xmlns="http://www.w3.org/2000/svg">
<path fill-rule="evenodd" clip-rule="evenodd" d="M5.98641 6.12019C5.86917 6.19189 5.7535 6.34322 5.69906 6.49612C5.64895 6.63691 5.53956 6.90261 5.45594 7.08658C5.24266 7.55562 5.19313 7.91251 5.32588 8.02275C5.39922 8.0836 5.4303 8.22086 5.4303 8.48407C5.4303 8.79477 5.46314 8.9041 5.62225 9.12379C5.86793 9.46296 5.95403 9.51399 6.05262 9.37915C6.09613 9.31968 6.14853 9.271 6.16914 9.271C6.18969 9.271 6.30372 9.44778 6.42254 9.66388C6.64577 10.0699 6.75895 10.1289 6.78872 9.85472C6.86167 9.18438 6.88378 9.10351 6.95307 9.25464C7.00593 9.37012 7.07476 9.40185 7.27221 9.40185C7.49708 9.40185 7.5239 9.41932 7.5239 9.56541C7.5239 9.68338 7.5591 9.72898 7.65017 9.72898C7.73137 9.72898 7.78397 9.78158 7.79738 9.87618C7.81406 9.99343 7.85404 10.0192 7.99372 10.0029C8.23272 9.97511 8.3285 10.1671 8.27446 10.5656C8.19818 11.1271 8.18476 11.146 8.01361 10.9315L7.8632 10.7431L7.81714 10.9884C7.7614 11.2851 7.71828 11.2936 7.56702 11.0375C7.41046 10.7724 7.28065 10.7899 7.20326 11.0866C7.16806 11.2215 7.09105 11.5215 7.03217 11.7532C6.97322 11.985 6.86841 12.2856 6.79919 12.4212C6.71773 12.5809 6.67351 12.8014 6.67377 13.0467C6.67436 13.6847 6.75902 13.8631 7.3343 14.4384C7.62289 14.7269 7.88662 14.963 7.92045 14.963C7.95421 14.963 7.98188 14.8894 7.98188 14.7994C7.98188 14.5984 8.01276 14.5985 8.34172 14.8011C8.69103 15.0163 8.78805 15.0117 8.73774 14.7825C8.69874 14.6051 8.70293 14.6023 8.97785 14.6232C9.41371 14.6563 9.51911 14.5398 9.52068 14.0227C9.52199 13.5863 9.63132 13.338 9.8957 13.1712C10.0674 13.0629 10.109 13.1741 10.0968 13.7096C10.0839 14.2748 9.78866 15.4986 9.36026 16.7622C9.2139 17.194 9.09411 17.571 9.09411 17.6C9.09411 17.6947 9.66861 17.9097 10.2874 18.0467C11.0842 18.223 12.4769 18.191 13.1832 17.9801C14.5721 17.5654 15.6122 16.7444 16.5477 15.3241C16.7843 14.965 17.0008 14.6411 17.0288 14.6045C17.156 14.438 17.9919 15.6753 17.9919 16.0299C17.9919 16.153 18.024 16.1579 18.5971 16.1216C19.6369 16.0558 20.1134 15.7936 20.2809 15.1953C20.3588 14.9172 20.3393 14.2789 20.2502 14.1899C20.2305 14.1702 20.1155 14.25 19.9946 14.3672L19.7747 14.5803L19.729 14.2147C19.7039 14.0135 19.659 13.8641 19.6291 13.8825C19.5715 13.9182 19.4312 13.5754 19.4314 13.3994C19.4315 13.3087 19.5384 13.2957 20.2328 13.3028C20.6736 13.3071 21.0637 13.315 21.0996 13.32C21.1356 13.3251 21.0473 13.429 20.9034 13.5508L20.6417 13.7723L20.9533 13.8191C21.3224 13.8745 21.7742 13.7758 22.1464 13.5584C22.4941 13.3555 23.2548 12.5604 23.3737 12.2757C23.4258 12.151 23.5766 11.9759 23.7087 11.8867C23.8408 11.7975 23.9657 11.6597 23.9863 11.5807C24.0677 11.2664 23.7768 10.7928 23.3757 10.5865C23.296 10.5456 22.9475 10.4538 22.6012 10.3826C22.2547 10.3113 21.9438 10.2359 21.91 10.215C21.8762 10.1942 21.8567 10.1017 21.8667 10.0095C21.8834 9.85427 21.8458 9.82862 21.3606 9.66427C20.771 9.46459 20.506 9.33741 20.314 9.16207C19.8099 8.70174 19.6969 8.63454 19.2936 8.55525C18.7463 8.44756 18.6953 8.41602 18.38 7.98919C18.0564 7.55104 17.8725 7.43347 17.1678 7.2137C16.8689 7.12054 16.6064 7.01533 16.5846 6.98001C16.5066 6.85373 16.427 6.91929 16.3847 7.14468C16.3611 7.27062 16.3214 7.37367 16.2964 7.37367C16.1844 7.37367 15.6041 6.95259 15.336 6.67682C14.9713 6.30155 14.8888 6.35068 14.9298 6.91851C14.9529 7.23791 14.943 7.3015 14.8829 7.21926C14.8155 7.12715 14.7964 7.13408 14.7192 7.27815C14.6712 7.36791 14.5377 7.51322 14.4225 7.60109C14.1888 7.7793 13.7521 8.00116 13.7203 7.95785C13.7089 7.94241 13.6322 7.64257 13.5497 7.29143C13.4672 6.94036 13.3458 6.58706 13.28 6.50633C13.1629 6.36291 13.1593 6.36252 13.1206 6.49043C13.0269 6.80009 12.644 7.47305 12.5513 7.49091C12.4957 7.50164 12.3221 7.40331 12.1654 7.27246C11.8507 7.00951 11.0438 6.58327 10.621 6.4566C10.3774 6.38365 10.3183 6.38974 10.0606 6.5145C9.90211 6.59125 9.6499 6.65399 9.50007 6.65399C9.35025 6.65399 9.04288 6.71464 8.81703 6.78883L8.40636 6.92361L7.48013 6.46171C6.97073 6.20759 6.47043 5.99987 6.3683 6C6.26623 6.00013 6.09436 6.05424 5.98641 6.12019ZM6.4771 6.22873C6.43228 6.2827 6.36437 6.32686 6.3261 6.32686C6.28783 6.32686 6.18838 6.39085 6.10509 6.4691C5.98183 6.58497 5.9537 6.5919 5.9537 6.50659C5.9537 6.3724 6.25904 6.13059 6.42849 6.13059C6.5367 6.13059 6.54488 6.14708 6.4771 6.22873ZM7.15301 6.87775C7.17538 6.93604 7.33057 6.9857 7.56892 7.01095C8.28186 7.08639 8.40217 7.14612 8.84477 7.64414C9.14966 7.98716 9.37177 8.16564 9.69884 8.33038C10.1863 8.57586 10.2627 8.54092 9.91193 8.23296C9.78598 8.1224 9.68294 8.0134 9.68294 7.99076C9.68294 7.9305 10.4782 8.03119 10.6316 8.11088C10.7036 8.14824 10.8639 8.26182 10.9878 8.36329C11.1118 8.4647 11.2243 8.53654 11.238 8.52286C11.2516 8.50925 11.2143 8.40425 11.155 8.28962C10.952 7.89701 11.112 8.01706 11.6488 8.66019C12.3046 9.44582 12.6712 9.99585 12.7608 10.3285C12.8485 10.6542 12.7478 11.0389 12.5033 11.3126L12.3205 11.5172L12.2831 11.1549C12.2625 10.9556 12.1873 10.6783 12.1159 10.5388C11.9729 10.2592 11.4486 9.57719 11.4079 9.61782C11.3938 9.63195 11.4315 9.75842 11.4916 9.89882C11.6105 10.1766 11.6503 11.0871 11.5618 11.5055C11.4842 11.8723 11.1502 11.9212 11.1097 11.5717C11.0942 11.4368 11.054 11.3973 10.9326 11.3973C10.8086 11.3973 10.7569 11.4514 10.6865 11.6547C10.5955 11.9177 10.4266 12.1497 10.3263 12.1497C10.2955 12.1497 10.1416 12.2102 9.98416 12.2842C9.78624 12.3773 9.62994 12.5222 9.47776 12.7539C9.35673 12.9383 9.20632 13.1648 9.14351 13.2573C9.07475 13.3586 9.02921 13.549 9.02901 13.7363C9.02882 13.9195 8.99898 14.047 8.95632 14.047C8.91655 14.047 8.76469 13.9526 8.61899 13.8372C8.33328 13.6109 8.33171 13.6128 8.44725 14.0432C8.49854 14.2342 8.2674 14.1733 7.9529 13.9131L7.6295 13.6454L7.51965 13.791C7.4501 13.8832 7.37074 13.9216 7.30329 13.8957C7.22027 13.8639 7.19678 13.7627 7.19678 13.437V13.0191L7.61 12.9805C8.27171 12.9188 8.72694 12.7132 9.15947 12.2806C9.57642 11.8637 9.71781 11.5494 9.65454 11.1804L9.61319 10.9393L9.74477 11.1029C9.81713 11.1929 9.87699 11.2903 9.87777 11.3194C9.87856 11.3485 9.91075 11.3528 9.94928 11.329C10.0409 11.2724 9.97951 10.9155 9.73593 10.0888C9.35594 8.79915 8.88266 8.08268 8.47774 8.18435C8.35075 8.21622 8.28945 8.18422 8.17822 8.02805C8.10135 7.92003 8.0036 7.83178 7.96108 7.83191C7.91855 7.8321 7.75126 7.9203 7.58933 8.02792C7.2694 8.24062 6.95791 8.29492 7.02621 8.12606C7.04807 8.07208 7.08379 7.98376 7.10564 7.92978C7.13829 7.84911 7.07607 7.83165 6.75535 7.83165C6.4298 7.83165 6.33611 7.80456 6.18851 7.66775C6.04078 7.53082 6.01494 7.45813 6.03175 7.22613L6.05184 6.9484L6.41776 6.96751C6.68541 6.98151 6.80612 6.95953 6.86736 6.88573C6.97211 6.75952 7.10616 6.75573 7.15301 6.87775ZM10.1028 7.54423C10.3147 7.62549 10.1955 7.7006 9.86286 7.6955L9.51937 7.6902L9.71565 7.6003C9.94575 7.4949 9.96656 7.49189 10.1028 7.54423ZM16.388 8.29558C16.6194 8.54609 16.7944 8.64828 17.4432 8.91162C18.1474 9.19746 18.2769 9.22893 18.8126 9.24437C19.3766 9.26066 19.4382 9.27767 20.1338 9.60971C20.6288 9.84602 20.8744 9.99964 20.8975 10.0877C20.9911 10.4423 20.5813 10.3625 19.895 9.89254C19.4507 9.58818 19.3346 9.53977 18.9519 9.49875C18.4713 9.44732 18.4232 9.48874 18.6814 9.73133C18.7727 9.81717 18.9258 10.0617 19.0214 10.2748C19.1566 10.5762 19.2434 10.6824 19.4118 10.7528C19.7568 10.8969 20.3374 10.9265 20.7324 10.8199C20.9962 10.7488 21.1982 10.7391 21.5351 10.7814C22.1228 10.8552 22.2111 10.9098 22.3362 11.2769C22.4823 11.7059 22.4706 11.9861 22.2997 12.1453C22.126 12.3071 21.3871 12.5606 21.2464 12.5066C21.1898 12.4849 20.9942 12.2955 20.8118 12.0857C20.4962 11.7229 20.0447 11.43 19.8009 11.43C19.7105 11.43 19.7015 11.4546 19.7552 11.5549C19.816 11.6684 19.7911 11.6835 19.4795 11.7214C18.6693 11.8199 17.6851 12.2901 17.8497 12.4999C17.8821 12.5412 17.9265 12.7516 17.9484 12.9675C17.9704 13.1834 18.0801 13.6545 18.1923 14.0143C18.3855 14.6346 18.4182 14.6902 18.8195 15.0845C19.0523 15.3133 19.2337 15.5067 19.2225 15.5143C19.2114 15.522 19.0479 15.5908 18.8592 15.6671C18.4713 15.8241 18.4793 15.8292 18.3187 15.3228C18.1362 14.747 17.8935 14.3949 17.1694 13.6551L16.4283 12.8981L16.3831 12.4568C16.3582 12.2141 16.326 12.0274 16.3114 12.0419C16.2703 12.083 16.0292 13.1245 16.0292 13.2611C16.0292 13.328 16.1065 13.4746 16.201 13.5869C16.3449 13.758 16.3669 13.8347 16.3367 14.0603C16.2899 14.4091 15.5052 15.9771 15.3774 15.9771C15.3248 15.9771 15.2385 15.8998 15.1855 15.8054C15.0947 15.6437 15.1074 15.5927 15.4029 14.9306L15.7168 14.2275L15.6733 13.4994L15.6298 12.7713L15.8538 12.3133C16.0817 11.8471 16.4187 11.3768 16.5968 11.2763C16.6653 11.2376 16.7508 11.2737 16.8775 11.3952L17.0598 11.5698L17.1027 11.3409C17.168 10.9927 17.5667 10.2425 17.8689 9.89915C18.0175 9.73048 18.1279 9.58301 18.1145 9.57143C18.0069 9.47886 17.7512 9.40296 17.305 9.33113C17.0171 9.28474 16.7695 9.2377 16.7547 9.22658C16.74 9.21545 16.7798 9.14898 16.8433 9.07885C16.955 8.95539 16.9516 8.94832 16.7393 8.85934C16.2976 8.67432 15.8625 8.17094 15.7377 7.70079C15.6978 7.55084 15.7115 7.55627 15.9024 7.76622C16.0168 7.89216 16.2353 8.13038 16.388 8.29558ZM14.6329 8.20784C14.5742 8.74655 14.4778 9.04234 14.2871 9.26897C14.0373 9.56581 13.9992 9.5102 14.1653 9.09108C14.3661 8.58443 14.4183 8.3996 14.3514 8.43245C13.7772 8.71404 13.6484 8.7529 13.3496 8.73464L13.0268 8.71489L13.8247 8.2785C14.2635 8.03845 14.6341 7.83969 14.6482 7.83688C14.6623 7.834 14.6555 8.00097 14.6329 8.20784ZM17.749 8.23525C18.0565 8.54046 18.1287 8.64508 18.0454 8.66444C17.9221 8.69317 17.5972 8.54269 17.4816 8.4034C17.3499 8.24487 17.1998 7.83165 17.2738 7.83165C17.3116 7.83165 17.5254 8.01327 17.749 8.23525ZM15.5 9.19701C15.7101 9.60493 15.5907 9.68455 15.2551 9.36031L14.9934 9.10744L15.0295 8.55989L15.0655 8.01228L15.2092 8.46176C15.2882 8.70893 15.4191 9.03979 15.5 9.19701ZM6.44576 8.46987C6.74881 8.50402 6.7511 8.50611 6.70733 8.70776C6.68312 8.81963 6.64681 9.02265 6.62666 9.15899C6.5702 9.54147 6.43137 9.42625 6.18458 8.79196C6.07016 8.4978 5.9537 8.52882 5.9537 8.85346C5.9537 8.99831 5.92818 9.06668 5.88422 9.03953C5.75494 8.95964 5.68218 8.6509 5.72504 8.36408L5.76763 8.07863L5.95383 8.25704C6.08317 8.38096 6.23339 8.44592 6.44576 8.46987ZM4.59881 9.2379C4.28477 9.31464 3.87396 9.57392 3.66231 9.82895C3.53761 9.97916 3.24836 10.1195 2.64972 10.3201C2.15655 10.4854 2.12632 10.5064 2.12632 10.6847C2.12632 10.8663 2.10637 10.8786 1.63563 10.99C0.708425 11.2094 0.573125 11.2554 0.382607 11.4158C0.148188 11.613 0 11.8881 0 12.1262C0 12.2543 0.0885204 12.3907 0.31077 12.6048C0.481726 12.7695 0.695143 13.0333 0.785103 13.191C1.02148 13.6053 1.84048 14.2868 2.2471 14.4075C2.61943 14.5181 3.06027 14.5332 3.20584 14.4404C3.30378 14.378 3.27512 14.3439 2.92307 14.1034C2.88944 14.0805 2.87897 14.0342 2.89978 14.0005C2.95186 13.9162 4.53894 13.9572 4.56773 14.0436C4.60267 14.1485 4.44506 14.5757 4.38506 14.5387C4.30793 14.491 4.25264 14.6728 4.25264 14.9739V15.2357L3.99794 15.034C3.69699 14.7956 3.66381 14.8332 3.66381 15.4125C3.66381 16.2139 4.14986 16.6736 5.08832 16.7598C5.33039 16.782 5.62271 16.8148 5.73793 16.8327C5.9344 16.8631 5.95154 16.8496 6.01474 16.6149C6.09018 16.3349 6.47717 15.6797 6.76281 15.3485L6.95032 15.1311L7.07358 15.2833C7.21595 15.4592 7.24127 15.9378 7.115 16.068C7.04898 16.1361 7.11441 16.2275 7.45377 16.5415C7.68505 16.7556 8.05234 17.0471 8.27008 17.1893L8.66584 17.4479L8.74461 17.2976C8.80702 17.1785 9.11982 16.2091 9.46311 15.071C9.51637 14.8945 9.27939 14.9841 9.02797 15.2355C8.87134 15.3921 8.79342 15.4254 8.6608 15.3921C8.56822 15.3688 8.50273 15.3748 8.51523 15.4053C8.52772 15.4358 8.62298 15.657 8.72681 15.8967C8.90719 16.313 8.91079 16.3401 8.80709 16.4984C8.74742 16.5895 8.67015 16.6641 8.63541 16.6641C8.56004 16.6641 8.33321 16.3138 8.06176 15.7784C7.94701 15.5522 7.78567 15.3425 7.67759 15.2792C7.57507 15.2192 7.31971 15.0024 7.11009 14.7973L6.72899 14.4245L6.53212 14.612C6.1925 14.9353 5.91444 15.3705 5.72262 15.879C5.62081 16.1488 5.51823 16.3927 5.49467 16.421C5.45849 16.4644 4.8698 16.2562 4.78272 16.1691C4.76695 16.1533 4.93522 15.9764 5.15675 15.776C5.54734 15.4225 5.56632 15.39 5.78477 14.7001C5.90869 14.3088 6.02868 13.8472 6.05151 13.6744C6.07434 13.5015 6.10706 13.284 6.12426 13.191C6.1501 13.0516 6.1102 12.9905 5.89645 12.8423C5.57554 12.6199 4.95956 12.4233 4.52134 12.4033C4.21077 12.3891 4.19291 12.3789 4.2287 12.2362C4.31532 11.8912 3.74036 12.1743 3.18641 12.7495C2.67864 13.2767 2.63337 13.2842 1.96276 12.9504C1.60933 12.7745 1.60259 12.7657 1.58303 12.4616C1.55562 12.0346 1.75739 11.5838 2.00705 11.5144C2.23414 11.4512 3.02598 11.4568 3.6031 11.5256C3.93212 11.5649 4.12153 11.5512 4.40973 11.4675C4.77336 11.3617 4.79214 11.3452 4.95524 10.9851C5.04815 10.78 5.193 10.529 5.2772 10.4273C5.3614 10.3256 5.43036 10.2225 5.43043 10.1983C5.43049 10.1741 5.24645 10.1644 5.02152 10.1769C4.66338 10.1968 4.56361 10.2343 4.21993 10.4784C3.71236 10.8388 3.4483 10.9721 3.24182 10.9721C3.12615 10.9721 3.07531 10.9369 3.07597 10.8576C3.07767 10.6666 3.14643 10.6156 3.87743 10.264C4.55549 9.93788 4.60254 9.92525 5.13686 9.92525C5.4422 9.92525 5.692 9.90039 5.692 9.86997C5.692 9.83955 5.63213 9.76051 5.55905 9.69437C5.48591 9.62816 5.36572 9.47637 5.29199 9.3571C5.14609 9.12105 5.10553 9.11405 4.59881 9.2379ZM19.6453 10.0904C19.9234 10.2532 20.151 10.4032 20.151 10.4237C20.151 10.5025 19.4579 10.3637 19.3428 10.2619C19.1988 10.1343 19.0131 9.7944 19.0875 9.7944C19.1161 9.7944 19.3672 9.92761 19.6453 10.0904ZM5.96233 10.1802C5.89266 10.2244 5.94676 10.3334 6.20696 10.6729C6.39074 10.9127 6.57543 11.173 6.61731 11.2512C6.6881 11.3835 6.70007 11.3707 6.78728 11.0683C6.89818 10.6839 7.09517 10.4487 7.3063 10.4487C7.41569 10.4487 7.45848 10.4112 7.45848 10.3156C7.45848 10.1391 7.21575 10.168 7.01555 10.3682C6.93534 10.4484 6.82353 10.5141 6.7672 10.5141C6.62162 10.5141 6.39362 10.3832 6.29345 10.242C6.20029 10.1107 6.10123 10.0922 5.96233 10.1802ZM14.5171 11.8806C14.8095 12.8053 14.8483 13.0277 14.849 13.7853C14.8497 14.5551 14.7251 15.1951 14.506 15.5474L14.3608 15.7808L14.3018 15.2083C14.2428 14.6358 14.18 14.5005 14.1075 14.7897C14.0519 15.0109 13.584 15.5194 13.4896 15.4611C13.447 15.4348 13.4122 15.3074 13.4122 15.178C13.4122 14.9595 13.404 14.9498 13.2977 15.0427C13.2347 15.0976 13.0417 15.1577 12.8688 15.176C12.5607 15.2088 12.5547 15.206 12.5743 15.0375C12.5859 14.9387 12.5618 14.8654 12.518 14.8652C12.3688 14.8645 12.3461 14.7656 12.4651 14.6342C12.5314 14.5608 12.8845 14.3103 13.2497 14.0775C13.855 13.6917 13.9937 13.556 14.0857 13.26C14.1027 13.2049 14.0766 12.7164 14.0276 12.1744C13.9506 11.3242 13.8681 10.9176 13.6438 10.2851C13.6183 10.2131 13.7597 10.4012 13.9578 10.703C14.206 11.0809 14.3801 11.4475 14.5171 11.8806ZM4.88256 10.6287C4.73286 10.9182 4.56891 11.0258 4.20325 11.0743C4.01449 11.0993 3.86009 11.102 3.86009 11.0802C3.86009 11.0342 4.84611 10.4487 4.92358 10.4487C4.95223 10.4487 4.93378 10.5297 4.88256 10.6287ZM22.9592 11.186C23.1543 11.3033 23.3254 11.434 23.3395 11.4763C23.3699 11.5674 22.9888 11.7801 22.8969 11.7233C22.7913 11.658 22.825 11.5789 22.9806 11.5266C23.1275 11.4771 23.1274 11.4769 22.9643 11.4506C22.8172 11.4268 22.4275 10.9717 22.5548 10.9723C22.5821 10.9724 22.7641 11.0686 22.9592 11.186ZM7.57939 11.7896C7.6632 12.0233 7.75381 12.2282 7.78076 12.2448C7.80765 12.2615 7.89428 12.2299 7.97324 12.1746C8.09147 12.0917 8.11011 12.0317 8.0793 11.8338L8.04181 11.5936L8.17456 11.8343C8.34571 12.1445 8.50954 12.1937 8.83542 12.0324C9.38591 11.76 8.95986 12.1831 8.38372 12.4809C8.2269 12.562 7.9599 12.6416 7.79038 12.6579C7.37526 12.6978 7.2622 12.5827 7.2622 12.1205C7.2622 11.733 7.32226 11.3646 7.38546 11.3646C7.4083 11.3646 7.49551 11.5558 7.57939 11.7896ZM1.30353 11.9144C1.19152 12.1042 1.13356 12.1457 1.02279 12.1149C0.89155 12.0784 0.892531 12.0836 1.03935 12.2017C1.1439 12.2858 1.17072 12.3426 1.12054 12.3735C1.01978 12.4358 0.825732 12.3685 0.697433 12.2267C0.599099 12.118 0.618007 12.0956 0.997408 11.8719C1.22018 11.7405 1.41194 11.6425 1.42352 11.6541C1.43517 11.6658 1.38113 11.7829 1.30353 11.9144ZM20.2342 12.2282C20.3783 12.2713 20.6466 12.4435 20.8306 12.6108C21.2423 12.9852 21.3451 13.0405 21.7375 13.0994C21.9085 13.125 22.0483 13.1549 22.0483 13.1659C22.0483 13.3572 21.7158 13.5902 21.4464 13.5876L21.2959 13.5862L21.4519 13.4662L21.6079 13.3463L21.3997 13.2737C21.2853 13.2338 21.1162 13.1418 21.024 13.0693C20.8728 12.9504 20.8428 12.9469 20.7181 13.0343C20.6421 13.0875 20.4782 13.1311 20.354 13.1311H20.1281L20.2623 12.9839C20.4528 12.7747 20.5651 12.5366 20.5005 12.4787C20.3817 12.3722 19.9832 12.2805 19.6342 12.2796C19.4326 12.279 19.2236 12.25 19.1696 12.2151C19.0237 12.1209 19.9122 12.1317 20.2342 12.2282ZM22.9282 12.4278C22.8642 12.6377 22.7022 12.804 22.5616 12.804C22.3924 12.804 22.4114 12.6312 22.6015 12.4412C22.811 12.2316 22.9902 12.2242 22.9282 12.4278ZM4.87418 12.8694C4.85194 12.9054 4.65147 12.9371 4.4287 12.9399C3.9318 12.946 3.5083 13.0661 3.48082 13.2085C3.46957 13.2669 3.5503 13.4171 3.66022 13.5423C3.77013 13.6674 3.86009 13.7881 3.86009 13.8103C3.86009 13.8895 3.6224 13.8489 3.38903 13.7299L3.15199 13.6091L2.87465 13.7954C2.72215 13.8978 2.53549 13.9818 2.45999 13.9821C2.33908 13.9824 2.34622 13.9989 2.51887 14.119L2.71515 14.2555L2.45345 14.2189C2.27883 14.1945 2.13888 14.1217 2.03296 14.0002L1.87424 13.8181L2.06567 13.7977C2.5154 13.75 2.76638 13.6336 3.14224 13.2982C3.36626 13.0983 3.64065 12.9192 3.77962 12.8823C4.1108 12.7943 4.92652 12.7847 4.87418 12.8694ZM1.39775 13.1073C1.64204 13.3516 1.62628 13.5431 1.36752 13.4755C1.24478 13.4434 1.0468 13.152 1.0468 13.0035C1.0468 12.8797 1.22188 12.9315 1.39775 13.1073ZM19.0387 13.5996C19.0567 13.795 19.1237 14.0345 19.1875 14.1318C19.2891 14.2868 19.2908 14.3087 19.2009 14.3087C19.1444 14.3087 19.026 14.2365 18.9377 14.1481C18.8122 14.0227 18.7769 13.9189 18.7761 13.6738C18.7757 13.5013 18.7557 13.2867 18.7317 13.1971C18.689 13.0375 18.6914 13.0363 18.8471 13.1392C18.9738 13.223 19.0126 13.3164 19.0387 13.5996ZM5.26248 13.9325C5.23644 14.0495 5.21923 14.2571 5.22421 14.3939C5.23101 14.5784 5.19202 14.6838 5.07307 14.8028C4.98495 14.8909 4.87052 14.963 4.81877 14.963C4.74235 14.963 4.74791 14.9175 4.84854 14.7202C4.91664 14.5866 4.97232 14.3528 4.97232 14.2005C4.97232 13.9886 5.00641 13.8997 5.11776 13.8218C5.31292 13.685 5.31691 13.6881 5.26248 13.9325ZM19.2055 14.5704C19.2588 14.5704 19.3576 14.4797 19.425 14.3687C19.5747 14.1227 19.6552 14.2133 19.5964 14.5616C19.5645 14.7501 19.5807 14.8315 19.6635 14.9003C19.7574 14.9782 19.7839 14.9752 19.8545 14.8787C19.995 14.6866 20.1014 14.7413 20.0504 14.9794C20.0252 15.0963 19.9917 15.2141 19.9758 15.2411C19.8145 15.5152 18.6462 14.6703 18.6462 14.2794C18.6462 14.1862 18.6901 14.2029 18.8775 14.3674C19.0047 14.479 19.1523 14.5704 19.2055 14.5704ZM4.80849 15.2247C4.85711 15.2247 4.98868 15.1474 5.10095 15.053C5.34361 14.8488 5.411 14.8807 5.27779 15.1368C5.16637 15.351 4.98246 15.5268 4.61366 15.7715C4.30524 15.9762 4.08672 15.9925 3.99323 15.8178C3.84596 15.5427 3.96372 15.2696 4.11505 15.5355C4.16713 15.6269 4.20397 15.6352 4.29824 15.5765C4.39291 15.5175 4.41221 15.4336 4.39599 15.1512L4.37577 14.7994L4.54791 15.0121C4.64264 15.129 4.75988 15.2247 4.80849 15.2247Z" fill="#1D1D22"/>
</svg>
