<svg width="20" height="20" viewBox="0 0 20 20" fill="none" xmlns="http://www.w3.org/2000/svg">
<path fill-rule="evenodd" clip-rule="evenodd" d="M4.98868 5.10016C4.89097 5.15991 4.79458 5.28602 4.74922 5.41343C4.70746 5.53076 4.6163 5.75217 4.54662 5.90549C4.36888 6.29635 4.32761 6.59376 4.43823 6.68563C4.49935 6.73633 4.52525 6.85072 4.52525 7.07005C4.52525 7.32898 4.55262 7.42008 4.68521 7.60316C4.88994 7.8858 4.96169 7.92832 5.04385 7.81596C5.08011 7.7664 5.12378 7.72583 5.14095 7.72583C5.15807 7.72583 5.2531 7.87315 5.35211 8.05323C5.53814 8.39159 5.63246 8.44077 5.65727 8.21227C5.71806 7.65365 5.73649 7.58626 5.79422 7.7122C5.83828 7.80843 5.89563 7.83488 6.06018 7.83488C6.24757 7.83488 6.26992 7.84943 6.26992 7.97118C6.26992 8.06948 6.29925 8.10748 6.37515 8.10748C6.44281 8.10748 6.48664 8.15132 6.49782 8.23015C6.51172 8.32786 6.54503 8.34934 6.66144 8.33576C6.8606 8.31259 6.94042 8.47261 6.89539 8.8047C6.83181 9.2726 6.82064 9.28835 6.67801 9.10958L6.55267 8.95256L6.51428 9.15701C6.46783 9.40421 6.4319 9.4113 6.30585 9.1979C6.17538 8.97698 6.06721 8.99159 6.00271 9.23879C5.97338 9.35127 5.90921 9.60125 5.86014 9.79436C5.81102 9.98748 5.72367 10.238 5.66599 10.351C5.59811 10.4841 5.56126 10.6678 5.56147 10.8722C5.56196 11.4039 5.63251 11.5526 6.11192 12.032C6.35241 12.2725 6.57218 12.4692 6.60037 12.4692C6.62851 12.4692 6.65157 12.4078 6.65157 12.3329C6.65157 12.1653 6.6773 12.1654 6.95143 12.3343C7.24252 12.5135 7.32338 12.5097 7.28145 12.3187C7.24895 12.1709 7.25244 12.1686 7.48154 12.186C7.84476 12.2136 7.93259 12.1165 7.9339 11.6856C7.93499 11.3219 8.0261 11.115 8.24642 10.976C8.38953 10.8857 8.42416 10.9784 8.41401 11.4246C8.40327 11.8957 8.15722 12.9155 7.80022 13.9685C7.67825 14.3283 7.57842 14.6425 7.57842 14.6667C7.57842 14.7456 8.05717 14.9248 8.57283 15.0389C9.23679 15.1858 10.3974 15.1592 10.986 14.9835C12.1434 14.6378 13.0101 13.9537 13.7898 12.7701C13.9869 12.4708 14.1673 12.2009 14.1907 12.1704C14.2967 12.0317 14.9933 13.0627 14.9933 13.3582C14.9933 13.4608 15.02 13.4649 15.4976 13.4347C16.3641 13.3798 16.7611 13.1614 16.9008 12.6627C16.9656 12.431 16.9494 11.8991 16.8751 11.8249C16.8588 11.8085 16.7629 11.875 16.6622 11.9727L16.4789 12.1503L16.4409 11.8456C16.4199 11.678 16.3825 11.5534 16.3576 11.5687C16.3096 11.5985 16.1927 11.3128 16.1928 11.1662C16.1929 11.0905 16.282 11.0797 16.8607 11.0856C17.228 11.0893 17.553 11.0958 17.583 11.1C17.613 11.1043 17.5394 11.1908 17.4195 11.2923L17.2014 11.4769L17.4611 11.5159C17.7686 11.5621 18.1452 11.4798 18.4554 11.2987C18.745 11.1296 19.379 10.467 19.4781 10.2298C19.5215 10.1258 19.6471 9.9799 19.7573 9.90558C19.8674 9.83122 19.9714 9.71645 19.9886 9.65059C20.0564 9.38867 19.814 8.99399 19.4797 8.82209C19.4134 8.78801 19.1229 8.71152 18.8343 8.65215C18.5456 8.59272 18.2865 8.52991 18.2583 8.51252C18.2302 8.49518 18.214 8.41809 18.2222 8.34121C18.2361 8.21189 18.2048 8.19052 17.8005 8.05356C17.3092 7.88716 17.0883 7.78117 16.9283 7.63506C16.5083 7.25145 16.4141 7.19545 16.078 7.12937C15.6219 7.03963 15.5794 7.01335 15.3167 6.65766C15.047 6.29253 14.8938 6.19456 14.3065 6.01142C14.0574 5.93378 13.8387 5.84611 13.8205 5.81667C13.7555 5.71145 13.6891 5.76608 13.6539 5.9539C13.6342 6.05885 13.6011 6.14472 13.5803 6.14472C13.487 6.14472 13.0034 5.79383 12.78 5.56402C12.4761 5.25129 12.4073 5.29223 12.4415 5.76542C12.4608 6.03159 12.4525 6.08459 12.4024 6.01605C12.3463 5.93929 12.3303 5.94507 12.266 6.06512C12.226 6.13993 12.1147 6.26102 12.0188 6.33424C11.824 6.48275 11.4601 6.66764 11.4336 6.63154C11.4241 6.61868 11.3602 6.36881 11.2914 6.07619C11.2227 5.78363 11.1215 5.48922 11.0666 5.42194C10.9691 5.30243 10.9661 5.3021 10.9338 5.40869C10.8557 5.66674 10.5366 6.22754 10.4594 6.24243C10.4131 6.25137 10.2684 6.16942 10.1379 6.06038C9.87556 5.84126 9.20315 5.48606 8.85084 5.3805C8.64786 5.31971 8.59862 5.32478 8.38381 5.42875C8.25176 5.49271 8.04158 5.54499 7.91673 5.54499C7.79187 5.54499 7.53573 5.59553 7.34753 5.65736L7.0053 5.76967L6.23345 5.38475C5.80894 5.173 5.39202 4.99989 5.30691 5C5.22186 5.00011 5.07864 5.0452 4.98868 5.10016ZM5.39758 5.19061C5.36024 5.23559 5.30364 5.27239 5.27175 5.27239C5.23985 5.27239 5.15698 5.32571 5.08758 5.39092C4.98486 5.48747 4.96141 5.49325 4.96141 5.42216C4.96141 5.31033 5.21586 5.10882 5.35707 5.10882C5.44725 5.10882 5.45407 5.12256 5.39758 5.19061ZM5.96084 5.73145C5.97949 5.78003 6.10881 5.82141 6.30743 5.84246C6.90155 5.90532 7.00181 5.9551 7.37065 6.37011C7.62471 6.65597 7.80981 6.8047 8.08236 6.94198C8.4886 7.14655 8.55223 7.11743 8.25994 6.8608C8.15498 6.76866 8.06911 6.67783 8.06911 6.65897C8.06911 6.60875 8.73187 6.69266 8.85967 6.75907C8.91964 6.7902 9.05322 6.88485 9.15648 6.96941C9.2598 7.05392 9.35358 7.11378 9.36497 7.10239C9.37637 7.09105 9.34523 7.00354 9.29584 6.90802C9.12666 6.58084 9.26002 6.68088 9.70736 7.21683C10.2538 7.87151 10.5594 8.32987 10.634 8.60711C10.7071 8.87852 10.6232 9.19905 10.4194 9.42716L10.2671 9.59765L10.2359 9.29571C10.2188 9.12964 10.1561 8.89858 10.0966 8.78234C9.97741 8.54932 9.54047 7.98099 9.50662 8.01485C9.49484 8.02663 9.52624 8.13202 9.57635 8.24902C9.67541 8.48046 9.70862 9.23928 9.63485 9.58789C9.57019 9.89359 9.2918 9.93437 9.25811 9.64307C9.24513 9.5307 9.21166 9.49777 9.11052 9.49777C9.0072 9.49777 8.96408 9.54286 8.90541 9.71225C8.82957 9.93143 8.68886 10.1248 8.60527 10.1248C8.57959 10.1248 8.45131 10.1752 8.32013 10.2369C8.1552 10.3144 8.02495 10.4352 7.89814 10.6283C7.79727 10.7819 7.67193 10.9707 7.61959 11.0477C7.56229 11.1322 7.52434 11.2909 7.52418 11.4469C7.52401 11.5996 7.49915 11.7059 7.4636 11.7059C7.43045 11.7059 7.30391 11.6271 7.18249 11.531C6.9444 11.3424 6.94309 11.344 7.03938 11.7027C7.08212 11.8618 6.8895 11.8111 6.62741 11.5942L6.35792 11.3712L6.26638 11.4925C6.20842 11.5693 6.14229 11.6014 6.08607 11.5798C6.01689 11.5533 5.99731 11.4689 5.99731 11.1975V10.8493L6.34167 10.8171C6.8931 10.7657 7.27245 10.5943 7.63289 10.2339C7.98035 9.88639 8.09817 9.62447 8.04545 9.31703L8.011 9.11612L8.12064 9.25242C8.18094 9.32739 8.23082 9.40857 8.23148 9.43283C8.23213 9.4571 8.25896 9.46069 8.29107 9.44085C8.3674 9.39369 8.31626 9.09627 8.11328 8.40735C7.79662 7.33263 7.40221 6.73557 7.06478 6.82029C6.95896 6.84685 6.90787 6.82018 6.81519 6.69004C6.75112 6.60003 6.66967 6.52648 6.63423 6.52659C6.59879 6.52675 6.45938 6.60025 6.32444 6.68993C6.05783 6.86718 5.79826 6.91243 5.85518 6.77172C5.87339 6.72674 5.90316 6.65313 5.92137 6.60815C5.94857 6.54093 5.89672 6.52637 5.62946 6.52637C5.35816 6.52637 5.28009 6.5038 5.15709 6.3898C5.03398 6.27568 5.01245 6.21511 5.02646 6.02178L5.0432 5.79034L5.34813 5.80626C5.57118 5.81792 5.67177 5.79961 5.7228 5.73811C5.81009 5.63293 5.9218 5.62977 5.96084 5.73145ZM8.41903 6.28686C8.59557 6.35457 8.49623 6.41717 8.21905 6.41291L7.93281 6.4085L8.09637 6.33358C8.28813 6.24575 8.30546 6.24324 8.41903 6.28686ZM13.6566 6.91298C13.8495 7.12174 13.9953 7.2069 14.536 7.42635C15.1228 7.66455 15.2307 7.69078 15.6771 7.70364C16.1472 7.71722 16.1985 7.7314 16.7781 8.00809C17.1907 8.20502 17.3953 8.33303 17.4146 8.40642C17.4926 8.70192 17.1511 8.63541 16.5792 8.24378C16.2089 7.99015 16.1122 7.94981 15.7932 7.91562C15.3928 7.87277 15.3526 7.90728 15.5678 8.10944C15.6439 8.18098 15.7715 8.38478 15.8512 8.56235C15.9639 8.81353 16.0362 8.90202 16.1765 8.96068C16.464 9.08079 16.9479 9.10538 17.277 9.01662C17.4968 8.9573 17.6651 8.94923 17.9459 8.98451C18.4356 9.04601 18.5092 9.09148 18.6135 9.39745C18.7353 9.75489 18.7255 9.9884 18.5831 10.1211C18.4384 10.2559 17.8225 10.4672 17.7053 10.4222C17.6582 10.4041 17.4952 10.2462 17.3432 10.0714C17.0802 9.76912 16.7039 9.52503 16.5007 9.52503C16.4254 9.52503 16.4179 9.54547 16.4627 9.62905C16.5133 9.7237 16.4926 9.73624 16.2329 9.76781C15.5577 9.84992 14.7376 10.2418 14.8748 10.4166C14.9017 10.451 14.9388 10.6264 14.957 10.8063C14.9753 10.9862 15.0667 11.3787 15.1602 11.6786C15.3213 12.1955 15.3485 12.2418 15.6829 12.5704C15.8769 12.7611 16.0281 12.9222 16.0188 12.9286C16.0095 12.935 15.8733 12.9923 15.716 13.0559C15.3927 13.1868 15.3994 13.191 15.2656 12.769C15.1135 12.2891 14.9113 11.9958 14.3078 11.3793L13.6903 10.7484L13.6526 10.3807C13.6318 10.1784 13.605 10.0228 13.5929 10.0349C13.5586 10.0692 13.3577 10.9371 13.3577 11.0509C13.3577 11.1067 13.4221 11.2289 13.5008 11.3224C13.6208 11.465 13.6391 11.5289 13.6139 11.7169C13.5749 12.0076 12.921 13.3142 12.8145 13.3142C12.7707 13.3142 12.6987 13.2499 12.6546 13.1712C12.5789 13.0365 12.5895 12.9939 12.8358 12.4422L13.0973 11.8562L13.0611 11.2495L13.0249 10.6427L13.2115 10.2611C13.4014 9.8726 13.6823 9.48065 13.8306 9.3969C13.8878 9.36463 13.959 9.39478 14.0646 9.49602L14.2165 9.64148L14.2522 9.45077C14.3067 9.16055 14.6389 8.53542 14.8908 8.24929C15.0145 8.10873 15.1066 7.98584 15.0954 7.97619C15.0058 7.89905 14.7926 7.8358 14.4208 7.77594C14.1809 7.73728 13.9746 7.69808 13.9622 7.68881C13.95 7.67955 13.9832 7.62415 14.0361 7.56571C14.1291 7.46282 14.1263 7.45694 13.9494 7.38279C13.5814 7.2286 13.2187 6.80912 13.1147 6.41733C13.0815 6.29237 13.093 6.29689 13.252 6.47185C13.3474 6.5768 13.5295 6.77531 13.6566 6.91298ZM12.1941 6.83987C12.1452 7.28879 12.0648 7.53528 11.9059 7.72414C11.6978 7.97151 11.666 7.92516 11.8044 7.5759C11.9717 7.15369 12.0152 6.99967 11.9595 7.02704C11.481 7.2617 11.3736 7.29408 11.1247 7.27887L10.8557 7.26241L11.5206 6.89875C11.8862 6.69871 12.1951 6.53308 12.2068 6.53073C12.2186 6.52833 12.2129 6.66747 12.1941 6.83987ZM14.7908 6.86271C15.047 7.11705 15.1072 7.20423 15.0378 7.22037C14.9351 7.2443 14.6643 7.11891 14.568 7.00283C14.4583 6.87073 14.3332 6.52637 14.3948 6.52637C14.4263 6.52637 14.6045 6.67772 14.7908 6.86271ZM12.9167 7.66417C13.0918 8.00411 12.9923 8.07046 12.7126 7.80026L12.4945 7.58953L12.5246 7.13324L12.5546 6.6769L12.6743 7.05146C12.7402 7.25744 12.8492 7.53316 12.9167 7.66417ZM5.37147 7.05822C5.62401 7.08668 5.62592 7.08843 5.58944 7.25646C5.56927 7.34969 5.53901 7.51887 5.52222 7.63249C5.47517 7.95122 5.35947 7.85521 5.15382 7.32663C5.05846 7.0815 4.96141 7.10735 4.96141 7.37788C4.96141 7.49859 4.94015 7.55556 4.90351 7.53294C4.79578 7.46637 4.73515 7.20908 4.77086 6.97006L4.80636 6.73219L4.96152 6.88087C5.06931 6.98413 5.19449 7.03827 5.37147 7.05822ZM3.83234 7.69825C3.57064 7.7622 3.2283 7.97827 3.05192 8.19079C2.94801 8.31597 2.70697 8.43292 2.2081 8.60008C1.79712 8.7378 1.77193 8.75535 1.77193 8.90392C1.77193 9.05522 1.7553 9.06552 1.36303 9.15837C0.590354 9.34118 0.477604 9.37951 0.318839 9.51314C0.12349 9.67747 0 9.90678 0 10.1051C0 10.2119 0.073767 10.3256 0.258975 10.504C0.401438 10.6413 0.579286 10.8611 0.654253 10.9925C0.851237 11.3377 1.53373 11.9057 1.87258 12.0063C2.18286 12.0984 2.55022 12.111 2.67153 12.0337C2.75315 11.9816 2.72927 11.9532 2.43589 11.7529C2.40787 11.7337 2.39914 11.6951 2.41648 11.6671C2.45988 11.5968 3.78245 11.631 3.80644 11.703C3.83556 11.7904 3.70421 12.1465 3.65422 12.1156C3.58994 12.0758 3.54387 12.2273 3.54387 12.4782V12.6964L3.33162 12.5283C3.08082 12.3297 3.05318 12.361 3.05318 12.8437C3.05318 13.5116 3.45822 13.8947 4.24027 13.9665C4.44199 13.985 4.68559 14.0123 4.7816 14.0272C4.94533 14.0526 4.95962 14.0413 5.01228 13.8457C5.07515 13.6124 5.39764 13.0664 5.63568 12.7905L5.79193 12.6093L5.89465 12.7361C6.01329 12.8827 6.03439 13.2815 5.92916 13.39C5.87415 13.4467 5.92867 13.5229 6.21147 13.7846C6.4042 13.963 6.71029 14.2059 6.89173 14.3244L7.22153 14.5399L7.28717 14.4147C7.33919 14.3154 7.59985 13.5076 7.88592 12.5592C7.9303 12.4121 7.73283 12.4867 7.5233 12.6962C7.39278 12.8268 7.32785 12.8545 7.21733 12.8267C7.14018 12.8074 7.08561 12.8123 7.09602 12.8378C7.10644 12.8632 7.18582 13.0475 7.27234 13.2473C7.42266 13.5942 7.42566 13.6168 7.33924 13.7487C7.28952 13.8246 7.22513 13.8867 7.19618 13.8867C7.13337 13.8867 6.94434 13.5949 6.71814 13.1487C6.62251 12.9601 6.48806 12.7854 6.39799 12.7327C6.31256 12.6827 6.09976 12.502 5.92507 12.3311L5.60749 12.0204L5.44344 12.1767C5.16042 12.4461 4.9287 12.8088 4.76885 13.2325C4.68401 13.4574 4.59852 13.6606 4.5789 13.6842C4.54875 13.7204 4.05816 13.5468 3.9856 13.4743C3.97246 13.4611 4.11269 13.3137 4.29729 13.1466C4.62278 12.8521 4.6386 12.825 4.82064 12.25C4.9239 11.924 5.0239 11.5394 5.04292 11.3953C5.06195 11.2513 5.08921 11.07 5.10355 10.9925C5.12509 10.8763 5.09183 10.8254 4.91371 10.7019C4.64628 10.5166 4.13297 10.3527 3.76779 10.3361C3.50897 10.3243 3.49409 10.3157 3.52391 10.1968C3.5961 9.90929 3.11697 10.1453 2.65534 10.6246C2.2322 11.0639 2.19447 11.0702 1.63563 10.792C1.34111 10.6454 1.33549 10.6381 1.31919 10.3847C1.29635 10.0289 1.46449 9.65321 1.67254 9.59531C1.86178 9.54269 2.52165 9.54733 3.00258 9.60468C3.27677 9.6374 3.43461 9.626 3.67477 9.55621C3.9778 9.46811 3.99345 9.45431 4.12937 9.15423C4.20679 8.98336 4.3275 8.77416 4.39767 8.68938C4.46784 8.60466 4.5253 8.51879 4.52536 8.49856C4.52541 8.47839 4.37204 8.47037 4.1846 8.48079C3.88615 8.49736 3.80301 8.5286 3.51661 8.73202C3.09363 9.03232 2.87359 9.14338 2.70152 9.14338C2.60512 9.14338 2.56276 9.1141 2.56331 9.04797C2.56472 8.88882 2.62203 8.84635 3.23119 8.55335C3.79625 8.28157 3.83545 8.27104 4.28072 8.27104C4.53517 8.27104 4.74333 8.25033 4.74333 8.22497C4.74333 8.19962 4.69344 8.13376 4.63254 8.07864C4.57159 8.02346 4.47143 7.89698 4.40999 7.79758C4.28841 7.60087 4.2546 7.59504 3.83234 7.69825ZM16.3711 8.40866C16.6029 8.54436 16.7925 8.66932 16.7925 8.68639C16.7925 8.75208 16.2149 8.63639 16.119 8.55156C15.999 8.44524 15.8443 8.162 15.9062 8.162C15.9301 8.162 16.1393 8.27301 16.3711 8.40866ZM4.96861 8.48351C4.91055 8.52031 4.95564 8.6112 5.17247 8.89411C5.32562 9.09393 5.47953 9.31081 5.51442 9.37602C5.57341 9.48626 5.58339 9.47558 5.65607 9.22358C5.74848 8.90322 5.91264 8.70721 6.08858 8.70721C6.17974 8.70721 6.2154 8.67603 6.2154 8.59632C6.2154 8.44927 6.01313 8.47332 5.84629 8.64015C5.77945 8.70699 5.68627 8.76173 5.63933 8.76173C5.51802 8.76173 5.32801 8.65264 5.24454 8.53498C5.1669 8.42561 5.08436 8.41018 4.96861 8.48351ZM12.0976 9.90051C12.3413 10.6711 12.3736 10.8564 12.3742 11.4878C12.3748 12.1293 12.2709 12.6626 12.0884 12.9561L11.9674 13.1507L11.9182 12.6736C11.869 12.1965 11.8167 12.0838 11.7562 12.3247C11.7099 12.5091 11.32 12.9329 11.2413 12.8842C11.2058 12.8623 11.1768 12.7562 11.1768 12.6483C11.1768 12.4662 11.17 12.4582 11.0814 12.5356C11.0289 12.5814 10.8681 12.6314 10.724 12.6467C10.4672 12.674 10.4623 12.6717 10.4786 12.5312C10.4882 12.4489 10.4682 12.3878 10.4317 12.3877C10.3073 12.3871 10.2884 12.3047 10.3876 12.1951C10.4429 12.134 10.7371 11.9253 11.0414 11.7313C11.5459 11.4097 11.6615 11.2966 11.7381 11.05C11.7523 11.0041 11.7305 10.597 11.6896 10.1454C11.6255 9.43681 11.5567 9.09802 11.3699 8.57091C11.3486 8.51094 11.4664 8.66763 11.6315 8.91914C11.8384 9.23405 11.9835 9.53958 12.0976 9.90051ZM4.0688 8.85725C3.94405 9.09851 3.80742 9.18814 3.5027 9.22854C3.34541 9.24942 3.21674 9.25166 3.21674 9.2335C3.21674 9.19518 4.03843 8.70721 4.10298 8.70721C4.12686 8.70721 4.11149 8.77476 4.0688 8.85725ZM19.1326 9.32166C19.2952 9.41942 19.4378 9.5283 19.4496 9.56357C19.4749 9.63952 19.1573 9.81672 19.0808 9.76939C18.9928 9.71503 19.0209 9.64912 19.1505 9.6055C19.2729 9.56428 19.2729 9.56412 19.1369 9.54215C19.0143 9.52236 18.6895 9.14305 18.7956 9.1436C18.8184 9.14371 18.9701 9.22385 19.1326 9.32166ZM6.31615 9.82468C6.386 10.0194 6.46151 10.1902 6.48397 10.204C6.50638 10.2179 6.57856 10.1915 6.64437 10.1455C6.74289 10.0765 6.75843 10.0264 6.73275 9.86153L6.70151 9.66133L6.81213 9.86191C6.95476 10.1205 7.09128 10.1614 7.36285 10.027C7.82159 9.80003 7.46655 10.1526 6.98644 10.4007C6.85575 10.4683 6.63325 10.5346 6.49198 10.5482C6.14605 10.5815 6.05184 10.4856 6.05184 10.1004C6.05184 9.77751 6.10189 9.47051 6.15455 9.47051C6.17358 9.47051 6.24626 9.62987 6.31615 9.82468ZM1.08628 9.9287C0.992937 10.0869 0.944632 10.1214 0.852327 10.0958C0.742958 10.0653 0.743776 10.0696 0.866121 10.168C0.953246 10.2382 0.975599 10.2855 0.933782 10.3113C0.849819 10.3632 0.68811 10.3071 0.581194 10.1889C0.499249 10.0984 0.515006 10.0797 0.831173 9.89321C1.01682 9.78373 1.17662 9.70206 1.18627 9.71176C1.19597 9.72147 1.15094 9.81906 1.08628 9.9287ZM16.8618 10.1902C16.9819 10.2261 17.2055 10.3696 17.3588 10.509C17.7019 10.821 17.7875 10.8671 18.1146 10.9161C18.2571 10.9375 18.3736 10.9624 18.3736 10.9716C18.3736 11.131 18.0965 11.3252 17.872 11.323L17.7466 11.3218L17.8766 11.2218L18.0066 11.1219L17.8331 11.0614C17.7378 11.0282 17.5968 10.9515 17.52 10.8911C17.394 10.792 17.369 10.7891 17.2651 10.8619C17.2017 10.9063 17.0652 10.9426 16.9617 10.9426H16.7735L16.8852 10.8199C17.044 10.6455 17.1375 10.4472 17.0838 10.3989C16.9848 10.3101 16.6527 10.2337 16.3618 10.233C16.1938 10.2325 16.0196 10.2083 15.9747 10.1793C15.8531 10.1007 16.5935 10.1098 16.8618 10.1902ZM19.1068 10.3565C19.0535 10.5314 18.9185 10.67 18.8013 10.67C18.6603 10.67 18.6761 10.526 18.8346 10.3677C19.0092 10.193 19.1585 10.1869 19.1068 10.3565ZM4.06182 10.7245C4.04328 10.7545 3.87623 10.7809 3.69058 10.7832C3.2765 10.7883 2.92358 10.8884 2.90068 11.0071C2.89131 11.0558 2.95858 11.1809 3.05018 11.2852C3.14178 11.3895 3.21674 11.4901 3.21674 11.5086C3.21674 11.5746 3.01867 11.5408 2.82419 11.4416L2.62666 11.3409L2.39555 11.4961C2.26846 11.5815 2.11291 11.6515 2.04999 11.6517C1.94924 11.652 1.95518 11.6657 2.09906 11.7658L2.26262 11.8796L2.04454 11.8491C1.89902 11.8288 1.7824 11.7681 1.69413 11.6668L1.56186 11.515L1.72139 11.4981C2.09617 11.4583 2.30531 11.3613 2.61854 11.0818C2.80522 10.9153 3.03388 10.766 3.14968 10.7353C3.42567 10.662 4.10543 10.6539 4.06182 10.7245ZM1.16479 10.9227C1.36837 11.1263 1.35523 11.2859 1.1396 11.2296C1.03732 11.2028 0.872337 10.96 0.872337 10.8363C0.872337 10.7331 1.01823 10.7762 1.16479 10.9227ZM15.8656 11.333C15.8806 11.4958 15.9364 11.6954 15.9896 11.7765C16.0743 11.9057 16.0756 11.924 16.0007 11.924C15.9537 11.924 15.855 11.8637 15.7814 11.7901C15.6768 11.6856 15.6474 11.5991 15.6468 11.3948C15.6464 11.2511 15.6297 11.0723 15.6098 10.9976C15.5742 10.8646 15.5762 10.8636 15.7059 10.9493C15.8115 11.0192 15.8439 11.097 15.8656 11.333ZM4.3854 11.6105C4.3637 11.7079 4.34936 11.8809 4.35351 11.9949C4.35918 12.1486 4.32668 12.2365 4.22756 12.3356C4.15412 12.4091 4.05876 12.4692 4.01564 12.4692C3.95196 12.4692 3.95659 12.4313 4.04045 12.2668C4.0972 12.1555 4.1436 11.9606 4.1436 11.8337C4.1436 11.6571 4.172 11.5831 4.2648 11.5182C4.42744 11.4042 4.43076 11.4068 4.3854 11.6105ZM16.0046 12.142C16.049 12.142 16.1313 12.0664 16.1875 11.9739C16.3123 11.7689 16.3793 11.8444 16.3303 12.1347C16.3038 12.2918 16.3172 12.3596 16.3862 12.4169C16.4645 12.4819 16.4866 12.4794 16.5454 12.3989C16.6625 12.2388 16.7512 12.2844 16.7086 12.4828C16.6877 12.5802 16.6598 12.6784 16.6465 12.7009C16.5121 12.9293 15.5385 12.2252 15.5385 11.8995C15.5385 11.8218 15.5751 11.8357 15.7312 11.9728C15.8372 12.0659 15.9603 12.142 16.0046 12.142ZM4.00708 12.6872C4.04759 12.6872 4.15723 12.6229 4.25079 12.5442C4.45301 12.374 4.50916 12.4006 4.39816 12.614C4.30531 12.7925 4.15205 12.939 3.84471 13.1429C3.5877 13.3135 3.4056 13.3271 3.32769 13.1815C3.20497 12.9522 3.3031 12.7247 3.42921 12.9462C3.47261 13.0224 3.5033 13.0293 3.58187 12.9804C3.66076 12.9313 3.67684 12.8613 3.66332 12.626L3.64648 12.3329L3.78992 12.5101C3.86887 12.6075 3.96657 12.6872 4.00708 12.6872Z" fill="white"/>
</svg>
