<svg width="24" height="24" viewBox="0 0 24 24" fill="none" xmlns="http://www.w3.org/2000/svg">
<path d="M20.8664 18.5715C20.5888 18.5709 20.3194 18.6654 20.1029 18.8392C19.8865 19.013 19.7361 19.2557 19.6767 19.5269L15.0841 19.3096C15.1016 19.2228 15.1098 19.136 15.1098 19.0492C15.1098 18.893 15.0841 18.7364 15.0399 18.5802L16.7109 17.6248C17.1218 18.1282 17.8661 18.233 18.3993 17.8508C18.6561 17.6687 18.8325 17.3941 18.8912 17.0847C18.9499 16.7754 18.8864 16.4553 18.7141 16.1917C18.5404 15.9282 18.2732 15.7405 17.9664 15.6663C17.6596 15.5921 17.3361 15.6371 17.0612 15.7921C16.787 15.9462 16.5829 16.2003 16.4916 16.5013C16.4003 16.8024 16.4288 17.127 16.5712 17.4075L14.9531 18.3372C14.766 17.9478 14.4372 17.6445 14.0339 17.4895C13.6306 17.3344 13.1833 17.3393 12.7834 17.5031C12.3836 17.6649 12.0614 17.9745 11.8838 18.3676C11.7062 18.7607 11.6868 19.2072 11.8296 19.6142L8.82057 20.3349C8.80002 19.9258 8.62853 19.5389 8.33927 19.249L8.88169 18.5021C9.17737 18.6026 9.50023 18.5867 9.78458 18.4576C10.0689 18.3285 10.2934 18.0959 10.4124 17.8072C10.5301 17.5191 10.5321 17.1967 10.418 16.9072C10.304 16.6176 10.0826 16.3833 9.80011 16.2528C9.51701 16.12 9.19396 16.0999 8.89658 16.1966C8.5992 16.2934 8.3498 16.4997 8.19904 16.7737C8.05212 17.0479 8.0156 17.368 8.09696 17.6683C8.17831 17.9687 8.3714 18.2265 8.63668 18.3891L8.13843 19.0754C7.78314 18.8149 7.34183 18.6999 6.90462 18.7538L6.38839 15.827C6.70258 15.7597 6.99083 15.6036 7.21885 15.3772C7.44686 15.1509 7.60505 14.8637 7.67459 14.55C7.7438 14.237 7.72113 13.9107 7.60933 13.6103C7.49752 13.3099 7.30133 13.0481 7.04433 12.8565C6.78778 12.6623 6.48117 12.5453 6.16047 12.5192C5.83977 12.4931 5.51827 12.559 5.23369 12.7091L3.93002 10.1819C4.20996 10.0432 4.43751 9.82541 4.60394 9.56549L5.68827 9.8516C5.67954 9.91221 5.67081 9.96461 5.67081 10.0252C5.67236 10.3295 5.78689 10.6224 5.99219 10.8471C6.19748 11.0718 6.4789 11.2121 6.78185 11.241C7.08608 11.2718 7.39077 11.1872 7.63549 11.0038C7.8802 10.8205 8.04707 10.5519 8.10298 10.2512C8.15944 9.95192 8.10065 9.64234 7.93842 9.38455C7.77619 9.12677 7.5225 8.93985 7.22822 8.86127C6.93408 8.77743 6.61921 8.80676 6.3456 8.94346C6.072 9.08017 5.85949 9.31435 5.74991 9.59991L4.72619 9.33075C4.86553 9.00108 4.89313 8.63486 4.80478 8.28802L7.82304 6.90731C8.09522 7.24409 8.48533 7.46472 8.91421 7.52443C9.34309 7.58415 9.77862 7.47848 10.1325 7.22886C10.4852 6.98164 10.7281 6.60697 10.8098 6.184C10.8914 5.76102 10.8055 5.32286 10.5701 4.96208L12.4943 3.09442C12.7305 3.24235 13.0017 3.33789 13.273 3.35536V4.18029C12.9646 4.21335 12.6805 4.36305 12.4789 4.59873C12.2774 4.83441 12.1735 5.13824 12.1886 5.448C12.2062 5.75834 12.3421 6.05013 12.5682 6.26338C12.7944 6.47663 13.0936 6.59512 13.4045 6.59449C14.0517 6.59449 14.5854 6.0911 14.6203 5.448C14.6371 5.13776 14.5337 4.83298 14.3317 4.59692C14.1297 4.36086 13.8445 4.21166 13.5354 4.18029V3.35536C13.7805 3.33789 14.008 3.26804 14.2181 3.15503L16.3261 5.54354C16.089 5.8534 15.9672 6.23616 15.9815 6.62608C15.9958 7.016 16.1455 7.38876 16.4047 7.68037C16.6686 7.97234 17.0255 8.16392 17.4147 8.22254C17.8038 8.28116 18.2013 8.2032 18.5395 8.00192C18.8761 7.80301 19.1328 7.49291 19.2653 7.12507C19.3977 6.75722 19.3978 6.35469 19.2653 5.98683L19.9218 5.62213C20.1237 5.85819 20.408 6.00845 20.7168 6.04232C21.0256 6.0762 21.3357 5.99115 21.584 5.80448C21.8321 5.62088 21.9998 5.34852 22.052 5.04426C22.1041 4.73999 22.0367 4.42734 21.8639 4.17156C21.69 3.91509 21.4249 3.73458 21.1225 3.66682C20.8202 3.59906 20.5033 3.64914 20.2366 3.80686C19.9708 3.96446 19.7754 4.21796 19.6908 4.5152C19.6061 4.81245 19.6386 5.13083 19.7815 5.40486L19.1605 5.75209C19.0347 5.52579 18.8587 5.33137 18.646 5.18378C18.4333 5.03619 18.1895 4.93936 17.9335 4.90076C17.6775 4.86216 17.416 4.88281 17.1693 4.96112C16.9225 5.03943 16.697 5.17331 16.51 5.35246L14.4451 3.01634C14.647 2.85714 14.8113 2.65547 14.9264 2.42563L16.7376 2.72099C16.8056 3.02253 16.9871 3.28635 17.2443 3.4578C17.5015 3.62925 17.8148 3.69519 18.1193 3.64198C18.4244 3.59307 18.699 3.42876 18.8863 3.18304C19.0736 2.93732 19.1593 2.629 19.1256 2.32188C19.0901 2.01521 18.9392 1.73354 18.7036 1.53401C18.4681 1.33448 18.1654 1.23204 17.8571 1.24746C17.5488 1.26288 17.2578 1.39502 17.0434 1.61706C16.8289 1.8391 16.7069 2.13442 16.7021 2.4431L15.0225 2.16572C15.1368 1.77771 15.1079 1.36153 14.941 0.993053C14.7741 0.624578 14.4804 0.328342 14.1133 0.158344C13.7458 -0.0128305 13.329 -0.0464755 12.9388 0.0635228C12.5486 0.173521 12.2108 0.419863 11.9868 0.757784C11.7627 1.09452 11.6685 1.50115 11.7217 1.90211C11.7749 2.30307 11.9718 2.67108 12.2759 2.93775L10.4037 4.75302C10.1134 4.42156 9.70554 4.21599 9.26642 4.17978V2.91156C9.57488 2.87862 9.85907 2.72898 10.0608 2.49329C10.2625 2.25759 10.3664 1.95369 10.3513 1.64385C10.3353 1.33526 10.2008 1.04474 9.97598 0.832794C9.75112 0.620851 9.45317 0.503825 9.14417 0.506091C8.49696 0.506091 7.96276 1.00948 7.92783 1.65258C7.91092 1.9629 8.0142 2.26782 8.21622 2.50399C8.41824 2.74016 8.70347 2.88943 9.01267 2.9208V4.18029C8.7293 4.20207 8.4559 4.29453 8.21748 4.44923C7.97906 4.60393 7.78323 4.81593 7.64788 5.06584C7.51424 5.31662 7.44658 5.59726 7.45125 5.88139C7.45592 6.16551 7.53278 6.44378 7.67459 6.69003L4.73492 8.0276C4.62921 7.77755 4.46398 7.55713 4.25362 7.38553L5.3996 5.33551C5.5049 5.3612 5.60095 5.37866 5.70625 5.37866C6.32727 5.37866 6.84298 4.91842 6.92208 4.31025C7.00067 3.70259 6.59848 3.13808 6.00366 2.99015C5.71444 2.91796 5.40881 2.95412 5.14442 3.09181C4.88003 3.22949 4.67517 3.45917 4.5685 3.73752C4.35019 4.31025 4.60394 4.95335 5.14636 5.23997L4.03532 7.23759C3.70943 7.04388 3.32796 6.96511 2.952 7.01391C2.57603 7.06271 2.22732 7.23625 1.96168 7.50675C1.69778 7.77423 1.53178 8.12288 1.49049 8.49635C1.4492 8.86983 1.53504 9.24631 1.73413 9.56498C1.93422 9.88581 2.23547 10.1309 2.59032 10.2615C2.94517 10.392 3.3334 10.4007 3.69374 10.2862L5.01487 12.8483C4.68146 13.0917 4.45071 13.4507 4.36766 13.8551L3.40506 13.5777C3.43126 13.4821 3.4405 13.3774 3.4405 13.2823C3.44023 12.9851 3.33028 12.6983 3.1317 12.4771C2.93313 12.2559 2.65991 12.1157 2.36439 12.0835C2.06856 12.049 1.7703 12.1235 1.5255 12.2932C1.28069 12.4628 1.10614 12.7159 1.03452 13.005C0.963433 13.2944 1.00297 13.6 1.14539 13.8619C1.28782 14.1237 1.52286 14.323 1.8045 14.4206C2.08424 14.5216 2.3912 14.5174 2.66805 14.4087C2.94491 14.3 3.17274 14.0943 3.30901 13.8299L4.33273 14.1252V14.2033C4.33273 14.7766 4.6214 15.3067 5.11092 15.6107L4.45498 16.4614C4.22133 16.2563 3.91806 16.1483 3.60736 16.1597C3.29666 16.171 3.00209 16.3009 2.78405 16.5225C2.32946 16.9827 2.31148 17.7039 2.74912 18.1816C2.95944 18.4114 3.24975 18.552 3.56047 18.5746C3.87119 18.5971 4.17876 18.4999 4.42005 18.3028C4.66207 18.1089 4.8199 17.829 4.86067 17.5216C4.90143 17.2141 4.82198 16.9028 4.63887 16.6524L5.34772 15.732C5.55729 15.8275 5.79357 15.8707 6.02986 15.8707C6.06479 15.8707 6.09971 15.8707 6.13464 15.8624L6.6596 18.8067C6.31935 18.9081 6.01927 19.1133 5.80129 19.3935C5.58331 19.6737 5.45832 20.0151 5.44377 20.3698C5.43562 20.7251 5.54052 21.0739 5.74333 21.3658C5.94615 21.6577 6.23641 21.8777 6.57228 21.994C6.90902 22.113 7.27478 22.1225 7.61724 22.0212C7.95971 21.9198 8.26134 21.7127 8.47898 21.4295L10.9286 22.5154C10.9084 22.6037 10.8967 22.6939 10.8937 22.7845C10.8937 23.4009 11.357 23.9223 11.9785 23.9916C12.2756 24.0266 12.5751 23.9513 12.8202 23.7799C13.0653 23.6084 13.2389 23.3529 13.3079 23.0619C13.4481 22.463 13.107 21.8548 12.521 21.6468C12.2382 21.5468 11.9285 21.5544 11.651 21.6681C11.3734 21.7817 11.1474 21.9935 11.0159 22.2631L8.62743 21.2035C8.73463 21.014 8.80046 20.8039 8.82057 20.5871L11.9349 19.8315C12.0536 20.0463 12.2174 20.2329 12.4152 20.3783C12.6129 20.5238 12.8399 20.6246 13.0803 20.6739C13.321 20.7214 13.5691 20.7165 13.8077 20.6595C14.0464 20.6025 14.2699 20.4948 14.4631 20.3436L15.6265 21.3427C15.495 21.6251 15.478 21.9476 15.5791 22.2423C15.6803 22.537 15.8917 22.7811 16.169 22.9232C16.444 23.0651 16.7627 23.0972 17.0605 23.013C17.3584 22.9289 17.6131 22.7347 17.7731 22.4698C17.9332 22.2049 17.9866 21.8891 17.9226 21.5862C17.8587 21.2834 17.682 21.0163 17.4285 20.8388C17.1692 20.6637 16.8529 20.594 16.544 20.644C16.2352 20.694 15.957 20.8599 15.7663 21.1079L14.6552 20.1613C14.8216 19.9876 14.9439 19.7709 15.0225 19.5449L19.6506 19.7709C19.6549 20.0919 19.7861 20.3982 20.0156 20.6227C20.245 20.8473 20.5541 20.9718 20.8751 20.9692C21.549 20.9692 22.0909 20.4222 22.0822 19.7621C22.0822 19.1103 21.5403 18.5715 20.8664 18.5715Z" fill="#1D1D22"/>
</svg>
