<svg width="20" height="20" viewBox="0 0 20 20" fill="none" xmlns="http://www.w3.org/2000/svg">
<path d="M17.3883 15.4762C17.157 15.4758 16.9325 15.5545 16.7521 15.6994C16.5718 15.8442 16.4464 16.0464 16.397 16.2724L12.5698 16.0913C12.5843 16.019 12.5912 15.9467 12.5912 15.8743C12.5912 15.7442 12.5698 15.6136 12.533 15.4835L13.9254 14.6873C14.2678 15.1068 14.8881 15.1941 15.3324 14.8757C15.5465 14.7239 15.6934 14.4951 15.7423 14.2373C15.7912 13.9795 15.7384 13.7127 15.5948 13.4931C15.45 13.2735 15.2273 13.117 14.9717 13.0552C14.716 12.9934 14.4464 13.0309 14.2173 13.1601C13.9888 13.2885 13.8188 13.5003 13.7427 13.7511C13.6666 14.002 13.6904 14.2725 13.809 14.5063L12.4606 15.281C12.3047 14.9565 12.0306 14.7038 11.6946 14.5746C11.3585 14.4454 10.9857 14.4494 10.6525 14.5859C10.3193 14.7208 10.0508 14.9788 9.90283 15.3064C9.75482 15.634 9.73864 16.006 9.85766 16.3452L7.35015 16.9457C7.33302 16.6049 7.19012 16.2824 6.94906 16.0408L7.40108 15.4184C7.64749 15.5022 7.91653 15.4889 8.15349 15.3813C8.39045 15.2737 8.57753 15.0799 8.67667 14.8393C8.77472 14.5992 8.7764 14.3306 8.68136 14.0893C8.58632 13.848 8.40187 13.6527 8.16644 13.544C7.93052 13.4333 7.66131 13.4166 7.41349 13.4972C7.16567 13.5778 6.95784 13.7497 6.83221 13.9781C6.70977 14.2066 6.67934 14.4733 6.74714 14.7236C6.81494 14.9739 6.97584 15.1888 7.1969 15.3243L6.7817 15.8961C6.48562 15.6791 6.11787 15.5833 5.75352 15.6282L5.32333 13.1892C5.58516 13.1331 5.82536 13.003 6.01538 12.8144C6.20539 12.6257 6.33722 12.3864 6.39517 12.125C6.45284 11.8642 6.43395 11.5923 6.34078 11.3419C6.24761 11.0915 6.08411 10.8734 5.86995 10.7138C5.65616 10.5519 5.40065 10.4544 5.1334 10.4327C4.86615 10.4109 4.59824 10.4658 4.36108 10.5909L3.27469 8.4849C3.50798 8.36933 3.6976 8.18784 3.83629 7.97125L4.7399 8.20967C4.73263 8.26018 4.72535 8.30384 4.72535 8.35435C4.72664 8.60795 4.82209 8.85204 4.99316 9.03925C5.16424 9.22646 5.39876 9.34346 5.65122 9.36754C5.90474 9.39321 6.15865 9.32265 6.36258 9.16986C6.56651 9.01707 6.70557 8.79321 6.75216 8.54269C6.79921 8.29327 6.75022 8.03528 6.61502 7.82046C6.47983 7.60564 6.26842 7.44987 6.02319 7.38439C5.77808 7.31453 5.51568 7.33896 5.28768 7.45289C5.05967 7.56681 4.88258 7.76196 4.79127 7.99992L3.93817 7.77563C4.05428 7.5009 4.07728 7.19572 4.00366 6.90669L6.51887 5.75609C6.74569 6.03674 7.07078 6.2206 7.42818 6.27036C7.78558 6.32012 8.14853 6.23207 8.44338 6.02405C8.73738 5.81804 8.93978 5.50581 9.00783 5.15333C9.07588 4.80085 9.00426 4.43572 8.80808 4.13507L10.4116 2.57868C10.6085 2.70196 10.8345 2.78158 11.0605 2.79613V3.48358C10.8035 3.51112 10.5668 3.63587 10.3988 3.83227C10.2308 4.02867 10.1443 4.28187 10.1569 4.54C10.1715 4.79861 10.2847 5.04178 10.4732 5.21948C10.6616 5.39719 10.911 5.49593 11.1701 5.49541C11.7094 5.49541 12.1541 5.07592 12.1832 4.54C12.1972 4.28147 12.1111 4.02748 11.9428 3.83077C11.7744 3.63405 11.5368 3.50972 11.2792 3.48358V2.79613C11.4834 2.78158 11.673 2.72336 11.8481 2.62919L13.6048 4.61962C13.4072 4.87784 13.3056 5.1968 13.3176 5.52173C13.3295 5.84666 13.4542 6.1573 13.6703 6.4003C13.8902 6.64362 14.1876 6.80327 14.5119 6.85212C14.8362 6.90097 15.1674 6.836 15.4493 6.66826C15.7298 6.50251 15.9436 6.24409 16.0541 5.93755C16.1645 5.63102 16.1645 5.29557 16.0541 4.98903L16.6011 4.68511C16.7694 4.88183 17.0063 5.00704 17.2636 5.03527C17.521 5.0635 17.7794 4.99263 17.9863 4.83707C18.1931 4.68407 18.3328 4.4571 18.3763 4.20355C18.4198 3.95 18.3636 3.68945 18.2196 3.4763C18.0747 3.26258 17.8537 3.11215 17.6018 3.05568C17.3498 2.99922 17.0858 3.04095 16.8635 3.17239C16.642 3.30372 16.4792 3.51497 16.4086 3.76267C16.3381 4.01037 16.3652 4.27569 16.4843 4.50405L15.9668 4.79341C15.862 4.60483 15.7153 4.4428 15.538 4.31981C15.3607 4.19682 15.1576 4.11614 14.9443 4.08397C14.7309 4.0518 14.513 4.06901 14.3074 4.13427C14.1017 4.19953 13.9138 4.31109 13.758 4.46039L12.0373 2.51362C12.2055 2.38095 12.3424 2.21289 12.4384 2.02136L13.9477 2.26749C14.0044 2.51878 14.1556 2.73862 14.3699 2.8815C14.5843 3.02437 14.8454 3.07933 15.0991 3.03498C15.3533 2.99423 15.5822 2.8573 15.7383 2.65253C15.8943 2.44777 15.9657 2.19083 15.9377 1.9349C15.9081 1.67934 15.7824 1.44462 15.586 1.27834C15.3897 1.11207 15.1375 1.0267 14.8806 1.03955C14.6236 1.0524 14.3812 1.16252 14.2025 1.34755C14.0237 1.53258 13.9221 1.77868 13.9181 2.03592L12.5184 1.80477C12.6137 1.48142 12.5896 1.13461 12.4505 0.827544C12.3114 0.520481 12.0666 0.273618 11.7608 0.131954C11.4545 -0.010692 11.1072 -0.0387296 10.782 0.0529357C10.4568 0.144601 10.1753 0.349886 9.98864 0.631487C9.80192 0.912101 9.72343 1.25096 9.76775 1.58509C9.81208 1.91923 9.97621 2.2259 10.2296 2.44813L8.66939 3.96085C8.42748 3.68463 8.08763 3.51333 7.72169 3.48315V2.4263C7.97874 2.39885 8.21557 2.27415 8.38365 2.07774C8.55173 1.88133 8.63834 1.62808 8.62573 1.36987C8.6124 1.11272 8.50038 0.870614 8.31299 0.693995C8.12561 0.517376 7.87731 0.419854 7.61982 0.421743C7.08048 0.421743 6.6353 0.841231 6.6062 1.37715C6.59211 1.63575 6.67817 1.88985 6.84653 2.08666C7.01488 2.28346 7.25257 2.40786 7.51024 2.434V3.48358C7.27409 3.50172 7.04626 3.57878 6.84758 3.70769C6.64889 3.83661 6.4857 4.01327 6.37291 4.22153C6.26154 4.43052 6.20516 4.66439 6.20905 4.90116C6.21294 5.13793 6.27699 5.36982 6.39517 5.57503L3.94544 6.68967C3.85735 6.48129 3.71966 6.29761 3.54436 6.1546L4.49934 4.44626C4.58709 4.46766 4.66713 4.48222 4.75488 4.48222C5.2724 4.48222 5.70216 4.09868 5.76808 3.59187C5.83357 3.08549 5.49841 2.61507 5.00272 2.49179C4.76171 2.43164 4.50701 2.46177 4.28669 2.57651C4.06637 2.69124 3.89565 2.88264 3.80676 3.1146C3.62483 3.59187 3.83629 4.12779 4.28831 4.36664L3.36244 6.03133C3.09086 5.8699 2.77298 5.80426 2.45967 5.84493C2.14637 5.88559 1.85577 6.03021 1.63441 6.25562C1.41449 6.47853 1.27616 6.76906 1.24175 7.08029C1.20734 7.39152 1.27887 7.70526 1.44478 7.97082C1.61153 8.23817 1.86257 8.44238 2.15827 8.55121C2.45398 8.66004 2.77751 8.66728 3.07779 8.5718L4.17873 10.7069C3.90089 10.9098 3.7086 11.2089 3.63939 11.5459L2.83722 11.3147C2.85905 11.2351 2.86676 11.1478 2.86676 11.0686C2.86654 10.8209 2.77491 10.5819 2.60943 10.3976C2.44395 10.2132 2.21626 10.0964 1.97 10.0695C1.72347 10.0408 1.47493 10.1029 1.27092 10.2443C1.06692 10.3857 0.921454 10.5965 0.861778 10.8375C0.802536 11.0787 0.835484 11.3333 0.954169 11.5516C1.07285 11.7698 1.26873 11.9358 1.50342 12.0172C1.73654 12.1014 1.99234 12.0979 2.22305 12.0073C2.45377 11.9167 2.64362 11.7452 2.75718 11.5249L3.61028 11.771V11.8361C3.61028 12.3138 3.85084 12.7556 4.25878 13.009L3.71216 13.7178C3.51745 13.5469 3.26472 13.4569 3.00581 13.4664C2.74689 13.4759 2.50141 13.584 2.31971 13.7687C1.94089 14.1523 1.92591 14.7533 2.29061 15.1513C2.46587 15.3429 2.7078 15.46 2.96673 15.4788C3.22567 15.4976 3.48197 15.4166 3.68305 15.2524C3.88473 15.0907 4.01626 14.8575 4.05023 14.6013C4.0842 14.3451 4.01799 14.0856 3.8654 13.877L4.45611 13.11C4.63075 13.1896 4.82765 13.2255 5.02456 13.2255C5.05366 13.2255 5.08277 13.2255 5.11188 13.2187L5.54934 15.6723C5.2658 15.7568 5.01574 15.9277 4.83409 16.1612C4.65243 16.3948 4.54827 16.6792 4.53615 16.9748C4.52936 17.271 4.61677 17.5616 4.78578 17.8048C4.9548 18.0481 5.19668 18.2314 5.47658 18.3283C5.75719 18.4275 6.06199 18.4355 6.34738 18.351C6.63277 18.2665 6.88412 18.0939 7.06549 17.8579L9.10686 18.7628C9.09001 18.8365 9.08026 18.9116 9.07775 18.9871C9.07775 19.5007 9.46385 19.9352 9.98179 19.993C10.2293 20.0222 10.479 19.9594 10.6832 19.8165C10.8875 19.6737 11.0321 19.4608 11.0896 19.2182C11.2064 18.7191 10.9222 18.2123 10.4338 18.039C10.1982 17.9557 9.9401 17.962 9.7088 18.0567C9.47751 18.1514 9.28915 18.328 9.17963 18.5526L7.1892 17.6696C7.27853 17.5116 7.33339 17.3366 7.35015 17.1559L9.94541 16.5262C10.0443 16.7053 10.1809 16.8608 10.3457 16.982C10.5105 17.1031 10.6996 17.1872 10.9 17.2282C11.1005 17.2678 11.3073 17.2637 11.5061 17.2163C11.705 17.1688 11.8912 17.079 12.0523 16.953L13.0218 17.7856C12.9122 18.0209 12.898 18.2896 12.9823 18.5352C13.0666 18.7808 13.2427 18.9842 13.4738 19.1027C13.703 19.2209 13.9686 19.2477 14.2168 19.1775C14.465 19.1074 14.6772 18.9455 14.8106 18.7248C14.944 18.5041 14.9885 18.2409 14.9352 17.9885C14.8819 17.7362 14.7347 17.5135 14.5234 17.3656C14.3073 17.2197 14.0437 17.1617 13.7864 17.2034C13.529 17.245 13.2972 17.3833 13.1382 17.5899L12.2124 16.801C12.351 16.6564 12.4529 16.4757 12.5184 16.2874L16.3751 16.4757C16.3787 16.7432 16.4881 16.9985 16.6793 17.1856C16.8705 17.3727 17.1281 17.4765 17.3956 17.4744C17.9572 17.4744 18.4088 17.0185 18.4015 16.4684C18.4015 15.9253 17.9499 15.4762 17.3883 15.4762Z" fill="white"/>
</svg>
