<svg width="24" height="24" viewBox="0 0 24 24" fill="none" xmlns="http://www.w3.org/2000/svg">
<path opacity="0.3" fill-rule="evenodd" clip-rule="evenodd" d="M13.1242 21.8884C18.0622 21.8884 22.0652 17.8853 22.0652 12.9473C22.0652 8.00928 18.0622 4.00623 13.1242 4.00623C8.18616 4.00623 4.18311 8.00928 4.18311 12.9473C4.18311 17.8853 8.18616 21.8884 13.1242 21.8884ZM18.0591 9.33174C18.0591 9.8984 17.5997 10.3578 17.0331 10.3578C16.4664 10.3578 16.007 9.8984 16.007 9.33174C16.007 8.76508 16.4664 8.30572 17.0331 8.30572C17.5997 8.30572 18.0591 8.76508 18.0591 9.33174ZM19.7205 14.7062C19.7205 15.4887 19.0861 16.1231 18.3036 16.1231C17.521 16.1231 16.8867 15.4887 16.8867 14.7062C16.8867 13.9237 17.521 13.2893 18.3036 13.2893C19.0861 13.2893 19.7205 13.9237 19.7205 14.7062Z" fill="#1D1D22"/>
<path fill-rule="evenodd" clip-rule="evenodd" d="M17.7679 0.171004C17.1479 0.482525 16.8401 1.20787 17.074 1.80688C17.1286 1.94691 17.081 2.0882 16.9049 2.30885L16.6599 2.61597L16.0158 2.32673C11.4991 0.297841 6.16911 1.6604 3.16207 5.61265C1.14481 8.26409 0.488157 11.751 1.40816 14.9259C1.90866 16.653 2.73398 18.0787 3.99159 19.3886C5.3433 20.7966 7.10924 21.8351 9.02028 22.3455C9.88673 22.577 10.1802 22.6071 11.6098 22.6111C13.4364 22.6163 14.3011 22.4526 15.794 21.819L16.607 21.474L16.8786 21.7342C17.1278 21.9729 17.1421 22.0248 17.052 22.3625C16.9299 22.8196 17.0094 23.1552 17.3293 23.5354C17.8473 24.151 18.7001 24.1553 19.2846 23.5453C19.5394 23.2793 19.5737 23.1738 19.5737 22.6561C19.5737 22.1006 19.5535 22.0502 19.2013 21.7275C18.8595 21.4142 18.7848 21.3882 18.2936 21.4109C17.8665 21.4307 17.7188 21.3961 17.5621 21.2394L17.3658 21.0431L18.0874 20.4904C19.3795 19.5007 20.342 18.3394 21.1124 16.8405C21.6141 15.8647 22.0342 14.6156 22.1273 13.823C22.167 13.4858 22.2363 13.2893 22.3157 13.2893C22.3848 13.2893 22.5758 13.1761 22.7401 13.0378C23.1173 12.7205 23.2918 12.1359 23.1435 11.6867C23.0338 11.3542 22.6295 10.9187 22.3342 10.8149C22.2354 10.7802 22.1632 10.6555 22.1632 10.52C22.1632 10.0443 21.6768 8.38828 21.3028 7.58994C20.6107 6.11315 19.5712 4.76476 18.3963 3.81945C17.9967 3.49806 17.5925 3.19103 17.498 3.13729C17.3377 3.04602 17.3407 3.02482 17.5423 2.82079C17.7217 2.63933 17.8494 2.60639 18.2936 2.62701C18.7848 2.64968 18.8595 2.62369 19.2013 2.31041C19.5533 1.98785 19.5737 1.93713 19.5737 1.38318C19.5737 0.894009 19.5333 0.753591 19.3294 0.532556C19.0713 0.252793 18.5735 -0.000292895 18.2821 2.54416e-07C18.1863 2.54416e-07 17.9549 0.0770009 17.7679 0.171004ZM14.0525 2.49529C14.9248 2.73255 15.9357 3.15498 15.9138 3.27331C15.9039 3.32705 14.2829 5.06123 12.3115 7.12696L8.72713 10.883L8.70075 8.81286L8.67436 6.74264L9.11604 6.31953C9.51883 5.93355 9.55772 5.85528 9.55772 5.4305C9.55772 4.82808 9.32496 4.44376 8.80892 4.1939C7.36535 3.49513 6.18963 5.56662 7.53352 6.44109L7.89654 6.67727V8.70498V10.7327L7.56489 10.9376C6.72541 11.4565 6.75081 12.687 7.61111 13.1765L7.89527 13.3381L7.89595 15.3577L7.89654 17.3774L7.56489 17.5823C6.71251 18.1092 6.74847 19.3012 7.6331 19.8406C8.47639 20.3548 9.5587 19.7198 9.55596 18.7125C9.5545 18.2083 9.38466 17.8817 8.99683 17.6378L8.6858 17.4422L8.68208 15.3657C8.67993 14.2237 8.71296 13.2893 8.75547 13.2893C8.79788 13.2893 9.57472 14.0698 10.4816 15.0237C11.3886 15.9776 13.0081 17.6707 14.0805 18.7859L16.0303 20.8136L15.4887 21.0615C15.1909 21.1979 14.5371 21.4125 14.0358 21.5385C10.6876 22.3798 7.31884 21.4747 4.83244 19.0656C3.87159 18.1346 3.32301 17.3736 2.77111 16.2063C2.04957 14.6798 1.88658 13.9057 1.88951 12.0189C1.89156 10.6321 1.9241 10.2905 2.12169 9.57603C3.12103 5.96296 5.89218 3.28455 9.50886 2.43607C10.5325 2.19589 13.0732 2.22901 14.0525 2.49529ZM17.7197 4.32992C19.5594 5.78668 20.8837 7.95599 21.2854 10.1712L21.3897 10.7473L21.046 11.0491C20.4003 11.6161 20.3884 12.394 21.016 13.0215L21.4061 13.4117L21.1909 14.2896C20.8193 15.805 20.1355 17.162 19.1564 18.3278C18.5869 19.0059 17.5365 19.9456 17.0195 20.2394L16.7399 20.3984L13.1309 16.6036L9.52196 12.8089L9.516 12.0376L9.50994 11.2663L13.1111 7.48968C15.0917 5.41252 16.7636 3.71303 16.8264 3.71303C16.8892 3.71303 17.2911 3.99065 17.7197 4.32992Z" fill="#1D1D22"/>
</svg>
