<svg width="20" height="20" viewBox="0 0 20 20" fill="none" xmlns="http://www.w3.org/2000/svg">
<path opacity="0.3" fill-rule="evenodd" clip-rule="evenodd" d="M10.9362 18.2406C15.0513 18.2406 18.3871 14.9048 18.3871 10.7898C18.3871 6.67474 15.0513 3.33887 10.9362 3.33887C6.82123 3.33887 3.48535 6.67474 3.48535 10.7898C3.48535 14.9048 6.82123 18.2406 10.9362 18.2406ZM15.0487 7.7768C15.0487 8.24901 14.6659 8.63182 14.1936 8.63182C13.7214 8.63182 13.3386 8.24901 13.3386 7.7768C13.3386 7.30458 13.7214 6.92178 14.1936 6.92178C14.6659 6.92178 15.0487 7.30458 15.0487 7.7768ZM16.4331 12.2555C16.4331 12.9076 15.9045 13.4363 15.2524 13.4363C14.6003 13.4363 14.0717 12.9076 14.0717 12.2555C14.0717 11.6034 14.6003 11.0748 15.2524 11.0748C15.9045 11.0748 16.4331 11.6034 16.4331 12.2555Z" fill="white"/>
<path fill-rule="evenodd" clip-rule="evenodd" d="M14.8062 0.142504C14.2896 0.402104 14.0331 1.00656 14.228 1.50573C14.2735 1.62242 14.2339 1.74017 14.0871 1.92404L13.8829 2.17998L13.3462 1.93894C9.58222 0.248201 5.1406 1.38367 2.63474 4.6772C0.953685 6.88674 0.406472 9.7925 1.17314 12.4383C1.59023 13.8775 2.27799 15.0656 3.326 16.1572C4.45243 17.3305 5.92404 18.1959 7.51657 18.6213C8.23862 18.8142 8.48315 18.8393 9.67448 18.8426C11.1967 18.8469 11.9172 18.7105 13.1613 18.1825L13.8388 17.895L14.0652 18.1118C14.2729 18.3108 14.2848 18.354 14.2097 18.6354C14.108 19.0163 14.1742 19.296 14.4408 19.6129C14.8724 20.1259 15.5831 20.1295 16.0702 19.6211C16.2825 19.3994 16.3111 19.3115 16.3111 18.8801C16.3111 18.4171 16.2943 18.3752 16.0007 18.1062C15.7159 17.8452 15.6537 17.8235 15.2443 17.8424C14.8884 17.8589 14.7654 17.8301 14.6347 17.6995L14.4711 17.5359L15.0725 17.0753C16.1493 16.2506 16.9514 15.2829 17.5934 14.0337C18.0114 13.2206 18.3615 12.1796 18.4391 11.5192C18.4721 11.2381 18.53 11.0744 18.5961 11.0744C18.6537 11.0744 18.8129 10.9801 18.9497 10.8649C19.2641 10.6004 19.4095 10.1133 19.286 9.73892C19.1945 9.46182 18.8576 9.09888 18.6115 9.0124C18.5292 8.98349 18.469 8.87959 18.469 8.76664C18.469 8.37024 18.0637 6.99024 17.752 6.32495C17.1753 5.09429 16.309 3.97063 15.3299 3.18287C14.9969 2.91505 14.6601 2.65919 14.5813 2.61441C14.4478 2.53835 14.4502 2.52068 14.6183 2.35065C14.7678 2.19944 14.8741 2.172 15.2443 2.18918C15.6537 2.20807 15.7159 2.18641 16.0007 1.92534C16.2941 1.65654 16.3111 1.61428 16.3111 1.15265C16.3111 0.745008 16.2774 0.627992 16.1075 0.443797C15.8924 0.210661 15.4776 -0.000244079 15.2347 2.12013e-07C15.1549 2.12013e-07 14.9621 0.0641674 14.8062 0.142504ZM11.7101 2.07941C12.437 2.27712 13.2794 2.62915 13.2612 2.72776C13.2529 2.77255 11.9021 4.21769 10.2592 5.93913L7.27228 9.06916L7.2503 7.34405L7.22831 5.61887L7.59638 5.26627C7.93203 4.94462 7.96444 4.8794 7.96444 4.52542C7.96444 4.0234 7.77048 3.70313 7.34044 3.49491C6.13747 2.91261 5.1577 4.63885 6.27761 5.36757L6.58012 5.56439V7.25415V8.94392L6.30375 9.11468C5.60418 9.54707 5.62535 10.5725 6.34227 10.9804L6.57907 11.1151L6.57964 12.7981L6.58012 14.4812L6.30375 14.6519C5.59343 15.091 5.6234 16.0843 6.36059 16.5338C7.06333 16.9623 7.96526 16.4332 7.96298 15.5938C7.96175 15.1736 7.82023 14.9015 7.49703 14.6982L7.23784 14.5352L7.23474 12.8048C7.23295 11.8531 7.26048 11.0744 7.2959 11.0744C7.33124 11.0744 7.97861 11.7248 8.73437 12.5198C9.49021 13.3147 10.8398 14.7256 11.7335 15.6549L13.3582 17.3447L12.9069 17.5513C12.6587 17.6649 12.1139 17.8438 11.6962 17.9487C8.90602 18.6499 6.09871 17.8956 4.02671 15.888C3.226 15.1122 2.76885 14.478 2.30893 13.5052C1.70765 12.2331 1.57182 11.588 1.57427 10.0158C1.57598 8.86004 1.60309 8.57544 1.76775 7.98002C2.60054 4.96913 4.90982 2.73712 7.92373 2.03006C8.77679 1.82991 10.894 1.85751 11.7101 2.07941ZM14.7661 3.60827C16.2992 4.82223 17.4027 6.62999 17.7375 8.47602L17.8245 8.95605L17.538 9.20759C16.9999 9.68005 16.99 10.3283 17.513 10.8513L17.8381 11.1764L17.6587 11.908C17.3491 13.1708 16.7793 14.3016 15.9634 15.2732C15.4888 15.8382 14.6134 16.6213 14.1826 16.8662L13.9496 16.9987L10.9421 13.8363L7.93464 10.6741L7.92967 10.0313L7.92462 9.38861L10.9256 6.2414C12.5761 4.51043 13.9694 3.0942 14.0216 3.0942C14.074 3.0942 14.4089 3.32554 14.7661 3.60827Z" fill="white"/>
</svg>
