<svg width="20" height="20" viewBox="0 0 20 20" fill="none" xmlns="http://www.w3.org/2000/svg">
<path d="M13.0623 2H5.87514L5.28153 5.32802L11.7655 5.344C14.9687 5.344 15.9063 6.50002 15.8751 8.42161C15.8592 9.40561 15.4375 11.0776 15.2495 11.6248C14.7495 13.0624 13.7495 14.7032 9.95353 14.7032H3.63993L3.04634 18.0312H10.2175C12.7495 18.0312 13.8271 17.7344 14.9679 17.2031C17.4992 16.0312 18.9992 13.5472 19.5927 10.2816C20.4999 5.4528 19.3759 2 13.0623 2Z" fill="#008DE4"/>
<path d="M2.7657 8.34406C0.875302 8.34406 0.609701 9.57847 0.437701 10.3121C0.203301 11.2817 0.125702 11.6721 0.125702 11.6721H7.4841C9.37531 11.6721 9.6409 10.4377 9.8121 9.70326C10.0473 8.73446 10.1249 8.34326 10.1249 8.34326H2.7657V8.34406Z" fill="#008DE4"/>
</svg>
