<svg width="20" height="20" viewBox="0 0 20 20" fill="none" xmlns="http://www.w3.org/2000/svg">
<path d="M13.0624 2H5.87515L5.28154 5.32802L11.7655 5.344C14.9687 5.344 15.9064 6.50002 15.8751 8.42161C15.8592 9.40561 15.4375 11.0776 15.2495 11.6248C14.7495 13.0624 13.7495 14.7032 9.95354 14.7032H3.63995L3.04636 18.0312H10.2175C12.7495 18.0312 13.8272 17.7344 14.9679 17.2031C17.4992 16.0312 18.9992 13.5472 19.5928 10.2816C20.4999 5.4528 19.3759 2 13.0624 2Z" fill="white"/>
<path d="M2.7657 8.344C0.875302 8.344 0.609701 9.5784 0.437701 10.312C0.203301 11.2816 0.125702 11.672 0.125702 11.672H7.4841C9.37531 11.672 9.6409 10.4376 9.8121 9.7032C10.0473 8.7344 10.1249 8.3432 10.1249 8.3432H2.7657V8.344Z" fill="white"/>
</svg>
