<svg width="20" height="20" viewBox="0 0 20 20" fill="none" xmlns="http://www.w3.org/2000/svg">
<path fill-rule="evenodd" clip-rule="evenodd" d="M10 20C15.5228 20 20 15.5228 20 10C20 4.47715 15.5228 0 10 0C4.47715 0 0 4.47715 0 10C0 15.5228 4.47715 20 10 20ZM13.0864 5.15753L13.3955 4.27908C13.4026 4.25845 13.405 4.23627 13.4026 4.21441C13.4002 4.19254 13.393 4.17164 13.3816 4.15347C13.3702 4.13528 13.355 4.12038 13.3372 4.10998C13.3194 4.09959 13.2995 4.09403 13.2794 4.09375H12.1267L11.7549 5.13282H11.2444L11.5391 4.28002C11.5463 4.25935 11.5489 4.23706 11.5466 4.21507C11.5443 4.1931 11.5371 4.17205 11.5257 4.15375C11.5143 4.13543 11.4989 4.12041 11.4811 4.10998C11.4632 4.09953 11.4432 4.09397 11.4229 4.09375H10.2703L9.91318 5.13282H6.29915C6.21812 5.13476 6.13883 5.15898 6.06868 5.20328C5.99854 5.24759 5.93979 5.31052 5.89789 5.38621L5 7.11641H11.7401C11.9637 7.11641 12.1804 7.15895 12.3902 7.2516C12.7923 7.42841 13.2638 7.83402 13.1407 8.74543C12.9465 10.2733 11.5157 12.9745 8.41992 13.017L10.0215 8.47503C10.0358 8.43204 10.0404 8.3859 10.0347 8.34058C10.0291 8.29525 10.0135 8.25209 9.98917 8.21481C9.96488 8.17753 9.93265 8.14722 9.89526 8.12652C9.85788 8.1058 9.81644 8.0953 9.77452 8.09591H7.63124L5.03727 15.0347C5.03727 15.0347 5.55642 15.1018 6.37629 15.1018L6.11368 15.8279H7.29757C7.34336 15.8285 7.38815 15.8133 7.42553 15.7845C7.4629 15.7556 7.49092 15.7145 7.50557 15.6672L7.7309 15.0432C7.81465 15.0351 7.89665 15.0252 7.97947 15.0152C8.07236 15.004 8.16627 14.9926 8.26477 14.9837L7.9701 15.8279H9.15398C9.20008 15.8289 9.24525 15.8139 9.28297 15.785C9.3207 15.7561 9.34899 15.7148 9.36371 15.6672L9.70345 14.7141C11.6457 14.232 13.7196 13.1778 14.9659 10.9654C17.4648 6.50943 14.8743 5.36116 13.0864 5.15753Z" fill="white"/>
</svg>
