<svg width="20" height="20" viewBox="0 0 20 20" fill="none" xmlns="http://www.w3.org/2000/svg">
<path d="M2.00048 18.9883V14.7471H4.48029V5.08111H2.01213V1.01165H2.37096C5.70892 1.01165 9.0236 1.02329 12.3623 1C13.104 1 13.7525 1.19725 14.4017 1.452C15.7119 1.95058 16.859 2.72721 17.7746 3.81681C18.5794 4.78093 19.1469 5.92014 19.4321 7.14313C19.919 9.27576 19.9306 11.4317 19.3155 13.541C18.5047 16.288 16.7658 18.1775 13.8806 18.8143C13.3715 18.9346 12.8504 18.9969 12.3273 19H2.40663C2.2778 18.9883 2.15042 18.9883 1.99976 18.9883H2.00048ZM9.53382 14.7354C10.1016 14.7354 10.6467 14.7704 11.1912 14.7238C11.8986 14.6539 12.5355 14.4341 13.0108 13.8198C13.417 13.2979 13.7758 12.7768 13.9497 12.1624C14.3326 10.8181 14.1819 9.45044 13.9148 8.09371C13.7641 7.28289 13.382 6.54119 12.8718 5.92688C12.5704 5.57895 12.1534 5.18446 11.7363 5.11531C11.0405 4.98794 10.2879 5.08037 9.53382 5.08037V14.7354Z" fill="white"/>
</svg>
