<svg width="20" height="20" viewBox="0 0 20 20" fill="none" xmlns="http://www.w3.org/2000/svg">
<path d="M0.190989 19.8721V15.2104H2.91658V4.58643H0.203789V0.11363H0.598189C4.26698 0.11363 7.91019 0.12643 11.5798 0.10083C12.395 0.10083 13.1078 0.31763 13.8214 0.59763C15.2614 1.14563 16.5221 1.99923 17.5285 3.19682C18.4131 4.2565 19.0368 5.50862 19.3503 6.85282C19.8854 9.19682 19.8982 11.5664 19.2221 13.8848C18.331 16.9041 16.4198 18.9808 13.2486 19.6808C12.689 19.813 12.1163 19.8814 11.5414 19.8849H0.637389C0.495789 19.8721 0.355789 19.8721 0.190189 19.8721H0.190989ZM8.47098 15.1976C9.09499 15.1976 9.69419 15.236 10.2926 15.1848C11.0702 15.108 11.7702 14.8664 12.2926 14.1912C12.739 13.6176 13.1334 13.0448 13.3246 12.3696C13.7454 10.892 13.5798 9.38882 13.2862 7.89762C13.1206 7.00643 12.7006 6.19123 12.1398 5.51603C11.8086 5.13362 11.3502 4.70003 10.8918 4.62403C10.127 4.48403 9.29978 4.58562 8.47098 4.58562V15.1976Z" fill="#C3A634"/>
</svg>
