<svg width="20" height="20" viewBox="0 0 20 20" fill="none" xmlns="http://www.w3.org/2000/svg">
<g clip-path="url(#clip0_7348_85105)">
<path d="M10.0002 4.04278C11.9037 4.04278 13.4467 3.13777 13.4467 2.02139C13.4467 0.905007 11.9037 0 10.0002 0C8.09677 0 6.55371 0.905007 6.55371 2.02139C6.55371 3.13777 8.09677 4.04278 10.0002 4.04278Z" fill="white"/>
<path d="M10.0002 19.2733C11.9037 19.2733 13.4467 18.3682 13.4467 17.2519C13.4467 16.1355 11.9037 15.2305 10.0002 15.2305C8.09677 15.2305 6.55371 16.1355 6.55371 17.2519C6.55371 18.3682 8.09677 19.2733 10.0002 19.2733Z" fill="white"/>
<path d="M5.19739 6.84102C6.14912 5.17872 6.14294 3.37835 5.18359 2.81978C4.22424 2.26121 2.675 3.15596 1.72326 4.81826C0.771532 6.48056 0.777709 8.28093 1.73706 8.8395C2.69641 9.39807 4.24565 8.50332 5.19739 6.84102Z" fill="white"/>
<path d="M18.2761 14.4549C19.2278 12.7926 19.2222 10.9925 18.2635 10.4343C17.3048 9.87615 15.7561 10.7712 14.8043 12.4335C13.8526 14.0958 13.8582 15.8959 14.8169 16.4541C15.7757 17.0122 17.3244 16.1172 18.2761 14.4549Z" fill="white"/>
<path d="M5.18456 16.4537C6.14392 15.8951 6.15009 14.0947 5.19836 12.4324C4.24663 10.7701 2.69739 9.87536 1.73804 10.4339C0.778685 10.9925 0.772508 12.7929 1.72424 14.4552C2.67597 16.1175 4.22521 17.0122 5.18456 16.4537Z" fill="white"/>
<path d="M18.2644 8.84009C19.2231 8.2819 19.2288 6.48183 18.2771 4.81953C17.3253 3.15722 15.7766 2.26217 14.8179 2.82036C13.8592 3.37855 13.8536 5.17862 14.8053 6.84092C15.757 8.50322 17.3057 9.39828 18.2644 8.84009Z" fill="white"/>
</g>
<defs>
<clipPath id="clip0_7348_85105">
<rect width="20" height="20" fill="white"/>
</clipPath>
</defs>
</svg>
