<svg width="24" height="24" viewBox="0 0 24 24" fill="none" xmlns="http://www.w3.org/2000/svg">
<g clip-path="url(#clip0_466_22816)">
<path d="M12.0006 4.85134C14.2847 4.85134 16.1364 3.76533 16.1364 2.42567C16.1364 1.08601 14.2847 0 12.0006 0C9.71642 0 7.86475 1.08601 7.86475 2.42567C7.86475 3.76533 9.71642 4.85134 12.0006 4.85134Z" fill="#1D1D22"/>
<path d="M12.0006 23.1283C14.2847 23.1283 16.1364 22.0423 16.1364 20.7026C16.1364 19.363 14.2847 18.277 12.0006 18.277C9.71642 18.277 7.86475 19.363 7.86475 20.7026C7.86475 22.0423 9.71642 23.1283 12.0006 23.1283Z" fill="#1D1D22"/>
<path d="M6.23686 8.20903C7.37894 6.21427 7.37153 4.05383 6.22031 3.38354C5.06909 2.71326 3.21 3.78696 2.06792 5.78172C0.925838 7.77648 0.933251 9.93693 2.08447 10.6072C3.2357 11.2775 5.09479 10.2038 6.23686 8.20903Z" fill="#1D1D22"/>
<path d="M21.9313 17.3464C23.0734 15.3517 23.0666 13.1916 21.9162 12.5218C20.7657 11.8519 18.9073 12.926 17.7652 14.9208C16.6231 16.9155 16.6299 19.0756 17.7803 19.7454C18.9308 20.4153 20.7892 19.3412 21.9313 17.3464Z" fill="#1D1D22"/>
<path d="M6.22079 19.7449C7.37201 19.0746 7.37943 16.9141 6.23735 14.9194C5.09527 12.9246 3.23618 11.8509 2.08496 12.5212C0.933738 13.1915 0.926326 15.3519 2.0684 17.3467C3.21048 19.3415 5.06957 20.4152 6.22079 19.7449Z" fill="#1D1D22"/>
<path d="M21.9171 10.6078C23.0676 9.93793 23.0744 7.77785 21.9323 5.78309C20.7902 3.78833 18.9317 2.71426 17.7813 3.38409C16.6309 4.05392 16.6241 6.214 17.7662 8.20876C18.9082 10.2035 20.7667 11.2776 21.9171 10.6078Z" fill="#1D1D22"/>
</g>
<defs>
<clipPath id="clip0_466_22816">
<rect width="24" height="24" fill="white"/>
</clipPath>
</defs>
</svg>
