<svg width="24" height="24" viewBox="0 0 24 24" fill="none" xmlns="http://www.w3.org/2000/svg">
<path fill-rule="evenodd" clip-rule="evenodd" d="M9.10692 0.251641C10.82 0.647397 12.7766 1.5532 14.7131 2.84711C15.7202 3.52006 16.284 4.00685 17.8309 5.53929C20.0769 7.76425 20.7408 8.61162 21.4974 10.2187C22.2322 11.7792 22.3635 13.8493 21.8228 15.349C20.7518 18.3197 17.4756 21.0599 13.452 22.3502C12.7993 22.5595 11.9522 22.8542 11.5695 23.005C9.86991 23.675 8.26551 24 6.65774 24C4.38905 24 3.12853 23.33 2.25622 21.6607C1.4337 20.0867 1.08813 18.1524 1.01409 14.7074C0.901883 9.49089 1.46113 5.85186 2.64522 4.09233C2.83544 3.80967 3.05926 3.37664 3.14265 3.13007C3.58124 1.83318 4.39979 0.736745 5.21575 0.353213C6.13706 -0.0798129 7.51604 -0.11589 9.10692 0.251641ZM5.91354 0.999324C5.3531 1.20466 4.90338 1.57994 4.60263 2.09317C4.45812 2.33975 4.35774 2.55939 4.37961 2.58126C4.40137 2.60312 4.59697 2.57977 4.81403 2.52948C5.03119 2.47909 5.37039 2.43685 5.56777 2.43556C5.81475 2.43387 6.04413 2.33995 6.30244 2.13471C6.50906 1.97053 6.90342 1.76927 7.17892 1.68747C7.82106 1.49675 9.369 1.49705 10.2706 1.68807C10.6495 1.76838 10.9723 1.82115 10.988 1.80545C11.0611 1.7325 9.11258 1.10308 8.44441 0.983919C7.47987 0.811782 6.40749 0.818341 5.91354 0.999324ZM7.89222 2.40604C7.37541 2.47958 7.41864 2.59447 8.01317 2.72696C10.071 3.18572 13.1378 4.8246 15.0727 6.49946C17.4869 8.58936 18.9079 10.7 19.3806 12.8984L19.5045 13.4747L19.6431 13.1468C19.8706 12.6088 19.8273 10.8759 19.5655 10.0362C19.0167 8.27559 18.0002 6.82535 16.5142 5.6829C13.6666 3.49362 10.011 2.1044 7.89222 2.40604ZM4.71186 3.4326C4.54787 3.4804 4.26184 3.64648 4.07628 3.80152C3.77812 4.05068 3.7178 4.18694 3.55788 4.97279C3.19125 6.77317 3.04883 8.94337 3.1017 11.9246C3.15507 14.9386 3.29262 16.1685 3.73419 17.5803C3.99359 18.4099 4.2354 18.8414 4.12926 18.2853C3.68669 15.966 3.56255 13.0929 3.76878 9.93684C3.93814 7.34444 4.34343 5.22294 4.90308 3.9994C5.24725 3.24705 5.2563 3.27368 4.71186 3.4326ZM5.99831 3.77538C5.45795 4.69739 5.07412 6.04765 4.80777 7.96372C4.60164 9.44637 4.50533 14.2645 4.65054 15.8307C4.79037 17.3392 5.15612 19.0968 5.48349 19.8341C5.71268 20.3502 5.76386 20.3989 6.21478 20.5298C6.92867 20.737 9.28134 20.7086 10.1781 20.482C12.9915 19.7709 15.5162 18.4483 17.321 16.7399C18.3962 15.7222 18.5762 15.3642 18.5762 14.2446C18.5762 13.2122 18.3204 12.1498 17.8469 11.2153C16.1789 7.92416 11.8587 4.61848 7.85654 3.57104C6.48461 3.21206 6.31774 3.23045 5.99831 3.77538ZM2.13875 8.66966C1.94047 10.2997 1.85907 11.8107 1.85907 13.8626C1.85907 18.0627 2.36962 20.6236 3.48871 22.0364C4.13552 22.8532 5.67183 23.2962 7.34559 23.1488L8.19038 23.0744L7.46307 22.8417C6.61014 22.5686 5.99006 22.1684 5.53557 21.5974C5.35588 21.3715 5.07511 21.0707 4.91182 20.9287C3.40175 19.6162 2.8747 18.4631 2.40918 15.4528C2.26894 14.546 2.23187 13.6783 2.22978 11.2537C2.22839 9.57278 2.22024 8.19758 2.2117 8.19758C2.20315 8.19758 2.17035 8.40996 2.13875 8.66966ZM20.6634 11.7049C20.6634 12.2939 20.6 12.9706 20.5141 13.3007C20.3549 13.9119 19.6918 15.3165 19.3681 15.728C19.2605 15.8646 19.1726 16.0413 19.1726 16.1207C19.1726 16.5648 18.0996 18.3394 17.2688 19.2691C16.2892 20.3655 17.8874 19.2113 19.1334 17.9225C19.9797 17.0472 20.4517 16.3324 20.8739 15.2872C21.1372 14.635 21.196 14.3384 21.2359 13.4597C21.2784 12.5269 21.2544 12.3152 21.02 11.5465C20.875 11.0711 20.7354 10.6822 20.7099 10.6822C20.6843 10.6822 20.6634 11.1424 20.6634 11.7049ZM16.1347 18.8157C15.4222 19.3314 13.6305 20.2381 12.4795 20.6655C10.8532 21.2692 9.49393 21.5318 7.95285 21.5402L6.62206 21.5473L7.07507 21.7775C7.69742 22.0939 8.30944 22.2156 9.31961 22.224C10.862 22.2368 11.7126 22.0524 12.8853 21.4511C14.0917 20.8326 15.2122 20.0612 15.9958 19.3099C16.9637 18.3816 17.0222 18.1734 16.1347 18.8157Z" fill="#1D1D22"/>
</svg>
