<svg width="20" height="20" viewBox="0 0 20 20" fill="none" xmlns="http://www.w3.org/2000/svg">
<path fill-rule="evenodd" clip-rule="evenodd" d="M7.58877 0.209701C9.01637 0.539498 10.6468 1.29434 12.2606 2.3726C13.0998 2.93338 13.5697 3.33904 14.8587 4.61608C16.7304 6.47021 17.2837 7.17635 17.9142 8.51558C18.5265 9.81597 18.6359 11.5411 18.1853 12.7908C17.2929 15.2664 14.5627 17.5499 11.2097 18.6252C10.6658 18.7996 9.9598 19.0451 9.64094 19.1709C8.2246 19.7292 6.8876 20 5.54779 20C3.65722 20 2.60679 19.4417 1.87986 18.0506C1.19442 16.7389 0.906452 15.127 0.84475 12.2562C0.751244 7.90908 1.21728 4.87655 2.20402 3.41027C2.36254 3.17473 2.54906 2.81387 2.61855 2.60839C2.98404 1.52765 3.66616 0.613954 4.34613 0.294344C5.11389 -0.0665107 6.26304 -0.0965747 7.58877 0.209701ZM4.92762 0.83277C4.46059 1.00388 4.08582 1.31662 3.8352 1.74431C3.71478 1.94979 3.63113 2.13283 3.64935 2.15105C3.66749 2.16927 3.83048 2.1498 4.01136 2.1079C4.19233 2.06591 4.475 2.03071 4.63948 2.02963C4.8453 2.02822 5.03645 1.94996 5.2517 1.77893C5.42389 1.64211 5.75253 1.47439 5.98211 1.40623C6.51722 1.24729 7.80717 1.24754 8.55854 1.40673C8.87425 1.47365 9.14326 1.51762 9.15634 1.50454C9.21722 1.44375 7.59349 0.919236 7.03668 0.819932C6.2329 0.676485 5.33925 0.681951 4.92762 0.83277ZM6.57652 2.00503C6.14585 2.06632 6.18188 2.16206 6.67732 2.27246C8.39215 2.65477 10.9479 4.0205 12.5602 5.41622C14.5721 7.1578 15.7563 8.91669 16.1502 10.7486L16.2534 11.2289L16.3689 10.9557C16.5585 10.5074 16.5224 9.06328 16.3043 8.36352C15.8469 6.89633 14.9998 5.68779 13.7615 4.73575C11.3885 2.91135 8.3422 1.75367 6.57652 2.00503ZM3.92622 2.8605C3.78957 2.90034 3.5512 3.03873 3.39658 3.16793C3.14811 3.37557 3.09784 3.48912 2.96458 4.14399C2.65905 5.64431 2.54036 7.45281 2.58442 9.93714C2.6289 12.4488 2.74352 13.4737 3.1115 14.6503C3.32767 15.3416 3.52917 15.7011 3.44072 15.2377C3.07191 13.305 2.96847 10.9108 3.14033 8.2807C3.28145 6.12037 3.6192 4.35245 4.08557 3.33283C4.37238 2.70587 4.37992 2.72807 3.92622 2.8605ZM4.99827 3.14615C4.54797 3.91449 4.22811 5.03971 4.00615 6.63643C3.83437 7.87197 3.75412 11.8871 3.87512 13.1923C3.99165 14.4494 4.29644 15.914 4.56925 16.5284C4.76024 16.9585 4.80289 16.9991 5.17866 17.1082C5.77356 17.2809 7.73413 17.2572 8.48143 17.0684C10.826 16.4758 12.9299 15.3736 14.4338 13.9499C15.3298 13.1018 15.4799 12.8035 15.4799 11.8705C15.4799 11.0102 15.2667 10.1248 14.8721 9.34612C13.4821 6.60347 9.88195 3.84873 6.54679 2.97587C5.40352 2.67672 5.26446 2.69204 4.99827 3.14615ZM1.78196 7.22472C1.61673 8.58308 1.5489 9.84222 1.5489 11.5522C1.5489 15.0522 1.97436 17.1863 2.90693 18.3637C3.44594 19.0443 4.7262 19.4135 6.121 19.2906L6.82499 19.2287L6.2189 19.0347C5.50812 18.8072 4.99139 18.4737 4.61265 17.9979C4.46291 17.8096 4.22894 17.5589 4.09286 17.4406C2.83446 16.3468 2.39526 15.3859 2.00732 12.8773C1.89046 12.1216 1.85957 11.3986 1.85783 9.37809C1.85667 7.97732 1.84988 6.83131 1.84275 6.83131C1.83563 6.83131 1.8083 7.0083 1.78196 7.22472ZM17.2191 9.7541C17.2191 10.2449 17.1664 10.8088 17.0947 11.0839C16.9621 11.5932 16.4095 12.7638 16.1397 13.1066C16.0501 13.2205 15.9768 13.3678 15.9768 13.4339C15.9768 13.804 15.0827 15.2828 14.3904 16.0576C13.574 16.9713 14.9058 16.0094 15.9442 14.9354C16.6494 14.206 17.0427 13.6104 17.3946 12.7393C17.614 12.1959 17.663 11.9486 17.6963 11.2164C17.7316 10.4391 17.7117 10.2626 17.5163 9.62208C17.3955 9.22594 17.2792 8.90186 17.2579 8.90186C17.2366 8.90186 17.2191 9.28533 17.2191 9.7541ZM13.4453 15.6798C12.8515 16.1095 11.3584 16.8651 10.3993 17.2212C9.04404 17.7243 7.91128 17.9432 6.62705 17.9502L5.51806 17.9561L5.89556 18.1479C6.41419 18.4116 6.92421 18.513 7.76601 18.52C9.05133 18.5307 9.7602 18.377 10.7374 17.8759C11.7428 17.3605 12.6765 16.7177 13.3295 16.0916C14.1361 15.318 14.1849 15.1445 13.4453 15.6798Z" fill="white"/>
</svg>
