<svg width="20" height="20" viewBox="0 0 20 20" fill="none" xmlns="http://www.w3.org/2000/svg">
<path fill-rule="evenodd" clip-rule="evenodd" d="M0.835064 5.21674C0.837531 11.5731 0.917709 12.301 1.81787 14.134C3.17648 16.901 6.2469 19.2901 9.21063 19.8864C9.94488 20.0341 10.1163 20.0359 10.8107 19.9027C13.0882 19.4656 15.4881 17.9489 17.1102 15.9214C17.9851 14.8279 18.5593 13.7184 18.901 12.461L19.1726 11.4614L19.209 5.73071L19.2455 0H10.0392H0.833008L0.835064 5.21674ZM16.8687 5.96199C16.8687 7.82768 16.8534 9.35416 16.8346 9.35416C16.8158 9.35416 15.0734 8.05896 12.9626 6.47595L9.1247 3.59775H8.31962C7.87679 3.59775 7.51455 3.61718 7.51455 3.64092C7.51455 3.66477 9.60021 5.24521 12.1493 7.15315L16.7841 10.6222L16.7136 11.0932C16.5848 11.9544 16.159 13.098 15.7156 13.7743C14.5282 15.5847 12.4674 17.0338 10.5889 17.3792C10.0328 17.4815 9.82615 17.474 9.26203 17.3307C7.25828 16.8217 5.3707 15.3944 4.18735 13.4935C3.76435 12.814 3.42545 11.6622 3.30631 10.4997C3.18347 9.30091 3.1625 8.01785 3.2657 8.01785C3.31741 8.01785 8.87881 12.1565 12.6191 14.9785L12.9439 15.2235L13.313 14.8994C13.516 14.7212 13.6821 14.5378 13.6821 14.492C13.6821 14.4461 11.323 12.6456 8.43968 10.4909L3.19724 6.5732V4.57151V2.56982H10.033H16.8687V5.96199Z" fill="white"/>
</svg>
