<svg width="24" height="24" viewBox="0 0 24 24" fill="none" xmlns="http://www.w3.org/2000/svg">
<path fill-rule="evenodd" clip-rule="evenodd" d="M1.00247 6.26009C1.00543 13.8878 1.10164 14.7612 2.18183 16.9608C3.81217 20.2812 7.49668 23.1481 11.0531 23.8637C11.9342 24.041 12.14 24.0431 12.9732 23.8832C15.7062 23.3587 18.5861 21.5387 20.5326 19.1057C21.5826 17.7935 22.2716 16.4621 22.6816 14.9532L23.0075 13.7537L23.0512 6.87685L23.095 0H12.0475H1L1.00247 6.26009ZM20.2428 7.15439C20.2428 9.39322 20.2245 11.225 20.2019 11.225C20.1793 11.225 18.0885 9.67076 15.5555 7.77114L10.95 4.3173H9.98394C9.45254 4.3173 9.01785 4.34062 9.01785 4.36911C9.01785 4.39773 11.5206 6.29426 14.5795 8.58378L20.1413 12.7467L20.0567 13.3118C19.9021 14.3453 19.3912 15.7176 18.8591 16.5291C17.4342 18.7017 14.9613 20.4406 12.707 20.855C12.0397 20.9778 11.7918 20.9688 11.1148 20.7968C8.71033 20.186 6.44523 18.4732 5.02521 16.1922C4.51761 15.3768 4.11092 13.9946 3.96796 12.5996C3.82056 11.1611 3.79539 9.62142 3.91924 9.62142C3.98128 9.62142 10.655 14.5878 15.1434 17.9742L15.533 18.2682L15.976 17.8793C16.2196 17.6654 16.4189 17.4454 16.4189 17.3903C16.4189 17.3353 13.588 15.1747 10.128 12.5891L3.83708 7.88784V5.48581V3.08379H12.04H20.2428V7.15439Z" fill="#1D1D22"/>
</svg>
