<svg width="20" height="20" viewBox="0 0 20 20" fill="none" xmlns="http://www.w3.org/2000/svg">
<path fill-rule="evenodd" clip-rule="evenodd" d="M15.9834 3.96872C15.9053 3.89061 15.8584 3.81249 15.8584 3.70312C15.8584 3.59374 15.9053 3.51563 15.9834 3.43751C16.1396 3.29687 16.3896 3.29687 16.5615 3.43751C16.6396 3.51563 16.6865 3.59374 16.6865 3.70312C16.6865 3.81249 16.6396 3.89061 16.5615 3.96872C16.4834 4.03122 16.374 4.0781 16.2803 4.0781C16.1709 4.09372 16.0615 4.06248 15.9834 3.96872Z" fill="white"/>
<path fill-rule="evenodd" clip-rule="evenodd" d="M14.9834 5.04685C14.9209 4.96871 14.874 4.89059 14.874 4.78122C14.874 4.67184 14.9209 4.59373 14.9834 4.51561C15.124 4.375 15.374 4.375 15.5146 4.51561C15.5771 4.59373 15.624 4.67184 15.624 4.78122C15.624 4.89059 15.5771 4.96871 15.5146 5.04685C15.4365 5.10935 15.3584 5.1562 15.249 5.1562C15.1396 5.1562 15.0615 5.10935 14.9834 5.04685Z" fill="white"/>
<path fill-rule="evenodd" clip-rule="evenodd" d="M13.8897 6.0781C13.8272 6.0156 13.7803 5.92187 13.7803 5.81249C13.7803 5.70311 13.8272 5.625 13.8897 5.54689C14.0303 5.40625 14.2802 5.40625 14.4209 5.54689C14.4834 5.60938 14.5302 5.70311 14.5302 5.81249C14.5302 5.92187 14.4834 5.99998 14.4209 6.0781C14.3427 6.15624 14.2646 6.18747 14.1553 6.18747C14.0459 6.18747 13.9521 6.14059 13.8897 6.0781Z" fill="white"/>
<path fill-rule="evenodd" clip-rule="evenodd" d="M12.8428 7.12498C12.7646 7.06248 12.7178 6.96872 12.7178 6.85937C12.7178 6.75 12.7646 6.67185 12.8428 6.59374C12.999 6.45313 13.249 6.45313 13.4209 6.59374C13.499 6.65624 13.5458 6.75 13.5458 6.85937C13.5458 6.96872 13.499 7.06248 13.4209 7.12498C13.3427 7.20309 13.2334 7.23435 13.1396 7.23435C13.0303 7.23435 12.9365 7.21871 12.8428 7.12498Z" fill="white"/>
<path fill-rule="evenodd" clip-rule="evenodd" d="M11.8437 8.17282C11.7656 8.11033 11.7344 8.0166 11.7344 7.90722C11.7344 7.79784 11.7812 7.71973 11.8437 7.64161C11.9844 7.50097 12.2343 7.50097 12.375 7.64161C12.4531 7.70411 12.4843 7.79784 12.4843 7.90722C12.4843 8.0166 12.4375 8.11033 12.375 8.17282C12.3125 8.25097 12.2187 8.2822 12.1094 8.2822C12.0156 8.29785 11.9062 8.26658 11.8437 8.17282Z" fill="white"/>
<path fill-rule="evenodd" clip-rule="evenodd" d="M10.6406 8.95214C10.6406 8.84277 10.6875 8.76465 10.75 8.68651C10.8906 8.5459 11.1406 8.5459 11.2812 8.68651C11.3594 8.76465 11.3906 8.84277 11.3906 8.95214C11.3906 9.06149 11.3437 9.13964 11.2812 9.21775C11.2187 9.28025 11.125 9.32713 11.0156 9.32713C10.9062 9.32713 10.8281 9.28025 10.75 9.21775C10.6719 9.15525 10.6406 9.06149 10.6406 8.95214Z" fill="white"/>
<path fill-rule="evenodd" clip-rule="evenodd" d="M8.6875 11.2646C8.625 11.2021 8.57812 11.1084 8.57812 10.999C8.57812 10.8896 8.625 10.8115 8.6875 10.7334C8.82811 10.5928 9.0781 10.5928 9.21874 10.7334C9.29685 10.8115 9.32809 10.8896 9.32809 10.999C9.32809 11.1084 9.28124 11.1865 9.21874 11.2646C9.15624 11.3427 9.06248 11.374 8.95311 11.374C8.85938 11.3896 8.76562 11.3584 8.6875 11.2646Z" fill="white"/>
<path fill-rule="evenodd" clip-rule="evenodd" d="M7.60937 12.3125C7.53125 12.25 7.48438 12.1562 7.48438 12.0468C7.48438 11.9375 7.53125 11.8594 7.60937 11.7812C7.76562 11.6406 8.01561 11.6406 8.18749 11.7812C8.2656 11.8594 8.31248 11.9375 8.31248 12.0468C8.31248 12.1562 8.2656 12.2343 8.18749 12.3125C8.10934 12.3906 7.99999 12.4218 7.90624 12.4218C7.78124 12.4375 7.68748 12.3906 7.60937 12.3125Z" fill="white"/>
<path fill-rule="evenodd" clip-rule="evenodd" d="M6.59375 13.374C6.53125 13.3115 6.48438 13.2177 6.48438 13.1084C6.48438 12.999 6.53125 12.9053 6.59375 12.8428C6.73436 12.7022 6.98435 12.7022 7.12499 12.8428C7.18749 12.9053 7.23434 12.999 7.23434 13.1084C7.23434 13.2177 7.18749 13.2959 7.12499 13.374C7.04685 13.4521 6.96873 13.4834 6.85936 13.4834C6.75001 13.4834 6.68751 13.4365 6.59375 13.374Z" fill="white"/>
<path fill-rule="evenodd" clip-rule="evenodd" d="M5.54688 14.4209C5.46876 14.3584 5.4375 14.2646 5.4375 14.1552C5.4375 14.0459 5.48438 13.9678 5.54688 13.8896C5.68749 13.749 5.93748 13.749 6.07811 13.8896C6.14061 13.9678 6.18746 14.0459 6.18746 14.1552C6.18746 14.2646 6.14061 14.3584 6.07811 14.4209C5.99997 14.499 5.92186 14.5302 5.81248 14.5302C5.71875 14.5302 5.60937 14.499 5.54688 14.4209Z" fill="white"/>
<path fill-rule="evenodd" clip-rule="evenodd" d="M4.46874 15.4687C4.39063 15.4062 4.34375 15.3125 4.34375 15.2031C4.34375 15.0937 4.39063 15.0156 4.46874 14.9375C4.625 14.7969 4.87499 14.7969 5.0156 14.9375C5.09371 15.0156 5.14059 15.0937 5.14059 15.2031C5.14059 15.3125 5.09371 15.4062 5.0156 15.4687C4.93748 15.5312 4.82811 15.5781 4.73438 15.5781C4.625 15.5781 4.53124 15.5468 4.46874 15.4687Z" fill="white"/>
<path fill-rule="evenodd" clip-rule="evenodd" d="M3.43747 16.5166C3.35936 16.4384 3.32812 16.3603 3.32812 16.2509C3.32812 16.1416 3.37498 16.0635 3.43747 15.9853C3.57811 15.8447 3.8281 15.8447 3.96871 15.9853C4.04682 16.0635 4.07809 16.1416 4.07809 16.2509C4.07809 16.3603 4.03121 16.4384 3.96871 16.5166C3.90621 16.5791 3.81245 16.6259 3.70311 16.6259C3.62496 16.6416 3.53123 16.5947 3.43747 16.5166Z" fill="white"/>
<path fill-rule="evenodd" clip-rule="evenodd" d="M3.96871 3.96872C4.03121 3.89061 4.07809 3.81249 4.07809 3.70312C4.07809 3.59374 4.03121 3.51563 3.96871 3.43751C3.8281 3.29687 3.57811 3.29687 3.43747 3.43751C3.35936 3.51563 3.32812 3.59374 3.32812 3.70312C3.32812 3.81249 3.37498 3.89061 3.43747 3.96872C3.49997 4.03122 3.59373 4.0781 3.70311 4.0781C3.81245 4.09372 3.90621 4.06248 3.96871 3.96872Z" fill="white"/>
<path fill-rule="evenodd" clip-rule="evenodd" d="M5.01558 5.04685C5.0937 4.96871 5.14058 4.89059 5.14058 4.78122C5.14058 4.67184 5.0937 4.59373 5.01558 4.51561C4.85936 4.375 4.60934 4.375 4.43749 4.51561C4.35935 4.59373 4.3125 4.67184 4.3125 4.78122C4.3125 4.89059 4.35935 4.96871 4.43749 5.04685C4.51561 5.10935 4.62498 5.1562 4.71872 5.1562C4.82809 5.14058 4.93747 5.10935 5.01558 5.04685Z" fill="white"/>
<path fill-rule="evenodd" clip-rule="evenodd" d="M6.07811 6.0781C6.14061 6.0156 6.18746 5.92187 6.18746 5.81249C6.18746 5.70311 6.14061 5.625 6.07811 5.54689C5.93748 5.40625 5.68749 5.40625 5.54688 5.54689C5.48438 5.60938 5.4375 5.70311 5.4375 5.81249C5.4375 5.92187 5.48438 5.99998 5.54688 6.0781C5.62499 6.15624 5.7031 6.18747 5.81248 6.18747C5.90624 6.18747 5.99997 6.14059 6.07811 6.0781Z" fill="white"/>
<path fill-rule="evenodd" clip-rule="evenodd" d="M7.12499 7.12498C7.18749 7.06248 7.23434 6.96872 7.23434 6.85937C7.23434 6.75 7.18749 6.67185 7.12499 6.59374C6.98435 6.45313 6.73436 6.45313 6.59375 6.59374C6.53125 6.65624 6.48438 6.75 6.48438 6.85937C6.48438 6.96872 6.53125 7.06248 6.59375 7.12498C6.67186 7.20309 6.75001 7.23435 6.85936 7.23435C6.95311 7.23435 7.04685 7.21871 7.12499 7.12498Z" fill="white"/>
<path fill-rule="evenodd" clip-rule="evenodd" d="M8.15622 8.17282C8.23434 8.11033 8.28122 8.0166 8.28122 7.90722C8.28122 7.79784 8.23434 7.71973 8.15622 7.64161C8.01561 7.50097 7.74998 7.50097 7.60937 7.64161C7.53125 7.70411 7.48438 7.79784 7.48438 7.90722C7.48438 8.0166 7.53125 8.11033 7.60937 8.17282C7.68748 8.25097 7.79686 8.2822 7.89062 8.2822C7.98435 8.29785 8.09373 8.26658 8.15622 8.17282Z" fill="white"/>
<path fill-rule="evenodd" clip-rule="evenodd" d="M9.32809 8.95214C9.32809 8.84277 9.28124 8.76465 9.21874 8.68651C9.0781 8.5459 8.82811 8.5459 8.6875 8.68651C8.60939 8.76465 8.57812 8.84277 8.57812 8.95214C8.57812 9.06149 8.625 9.13964 8.6875 9.21775C8.75 9.28025 8.84373 9.32713 8.95311 9.32713C9.06248 9.32713 9.1406 9.28025 9.21874 9.21775C9.29685 9.15525 9.32809 9.06149 9.32809 8.95214Z" fill="white"/>
<path fill-rule="evenodd" clip-rule="evenodd" d="M10.2646 10.2822C10.3428 10.2041 10.374 10.1259 10.374 10.0166C10.374 9.90722 10.3271 9.82908 10.2646 9.75097C10.124 9.61035 9.87401 9.61035 9.7334 9.75097C9.65529 9.82908 9.62402 9.90722 9.62402 10.0166C9.62402 10.1259 9.6709 10.2041 9.7334 10.2822C9.7959 10.3447 9.88963 10.3916 9.999 10.3916C10.1084 10.3916 10.2021 10.3447 10.2646 10.2822Z" fill="white"/>
<path fill-rule="evenodd" clip-rule="evenodd" d="M11.3125 11.2646C11.3906 11.2021 11.4375 11.1084 11.4375 10.999C11.4375 10.8896 11.3906 10.8115 11.3125 10.7334C11.1562 10.5928 10.9062 10.5928 10.7656 10.7334C10.6875 10.8115 10.6406 10.8896 10.6406 10.999C10.6406 11.1084 10.6875 11.1865 10.7656 11.2646C10.8437 11.3427 10.9531 11.374 11.0468 11.374C11.125 11.3896 11.2343 11.3584 11.3125 11.2646Z" fill="white"/>
<path fill-rule="evenodd" clip-rule="evenodd" d="M12.375 12.3125C12.4375 12.25 12.4843 12.1562 12.4843 12.0468C12.4843 11.9375 12.4375 11.8594 12.375 11.7812C12.2343 11.6406 11.9844 11.6406 11.8437 11.7812C11.7812 11.8594 11.7344 11.9375 11.7344 12.0468C11.7344 12.1562 11.7812 12.2343 11.8437 12.3125C11.9219 12.3906 12 12.4218 12.1094 12.4218C12.1875 12.4375 12.2968 12.3906 12.375 12.3125Z" fill="white"/>
<path fill-rule="evenodd" clip-rule="evenodd" d="M13.4209 13.374C13.4834 13.3115 13.5302 13.2177 13.5302 13.1084C13.5302 12.999 13.4834 12.9053 13.4209 12.8428C13.2802 12.7022 13.0303 12.7022 12.8897 12.8428C12.8272 12.9053 12.7803 12.999 12.7803 13.1084C12.7803 13.2177 12.8272 13.2959 12.8897 13.374C12.9678 13.4521 13.0459 13.4834 13.1553 13.4834C13.2646 13.4834 13.3427 13.4365 13.4209 13.374Z" fill="white"/>
<path fill-rule="evenodd" clip-rule="evenodd" d="M14.4052 14.4209C14.4834 14.3584 14.5146 14.2646 14.5146 14.1552C14.5146 14.0459 14.4677 13.9678 14.4052 13.8896C14.2646 13.749 14.0146 13.749 13.874 13.8896C13.8115 13.9678 13.7646 14.0459 13.7646 14.1552C13.7646 14.2646 13.8115 14.3584 13.874 14.4209C13.9521 14.499 14.0303 14.5302 14.1396 14.5302C14.2334 14.5302 14.3427 14.499 14.4052 14.4209Z" fill="white"/>
<path fill-rule="evenodd" clip-rule="evenodd" d="M15.5146 15.4687C15.5928 15.4062 15.624 15.3125 15.624 15.2031C15.624 15.0937 15.5771 15.0156 15.5146 14.9375C15.374 14.7969 15.124 14.7969 14.9834 14.9375C14.9053 15.0156 14.874 15.0937 14.874 15.2031C14.874 15.3125 14.9209 15.4062 14.9834 15.4687C15.0459 15.5312 15.1396 15.5781 15.249 15.5781C15.3584 15.5781 15.4521 15.5468 15.5146 15.4687Z" fill="white"/>
<path fill-rule="evenodd" clip-rule="evenodd" d="M16.5625 16.5166C16.6406 16.4384 16.6875 16.3603 16.6875 16.2509C16.6875 16.1416 16.6406 16.0635 16.5625 15.9853C16.4062 15.8447 16.1562 15.8447 16.0156 15.9853C15.9375 16.0635 15.8906 16.1416 15.8906 16.2509C15.8906 16.3603 15.9375 16.4384 16.0156 16.5166C16.0937 16.5791 16.2031 16.6259 16.2968 16.6259C16.375 16.6416 16.4687 16.5947 16.5625 16.5166Z" fill="white"/>
<path fill-rule="evenodd" clip-rule="evenodd" d="M6.45305 4.26546C7.51549 3.56235 8.68732 3.23425 9.98416 3.21863C11.2497 3.21863 12.4216 3.56235 13.5153 4.26546L15.7652 2.01555C13.9996 0.671848 12.0934 0 9.98416 0C7.87486 0 5.93743 0.671848 4.21875 2.01555L6.45305 4.26546Z" fill="white"/>
<path fill-rule="evenodd" clip-rule="evenodd" d="M4.20296 13.4997C3.48424 12.4059 3.14052 11.2497 3.14052 9.99978C3.14052 8.73419 3.48424 7.56237 4.20296 6.49992L1.96867 4.26562C0.656231 5.9843 0 7.8905 0 10.0154C0 12.1091 0.656231 14.0309 1.98431 15.7808L4.20296 13.4997Z" fill="white"/>
<path fill-rule="evenodd" clip-rule="evenodd" d="M13.4986 15.7344C12.4362 16.4531 11.2644 16.8281 9.99879 16.8437C8.70198 16.8437 7.51451 16.5 6.45206 15.75L4.20215 17.9843C5.93644 19.3436 7.87387 20.0155 9.99879 19.9998C12.1081 19.9842 14.0143 19.2968 15.7329 17.9843L13.4986 15.7344Z" fill="white"/>
<path fill-rule="evenodd" clip-rule="evenodd" d="M15.7021 6.46868C16.4209 7.56239 16.7959 8.74983 16.7646 10.031C16.749 11.281 16.3896 12.4216 15.7021 13.4684L17.9521 15.7027C19.2801 13.984 19.9676 12.0778 19.9676 9.98415C19.9833 7.85925 19.3114 5.92182 17.9521 4.1875L15.7021 6.46868Z" fill="white"/>
<path fill-rule="evenodd" clip-rule="evenodd" d="M18.0458 16.4385C18.9052 16.4385 19.6239 17.1416 19.6239 18.0165C19.6239 18.8759 18.9208 19.5946 18.0458 19.5946C17.1865 19.5946 16.4678 18.8915 16.4678 18.0165C16.4678 17.1416 17.1709 16.4385 18.0458 16.4385Z" fill="white"/>
<path fill-rule="evenodd" clip-rule="evenodd" d="M1.95305 16.4385C2.81239 16.4385 3.5155 17.1416 3.5155 18.0165C3.5155 18.8759 2.81239 19.5946 1.95305 19.5946C1.09371 19.5946 0.390625 18.8915 0.390625 18.0165C0.390625 17.1416 1.09371 16.4385 1.95305 16.4385Z" fill="white"/>
<path fill-rule="evenodd" clip-rule="evenodd" d="M18.0771 0.34375C18.9364 0.34375 19.6395 1.04683 19.6395 1.92182C19.6395 2.79677 18.9364 3.49989 18.0771 3.49989C17.2178 3.49989 16.5146 2.79677 16.5146 1.92182C16.5146 1.04683 17.2178 0.34375 18.0771 0.34375Z" fill="white"/>
<path fill-rule="evenodd" clip-rule="evenodd" d="M1.92182 0.34375C2.78115 0.34375 3.49988 1.04683 3.49988 1.90617C3.49988 2.76551 2.79677 3.46862 1.92182 3.46862C1.06248 3.46862 0.34375 2.76551 0.34375 1.90617C0.34375 1.04683 1.04683 0.34375 1.92182 0.34375Z" fill="white"/>
</svg>
