<svg width="24" height="24" viewBox="0 0 24 24" fill="none" xmlns="http://www.w3.org/2000/svg">
<path fill-rule="evenodd" clip-rule="evenodd" d="M19.1803 4.76281C19.0865 4.66907 19.0303 4.57533 19.0303 4.44408C19.0303 4.31283 19.0865 4.21909 19.1803 4.12536C19.3678 3.95659 19.6678 3.95659 19.874 4.12536C19.9677 4.21909 20.024 4.31283 20.024 4.44408C20.024 4.57533 19.9677 4.66907 19.874 4.76281C19.7802 4.8378 19.649 4.89406 19.5365 4.89406C19.4053 4.9128 19.274 4.87532 19.1803 4.76281Z" fill="#1D1D22"/>
<path fill-rule="evenodd" clip-rule="evenodd" d="M17.9799 6.05664C17.9049 5.96286 17.8486 5.86913 17.8486 5.73788C17.8486 5.60662 17.9049 5.51289 17.9799 5.41915C18.1486 5.25042 18.4486 5.25042 18.6174 5.41915C18.6924 5.51289 18.7486 5.60662 18.7486 5.73788C18.7486 5.86913 18.6924 5.96286 18.6174 6.05664C18.5236 6.13163 18.4299 6.18785 18.2986 6.18785C18.1674 6.18785 18.0736 6.13163 17.9799 6.05664Z" fill="#1D1D22"/>
<path fill-rule="evenodd" clip-rule="evenodd" d="M16.6679 7.29345C16.5929 7.21845 16.5366 7.10597 16.5366 6.97472C16.5366 6.84347 16.5929 6.74973 16.6679 6.65599C16.8366 6.48723 17.1366 6.48723 17.3054 6.65599C17.3804 6.73099 17.4366 6.84347 17.4366 6.97472C17.4366 7.10597 17.3804 7.19971 17.3054 7.29345C17.2116 7.38722 17.1178 7.4247 16.9866 7.4247C16.8553 7.4247 16.7429 7.36844 16.6679 7.29345Z" fill="#1D1D22"/>
<path fill-rule="evenodd" clip-rule="evenodd" d="M15.4112 8.55041C15.3175 8.47541 15.2612 8.3629 15.2612 8.23169C15.2612 8.10043 15.3175 8.00666 15.4112 7.91293C15.5987 7.74419 15.8987 7.74419 16.1049 7.91293C16.1987 7.98792 16.2549 8.10043 16.2549 8.23169C16.2549 8.3629 16.1987 8.47541 16.1049 8.55041C16.0112 8.64415 15.8799 8.68166 15.7675 8.68166C15.6362 8.68166 15.5237 8.66289 15.4112 8.55041Z" fill="#1D1D22"/>
<path fill-rule="evenodd" clip-rule="evenodd" d="M14.2123 9.80736C14.1185 9.73237 14.0811 9.61989 14.0811 9.48864C14.0811 9.35739 14.1373 9.26365 14.2123 9.16991C14.381 9.00114 14.681 9.00114 14.8498 9.16991C14.9435 9.24491 14.981 9.35739 14.981 9.48864C14.981 9.61989 14.9248 9.73237 14.8498 9.80736C14.7748 9.90113 14.6623 9.93862 14.531 9.93862C14.4185 9.95739 14.2873 9.91987 14.2123 9.80736Z" fill="#1D1D22"/>
<path fill-rule="evenodd" clip-rule="evenodd" d="M12.769 10.7423C12.769 10.6111 12.8253 10.5173 12.9003 10.4235C13.069 10.2548 13.369 10.2548 13.5378 10.4235C13.6315 10.5173 13.669 10.6111 13.669 10.7423C13.669 10.8735 13.6128 10.9673 13.5378 11.061C13.4628 11.136 13.3503 11.1923 13.219 11.1923C13.0878 11.1923 12.994 11.136 12.9003 11.061C12.8065 10.986 12.769 10.8735 12.769 10.7423Z" fill="#1D1D22"/>
<path fill-rule="evenodd" clip-rule="evenodd" d="M10.4247 13.5179C10.3497 13.4429 10.2935 13.3304 10.2935 13.1992C10.2935 13.068 10.3497 12.9742 10.4247 12.8805C10.5934 12.7117 10.8934 12.7117 11.0622 12.8805C11.1559 12.9742 11.1934 13.068 11.1934 13.1992C11.1934 13.3304 11.1372 13.4242 11.0622 13.5179C10.9872 13.6117 10.8747 13.6492 10.7434 13.6492C10.631 13.6679 10.5184 13.6305 10.4247 13.5179Z" fill="#1D1D22"/>
<path fill-rule="evenodd" clip-rule="evenodd" d="M9.13144 14.7749C9.0377 14.6999 8.98145 14.5874 8.98145 14.4561C8.98145 14.3249 9.0377 14.2312 9.13144 14.1374C9.31895 13.9687 9.61893 13.9687 9.82518 14.1374C9.91891 14.2312 9.97517 14.3249 9.97517 14.4561C9.97517 14.5874 9.91891 14.6811 9.82518 14.7749C9.73141 14.8686 9.60019 14.9061 9.48768 14.9061C9.33769 14.9249 9.22517 14.8686 9.13144 14.7749Z" fill="#1D1D22"/>
<path fill-rule="evenodd" clip-rule="evenodd" d="M7.9125 16.0486C7.8375 15.9736 7.78125 15.8611 7.78125 15.7299C7.78125 15.5986 7.8375 15.4861 7.9125 15.4111C8.08123 15.2424 8.38122 15.2424 8.54999 15.4111C8.62498 15.4861 8.6812 15.5986 8.6812 15.7299C8.6812 15.8611 8.62498 15.9548 8.54999 16.0486C8.45622 16.1423 8.36248 16.1798 8.23123 16.1798C8.10001 16.1798 8.02501 16.1236 7.9125 16.0486Z" fill="#1D1D22"/>
<path fill-rule="evenodd" clip-rule="evenodd" d="M6.65567 17.3055C6.56193 17.2305 6.52441 17.118 6.52441 16.9868C6.52441 16.8555 6.58067 16.7618 6.65567 16.6681C6.8244 16.4993 7.12438 16.4993 7.29315 16.6681C7.36815 16.7618 7.42437 16.8555 7.42437 16.9868C7.42437 17.118 7.36815 17.2305 7.29315 17.3055C7.19938 17.3993 7.10564 17.4368 6.97439 17.4368C6.86191 17.4368 6.73066 17.3993 6.65567 17.3055Z" fill="#1D1D22"/>
<path fill-rule="evenodd" clip-rule="evenodd" d="M5.36239 18.5625C5.26866 18.4875 5.2124 18.375 5.2124 18.2438C5.2124 18.1125 5.26866 18.0188 5.36239 17.925C5.5499 17.7563 5.84989 17.7563 6.01862 17.925C6.11236 18.0188 6.16861 18.1125 6.16861 18.2438C6.16861 18.375 6.11236 18.4875 6.01862 18.5625C5.92488 18.6375 5.79363 18.6938 5.68115 18.6938C5.5499 18.6938 5.43739 18.6562 5.36239 18.5625Z" fill="#1D1D22"/>
<path fill-rule="evenodd" clip-rule="evenodd" d="M4.12487 19.8195C4.03113 19.7257 3.99365 19.6319 3.99365 19.5007C3.99365 19.3695 4.04987 19.2757 4.12487 19.182C4.29364 19.0132 4.59362 19.0132 4.76235 19.182C4.85609 19.2757 4.89361 19.3695 4.89361 19.5007C4.89361 19.6319 4.83735 19.7257 4.76235 19.8195C4.68736 19.8945 4.57485 19.9507 4.44363 19.9507C4.34986 19.9695 4.23738 19.9132 4.12487 19.8195Z" fill="#1D1D22"/>
<path fill-rule="evenodd" clip-rule="evenodd" d="M4.76235 4.76281C4.83735 4.66907 4.89361 4.57533 4.89361 4.44408C4.89361 4.31283 4.83735 4.21909 4.76235 4.12536C4.59362 3.95659 4.29364 3.95659 4.12487 4.12536C4.03113 4.21909 3.99365 4.31283 3.99365 4.44408C3.99365 4.57533 4.04987 4.66907 4.12487 4.76281C4.19987 4.8378 4.31238 4.89406 4.44363 4.89406C4.57485 4.9128 4.68736 4.87532 4.76235 4.76281Z" fill="#1D1D22"/>
<path fill-rule="evenodd" clip-rule="evenodd" d="M6.01899 6.05664C6.11273 5.96286 6.16899 5.86913 6.16899 5.73788C6.16899 5.60662 6.11273 5.51289 6.01899 5.41915C5.83152 5.25042 5.5315 5.25042 5.32529 5.41915C5.23151 5.51289 5.17529 5.60662 5.17529 5.73788C5.17529 5.86913 5.23151 5.96286 5.32529 6.05664C5.41902 6.13163 5.55027 6.18785 5.66275 6.18785C5.794 6.16911 5.92526 6.13163 6.01899 6.05664Z" fill="#1D1D22"/>
<path fill-rule="evenodd" clip-rule="evenodd" d="M7.29315 7.29345C7.36815 7.21845 7.42437 7.10597 7.42437 6.97472C7.42437 6.84347 7.36815 6.74973 7.29315 6.65599C7.12438 6.48723 6.8244 6.48723 6.65567 6.65599C6.58067 6.73099 6.52441 6.84347 6.52441 6.97472C6.52441 7.10597 6.58067 7.19971 6.65567 7.29345C6.7494 7.38722 6.84314 7.4247 6.97439 7.4247C7.0869 7.4247 7.19938 7.36844 7.29315 7.29345Z" fill="#1D1D22"/>
<path fill-rule="evenodd" clip-rule="evenodd" d="M8.54999 8.55041C8.62498 8.47541 8.6812 8.3629 8.6812 8.23169C8.6812 8.10043 8.62498 8.00666 8.54999 7.91293C8.38122 7.74419 8.08123 7.74419 7.9125 7.91293C7.8375 7.98792 7.78125 8.10043 7.78125 8.23169C7.78125 8.3629 7.8375 8.47541 7.9125 8.55041C8.00624 8.64415 8.10001 8.68166 8.23123 8.68166C8.34374 8.68166 8.45622 8.66289 8.54999 8.55041Z" fill="#1D1D22"/>
<path fill-rule="evenodd" clip-rule="evenodd" d="M9.78766 9.80736C9.8814 9.73237 9.93766 9.61989 9.93766 9.48864C9.93766 9.35739 9.8814 9.26365 9.78766 9.16991C9.61893 9.00114 9.30017 9.00114 9.13144 9.16991C9.0377 9.24491 8.98145 9.35739 8.98145 9.48864C8.98145 9.61989 9.0377 9.73237 9.13144 9.80736C9.22517 9.90113 9.35643 9.93862 9.46894 9.93862C9.58141 9.95739 9.71267 9.91987 9.78766 9.80736Z" fill="#1D1D22"/>
<path fill-rule="evenodd" clip-rule="evenodd" d="M11.1934 10.7423C11.1934 10.6111 11.1372 10.5173 11.0622 10.4235C10.8934 10.2548 10.5934 10.2548 10.4247 10.4235C10.331 10.5173 10.2935 10.6111 10.2935 10.7423C10.2935 10.8735 10.3497 10.9673 10.4247 11.061C10.4997 11.136 10.6122 11.1923 10.7434 11.1923C10.8747 11.1923 10.9684 11.136 11.0622 11.061C11.1559 10.986 11.1934 10.8735 11.1934 10.7423Z" fill="#1D1D22"/>
<path fill-rule="evenodd" clip-rule="evenodd" d="M12.3176 12.338C12.4113 12.2443 12.4488 12.1505 12.4488 12.0193C12.4488 11.888 12.3926 11.7943 12.3176 11.7005C12.1488 11.5318 11.8488 11.5318 11.6801 11.7005C11.5863 11.7943 11.5488 11.888 11.5488 12.0193C11.5488 12.1505 11.6051 12.2443 11.6801 12.338C11.7551 12.413 11.8676 12.4693 11.9988 12.4693C12.1301 12.4693 12.2426 12.413 12.3176 12.338Z" fill="#1D1D22"/>
<path fill-rule="evenodd" clip-rule="evenodd" d="M13.5753 13.5179C13.669 13.4429 13.7253 13.3304 13.7253 13.1992C13.7253 13.068 13.669 12.9742 13.5753 12.8805C13.3878 12.7117 13.0878 12.7117 12.919 12.8805C12.8253 12.9742 12.769 13.068 12.769 13.1992C12.769 13.3304 12.8253 13.4242 12.919 13.5179C13.0128 13.6117 13.144 13.6492 13.2565 13.6492C13.3503 13.6679 13.4815 13.6305 13.5753 13.5179Z" fill="#1D1D22"/>
<path fill-rule="evenodd" clip-rule="evenodd" d="M14.8498 14.7749C14.9248 14.6999 14.981 14.5874 14.981 14.4561C14.981 14.3249 14.9248 14.2312 14.8498 14.1374C14.681 13.9687 14.381 13.9687 14.2123 14.1374C14.1373 14.2312 14.0811 14.3249 14.0811 14.4561C14.0811 14.5874 14.1373 14.6811 14.2123 14.7749C14.306 14.8686 14.3998 14.9061 14.531 14.9061C14.6248 14.9249 14.756 14.8686 14.8498 14.7749Z" fill="#1D1D22"/>
<path fill-rule="evenodd" clip-rule="evenodd" d="M16.1051 16.0486C16.1801 15.9736 16.2364 15.8611 16.2364 15.7299C16.2364 15.5986 16.1801 15.4861 16.1051 15.4111C15.9364 15.2424 15.6364 15.2424 15.4677 15.4111C15.3927 15.4861 15.3364 15.5986 15.3364 15.7299C15.3364 15.8611 15.3927 15.9548 15.4677 16.0486C15.5614 16.1423 15.6552 16.1798 15.7864 16.1798C15.9177 16.1798 16.0114 16.1236 16.1051 16.0486Z" fill="#1D1D22"/>
<path fill-rule="evenodd" clip-rule="evenodd" d="M17.2868 17.3055C17.3805 17.2305 17.418 17.118 17.418 16.9868C17.418 16.8555 17.3618 16.7618 17.2868 16.6681C17.118 16.4993 16.8181 16.4993 16.6493 16.6681C16.5743 16.7618 16.5181 16.8555 16.5181 16.9868C16.5181 17.118 16.5743 17.2305 16.6493 17.3055C16.7431 17.3993 16.8368 17.4368 16.968 17.4368C17.0806 17.4368 17.2118 17.3993 17.2868 17.3055Z" fill="#1D1D22"/>
<path fill-rule="evenodd" clip-rule="evenodd" d="M18.6174 18.5625C18.7111 18.4875 18.7486 18.375 18.7486 18.2438C18.7486 18.1125 18.6924 18.0188 18.6174 17.925C18.4486 17.7563 18.1486 17.7563 17.9799 17.925C17.8861 18.0188 17.8486 18.1125 17.8486 18.2438C17.8486 18.375 17.9049 18.4875 17.9799 18.5625C18.0549 18.6375 18.1674 18.6938 18.2986 18.6938C18.4299 18.6938 18.5423 18.6562 18.6174 18.5625Z" fill="#1D1D22"/>
<path fill-rule="evenodd" clip-rule="evenodd" d="M19.8751 19.8195C19.9688 19.7257 20.0251 19.6319 20.0251 19.5007C20.0251 19.3695 19.9688 19.2757 19.8751 19.182C19.6876 19.0132 19.3876 19.0132 19.2188 19.182C19.1251 19.2757 19.0688 19.3695 19.0688 19.5007C19.0688 19.6319 19.1251 19.7257 19.2188 19.8195C19.3126 19.8945 19.4438 19.9507 19.5563 19.9507C19.6501 19.9695 19.7626 19.9132 19.8751 19.8195Z" fill="#1D1D22"/>
<path fill-rule="evenodd" clip-rule="evenodd" d="M7.74415 5.11855C9.01908 4.27482 10.4253 3.8811 11.9815 3.86236C13.5002 3.86236 14.9064 4.27482 16.2188 5.11855L18.9187 2.41865C16.8001 0.806218 14.5126 0 11.9815 0C9.45032 0 7.1254 0.806218 5.06299 2.41865L7.74415 5.11855Z" fill="#1D1D22"/>
<path fill-rule="evenodd" clip-rule="evenodd" d="M5.04356 16.1991C4.18108 14.8867 3.76862 13.4992 3.76862 11.9993C3.76862 10.4806 4.18108 9.07438 5.04356 7.79944L2.3624 5.11829C0.787477 7.1807 0 9.46814 0 12.018C0 14.5304 0.787478 16.8366 2.38117 18.9365L5.04356 16.1991Z" fill="#1D1D22"/>
<path fill-rule="evenodd" clip-rule="evenodd" d="M16.1988 18.8811C14.9238 19.7436 13.5176 20.1936 11.9989 20.2123C10.4428 20.2123 9.0178 19.7998 7.74286 18.8998L5.04297 21.581C7.12412 23.2122 9.44904 24.0184 11.9989 23.9997C14.5301 23.9809 16.8175 23.156 18.8799 21.581L16.1988 18.8811Z" fill="#1D1D22"/>
<path fill-rule="evenodd" clip-rule="evenodd" d="M18.8428 7.76183C19.7052 9.07428 20.1552 10.4992 20.1177 12.0366C20.099 13.5366 19.6678 14.9053 18.8428 16.1615L21.5427 18.8426C23.1364 16.7802 23.9613 14.4928 23.9613 11.9804C23.9801 9.43052 23.1739 7.1056 21.5427 5.02441L18.8428 7.76183Z" fill="#1D1D22"/>
<path fill-rule="evenodd" clip-rule="evenodd" d="M21.6549 19.7258C22.6861 19.7258 23.5486 20.5696 23.5486 21.6195C23.5486 22.6507 22.7049 23.5132 21.6549 23.5132C20.6237 23.5132 19.7612 22.6695 19.7612 21.6195C19.7612 20.5696 20.605 19.7258 21.6549 19.7258Z" fill="#1D1D22"/>
<path fill-rule="evenodd" clip-rule="evenodd" d="M2.34414 19.7258C3.37535 19.7258 4.21908 20.5696 4.21908 21.6195C4.21908 22.6507 3.37535 23.5132 2.34414 23.5132C1.31294 23.5132 0.469238 22.6695 0.469238 21.6195C0.469238 20.5696 1.31294 19.7258 2.34414 19.7258Z" fill="#1D1D22"/>
<path fill-rule="evenodd" clip-rule="evenodd" d="M21.6928 0.412231C22.724 0.412231 23.5677 1.25593 23.5677 2.30591C23.5677 3.35586 22.724 4.1996 21.6928 4.1996C20.6616 4.1996 19.8179 3.35586 19.8179 2.30591C19.8179 1.25593 20.6616 0.412231 21.6928 0.412231Z" fill="#1D1D22"/>
<path fill-rule="evenodd" clip-rule="evenodd" d="M2.30579 0.412231C3.33699 0.412231 4.19947 1.25593 4.19947 2.28714C4.19947 3.31835 3.35573 4.16208 2.30579 4.16208C1.27458 4.16208 0.412109 3.31835 0.412109 2.28714C0.412109 1.25593 1.25581 0.412231 2.30579 0.412231Z" fill="#1D1D22"/>
</svg>
