<svg width="20" height="20" viewBox="0 0 20 20" fill="none" xmlns="http://www.w3.org/2000/svg">
<g clip-path="url(#clip0)">
<path d="M17.0142 2.1875C17.5631 2.25083 18.1186 2.28528 18.6609 2.38305C19.7353 2.58639 20.0864 3.09748 19.9042 4.13414C19.8308 4.55414 19.5597 4.81302 19.1286 4.88302C18.8717 4.91922 18.6125 4.93777 18.3531 4.93858C14.8276 4.94636 11.2943 4.95302 7.76878 4.96747C7.23545 4.96747 6.70769 5.01634 6.18881 5.1008C4.43994 5.37413 3.78217 6.06745 3.6355 7.75409C3.56884 8.54631 3.56884 8.5463 4.39661 8.5463H18.872C19.0997 8.55297 19.3186 8.59519 19.5086 8.71297C20.1531 9.1063 19.992 9.72184 19.9553 10.2896C19.9264 10.7452 19.6408 10.9963 19.1508 11.0874C18.945 11.1189 18.7369 11.133 18.5286 11.1296H4.0955C3.56217 11.1296 3.56995 11.1296 3.61328 11.634C3.64995 12.0963 3.67995 12.5518 3.79661 12.9996C4.0155 13.8329 4.54994 14.3507 5.41327 14.5818C6.37103 14.8407 7.3588 14.8973 8.34656 14.904C11.791 14.9251 15.2298 14.9184 18.6753 14.9184C19.1142 14.9184 19.5231 14.974 19.7797 15.3595C20.2775 16.1017 19.8897 17.1373 19.0186 17.4039C18.2731 17.635 17.4898 17.6906 16.7142 17.6984C13.4809 17.7539 10.2476 17.7617 7.01434 17.6984C6.01722 17.6728 5.02408 17.5627 4.0455 17.3695C1.74109 16.9139 0.592214 15.7941 0.204442 13.5807C0.116665 13.0696 0.0655547 12.5518 0 12.0396V7.99964C0.0444439 7.59966 0.0799989 7.20187 0.13222 6.80966C0.438883 4.30192 1.60998 3.06972 4.18439 2.52416C5.09883 2.3275 6.03436 2.28528 6.95658 2.19417C10.2999 2.1875 13.6554 2.1875 17.0142 2.1875Z" fill="white"/>
</g>
<defs>
<clipPath id="clip0">
<rect width="20" height="20" fill="white"/>
</clipPath>
</defs>
</svg>
