<svg width="24" height="24" viewBox="0 0 24 24" fill="none" xmlns="http://www.w3.org/2000/svg">
<path d="M9.33568 5.49832C5.18787 7.09709 4.8079 11.1915 3.61855 13.1038C2.41512 15.0387 -0.341906 16.1062 0.0351116 17.0923C0.412114 18.0783 3.17242 17.0193 5.35623 17.6484C7.51415 18.2701 10.5251 21.0578 14.6729 19.459C16.7859 18.6447 18.3159 16.9684 19.0195 14.9828C19.0951 14.7696 18.9537 14.5417 18.7292 14.5207C18.5898 14.5075 18.4558 14.5808 18.3929 14.7065C17.7565 15.9793 16.6647 17.0275 15.2359 17.5781C12.8772 18.4872 10.2963 17.7734 8.71137 15.9832C8.35138 15.5767 8.04348 15.114 7.80044 14.6026C7.73362 14.4618 7.67007 14.3187 7.61373 14.1707C7.55706 14.0227 7.50891 13.8737 7.46469 13.7241C8.71137 13.1406 10.15 12.5226 11.7809 11.8941C13.3799 11.2777 14.8354 10.7778 16.1311 10.3778C17.0076 10.1075 17.8112 9.88253 18.5366 9.69868C18.5892 9.68552 18.6408 9.67237 18.6923 9.65954C18.802 9.63224 18.9147 9.69111 18.9552 9.79702L18.956 9.79899C18.9798 9.86181 19.0005 9.92496 19.0228 9.98811C19.1662 10.3956 19.2738 10.8074 19.3447 11.2202C19.3758 11.4007 19.5724 11.4991 19.7335 11.4122C20.3291 11.0912 20.8738 10.7781 21.3605 10.4769C23.1743 9.35531 24.1798 8.40414 23.9734 7.86507C23.7674 7.32567 22.3864 7.29476 20.291 7.67957C19.6251 7.80192 18.8869 7.96637 18.0913 8.16997C17.9536 8.20514 17.8144 8.24166 17.6735 8.27915C17.004 8.45741 16.2978 8.66166 15.5625 8.89025C14.195 9.31551 12.7279 9.82498 11.2132 10.4088C9.79623 10.9551 8.45325 11.5214 7.22164 12.0858C7.20658 9.69046 8.6488 7.42599 11.0075 6.51691C12.4359 5.96634 13.9461 6.01141 15.2674 6.53007C15.3977 6.58138 15.5461 6.54586 15.6415 6.44225C15.794 6.27616 15.7472 6.01172 15.549 5.90385C13.703 4.90169 11.4488 4.68397 9.33568 5.49832Z" fill="#1D1D22"/>
</svg>
