<svg width="20" height="20" viewBox="0 0 20 20" fill="none" xmlns="http://www.w3.org/2000/svg">
<path d="M7.77974 4.58226C4.32322 5.91457 4.00658 9.32661 3.01546 10.9201C2.0126 12.5326 -0.284922 13.4222 0.0292597 14.2439C0.343428 15.0656 2.64368 14.1831 4.46352 14.7073C6.26179 15.2254 8.7709 17.5485 12.2274 16.2162C13.9882 15.5376 15.2633 14.1407 15.8496 12.486C15.9126 12.3084 15.7948 12.1184 15.6077 12.1009C15.4915 12.0899 15.3798 12.151 15.3274 12.2557C14.7971 13.3164 13.8872 14.1899 12.6966 14.6487C10.731 15.4063 8.58027 14.8115 7.25947 13.3197C6.95948 12.9809 6.7029 12.5953 6.50037 12.1691C6.44468 12.0518 6.39172 11.9326 6.34477 11.8092C6.29755 11.6859 6.25742 11.5618 6.22058 11.4371C7.25947 10.9508 8.45831 10.4358 9.81745 9.91205C11.1499 9.39842 12.3628 8.98182 13.4425 8.64853C14.173 8.42324 14.8426 8.23577 15.4472 8.08256C15.491 8.0716 15.534 8.06063 15.5769 8.04994C15.6683 8.02719 15.7622 8.07625 15.796 8.16451L15.7967 8.16615C15.8165 8.2185 15.8337 8.27112 15.8524 8.32375C15.9718 8.66334 16.0615 9.00648 16.1206 9.35046C16.1465 9.50093 16.3103 9.58288 16.4446 9.51052C16.9409 9.24302 17.3948 8.98209 17.8004 8.73103C19.3119 7.79641 20.1498 7.00378 19.9778 6.55455C19.8062 6.10505 18.6553 6.0793 16.9092 6.39997C16.3542 6.50193 15.7391 6.63896 15.076 6.80863C14.9614 6.83795 14.8453 6.86838 14.728 6.89962C14.17 7.04817 13.5815 7.21838 12.9688 7.40887C11.8292 7.76325 10.6065 8.18781 9.3443 8.6743C8.16352 9.12956 7.04438 9.60152 6.01804 10.0718C6.00548 8.07571 7.20733 6.18865 9.17291 5.43108C10.3633 4.97227 11.6217 5.00983 12.7228 5.44205C12.8314 5.4848 12.9551 5.45521 13.0346 5.36887C13.1617 5.23046 13.1227 5.0101 12.9575 4.9202C11.4192 4.08507 9.54063 3.90363 7.77974 4.58226Z" fill="white"/>
</svg>
