<svg width="24" height="24" viewBox="0 0 24 24" fill="none" xmlns="http://www.w3.org/2000/svg">
<path d="M11.2249 19.966C10.3004 20.6191 9.18537 21 8.07044 21C6.11247 21 4.31767 19.9389 2.95796 17.98C1.73424 16.1027 1.05438 13.9262 1 11.6952C1 11.6137 1.05438 11.532 1.13597 11.5048L2.46848 10.9062C2.57725 10.8518 2.68602 10.9062 2.74042 11.015C2.74042 11.0423 2.7676 11.0695 2.7676 11.0967C2.7676 13.3276 3.36587 15.4226 4.42644 16.9734C5.43262 18.4426 6.73793 19.2315 8.09764 19.2315C8.83188 19.2315 9.56612 19.0139 10.1644 18.6057C10.246 18.5513 10.3819 18.5786 10.4363 18.6601C10.7082 19.0139 10.9802 19.3403 11.2793 19.6668C11.3066 19.7485 11.3066 19.8845 11.2249 19.966ZM21.042 17.98C19.7094 19.9118 17.8875 21 15.9296 21C13.9716 21 12.1767 19.9118 10.817 17.98C9.53885 16.13 8.83188 13.6813 8.83188 11.0967C8.83188 8.70246 10.2187 6.82523 11.9591 6.82523C13.6996 6.82523 15.0865 8.70246 15.0865 11.0967C15.1137 13.1917 14.6241 15.2322 13.6452 17.0821C13.5908 17.191 13.4549 17.2182 13.3732 17.1638C13.3461 17.1638 13.3461 17.1365 13.3188 17.1094C13.1557 16.919 12.9926 16.7285 12.8566 16.5381C12.6934 16.2933 12.5575 16.0756 12.4214 15.8035C12.3943 15.7491 12.3943 15.6674 12.4214 15.613C13.047 14.1711 13.3461 12.6203 13.3461 11.0695C13.3461 9.89953 12.7478 8.56648 11.9591 8.56648C11.1705 8.56648 10.5723 9.89953 10.5723 11.0695C10.5723 13.3005 11.1705 15.3954 12.2311 16.9461C13.2373 18.4153 14.5426 19.2043 15.9023 19.2043C17.262 19.2043 18.5673 18.3882 19.5735 16.9461C20.6341 15.3954 21.2323 13.3005 21.2323 11.0695C21.2323 8.83857 20.6341 6.7436 19.5735 5.19282C19.2744 4.7303 18.8937 4.3222 18.4858 3.96852C18.4041 3.88689 18.4041 3.75086 18.4585 3.66924C18.4858 3.64203 18.5129 3.61482 18.5402 3.61482L19.8726 3.01627C19.9543 2.98906 20.0358 2.98906 20.0902 3.07069C20.4437 3.42437 20.7429 3.80528 21.0149 4.18617C22.2929 6.03623 23 8.48478 23 11.0695C23 13.6542 22.3202 16.13 21.042 17.98Z" fill="#1D1D22"/>
</svg>
