<svg width="20" height="20" viewBox="0 0 20 20" fill="none" xmlns="http://www.w3.org/2000/svg">
<path d="M9.35376 16.6384C8.58331 17.1826 7.65415 17.5 6.72504 17.5C5.0934 17.5 3.59773 16.6158 2.46464 14.9833C1.44487 13.4189 0.878324 11.6052 0.833008 9.74601C0.833008 9.67805 0.878324 9.60997 0.946316 9.58735L2.05674 9.08851C2.14738 9.04316 2.23803 9.08851 2.28336 9.17921C2.28336 9.20194 2.30601 9.22456 2.30601 9.24729C2.30601 11.1064 2.80457 12.8521 3.68838 14.1445C4.52686 15.3688 5.61462 16.0262 6.74771 16.0262C7.35957 16.0262 7.97144 15.8449 8.47004 15.5048C8.53798 15.4594 8.65124 15.4821 8.69657 15.5501C8.92321 15.8449 9.14984 16.1169 9.39909 16.389C9.42181 16.4571 9.42181 16.5704 9.35376 16.6384ZM17.5347 14.9833C16.4242 16.5931 14.9059 17.5 13.2743 17.5C11.6426 17.5 10.1469 16.5931 9.01386 14.9833C7.94872 13.4417 7.35957 11.4011 7.35957 9.24729C7.35957 7.25205 8.51526 5.68769 9.96563 5.68769C11.416 5.68769 12.5718 7.25205 12.5718 9.24729C12.5944 10.9931 12.1865 12.6935 11.3707 14.2351C11.3253 14.3258 11.2121 14.3485 11.144 14.3032C11.1214 14.3032 11.1214 14.2805 11.0987 14.2578C10.9627 14.0992 10.8269 13.9404 10.7135 13.7817C10.5775 13.5777 10.4642 13.3963 10.3509 13.1696C10.3282 13.1242 10.3282 13.0561 10.3509 13.0108C10.8722 11.8092 11.1214 10.5169 11.1214 9.22456C11.1214 8.24961 10.6228 7.13873 9.96563 7.13873C9.30843 7.13873 8.80994 8.24961 8.80994 9.22456C8.80994 11.0837 9.30843 12.8295 10.1923 14.1218C11.0308 15.3461 12.1185 16.0036 13.2516 16.0036C14.3847 16.0036 15.4724 15.3235 16.3109 14.1218C17.1948 12.8295 17.6932 11.0837 17.6932 9.22456C17.6932 7.36548 17.1948 5.61967 16.3109 4.32735C16.0617 3.94192 15.7444 3.60183 15.4045 3.3071C15.3364 3.23908 15.3364 3.12572 15.3818 3.0577C15.4045 3.03503 15.4271 3.01235 15.4498 3.01235L16.5602 2.51356C16.6282 2.49089 16.6962 2.49089 16.7415 2.55891C17.0361 2.85364 17.2854 3.17106 17.5121 3.48847C18.5771 5.03019 19.1663 7.07065 19.1663 9.22456C19.1663 11.3785 18.5998 13.4417 17.5347 14.9833Z" fill="white"/>
</svg>
