<svg width="20" height="20" viewBox="0 0 20 20" fill="none" xmlns="http://www.w3.org/2000/svg">
<g clip-path="url(#clip0_7348_85130)">
<path d="M2.59656 0.227539H0.227539V2.59656H2.59656V0.227539Z" fill="white"/>
<path d="M2.8246 2.8246H0V0H2.8246V2.8246ZM0.455581 2.36902H2.36902V0.45558H0.455581V2.36902Z" fill="white"/>
<path d="M8.51941 0.227539H6.15039V2.59656H8.51941V0.227539Z" fill="white"/>
<path d="M8.74745 2.8246H5.92285V0H8.74745V2.8246ZM6.37843 2.36902H8.29187V0.45558H6.37843V2.36902Z" fill="white"/>
<path d="M14.4413 0.227539H12.0723V2.59656H14.4413V0.227539Z" fill="white"/>
<path d="M14.6693 2.8246H11.8447V0H14.6693V2.8246ZM12.3003 2.36902H14.2137V0.45558H12.3003V2.36902Z" fill="white"/>
<path d="M2.59656 6.15039H0.227539V8.51941H2.59656V6.15039Z" fill="white"/>
<path d="M2.8246 8.74745H0V5.92285H2.8246V8.74745ZM0.455581 8.29187H2.36902V6.37843H0.455581V8.29187Z" fill="white"/>
<path d="M8.51941 6.15039H6.15039V8.51941H8.51941V6.15039Z" fill="white"/>
<path d="M8.74745 8.74745H5.92285V5.92285H8.74745V8.74745ZM6.37843 8.29187H8.29187V6.37843H6.37843V8.29187Z" fill="white"/>
<path d="M2.59656 12.0723H0.227539V14.4413H2.59656V12.0723Z" fill="white"/>
<path d="M2.8246 14.6693H0V11.8447H2.8246V14.6693ZM0.455581 14.2137H2.36902V12.3003H0.455581V14.2137Z" fill="white"/>
<path d="M19.1792 2.00482C19.5063 2.00482 19.7714 1.73966 19.7714 1.41257C19.7714 1.08547 19.5063 0.820312 19.1792 0.820312C18.8521 0.820312 18.5869 1.08547 18.5869 1.41257C18.5869 1.73966 18.8521 2.00482 19.1792 2.00482Z" fill="white"/>
<path d="M19.1794 2.23286C18.7284 2.23286 18.3594 1.86384 18.3594 1.41282C18.3594 0.961794 18.7284 0.592773 19.1794 0.592773C19.6304 0.592773 19.9995 0.961794 19.9995 1.41282C19.9995 1.86384 19.6304 2.23286 19.1794 2.23286ZM19.1794 1.04835C18.979 1.04835 18.815 1.21236 18.815 1.41282C18.815 1.61327 18.979 1.77728 19.1794 1.77728C19.3799 1.77728 19.5439 1.61327 19.5439 1.41282C19.5439 1.21236 19.3799 1.04835 19.1794 1.04835Z" fill="white"/>
<path d="M19.1792 7.9267C19.5063 7.9267 19.7714 7.66154 19.7714 7.33444C19.7714 7.00735 19.5063 6.74219 19.1792 6.74219C18.8521 6.74219 18.5869 7.00735 18.5869 7.33444C18.5869 7.66154 18.8521 7.9267 19.1792 7.9267Z" fill="white"/>
<path d="M19.1794 8.15474C18.7284 8.15474 18.3594 7.78572 18.3594 7.33469C18.3594 6.88367 18.7284 6.51465 19.1794 6.51465C19.6304 6.51465 19.9995 6.88367 19.9995 7.33469C19.9995 7.78572 19.6304 8.15474 19.1794 8.15474ZM19.1794 6.97023C18.979 6.97023 18.815 7.13424 18.815 7.33469C18.815 7.53515 18.979 7.69916 19.1794 7.69916C19.3799 7.69916 19.5439 7.53515 19.5439 7.33469C19.5439 7.13424 19.3799 6.97023 19.1794 6.97023Z" fill="white"/>
<path d="M19.1792 13.8495C19.5063 13.8495 19.7714 13.5844 19.7714 13.2573C19.7714 12.9302 19.5063 12.665 19.1792 12.665C18.8521 12.665 18.5869 12.9302 18.5869 13.2573C18.5869 13.5844 18.8521 13.8495 19.1792 13.8495Z" fill="white"/>
<path d="M19.1794 14.0776C18.7284 14.0776 18.3594 13.7086 18.3594 13.2575C18.3594 12.8065 18.7284 12.4375 19.1794 12.4375C19.6304 12.4375 19.9995 12.8065 19.9995 13.2575C19.9995 13.7086 19.6304 14.0776 19.1794 14.0776ZM19.1794 12.8931C18.979 12.8931 18.815 13.0571 18.815 13.2575C18.815 13.458 18.979 13.622 19.1794 13.622C19.3799 13.622 19.5439 13.458 19.5439 13.2575C19.5439 13.0571 19.3799 12.8931 19.1794 12.8931Z" fill="white"/>
<path d="M19.1792 19.7724C19.5063 19.7724 19.7714 19.5072 19.7714 19.1801C19.7714 18.8531 19.5063 18.5879 19.1792 18.5879C18.8521 18.5879 18.5869 18.8531 18.5869 19.1801C18.5869 19.5072 18.8521 19.7724 19.1792 19.7724Z" fill="white"/>
<path d="M19.1794 20.0004C18.7284 20.0004 18.3594 19.6314 18.3594 19.1804C18.3594 18.7294 18.7284 18.3604 19.1794 18.3604C19.6304 18.3604 19.9995 18.7294 19.9995 19.1804C19.9995 19.6314 19.6304 20.0004 19.1794 20.0004ZM19.1794 18.8159C18.979 18.8159 18.815 18.9799 18.815 19.1804C18.815 19.3808 18.979 19.5449 19.1794 19.5449C19.3799 19.5449 19.5439 19.3808 19.5439 19.1804C19.5439 18.9799 19.3799 18.8159 19.1794 18.8159Z" fill="white"/>
<path d="M13.2573 7.9267C13.5844 7.9267 13.8495 7.66154 13.8495 7.33444C13.8495 7.00735 13.5844 6.74219 13.2573 6.74219C12.9302 6.74219 12.665 7.00735 12.665 7.33444C12.665 7.66154 12.9302 7.9267 13.2573 7.9267Z" fill="white"/>
<path d="M13.2575 8.15474C12.8065 8.15474 12.4375 7.78572 12.4375 7.33469C12.4375 6.88367 12.8065 6.51465 13.2575 6.51465C13.7086 6.51465 14.0776 6.88367 14.0776 7.33469C14.0776 7.78572 13.7086 8.15474 13.2575 8.15474ZM13.2575 6.97023C13.0571 6.97023 12.8931 7.13424 12.8931 7.33469C12.8931 7.53515 13.0571 7.69916 13.2575 7.69916C13.458 7.69916 13.622 7.53515 13.622 7.33469C13.622 7.13424 13.458 6.97023 13.2575 6.97023Z" fill="white"/>
<path d="M13.2573 13.8495C13.5844 13.8495 13.8495 13.5844 13.8495 13.2573C13.8495 12.9302 13.5844 12.665 13.2573 12.665C12.9302 12.665 12.665 12.9302 12.665 13.2573C12.665 13.5844 12.9302 13.8495 13.2573 13.8495Z" fill="white"/>
<path d="M13.2575 14.0776C12.8065 14.0776 12.4375 13.7086 12.4375 13.2575C12.4375 12.8065 12.8065 12.4375 13.2575 12.4375C13.7086 12.4375 14.0776 12.8065 14.0776 13.2575C14.0776 13.7086 13.7086 14.0776 13.2575 14.0776ZM13.2575 12.8931C13.0571 12.8931 12.8931 13.0571 12.8931 13.2575C12.8931 13.458 13.0571 13.622 13.2575 13.622C13.458 13.622 13.622 13.458 13.622 13.2575C13.622 13.0571 13.458 12.8931 13.2575 12.8931Z" fill="white"/>
<path d="M13.2573 19.7724C13.5844 19.7724 13.8495 19.5072 13.8495 19.1801C13.8495 18.8531 13.5844 18.5879 13.2573 18.5879C12.9302 18.5879 12.665 18.8531 12.665 19.1801C12.665 19.5072 12.9302 19.7724 13.2573 19.7724Z" fill="white"/>
<path d="M13.2575 20.0004C12.8065 20.0004 12.4375 19.6314 12.4375 19.1804C12.4375 18.7294 12.8065 18.3604 13.2575 18.3604C13.7086 18.3604 14.0776 18.7294 14.0776 19.1804C14.0776 19.6314 13.7086 20.0004 13.2575 20.0004ZM13.2575 18.8159C13.0571 18.8159 12.8931 18.9799 12.8931 19.1804C12.8931 19.3808 13.0571 19.5449 13.2575 19.5449C13.458 19.5449 13.622 19.3808 13.622 19.1804C13.622 18.9799 13.458 18.8159 13.2575 18.8159Z" fill="white"/>
<path d="M7.33444 13.8495C7.66154 13.8495 7.9267 13.5844 7.9267 13.2573C7.9267 12.9302 7.66154 12.665 7.33444 12.665C7.00735 12.665 6.74219 12.9302 6.74219 13.2573C6.74219 13.5844 7.00735 13.8495 7.33444 13.8495Z" fill="white"/>
<path d="M7.33469 14.0776C6.88367 14.0776 6.51465 13.7086 6.51465 13.2575C6.51465 12.8065 6.88367 12.4375 7.33469 12.4375C7.78572 12.4375 8.15474 12.8065 8.15474 13.2575C8.15474 13.7086 7.78572 14.0776 7.33469 14.0776ZM7.33469 12.8931C7.13424 12.8931 6.97023 13.0571 6.97023 13.2575C6.97023 13.458 7.13424 13.622 7.33469 13.622C7.53515 13.622 7.69916 13.458 7.69916 13.2575C7.69916 13.0571 7.53515 12.8931 7.33469 12.8931Z" fill="white"/>
<path d="M7.33444 19.7724C7.66154 19.7724 7.9267 19.5072 7.9267 19.1801C7.9267 18.8531 7.66154 18.5879 7.33444 18.5879C7.00735 18.5879 6.74219 18.8531 6.74219 19.1801C6.74219 19.5072 7.00735 19.7724 7.33444 19.7724Z" fill="white"/>
<path d="M7.33469 20.0004C6.88367 20.0004 6.51465 19.6314 6.51465 19.1804C6.51465 18.7294 6.88367 18.3604 7.33469 18.3604C7.78572 18.3604 8.15474 18.7294 8.15474 19.1804C8.15474 19.6314 7.78572 20.0004 7.33469 20.0004ZM7.33469 18.8159C7.13424 18.8159 6.97023 18.9799 6.97023 19.1804C6.97023 19.3808 7.13424 19.5449 7.33469 19.5449C7.53515 19.5449 7.69916 19.3808 7.69916 19.1804C7.69916 18.9799 7.53515 18.8159 7.33469 18.8159Z" fill="white"/>
<path d="M1.41159 19.7724C1.73868 19.7724 2.00385 19.5072 2.00385 19.1801C2.00385 18.8531 1.73868 18.5879 1.41159 18.5879C1.0845 18.5879 0.819336 18.8531 0.819336 19.1801C0.819336 19.5072 1.0845 19.7724 1.41159 19.7724Z" fill="white"/>
<path d="M1.41184 20.0004C0.960817 20.0004 0.591797 19.6314 0.591797 19.1804C0.591797 18.7294 0.960817 18.3604 1.41184 18.3604C1.86287 18.3604 2.23189 18.7294 2.23189 19.1804C2.23189 19.6314 1.86287 20.0004 1.41184 20.0004ZM1.41184 18.8159C1.21139 18.8159 1.04738 18.9799 1.04738 19.1804C1.04738 19.3808 1.21139 19.5449 1.41184 19.5449C1.6123 19.5449 1.77631 19.3808 1.77631 19.1804C1.77631 18.9799 1.6123 18.8159 1.41184 18.8159Z" fill="white"/>
</g>
<defs>
<clipPath id="clip0_7348_85130">
<rect width="20" height="20" fill="white"/>
</clipPath>
</defs>
</svg>
