<svg width="24" height="24" viewBox="0 0 24 24" fill="none" xmlns="http://www.w3.org/2000/svg">
<g clip-path="url(#clip0_2385_50059)">
<path d="M3.11626 0.273315H0.273438V3.11614H3.11626V0.273315Z" fill="#1D1D22"/>
<path d="M3.38952 3.38952H0V0H3.38952V3.38952ZM0.546697 2.84282H2.84282V0.546696H0.546697V2.84282Z" fill="#1D1D22"/>
<path d="M10.2232 0.273315H7.38037V3.11614H10.2232V0.273315Z" fill="#1D1D22"/>
<path d="M10.4965 3.38952H7.10693V0H10.4965V3.38952ZM7.65363 2.84282H9.94976V0.546696H7.65363V2.84282Z" fill="#1D1D22"/>
<path d="M17.3301 0.273315H14.4873V3.11614H17.3301V0.273315Z" fill="#1D1D22"/>
<path d="M17.6039 3.38952H14.2144V0H17.6039V3.38952ZM14.7611 2.84282H17.0572V0.546696H14.7611V2.84282Z" fill="#1D1D22"/>
<path d="M3.11626 7.38086H0.273438V10.2237H3.11626V7.38086Z" fill="#1D1D22"/>
<path d="M3.38952 10.4969H0V7.10742H3.38952V10.4969ZM0.546697 9.95025H2.84282V7.65412H0.546697V9.95025Z" fill="#1D1D22"/>
<path d="M10.2232 7.38086H7.38037V10.2237H10.2232V7.38086Z" fill="#1D1D22"/>
<path d="M10.4965 10.4969H7.10693V7.10742H10.4965V10.4969ZM7.65363 9.95025H9.94976V7.65412H7.65363V9.95025Z" fill="#1D1D22"/>
<path d="M3.11626 14.4873H0.273438V17.3301H3.11626V14.4873Z" fill="#1D1D22"/>
<path d="M3.38952 17.6034H0V14.2139H3.38952V17.6034ZM0.546697 17.0567H2.84282V14.7606H0.546697V17.0567Z" fill="#1D1D22"/>
<path d="M23.0159 2.40591C23.4084 2.40591 23.7266 2.08771 23.7266 1.6952C23.7266 1.30269 23.4084 0.984497 23.0159 0.984497C22.6234 0.984497 22.3052 1.30269 22.3052 1.6952C22.3052 2.08771 22.6234 2.40591 23.0159 2.40591Z" fill="#1D1D22"/>
<path d="M23.0158 2.67905C22.4746 2.67905 22.0317 2.23622 22.0317 1.69499C22.0317 1.15376 22.4746 0.710938 23.0158 0.710938C23.557 0.710938 23.9998 1.15376 23.9998 1.69499C23.9998 2.23622 23.557 2.67905 23.0158 2.67905ZM23.0158 1.25763C22.7752 1.25763 22.5784 1.45445 22.5784 1.69499C22.5784 1.93554 22.7752 2.13235 23.0158 2.13235C23.2563 2.13235 23.4531 1.93554 23.4531 1.69499C23.4531 1.45445 23.2563 1.25763 23.0158 1.25763Z" fill="#1D1D22"/>
<path d="M23.0159 9.51223C23.4084 9.51223 23.7266 9.19404 23.7266 8.80153C23.7266 8.40901 23.4084 8.09082 23.0159 8.09082C22.6234 8.09082 22.3052 8.40901 22.3052 8.80153C22.3052 9.19404 22.6234 9.51223 23.0159 9.51223Z" fill="#1D1D22"/>
<path d="M23.0158 9.78549C22.4746 9.78549 22.0317 9.34267 22.0317 8.80144C22.0317 8.26021 22.4746 7.81738 23.0158 7.81738C23.557 7.81738 23.9998 8.26021 23.9998 8.80144C23.9998 9.34267 23.557 9.78549 23.0158 9.78549ZM23.0158 8.36408C22.7752 8.36408 22.5784 8.56089 22.5784 8.80144C22.5784 9.04198 22.7752 9.23879 23.0158 9.23879C23.2563 9.23879 23.4531 9.04198 23.4531 8.80144C23.4531 8.56089 23.2563 8.36408 23.0158 8.36408Z" fill="#1D1D22"/>
<path d="M23.0159 16.6194C23.4084 16.6194 23.7266 16.3012 23.7266 15.9087C23.7266 15.5162 23.4084 15.198 23.0159 15.198C22.6234 15.198 22.3052 15.5162 22.3052 15.9087C22.3052 16.3012 22.6234 16.6194 23.0159 16.6194Z" fill="#1D1D22"/>
<path d="M23.0158 16.8928C22.4746 16.8928 22.0317 16.45 22.0317 15.9087C22.0317 15.3675 22.4746 14.9247 23.0158 14.9247C23.557 14.9247 23.9998 15.3675 23.9998 15.9087C23.9998 16.45 23.557 16.8928 23.0158 16.8928ZM23.0158 15.4714C22.7752 15.4714 22.5784 15.6682 22.5784 15.9087C22.5784 16.1493 22.7752 16.3461 23.0158 16.3461C23.2563 16.3461 23.4531 16.1493 23.4531 15.9087C23.4531 15.6682 23.2563 15.4714 23.0158 15.4714Z" fill="#1D1D22"/>
<path d="M23.0159 23.7271C23.4084 23.7271 23.7266 23.4089 23.7266 23.0164C23.7266 22.6239 23.4084 22.3057 23.0159 22.3057C22.6234 22.3057 22.3052 22.6239 22.3052 23.0164C22.3052 23.4089 22.6234 23.7271 23.0159 23.7271Z" fill="#1D1D22"/>
<path d="M23.0158 24.0003C22.4746 24.0003 22.0317 23.5575 22.0317 23.0163C22.0317 22.475 22.4746 22.0322 23.0158 22.0322C23.557 22.0322 23.9998 22.475 23.9998 23.0163C23.9998 23.5575 23.557 24.0003 23.0158 24.0003ZM23.0158 22.5789C22.7752 22.5789 22.5784 22.7757 22.5784 23.0163C22.5784 23.2568 22.7752 23.4536 23.0158 23.4536C23.2563 23.4536 23.4531 23.2568 23.4531 23.0163C23.4531 22.7757 23.2563 22.5789 23.0158 22.5789Z" fill="#1D1D22"/>
<path d="M15.9089 9.51223C16.3015 9.51223 16.6197 9.19404 16.6197 8.80153C16.6197 8.40901 16.3015 8.09082 15.9089 8.09082C15.5164 8.09082 15.1982 8.40901 15.1982 8.80153C15.1982 9.19404 15.5164 9.51223 15.9089 9.51223Z" fill="#1D1D22"/>
<path d="M15.9089 9.78549C15.3676 9.78549 14.9248 9.34267 14.9248 8.80144C14.9248 8.26021 15.3676 7.81738 15.9089 7.81738C16.4501 7.81738 16.8929 8.26021 16.8929 8.80144C16.8929 9.34267 16.4501 9.78549 15.9089 9.78549ZM15.9089 8.36408C15.6683 8.36408 15.4715 8.56089 15.4715 8.80144C15.4715 9.04198 15.6683 9.23879 15.9089 9.23879C16.1494 9.23879 16.3462 9.04198 16.3462 8.80144C16.3462 8.56089 16.1494 8.36408 15.9089 8.36408Z" fill="#1D1D22"/>
<path d="M15.9089 16.6194C16.3015 16.6194 16.6197 16.3012 16.6197 15.9087C16.6197 15.5162 16.3015 15.198 15.9089 15.198C15.5164 15.198 15.1982 15.5162 15.1982 15.9087C15.1982 16.3012 15.5164 16.6194 15.9089 16.6194Z" fill="#1D1D22"/>
<path d="M15.9089 16.8928C15.3676 16.8928 14.9248 16.45 14.9248 15.9087C14.9248 15.3675 15.3676 14.9247 15.9089 14.9247C16.4501 14.9247 16.8929 15.3675 16.8929 15.9087C16.8929 16.45 16.4501 16.8928 15.9089 16.8928ZM15.9089 15.4714C15.6683 15.4714 15.4715 15.6682 15.4715 15.9087C15.4715 16.1493 15.6683 16.3461 15.9089 16.3461C16.1494 16.3461 16.3462 16.1493 16.3462 15.9087C16.3462 15.6682 16.1494 15.4714 15.9089 15.4714Z" fill="#1D1D22"/>
<path d="M15.9089 23.7271C16.3015 23.7271 16.6197 23.4089 16.6197 23.0164C16.6197 22.6239 16.3015 22.3057 15.9089 22.3057C15.5164 22.3057 15.1982 22.6239 15.1982 23.0164C15.1982 23.4089 15.5164 23.7271 15.9089 23.7271Z" fill="#1D1D22"/>
<path d="M15.9089 24.0003C15.3676 24.0003 14.9248 23.5575 14.9248 23.0163C14.9248 22.475 15.3676 22.0322 15.9089 22.0322C16.4501 22.0322 16.8929 22.475 16.8929 23.0163C16.8929 23.5575 16.4501 24.0003 15.9089 24.0003ZM15.9089 22.5789C15.6683 22.5789 15.4715 22.7757 15.4715 23.0163C15.4715 23.2568 15.6683 23.4536 15.9089 23.4536C16.1494 23.4536 16.3462 23.2568 16.3462 23.0163C16.3462 22.7757 16.1494 22.5789 15.9089 22.5789Z" fill="#1D1D22"/>
<path d="M8.80153 16.6194C9.19404 16.6194 9.51223 16.3012 9.51223 15.9087C9.51223 15.5162 9.19404 15.198 8.80153 15.198C8.40901 15.198 8.09082 15.5162 8.09082 15.9087C8.09082 16.3012 8.40901 16.6194 8.80153 16.6194Z" fill="#1D1D22"/>
<path d="M8.80193 16.8928C8.2607 16.8928 7.81787 16.45 7.81787 15.9087C7.81787 15.3675 8.2607 14.9247 8.80193 14.9247C9.34316 14.9247 9.78598 15.3675 9.78598 15.9087C9.78598 16.45 9.34316 16.8928 8.80193 16.8928ZM8.80193 15.4714C8.56138 15.4714 8.36457 15.6682 8.36457 15.9087C8.36457 16.1493 8.56138 16.3461 8.80193 16.3461C9.04247 16.3461 9.23928 16.1493 9.23928 15.9087C9.23928 15.6682 9.04247 15.4714 8.80193 15.4714Z" fill="#1D1D22"/>
<path d="M8.80153 23.7271C9.19404 23.7271 9.51223 23.4089 9.51223 23.0164C9.51223 22.6239 9.19404 22.3057 8.80153 22.3057C8.40901 22.3057 8.09082 22.6239 8.09082 23.0164C8.09082 23.4089 8.40901 23.7271 8.80153 23.7271Z" fill="#1D1D22"/>
<path d="M8.80193 24.0003C8.2607 24.0003 7.81787 23.5575 7.81787 23.0163C7.81787 22.475 8.2607 22.0322 8.80193 22.0322C9.34316 22.0322 9.78598 22.475 9.78598 23.0163C9.78598 23.5575 9.34316 24.0003 8.80193 24.0003ZM8.80193 22.5789C8.56138 22.5789 8.36457 22.7757 8.36457 23.0163C8.36457 23.2568 8.56138 23.4536 8.80193 23.4536C9.04247 23.4536 9.23928 23.2568 9.23928 23.0163C9.23928 22.7757 9.04247 22.5789 8.80193 22.5789Z" fill="#1D1D22"/>
<path d="M1.69459 23.7271C2.0871 23.7271 2.4053 23.4089 2.4053 23.0164C2.4053 22.6239 2.0871 22.3057 1.69459 22.3057C1.30208 22.3057 0.983887 22.6239 0.983887 23.0164C0.983887 23.4089 1.30208 23.7271 1.69459 23.7271Z" fill="#1D1D22"/>
<path d="M1.6945 24.0003C1.15327 24.0003 0.710449 23.5575 0.710449 23.0163C0.710449 22.475 1.15327 22.0322 1.6945 22.0322C2.23573 22.0322 2.67856 22.475 2.67856 23.0163C2.67856 23.5575 2.23573 24.0003 1.6945 24.0003ZM1.6945 22.5789C1.45396 22.5789 1.25715 22.7757 1.25715 23.0163C1.25715 23.2568 1.45396 23.4536 1.6945 23.4536C1.93505 23.4536 2.13186 23.2568 2.13186 23.0163C2.13186 22.7757 1.93505 22.5789 1.6945 22.5789Z" fill="#1D1D22"/>
</g>
<defs>
<clipPath id="clip0_2385_50059">
<rect width="24" height="24" fill="white"/>
</clipPath>
</defs>
</svg>
