<svg width="24" height="24" viewBox="0 0 24 24" fill="none" xmlns="http://www.w3.org/2000/svg">
<path d="M13.64 16.6V23.5236C13.64 23.9172 13.3303 24.1057 12.9479 23.9395L7.69607 21.6397C7.27088 21.4108 7.01196 21.0306 7 20.6211V13.376C7.07671 13.4253 7.15838 13.4682 7.24396 13.5064L13.64 16.6Z" fill="#1D1D22"/>
<path opacity="0.8" d="M7.78503 11.9339L17.112 7.15159C17.4229 6.95514 17.6158 6.61513 17.6238 6.24691V0.433817C17.6238 0.0735831 17.393 -0.0920646 17.112 0.0515631L8.51708 4.45952C7.62996 4.93524 7.2195 5.15896 7.26973 6.16409V11.5516C7.26973 11.8943 7.50403 12.0784 7.78503 11.9339Z" fill="#1D1D22"/>
<path opacity="0.8" d="M7.5288 5.45876L17.0988 10.2268C17.4188 10.4244 17.6159 10.7643 17.624 11.1323V16.9245C17.624 17.2836 17.3872 17.4523 17.0988 17.3091L7.5288 12.5402C7.20792 12.3443 7.00908 12.0044 7 11.6356V5.84252C7 5.48774 7.24048 5.3147 7.5288 5.45876Z" fill="#1D1D22"/>
<path d="M7.48871 11.9938L14.0356 8.70263L7.48871 5.46112C7.38512 5.39024 7.25063 5.39024 7.14705 5.46112C7.05766 5.63071 7.00757 5.81924 7 6.01306V11.544C7.00334 11.666 7.02757 11.7854 7.07185 11.8987C7.15291 12.0423 7.33081 12.0907 7.46946 12.0068C7.47533 12.0025 7.48202 11.9982 7.48871 11.9938Z" fill="#1D1D22"/>
</svg>
