<svg width="20" height="20" viewBox="0 0 20 20" fill="none" xmlns="http://www.w3.org/2000/svg">
<path d="M11.3663 13.8332V19.6029C11.3663 19.9309 11.1083 20.0879 10.7896 19.9494L6.41307 18.033C6.05874 17.8421 5.84297 17.5254 5.83301 17.1841V11.1465C5.89693 11.1876 5.96499 11.2234 6.03631 11.2552L11.3663 13.8332Z" fill="white"/>
<path opacity="0.8" d="M6.48753 9.94495L14.26 5.95966C14.5191 5.79595 14.6799 5.51261 14.6865 5.20576V0.361514C14.6865 0.0613192 14.4942 -0.0767205 14.26 0.0429692L7.09756 3.71626C6.3583 4.1127 6.01625 4.29914 6.05811 5.13674V9.62635C6.05811 9.91191 6.25336 10.0654 6.48753 9.94495Z" fill="white"/>
<path opacity="0.8" d="M6.27368 4.54917L14.2487 8.52254C14.5154 8.68725 14.6796 8.97046 14.6864 9.2771V14.1039C14.6864 14.4032 14.489 14.5438 14.2487 14.4244L6.27368 10.4504C6.00627 10.2871 5.84057 10.0039 5.83301 9.6965V4.86897C5.83301 4.57332 6.03341 4.42912 6.27368 4.54917Z" fill="white"/>
<path d="M6.24026 9.99507L11.696 7.2524L6.24026 4.55114C6.15394 4.49207 6.04187 4.49207 5.95555 4.55114C5.88106 4.69246 5.83932 4.84957 5.83301 5.01109V9.62021C5.83579 9.72185 5.85598 9.82136 5.89288 9.91576C5.96044 10.0354 6.10868 10.0758 6.22423 10.0059C6.22912 10.0023 6.23469 9.99867 6.24026 9.99507Z" fill="white"/>
</svg>
