<svg width="20" height="20" viewBox="0 0 20 20" fill="none" xmlns="http://www.w3.org/2000/svg">
<path fill-rule="evenodd" clip-rule="evenodd" d="M11.2362 6.93467L14.8543 4.82412V9.04523L11.2362 6.93467ZM14.8543 15.9799L10.0302 18.794L5.20603 15.9799V11.0553L10.0302 13.8693L14.8543 11.0553V15.9799ZM5.20603 4.82412L8.82412 6.93467L5.20603 9.04523V4.82412ZM10.6332 7.9397L14.2513 10.0503L10.6332 12.1608V7.9397ZM9.42714 12.1608L5.80905 10.0503L9.42714 7.9397V12.1608ZM14.2513 3.8191L10.0302 6.23116L5.80905 3.8191L10.0302 1.30653L14.2513 3.8191ZM4 3.41709V16.5829L10.0302 20L16.0603 16.5829V3.41709L10.0302 0L4 3.41709Z" fill="white"/>
</svg>
