<svg width="20" height="20" viewBox="0 0 20 20" fill="none" xmlns="http://www.w3.org/2000/svg">
<path fill-rule="evenodd" clip-rule="evenodd" d="M3.06214 5.95703C3.08842 5.98083 3.10997 5.99884 3.12995 6.0185C3.34327 6.22773 3.55475 6.43887 3.77079 6.64543C3.81923 6.69171 3.8195 6.72348 3.7848 6.77669C3.33214 7.46974 3.16753 8.22906 3.31856 9.03386C3.52102 10.1134 4.14171 10.9 5.15576 11.3741C5.75471 11.654 6.39003 11.7259 7.04314 11.6279C7.48204 11.5621 7.8931 11.4124 8.26823 11.177C8.33044 11.1379 8.36451 11.1424 8.41523 11.1929C8.96644 11.7412 9.5211 12.2863 10.0717 12.8351C10.1325 12.8958 10.1639 12.9027 10.2294 12.8381C10.8588 12.2156 11.4934 11.5979 12.1228 10.9755C12.192 10.907 12.2354 10.8952 12.3262 10.9487C12.8766 11.2733 13.4763 11.4035 14.1175 11.3741C15.3904 11.3158 16.5528 10.4441 16.9472 9.24746C17.2459 8.3411 17.135 7.48114 16.6484 6.66321C16.6166 6.60979 16.6137 6.57674 16.6625 6.53065C16.8399 6.36323 17.0123 6.19092 17.1869 6.02065C17.2032 6.00485 17.2213 5.99094 17.2389 5.97583C19.104 8.66218 19.367 12.9837 16.3663 16.1656C13.2585 19.4612 8.12963 19.7177 4.7052 16.8889C1.22758 14.0161 0.814077 9.2996 3.06214 5.95703Z" fill="white"/>
<path fill-rule="evenodd" clip-rule="evenodd" d="M15.9857 4.89089C12.6482 1.54654 7.22182 1.83012 4.32642 4.75738C4.34326 4.77602 4.35963 4.79576 4.37785 4.81362C6.29064 6.69224 8.2038 8.57051 10.1154 10.4503C10.1692 10.5032 10.1997 10.4968 10.2489 10.4479C10.4957 10.2025 10.7452 9.9595 10.9947 9.71659C12.6078 8.14578 14.221 6.57505 15.8352 5.00525C15.8784 4.9631 15.9321 4.93115 15.9857 4.89089ZM10.1779 11.6364C7.84461 9.34159 5.51752 7.05291 3.18457 4.75842C3.20139 4.73643 3.21488 4.71549 3.23161 4.69737C4.07316 3.78223 5.04988 3.04284 6.19 2.51671C6.81225 2.22952 7.45897 2.01308 8.13179 1.87107C8.90658 1.7076 9.68987 1.64115 10.4811 1.67601C11.635 1.72666 12.7391 1.98561 13.7943 2.44708C15.0631 3.00188 16.1343 3.81305 17.0433 4.83731C17.0959 4.89656 17.0657 4.9231 17.0252 4.9625C15.8944 6.06429 14.7641 7.16652 13.634 8.26898C12.5063 9.36907 11.3789 10.4695 10.2511 11.5696C10.2307 11.5896 10.2088 11.6083 10.1779 11.6364Z" fill="white"/>
<path fill-rule="evenodd" clip-rule="evenodd" d="M7.17188 10.0295C6.6982 10.4544 5.64525 10.5527 4.94825 9.87024C4.2489 9.18561 4.34464 8.17296 4.80389 7.64648C5.59434 8.44193 6.3837 9.23628 7.17188 10.0295Z" fill="white"/>
<path fill-rule="evenodd" clip-rule="evenodd" d="M13.2969 9.86467C14.0899 9.08543 14.8793 8.30981 15.6685 7.53418C16.0022 7.90019 16.157 8.83455 15.5794 9.52329C14.937 10.2891 13.8771 10.2847 13.2969 9.86467Z" fill="white"/>
</svg>
