<svg width="24" height="24" viewBox="0 0 24 24" fill="none" xmlns="http://www.w3.org/2000/svg">
<path fill-rule="evenodd" clip-rule="evenodd" d="M3.67418 7.14844C3.70571 7.17699 3.73158 7.19861 3.75555 7.2222C4.01153 7.47328 4.26531 7.72664 4.52455 7.97452C4.58269 8.03005 4.583 8.06818 4.54137 8.13203C3.99818 8.96369 3.80064 9.87487 3.98188 10.8406C4.22484 12.1361 4.96966 13.08 6.18652 13.649C6.90526 13.9848 7.66765 14.0711 8.45137 13.9535C8.97806 13.8745 9.47133 13.6949 9.92149 13.4124C9.99613 13.3655 10.037 13.3709 10.0979 13.4315C10.7593 14.0895 11.4249 14.7435 12.0857 15.4022C12.1586 15.475 12.1963 15.4833 12.2749 15.4057C13.0302 14.6587 13.7917 13.9175 14.547 13.1706C14.63 13.0884 14.6821 13.0743 14.791 13.1385C15.4515 13.528 16.1712 13.6842 16.9406 13.649C18.468 13.579 19.863 12.533 20.3363 11.097C20.6946 10.0093 20.5616 8.97737 19.9777 7.99585C19.9395 7.93175 19.936 7.89209 19.9946 7.83678C20.2075 7.63587 20.4144 7.4291 20.6239 7.22478C20.6434 7.20583 20.6652 7.18913 20.6863 7.171C22.9244 10.3946 23.24 15.5804 19.6391 19.3987C15.9098 23.3534 9.75516 23.6613 5.64584 20.2667C1.4727 16.8193 0.976502 11.1595 3.67418 7.14844Z" fill="#1D1D22"/>
<path fill-rule="evenodd" clip-rule="evenodd" d="M19.1826 5.86867C15.1777 1.85546 8.66598 2.19575 5.19151 5.70846C5.21171 5.73084 5.23136 5.75452 5.25322 5.77595C7.54857 8.03029 9.84436 10.2842 12.1383 12.54C12.2029 12.6035 12.2395 12.5957 12.2984 12.5371C12.5947 12.2426 12.894 11.951 13.1934 11.6595C15.1291 9.77455 17.065 7.88966 19.002 6.00591C19.0539 5.95533 19.1183 5.91699 19.1826 5.86867ZM12.2133 13.9633C9.41334 11.2095 6.62083 8.4631 3.82129 5.70972C3.84147 5.68333 3.85766 5.6582 3.87774 5.63646C4.8876 4.53829 6.05966 3.65102 7.4278 3.01966C8.1745 2.67504 8.95057 2.41531 9.75795 2.2449C10.6877 2.04873 11.6276 1.96899 12.5772 2.01082C13.9618 2.07161 15.2867 2.38234 16.553 2.93611C18.0755 3.60187 19.3609 4.57527 20.4518 5.80438C20.5149 5.87548 20.4786 5.90733 20.4301 5.95461C19.0731 7.27676 17.7167 8.59943 16.3606 9.92239C15.0074 11.2425 13.6545 12.563 12.3012 13.8832C12.2767 13.9071 12.2504 13.9295 12.2133 13.9633Z" fill="#1D1D22"/>
<path fill-rule="evenodd" clip-rule="evenodd" d="M8.60567 12.0354C8.03725 12.5453 6.77372 12.6632 5.93731 11.8443C5.0981 11.0227 5.21299 9.80755 5.76408 9.17578C6.71263 10.1303 7.65985 11.0835 8.60567 12.0354Z" fill="#1D1D22"/>
<path fill-rule="evenodd" clip-rule="evenodd" d="M15.9561 11.8376C16.9076 10.9025 17.855 9.97177 18.8021 9.04102C19.2024 9.48022 19.3882 10.6015 18.695 11.428C17.9241 12.347 16.6523 12.3417 15.9561 11.8376Z" fill="#1D1D22"/>
</svg>
