<svg width="20" height="20" viewBox="0 0 20 20" fill="none" xmlns="http://www.w3.org/2000/svg">
<path fill-rule="evenodd" clip-rule="evenodd" d="M9.91901 5.85217C9.61924 5.95947 8.69267 6.37184 7.83872 6.77803C5.7359 7.77823 5.17735 7.99854 2.76477 8.77942C1.61385 9.15194 0.109537 9.68486 0.0260136 9.74963C0.00487675 9.76602 -0.00552036 9.79066 0.00295299 9.80438C0.0114263 9.81807 0.224284 9.93704 0.475939 10.0688C0.898986 10.2901 1.32672 10.532 3.1217 11.5651C3.97044 12.0535 5.36609 12.7504 6.2255 13.1147C8.59595 14.1198 9.32097 14.4382 9.89089 14.7244L10.1672 14.8632L10.5785 14.6411C11.0697 14.3759 12.4769 13.6773 13.2556 13.3121C15.052 12.4695 15.9165 11.9869 17.8158 10.7667C18.5259 10.3105 19.558 9.67964 19.9124 9.48528C19.9669 9.45539 20.006 9.41349 19.9993 9.39217C19.9779 9.32454 18.8083 8.94494 17.1974 8.48279C15.7574 8.06967 15.8071 8.0847 15.0904 7.84477C14.3382 7.59293 13.7196 7.35205 12.7435 6.93089C11.2441 6.284 10.1094 5.8279 10.012 5.83305C9.98645 5.83439 9.94461 5.84301 9.91901 5.85217ZM10.1744 6.00423C10.542 6.14144 11.5828 6.55803 11.6049 6.57678C11.6188 6.58861 11.549 6.6441 11.4497 6.70006C11.1922 6.84526 10.6985 7.16722 10.3456 7.41999L10.0428 7.63691L9.61179 7.3568C9.37476 7.20272 9.01168 6.98294 8.80499 6.86841C8.59831 6.75388 8.42919 6.65537 8.42919 6.6495C8.42919 6.61586 9.92608 5.95568 10.0037 5.95506C10.0247 5.95487 10.1015 5.977 10.1744 6.00423ZM12.6542 7.02562L13.5117 7.39187L13.275 7.57813C13.1448 7.68055 12.8469 7.953 12.613 8.18358L12.1876 8.60278L12.0686 8.49523C11.8797 8.32459 11.6744 8.19373 11.3675 8.04832C11.0451 7.89561 10.8298 7.83295 10.4474 7.78049C10.3019 7.76051 10.1717 7.73474 10.158 7.72323C10.1108 7.68331 11.715 6.6257 11.7813 6.65301C11.7898 6.65652 12.1826 6.82422 12.6542 7.02562ZM9.17106 7.20996C9.61155 7.47704 9.95731 7.71578 9.929 7.73325C9.91469 7.7421 9.84725 7.75858 9.77909 7.76994C9.05603 7.89021 8.52599 8.12694 8.08262 8.52764L7.89732 8.69512L7.80855 8.58742C7.69682 8.45184 7.18357 8.00049 6.87729 7.76842C6.51247 7.492 6.51232 7.53005 6.87897 7.36071C7.05626 7.2788 7.4392 7.09794 7.7299 6.9588L8.25848 6.70581L8.5755 6.87341C8.74984 6.96559 9.01785 7.11706 9.17106 7.20996ZM14.1557 7.63874C14.3947 7.73148 14.7918 7.87438 15.0382 7.95632L15.4861 8.10527L15.3641 8.20159C14.9423 8.53447 14.4279 9.05981 13.9384 9.65754L13.8453 9.77127L13.566 9.71217C13.4123 9.67967 13.2028 9.62328 13.1004 9.58687C12.998 9.55046 12.8918 9.51337 12.8644 9.50446C12.8371 9.49553 12.7931 9.44288 12.7667 9.38748C12.6892 9.22497 12.4976 8.93725 12.3807 8.80785L12.2723 8.68792L12.5932 8.35764C13.0478 7.88987 13.5913 7.43802 13.6746 7.45863C13.7002 7.46496 13.9167 7.546 14.1557 7.63874ZM6.62222 7.71348C7.0223 7.99897 7.80843 8.70036 7.80843 8.77181C7.80843 8.7851 7.7457 8.87945 7.66901 8.98157C7.59231 9.08365 7.47905 9.2629 7.41732 9.37988C7.31595 9.57197 7.28892 9.59972 7.13826 9.66636C6.99223 9.73095 6.57883 9.85671 6.34965 9.90631C6.28493 9.92031 6.252 9.89784 6.1511 9.7708C6.08458 9.68706 5.84714 9.43745 5.62345 9.21615C5.241 8.83774 5.0837 8.69953 4.72792 8.42928C4.64685 8.36767 4.59132 8.31059 4.60454 8.30243C4.61779 8.29423 4.81681 8.21745 5.04683 8.13175C5.27685 8.04605 5.67457 7.88574 5.93064 7.7755C6.1867 7.66525 6.40142 7.57363 6.40778 7.57189C6.41414 7.57015 6.51064 7.63387 6.62222 7.71348ZM16.6077 8.43347C17.0857 8.57261 17.4962 8.69366 17.52 8.70251C17.5472 8.71262 17.4824 8.7743 17.3459 8.86834C17.0645 9.06217 16.6797 9.35551 16.3455 9.63082C16.1992 9.75137 16.0567 9.86789 16.0289 9.88974C15.9877 9.92211 15.835 9.9204 15.2067 9.88049C14.7822 9.85355 14.3328 9.8217 14.2078 9.80972L13.9807 9.78793L14.2309 9.48593C14.7524 8.8567 15.5222 8.14764 15.661 8.16872C15.7037 8.1752 16.1297 8.29436 16.6077 8.43347ZM4.77143 8.59676C5.04643 8.80627 6.13238 9.86506 6.13238 9.92366C6.13238 9.95209 5.73718 10.0045 4.7232 10.1106L4.13652 10.172L3.70245 9.84545C3.32898 9.56446 2.87185 9.25088 2.55356 9.05733L2.46503 9.00348L3.39083 8.69493C3.90004 8.52522 4.35369 8.38396 4.39898 8.38105C4.45798 8.37723 4.56345 8.43831 4.77143 8.59676ZM18.7648 9.07608C19.166 9.20265 19.5607 9.33164 19.642 9.36268L19.7898 9.41917L19.6575 9.49255C19.5848 9.53293 19.2399 9.73992 18.8913 9.95259L18.2572 10.3392L17.836 10.2432C17.2887 10.1185 17.0041 10.0655 16.5325 10.0004L16.147 9.94719L16.2842 9.82788C16.5273 9.61657 17.0332 9.22686 17.3751 8.98756L17.7081 8.75453L17.8717 8.80024C17.9618 8.82539 18.3636 8.94951 18.7648 9.07608ZM2.65083 9.25154C2.98939 9.4692 3.70317 9.97264 3.8645 10.1075L3.97103 10.1966L3.72483 10.2351C3.36669 10.2912 2.70123 10.4387 2.23206 10.566L1.82351 10.6768L1.56475 10.5295C1.14673 10.2916 0.289463 9.83449 0.261219 9.83449C0.189025 9.83449 0.251722 9.78114 0.382609 9.7312C0.740786 9.59457 2.27217 9.06096 2.30941 9.05981C2.3321 9.0591 2.48574 9.14539 2.65083 9.25154ZM13.2678 9.75615C13.4147 9.79762 13.5879 9.84085 13.6527 9.85224C13.7174 9.86363 13.7662 9.88176 13.7612 9.8925C13.7561 9.90327 13.6551 10.0587 13.5368 10.238C13.4185 10.4172 13.2687 10.6547 13.2038 10.7656L13.086 10.9674L13.0852 10.7191C13.0843 10.4242 13.0421 10.1404 12.9592 9.87003C12.8861 9.63181 12.8863 9.6369 12.9496 9.66117C12.9776 9.67191 13.1208 9.71465 13.2678 9.75615ZM7.16992 10.0478C7.11045 10.2767 7.09456 10.4165 7.09456 10.7099V11.0819L6.87332 10.7453C6.75165 10.5602 6.58401 10.3217 6.50083 10.2153L6.34955 10.0219L6.43494 10.0032C6.61816 9.96308 6.99198 9.8515 7.11008 9.80168C7.17836 9.77288 7.23671 9.75118 7.23975 9.75345C7.24279 9.75575 7.21138 9.88819 7.16992 10.0478ZM14.6833 9.95886C14.9906 9.97854 15.3803 10.004 15.5493 10.0154L15.8566 10.0362L15.2079 10.6265C14.2297 11.5166 14.1888 11.5491 13.9019 11.6631C13.5859 11.7887 13.2311 12.0057 12.9362 12.2538C12.7305 12.4269 12.6036 12.5038 12.5237 12.5038C12.5075 12.5038 12.5498 12.4157 12.6177 12.3081C12.78 12.0513 12.8826 11.8233 12.9748 11.5152C13.0567 11.2418 13.295 10.8028 13.6657 10.2428L13.8988 9.89058L14.0117 9.90681C14.0738 9.91575 14.3761 9.93915 14.6833 9.95886ZM6.49711 10.4009C6.90594 10.9723 7.13096 11.3518 7.20735 11.5989C7.28777 11.859 7.45696 12.206 7.60321 12.4106C7.76321 12.6345 7.76262 12.6309 7.6312 12.5844C7.56652 12.5614 7.39233 12.4522 7.24419 12.3416C6.93524 12.111 6.59243 11.9256 6.25464 11.8066C5.99799 11.7162 5.91024 11.6511 4.85138 10.7656C4.1796 10.2039 4.16039 10.2713 5.01502 10.1916C5.31376 10.1637 5.68388 10.1226 5.83752 10.1002C5.99116 10.0779 6.14619 10.0578 6.18204 10.0557C6.23145 10.0527 6.30775 10.1363 6.49711 10.4009ZM16.6232 10.1305C16.9935 10.1813 17.7862 10.3361 17.9927 10.398L18.1111 10.4335L17.7939 10.6393C17.6195 10.7525 17.2497 10.9894 16.9723 11.1658L16.4678 11.4865L16.1498 11.4449C15.7555 11.3934 14.9363 11.3934 14.6723 11.4449C14.5639 11.4661 14.4703 11.4786 14.4644 11.4727C14.4586 11.4668 14.6032 11.3274 14.7858 11.1629C14.9684 10.9984 15.3204 10.6808 15.5679 10.4572C16.0116 10.0563 16.0197 10.0507 16.1421 10.066C16.2104 10.0746 16.4269 10.1036 16.6232 10.1305ZM4.4784 10.5995C4.67965 10.7642 4.92811 10.9713 5.03054 11.0597C5.13296 11.1482 5.3416 11.3221 5.49421 11.4462L5.77163 11.6719L5.55629 11.6463C5.11207 11.5936 4.45832 11.6306 3.78902 11.7463C3.71083 11.7598 3.56157 11.6845 2.85788 11.2767C2.39697 11.0096 2.01405 10.7853 2.00692 10.7783C1.98137 10.7532 2.02656 10.7384 2.50095 10.616C3.0911 10.4637 3.79606 10.3215 4.04387 10.3047C4.08885 10.3017 4.2387 10.4033 4.4784 10.5995ZM16.0335 11.5521L16.2973 11.5889L15.69 11.9355C15.1136 12.2644 14.1513 12.7597 13.4728 13.0766C13.3021 13.1564 12.9999 13.2991 12.8012 13.3937L12.44 13.5658L11.9787 13.4224C11.725 13.3436 11.2906 13.2271 11.0134 13.1636C10.7197 13.0963 10.5318 13.0399 10.5633 13.0285C10.593 13.0177 10.8548 12.9707 11.145 12.924C11.784 12.8213 12.2412 12.7214 12.5724 12.6123C13.0248 12.4632 13.6239 12.1301 14.0587 11.7858C14.2195 11.6585 14.3273 11.6199 14.6988 11.5566C14.9936 11.5063 15.6895 11.504 16.0335 11.5521ZM5.79686 11.8019C5.95705 11.8374 6.06255 11.8886 6.25867 12.026C6.39847 12.124 6.67666 12.289 6.87689 12.3928L7.2409 12.5813L6.92717 12.5896C6.75463 12.5941 6.44586 12.6284 6.24101 12.6658C6.03616 12.7032 5.81269 12.7341 5.74441 12.7343C5.57292 12.7351 3.85386 11.8857 3.94663 11.8461C4.2094 11.7339 5.36615 11.7063 5.79686 11.8019ZM13.7987 11.8335C13.7987 11.8493 13.3435 12.1406 13.2401 12.1909L13.1625 12.2286L13.2401 12.1634C13.3043 12.1094 13.7653 11.8233 13.791 11.8215C13.7953 11.8212 13.7987 11.8266 13.7987 11.8335ZM6.97041 12.2896C7.01308 12.325 6.93611 12.2959 6.79939 12.2251C6.66263 12.1542 6.51598 12.0682 6.47349 12.0339C6.43097 11.9996 6.50794 12.0286 6.64451 12.0984C6.78107 12.1682 6.92773 12.2543 6.97041 12.2896ZM7.97914 12.7956C8.29768 12.8613 8.78488 12.9301 9.55431 13.0181C9.65248 13.0294 9.73278 13.0482 9.73278 13.06C9.73278 13.0718 9.60357 13.114 9.44568 13.1537C9.11922 13.2358 8.58332 13.4064 8.14985 13.5661L7.85499 13.6748L7.6222 13.5739C7.49417 13.5184 7.0647 13.3368 6.66779 13.1704C6.27087 13.004 5.94615 12.858 5.94615 12.8459C5.94615 12.8211 6.27975 12.7576 6.60962 12.7195C6.97283 12.6776 7.56668 12.7106 7.97914 12.7956ZM10.4156 12.9293C10.2424 12.9633 10.1154 12.9683 9.91901 12.9489L9.65519 12.9228L9.96556 12.9055C10.1363 12.896 10.3597 12.8872 10.4622 12.8859L10.6484 12.8836L10.4156 12.9293ZM10.5826 13.1869C11.379 13.3525 12.2765 13.6057 12.2273 13.6509C12.2125 13.6645 11.8162 13.8718 11.3468 14.1116C10.8773 14.3514 10.4218 14.5863 10.3346 14.6337L10.176 14.7199L9.43451 14.3762C9.02667 14.1872 8.55334 13.9722 8.38263 13.8985C8.03314 13.7477 8.04022 13.7514 8.06337 13.7283C8.12312 13.6685 9.06686 13.368 9.71726 13.2016C9.93918 13.1449 10.1236 13.0973 10.1271 13.096C10.1307 13.0946 10.3356 13.1355 10.5826 13.1869Z" fill="white"/>
</svg>
