<svg width="24" height="24" viewBox="0 0 24 24" fill="none" xmlns="http://www.w3.org/2000/svg">
<path fill-rule="evenodd" clip-rule="evenodd" d="M11.9028 7.023C11.5431 7.15175 10.4312 7.6466 9.40647 8.13403C6.88308 9.33426 6.21281 9.59863 3.31772 10.5357C1.93662 10.9827 0.131444 11.6222 0.0312163 11.6999C0.0058521 11.7196 -0.00662443 11.7492 0.00354359 11.7657C0.0137116 11.7821 0.269141 11.9248 0.571127 12.0829C1.07878 12.3485 1.59206 12.6388 3.74604 13.8785C4.76452 14.4646 6.4393 15.3008 7.47059 15.7381C10.3151 16.9442 11.1852 17.3262 11.8691 17.6697L12.2007 17.8363L12.6942 17.5697C13.2837 17.2515 14.9723 16.4131 15.9067 15.9749C18.0624 14.9638 19.0998 14.3847 21.379 12.9204C22.2311 12.3729 23.4696 11.616 23.8949 11.3827C23.9603 11.3469 24.0071 11.2966 23.9991 11.271C23.9735 11.1898 22.5699 10.7343 20.6369 10.1797C18.9089 9.684 18.9685 9.70203 18.1085 9.41412C17.2059 9.11191 16.4635 8.82285 15.2921 8.31746C13.493 7.54119 12.1312 6.99387 12.0144 7.00005C11.9837 7.00165 11.9335 7.01201 11.9028 7.023ZM12.2093 7.20546C12.6504 7.37012 13.8993 7.87003 13.9259 7.89253C13.9426 7.90672 13.8588 7.97331 13.7396 8.04047C13.4307 8.2147 12.8382 8.60105 12.4147 8.90438L12.0514 9.16469L11.5342 8.82854C11.2497 8.64366 10.814 8.37992 10.566 8.24249C10.318 8.10505 10.115 7.98683 10.115 7.97979C10.115 7.93942 11.9113 7.14721 12.0045 7.14646C12.0297 7.14624 12.1218 7.1728 12.2093 7.20546ZM15.1851 8.43114L16.214 8.87063L15.93 9.09414C15.7738 9.21705 15.4163 9.54399 15.1356 9.82069L14.6252 10.3237L14.4823 10.1947C14.2557 9.9899 14.0093 9.83287 13.6409 9.65838C13.2541 9.47513 12.9958 9.39993 12.5369 9.33698C12.3623 9.313 12.206 9.28208 12.1896 9.26827C12.133 9.22037 14.0579 7.95123 14.1375 7.984C14.1478 7.98821 14.6192 8.18945 15.1851 8.43114ZM11.0053 8.65234C11.5339 8.97283 11.9488 9.25933 11.9148 9.2803C11.8976 9.29091 11.8167 9.31069 11.7349 9.32432C10.8672 9.46865 10.2312 9.75272 9.69914 10.2336L9.47679 10.4345L9.37026 10.3053C9.23618 10.1426 8.62029 9.60098 8.25275 9.32249C7.81497 8.99079 7.81478 9.03645 8.25476 8.83324C8.46751 8.73495 8.92704 8.51792 9.27588 8.35095L9.91017 8.04736L10.2906 8.24848C10.4998 8.3591 10.8214 8.54086 11.0053 8.65234ZM16.9868 9.16688C17.2736 9.27817 17.7501 9.44965 18.0458 9.54798L18.5833 9.72672L18.4369 9.84229C17.9308 10.2418 17.3135 10.8722 16.7261 11.5894L16.6144 11.7259L16.2792 11.655C16.0948 11.616 15.8434 11.5483 15.7205 11.5046C15.5976 11.4609 15.4701 11.4164 15.4373 11.4057C15.4045 11.395 15.3517 11.3319 15.32 11.2654C15.227 11.0704 14.9971 10.7251 14.8568 10.5698L14.7268 10.4259L15.1119 10.0296C15.6573 9.46824 16.3095 8.92602 16.4095 8.95075C16.4402 8.95835 16.7 9.05559 16.9868 9.16688ZM7.94667 9.25657C8.42676 9.59915 9.37011 10.4408 9.37011 10.5266C9.37011 10.5425 9.29484 10.6557 9.20281 10.7783C9.11077 10.9008 8.97486 11.1159 8.90078 11.2562C8.77914 11.4868 8.7467 11.5201 8.56591 11.6C8.39067 11.6775 7.8946 11.8284 7.61958 11.888C7.54192 11.9048 7.5024 11.8778 7.38132 11.7254C7.3015 11.6249 7.01657 11.3253 6.74814 11.0598C6.2892 10.6057 6.10044 10.4398 5.6735 10.1155C5.57621 10.0416 5.50958 9.9731 5.52545 9.9633C5.54135 9.95347 5.78017 9.86133 6.0562 9.75849C6.33222 9.65566 6.80949 9.46328 7.11676 9.33099C7.42404 9.19869 7.6817 9.08874 7.68934 9.08666C7.69697 9.08457 7.81277 9.16104 7.94667 9.25657ZM19.9292 10.1206C20.5028 10.2875 20.9954 10.4328 21.024 10.4434C21.0566 10.4555 20.9789 10.5295 20.8151 10.6424C20.4774 10.875 20.0156 11.227 19.6146 11.5574C19.439 11.702 19.268 11.8419 19.2346 11.8681C19.1852 11.9069 19.0019 11.9049 18.248 11.857C17.7387 11.8246 17.1993 11.7864 17.0494 11.7721L16.7768 11.7459L17.0771 11.3835C17.7028 10.6284 18.6266 9.77756 18.7932 9.80285C18.8444 9.81063 19.3556 9.95362 19.9292 10.1206ZM5.72572 10.3165C6.05571 10.5679 7.35886 11.8385 7.35886 11.9088C7.35886 11.9429 6.88461 12.0058 5.66784 12.1331L4.96382 12.2068L4.44295 11.8149C3.99477 11.4777 3.44622 11.1015 3.06427 10.8692L2.95804 10.8046L4.069 10.4343C4.68005 10.2307 5.22443 10.0611 5.27877 10.0576C5.34958 10.0531 5.47614 10.1264 5.72572 10.3165ZM22.5178 10.8917C22.9992 11.0436 23.4729 11.1984 23.5704 11.2356L23.7477 11.3034L23.589 11.3914C23.5017 11.4399 23.0879 11.6883 22.6695 11.9435L21.9087 12.4074L21.4032 12.2922C20.7465 12.1426 20.4049 12.079 19.839 12.0009L19.3764 11.937L19.541 11.7938C19.8327 11.5403 20.4398 11.0726 20.8501 10.7855L21.2497 10.5058L21.4461 10.5607C21.5541 10.5909 22.0364 10.7398 22.5178 10.8917ZM3.18099 11.1022C3.58727 11.3634 4.4438 11.9676 4.6374 12.1294L4.76523 12.2363L4.4698 12.2825C4.04002 12.3498 3.24148 12.5268 2.67848 12.6795L2.18822 12.8125L1.8777 12.6358C1.37608 12.3503 0.347356 11.8018 0.313463 11.8018C0.22683 11.8018 0.302066 11.7378 0.45913 11.6778C0.888943 11.5139 2.7266 10.8735 2.77129 10.8722C2.79852 10.8713 2.98289 10.9749 3.18099 11.1022ZM15.9213 11.7078C16.0976 11.7575 16.3055 11.8094 16.3832 11.8231C16.4609 11.8368 16.5195 11.8585 16.5134 11.8714C16.5073 11.8843 16.3861 12.0709 16.2442 12.286C16.1022 12.5011 15.9224 12.786 15.8446 12.9191L15.7032 13.1612L15.7022 12.8633C15.7011 12.5094 15.6506 12.1689 15.551 11.8444C15.4633 11.5586 15.4636 11.5647 15.5395 11.5938C15.5731 11.6067 15.7449 11.658 15.9213 11.7078ZM8.6039 12.0577C8.53254 12.3325 8.51347 12.5001 8.51347 12.8523V13.2987L8.24798 12.8947C8.10198 12.6726 7.90082 12.3864 7.801 12.2587L7.61946 12.0267L7.72193 12.0042C7.94179 11.9561 8.39037 11.8222 8.53209 11.7624C8.61403 11.7278 8.68405 11.7018 8.6877 11.7045C8.69135 11.7073 8.65366 11.8662 8.6039 12.0577ZM17.62 11.951C17.9887 11.9746 18.4563 12.0052 18.6591 12.0189L19.0279 12.0439L18.2494 12.7522C17.0757 13.8203 17.0265 13.8593 16.6823 13.9961C16.3031 14.1469 15.8773 14.4073 15.5235 14.705C15.2766 14.9127 15.1244 15.0049 15.0284 15.0049C15.009 15.0049 15.0597 14.8993 15.1413 14.7702C15.3359 14.4619 15.4592 14.1883 15.5698 13.8186C15.668 13.4906 15.954 12.9638 16.3988 12.2917L16.6785 11.8691L16.814 11.8886C16.8886 11.8993 17.2513 11.9274 17.62 11.951ZM7.79653 12.4815C8.28713 13.1671 8.55716 13.6226 8.64882 13.919C8.74532 14.2312 8.94835 14.6476 9.12385 14.8932C9.31585 15.1618 9.31514 15.1575 9.15744 15.1016C9.07982 15.0741 8.8708 14.943 8.69303 14.8103C8.32229 14.5336 7.91091 14.3112 7.50557 14.1683C7.19758 14.0598 7.09229 13.9817 5.82166 12.9191C5.01552 12.245 4.99247 12.326 6.01802 12.2303C6.37651 12.1968 6.82066 12.1475 7.00503 12.1207C7.18939 12.0939 7.37543 12.0698 7.41845 12.0672C7.47775 12.0637 7.56929 12.164 7.79653 12.4815ZM19.9478 12.157C20.3922 12.218 21.3435 12.4037 21.5913 12.478L21.7333 12.5205L21.3527 12.7676C21.1433 12.9034 20.6997 13.1877 20.3667 13.3994L19.7614 13.7841L19.3797 13.7343C18.9066 13.6725 17.9235 13.6725 17.6068 13.7343C17.4767 13.7597 17.3644 13.7747 17.3573 13.7676C17.3503 13.7606 17.5238 13.5933 17.7429 13.3959C17.9621 13.1985 18.3845 12.8174 18.6815 12.549C19.2139 12.0679 19.2237 12.0612 19.3705 12.0796C19.4525 12.0899 19.7123 12.1247 19.9478 12.157ZM5.37408 12.7198C5.61558 12.9174 5.91373 13.1659 6.03664 13.2721C6.15955 13.3782 6.40992 13.5869 6.59305 13.7359L6.92595 14.0067L6.66754 13.976C6.13449 13.9127 5.34998 13.9571 4.54682 14.096C4.453 14.1122 4.27389 14.0218 3.42946 13.5324C2.87636 13.2119 2.41687 12.9428 2.4083 12.9344C2.37765 12.9043 2.43187 12.8865 3.00114 12.7396C3.70932 12.5569 4.55528 12.3862 4.85265 12.366C4.90661 12.3624 5.08644 12.4844 5.37408 12.7198ZM19.2402 13.8629L19.5568 13.9071L18.828 14.323C18.1363 14.7177 16.9816 15.312 16.1674 15.6924C15.9626 15.7881 15.5999 15.9593 15.3615 16.0728L14.928 16.2793L14.3745 16.1073C14.07 16.0127 13.5487 15.8729 13.216 15.7967C12.8636 15.7159 12.6382 15.6483 12.676 15.6346C12.7116 15.6216 13.0258 15.5652 13.374 15.5092C14.1408 15.3859 14.6894 15.2661 15.0869 15.1352C15.6297 14.9562 16.3487 14.5565 16.8704 14.1434C17.0634 13.9905 17.1927 13.9442 17.6386 13.8683C17.9923 13.808 18.8274 13.8052 19.2402 13.8629ZM6.95623 14.1626C7.14846 14.2053 7.27506 14.2667 7.51041 14.4316C7.67816 14.5492 8.01199 14.7472 8.25226 14.8717L8.68908 15.098L8.3126 15.1079C8.10556 15.1133 7.73504 15.1545 7.48922 15.1994C7.2434 15.2443 6.97523 15.2813 6.89329 15.2816C6.68751 15.2825 4.62463 14.2633 4.73596 14.2157C5.05128 14.0811 6.43938 14.0479 6.95623 14.1626ZM16.5585 14.2005C16.5585 14.2196 16.0122 14.5691 15.8881 14.6294L15.795 14.6747L15.8881 14.5965C15.9651 14.5317 16.5183 14.1884 16.5492 14.1862C16.5543 14.1858 16.5585 14.1923 16.5585 14.2005ZM8.36449 14.7479C8.4157 14.7904 8.32333 14.7555 8.15926 14.6705C7.99516 14.5854 7.81917 14.4822 7.76819 14.441C7.71716 14.3999 7.80953 14.4347 7.97341 14.5185C8.13729 14.6023 8.31327 14.7055 8.36449 14.7479ZM9.57497 15.3551C9.95722 15.434 10.5419 15.5166 11.4652 15.6222C11.583 15.6356 11.6793 15.6583 11.6793 15.6724C11.6793 15.6866 11.5243 15.7372 11.3348 15.7848C10.9431 15.8833 10.3 16.088 9.77982 16.2798L9.42598 16.4102L9.14664 16.2891C8.993 16.2225 8.47764 16.0046 8.00134 15.8049C7.52505 15.6052 7.13539 15.43 7.13539 15.4155C7.13539 15.3858 7.5357 15.3095 7.93154 15.2638C8.36739 15.2135 9.08001 15.2531 9.57497 15.3551ZM12.4987 15.5156C12.2908 15.5563 12.1384 15.5624 11.9028 15.5391L11.5862 15.5077L11.9587 15.487C12.1635 15.4756 12.4317 15.465 12.5546 15.4635L12.7781 15.4607L12.4987 15.5156ZM12.6991 15.8246C13.6548 16.0234 14.7318 16.3272 14.6728 16.3814C14.655 16.3978 14.1794 16.6466 13.6161 16.9343C13.0528 17.222 12.5062 17.504 12.4015 17.5609L12.2112 17.6642L11.3214 17.2518C10.832 17.025 10.264 16.767 10.0592 16.6786C9.63977 16.4976 9.64826 16.5021 9.67605 16.4743C9.74775 16.4026 10.8802 16.042 11.6607 15.8424C11.927 15.7742 12.1484 15.7172 12.1526 15.7155C12.1568 15.7139 12.4028 15.763 12.6991 15.8246Z" fill="#1D1D22"/>
</svg>
