<svg width="20" height="20" viewBox="0 0 20 20" fill="none" xmlns="http://www.w3.org/2000/svg">
<path fill-rule="evenodd" clip-rule="evenodd" d="M14.8702 18.736C17.9307 17.0261 20 13.7547 20 10C20 4.47715 15.5228 0 10 0C4.47715 0 0 4.47715 0 10C0 13.7017 2.01134 16.9337 5.00078 18.6626C5.0902 18.5912 5.18768 18.5299 5.29147 18.4801C5.21358 18.4412 5.14331 18.3988 5.08065 18.3565C4.44055 17.9256 4.12052 17.371 4.12052 16.6894C4.12052 15.3779 5.03662 14.5523 6.86802 14.2128C5.91634 13.6523 5.20088 13.0122 4.71996 12.2908C4.2415 11.5762 3.99059 10.7335 4.00027 9.87352C4.00027 8.62213 4.49306 7.55953 5.47859 6.68321C6.46415 5.80772 7.63342 5.37082 8.98475 5.37082C10.176 5.37082 11.1997 5.64006 12.0548 6.17348C12.6645 5.57573 13.5611 4.58848 13.6415 3.87726C13.6415 3.87726 13.8321 2.56066 12.7957 2.54711C11.7585 2.53355 11.6561 3.44122 11.6561 3.44122L11.5672 3.45477C11.5672 3.45477 11.485 1.94003 13.1022 2.00184C14.7194 2.0628 14.6373 3.76212 13.8388 4.68246C13.3439 5.25032 12.832 5.80319 12.3038 6.34029C12.3148 6.34806 12.3259 6.35571 12.3371 6.36337C12.3551 6.37575 12.3732 6.38818 12.391 6.40125H13.8185C13.8185 6.40125 14.1259 6.45628 14.3502 6.23107C14.491 6.09029 14.5173 6.05901 14.547 6.05535C14.5649 6.05315 14.5839 6.06088 14.6296 6.06088C14.7533 6.06088 14.2486 7.31567 14.2486 7.31567H13.3808L13.3977 7.33685C13.9184 8.15729 14.1783 9.02768 14.1783 9.94973C14.1783 11.1503 13.7474 12.2104 12.8871 13.1316C12.0269 14.063 10.5757 14.5634 8.53346 14.6328C6.41165 14.703 5.35159 15.134 5.35159 15.924C5.35159 16.294 5.5912 16.5548 6.07214 16.7046C6.54205 16.8655 7.53351 16.9849 9.04402 17.0653C10.6959 17.1449 11.9668 17.2982 12.8575 17.5235C13.6824 17.7306 14.3538 18.1358 14.8702 18.736ZM12.6499 19.6451C11.883 19.3797 10.756 19.2148 9.26924 19.1515C7.98818 19.0975 6.9747 18.9831 6.22961 18.8053C6.14424 18.925 6.06811 19.046 6.00127 19.1685C7.22586 19.7033 8.57828 20 10 20C10.9174 20 11.8059 19.8765 12.6499 19.6451ZM6.94252 7.09638C6.48192 7.78727 6.25163 8.82786 6.25163 10.219C6.25163 11.5102 6.51666 12.4559 7.04751 13.0571C7.57754 13.6574 8.25321 13.9571 9.07365 13.9571C9.83397 13.9571 10.4885 13.6591 11.0337 13.0647C11.5782 12.4686 11.8516 11.4357 11.8516 9.96413C11.8516 8.48242 11.5612 7.46216 10.9812 6.90164C10.4004 6.34198 9.74507 6.06003 9.01352 6.06003C8.09402 6.06003 7.40228 6.40549 6.94252 7.09638Z" fill="#2F89E2"/>
</svg>
