<svg width="20" height="20" viewBox="0 0 20 20" fill="none" xmlns="http://www.w3.org/2000/svg">
<path d="M10.4546 0.441059C11.3705 0.489079 12.1511 0.63302 12.9927 0.909004C13.778 1.16653 14.6154 1.56917 15.2489 1.9938L15.3627 2.0701L15.1089 2.19757C14.4642 2.52132 13.9973 2.90617 13.1265 3.83172L12.7784 4.20162L12.3234 4.05831C11.4816 3.79318 10.8727 3.69957 9.99013 3.69957C8.93636 3.69957 8.14462 3.84871 7.21249 4.22279L6.80318 4.38705L6.58339 4.15778C5.62332 3.15619 5.16334 2.77271 4.50467 2.42481L4.29089 2.31188L4.53925 2.14019C5.85096 1.23343 7.33674 0.67355 8.92847 0.486256C9.12389 0.463273 9.35164 0.448386 9.93179 0.420643C9.97029 0.418823 10.2056 0.427993 10.4546 0.441059Z" fill="white"/>
<path fill-rule="evenodd" clip-rule="evenodd" d="M19.1401 7.16011C19.5893 8.59738 19.6861 10.1953 19.4153 11.7029C19.1378 13.2479 18.4633 14.7282 17.4665 15.98C17.1463 16.382 16.3941 17.134 15.9867 17.4591C14.3878 18.7354 12.5018 19.4465 10.4442 19.5488C8.13622 19.6636 5.85227 18.9212 4.01687 17.4598C3.61484 17.1396 2.86291 16.3874 2.53774 15.98C1.42331 14.5839 0.737292 12.9592 0.506085 11.1684C0.395253 10.31 0.422296 9.22049 0.576084 8.3501C0.627323 8.05995 0.755958 7.51011 0.772572 7.51011C0.780458 7.51011 0.821758 7.58099 0.864364 7.66761C1.06528 8.0761 1.46801 8.71904 1.79475 9.15292C2.01527 9.44575 2.36706 9.85914 2.71864 10.2386C3.06539 10.6128 3.09489 10.6683 3.1549 11.0602C3.25301 11.7006 3.40263 12.2221 3.64181 12.757C4.31667 14.2666 5.64628 15.56 7.15516 16.1748C7.4884 16.3106 7.90989 16.4553 8.17825 16.5261C8.20946 16.5343 8.23803 16.542 8.26407 16.5489C8.40197 16.5859 8.46877 16.6038 8.47977 16.5864C8.4901 16.5701 8.45122 16.5226 8.37581 16.4305C8.36065 16.412 8.34402 16.3917 8.32601 16.3695C7.92023 15.8688 7.7513 15.4563 7.75071 14.965C7.7502 14.5197 7.95331 13.9751 8.27722 13.5534C8.39349 13.402 8.50031 13.2993 8.80014 13.0507C8.92206 12.9496 9.12869 12.76 9.25931 12.6294C9.47195 12.4167 9.50909 12.3664 9.61386 12.1501C9.61639 12.1448 9.61889 12.1397 9.62136 12.1346C9.65951 12.0558 9.68977 11.9934 9.71393 11.9287C9.8065 11.6808 9.80981 11.3996 9.82577 10.0414C9.82604 10.0185 9.82631 9.99529 9.82658 9.97174C9.84614 8.31188 9.85048 8.24619 9.95356 8.04894C10.0172 7.92721 10.201 7.74152 10.3051 7.69386C10.6145 7.55222 10.946 7.77575 11.1226 8.24515C11.221 8.50643 11.2825 9.0086 11.3554 10.1467C11.4228 11.1985 11.5053 11.6427 11.7086 12.0484C11.8357 12.3019 11.9453 12.4323 12.4642 12.9467C13.0607 13.538 13.2574 13.7922 13.4766 14.2549C13.6309 14.5808 13.6845 14.8308 13.6687 15.1517C13.6617 15.2928 13.6405 15.4871 13.6216 15.5833C13.6027 15.6795 13.5921 15.7632 13.5982 15.7693C13.6626 15.8336 14.595 15.0878 15.083 14.5816C15.441 14.2103 15.8467 13.7148 15.8467 13.6489C15.8467 13.6095 15.741 13.6189 15.4734 13.682C14.9965 13.7945 14.5827 13.7795 14.1417 13.634C13.4656 13.4107 12.8909 12.8896 12.6125 12.2472C12.4786 11.9382 12.458 11.7922 12.469 11.2317C12.48 10.6763 12.494 10.6134 12.6923 10.2289C13.0068 9.61904 13.5112 9.18355 14.1685 8.9544C14.3 8.90855 14.3771 8.90094 14.7967 8.8924C15.373 8.88067 15.5093 8.90342 15.8568 9.06941C16.1844 9.22593 16.4125 9.38522 16.7001 9.65843C16.8348 9.78634 16.9641 9.89008 16.9888 9.89008C17.0927 9.89008 17.9465 8.79053 18.3684 8.11322C18.5262 7.86003 18.8953 7.14796 18.9835 6.92678C18.9855 6.92162 18.9875 6.91666 18.9894 6.91191C19.0042 6.87427 19.0137 6.85029 19.0243 6.84977C19.0429 6.84884 19.0651 6.91998 19.1263 7.11584C19.1279 7.1211 19.1296 7.12645 19.1313 7.13189C19.1322 7.13475 19.1331 7.13762 19.134 7.14053C19.136 7.14693 19.138 7.15346 19.1401 7.16011ZM13.3411 10.06C13.6143 9.67721 14.0647 9.36193 14.5051 9.24515C14.6799 9.19881 15.1788 9.21972 15.4145 9.2833C15.9905 9.43863 16.3652 9.71727 16.5974 10.1628C16.8401 10.6286 16.9178 11.0355 16.8399 11.4338C16.7007 12.146 16.2055 12.7382 15.5845 12.9352C15.1117 13.0851 14.4179 13.0546 14.1609 12.8724C14.1014 12.8302 14.0967 12.8151 14.0967 12.664C14.0967 12.4811 14.0614 12.3908 13.9629 12.322C13.8528 12.245 13.7757 12.2389 13.6247 12.2954L13.487 12.3469L13.4244 12.3004C13.3434 12.2403 13.1594 11.8785 13.1049 11.6723C13.0767 11.5659 13.0589 11.3959 13.0521 11.1684C13.0367 10.6596 13.1078 10.387 13.3411 10.06ZM9.78862 14.3326C9.89672 14.2342 10.087 14.157 10.3287 14.1135C10.3927 14.1019 10.6656 14.0963 10.9351 14.1009C12.196 14.1224 12.4325 14.3649 11.8011 14.9888C11.5738 15.2134 11.3203 15.3522 11.1078 15.3684C10.7887 15.3929 10.1722 15.1365 9.84994 14.8454C9.72873 14.7359 9.68113 14.6444 9.68243 14.5235C9.68334 14.441 9.69751 14.4156 9.78862 14.3326ZM11.2876 17.3315C11.5262 17.2983 11.8593 17.2128 12.0324 17.1403C12.2091 17.0663 12.2131 17.0661 12.194 17.1292C12.1087 17.4107 11.7765 17.8048 11.5128 17.9373C10.9666 18.2117 10.4213 18.0964 9.93179 17.6031C9.82913 17.4996 9.72201 17.3681 9.69377 17.3108C9.66552 17.2535 9.64468 17.2043 9.64743 17.2016C9.65021 17.1988 9.72502 17.2167 9.81366 17.2412C10.2028 17.3491 10.868 17.3899 11.2876 17.3315Z" fill="white"/>
<path fill-rule="evenodd" clip-rule="evenodd" d="M6.69016 9.03987C7.15792 9.12305 7.54597 9.32243 7.91029 9.6668C8.17092 9.91315 8.45047 10.3534 8.55594 10.6837C8.60881 10.8493 8.63319 11.7815 8.59117 12.0307C8.53139 12.385 8.29265 12.8035 7.96141 13.1344C7.7204 13.3752 7.54046 13.5045 7.24849 13.6467C6.31781 14.0998 5.23761 13.8968 4.47039 13.1246C4.04491 12.6963 3.85067 12.2865 3.78076 11.6696C3.73101 11.2306 3.80668 10.8169 4.01549 10.3863C4.21744 9.96983 4.45583 9.66977 4.75482 9.45576C4.9381 9.32455 5.38477 9.11087 5.57939 9.06131C5.90236 8.97902 6.30425 8.97127 6.69016 9.03987ZM4.43537 11.8151C4.12833 10.6958 4.77447 9.6112 5.89518 9.36459C6.29718 9.27614 6.82036 9.3655 7.20029 9.58752C7.85452 9.96985 8.16653 10.5192 8.16933 11.2938C8.1705 11.616 8.12096 11.8454 7.99634 12.0951C7.7481 12.5923 7.27341 12.975 6.73727 13.1102C6.5244 13.1638 5.97038 13.1729 5.79242 13.1257C5.6516 13.0883 5.63023 13.0466 5.68028 12.907C5.74501 12.7264 5.73409 12.6356 5.63443 12.5253C5.44508 12.3157 5.32984 12.3169 5.10099 12.531C4.95061 12.6717 4.94872 12.6726 4.9007 12.6291C4.72612 12.4712 4.51316 12.0986 4.43537 11.8151Z" fill="white"/>
<path d="M6.92699 9.78531C7.08442 9.83207 7.26637 9.99536 7.32129 10.1392C7.43432 10.4351 7.30515 10.7498 7.01516 10.8852C6.79413 10.9883 6.50044 10.927 6.36755 10.7501C6.27084 10.6213 6.18684 10.4337 6.18684 10.3465C6.18684 10.1359 6.40041 9.84922 6.60399 9.78655C6.74464 9.74322 6.78477 9.74308 6.92699 9.78531Z" fill="white"/>
<path d="M15.8057 9.75867C15.8599 9.80015 15.935 9.89341 15.9793 9.9744C16.0826 10.163 16.089 10.3093 16.0004 10.4603C15.9241 10.5906 15.724 10.7457 15.5742 10.7908C15.4752 10.8206 15.4493 10.8202 15.3431 10.7868C15.115 10.715 14.8811 10.4865 14.8519 10.3069C14.8439 10.2574 14.8542 10.1683 14.877 10.0897C14.9288 9.9114 15.0596 9.77173 15.2697 9.67009L15.432 9.59158L15.5711 9.63857C15.6477 9.66442 15.7532 9.71846 15.8057 9.75867Z" fill="white"/>
<path d="M17.4643 4.01015C17.7365 4.35011 18.0459 4.7975 18.2585 5.15877L18.3917 5.3851L18.3201 5.74177C18.1362 6.65801 17.8562 7.49216 17.523 8.1163C17.3687 8.4054 17.0546 8.86781 16.9126 9.01509C16.8099 9.1216 16.7975 9.12821 16.7701 9.09101C16.7536 9.06861 16.7335 8.9877 16.7255 8.91119C16.6872 8.54437 16.2546 7.45931 15.9369 6.93306C15.7722 6.66039 15.4587 6.24658 15.1932 5.95155C14.9323 5.66173 14.6452 5.40278 14.1982 5.05417C13.985 4.88789 13.8634 4.77764 13.8634 4.75051C13.8634 4.69442 13.9297 4.63475 14.3116 4.34692C15.0234 3.81042 15.5974 3.46612 16.3367 3.13199L16.5584 3.03182L16.8852 3.36348C17.0649 3.54589 17.3255 3.8369 17.4643 4.01015Z" fill="white"/>
<path d="M18.4946 2.54003C18.5901 2.57631 18.6234 2.68934 18.6233 2.97692C18.6232 3.36889 18.5171 4.66376 18.4851 4.66327C18.4777 4.66315 18.4297 4.59768 18.3784 4.51774C18.1026 4.08832 17.6294 3.49255 17.2432 3.08866C17.0353 2.87115 17.0328 2.86716 17.0903 2.8453C17.3562 2.74419 18.2205 2.52601 18.3827 2.51903C18.4107 2.51782 18.4611 2.52727 18.4946 2.54003Z" fill="white"/>
<path d="M3.71179 3.23351C4.18459 3.43497 4.65748 3.69049 5.12519 3.99722C5.43078 4.19763 6.14017 4.72531 6.14017 4.75219C6.14017 4.7626 6.01679 4.86482 5.86601 4.97936C4.90896 5.70632 4.26809 6.44918 3.7897 7.38609C3.56761 7.82102 3.43107 8.17715 3.28426 8.70441L3.1612 9.14631L3.03179 8.98737C2.8406 8.75257 2.72695 8.56702 2.52236 8.15559C2.11455 7.33553 1.86071 6.51575 1.6988 5.49579L1.66611 5.28978L1.81432 5.04537C2.17699 4.44727 2.61973 3.87127 3.0811 3.39729C3.31972 3.1521 3.37967 3.1021 3.4198 3.11463C3.44661 3.12301 3.578 3.17651 3.71179 3.23351Z" fill="white"/>
<path d="M2.14402 2.71526C2.39851 2.76939 2.86823 2.90041 2.89156 2.92372C2.89714 2.9293 2.78743 3.05842 2.64778 3.21067C2.32863 3.55854 2.04189 3.9157 1.7814 4.28975L1.57856 4.58104L1.56347 4.41808C1.55516 4.32848 1.53692 4.0084 1.52292 3.70682C1.50892 3.40524 1.49153 3.04561 1.48428 2.90767L1.47107 2.65683H1.67026C1.79419 2.65683 1.97327 2.67891 2.14402 2.71526Z" fill="white"/>
<path d="M18.4851 4.66327C18.4777 4.66315 18.4297 4.59768 18.3784 4.51774C18.1026 4.08832 17.6294 3.49255 17.2432 3.08866C17.0353 2.87115 17.0328 2.86716 17.0903 2.8453L16.5584 3.03182L16.8852 3.36348C17.0649 3.54589 17.3255 3.8369 17.4643 4.01015C17.7365 4.35011 18.0459 4.7975 18.2585 5.15877L18.3917 5.3851L18.4851 4.66327Z" fill="white"/>
<path d="M2.89156 2.92372C2.89714 2.9293 2.78743 3.05842 2.64778 3.21067C2.32863 3.55854 2.04189 3.9157 1.7814 4.28975L1.57856 4.58104L1.66611 5.28978L1.81432 5.04537C2.17699 4.44727 2.61973 3.87127 3.0811 3.39729C3.31972 3.1521 3.37967 3.1021 3.4198 3.11463L2.89156 2.92372Z" fill="white"/>
</svg>
