<svg width="24" height="24" viewBox="0 0 24 24" fill="none" xmlns="http://www.w3.org/2000/svg">
<path d="M12.5455 0.529271C13.6446 0.586895 14.5813 0.759624 15.5913 1.0908C16.5336 1.39984 17.5385 1.883 18.2987 2.39256L18.4353 2.48412L18.1307 2.63708C17.3571 3.02558 16.7968 3.48741 15.7518 4.59807L15.3341 5.04195L14.7881 4.86997C13.7779 4.55181 13.0472 4.43948 11.9882 4.43948C10.7236 4.43948 9.77355 4.61845 8.65499 5.06734L8.16382 5.26446L7.90006 4.98934C6.74799 3.78742 6.196 3.32725 5.4056 2.90977L5.14907 2.77426L5.4471 2.56823C7.02115 1.48011 8.80409 0.80826 10.7142 0.583507C10.9487 0.555927 11.222 0.538063 11.9182 0.504772C11.9644 0.502588 12.2467 0.513592 12.5455 0.529271Z" fill="#1D1D22"/>
<path fill-rule="evenodd" clip-rule="evenodd" d="M22.9681 8.59213C23.5072 10.3169 23.6233 12.2344 23.2984 14.0435C22.9653 15.8975 22.1559 17.6738 20.9598 19.176C20.5756 19.6584 19.6729 20.5608 19.1841 20.951C17.2654 22.4825 15.0021 23.3358 12.533 23.4586C9.76347 23.5963 7.02272 22.7055 4.82024 20.9517C4.33781 20.5676 3.43549 19.6648 3.04529 19.176C1.70797 17.5006 0.88475 15.551 0.607302 13.4021C0.474303 12.3721 0.506755 11.0646 0.691301 10.0201C0.752788 9.67194 0.90715 9.01213 0.927086 9.01213C0.93655 9.01213 0.986109 9.09719 1.03724 9.20113C1.27834 9.69132 1.76162 10.4628 2.15369 10.9835C2.41832 11.3349 2.84047 11.831 3.26237 12.2863C3.67847 12.7353 3.71386 12.802 3.78588 13.2722C3.90362 14.0407 4.08315 14.6665 4.37017 15.3084C5.18001 17.1199 6.77554 18.672 8.58619 19.4098C8.98608 19.5727 9.49187 19.7464 9.81389 19.8313C9.85135 19.8412 9.88564 19.8503 9.91688 19.8587C10.0824 19.9031 10.1625 19.9246 10.1757 19.9037C10.1881 19.8841 10.1415 19.8271 10.051 19.7166C10.0328 19.6944 10.0128 19.6701 9.99122 19.6434C9.50427 19.0426 9.30156 18.5476 9.30086 17.958C9.30024 17.4237 9.54398 16.7702 9.93267 16.264C10.0722 16.0823 10.2004 15.9591 10.5602 15.6609C10.7065 15.5396 10.9544 15.312 11.1112 15.1552C11.3663 14.9 11.4109 14.8397 11.5366 14.5801C11.5397 14.5738 11.5427 14.5676 11.5456 14.5615C11.5914 14.467 11.6277 14.3921 11.6567 14.3144C11.7678 14.017 11.7718 13.6795 11.7909 12.0497C11.7912 12.0222 11.7916 11.9943 11.7919 11.9661C11.8154 9.97425 11.8206 9.89543 11.9443 9.65872C12.0206 9.51265 12.2412 9.28983 12.3661 9.23263C12.7374 9.06267 13.1352 9.3309 13.3472 9.89417C13.4652 10.2077 13.5389 10.8103 13.6265 12.1761C13.7074 13.4382 13.8063 13.9713 14.0503 14.4581C14.2028 14.7623 14.3344 14.9187 14.9571 15.536C15.6728 16.2456 15.9089 16.5507 16.1719 17.1059C16.3571 17.4969 16.4214 17.797 16.4024 18.182C16.394 18.3514 16.3686 18.5845 16.3459 18.7C16.3232 18.8154 16.3106 18.9158 16.3178 18.9231C16.3951 19.0003 17.514 18.1053 18.0996 17.498C18.5292 17.0523 19.0161 16.4578 19.0161 16.3787C19.0161 16.3314 18.8892 16.3427 18.5681 16.4184C17.9958 16.5534 17.4992 16.5354 16.97 16.3607C16.1587 16.0929 15.4691 15.4675 15.135 14.6966C14.9743 14.3259 14.9496 14.1506 14.9628 13.4781C14.976 12.8116 14.9928 12.7361 15.2308 12.2746C15.6082 11.5428 16.2135 11.0203 17.0022 10.7453C17.16 10.6903 17.2526 10.6811 17.7561 10.6709C18.4476 10.6568 18.6111 10.6841 19.0281 10.8833C19.4213 11.0711 19.695 11.2623 20.0402 11.5901C20.2018 11.7436 20.3569 11.8681 20.3865 11.8681C20.5112 11.8681 21.5358 10.5486 22.0421 9.73586C22.2314 9.43204 22.6744 8.57755 22.7802 8.31214C22.7826 8.30594 22.785 8.29999 22.7872 8.29429C22.8051 8.24912 22.8164 8.22035 22.8292 8.21972C22.8515 8.21861 22.8781 8.30397 22.9515 8.53901C22.9535 8.54532 22.9555 8.55174 22.9575 8.55827C22.9586 8.5617 22.9597 8.56515 22.9608 8.56863C22.9632 8.57632 22.9656 8.58415 22.9681 8.59213ZM16.0094 12.072C16.3372 11.6127 16.8776 11.2343 17.4061 11.0942C17.6159 11.0386 18.2145 11.0637 18.4974 11.14C19.1885 11.3264 19.6383 11.6607 19.9169 12.1954C20.2082 12.7543 20.3013 13.2426 20.2079 13.7206C20.0408 14.5752 19.4466 15.2858 18.7015 15.5222C18.134 15.7022 17.3014 15.6655 16.9931 15.4468C16.9217 15.3962 16.9161 15.3781 16.9161 15.1967C16.9161 14.9773 16.8737 14.869 16.7555 14.7864C16.6234 14.694 16.5308 14.6867 16.3497 14.7545L16.1844 14.8163L16.1093 14.7605C16.0121 14.6884 15.7913 14.2543 15.7259 14.0068C15.6921 13.8791 15.6707 13.6751 15.6625 13.4021C15.6441 12.7915 15.7294 12.4644 16.0094 12.072ZM11.7463 17.1991C11.8761 17.081 12.1044 16.9884 12.3945 16.9362C12.4713 16.9223 12.7987 16.9156 13.1221 16.9211C14.6352 16.9469 14.919 17.2378 14.1613 17.9865C13.8886 18.256 13.5844 18.4226 13.3294 18.4421C12.9464 18.4714 12.2066 18.1638 11.8199 17.8145C11.6745 17.6831 11.6174 17.5733 11.6189 17.4282C11.62 17.3292 11.637 17.2987 11.7463 17.1991ZM13.5452 20.7978C13.8315 20.758 14.2311 20.6554 14.4389 20.5683C14.6509 20.4796 14.6557 20.4793 14.6328 20.555C14.5304 20.8928 14.1318 21.3657 13.8153 21.5248C13.16 21.854 12.5055 21.7157 11.9182 21.1237C11.795 20.9996 11.6664 20.8417 11.6325 20.7729C11.5986 20.7042 11.5736 20.6452 11.5769 20.6419C11.5803 20.6386 11.67 20.66 11.7764 20.6895C12.2433 20.8189 13.0416 20.8678 13.5452 20.7978Z" fill="#1D1D22"/>
<path fill-rule="evenodd" clip-rule="evenodd" d="M8.02819 10.8478C8.5895 10.9477 9.05516 11.1869 9.49235 11.6002C9.8051 11.8958 10.1406 12.4241 10.2671 12.8204C10.3306 13.0191 10.3598 14.1377 10.3094 14.4368C10.2377 14.862 9.95118 15.3642 9.55369 15.7613C9.26449 16.0503 9.04855 16.2054 8.69819 16.376C7.58137 16.9198 6.28513 16.6762 5.36447 15.7495C4.8539 15.2356 4.6208 14.7438 4.53691 14.0036C4.47722 13.4767 4.56802 12.9803 4.81859 12.4635C5.06093 11.9638 5.347 11.6037 5.70579 11.3469C5.92572 11.1895 6.46172 10.933 6.69527 10.8736C7.08284 10.7748 7.5651 10.7655 8.02819 10.8478ZM5.32244 14.1781C4.954 12.835 5.72936 11.5334 7.07421 11.2375C7.55662 11.1314 8.18443 11.2386 8.64034 11.505C9.42543 11.9638 9.79984 12.6231 9.8032 13.5526C9.8046 13.9392 9.74516 14.2145 9.59561 14.5141C9.29772 15.1107 8.7281 15.57 8.08472 15.7322C7.82928 15.7966 7.16446 15.8075 6.9509 15.7508C6.78192 15.7059 6.75628 15.6559 6.81634 15.4884C6.89401 15.2717 6.8809 15.1627 6.76132 15.0303C6.5341 14.7788 6.39581 14.7803 6.12119 15.0372C5.94073 15.206 5.93846 15.2071 5.88084 15.155C5.67135 14.9654 5.41579 14.5183 5.32244 14.1781Z" fill="#1D1D22"/>
<path d="M8.31239 11.7424C8.5013 11.7985 8.71964 11.9944 8.78555 12.167C8.92118 12.5221 8.76618 12.8998 8.4182 13.0622C8.15296 13.186 7.80052 13.1125 7.64107 12.9001C7.52501 12.7455 7.42421 12.5204 7.42421 12.4158C7.42421 12.1631 7.68049 11.8191 7.92479 11.7439C8.09357 11.6919 8.14173 11.6917 8.31239 11.7424Z" fill="#1D1D22"/>
<path d="M18.9669 11.7104C19.0319 11.7602 19.122 11.8721 19.1752 11.9693C19.2991 12.1956 19.3068 12.3712 19.2005 12.5524C19.1089 12.7088 18.8688 12.8949 18.689 12.949C18.5703 12.9847 18.5391 12.9842 18.4118 12.9441C18.138 12.858 17.8573 12.5838 17.8223 12.3683C17.8127 12.3088 17.825 12.202 17.8524 12.1076C17.9146 11.8937 18.0715 11.7261 18.3236 11.6041L18.5184 11.5099L18.6854 11.5663C18.7772 11.5973 18.9039 11.6622 18.9669 11.7104Z" fill="#1D1D22"/>
<path d="M20.9571 4.81218C21.2838 5.22014 21.6551 5.757 21.9102 6.19052L22.0701 6.46212L21.9842 6.89012C21.7634 7.98961 21.4274 8.9906 21.0276 9.73956C20.8424 10.0865 20.4655 10.6414 20.2951 10.8181C20.1719 10.9459 20.157 10.9538 20.1241 10.9092C20.1043 10.8823 20.0802 10.7852 20.0706 10.6934C20.0246 10.2532 19.5055 8.95117 19.1242 8.31967C18.9267 7.99247 18.5505 7.49589 18.2318 7.14186C17.9188 6.79408 17.5743 6.48334 17.0378 6.065C16.7819 5.86547 16.6361 5.73317 16.6361 5.70061C16.6361 5.6333 16.7156 5.5617 17.1739 5.2163C18.0281 4.5725 18.7168 4.15934 19.6041 3.75839L19.8701 3.63818L20.2622 4.03617C20.4779 4.25507 20.7906 4.60428 20.9571 4.81218Z" fill="#1D1D22"/>
<path d="M22.1935 3.04804C22.3081 3.09158 22.348 3.22721 22.348 3.5723C22.3479 4.04267 22.2205 5.59651 22.1821 5.59592C22.1733 5.59578 22.1156 5.51721 22.054 5.42129C21.7231 4.90598 21.1552 4.19107 20.6919 3.70639C20.4424 3.44538 20.4394 3.44059 20.5084 3.41436C20.8275 3.29303 21.8646 3.03121 22.0592 3.02284C22.0929 3.02138 22.1533 3.03272 22.1935 3.04804Z" fill="#1D1D22"/>
<path d="M4.45415 3.88021C5.0215 4.12196 5.58897 4.42859 6.15022 4.79667C6.51694 5.03716 7.36821 5.67037 7.36821 5.70263C7.36821 5.71511 7.22015 5.83778 7.03921 5.97523C5.89075 6.84759 5.12171 7.73901 4.54764 8.86331C4.28114 9.38522 4.11728 9.81258 3.94111 10.4453L3.79344 10.9756L3.63815 10.7848C3.40872 10.5031 3.27234 10.2804 3.02684 9.78671C2.53746 8.80264 2.23285 7.8189 2.03856 6.59495L1.99933 6.34774L2.17719 6.05444C2.61238 5.33673 3.14368 4.64553 3.69732 4.07674C3.98367 3.78252 4.0556 3.72252 4.10376 3.73756C4.13593 3.74761 4.2936 3.81181 4.45415 3.88021Z" fill="#1D1D22"/>
<path d="M2.57282 3.25831C2.87821 3.32327 3.44187 3.48049 3.46987 3.50846C3.47657 3.51515 3.34491 3.6701 3.17733 3.8528C2.79435 4.27025 2.45027 4.69884 2.13768 5.1477L1.89428 5.49725L1.87616 5.3017C1.86619 5.19418 1.8443 4.81008 1.8275 4.44819C1.8107 4.08629 1.78984 3.65473 1.78113 3.4892L1.76528 3.1882H2.00432C2.15302 3.1882 2.36792 3.21469 2.57282 3.25831Z" fill="#1D1D22"/>
<path d="M22.1821 5.59592C22.1733 5.59578 22.1156 5.51721 22.054 5.42129C21.7231 4.90598 21.1552 4.19107 20.6919 3.70639C20.4424 3.44538 20.4394 3.44059 20.5084 3.41436L19.8701 3.63818L20.2622 4.03617C20.4779 4.25507 20.7906 4.60428 20.9571 4.81218C21.2838 5.22014 21.6551 5.757 21.9102 6.19052L22.0701 6.46212L22.1821 5.59592Z" fill="#1D1D22"/>
<path d="M3.46987 3.50846C3.47657 3.51515 3.34491 3.6701 3.17733 3.8528C2.79435 4.27025 2.45027 4.69884 2.13768 5.1477L1.89428 5.49725L1.99933 6.34774L2.17719 6.05444C2.61238 5.33673 3.14368 4.64553 3.69732 4.07674C3.98367 3.78252 4.0556 3.72252 4.10376 3.73756L3.46987 3.50846Z" fill="#1D1D22"/>
</svg>
