<svg width="20" height="20" viewBox="0 0 20 20" fill="none" xmlns="http://www.w3.org/2000/svg">
<g clip-path="url(#clip0_7348_85189)">
<path fill-rule="evenodd" clip-rule="evenodd" d="M5.68767 15.9323L7.67134 13.9487C8.54678 14.4658 9.56931 14.6771 10.578 14.5494C11.5867 14.4217 12.5243 13.9623 13.2433 13.2433C13.9623 12.5243 14.4217 11.5867 14.5494 10.578C14.6771 9.56931 14.4658 8.54678 13.9487 7.67134L15.9323 5.68767C16.9606 7.10028 17.4507 8.83361 17.3144 10.5755C17.1781 12.3174 16.4243 13.9534 15.1889 15.1889C13.9534 16.4243 12.3174 17.1781 10.5755 17.3144C8.83361 17.4507 7.10028 16.9606 5.68767 15.9323V15.9323ZM4.06701 14.3117C3.03875 12.8991 2.54864 11.1657 2.68495 9.42384C2.82125 7.68195 3.57501 6.04595 4.81048 4.81048C6.04595 3.57501 7.68195 2.82125 9.42384 2.68495C11.1657 2.54864 12.8991 3.03875 14.3117 4.06701L12.328 6.05067C11.4526 5.53356 10.43 5.32222 9.42133 5.44991C8.41262 5.57761 7.47501 6.03709 6.75605 6.75605C6.03709 7.47501 5.57761 8.41262 5.44991 9.42133C5.32222 10.43 5.53356 11.4526 6.05067 12.328L4.06701 14.3117ZM17.333 4.49967C16.8468 4.49967 16.3805 4.30652 16.0366 3.9627C15.6928 3.61889 15.4997 3.15257 15.4997 2.66634C15.4997 2.18011 15.6928 1.7138 16.0366 1.36998C16.3805 1.02616 16.8468 0.833008 17.333 0.833008C17.8192 0.833008 18.2856 1.02616 18.6294 1.36998C18.9732 1.7138 19.1663 2.18011 19.1663 2.66634C19.1663 3.15257 18.9732 3.61889 18.6294 3.9627C18.2856 4.30652 17.8192 4.49967 17.333 4.49967ZM2.66634 19.1663C2.18011 19.1663 1.7138 18.9732 1.36998 18.6294C1.02616 18.2856 0.833008 17.8192 0.833008 17.333C0.833008 16.8468 1.02616 16.3805 1.36998 16.0366C1.7138 15.6928 2.18011 15.4997 2.66634 15.4997C3.15257 15.4997 3.61889 15.6928 3.9627 16.0366C4.30652 16.3805 4.49967 16.8468 4.49967 17.333C4.49967 17.8192 4.30652 18.2856 3.9627 18.6294C3.61889 18.9732 3.15257 19.1663 2.66634 19.1663Z" fill="white"/>
</g>
<defs>
<clipPath id="clip0_7348_85189">
<rect width="20" height="20" fill="white"/>
</clipPath>
</defs>
</svg>
