<svg width="24" height="24" viewBox="0 0 24 24" fill="none" xmlns="http://www.w3.org/2000/svg">
<path fill-rule="evenodd" clip-rule="evenodd" d="M6.8256 19.1192L9.206 16.7388C10.2565 17.3593 11.4836 17.6129 12.694 17.4597C13.9045 17.3065 15.0296 16.7551 15.8923 15.8923C16.7551 15.0296 17.3065 13.9045 17.4597 12.694C17.6129 11.4836 17.3593 10.2565 16.7388 9.206L19.1192 6.8256C20.3531 8.52073 20.9412 10.6007 20.7777 12.691C20.6141 14.7813 19.7096 16.7445 18.227 18.227C16.7445 19.7096 14.7813 20.6141 12.691 20.7777C10.6007 20.9412 8.52073 20.3531 6.8256 19.1192ZM4.8808 17.1744C3.64689 15.4793 3.05876 13.3993 3.22233 11.309C3.38589 9.21873 4.2904 7.25554 5.77297 5.77297C7.25554 4.2904 9.21873 3.38589 11.309 3.22233C13.3993 3.05876 15.4793 3.64689 17.1744 4.8808L14.794 7.2612C13.7435 6.64066 12.5164 6.38705 11.306 6.54029C10.0955 6.69352 8.9704 7.2449 8.10765 8.10765C7.2449 8.9704 6.69352 10.0955 6.54029 11.306C6.38705 12.5164 6.64066 13.7435 7.2612 14.794L4.8808 17.1744ZM20.8 5.4C20.2165 5.4 19.6569 5.16821 19.2444 4.75563C18.8318 4.34305 18.6 3.78348 18.6 3.2C18.6 2.61652 18.8318 2.05694 19.2444 1.64437C19.6569 1.23178 20.2165 1 20.8 1C21.3835 1 21.9431 1.23178 22.3556 1.64437C22.7682 2.05694 23 2.61652 23 3.2C23 3.78348 22.7682 4.34305 22.3556 4.75563C21.9431 5.16821 21.3835 5.4 20.8 5.4ZM3.2 23C2.61652 23 2.05694 22.7682 1.64437 22.3556C1.23178 21.9431 1 21.3835 1 20.8C1 20.2165 1.23178 19.6569 1.64437 19.2444C2.05694 18.8318 2.61652 18.6 3.2 18.6C3.78348 18.6 4.34305 18.8318 4.75563 19.2444C5.16821 19.6569 5.4 20.2165 5.4 20.8C5.4 21.3835 5.16821 21.9431 4.75563 22.3556C4.34305 22.7682 3.78348 23 3.2 23Z" fill="#1D1D22"/>
</svg>
