<svg width="24" height="24" viewBox="0 0 24 24" fill="none" xmlns="http://www.w3.org/2000/svg">
<path d="M14.4111 1V6.41631L19.1138 3.71163L14.4111 1Z" fill="#1D1D22"/>
<path opacity="0.9" d="M19.1128 3.71143V9.12773L23.8144 6.4161L19.1128 3.71143Z" fill="#1D1D22"/>
<path opacity="0.8" d="M14.4111 6.4176V11.8339L19.1138 9.12918L14.4111 6.4176ZM19.1138 9.1302V14.5455L23.8155 11.8339L19.1138 9.1302Z" fill="#1D1D22"/>
<path opacity="0.8" d="M14.4111 11.8326V17.2489L19.1138 14.5442L14.4111 11.8326Z" fill="#1D1D22"/>
<path d="M19.1128 14.5439V19.9603L23.8144 17.2486L19.1128 14.5439Z" fill="#1D1D22"/>
<path opacity="0.4" d="M2.25635 6.23413V11.6504L6.959 8.93881L2.25635 6.23413Z" fill="#1D1D22"/>
<path opacity="0.2" d="M8.18848 8.24756V13.6639L12.8832 10.9592L8.18848 8.24756Z" fill="#1D1D22"/>
<path opacity="0.3" d="M4.70264 11.6724V17.0886L9.40431 14.377L4.70264 11.6724Z" fill="#1D1D22"/>
<path opacity="0.9" d="M7.80078 15.7588V21.1751L12.4955 18.4635L7.80078 15.7588Z" fill="#1D1D22"/>
<path opacity="0.7" d="M14.3721 18.0903V23.5076L19.0668 20.795L14.3721 18.0903Z" fill="#1D1D22"/>
<path opacity="0.9" d="M8.97168 5.57239V10.9897L13.6664 8.28498L8.97168 5.57239Z" fill="#1D1D22"/>
<path opacity="0.8" d="M14.4107 1V6.41631L9.70801 3.71163L14.4107 1Z" fill="#1D1D22"/>
<path opacity="0.6" d="M8.97075 3.30298V8.71827L4.26709 6.00664L8.97075 3.30298Z" fill="#1D1D22"/>
<path opacity="0.6" d="M13.6743 5.98071V11.398L8.97168 8.68539L13.6743 5.98071Z" fill="#1D1D22"/>
<path opacity="0.95" d="M8.16602 8.24756V13.6639L3.46338 10.9592L8.16602 8.24756Z" fill="#1D1D22"/>
<path opacity="0.6" d="M14.4105 11.8326V17.2489L9.71582 14.5442L14.4105 11.8326Z" fill="#1D1D22"/>
<path opacity="0.55" d="M4.70264 13.094V18.5103L0 15.7977L4.70264 13.094Z" fill="#1D1D22"/>
<path d="M23.8144 6.4176V11.8339L19.1128 9.12919L23.8144 6.4176Z" fill="#1D1D22"/>
<path opacity="0.95" d="M19.1138 9.12903V14.5443L14.4111 11.8327L19.1138 9.12903Z" fill="#1D1D22"/>
<path opacity="0.9" d="M23.8144 11.8326V17.2489L19.1128 14.5442L23.8144 11.8326Z" fill="#1D1D22"/>
<path opacity="0.7" d="M19.1138 14.5439V19.9603L14.4111 17.2486L19.1138 14.5439Z" fill="#1D1D22"/>
<path opacity="0.4" d="M13.3696 16.8031V22.2194L8.66797 19.5147L13.3696 16.8031Z" fill="#1D1D22"/>
<path d="M19.1138 3.71143V9.12773L14.4111 6.4161L19.1138 3.71143Z" fill="#1D1D22"/>
</svg>
