<svg width="20" height="20" viewBox="0 0 20 20" fill="none" xmlns="http://www.w3.org/2000/svg">
<g clip-path="url(#clip0_7348_85107)">
<path d="M12.0098 0.833008V5.3466L15.9287 3.0927L12.0098 0.833008Z" fill="white"/>
<path opacity="0.9" d="M15.9277 3.09277V7.60636L19.8458 5.34667L15.9277 3.09277Z" fill="white"/>
<path opacity="0.8" d="M12.0098 5.34766V9.8612L15.9287 7.60731L12.0098 5.34766ZM15.9287 7.60815V12.1209L19.8467 9.8612L15.9287 7.60815Z" fill="white"/>
<path opacity="0.8" d="M12.0098 9.86035V14.3739L15.9287 12.12L12.0098 9.86035Z" fill="white"/>
<path d="M15.9277 12.1201V16.6337L19.8458 14.374L15.9277 12.1201Z" fill="white"/>
<path opacity="0.4" d="M1.87988 5.19531V9.7089L5.79876 7.44921L1.87988 5.19531Z" fill="white"/>
<path opacity="0.2" d="M6.82422 6.87305V11.3866L10.7365 9.13274L6.82422 6.87305Z" fill="white"/>
<path opacity="0.3" d="M3.91895 9.72656V14.2401L7.83701 11.9804L3.91895 9.72656Z" fill="white"/>
<path opacity="0.9" d="M6.50098 13.1328V17.6464L10.4132 15.3867L6.50098 13.1328Z" fill="white"/>
<path opacity="0.7" d="M11.9766 15.0752V19.5896L15.8888 17.3291L11.9766 15.0752Z" fill="white"/>
<path opacity="0.9" d="M7.47656 4.64355V9.15795L11.3888 6.90405L7.47656 4.64355Z" fill="white"/>
<path opacity="0.8" d="M12.0087 0.833008V5.3466L8.08984 3.0927L12.0087 0.833008Z" fill="white"/>
<path opacity="0.6" d="M7.47538 2.75293V7.26568L3.55566 5.00598L7.47538 2.75293Z" fill="white"/>
<path opacity="0.6" d="M11.3954 4.98438V9.49877L7.47656 7.23827L11.3954 4.98438Z" fill="white"/>
<path opacity="0.95" d="M6.80461 6.87305V11.3866L2.88574 9.13274L6.80461 6.87305Z" fill="white"/>
<path opacity="0.6" d="M12.009 9.86035V14.3739L8.09668 12.12L12.009 9.86035Z" fill="white"/>
<path opacity="0.55" d="M3.91887 10.9121V15.4257L0 13.1652L3.91887 10.9121Z" fill="white"/>
<path d="M19.8458 5.34766V9.86121L15.9277 7.60731L19.8458 5.34766Z" fill="white"/>
<path opacity="0.95" d="M15.9287 7.60742V12.1202L12.0098 9.86048L15.9287 7.60742Z" fill="white"/>
<path opacity="0.9" d="M19.8458 9.86035V14.3739L15.9277 12.12L19.8458 9.86035Z" fill="white"/>
<path opacity="0.7" d="M15.9287 12.1201V16.6337L12.0098 14.374L15.9287 12.1201Z" fill="white"/>
<path opacity="0.4" d="M11.1417 14.0029V18.5165L7.22363 16.2626L11.1417 14.0029Z" fill="white"/>
<path d="M15.9287 3.09277V7.60636L12.0098 5.34667L15.9287 3.09277Z" fill="white"/>
</g>
<defs>
<clipPath id="clip0_7348_85107">
<rect width="20" height="20" fill="white"/>
</clipPath>
</defs>
</svg>
