<svg width="24" height="24" viewBox="0 0 24 24" fill="none" xmlns="http://www.w3.org/2000/svg">
<path d="M20.3825 20.2957L18.1564 15.7044C22.6921 14.9392 23.8434 18.1044 23.6868 20.2957C23.6049 21.4435 22.5008 24 19.5651 24C16.6295 24 15.4434 21.5305 15.2173 20.2957H20.3825Z" fill="#1D1D22"/>
<path d="M3.31818 20.2957L5.54427 15.7044C1.00862 14.9392 -0.142686 18.1044 0.013835 20.2957C0.0958223 21.4435 1.19992 24 4.13557 24C7.07122 24 8.25731 21.5305 8.4834 20.2957H3.31818Z" fill="#1D1D22"/>
<path d="M11.8774 4.72563L14.7405 8.94913C17.6711 5.40375 15.5056 2.82409 13.5296 1.86398C12.4945 1.36108 9.72847 1.03899 8.26065 3.58134C6.79282 6.12369 8.33848 8.38565 9.29479 9.19884L11.8774 4.72563Z" fill="#1D1D22"/>
</svg>
