<svg width="20" height="20" viewBox="0 0 20 20" fill="none" xmlns="http://www.w3.org/2000/svg">
<path d="M16.986 16.9126L15.1309 13.0865C18.9106 12.4489 19.87 15.0865 19.7396 16.9126C19.6713 17.8691 18.7512 19.9996 16.3048 19.9996C13.8585 19.9996 12.87 17.9416 12.6816 16.9126H16.986Z" fill="white"/>
<path d="M2.76499 16.9126L4.62006 13.0865C0.840353 12.4489 -0.119068 15.0865 0.0113668 16.9126C0.0796895 17.8691 0.999773 19.9996 3.44615 19.9996C5.89252 19.9996 6.88093 17.9416 7.06934 16.9126H2.76499Z" fill="white"/>
<path d="M9.898 3.9376L12.2839 7.45718C14.7261 4.5027 12.9215 2.35298 11.2748 1.55289C10.4123 1.1338 8.10722 0.865399 6.88403 2.98402C5.66085 5.10265 6.9489 6.98762 7.74582 7.66527L9.898 3.9376Z" fill="white"/>
</svg>
