<svg width="24" height="24" viewBox="0 0 24 24" fill="none" xmlns="http://www.w3.org/2000/svg">
<path fill-rule="evenodd" clip-rule="evenodd" d="M13.1707 0.00735986C13.1707 0.0211973 13.394 0.336009 13.6668 0.706972L14.1628 1.38148L14.6795 1.51319C15.446 1.70856 15.9608 1.89996 16.7204 2.27196C17.4772 2.64269 18.2101 3.1132 18.8345 3.62932C19.2205 3.94842 19.9936 4.70996 20.244 5.01775L20.3549 5.15396L21.0359 5.08164C21.4104 5.04186 21.7252 4.99589 21.7353 4.97949C21.7455 4.96308 21.6518 4.81701 21.5273 4.65489C19.7334 2.31981 17.2626 0.766373 14.3941 0.1702C13.9182 0.0712927 13.1707 -0.0281763 13.1707 0.00735986ZM10.0222 0.0916678C8.34021 0.384781 6.7941 0.991381 5.44032 1.88933C4.69186 2.38575 4.25159 2.74689 3.57981 3.4155C3.01464 3.97798 2.30135 4.8077 2.30135 4.9026C2.30135 4.92298 2.35101 4.93108 2.41165 4.92053C2.47229 4.91002 2.85004 4.8643 3.251 4.81889L3.98005 4.73635L4.41415 4.30579C5.79079 2.94025 7.55087 1.94115 9.36369 1.49619C9.64124 1.42808 9.95241 1.36082 10.0551 1.34674C10.1579 1.33262 10.2586 1.30098 10.2788 1.27639C10.311 1.23741 10.7099 0.348242 10.8073 0.0985665C10.8408 0.0125338 10.8337 0.00848288 10.6529 0.0115712C10.5487 0.013336 10.2649 0.0493934 10.0222 0.0916678ZM11.8962 0.154438C11.8749 0.195388 11.3834 1.32087 10.8039 2.65548C10.2244 3.99009 9.74601 5.08734 9.74079 5.09384C9.73558 5.10029 7.93154 5.31102 5.73187 5.5621C3.5322 5.81318 1.72419 6.02684 1.71412 6.03695C1.70406 6.04702 2.37571 6.98239 3.20672 8.11553C4.03773 9.24871 4.77978 10.261 4.8557 10.3651L4.99371 10.5545L3.38384 14.2694C2.49841 16.3126 1.78247 17.9928 1.79282 18.0032C1.8032 18.0135 3.0424 17.8837 4.54658 17.7145C7.18701 17.4177 7.28331 17.4097 7.3342 17.4814C7.82509 18.1735 12.0573 23.8908 12.0746 23.8853C12.0879 23.8811 12.5909 22.7473 13.1924 21.3656C13.7939 19.9841 14.2949 18.8448 14.3057 18.8341C14.3164 18.8233 16.1149 18.6102 18.3021 18.3604C20.4894 18.1107 22.2856 17.8998 22.2937 17.8915C22.3018 17.8833 21.5701 16.8713 20.6677 15.6424L19.027 13.4082L20.6309 9.70952C21.5131 7.67526 22.2262 6.00221 22.2157 5.99167C22.2052 5.98112 20.9664 6.11099 19.4628 6.28029C17.9592 6.44958 16.7247 6.58311 16.7194 6.57705C16.7142 6.57103 15.6492 5.12215 14.3529 3.35738C13.0566 1.59261 11.9822 0.13322 11.9654 0.114329C11.9486 0.095398 11.9174 0.113447 11.8962 0.154438ZM14.2764 5.40291C15.438 6.98086 16.2558 8.12929 16.348 8.31222C16.6103 8.83263 16.6926 9.54042 16.5577 10.1157C16.5241 10.259 16.0885 11.2997 15.5897 12.4282L14.6828 14.4801L14.4748 14.2109C14.2029 13.859 12.7977 11.9959 12.7627 11.941C12.7479 11.9177 13.2006 10.789 13.7687 9.43285C14.6705 7.28027 14.7921 6.9655 14.7262 6.95407C14.6847 6.94685 13.6765 7.04415 12.4858 7.17021C11.2951 7.29631 10.3088 7.38744 10.2941 7.37272C10.2146 7.29327 10.4423 6.68606 11.234 4.86566C11.7098 3.77138 12.1245 2.81604 12.1555 2.74264L12.2118 2.6092L12.2844 2.70253C12.3244 2.75387 13.2208 3.96904 14.2764 5.40291ZM9.14161 6.54039C9.08682 6.71302 9.00075 7.17807 8.99955 7.30807C8.99883 7.38527 8.98499 7.46926 8.96878 7.49469C8.95258 7.52016 8.75966 7.56239 8.54006 7.58862C7.49452 7.7134 6.70446 8.10739 5.99374 8.85838C5.78389 9.08014 5.61255 9.23034 5.5933 9.20953C5.50225 9.1111 4.01852 7.06204 4.03131 7.05237C4.04731 7.04034 8.91929 6.47778 9.07234 6.47032C9.14554 6.46675 9.16026 6.48163 9.14161 6.54039ZM0.9367 7.29619C0.499879 8.34459 0.221566 9.38665 0.0695148 10.5435C-0.0242187 11.2566 -0.0229348 12.7541 0.072002 13.4647C0.208291 14.4847 0.455519 15.4728 0.791548 16.3407C1.09746 17.1308 1.03184 17.1402 1.41848 16.251C1.60258 15.8275 1.75199 15.4606 1.75046 15.4355C1.74894 15.4104 1.67454 15.1082 1.58509 14.764C1.04511 12.6855 1.1198 10.4878 1.79803 8.4966L1.93283 8.10089L1.53195 7.55405C1.31147 7.25332 1.11667 7.00192 1.09902 6.99538C1.08141 6.98884 1.00837 7.12421 0.9367 7.29619ZM22.5654 7.80004L22.2337 8.57205L22.3348 8.9098C22.4515 9.29965 22.6045 10.0157 22.6826 10.5368C22.7178 10.7724 22.7366 11.2809 22.7366 12.0008C22.7366 13.4167 22.6289 14.1623 22.2582 15.3118L22.0849 15.8493L22.491 16.4103C22.7143 16.7189 22.9088 16.972 22.9231 16.9728C22.9676 16.9752 23.2255 16.3208 23.4346 15.6751C23.8141 14.5029 23.9999 13.301 24 12.0178C24.0001 10.8233 23.8739 9.86125 23.5749 8.77652C23.385 8.08749 22.9898 7.02679 22.9234 7.02767C22.9089 7.02787 22.7478 7.37541 22.5654 7.80004ZM20.1529 7.59885C20.1337 7.64851 19.6993 8.65471 19.1876 9.8349C18.6759 11.0151 18.2316 12.0419 18.2004 12.1168L18.1435 12.2529L17.9132 12.0336C17.7866 11.9129 17.6079 11.7646 17.5161 11.704L17.3493 11.5938L17.4826 11.3011C17.9849 10.199 18.0323 9.06879 17.62 8.02288C17.5758 7.91078 17.5474 7.81131 17.5569 7.8018C17.5788 7.7799 19.7913 7.5212 20.0183 7.51398C20.1784 7.50889 20.1858 7.51358 20.1529 7.59885ZM12.6411 8.82216C11.5054 11.5404 11.58 11.3772 11.4593 11.4094C11.3969 11.4261 10.2017 11.5835 8.80338 11.7592C7.40504 11.935 6.25573 12.0839 6.24939 12.0903C6.24049 12.0992 7.50041 13.8521 8.84449 15.7007L8.92467 15.811L8.81164 15.8543C8.74951 15.878 8.59939 15.9224 8.47806 15.9528C8.23211 16.0145 3.87156 16.5123 3.84144 16.4822C3.81757 16.4583 6.44171 10.3967 6.57335 10.1717C6.88872 9.63263 7.46692 9.18205 8.11211 8.97261C8.28602 8.91614 12.1993 8.45802 12.6968 8.43588L12.8045 8.4311L12.6411 8.82216ZM13.3393 14.8253C14.2282 16.0038 14.9664 16.9559 14.9796 16.941C14.9928 16.9262 15.4056 16.0026 15.897 14.8886C16.3884 13.7746 16.8025 12.8404 16.8173 12.8128C16.8356 12.7784 16.9139 12.8293 17.0641 12.9732C17.3348 13.2326 20.0105 16.8704 19.9398 16.883C19.5347 16.9548 13.4071 17.6159 13.1462 17.6159C12.7052 17.6159 12.4092 17.5441 11.9762 17.3322C11.4287 17.0642 11.2693 16.8829 9.82414 14.8846C9.1078 13.8941 8.54348 13.0823 8.57007 13.0806C8.59666 13.0789 9.27722 12.9912 10.0824 12.8856C10.8876 12.78 11.5861 12.6911 11.6347 12.6881C11.7068 12.6836 12.0218 13.0787 13.3393 14.8253ZM9.88574 17.1447C10.5628 18.0784 11.4291 18.6462 12.4739 18.841C12.6696 18.8775 12.8364 18.9137 12.8445 18.9214C12.8525 18.9291 12.6191 19.4871 12.3258 20.1615C12.0325 20.8359 11.7804 21.3737 11.7655 21.3568C11.7506 21.3399 11.2088 20.604 10.5616 19.7216C9.91426 18.8393 9.23507 17.915 9.05221 17.6676L8.71975 17.2179L8.98996 17.1363C9.13856 17.0914 9.35042 17.0109 9.46072 16.9574C9.57101 16.904 9.66431 16.8588 9.66808 16.8571C9.67181 16.8553 9.76975 16.9847 9.88574 17.1447ZM2.79268 18.9307C2.50037 18.964 2.26124 19.008 2.26124 19.0286C2.26124 19.1461 3.12454 20.1583 3.69304 20.7074C5.19642 22.1595 6.9571 23.1492 8.96373 23.6703C9.62628 23.8424 10.5396 24.0053 10.7302 23.9854C10.8466 23.9732 10.8453 23.9709 10.3462 23.2957L9.84528 22.6182L9.33213 22.4874C9.04988 22.4155 8.62947 22.2903 8.39784 22.2094C7.88152 22.0288 6.90508 21.5609 6.39242 21.2484C5.55956 20.7407 4.62873 19.9658 4.00917 19.2644C3.59593 18.7965 3.70567 18.8266 2.79268 18.9307ZM20.896 19.0844L20.0983 19.1805L19.5313 19.7318C19.2195 20.035 18.7801 20.4239 18.555 20.5958C17.2373 21.6021 15.7379 22.2893 14.1777 22.602L13.7206 22.6936L13.4457 23.3276C13.2945 23.6763 13.1707 23.9686 13.1707 23.9774C13.1707 24.0082 13.396 23.992 13.7849 23.9334C16.8242 23.4753 19.59 21.8482 21.4793 19.4069C21.7375 19.0733 21.7951 18.9737 21.7239 18.984C21.7073 18.9864 21.3348 19.0316 20.896 19.0844Z" fill="#1D1D22"/>
</svg>
