<svg width="20" height="20" viewBox="0 0 20 20" fill="none" xmlns="http://www.w3.org/2000/svg">
<path fill-rule="evenodd" clip-rule="evenodd" d="M10.9756 0.00613321C10.9756 0.0176644 11.1616 0.280007 11.389 0.589143L11.8023 1.15123L12.2329 1.26099C12.8717 1.4238 13.3006 1.5833 13.9336 1.8933C14.5644 2.20224 15.175 2.59433 15.6954 3.02443C16.0171 3.29035 16.6614 3.92497 16.87 4.18146L16.9624 4.29497L17.5299 4.2347C17.842 4.20155 18.1043 4.16324 18.1128 4.14957C18.1212 4.1359 18.0432 4.01417 17.9394 3.87907C16.4445 1.93318 14.3855 0.638644 11.995 0.141833C11.5985 0.0594106 10.9756 -0.0234802 10.9756 0.00613321ZM8.35186 0.0763898C6.95017 0.32065 5.66175 0.826151 4.5336 1.57444C3.90988 1.98813 3.54299 2.28907 2.98317 2.84625C2.5122 3.31498 1.91779 4.00642 1.91779 4.0855C1.91779 4.10248 1.95917 4.10923 2.00971 4.10044C2.06024 4.09168 2.37503 4.05358 2.70917 4.01574L3.31671 3.94696L3.67846 3.58815C4.82566 2.45021 6.29239 1.61763 7.80308 1.24682C8.03437 1.19007 8.29367 1.13402 8.37927 1.12229C8.4649 1.11052 8.5488 1.08415 8.56571 1.06366C8.59251 1.03117 8.92495 0.290201 9.00607 0.0821387C9.03404 0.0104448 9.02806 0.00706906 8.87745 0.00964269C8.79058 0.0111133 8.55408 0.0411612 8.35186 0.0763898ZM9.91349 0.128698C9.89577 0.162824 9.48616 1.10073 9.00326 2.2129C8.52035 3.32508 8.12167 4.23945 8.11733 4.24486C8.11298 4.25025 6.60962 4.42585 4.77656 4.63509C2.9435 4.84432 1.43683 5.02237 1.42844 5.03079C1.42005 5.03918 1.97976 5.81865 2.67227 6.76294C3.36477 7.70726 3.98315 8.55084 4.04642 8.63761L4.16143 8.79541L2.81987 11.8912C2.082 13.5938 1.48539 14.994 1.49401 15.0026C1.50267 15.0113 2.53533 14.9031 3.78882 14.7621C5.98917 14.5147 6.06942 14.5081 6.11184 14.5679C6.52091 15.1446 10.0477 19.909 10.0622 19.9044C10.0733 19.9009 10.4925 18.9561 10.9937 17.8047C11.4949 16.6534 11.9124 15.704 11.9214 15.6951C11.9304 15.6861 13.4291 15.5085 15.2518 15.3004C17.0745 15.0923 18.5714 14.9165 18.5781 14.9096C18.5848 14.9028 17.9751 14.0594 17.2231 13.0353L15.8558 11.1735L17.1924 8.09127C17.9276 6.39605 18.5219 5.00185 18.5131 4.99305C18.5043 4.98426 17.472 5.09249 16.219 5.23357C14.966 5.37465 13.9372 5.48592 13.9329 5.48087C13.9285 5.47586 13.041 4.26846 11.9608 2.79782C10.8805 1.32717 9.98515 0.111017 9.97114 0.0952743C9.95714 0.0794983 9.9312 0.094539 9.91349 0.128698ZM11.897 4.50243C12.865 5.81738 13.5465 6.77441 13.6233 6.92685C13.8419 7.36052 13.9105 7.95035 13.7981 8.42972C13.7701 8.54921 13.4071 9.41642 12.9914 10.3569L12.2356 12.0668L12.0623 11.8424C11.8358 11.5492 10.6647 9.99659 10.6356 9.95086C10.6232 9.93141 11.0005 8.99083 11.4739 7.86071C12.2254 6.06689 12.3267 5.80458 12.2718 5.79506C12.2372 5.78904 11.3971 5.87013 10.4048 5.97518C9.41256 6.08026 8.59071 6.1562 8.57844 6.14393C8.5122 6.07772 8.70188 5.57172 9.36163 4.05472C9.7582 3.14282 10.1038 2.3467 10.1296 2.28553L10.1765 2.17433L10.237 2.25211C10.2703 2.29489 11.0173 3.30753 11.897 4.50243ZM7.61801 5.45032C7.57235 5.59418 7.50063 5.98173 7.49962 6.09005C7.49902 6.1544 7.48749 6.22438 7.47399 6.24558C7.46048 6.2668 7.29972 6.30199 7.11672 6.32385C6.24543 6.42784 5.58705 6.75616 4.99478 7.38198C4.81991 7.56678 4.67712 7.69195 4.66108 7.67461C4.58521 7.59259 3.34876 5.88503 3.35943 5.87698C3.37276 5.86695 7.43274 5.39815 7.56029 5.39193C7.62129 5.38896 7.63355 5.40136 7.61801 5.45032ZM0.780584 6.08016C0.416566 6.95382 0.184638 7.82221 0.057929 8.78621C-0.0201822 9.38052 -0.0191123 10.6284 0.0600017 11.2206C0.173576 12.0706 0.379599 12.894 0.659623 13.6172C0.914546 14.2757 0.859865 14.2835 1.18207 13.5425C1.33548 13.1896 1.45999 12.8838 1.45872 12.8629C1.45745 12.842 1.39545 12.5902 1.32091 12.3033C0.870928 10.5713 0.933163 8.73985 1.49836 7.0805L1.6107 6.75074L1.27663 6.29504C1.0929 6.04443 0.930556 5.83493 0.915849 5.82948C0.901176 5.82404 0.840312 5.93684 0.780584 6.08016ZM18.8045 6.50003L18.5281 7.14337L18.6123 7.42483C18.7095 7.74971 18.8371 8.34639 18.9021 8.78066C18.9315 8.977 18.9472 9.40074 18.9472 10.0006C18.9472 11.1806 18.8574 11.8019 18.5485 12.7598L18.4041 13.2078L18.7425 13.6753C18.9286 13.9324 19.0906 14.1433 19.1026 14.144C19.1396 14.146 19.3546 13.6006 19.5288 13.0625C19.8451 12.0858 19.9999 11.0842 20 10.0148C20.0001 9.01941 19.8949 8.21771 19.6457 7.31376C19.4875 6.73958 19.1582 5.85565 19.1028 5.85639C19.0908 5.85656 18.9565 6.14617 18.8045 6.50003ZM16.7941 6.33238C16.7781 6.37376 16.4161 7.21226 15.9897 8.19575C15.5633 9.17924 15.193 10.035 15.167 10.0974L15.1196 10.2108L14.9277 10.028C14.8221 9.92743 14.6732 9.80387 14.5968 9.75333L14.4577 9.66151L14.5688 9.41762C14.9874 8.49917 15.0269 7.55732 14.6833 6.68573C14.6465 6.59231 14.6228 6.50942 14.6307 6.5015C14.649 6.48325 16.4927 6.26767 16.6819 6.26165C16.8154 6.25741 16.8215 6.26132 16.7941 6.33238ZM10.5343 7.3518C9.58784 9.61703 9.64997 9.48096 9.5494 9.50783C9.49739 9.52174 8.50143 9.65292 7.33615 9.79935C6.17086 9.94582 5.21311 10.07 5.20782 10.0753C5.2004 10.0827 6.25034 11.5434 7.37041 13.0839L7.43722 13.1758L7.34303 13.2119C7.29126 13.2317 7.16615 13.2687 7.06505 13.294C6.86009 13.3454 3.2263 13.7602 3.2012 13.7351C3.18131 13.7152 5.36809 8.66395 5.47779 8.47644C5.7406 8.02719 6.22244 7.65171 6.76009 7.47717C6.90502 7.43011 10.1661 7.04835 10.5807 7.0299L10.6704 7.02592L10.5343 7.3518ZM11.1161 12.3544C11.8569 13.3365 12.472 14.1299 12.483 14.1175C12.494 14.1052 12.838 13.3355 13.2475 12.4071C13.657 11.4788 14.0021 10.7004 14.0144 10.6773C14.0297 10.6487 14.0949 10.6911 14.2201 10.811C14.4456 11.0272 16.6754 14.0587 16.6165 14.0691C16.2789 14.129 11.1726 14.68 10.9552 14.68C10.5877 14.68 10.341 14.6201 9.9802 14.4435C9.52393 14.2201 9.39111 14.0691 8.18678 12.4038C7.58983 11.5784 7.11956 10.9019 7.14172 10.9005C7.16388 10.8991 7.73102 10.826 8.402 10.738C9.07298 10.65 9.65509 10.576 9.6956 10.5734C9.75563 10.5697 10.0182 10.8989 11.1161 12.3544ZM8.23812 14.2872C8.80235 15.0653 9.52427 15.5385 10.3949 15.7008C10.558 15.7313 10.697 15.7614 10.7037 15.7678C10.7104 15.7742 10.5159 16.2393 10.2715 16.8012C10.0271 17.3632 9.81696 17.8115 9.80456 17.7974C9.79216 17.7832 9.3407 17.17 8.80131 16.4347C8.26189 15.6994 7.69589 14.9291 7.54351 14.723L7.26646 14.3483L7.49164 14.2803C7.61547 14.2429 7.79201 14.1758 7.88393 14.1312C7.97584 14.0866 8.05359 14.049 8.05673 14.0475C8.05984 14.0461 8.14146 14.1539 8.23812 14.2872ZM2.32723 15.7756C2.08364 15.8033 1.88437 15.84 1.88437 15.8572C1.88437 15.9551 2.60378 16.7986 3.07753 17.2562C4.33035 18.4662 5.79759 19.291 7.46978 19.7253C8.0219 19.8687 8.78303 20.0044 8.94182 19.9878C9.03885 19.9776 9.03778 19.9757 8.62179 19.4131L8.2044 18.8485L7.77677 18.7395C7.54157 18.6796 7.19122 18.5753 6.9982 18.5078C6.56794 18.3573 5.75424 17.9674 5.32701 17.707C4.63297 17.2839 3.85727 16.6382 3.34098 16.0536C2.99661 15.6638 3.08806 15.6888 2.32723 15.7756ZM17.4134 15.9037L16.7486 15.9837L16.2761 16.4432C16.0162 16.6959 15.6501 17.0199 15.4625 17.1632C14.3644 18.0017 13.1149 18.5744 11.8147 18.835L11.4338 18.9113L11.2047 19.4396C11.0787 19.7302 10.9756 19.9739 10.9756 19.9811C10.9756 20.0068 11.1634 19.9934 11.4874 19.9445C14.0201 19.5628 16.325 18.2068 17.8994 16.1724C18.1146 15.8944 18.1626 15.8114 18.1032 15.82C18.0894 15.822 17.779 15.8596 17.4134 15.9037Z" fill="white"/>
</svg>
