<svg width="24" height="24" viewBox="0 0 24 24" fill="none" xmlns="http://www.w3.org/2000/svg">
<path fill-rule="evenodd" clip-rule="evenodd" d="M10.576 0.0519077C8.03678 0.36676 5.7013 1.44138 3.85747 3.14339C1.97459 4.88145 0.692103 7.15373 0.198219 9.62684C0.0181301 10.5285 -0.00137926 10.7637 7.02261e-05 12.0165C0.00124549 13.0512 0.0129981 13.2849 0.0876663 13.7598C0.423086 15.8925 1.25298 17.8013 2.56809 19.4649C2.97971 19.9855 3.99604 21.0023 4.51499 21.4125C6.18633 22.7336 8.10436 23.5615 10.2614 23.8929C10.925 23.9948 12.3519 24.0331 13.0508 23.9677C14.5764 23.825 15.9303 23.447 17.275 22.7883C20.6154 21.1523 23.0793 17.9473 23.7741 14.3344C23.9524 13.4072 23.9741 13.1463 23.9721 11.9578C23.9704 11 23.9571 10.7386 23.8872 10.2923C23.5266 7.99232 22.6556 6.03516 21.2255 4.31199C20.8119 3.81364 19.9685 2.98841 19.4609 2.58538C17.8191 1.28178 15.9178 0.449968 13.7884 0.103697C13.1063 -0.00720797 11.2891 -0.0365111 10.576 0.0519077ZM13.5142 1.02303C16.0489 1.41196 18.1704 2.48873 19.9011 4.26471C21.117 5.51244 21.9591 6.89526 22.4984 8.52993C22.8464 9.58464 23.0062 10.5082 23.0406 11.664C23.0914 13.3677 22.7886 14.9358 22.1139 16.4629C21.5402 17.7617 20.8312 18.7916 19.8059 19.8159C18.8755 20.7454 18.068 21.3233 16.8833 21.9079C15.7777 22.4534 14.7888 22.7687 13.6065 22.9526C12.7949 23.0788 11.1831 23.0798 10.3802 22.9545C7.92407 22.5712 5.90893 21.5527 4.16774 19.8145C3.02131 18.67 2.23957 17.4827 1.6698 16.0206C1.11426 14.595 0.893739 13.3175 0.931308 11.7423C0.972834 10.0008 1.30688 8.6205 2.05486 7.10003C3.73501 3.68464 7.01865 1.39621 10.8503 0.970296C11.3222 0.917801 13.0517 0.95204 13.5142 1.02303ZM11.3987 4.93559C11.3892 4.96254 11.3534 5.64533 11.319 6.45297C11.2846 7.26057 11.2532 7.92424 11.2492 7.92776C11.2453 7.93125 10.8895 7.60809 10.4585 7.2096C10.0276 6.81111 9.52858 6.3515 9.34958 6.18826L9.02411 5.89147L8.61505 6.29916C8.39002 6.5234 8.20594 6.71916 8.20594 6.73421C8.20594 6.74925 8.65587 7.25015 9.20581 7.84726C9.75575 8.44437 10.1976 8.94103 10.1877 8.95094C10.1692 8.96943 7.87373 9.07439 7.43222 9.07697L7.18738 9.07838V9.68055V10.2827L7.60851 10.3071C7.84012 10.3205 8.52326 10.3513 9.12656 10.3755C9.72986 10.3998 10.2255 10.422 10.2281 10.4248C10.2306 10.4276 9.76802 10.9322 9.20009 11.5462L8.16751 12.6624L8.58688 13.0831L9.00625 13.5037L9.1056 13.4136C9.16021 13.364 9.65088 12.9127 10.196 12.4107C10.7411 11.9087 11.194 11.5049 11.2024 11.5133C11.2203 11.5313 11.3008 15.083 11.3008 15.859V16.3911L10.625 16.4379C10.2533 16.4637 9.8562 16.4952 9.74251 16.5079L9.53582 16.531L9.54664 17.0846L9.55749 17.6382L10.4346 17.7057C10.917 17.7428 11.3165 17.7781 11.3223 17.784C11.3282 17.79 11.3459 18.1783 11.3616 18.647L11.3902 19.499H11.9891H12.588L12.6006 18.6599C12.6075 18.1984 12.6233 17.8108 12.6356 17.7985C12.648 17.7862 13.0534 17.7451 13.5366 17.7072L14.4152 17.6382L14.4261 17.0851L14.4369 16.5321L14.2498 16.5089C14.1468 16.4961 13.7389 16.4641 13.3432 16.4378L12.6237 16.3901L12.6469 16.0152C12.6597 15.8089 12.6818 14.8734 12.6959 13.9361C12.7101 12.9989 12.7325 12.0665 12.7458 11.8643L12.7699 11.4966L13.8515 12.4972L14.9332 13.4978L15.3561 13.0736L15.7791 12.6493L14.9209 11.7187C14.4488 11.2068 13.9861 10.7031 13.8925 10.5992L13.7224 10.4103L13.9513 10.4094C14.1192 10.4088 16.7023 10.3034 16.7766 10.2941C16.7825 10.2934 16.7825 10.024 16.7766 9.69539L16.7658 9.09797L15.2876 9.03662C14.4746 9.00289 13.7994 8.96532 13.7872 8.9531C13.775 8.94092 14.2154 8.44374 14.7659 7.84831C15.3164 7.25289 15.7668 6.7525 15.7668 6.73632C15.7668 6.7201 15.5828 6.52352 15.358 6.29948L14.9492 5.89205L14.6039 6.20749C14.4139 6.38096 13.9148 6.84049 13.4946 7.2286C13.0745 7.61675 12.7262 7.93011 12.7206 7.92498C12.7151 7.91985 12.6836 7.25618 12.6507 6.45011C12.6177 5.64407 12.5831 4.96254 12.5738 4.93559C12.5613 4.89943 12.4076 4.88662 11.9864 4.88662C11.5652 4.88662 11.4114 4.89943 11.3987 4.93559Z" fill="#1D1D22"/>
</svg>
