<svg width="20" height="20" viewBox="0 0 20 20" fill="none" xmlns="http://www.w3.org/2000/svg">
<path fill-rule="evenodd" clip-rule="evenodd" d="M8.81337 0.0432564C6.69732 0.305633 4.75108 1.20115 3.21456 2.61949C1.64549 4.06787 0.576753 5.96145 0.165183 8.02236C0.0151084 8.77378 -0.00114939 8.96975 5.85218e-05 10.0138C0.00103791 10.876 0.0108318 11.0708 0.0730553 11.4665C0.352572 13.2438 1.04415 14.8344 2.14008 16.2207C2.48309 16.6546 3.33003 17.5019 3.76249 17.8437C5.15528 18.9447 6.75363 19.6346 8.55119 19.9107C9.10415 19.9957 10.2933 20.0276 10.8756 19.9731C12.147 19.8541 13.2753 19.5392 14.3959 18.9903C17.1795 17.6269 19.2328 14.956 19.8117 11.9454C19.9603 11.1727 19.9784 10.9552 19.9767 9.96481C19.9753 9.16671 19.9643 8.94883 19.906 8.57692C19.6055 6.66027 18.8796 5.0293 17.6879 3.59333C17.3432 3.17804 16.6404 2.49035 16.2175 2.15448C14.8492 1.06815 13.2648 0.374974 11.4904 0.0864146C10.9219 -0.00600664 9.4076 -0.0304259 8.81337 0.0432564ZM11.2618 0.852521C13.3741 1.17663 15.142 2.07394 16.5842 3.55392C17.5975 4.5937 18.2992 5.74605 18.7487 7.10827C19.0387 7.9872 19.1718 8.7568 19.2005 9.71996C19.2428 11.1397 18.9905 12.4465 18.4283 13.7191C17.9502 14.8014 17.3593 15.6597 16.5049 16.5133C15.7296 17.2878 15.0567 17.7695 14.0694 18.2566C13.1481 18.7112 12.324 18.9739 11.3387 19.1272C10.6624 19.2324 9.31923 19.2331 8.65014 19.1287C6.60339 18.8093 4.92411 17.9606 3.47312 16.5121C2.51776 15.5583 1.86631 14.5689 1.3915 13.3505C0.928547 12.1625 0.744782 11.0979 0.77609 9.78525C0.810695 8.33397 1.08907 7.18375 1.71238 5.91669C3.11251 3.07053 5.84888 1.16351 9.0419 0.80858C9.43518 0.764834 10.8764 0.793367 11.2618 0.852521ZM9.49891 4.11299C9.49104 4.13545 9.46117 4.70444 9.43247 5.37747C9.40381 6.05047 9.37766 6.60353 9.37436 6.60647C9.37107 6.60937 9.07454 6.34008 8.71543 6.008C8.35633 5.67592 7.94048 5.29292 7.79132 5.15688L7.5201 4.90955L7.17921 5.2493C6.99169 5.43617 6.83828 5.5993 6.83828 5.61184C6.83828 5.62437 7.21322 6.04179 7.67151 6.53938C8.1298 7.03697 8.49798 7.45086 8.48972 7.45912C8.47434 7.47453 6.56144 7.56199 6.19352 7.56414L5.98948 7.56532V8.06712V8.56896L6.34043 8.58923C6.53343 8.6004 7.10272 8.62606 7.60547 8.64626C8.10822 8.6665 8.52129 8.68498 8.52341 8.68733C8.5255 8.68968 8.14001 9.1102 7.66674 9.6218L6.80626 10.552L7.15573 10.9026L7.50521 11.2531L7.588 11.178C7.63351 11.1367 8.0424 10.7606 8.49667 10.3423C8.95091 9.92394 9.3283 9.58742 9.33532 9.5944C9.35027 9.60939 9.41729 12.5692 9.41733 13.2158V13.6592L8.85418 13.6983C8.54443 13.7198 8.2135 13.746 8.11876 13.7566L7.94652 13.7758L7.95553 14.2372L7.96457 14.6985L8.69549 14.7547C9.09749 14.7857 9.43042 14.815 9.43528 14.82C9.44018 14.825 9.4549 15.1486 9.46799 15.5391L9.49179 16.2492H9.99089H10.49L10.5005 15.5499C10.5062 15.1654 10.5194 14.8423 10.5297 14.8321C10.54 14.8218 10.8778 14.7876 11.2805 14.756L12.0127 14.6985L12.0217 14.2376L12.0307 13.7767L11.8748 13.7574C11.789 13.7467 11.4491 13.7201 11.1193 13.6982L10.5197 13.6584L10.5391 13.346C10.5498 13.1741 10.5682 12.3945 10.58 11.6134C10.5917 10.8324 10.6104 10.0554 10.6215 9.88691L10.6416 9.58046L11.5429 10.4143L12.4443 11.2482L12.7968 10.8946L13.1492 10.5411L12.4341 9.76557C12.0407 9.33901 11.6551 8.91922 11.5771 8.83267L11.4353 8.67529L11.6261 8.67453C11.766 8.67398 13.9186 8.58616 13.9805 8.57846C13.9854 8.57784 13.9854 8.3533 13.9805 8.07949L13.9715 7.58164L12.7397 7.53052C12.0622 7.50241 11.4995 7.4711 11.4893 7.46092C11.4792 7.45076 11.8462 7.03645 12.3049 6.54026C12.7637 6.04407 13.139 5.62708 13.139 5.6136C13.139 5.60009 12.9857 5.43627 12.7983 5.24956L12.4577 4.91004L12.1699 5.17291C12.0116 5.31747 11.5956 5.70041 11.2455 6.02383C10.8954 6.34729 10.6052 6.60843 10.6005 6.60415C10.5959 6.59987 10.5697 6.04682 10.5422 5.37509C10.5148 4.70339 10.4859 4.13545 10.4782 4.11299C10.4677 4.08286 10.3397 4.07218 9.98863 4.07218C9.63769 4.07218 9.50949 4.08286 9.49891 4.11299Z" fill="white"/>
</svg>
