<svg width="24" height="24" viewBox="0 0 24 24" fill="none" xmlns="http://www.w3.org/2000/svg">
<path d="M2.57021 17.369V17.5754C2.57021 17.5754 10.6216 14.5956 12.1869 15.3652L11.2428 15.6256C11.3254 15.6256 12.8555 15.7195 12.8555 15.7195C12.8914 16.0155 12.997 16.3004 13.1645 16.5536C13.3321 16.8068 13.5576 17.0219 13.8247 17.1836C14.7464 17.7537 14.7639 18.0635 14.7639 18.0635C14.7639 18.0635 14.2856 18.2465 14.2856 18.4788C14.7304 18.3595 15.1904 18.2971 15.653 18.2934C16.0703 18.3074 16.4841 18.3696 16.8851 18.4788C16.8851 18.4788 16.8375 18.2441 16.1939 18.0635C15.5503 17.8828 14.9291 17.2446 14.6161 16.8903C14.4283 16.6638 14.3066 16.3956 14.2627 16.1118C14.2189 15.828 14.2543 15.5384 14.3657 15.2714C14.5886 14.7364 15.3674 14.4384 16.9476 13.6688C18.8235 12.7608 19.2516 12.0804 19.5146 11.5571C19.7775 11.0339 20.1733 9.98516 20.3911 9.49243C20.5723 9.03189 20.8839 8.62631 21.2927 8.31928C21.5707 8.11985 22.8379 7.6717 22.8379 7.6717C22.8379 7.6717 21.8712 6.89977 21.5556 6.66748C21.1612 6.31753 20.6625 6.08838 20.1256 6.01051C19.4545 5.92839 18.7733 6.34604 18.3125 6.62525C17.8517 6.90446 16.9601 7.72098 16.5995 7.95561C16.2389 8.19024 15.3149 8.42486 13.8448 9.26718C12.3748 10.1095 6.53961 13.5984 6.53961 13.5984L8.04222 13.6125L1.29802 16.8903H1.9717L1 17.5942C1.53818 17.7096 2.10307 17.6291 2.58025 17.369H2.57021Z" fill="#111111"/>
</svg>
