<svg width="24" height="24" viewBox="0 0 24 24" fill="none" xmlns="http://www.w3.org/2000/svg">
<path fill-rule="evenodd" clip-rule="evenodd" d="M12.7824 23.8326C13.8238 23.7571 14.8208 23.5216 15.7489 23.1505C14.8885 23.4423 13.9116 23.6802 12.8128 23.8285C12.8027 23.8299 12.7925 23.8312 12.7824 23.8326ZM19.847 20.1013C21.2041 18.3988 22.0151 16.2419 22.0151 13.8955C22.0151 13.5296 21.9954 13.1682 21.9569 12.8124C20.9842 12.6726 19.6483 12.583 18.5575 12.8179C17.8263 12.9754 17.2136 13.2217 16.7097 13.4963C15.5089 14.6419 14.6668 16.8966 15.9544 18.5925C16.9199 19.8642 18.6454 20.3574 19.847 20.1013ZM21.8304 11.9759C21.0849 8.15662 18.1576 5.11789 14.399 4.21021C14.1652 4.46014 13.8845 4.69683 13.5608 4.88905C13.3347 5.02331 13.0568 5.17311 12.756 5.33528C11.653 5.93 10.2414 6.69108 9.94045 7.46219C9.6612 8.0207 9.25229 9.40102 9.85069 10.4542C10.5987 11.7707 11.7955 12.5785 13.5608 12.2494C14.2508 12.1208 14.7168 11.8733 15.1946 11.6195C15.9393 11.224 16.7129 10.8132 18.4079 10.8132C19.7911 10.8132 20.9841 11.3755 21.8304 11.9759Z" fill="#1D1D22"/>
<path d="M15.2507 2.79521C15.3515 2.29084 15.291 1.72743 15.2184 1.3538C15.1964 1.24032 15.0437 1.23378 14.9899 1.33613C14.6045 2.07028 13.7971 2.55672 12.6476 2.97473C11.3311 3.45346 8.99734 3.79283 6.00534 5.93683C1.52928 9.14427 1.54721 14.7932 2.53459 17.1569C5.61637 23.1709 11.7198 18.7802 12.5 18C13.5 17 14.6523 15.3318 15.1011 14.7932C15.3811 14.4571 15.9176 13.9229 16.754 13.467C17.354 12.8946 18.0435 12.5992 18.6017 12.7886C19.9666 12.4946 21.7153 12.7087 22.6559 12.8936C22.7681 12.9157 22.8458 12.7879 22.7664 12.7056C22.0261 11.9386 20.4345 10.7839 18.4521 10.7839C15.6696 10.7839 15.3703 11.8909 13.6051 12.2201C11.8398 12.5492 10.643 11.7413 9.89495 10.4249C9.29655 9.37167 9.70546 7.99135 9.98471 7.43284C10.3677 6.45146 12.5497 5.48633 13.6051 4.8597C14.5625 4.29122 15.143 3.33377 15.2507 2.79521Z" fill="url(#paint0_linear_1394_40643)"/>
<path d="M16.754 13.467C17.354 12.8946 18.0435 12.5992 18.6017 12.7886C17.8706 12.946 17.2578 13.1923 16.754 13.467Z" fill="url(#paint1_linear_1394_40643)"/>
<path d="M15.1011 14.7932C14.6523 15.3318 13.8621 16.7526 12.6803 17.9141C11.3069 19.2638 5.88507 22.9071 2.53459 17.1569C2.77397 18.8324 6.873 24.607 12.8571 23.7992C17.3041 23.1988 19.7545 21.132 20.5679 19.9538C20.6051 19.9 20.5333 19.8334 20.4756 19.8643C19.3276 20.4788 17.1359 20.061 15.9987 18.5631C14.711 16.8672 15.5531 14.6125 16.754 13.467C15.9176 13.9229 15.3811 14.4571 15.1011 14.7932Z" fill="url(#paint2_linear_1394_40643)"/>
<defs>
<linearGradient id="paint0_linear_1394_40643" x1="3.21132" y1="8.23835" x2="21.6026" y2="15.3438" gradientUnits="userSpaceOnUse">
<stop stop-color="#1D1D22"/>
<stop offset="1" stop-color="#1D1D22" stop-opacity="0"/>
</linearGradient>
<linearGradient id="paint1_linear_1394_40643" x1="3.21132" y1="8.23835" x2="21.6026" y2="15.3438" gradientUnits="userSpaceOnUse">
<stop stop-color="#1D1D22"/>
<stop offset="1" stop-color="#1D1D22" stop-opacity="0"/>
</linearGradient>
<linearGradient id="paint2_linear_1394_40643" x1="9.69629" y1="17.6778" x2="14.0541" y2="23.8673" gradientUnits="userSpaceOnUse">
<stop stop-color="#1D1D22"/>
<stop offset="1" stop-color="#1D1D22" stop-opacity="0"/>
</linearGradient>
</defs>
</svg>
