<svg width="20" height="20" viewBox="0 0 20 20" fill="none" xmlns="http://www.w3.org/2000/svg">
<path fill-rule="evenodd" clip-rule="evenodd" d="M10.6521 19.8598C11.5199 19.7969 12.3507 19.6006 13.1242 19.2914C12.4072 19.5346 11.5931 19.7328 10.6774 19.8564C10.669 19.8576 10.6605 19.8587 10.6521 19.8598ZM16.5392 16.7504C17.6701 15.3317 18.346 13.5342 18.346 11.5789C18.346 11.2739 18.3296 10.9728 18.2975 10.6763C17.487 10.5598 16.3737 10.4851 15.4646 10.6809C14.8553 10.8121 14.3447 11.0174 13.9249 11.2462C12.9241 12.2009 12.2224 14.0798 13.2954 15.4931C14.1 16.5528 15.5379 16.9638 16.5392 16.7504ZM18.1921 9.97922C17.5709 6.79649 15.1315 4.26422 11.9993 3.50781C11.8044 3.71609 11.5705 3.91334 11.3007 4.07352C11.1123 4.1854 10.8808 4.31023 10.6301 4.44537L10.6301 4.44538L10.6301 4.44538C9.71091 4.94098 8.53456 5.57521 8.28379 6.2178C8.05108 6.68323 7.71032 7.83349 8.20899 8.71115C8.83233 9.80822 9.82966 10.4814 11.3007 10.2072C11.8757 10.1 12.264 9.89373 12.6623 9.68226C13.2829 9.35267 13.9275 9.01035 15.34 9.01035C16.4927 9.01035 17.4868 9.47887 18.1921 9.97922Z" fill="white"/>
<path d="M12.7092 2.32902C12.788 1.93488 12.7486 1.49749 12.6935 1.1878C12.6732 1.07399 12.52 1.06603 12.4627 1.16647C12.131 1.74866 11.4698 2.1405 10.54 2.47862C9.44293 2.87755 7.49811 3.16037 5.00477 4.94703C1.27472 7.6199 1.28967 12.3273 2.11249 14.2971C4.68064 19.3087 9.7668 15.6499 10.417 14.9997C11.2503 14.1663 12.2105 12.7761 12.5845 12.3273C12.8179 12.0473 13.265 11.6021 13.962 11.2222C14.462 10.7452 15.0366 10.499 15.5018 10.6568C16.612 10.4177 18.0271 10.582 18.823 10.7333C18.9353 10.7547 19.0115 10.6266 18.931 10.5455C18.2974 9.90704 16.9931 8.98626 15.3771 8.98626C13.0583 8.98626 12.8089 9.9088 11.3379 10.1831C9.86679 10.4573 8.86946 9.78413 8.24612 8.68706C7.74745 7.8094 8.08821 6.65913 8.32092 6.19371C8.64007 5.37589 10.4584 4.57161 11.3379 4.04943C12.1357 3.57569 12.6195 2.77782 12.7092 2.32902Z" fill="url(#paint0_linear_7348_85116)"/>
<path d="M13.962 11.2222C14.462 10.7452 15.0366 10.499 15.5018 10.6568C14.8925 10.788 14.3819 10.9933 13.962 11.2222Z" fill="url(#paint1_linear_7348_85116)"/>
<path d="M12.5845 12.3273C12.2105 12.7761 11.5521 13.9601 10.5672 14.9281C9.42276 16.0529 4.90455 19.0889 2.11249 14.2971C2.31197 15.6934 5.72783 20.5055 10.7145 19.8323C14.3695 19.3389 16.406 17.6567 17.1116 16.6687C17.1496 16.6155 17.0774 16.5471 17.0187 16.5761C16.0509 17.0545 14.2658 16.6981 13.3325 15.469C12.2595 14.0557 12.9613 12.1768 13.962 11.2222C13.265 11.6021 12.8179 12.0473 12.5845 12.3273Z" fill="url(#paint2_linear_7348_85116)"/>
<defs>
<linearGradient id="paint0_linear_7348_85116" x1="2.67642" y1="6.86497" x2="18.0025" y2="12.7861" gradientUnits="userSpaceOnUse">
<stop stop-color="white"/>
<stop offset="1" stop-color="#1D1D22" stop-opacity="0"/>
</linearGradient>
<linearGradient id="paint1_linear_7348_85116" x1="2.67642" y1="6.86497" x2="18.0025" y2="12.7861" gradientUnits="userSpaceOnUse">
<stop stop-color="white"/>
<stop offset="1" stop-color="#1D1D22" stop-opacity="0"/>
</linearGradient>
<linearGradient id="paint2_linear_7348_85116" x1="8.08057" y1="14.7311" x2="11.7121" y2="19.8891" gradientUnits="userSpaceOnUse">
<stop stop-color="white"/>
<stop offset="1" stop-color="#1D1D22" stop-opacity="0"/>
</linearGradient>
</defs>
</svg>
