<svg width="24" height="24" viewBox="0 0 24 24" fill="none" xmlns="http://www.w3.org/2000/svg">
<g clip-path="url(#clip0_1397_40655)">
<path d="M8.01243 0.695303C10.4106 -0.201722 13.1099 -0.20377 15.5532 0.533511C18.7337 1.52065 21.4187 3.92091 22.8215 6.93352C23.2086 7.79163 23.5793 8.68661 23.6162 9.64098C21.8283 8.60469 19.8683 7.93295 17.9043 7.32059C14.7626 6.18805 11.4736 5.40161 8.49985 3.84513C7.80763 3.43144 6.92494 3.0075 6.73652 2.14529C6.66075 1.39982 7.44923 0.984072 8.01243 0.695303Z" fill="#1D1D22"/>
<path d="M0.772876 7.94517C1.46715 6.06101 2.60584 4.31201 4.15208 3.01562C4.5453 6.24942 5.92156 9.37467 8.19484 11.7258C10.9207 14.5582 14.8037 16.2969 18.7543 16.2314C20.3231 16.2805 21.8571 15.918 23.3869 15.6252C21.8816 21.0647 15.9199 24.6753 10.3964 23.8069C7.06229 23.381 3.98414 21.4067 2.12661 18.6194C0.0314988 15.5392 -0.496886 11.4493 0.772876 7.94517Z" fill="#1D1D22"/>
<path opacity="0.6" d="M18 7.40039C19.958 7.99759 21.9119 8.65272 23.6942 9.66337L23.8147 9.72529C23.9801 10.9417 24.1005 12.182 23.88 13.4004C22.9837 13.0289 22.2569 12.3758 21.4974 11.7985C20.0356 10.6081 18.5431 9.24593 18 7.40039Z" fill="#1D1D22"/>
</g>
<defs>
<clipPath id="clip0_1397_40655">
<rect width="24" height="24" fill="white"/>
</clipPath>
</defs>
</svg>
