<svg width="20" height="20" viewBox="0 0 20 20" fill="none" xmlns="http://www.w3.org/2000/svg">
<path d="M7.30153 2.46479C8.90635 1.86515 10.7126 1.86378 12.3476 2.35664C14.4759 3.01651 16.2726 4.62103 17.2114 6.63488C17.4704 7.20851 17.7184 7.80677 17.7431 8.44475C16.5467 7.75201 15.2352 7.30297 13.9209 6.89363C11.8186 6.13655 9.61762 5.61084 7.62771 4.57037C7.16449 4.29383 6.57382 4.01044 6.44773 3.43407C6.39703 2.93574 6.92466 2.65783 7.30153 2.46479Z" fill="white"/>
<path d="M2.45707 7.3109C2.92165 6.05138 3.68363 4.88223 4.71833 4.01562C4.98146 6.17733 5.90242 8.26648 7.42363 9.83814C9.24772 11.7315 11.8461 12.8938 14.4898 12.85C15.5395 12.8829 16.566 12.6406 17.5897 12.4448C16.5825 16.0809 12.593 18.4946 8.89688 17.9141C6.66577 17.6293 4.60596 16.3096 3.36294 14.4463C1.96096 12.3873 1.60738 9.65332 2.45707 7.3109Z" fill="white"/>
<path opacity="0.6" d="M13.9854 6.94727C15.2956 7.34648 16.6031 7.78442 17.7958 8.46001L17.8764 8.5014C17.987 9.31452 18.0677 10.1437 17.9201 10.9581C17.3203 10.7098 16.8339 10.2732 16.3257 9.88731C15.3475 9.09155 14.3488 8.18096 13.9854 6.94727Z" fill="white"/>
</svg>
