<svg width="20" height="20" viewBox="0 0 20 20" fill="none" xmlns="http://www.w3.org/2000/svg">
<path d="M15.0922 6.31791C14.7232 6.0971 14.2435 6.0971 13.8377 6.31791L10.9594 8.01082L9.00366 9.11491L6.12546 10.8078C5.75645 11.0286 5.27675 11.0286 4.87085 10.8078L2.58303 9.48286C2.21402 9.26206 1.95572 8.85727 1.95572 8.41564V5.80268C1.95572 5.36105 2.17712 4.95623 2.58303 4.73542L4.83394 3.44735C5.20295 3.22653 5.68265 3.22653 6.08855 3.44735L8.33949 4.73542C8.70846 4.95623 8.96678 5.36105 8.96678 5.80268V7.49558L10.9225 6.35472V4.66182C10.9225 4.22019 10.7011 3.81536 10.2952 3.59455L6.12546 1.16561C5.75645 0.944797 5.27675 0.944797 4.87085 1.16561L0.627306 3.59455C0.221402 3.81536 0 4.22019 0 4.66182V9.55652C0 9.99813 0.221402 10.403 0.627306 10.6238L4.87085 13.0527C5.23984 13.2735 5.71956 13.2735 6.12546 13.0527L9.00366 11.3966L10.9594 10.2558L13.8377 8.59965C14.2066 8.37884 14.6863 8.37884 15.0922 8.59965L17.3432 9.88772C17.7121 10.1085 17.9704 10.5134 17.9704 10.955V13.5679C17.9704 14.0096 17.7491 14.4144 17.3432 14.6352L15.0922 15.9601C14.7232 16.1809 14.2435 16.1809 13.8377 15.9601L11.5867 14.672C11.2177 14.4512 10.9594 14.0464 10.9594 13.6047V11.9119L9.00366 13.0527V14.7456C9.00366 15.1872 9.22511 15.5921 9.63096 15.8129L13.8745 18.2418C14.2435 18.4626 14.7232 18.4626 15.1291 18.2418L19.3727 15.8129C19.7417 15.5921 20 15.1872 20 14.7456V9.8509C20 9.40929 19.7786 9.0045 19.3727 8.7837L15.0922 6.31791Z" fill="white"/>
</svg>
