<svg width="20" height="20" viewBox="0 0 20 20" fill="none" xmlns="http://www.w3.org/2000/svg">
<path d="M14.5453 2.24605C15.1558 2.24605 15.6519 1.74195 15.6519 1.12262C15.6519 0.503301 15.1558 0 14.5453 0C13.9348 0.00320064 13.4387 0.506501 13.4387 1.12583C13.4387 1.74515 13.9348 2.24605 14.5453 2.24605ZM14.8718 5.16503C15.1222 5.16313 15.3616 5.06184 15.5373 4.88343C15.713 4.70503 15.8107 4.46413 15.8088 4.21372C15.8088 3.69042 15.3895 3.26233 14.8718 3.26233C14.3541 3.26233 13.9348 3.68722 13.9348 4.21372C13.9348 4.74023 14.3533 5.16503 14.8718 5.16503ZM17.4443 5.53711C17.9596 5.53711 18.3789 5.11222 18.3789 4.58812C18.3789 4.06401 17.9596 3.63913 17.4443 3.63913C16.929 3.63913 16.5097 4.06401 16.5097 4.58812C16.5097 5.11222 16.9298 5.53711 17.4443 5.53711ZM17.1354 8.03441C17.5771 8.03441 17.9348 7.67113 17.9348 7.22384C17.9348 6.77656 17.5771 6.41328 17.1354 6.41328C16.6937 6.41328 16.3361 6.77656 16.3361 7.22384C16.3361 7.67113 16.6937 8.03441 17.1354 8.03441ZM19.195 8.84417C19.6399 8.84417 20 8.4785 20 8.02801C20 7.57752 19.6399 7.21184 19.195 7.21184C19.0886 7.21258 18.9833 7.23427 18.8853 7.27568C18.7872 7.31709 18.6983 7.37742 18.6235 7.45321C18.5488 7.52899 18.4897 7.61876 18.4496 7.71739C18.4096 7.81601 18.3893 7.92156 18.3901 8.02801V8.02801C18.3901 8.4785 18.7509 8.84417 19.195 8.84417ZM14.5469 7.69674C14.6551 7.69611 14.7622 7.67417 14.8619 7.63217C14.9617 7.59017 15.0522 7.52893 15.1283 7.45196C15.2044 7.37498 15.2645 7.28377 15.3054 7.18354C15.3462 7.0833 15.3669 6.976 15.3663 6.86777V6.86777V6.86617C15.3663 6.40768 15.0006 6.03561 14.5469 6.03561C14.0932 6.03561 13.7275 6.40688 13.7275 6.86617C13.7275 7.32226 14.094 7.69674 14.5469 7.69674ZM13.8044 9.68354C14.1844 9.68354 14.4909 9.37147 14.4909 8.9882C14.4924 8.80528 14.4212 8.62926 14.2929 8.49886C14.1646 8.36846 13.9898 8.29436 13.8068 8.29286H13.8044C13.4243 8.29286 13.1178 8.60492 13.1178 8.9882C13.1178 9.37147 13.4243 9.68354 13.8044 9.68354ZM16.3809 10.0348C16.4709 10.0342 16.56 10.0158 16.6429 9.98081C16.7259 9.94578 16.8011 9.89476 16.8643 9.83065C16.9276 9.76654 16.9775 9.69061 17.0114 9.60718C17.0453 9.52375 17.0624 9.43447 17.0618 9.34443V9.34275C17.0618 8.96027 16.7578 8.65061 16.3809 8.65061C16.004 8.65061 15.6999 8.96027 15.6999 9.34275C15.6988 9.43247 15.7153 9.52154 15.7486 9.60488C15.7818 9.68822 15.8312 9.76419 15.8938 9.82845C15.9564 9.89271 16.0311 9.94401 16.1135 9.97942C16.196 10.0148 16.2846 10.0336 16.3743 10.0348H16.3809V10.0348ZM18.4349 10.8414C18.815 10.8414 19.1214 10.5293 19.1214 10.1436C19.1214 9.75795 18.815 9.44589 18.4349 9.44589C18.0548 9.44589 17.7484 9.75795 17.7484 10.1436C17.7464 10.3268 17.8173 10.5032 17.9455 10.634C18.0736 10.7649 18.2485 10.8394 18.4316 10.8414H18.4349ZM17.4203 12.3489C17.7411 12.3489 18.0004 12.084 18.0004 11.7608C18.0004 11.4375 17.7411 11.1726 17.4203 11.1726C17.0994 11.1726 16.8402 11.4375 16.8402 11.7608C16.8402 12.084 17.0994 12.3489 17.4203 12.3489ZM15.3567 11.5551C15.6831 11.5551 15.9504 11.2847 15.9504 10.9526C15.9504 10.6205 15.6855 10.3501 15.3567 10.3501C15.0278 10.3501 14.763 10.6205 14.763 10.9526C14.763 11.2847 15.0302 11.5551 15.3567 11.5551ZM12.7834 11.187C12.94 11.1846 13.0894 11.1207 13.1993 11.0091C13.3092 10.8975 13.3709 10.7472 13.371 10.5905C13.3711 10.4339 13.3096 10.2835 13.1999 10.1717C13.0901 10.06 12.9408 9.99587 12.7842 9.9932H12.7834C12.6267 9.99566 12.4774 10.0596 12.3674 10.1712C12.2575 10.2828 12.1958 10.4331 12.1957 10.5897C12.1956 10.7464 12.2571 10.8968 12.3669 11.0085C12.4766 11.1203 12.6259 11.1844 12.7826 11.187H12.7834ZM14.214 12.6033C14.4981 12.6033 14.7261 12.3697 14.7261 12.0856C14.7274 11.9496 14.6746 11.8186 14.5793 11.7216C14.4841 11.6245 14.3541 11.5692 14.2181 11.5679H14.214C13.93 11.5679 13.7019 11.8016 13.7019 12.0856C13.7004 12.2214 13.753 12.3523 13.8479 12.4493C13.9429 12.5464 14.0726 12.6018 14.2084 12.6033H14.214ZM16.2769 13.4107C16.5609 13.4107 16.7946 13.177 16.7946 12.8874C16.7946 12.5977 16.5641 12.3641 16.2769 12.3641C16.1381 12.3641 16.005 12.4192 15.9068 12.5173C15.8087 12.6155 15.7536 12.7486 15.7536 12.8874C15.7536 13.0262 15.8087 13.1593 15.9068 13.2574C16.005 13.3555 16.1381 13.4107 16.2769 13.4107V13.4107ZM15.115 14.0164C15.3399 14.0164 15.5231 13.8308 15.5231 13.6027C15.5237 13.4938 15.4811 13.389 15.4046 13.3115C15.3281 13.2339 15.224 13.1899 15.115 13.189C14.8902 13.189 14.7069 13.3747 14.7069 13.6027C14.7067 13.7115 14.7495 13.816 14.8259 13.8935C14.9023 13.971 15.0062 14.0151 15.115 14.0164V14.0164ZM14.014 14.3413C14.0627 14.341 14.111 14.3311 14.1559 14.3121C14.2008 14.2932 14.2415 14.2656 14.2758 14.2309C14.3101 14.1962 14.3371 14.1551 14.3555 14.11C14.3739 14.0648 14.3832 14.0165 14.3829 13.9678V13.9668C14.3829 13.7588 14.2164 13.5923 14.014 13.5923C13.9653 13.5926 13.917 13.6025 13.8721 13.6215C13.8272 13.6404 13.7865 13.668 13.7522 13.7027C13.718 13.7374 13.6909 13.7785 13.6725 13.8236C13.6541 13.8688 13.6448 13.9171 13.6451 13.9658V13.9668C13.6434 14.0644 13.6806 14.1587 13.7484 14.2289C13.8162 14.2991 13.9091 14.3395 14.0067 14.3412L14.014 14.3413ZM13.0498 13.2643C13.2923 13.2643 13.4891 13.0642 13.4891 12.8194C13.4891 12.5745 13.2923 12.3745 13.0498 12.3745C12.8074 12.3745 12.6105 12.5745 12.6105 12.8194C12.6103 12.9365 12.6563 13.0489 12.7386 13.1322C12.8209 13.2156 12.9327 13.263 13.0498 13.2643ZM11.6351 12.244C11.9168 12.244 12.1472 12.0136 12.1472 11.7263C12.1472 11.4391 11.9192 11.2086 11.6351 11.2086C11.3535 11.2086 11.123 11.4391 11.123 11.7263C11.1228 11.8627 11.1765 11.9937 11.2724 12.0907C11.3684 12.1877 11.4987 12.2428 11.6351 12.244ZM15.8304 18.7301C16.4385 18.7301 16.9314 18.2292 16.9314 17.6123C16.9314 16.9954 16.4385 16.4945 15.8304 16.4945C15.2222 16.4945 14.7293 16.9954 14.7293 17.6123C14.7293 18.2292 15.2222 18.7301 15.8304 18.7301ZM13.0338 17.3155C13.5403 17.3155 13.9516 16.8986 13.9516 16.3841C13.9516 15.8696 13.5403 15.4527 13.0338 15.4527C12.5273 15.4527 12.116 15.8696 12.116 16.3841C12.116 16.8986 12.5265 17.3155 13.0338 17.3155ZM11.4359 19.3631C11.948 19.3631 12.3617 18.9438 12.3617 18.4229C12.3617 17.9052 11.948 17.4827 11.4359 17.4827C10.9238 17.4827 10.5101 17.902 10.5101 18.4229C10.5082 18.6703 10.6046 18.9084 10.7782 19.0847C10.9518 19.261 11.1884 19.3611 11.4358 19.3631H11.4359ZM10.955 15.5903C11.0611 15.5896 11.1661 15.568 11.2638 15.5267C11.3616 15.4854 11.4503 15.4252 11.5248 15.3497C11.5993 15.2741 11.6582 15.1846 11.6982 15.0863C11.7381 14.9879 11.7583 14.8827 11.7576 14.7766V14.7766C11.7583 14.6704 11.7381 14.5652 11.6982 14.4669C11.6582 14.3685 11.5993 14.279 11.5248 14.2035C11.4503 14.1279 11.3616 14.0677 11.2638 14.0264C11.1661 13.9852 11.0611 13.9635 10.955 13.9628V13.9628C10.8489 13.9635 10.7439 13.9852 10.6461 14.0264C10.5484 14.0677 10.4597 14.1279 10.3852 14.2035C10.3106 14.279 10.2517 14.3685 10.2118 14.4669C10.1719 14.5652 10.1517 14.6704 10.1524 14.7766V14.7766C10.1532 15.2246 10.5133 15.5903 10.955 15.5903V15.5903ZM9.36107 17.6659C9.80276 17.6659 10.1604 17.3027 10.1604 16.8554C10.1604 16.4081 9.80276 16.0448 9.36107 16.0448C8.91938 16.0448 8.56171 16.4081 8.56171 16.8554C8.5596 17.0682 8.64211 17.2732 8.7911 17.4252C8.94009 17.5772 9.14336 17.6638 9.35619 17.6659H9.36107ZM7.64313 19.0742C8.08482 19.0742 8.44009 18.7109 8.44009 18.2661C8.44009 17.8188 8.08242 17.4579 7.64313 17.4579C7.20144 17.4579 6.84617 17.8212 6.84617 18.2661C6.84617 18.7109 7.20384 19.0742 7.64313 19.0742V19.0742ZM6.21324 17.241C6.39485 17.2394 6.56841 17.1659 6.696 17.0367C6.82359 16.9074 6.89484 16.7329 6.89418 16.5513C6.89418 16.1712 6.59012 15.8616 6.21324 15.8616C6.03213 15.8643 5.85937 15.9382 5.73227 16.0673C5.60517 16.1963 5.53393 16.3702 5.53393 16.5513C5.53393 16.7324 5.60517 16.9063 5.73227 17.0354C5.85937 17.1644 6.03213 17.2383 6.21324 17.241ZM7.93439 15.8264C8.11612 15.8251 8.28991 15.7517 8.41759 15.6224C8.54527 15.4931 8.61639 15.3184 8.61532 15.1366C8.61532 14.7542 8.31126 14.4469 7.93439 14.4469C7.75326 14.4493 7.58036 14.5229 7.45302 14.6517C7.32568 14.7806 7.25412 14.9543 7.25381 15.1354C7.25349 15.3166 7.32444 15.4906 7.45133 15.6199C7.57822 15.7491 7.75087 15.8233 7.93199 15.8264H7.93439ZM9.54031 13.7516C9.63035 13.7509 9.71939 13.7326 9.80234 13.6976C9.88529 13.6625 9.96053 13.6115 10.0238 13.5474C10.087 13.4833 10.137 13.4073 10.1709 13.3239C10.2047 13.2405 10.2219 13.1512 10.2212 13.0612V13.0595C10.2212 12.677 9.91718 12.3674 9.54031 12.3674C9.45027 12.368 9.36123 12.3863 9.27828 12.4213C9.19532 12.4564 9.12008 12.5074 9.05685 12.5715C8.99362 12.6356 8.94364 12.7116 8.90975 12.795C8.87587 12.8784 8.85875 12.9677 8.85937 13.0577V13.0577V13.0594C8.85937 13.4419 9.16343 13.7516 9.54031 13.7516ZM7.08382 14.0372C7.41028 14.0372 7.67514 13.77 7.67514 13.4379C7.67514 13.1058 7.41028 12.8386 7.08382 12.8386C6.75735 12.8386 6.4925 13.1058 6.4925 13.4379C6.4925 13.77 6.75735 14.0372 7.08382 14.0372ZM5.37147 15.4463C5.44881 15.4459 5.52531 15.4302 5.5966 15.4002C5.66789 15.3703 5.73258 15.3265 5.78697 15.2715C5.84136 15.2166 5.88438 15.1514 5.91359 15.0798C5.9428 15.0082 5.95761 14.9315 5.95719 14.8542V14.8542V14.8526C5.95868 14.6966 5.89816 14.5464 5.78893 14.4351C5.67971 14.3237 5.53072 14.2604 5.37476 14.2589H5.37147C5.29414 14.2593 5.21764 14.2749 5.14635 14.3049C5.07506 14.3349 5.01037 14.3786 4.95598 14.4336C4.90159 14.4886 4.85857 14.5537 4.82936 14.6254C4.80015 14.697 4.78534 14.7736 4.78576 14.851V14.851V14.8526C4.78523 14.93 4.79996 15.0068 4.82911 15.0786C4.85826 15.1503 4.90126 15.2156 4.95565 15.2707C5.01004 15.3259 5.07475 15.3698 5.1461 15.3999C5.21745 15.43 5.29403 15.4458 5.37147 15.4463ZM4.9778 13.7948C5.11277 13.7937 5.24184 13.7392 5.33676 13.6433C5.43168 13.5473 5.48472 13.4176 5.4843 13.2827C5.4843 12.9986 5.25625 12.7706 4.9778 12.7706C4.69934 12.7706 4.47129 13.001 4.47129 13.2827C4.47129 13.5667 4.69934 13.7948 4.9778 13.7948ZM4.96339 12.3457C5.02087 12.3451 5.07768 12.3333 5.13059 12.3108C5.18349 12.2883 5.23145 12.2557 5.27172 12.2147C5.31199 12.1736 5.34379 12.1251 5.3653 12.0718C5.38681 12.0185 5.39761 11.9615 5.39708 11.904V11.904C5.39708 11.6615 5.20264 11.4623 4.96339 11.4623C4.72414 11.4623 4.52971 11.6591 4.52971 11.904C4.52971 12.1488 4.72414 12.3457 4.96339 12.3457V12.3457ZM5.20184 11.1406C5.40748 11.1406 5.57071 10.9718 5.57071 10.7662C5.57071 10.5605 5.40428 10.3917 5.20184 10.3917C4.9962 10.3917 4.83297 10.5605 4.83297 10.7662C4.83297 10.9718 4.9962 11.1406 5.20184 11.1406V11.1406ZM6.67814 10.939C6.92058 10.939 7.11742 10.7389 7.11742 10.4941C7.11742 10.2492 6.92058 10.0492 6.67814 10.0492C6.43569 10.0492 6.23885 10.2492 6.23885 10.4941C6.23842 10.6113 6.28439 10.7238 6.3667 10.8072C6.44902 10.8905 6.56099 10.9379 6.67814 10.939V10.939ZM8.29846 10.3077C8.58012 10.3077 8.81056 10.074 8.81056 9.78996C8.81184 9.65394 8.75904 9.52298 8.66377 9.4259C8.56849 9.32881 8.43856 9.27354 8.30254 9.27225H8.29846C8.0168 9.27225 7.78636 9.5059 7.78636 9.78996C7.78583 9.85742 7.7986 9.92432 7.82393 9.98685C7.84926 10.0494 7.88665 10.1063 7.93398 10.1544C7.98131 10.2025 8.03765 10.2407 8.09978 10.267C8.1619 10.2933 8.2286 10.3071 8.29606 10.3077H8.29846ZM8.68414 11.9512C8.83823 11.9509 8.98589 11.8894 9.09468 11.7803C9.20347 11.6711 9.26449 11.5233 9.26433 11.3692C9.26417 11.2151 9.20285 11.0674 9.09383 10.9585C8.98482 10.8496 8.83703 10.7884 8.68294 10.7884C8.52884 10.7884 8.38105 10.8496 8.27204 10.9585C8.16302 11.0674 8.1017 11.2151 8.10154 11.3692C8.10138 11.5233 8.1624 11.6711 8.27119 11.7803C8.37998 11.8894 8.52764 11.9509 8.68174 11.9512H8.68414ZM6.69894 12.3889C6.9806 12.3889 7.20544 12.1584 7.20544 11.8736C7.20544 11.5887 6.9774 11.3583 6.69894 11.3583C6.63201 11.3587 6.56581 11.3723 6.50413 11.3983C6.44245 11.4243 6.3865 11.4621 6.33947 11.5098C6.29243 11.5574 6.25524 11.6138 6.23001 11.6758C6.20478 11.7378 6.19202 11.8042 6.19244 11.8711V11.8736C6.19149 11.9403 6.20368 12.0065 6.22833 12.0685C6.25298 12.1305 6.2896 12.1871 6.3361 12.2349C6.3826 12.2827 6.43806 12.321 6.49933 12.3474C6.5606 12.3738 6.62647 12.3878 6.69318 12.3888H6.69894V12.3889ZM1.09782 11.6247C1.70274 11.6247 2.19564 11.1262 2.19564 10.5125C2.19564 9.89878 1.70274 9.40028 1.09782 9.40028C0.492899 9.40028 0 9.89958 0 10.5133C0 11.127 0.492899 11.6247 1.09782 11.6247V11.6247ZM3.58952 9.63873C4.11042 9.63873 4.52971 9.21064 4.52971 8.68414C4.52971 8.15763 4.10722 7.72955 3.58952 7.72955C3.33848 7.73124 3.09839 7.83258 2.92208 8.01129C2.74576 8.18999 2.64765 8.43142 2.64933 8.68246V8.68414C2.64933 9.21384 3.07181 9.63873 3.58952 9.63873V9.63873ZM2.61732 7.19024C3.13503 7.19024 3.55191 6.76535 3.55191 6.24125C3.55191 5.71714 3.13263 5.29226 2.61732 5.29226C2.49375 5.29309 2.37156 5.31825 2.25771 5.3663C2.14387 5.41436 2.0406 5.48437 1.95382 5.57234C1.86703 5.6603 1.79842 5.7645 1.75191 5.87899C1.7054 5.99347 1.68189 6.116 1.68274 6.23957V6.24125C1.6802 6.49037 1.77672 6.73031 1.95107 6.90827C2.12542 7.08624 2.36332 7.18766 2.61244 7.19024H2.61732ZM5.0194 6.03001C5.46109 6.03001 5.82196 5.66673 5.82196 5.21624C5.82196 4.76575 5.46189 4.40248 5.0194 4.40248C4.57692 4.40248 4.21684 4.76575 4.21684 5.21624C4.21684 5.66673 4.57772 6.03001 5.0194 6.03001V6.03001ZM6.0012 8.47289C6.44609 8.47289 6.80616 8.10722 6.80616 7.65673C6.80616 7.20624 6.44609 6.84057 6.0012 6.84057C5.55631 6.84057 5.19624 7.20624 5.19624 7.65673C5.19624 8.10722 5.55631 8.47289 6.0012 8.47289ZM8.18724 7.96559C8.37015 7.96409 8.54497 7.89001 8.67327 7.75962C8.80156 7.62924 8.87282 7.45325 8.87137 7.27033V7.27033C8.87275 7.18049 8.85642 7.09126 8.82331 7.00773C8.7902 6.9242 8.74096 6.84801 8.67841 6.78351C8.61585 6.719 8.54121 6.66746 8.45873 6.6318C8.37625 6.59615 8.28756 6.57709 8.19772 6.57572C8.10788 6.57434 8.01864 6.59067 7.93511 6.62378C7.85158 6.65689 7.77539 6.70613 7.71089 6.76868C7.64639 6.83124 7.59484 6.90588 7.55919 6.98836C7.52354 7.07084 7.50448 7.15953 7.5031 7.24937C7.5031 7.25641 7.5031 7.26337 7.5031 7.27033C7.50099 7.45261 7.57136 7.62826 7.69874 7.75866C7.82612 7.88906 8.00008 7.96352 8.18236 7.96567L8.18724 7.96559ZM10.0756 7.97199C10.4021 7.97199 10.6669 7.70474 10.6669 7.37508C10.6669 7.04541 10.4021 6.77816 10.0756 6.77816C9.9173 6.77816 9.76547 6.84105 9.65353 6.95299C9.54159 7.06493 9.4787 7.21676 9.4787 7.37508C9.4787 7.53339 9.54159 7.68522 9.65353 7.79716C9.76547 7.90911 9.9173 7.97199 10.0756 7.97199V7.97199ZM11.6359 8.33127C11.9088 8.33127 12.1344 8.10642 12.1344 7.82717C12.1344 7.54791 11.912 7.32306 11.6359 7.32306C11.5031 7.3241 11.376 7.37772 11.2826 7.4722C11.1892 7.56667 11.137 7.6943 11.1374 7.82717C11.1406 8.10322 11.3623 8.33127 11.6359 8.33127ZM11.8392 6.4925C11.9549 6.49167 12.0656 6.44495 12.1469 6.36258C12.2282 6.28022 12.2735 6.16895 12.2729 6.05321C12.2729 5.81076 12.0784 5.61392 11.8392 5.61392C11.5999 5.61392 11.4055 5.81076 11.4055 6.05321C11.4048 6.16895 11.4501 6.28022 11.5314 6.36258C11.6128 6.44495 11.7234 6.49167 11.8392 6.4925V6.4925ZM10.6389 5.89078C10.7714 5.89045 10.8983 5.83756 10.9917 5.74374C11.0852 5.64991 11.1376 5.52282 11.1375 5.39038C11.1373 5.25794 11.0846 5.13098 10.9909 5.03738C10.8972 4.94379 10.7701 4.89122 10.6377 4.89122C10.5052 4.89122 10.3782 4.94379 10.2845 5.03738C10.1908 5.13098 10.1381 5.25794 10.1379 5.39038C10.1377 5.52282 10.1902 5.64991 10.2836 5.74374C10.3771 5.83756 10.504 5.89045 10.6364 5.89078H10.6389ZM9.09702 5.52591C9.25336 5.52464 9.40281 5.46142 9.51261 5.35012C9.62241 5.23883 9.68359 5.08853 9.68274 4.93219C9.68274 4.60252 9.42108 4.33847 9.09702 4.33847C8.77295 4.33847 8.5113 4.60572 8.5113 4.93219C8.51067 5.00953 8.52528 5.08623 8.55429 5.15792C8.5833 5.22962 8.62615 5.29489 8.68039 5.35003C8.73463 5.40516 8.7992 5.44907 8.87041 5.47924C8.94162 5.50942 9.01808 5.52528 9.09542 5.52591H9.09702ZM7.21184 5.52831C7.59192 5.52831 7.89838 5.21624 7.89838 4.83297C7.89838 4.44969 7.59192 4.13763 7.21184 4.13763C6.83177 4.13763 6.52531 4.44969 6.52531 4.83297C6.52466 5.01606 6.59651 5.19196 6.72515 5.32225C6.85378 5.45253 7.02876 5.52662 7.21184 5.52831V5.52831ZM4.67293 3.78956C5.10342 3.78956 5.44989 3.43749 5.44989 3.0014C5.44989 2.56531 5.10102 2.21324 4.67293 2.21324C4.24245 2.21324 3.89598 2.56531 3.89598 3.0014C3.89598 3.43749 4.24485 3.78956 4.67293 3.78956ZM6.85817 3.31186C7.23825 3.31186 7.54471 2.9998 7.54471 2.61652C7.54471 2.23325 7.23825 1.92118 6.85817 1.92118C6.4781 1.92118 6.17163 2.23325 6.17163 2.61652C6.17163 2.9998 6.4781 3.31186 6.85817 3.31186V3.31186ZM8.74575 3.32066C9.07221 3.32066 9.33707 3.05341 9.33707 2.72134C9.33707 2.38928 9.07221 2.12202 8.74575 2.12202C8.66768 2.12244 8.59045 2.13824 8.51848 2.1685C8.44651 2.19877 8.38121 2.24291 8.3263 2.29842C8.27139 2.35392 8.22795 2.41969 8.19846 2.49199C8.16897 2.56428 8.15401 2.64167 8.15443 2.71974V2.71974V2.72134C8.15377 2.87911 8.2156 3.03073 8.32641 3.14303C8.43722 3.25534 8.58799 3.31921 8.74575 3.32066V3.32066ZM10.2949 3.67754C10.5709 3.67754 10.7934 3.45269 10.7934 3.17343C10.7934 2.89418 10.5709 2.66933 10.2949 2.66933C10.1612 2.66933 10.0329 2.72244 9.93841 2.81698C9.84387 2.91152 9.79076 3.03974 9.79076 3.17343C9.79076 3.30713 9.84387 3.43535 9.93841 3.52989C10.0329 3.62443 10.1612 3.67754 10.2949 3.67754ZM11.4847 4.29526C11.6034 4.29441 11.7169 4.2465 11.8003 4.16204C11.8837 4.07758 11.9302 3.96347 11.9296 3.84477C11.9296 3.59432 11.7295 3.39428 11.4847 3.39428C11.2398 3.39428 11.0398 3.59672 11.0398 3.84477C11.0398 4.09282 11.2398 4.29526 11.4847 4.29526ZM12.3577 5.0042C12.406 5.00389 12.4538 4.99405 12.4983 4.97527C12.5429 4.95648 12.5833 4.9291 12.6172 4.8947C12.6512 4.8603 12.678 4.81954 12.6962 4.77477C12.7145 4.72999 12.7237 4.68206 12.7233 4.63373V4.63293C12.7238 4.58459 12.7147 4.53664 12.6966 4.49183C12.6784 4.44701 12.6517 4.40619 12.6178 4.37172C12.5839 4.33724 12.5436 4.30978 12.4991 4.29089C12.4546 4.27201 12.4068 4.26207 12.3585 4.26165H12.3577C12.3093 4.26197 12.2615 4.2718 12.217 4.29059C12.1725 4.30937 12.1321 4.33675 12.0981 4.37115C12.0641 4.40556 12.0373 4.44631 12.0191 4.49109C12.0009 4.53586 11.9917 4.58379 11.992 4.63213V4.63293C11.9913 4.68095 12 4.72864 12.0177 4.77328C12.0354 4.81793 12.0617 4.85865 12.0951 4.89312C12.1286 4.92759 12.1685 4.95514 12.2126 4.97418C12.2566 4.99323 12.3041 5.0034 12.3521 5.00412H12.3578L12.3577 5.0042Z" fill="white"/>
</svg>
