<svg width="24" height="24" viewBox="0 0 24 24" fill="none" xmlns="http://www.w3.org/2000/svg">
<path opacity="0.95" d="M10.4 4H2.4C1.76348 4 1.15303 4.25288 0.702944 4.70296C0.252856 5.15304 0 5.76352 0 6.4V17.6C0.000912 18.108 0.162976 18.6026 0.462872 19.0126C0.76276 19.4226 1.18501 19.7269 1.66884 19.8816C2.15267 20.0364 2.67312 20.0336 3.15529 19.8738C3.63744 19.7139 4.05648 19.4051 4.352 18.992L12.352 7.792C12.6074 7.43328 12.7592 7.01112 12.7908 6.57184C12.8223 6.13256 12.7323 5.69312 12.5308 5.30152C12.3292 4.91 12.0238 4.58144 11.648 4.35184C11.2722 4.12232 10.8404 4.00056 10.4 4ZM4 9.6C3.68352 9.6 3.37424 9.50616 3.11109 9.33032C2.84797 9.15456 2.64289 8.90464 2.52179 8.61232C2.40069 8.31992 2.36901 7.99824 2.43074 7.68784C2.49248 7.37752 2.64486 7.0924 2.86863 6.86864C3.09239 6.64488 3.37752 6.49248 3.68784 6.43072C3.99824 6.36904 4.31992 6.40072 4.61232 6.52176C4.90464 6.64288 5.15456 6.848 5.33032 7.11112C5.50616 7.37424 5.6 7.68352 5.6 8C5.6 8.42432 5.43144 8.83128 5.13136 9.13136C4.83128 9.43144 4.42432 9.6 4 9.6Z" fill="#1D1D22"/>
<path opacity="0.95" d="M16.3999 19.1999C17.5045 19.1999 18.3999 18.3045 18.3999 17.2C18.3999 16.0954 17.5045 15.2 16.3999 15.2C15.2953 15.2 14.3999 16.0954 14.3999 17.2C14.3999 18.3045 15.2953 19.1999 16.3999 19.1999Z" fill="#1D1D22"/>
<path opacity="0.95" d="M24.0002 6.4V17.6C24.0011 18.1989 23.778 18.7765 23.3748 19.2194C22.9716 19.6622 22.4175 19.9383 21.8211 19.9934C21.2247 20.0486 20.6293 19.8788 20.1517 19.5173C19.6742 19.1558 19.3491 18.629 19.2402 18.04C19.2146 17.8947 19.2012 17.7475 19.2002 17.6V15.776C19.1959 15.2694 19.0314 14.7771 18.7303 14.3697C18.4292 13.9622 18.0068 13.6606 17.5238 13.5078C17.0407 13.3551 16.5217 13.3592 16.0411 13.5194C15.5604 13.6797 15.1429 13.9879 14.8482 14.4L13.6002 16.152L11.5922 18.968C11.2092 19.455 10.6528 19.775 10.0392 19.861C9.42572 19.9472 8.80276 19.7927 8.30052 19.43C7.79828 19.0673 7.4558 18.5244 7.3446 17.915C7.23348 17.3055 7.36228 16.6766 7.7042 16.16L15.7042 4.96C15.9252 4.66512 16.2113 4.4252 16.5401 4.25872C16.8689 4.09224 17.2316 4.00368 17.6002 4H21.6002C22.2367 4 22.8472 4.25288 23.2972 4.70296C23.7473 5.15304 24.0002 5.76352 24.0002 6.4Z" fill="#1D1D22"/>
</svg>
