<svg width="20" height="20" viewBox="0 0 20 20" fill="none" xmlns="http://www.w3.org/2000/svg">
<path opacity="0.95" d="M8.66666 3.33301H2C1.46957 3.33301 0.96086 3.54374 0.585787 3.91881C0.210713 4.29387 0 4.80261 0 5.33301V14.6663C0.00076 15.0897 0.135813 15.5018 0.385726 15.8435C0.635633 16.1851 0.987506 16.4387 1.3907 16.5677C1.79389 16.6967 2.2276 16.6943 2.62941 16.5611C3.0312 16.4279 3.3804 16.1706 3.62666 15.8263L10.2933 6.49301C10.5062 6.19407 10.6327 5.84227 10.659 5.47621C10.6853 5.11014 10.6103 4.74394 10.4423 4.41761C10.2743 4.09134 10.0199 3.81754 9.70666 3.62621C9.39346 3.43494 9.03366 3.33347 8.66666 3.33301ZM3.33333 7.99967C3.0696 7.99967 2.81187 7.92147 2.59257 7.77494C2.37331 7.62847 2.20241 7.42021 2.10149 7.17661C2.00058 6.93294 1.97417 6.66487 2.02562 6.40621C2.07707 6.14761 2.20405 5.91001 2.39053 5.72354C2.57699 5.53707 2.8146 5.41007 3.0732 5.35861C3.33187 5.30721 3.59993 5.33361 3.8436 5.43447C4.0872 5.53541 4.29546 5.70634 4.44193 5.92561C4.58846 6.14487 4.66666 6.40261 4.66666 6.66634C4.66666 7.01994 4.5262 7.35907 4.27613 7.60914C4.02606 7.85921 3.68693 7.99967 3.33333 7.99967Z" fill="white"/>
<path opacity="0.95" d="M13.6667 16.0003C14.5871 16.0003 15.3333 15.2541 15.3333 14.3337C15.3333 13.4132 14.5871 12.667 13.6667 12.667C12.7462 12.667 12 13.4132 12 14.3337C12 15.2541 12.7462 16.0003 13.6667 16.0003Z" fill="white"/>
<path opacity="0.95" d="M20 5.33301V14.6663C20.0007 15.1654 19.8149 15.6467 19.4789 16.0158C19.1429 16.3849 18.6811 16.6149 18.1841 16.6609C17.6871 16.7069 17.1909 16.5653 16.7929 16.2641C16.395 15.9629 16.1241 15.5238 16.0333 15.033C16.012 14.9119 16.0009 14.7893 16 14.6663V13.1463C15.9964 12.7241 15.8593 12.3139 15.6084 11.9744C15.3575 11.6349 15.0055 11.3835 14.603 11.2562C14.2004 11.1289 13.7679 11.1323 13.3674 11.2659C12.9669 11.3994 12.6189 11.6563 12.3733 11.9997L11.3333 13.4597L9.66 15.8063C9.3408 16.2121 8.87714 16.4788 8.36587 16.5505C7.8546 16.6223 7.33547 16.4936 6.91694 16.1913C6.49841 15.8891 6.21301 15.4367 6.12034 14.9288C6.02774 14.4209 6.13507 13.8969 6.42001 13.4663L13.0867 4.13301C13.2709 3.88727 13.5093 3.68734 13.7833 3.54861C14.0573 3.40987 14.3595 3.33607 14.6667 3.33301H18C18.5304 3.33301 19.0391 3.54374 19.4142 3.91881C19.7893 4.29387 20 4.80261 20 5.33301Z" fill="white"/>
</svg>
