<svg width="24" height="24" viewBox="0 0 24 24" fill="none" xmlns="http://www.w3.org/2000/svg">
<path d="M3.28563 10.5583C3.05763 8.85915 3.13923 7.21515 3.80643 5.63035C4.96723 2.86956 6.98003 1.03996 9.87283 0.29276C14.26 -0.840039 18.7032 1.39596 20.4336 5.59275C21.0888 7.18235 21.1896 8.81915 20.968 10.4943C20.9488 10.6415 20.824 10.8103 20.6984 10.9023C19.112 12.0695 17.3536 12.3015 15.4608 11.8751C14.3416 11.6231 13.4656 10.9463 12.568 10.3071C11.736 9.71515 10.8776 9.17595 9.86723 8.97275C7.87443 8.57115 5.97043 8.75515 4.25043 9.95355C3.96643 10.1511 3.67923 10.3447 3.39283 10.5383C3.37283 10.5519 3.34243 10.5487 3.28563 10.5583Z" fill="#1D1D22"/>
<path d="M16.9091 14.3799C15.7771 14.3367 14.4859 14.0031 13.3355 13.1807C12.6107 12.6623 11.8939 12.0951 11.0923 11.7271C8.98674 10.7599 6.88355 10.8167 4.86835 12.0415C4.45875 12.2903 4.07315 12.5783 3.67635 12.8479C3.39795 13.0367 3.13235 13.0127 2.94275 12.7375C2.75075 12.4591 2.84435 12.2095 3.10355 12.0087C4.51075 10.9183 6.03475 10.1207 7.86514 10.0655C9.40434 10.0191 10.8619 10.2919 12.1699 11.1511C12.7715 11.5463 13.3643 11.9543 13.9563 12.3631C15.8275 13.6567 18.4771 13.6743 20.3667 12.4023C20.5435 12.2831 20.7179 12.1599 20.8963 12.0431C21.1651 11.8671 21.4371 11.8447 21.6339 12.1303C21.8203 12.4007 21.7563 12.6583 21.4939 12.8647C20.2227 13.8631 18.7843 14.3815 16.9091 14.3799Z" fill="#1D1D22"/>
<path d="M8.27028 18.1258C8.27028 16.4586 8.26948 14.7922 8.27108 13.125C8.27108 12.9786 8.23108 12.7962 8.30148 12.6938C8.41748 12.5242 8.60228 12.3066 8.77028 12.2954C8.93668 12.2842 9.16548 12.4714 9.27748 12.6338C9.37108 12.769 9.35668 12.993 9.35668 13.1778C9.35748 16.4714 9.35428 19.765 9.34708 23.0586C9.34628 23.269 9.36628 23.517 9.26628 23.6802C9.16788 23.841 8.92148 24.0146 8.75508 24.0002C8.59028 23.9866 8.41828 23.765 8.30148 23.5978C8.23748 23.5058 8.27588 23.3394 8.27588 23.2058C8.27508 21.5122 8.27508 19.8186 8.27508 18.125C8.27428 18.1258 8.27268 18.1258 8.27028 18.1258Z" fill="#1D1D22"/>
<path d="M15.9592 18.5618C15.9584 19.4282 15.9624 20.2938 15.9568 21.1602C15.9544 21.5922 15.7704 21.8138 15.432 21.8218C15.108 21.829 14.88 21.5858 14.8784 21.1778C14.8712 19.4458 14.8712 17.7138 14.8784 15.9818C14.88 15.5746 15.112 15.3266 15.4344 15.3362C15.7664 15.3466 15.956 15.5794 15.9576 16.0042C15.9624 16.8562 15.9592 17.709 15.9592 18.5618Z" fill="#1D1D22"/>
<path d="M7.14429 15.6446C7.14429 16.4302 7.14749 17.2166 7.14109 18.0022C7.13949 18.159 7.14509 18.3454 7.06669 18.4638C6.96749 18.6126 6.78189 18.8006 6.63789 18.7974C6.46589 18.7934 6.26349 18.6334 6.14109 18.4854C6.05309 18.3798 6.05309 18.183 6.05229 18.027C6.04589 16.415 6.04829 14.803 6.04829 13.191C6.04829 13.1774 6.04829 13.1646 6.04829 13.151C6.06109 12.6678 6.28029 12.3558 6.60589 12.3574C6.92509 12.359 7.13949 12.6734 7.14189 13.1654C7.14669 13.991 7.14349 14.8174 7.14349 15.643C7.14269 15.6446 7.14349 15.6446 7.14429 15.6446Z" fill="#1D1D22"/>
<path d="M17.086 18.3669C17.086 17.6477 17.0836 16.9293 17.0868 16.2101C17.0884 15.7981 17.286 15.5509 17.6084 15.5413C17.9452 15.5309 18.162 15.7837 18.1636 16.2205C18.1676 17.6845 18.1668 19.1493 18.162 20.6133C18.1604 20.9989 17.9588 21.2101 17.6172 21.2101C17.286 21.2109 17.0892 20.9949 17.086 20.6029C17.0804 19.8573 17.0844 19.1117 17.0844 18.3661C17.0852 18.3669 17.086 18.3669 17.086 18.3669Z" fill="#1D1D22"/>
<path d="M11.5496 15.6368C11.5496 16.2232 11.556 16.8096 11.5472 17.396C11.5408 17.812 11.3392 18.0672 11.028 18.0864C10.7272 18.1048 10.4696 17.848 10.4648 17.44C10.4504 16.2272 10.4544 15.0144 10.472 13.8016C10.4768 13.4784 10.6 13.1872 11.0008 13.176C11.3176 13.1672 11.5368 13.4264 11.5448 13.8376C11.5568 14.4368 11.548 15.0368 11.548 15.6368C11.5488 15.6368 11.5496 15.6368 11.5496 15.6368Z" fill="#1D1D22"/>
<path d="M4.92435 16.011C4.92435 16.5982 4.93155 17.1846 4.92195 17.7718C4.91555 18.1886 4.71315 18.4366 4.39635 18.4518C4.07794 18.4662 3.85314 18.235 3.84914 17.8062C3.83714 16.579 3.84354 15.3518 3.85634 14.1246C3.85954 13.7982 4.00354 13.543 4.37955 13.551C4.74275 13.5582 4.90195 13.807 4.91155 14.131C4.92995 14.7574 4.91715 15.3846 4.91715 16.0118C4.91875 16.011 4.92115 16.011 4.92435 16.011Z" fill="#1D1D22"/>
<path d="M19.3192 16.5469C19.3192 16.2149 19.3112 15.8829 19.3216 15.5509C19.3312 15.2389 19.5024 15.0533 19.816 15.0381C20.1464 15.0221 20.368 15.1997 20.3808 15.5237C20.4088 16.1997 20.4128 16.8781 20.392 17.5541C20.3824 17.8709 20.1568 18.0589 19.8432 18.0829C19.5592 18.1053 19.3312 17.8437 19.3192 17.5021C19.308 17.1837 19.3168 16.8645 19.3168 16.5461C19.3176 16.5469 19.3184 16.5469 19.3192 16.5469Z" fill="#1D1D22"/>
<path d="M12.6852 15.5029C12.6852 15.3309 12.6708 15.1573 12.6884 14.9869C12.7204 14.6861 12.8844 14.4949 13.2028 14.4941C13.5148 14.4933 13.71 14.6613 13.7276 14.9717C13.7484 15.3277 13.746 15.6869 13.7268 16.0437C13.71 16.3613 13.4868 16.5309 13.198 16.5253C12.9068 16.5197 12.7084 16.3333 12.6868 16.0189C12.6756 15.8485 12.6852 15.6757 12.6852 15.5029Z" fill="#1D1D22"/>
</svg>
