<svg width="20" height="20" viewBox="0 0 20 20" fill="none" xmlns="http://www.w3.org/2000/svg">
<path d="M2.73819 8.79862C2.54819 7.38262 2.61619 6.01263 3.17219 4.69196C4.13952 2.3913 5.81686 0.866632 8.22752 0.243966C11.8835 -0.700033 15.5862 1.1633 17.0282 4.66063C17.5742 5.98529 17.6582 7.34929 17.4735 8.74529C17.4575 8.86795 17.3535 9.00862 17.2489 9.08529C15.9269 10.058 14.4615 10.2513 12.8842 9.89595C11.9515 9.68595 11.2215 9.12195 10.4735 8.58929C9.78019 8.09596 9.06486 7.64662 8.22286 7.47729C6.56219 7.14262 4.97552 7.29596 3.54219 8.29462C3.30552 8.45929 3.06619 8.62062 2.82752 8.78195C2.81085 8.79329 2.78552 8.79062 2.73819 8.79862Z" fill="white"/>
<path d="M14.0908 11.9833C13.1475 11.9473 12.0715 11.6693 11.1128 10.9839C10.5088 10.5519 9.91146 10.0793 9.24346 9.77259C7.48879 8.96659 5.73613 9.01392 4.05679 10.0346C3.71546 10.2419 3.39413 10.4819 3.06346 10.7066C2.83146 10.8639 2.61013 10.8439 2.45213 10.6146C2.29213 10.3826 2.37013 10.1746 2.58613 10.0073C3.75879 9.09859 5.02879 8.43392 6.55412 8.38792C7.83679 8.34926 9.05146 8.57659 10.1415 9.29259C10.6428 9.62193 11.1368 9.96193 11.6301 10.3026C13.1895 11.3806 15.3975 11.3953 16.9721 10.3353C17.1194 10.2359 17.2648 10.1333 17.4134 10.0359C17.6374 9.88926 17.8641 9.87059 18.0281 10.1086C18.1834 10.3339 18.1301 10.5486 17.9114 10.7206C16.8521 11.5526 15.6535 11.9846 14.0908 11.9833Z" fill="white"/>
<path d="M6.89158 15.1052C6.89158 13.7158 6.89091 12.3272 6.89224 10.9378C6.89224 10.8158 6.85891 10.6638 6.91758 10.5785C7.01424 10.4372 7.16824 10.2558 7.30824 10.2465C7.44691 10.2372 7.63758 10.3932 7.73091 10.5285C7.80891 10.6412 7.79691 10.8278 7.79691 10.9818C7.79758 13.7265 7.79491 16.4712 7.78891 19.2158C7.78824 19.3912 7.80491 19.5978 7.72158 19.7338C7.63958 19.8678 7.43424 20.0125 7.29558 20.0005C7.15824 19.9892 7.01491 19.8045 6.91758 19.6652C6.86424 19.5885 6.89624 19.4498 6.89624 19.3385C6.89558 17.9272 6.89558 16.5158 6.89558 15.1045C6.89491 15.1052 6.89358 15.1052 6.89158 15.1052Z" fill="white"/>
<path d="M13.2997 15.4685C13.299 16.1905 13.3024 16.9118 13.2977 17.6338C13.2957 17.9938 13.1424 18.1785 12.8604 18.1852C12.5904 18.1912 12.4004 17.9885 12.399 17.6485C12.393 16.2052 12.393 14.7618 12.399 13.3185C12.4004 12.9792 12.5937 12.7725 12.8624 12.7805C13.139 12.7892 13.297 12.9832 13.2984 13.3372C13.3024 14.0472 13.2997 14.7578 13.2997 15.4685Z" fill="white"/>
<path d="M5.95374 13.0372C5.95374 13.6918 5.95641 14.3472 5.95107 15.0018C5.94974 15.1325 5.95441 15.2878 5.88907 15.3865C5.80641 15.5105 5.65174 15.6672 5.53174 15.6645C5.38841 15.6612 5.21974 15.5278 5.11774 15.4045C5.04441 15.3165 5.04441 15.1525 5.04374 15.0225C5.03841 13.6792 5.04041 12.3359 5.04041 10.9925C5.04041 10.9812 5.04041 10.9705 5.04041 10.9592C5.05107 10.5565 5.23374 10.2965 5.50507 10.2979C5.77107 10.2992 5.94974 10.5612 5.95174 10.9712C5.95574 11.6592 5.95307 12.3479 5.95307 13.0358C5.95241 13.0372 5.95307 13.0372 5.95374 13.0372Z" fill="white"/>
<path d="M14.2388 15.3061C14.2388 14.7068 14.2368 14.1081 14.2395 13.5088C14.2408 13.1654 14.4055 12.9594 14.6742 12.9514C14.9548 12.9428 15.1355 13.1534 15.1368 13.5174C15.1402 14.7374 15.1395 15.9581 15.1355 17.1781C15.1342 17.4994 14.9662 17.6754 14.6815 17.6754C14.4055 17.6761 14.2415 17.4961 14.2388 17.1694C14.2341 16.5481 14.2375 15.9268 14.2375 15.3054C14.2381 15.3061 14.2388 15.3061 14.2388 15.3061Z" fill="white"/>
<path d="M9.62419 13.0303C9.62419 13.519 9.62953 14.0077 9.62219 14.4963C9.61686 14.843 9.44886 15.0557 9.18953 15.0717C8.93886 15.087 8.72419 14.873 8.72019 14.533C8.70819 13.5223 8.71153 12.5117 8.72619 11.501C8.73019 11.2317 8.83286 10.989 9.16686 10.9797C9.43086 10.9723 9.61353 11.1883 9.62019 11.531C9.63019 12.0303 9.62286 12.5303 9.62286 13.0303C9.62353 13.0303 9.62419 13.0303 9.62419 13.0303Z" fill="white"/>
<path d="M4.10346 13.3421C4.10346 13.8315 4.10946 14.3202 4.10146 14.8095C4.09613 15.1568 3.92746 15.3635 3.66346 15.3762C3.39812 15.3882 3.21079 15.1955 3.20746 14.8382C3.19746 13.8155 3.20279 12.7928 3.21346 11.7701C3.21612 11.4981 3.33612 11.2855 3.64946 11.2921C3.95213 11.2981 4.08479 11.5055 4.09279 11.7755C4.10813 12.2975 4.09746 12.8201 4.09746 13.3428C4.09879 13.3421 4.10079 13.3421 4.10346 13.3421Z" fill="white"/>
<path d="M16.0995 13.7894C16.0995 13.5127 16.0928 13.2361 16.1015 12.9594C16.1095 12.6994 16.2521 12.5447 16.5135 12.5321C16.7888 12.5187 16.9735 12.6667 16.9841 12.9367C17.0075 13.5001 17.0108 14.0654 16.9935 14.6287C16.9855 14.8927 16.7975 15.0494 16.5361 15.0694C16.2995 15.0881 16.1095 14.8701 16.0995 14.5854C16.0901 14.3201 16.0975 14.0541 16.0975 13.7887C16.0981 13.7894 16.0988 13.7894 16.0995 13.7894Z" fill="white"/>
<path d="M10.571 12.9188C10.571 12.7755 10.559 12.6308 10.5737 12.4888C10.6004 12.2381 10.737 12.0788 11.0024 12.0781C11.2624 12.0775 11.425 12.2175 11.4397 12.4761C11.457 12.7728 11.455 13.0721 11.439 13.3695C11.425 13.6341 11.239 13.7755 10.9984 13.7708C10.7557 13.7661 10.5904 13.6108 10.5724 13.3488C10.563 13.2068 10.571 13.0628 10.571 12.9188Z" fill="white"/>
</svg>
