<svg width="24" height="24" viewBox="0 0 24 24" fill="none" xmlns="http://www.w3.org/2000/svg">
<path d="M18.0266 3.02222L13.8535 9.22222C13.5649 9.64444 14.1199 10.1556 14.5194 9.8L18.626 6.22222C18.737 6.13333 18.8923 6.2 18.8923 6.35556V17.5333C18.8923 17.6889 18.6926 17.7556 18.6038 17.6444L6.17314 2.75556C5.77359 2.26667 5.19645 2 4.55272 2H4.10877C2.9545 2 2 2.95556 2 4.13333V19.8667C2 21.0444 2.9545 22 4.13097 22C4.86349 22 5.55161 21.6222 5.95117 20.9778L10.1243 14.7778C10.4129 14.3556 9.85794 13.8444 9.45838 14.2L5.35183 17.7556C5.24084 17.8444 5.08546 17.7778 5.08546 17.6222V6.46667C5.08546 6.31111 5.28524 6.24444 5.37403 6.35556L17.8047 21.2444C18.2042 21.7333 18.8036 22 19.4251 22H19.869C21.0455 22 22 21.0444 22 19.8667V4.13333C22 2.95556 21.0455 2 19.869 2C19.1143 2 18.4262 2.37778 18.0266 3.02222Z" fill="#1D1D22"/>
</svg>
