<svg width="20" height="20" viewBox="0 0 20 20" fill="none" xmlns="http://www.w3.org/2000/svg">
<path d="M15.0225 2.51884L11.5449 7.68551C11.3044 8.03736 11.7669 8.46329 12.0998 8.16699L15.522 5.18551C15.6145 5.11144 15.7439 5.16699 15.7439 5.29662V14.6114C15.7439 14.7411 15.5775 14.7966 15.5035 14.704L5.14461 2.29662C4.81165 1.88921 4.3307 1.66699 3.79426 1.66699H3.4243C2.4624 1.66699 1.66699 2.46329 1.66699 3.44477V16.5559C1.66699 17.5374 2.4624 18.3337 3.4428 18.3337C4.05323 18.3337 4.62667 18.0188 4.95963 17.4818L8.43725 12.3151C8.67772 11.9633 8.21527 11.5374 7.88231 11.8337L4.46019 14.7966C4.3677 14.8707 4.23821 14.8151 4.23821 14.6855V5.38921C4.23821 5.25958 4.40469 5.20403 4.47868 5.29662L14.8375 17.704C15.1705 18.1114 15.67 18.3337 16.1879 18.3337H16.5579C17.5382 18.3337 18.3337 17.5374 18.3337 16.5559V3.44477C18.3337 2.46329 17.5382 1.66699 16.5579 1.66699C15.9289 1.66699 15.3555 1.98181 15.0225 2.51884Z" fill="white"/>
</svg>
