<svg width="20" height="20" viewBox="0 0 20 20" fill="none" xmlns="http://www.w3.org/2000/svg">
<g clip-path="url(#clip0)">
<path d="M14.328 7.66009V12.4438L10.0212 14.8107V10.029L14.327 7.66209L14.328 7.66009ZM19.4677 6.43416V13.5647C19.4677 14.0717 19.3277 14.5677 19.0647 14.9987C18.8047 15.4287 18.4277 15.7936 17.9608 16.0506L14.7489 17.8155V13.1098L15.1549 12.8868V7.20811L19.0887 5.04523C19.3327 5.46522 19.4677 5.94019 19.4677 6.43516V6.43416ZM1.97567 16.0506C1.53781 15.8114 1.16794 15.465 0.900725 15.0437C0.619592 14.6019 0.469775 14.0894 0.46875 13.5658V9.00002L4.8925 12.4548V12.6468L4.8995 12.8448L5.24348 13.0478L9.65923 15.4756L10.0232 15.6756V19.9994C9.47819 20.0102 8.9398 19.8786 8.4613 19.6173L1.97567 16.0497V16.0506ZM1.79167 4.0603L6.46841 1.50044L9.64823 4.58027L4.8925 7.20311V7.60309L0.47875 10.027L0.46875 6.43316C0.46875 5.92619 0.608742 5.42822 0.873727 4.99723C1.10571 4.61727 1.4197 4.29728 1.79167 4.0593V4.0603ZM17.9608 3.9493C18.4292 4.20514 18.8191 4.58364 19.0887 5.04423L15.1549 7.20711V7.17111L14.7489 6.94812L10.4152 4.56627L14.7489 2.18341L17.9608 3.9493ZM0.47875 10.029L4.8925 7.60209V12.4548L0.47875 10.028V10.029ZM10.0232 4.38028V0.000523225C10.5311 0.00824778 11.0295 0.13969 11.4751 0.383502L14.7489 2.18341L10.4152 4.56527L10.0232 4.38028ZM9.65923 4.58027L5.25148 2.15841L8.65328 0.287508C9.08252 0.0899933 9.55078 -0.00810128 10.0232 0.000523225V4.38028L9.65923 4.58027ZM10.0512 15.6906L10.4152 15.4906L14.6969 17.8445L11.4751 19.6164C11.0294 19.8598 10.531 19.9909 10.0232 19.9984V15.6756L10.0512 15.6906ZM14.7489 13.1088V17.8155L14.6969 17.8445L10.4152 15.4906L14.7489 13.1088Z" fill="white"/>
</g>
<defs>
<clipPath id="clip0">
<rect width="20" height="20" fill="white"/>
</clipPath>
</defs>
</svg>
