<svg width="20" height="20" viewBox="0 0 20 20" fill="none" xmlns="http://www.w3.org/2000/svg">
<g clip-path="url(#clip0_7348_85128)">
<path fill-rule="evenodd" clip-rule="evenodd" d="M11.7207 0.13185C16.0999 0.898143 19.5712 4.68799 19.9351 9.10006L20 9.88649H19.1804C18.7297 9.88649 18.3609 9.85512 18.3609 9.81674C18.3609 9.77836 18.3188 9.41122 18.2673 9.00084C17.7756 5.07896 14.6031 2.00992 10.6724 1.65374L10.0023 1.59298V0.796491V0H10.4849C10.7503 0 11.3064 0.0593192 11.7207 0.13185ZM11.5752 6.49461C12.4494 6.94642 13.1673 7.79028 13.3751 8.6105L13.482 9.03265L14.265 9.05872C14.8348 9.07768 15.0358 9.11444 15.003 9.19353C14.9782 9.2533 14.8872 9.51466 14.8005 9.77414L14.6431 10.246H11.2891C8.66479 10.246 7.93561 10.2704 7.93714 10.3583C7.94092 10.5749 8.30752 11.282 8.54714 11.535C9.36358 12.3971 10.9715 12.398 11.8327 11.5368L12.0617 11.3079L12.6498 11.6883C12.9732 11.8974 13.2379 12.1003 13.2379 12.1391C13.2379 12.2876 12.7699 12.7556 12.3613 13.0156C11.6784 13.4504 11.0227 13.5972 9.96818 13.5518C8.87312 13.5045 8.27229 13.2706 7.57853 12.6217C7.08492 12.16 6.55483 11.2129 6.45318 10.6111L6.39143 10.246H5.63539H4.87934V9.66179V9.07759H5.64608C6.29706 9.07759 6.42055 9.05386 6.46387 8.92031C6.61783 8.44531 7.07261 7.64171 7.35339 7.34835C8.20794 6.45561 8.91339 6.18094 10.227 6.2293C10.9771 6.25698 11.2001 6.30084 11.5752 6.49461ZM8.96875 7.72332C8.50364 7.9943 8.171 8.40225 8.06611 8.83043L8.00554 9.07759H9.80551C10.7954 9.07759 11.6662 9.05422 11.7405 9.02573C11.8504 8.98358 11.8579 8.92076 11.7804 8.68869C11.4077 7.57215 10.0364 7.10128 8.96875 7.72332ZM1.67441 10.6452C1.79862 12.1016 2.49005 13.8746 3.39439 15.0556C4.73212 16.8024 6.77611 17.9497 9.10267 18.2595L9.91246 18.3673V19.1733V19.9792L9.16208 19.9215C4.42222 19.5573 0.401931 15.5558 0.0572518 10.8593L0 10.0795L0.305133 10.0504C0.472844 10.0344 0.837476 10.019 1.11529 10.0161L1.6203 10.0109L1.67441 10.6452Z" fill="white"/>
</g>
<defs>
<clipPath id="clip0_7348_85128">
<rect width="20" height="20" fill="white"/>
</clipPath>
</defs>
</svg>
