<svg width="24" height="24" viewBox="0 0 24 24" fill="none" xmlns="http://www.w3.org/2000/svg">
<g clip-path="url(#clip0_2385_50043)">
<path fill-rule="evenodd" clip-rule="evenodd" d="M14.0648 0.15822C19.3198 1.07777 23.4854 5.62559 23.9221 10.9201L24 11.8638H23.0165C22.4756 11.8638 22.0331 11.8261 22.0331 11.7801C22.0331 11.734 21.9826 11.2935 21.9208 10.801C21.3308 6.09475 17.5237 2.41191 12.8068 1.98449L12.0028 1.91158V0.955789V0H12.5819C12.9004 0 13.5676 0.071183 14.0648 0.15822ZM13.8902 7.79353C14.9393 8.33571 15.8007 9.34834 16.0501 10.3326L16.1784 10.8392L17.118 10.8705C17.8017 10.8932 18.043 10.9373 18.0036 11.0322C17.9738 11.104 17.8646 11.4176 17.7606 11.729L17.5718 12.2952H13.5469C10.3977 12.2952 9.52273 12.3245 9.52457 12.43C9.5291 12.6898 9.96903 13.5384 10.2566 13.842C11.2363 14.8765 13.1658 14.8776 14.1992 13.8442L14.474 13.5695L15.1797 14.0259C15.5679 14.2769 15.8855 14.5203 15.8855 14.5669C15.8855 14.7452 15.3239 15.3068 14.8336 15.6188C14.014 16.1405 13.2273 16.3167 11.9618 16.2621C10.6477 16.2054 9.92675 15.9248 9.09424 15.1461C8.50191 14.592 7.8658 13.4555 7.74381 12.7333L7.66972 12.2952H6.76246H5.85521V11.5942V10.8931H6.7753C7.55648 10.8931 7.70466 10.8646 7.75665 10.7044C7.9414 10.1344 8.48713 9.17006 8.82406 8.81803C9.84953 7.74673 10.6961 7.41713 12.2724 7.47515C13.1725 7.50837 13.4402 7.561 13.8902 7.79353ZM10.7625 9.26799C10.2044 9.59316 9.8052 10.0827 9.67934 10.5965L9.60664 10.8931H11.7666C12.9545 10.8931 13.9995 10.8651 14.0886 10.8309C14.2205 10.7803 14.2294 10.7049 14.1365 10.4264C13.6892 9.08658 12.0437 8.52154 10.7625 9.26799ZM2.00929 12.7743C2.15835 14.5219 2.98805 16.6495 4.07327 18.0667C5.67854 20.1629 8.13133 21.5397 10.9232 21.9114L11.895 22.0408V23.008V23.9751L10.9945 23.9058C5.30667 23.4687 0.482317 18.6669 0.0687022 13.0312L0 12.0954L0.36616 12.0605C0.567413 12.0413 1.00497 12.0228 1.33834 12.0193L1.94437 12.0131L2.00929 12.7743Z" fill="#1D1D22"/>
</g>
<defs>
<clipPath id="clip0_2385_50043">
<rect width="24" height="24" fill="white"/>
</clipPath>
</defs>
</svg>
