<svg width="20" height="20" viewBox="0 0 20 20" fill="none" xmlns="http://www.w3.org/2000/svg">
<path d="M8.4655 13.36L10.0625 15.464V20L4.0625 17.337V5.619C4.0625 5.446 4.1395 5.281 4.2745 5.166L4.9575 4.581C5.0233 4.52409 5.10005 4.4813 5.18305 4.45525C5.26605 4.4292 5.3535 4.42042 5.44003 4.42953C5.52653 4.43863 5.61025 4.46534 5.68603 4.50809C5.76178 4.55083 5.82797 4.60867 5.8805 4.678L11.3455 11.842L14.3645 13.688V3.808L11.6965 2.477L11.5665 8.673L10.1545 6.8L10.0905 0L16.0625 2.779V14.443L14.7055 15.561L10.4315 13.174L5.6875 6.951L5.6225 16.405L8.4475 17.852L8.4655 13.36Z" fill="white"/>
</svg>