<svg width="20" height="20" viewBox="0 0 20 20" fill="none" xmlns="http://www.w3.org/2000/svg">
<path d="M6.97852 9.65555L10.8647 16.3464L11.123 15.6686L7.24419 8.95825L6.97852 9.65555Z" fill="white"/>
<path d="M9.13494 4L8.86523 4.70737L12.7447 11.4184L13.0144 10.7096L9.13494 4Z" fill="white"/>
<path d="M7.91992 7.18681L11.7994 13.8971L12.0691 13.1891L8.1903 6.47876L7.91992 7.18681Z" fill="white"/>
<path d="M3.74831 16.3465H0L4.46798 4.63348C4.5388 4.4472 4.66467 4.28684 4.82889 4.17369C4.99311 4.06055 5.1879 3.99997 5.3874 4H9.13571L4.66773 15.7123C4.59702 15.8987 4.47119 16.0592 4.30697 16.1725C4.14274 16.2858 3.94789 16.3464 3.74831 16.3465Z" fill="white"/>
<path d="M14.6125 16.3465H10.8662L15.3322 4.63348C15.403 4.4472 15.5289 4.28684 15.6931 4.17369C15.8573 4.06055 16.0521 3.99997 16.2516 4H19.9999L15.5326 15.7123C15.4616 15.8987 15.3356 16.0591 15.1713 16.1723C15.007 16.2856 14.8121 16.3463 14.6125 16.3465Z" fill="white"/>
</svg>
