<svg width="20" height="20" viewBox="0 0 20 20" fill="none" xmlns="http://www.w3.org/2000/svg">
<path d="M15.7143 0C13.354 0 11.4286 1.92547 11.3664 4.28572V9.0683C10.9317 9.0683 10.4969 9.13042 10 9.13042C9.50309 9.13042 9.0683 9.13042 8.63357 9.19254V4.28572C8.63357 1.92547 6.64598 0 4.2236 0.0621119C1.92547 0.0621119 0.0621119 1.98758 0 4.28572V15.7143C0.0621119 18.0745 1.98758 20 4.40994 19.9379C6.77016 19.8758 8.63357 18.0124 8.63357 15.7143V10.9317C9.0683 10.9317 9.50309 10.8696 10 10.8696C10.4969 10.8696 10.9317 10.8696 11.3664 10.8075V15.6522C11.4286 18.0124 13.354 19.9379 15.7764 19.8758C18.1367 19.8136 20 17.9503 20 15.6522V4.28572C20 1.92547 18.0745 0 15.7143 0ZM4.34783 1.73913C5.7764 1.73913 6.89441 2.85714 6.89441 4.28572V9.31678C5.65217 9.50309 4.40994 9.87576 3.22981 10.3727C2.73292 10.6211 2.23603 10.8696 1.80124 11.2423V4.28572C1.80124 2.91925 2.91925 1.73913 4.34783 1.73913ZM6.89441 15.7143C6.89441 17.1428 5.7764 18.2608 4.34783 18.2608C2.91925 18.2608 1.80124 17.1428 1.80124 15.7143V14.5963C1.80124 13.6025 2.60869 12.6087 3.97516 12.0497C4.90683 11.6149 5.90062 11.3664 6.95653 11.1801L6.89441 15.7143ZM15.7143 18.2608C14.2857 18.2608 13.1677 17.1428 13.1677 15.7143V10.6832C14.41 10.4969 15.6522 10.1242 16.8323 9.62733C17.3292 9.37891 17.8261 9.13042 18.2609 8.75775V15.7143C18.2609 17.1428 17.0808 18.2608 15.7143 18.2608ZM16.0869 8.01241C15.1553 8.4472 14.1615 8.69563 13.1056 8.88199V4.28572C13.1056 2.85714 14.2236 1.73913 15.6522 1.73913C17.0808 1.73913 18.1988 2.85714 18.1988 4.28572V5.40372C18.2609 6.45962 17.4534 7.39132 16.0869 8.01241Z" fill="white"/>
</svg>
