<svg width="20" height="20" viewBox="0 0 20 20" fill="none" xmlns="http://www.w3.org/2000/svg">
<path fill-rule="evenodd" clip-rule="evenodd" d="M17.0603 1.09467C18.237 1.96745 18.8907 2.75147 19.0941 3.53549C19.2248 3.97926 19.1086 4.51181 18.8181 4.91122C18.5275 5.31063 18.0627 5.53254 17.5252 5.53254C17.3218 5.53254 17.1184 5.50293 16.915 5.44377C16.7117 6.02068 16.5664 6.58283 16.5228 7.07097L16.6218 7.30386C15.5759 5.45475 13.7918 3.97926 11.7871 3.29882C11.8452 3.28402 12.281 3.15088 13.0509 2.6775C12.9638 2.54436 12.8911 2.39645 12.833 2.2781C12.6732 1.89349 12.7313 1.25739 12.9783 0.784019C13.1817 0.384612 13.5013 0.118343 13.8644 0.0443773C14.0097 0.0147892 14.1549 0 14.3148 0C15.1137 0 16.1161 0.399406 17.0603 1.09467ZM16.2755 5.94667L16.2947 5.97431L16.2904 5.99117C15.4188 4.80774 14.2566 3.86098 12.9201 3.25446L12.9464 3.23849L12.9489 3.23957C13.4138 2.9881 14.082 2.55913 14.8519 1.93782C15.1424 2.05616 15.5201 2.26326 15.985 2.57393C16.5371 2.94374 17.0164 3.35795 17.3215 3.68339C16.813 4.36383 16.4789 5.29579 16.2755 5.94667ZM18.6873 3.65387C18.859 4.33894 18.3398 5.35427 17.06 5.03021C17.0743 4.9955 17.0888 4.96075 17.1036 4.92599C17.1617 4.94079 17.2343 4.94079 17.307 4.94079C17.4813 4.94079 17.6846 4.91119 17.8445 4.77805C17.9607 4.68927 18.0914 4.52658 18.0769 4.2307C18.0769 3.94967 17.859 3.59462 17.4087 3.16565C17.0891 2.85496 16.6532 2.51472 16.2174 2.20409C14.9681 1.3609 14.0965 1.12421 13.7043 1.52362C13.4428 1.78989 13.4719 2.11534 13.559 2.35202C13.5118 2.3836 13.4653 2.41426 13.4196 2.44402C13.3316 2.317 13.2652 2.205 13.2252 2.11542C13.0509 1.70122 13.2542 0.621337 13.9516 0.473411C14.6489 0.32548 15.7384 0.650925 16.8133 1.44974C17.8883 2.24856 18.4985 2.95863 18.6873 3.65387ZM17.5975 4.0532C17.6411 4.12717 17.6556 4.20114 17.6556 4.2455C17.6556 4.37854 17.6121 4.42293 17.583 4.45254L17.583 4.45261C17.5248 4.49697 17.4086 4.52658 17.307 4.52658C17.394 4.34933 17.4955 4.20156 17.5971 4.05383L17.5975 4.0532ZM14.0094 1.84906C14.0529 1.80469 14.1692 1.7751 14.358 1.80469C14.2127 1.92303 14.0675 2.02658 13.9222 2.13013C13.9077 2.02658 13.9222 1.92303 14.0094 1.84906Z" fill="white"/>
<path d="M9.43291 2.48535C4.68262 2.48535 0.833008 6.40549 0.833008 11.2427C0.833008 16.08 4.68262 20.0001 9.43291 20.0001C14.1831 20.0001 18.0327 16.08 18.0327 11.2427C18.0327 6.40549 14.1686 2.48535 9.43291 2.48535ZM9.43291 19.5119C4.94409 19.5119 1.31239 15.8138 1.31239 11.2427C1.31239 6.67177 4.94409 2.97354 9.43291 2.97354C13.9217 2.97354 17.5534 6.67177 17.5534 11.2427C17.5534 15.8138 13.9072 19.5119 9.43291 19.5119Z" fill="white"/>
<g opacity="0.7">
<path opacity="0.7" d="M2.7946 11.1689H1.70508C1.70508 15.5033 5.16248 19.024 9.4188 19.024C9.60767 19.024 9.78199 19.024 9.9563 19.0092C5.96145 18.7133 2.7946 15.311 2.7946 11.1689Z" fill="white"/>
</g>
<path d="M17.1326 11.2423C17.1326 10.3399 15.5927 9.8222 13.5444 9.6447C12.0627 9.52632 10.5664 9.67426 8.85228 10.2068C7.37052 10.6506 6.03405 10.5766 5.06077 10.4583C2.89626 10.2068 1.70508 10.1772 1.70508 11.2423C1.70508 12.7808 4.78474 14.7039 9.40429 14.0382C11.7431 13.6979 12.9488 13.0027 14.3289 12.5293C15.8252 12.0263 17.1326 12.0411 17.1326 11.2423Z" fill="white"/>
<path d="M11.9607 7.51426C12.6828 7.51426 13.2681 6.91823 13.2681 6.18293C13.2681 5.44764 12.6828 4.85156 11.9607 4.85156C11.2387 4.85156 10.6533 5.44764 10.6533 6.18293C10.6533 6.91823 11.2387 7.51426 11.9607 7.51426Z" fill="white"/>
<path d="M14.096 8.5061C14.4009 8.5061 14.648 8.25443 14.648 7.94394C14.648 7.6335 14.4009 7.38184 14.096 7.38184C13.7911 7.38184 13.5439 7.6335 13.5439 7.94394C13.5439 8.25443 13.7911 8.5061 14.096 8.5061Z" fill="white"/>
<path opacity="0.7" fill-rule="evenodd" clip-rule="evenodd" d="M9.30371 16.9972C9.30371 17.2259 9.12161 17.4114 8.897 17.4114C8.67234 17.4114 8.49023 17.2259 8.49023 16.9972C8.49023 16.7684 8.67234 16.583 8.897 16.583C9.12161 16.583 9.30371 16.7684 9.30371 16.9972ZM9.12847 16.7901C9.12847 16.8391 9.0894 16.8788 9.04126 16.8788C8.99312 16.8788 8.9541 16.8391 8.9541 16.7901C8.9541 16.741 8.99312 16.7013 9.04126 16.7013C9.0894 16.7013 9.12847 16.741 9.12847 16.7901Z" fill="white"/>
<path opacity="0.7" fill-rule="evenodd" clip-rule="evenodd" d="M11.4248 16.7902C11.4248 17.0189 11.2427 17.2044 11.018 17.2044C10.7934 17.2044 10.6113 17.0189 10.6113 16.7902C10.6113 16.5614 10.7934 16.376 11.018 16.376C11.2427 16.376 11.4248 16.5614 11.4248 16.7902ZM11.2497 16.5831C11.2497 16.6321 11.2106 16.6719 11.1625 16.6719C11.1144 16.6719 11.0754 16.6321 11.0754 16.5831C11.0754 16.5341 11.1144 16.4943 11.1625 16.4943C11.2106 16.4943 11.2497 16.5341 11.2497 16.5831Z" fill="white"/>
<path opacity="0.7" fill-rule="evenodd" clip-rule="evenodd" d="M10.2762 17.8546C10.2762 18.0262 10.1396 18.1653 9.97111 18.1653C9.80258 18.1653 9.66602 18.0262 9.66602 17.8546C9.66602 17.6831 9.80258 17.5439 9.97111 17.5439C10.1396 17.5439 10.2762 17.6831 10.2762 17.8546ZM10.1309 17.6919C10.1309 17.7246 10.1049 17.7511 10.0728 17.7511C10.0407 17.7511 10.0147 17.7246 10.0147 17.6919C10.0147 17.6592 10.0407 17.6327 10.0728 17.6327C10.1049 17.6327 10.1309 17.6592 10.1309 17.6919Z" fill="white"/>
<path opacity="0.7" fill-rule="evenodd" clip-rule="evenodd" d="M12.1501 17.6329C12.1501 17.8045 12.0136 17.9435 11.8451 17.9435C11.6766 17.9435 11.54 17.8045 11.54 17.6329C11.54 17.4613 11.6766 17.3223 11.8451 17.3223C12.0136 17.3223 12.1501 17.4613 12.1501 17.6329ZM12.0049 17.4702C12.0049 17.5029 11.9789 17.5294 11.9467 17.5294C11.9147 17.5294 11.8887 17.5029 11.8887 17.4702C11.8887 17.4376 11.9147 17.4111 11.9467 17.4111C11.9789 17.4111 12.0049 17.4376 12.0049 17.4702Z" fill="white"/>
<path opacity="0.7" fill-rule="evenodd" clip-rule="evenodd" d="M7.83549 16.5828C7.83549 16.9586 7.53633 17.2633 7.16726 17.2633C6.79819 17.2633 6.49902 16.9586 6.49902 16.5828C6.49902 16.207 6.79819 15.9023 7.16726 15.9023C7.53633 15.9023 7.83549 16.207 7.83549 16.5828ZM7.54475 16.2278C7.54475 16.3094 7.4797 16.3757 7.39945 16.3757C7.31926 16.3757 7.25421 16.3094 7.25421 16.2278C7.25421 16.146 7.31926 16.0798 7.39945 16.0798C7.4797 16.0798 7.54475 16.146 7.54475 16.2278Z" fill="white"/>
<path opacity="0.7" fill-rule="evenodd" clip-rule="evenodd" d="M13.8062 14.9109C13.8062 15.2867 13.507 15.5914 13.138 15.5914C12.7689 15.5914 12.4697 15.2867 12.4697 14.9109C12.4697 14.5351 12.7689 14.2305 13.138 14.2305C13.507 14.2305 13.8062 14.5351 13.8062 14.9109ZM13.515 14.5559C13.515 14.6376 13.45 14.7038 13.3698 14.7038C13.2895 14.7038 13.2245 14.6376 13.2245 14.5559C13.2245 14.4742 13.2895 14.408 13.3698 14.408C13.45 14.408 13.515 14.4742 13.515 14.5559Z" fill="white"/>
</svg>
