<svg width="24" height="24" viewBox="0 0 24 24" fill="none" xmlns="http://www.w3.org/2000/svg">
<path fill-rule="evenodd" clip-rule="evenodd" d="M20.4719 1.3136C21.8839 2.36094 22.6684 3.30176 22.9124 4.24258C23.0693 4.77511 22.9299 5.41417 22.5812 5.89346C22.2326 6.37276 21.6747 6.63905 21.0297 6.63905C20.7857 6.63905 20.5416 6.60352 20.2976 6.53252C20.0535 7.22481 19.8792 7.8994 19.8269 8.48517L19.9457 8.76464C18.6906 6.5457 16.5497 4.77511 14.144 3.95858C14.2137 3.94082 14.7367 3.78105 15.6606 3.213C15.556 3.05323 15.4689 2.87574 15.3992 2.73373C15.2074 2.27219 15.2771 1.50887 15.5735 0.940822C15.8175 0.461535 16.201 0.142012 16.6368 0.0532528C16.8112 0.017747 16.9855 0 17.1772 0C18.136 0 19.3388 0.479288 20.4719 1.3136ZM19.5302 7.13602L19.5531 7.16918L19.548 7.18941C18.502 5.76929 17.1074 4.63318 15.5037 3.90535L15.5351 3.88619L15.5382 3.88749C16.096 3.58573 16.8979 3.07096 17.8218 2.32539C18.1704 2.4674 18.6237 2.71592 19.1815 3.08873C19.844 3.53249 20.4192 4.02955 20.7853 4.42008C20.1752 5.23661 19.7742 6.35496 19.5302 7.13602ZM22.4242 4.38465C22.6303 5.20673 22.0073 6.42512 20.4715 6.03626C20.4887 5.99461 20.5061 5.9529 20.5238 5.9112C20.5936 5.92896 20.6807 5.92896 20.7679 5.92896C20.977 5.92896 21.2211 5.89343 21.4129 5.73367C21.5523 5.62714 21.7092 5.4319 21.6917 5.07684C21.6917 4.73961 21.4303 4.31355 20.8899 3.79879C20.5064 3.42596 19.9834 3.01767 19.4604 2.64492C17.9613 1.63308 16.9153 1.34906 16.4447 1.82835C16.1309 2.14788 16.1657 2.53841 16.2703 2.82244C16.2136 2.86033 16.1578 2.89712 16.103 2.93283C15.9974 2.78041 15.9177 2.64601 15.8698 2.5385C15.6606 2.04146 15.9046 0.745605 16.7414 0.568093C17.5781 0.390576 18.8855 0.781111 20.1755 1.73969C21.4655 2.69827 22.1977 3.55035 22.4242 4.38465ZM21.1165 4.86384C21.1688 4.95261 21.1862 5.04137 21.1862 5.09461C21.1862 5.25425 21.134 5.30753 21.0992 5.34306L21.0991 5.34314C21.0293 5.39637 20.8899 5.4319 20.7679 5.4319C20.8723 5.2192 20.9942 5.04188 21.116 4.8646L21.116 4.86459L21.1165 4.86384ZM16.8107 2.21888C16.863 2.16563 17.0025 2.13012 17.2292 2.16563C17.0548 2.30764 16.8805 2.4319 16.7062 2.55616C16.6887 2.4319 16.7062 2.30764 16.8107 2.21888Z" fill="#1D1D22"/>
<path d="M11.3199 2.9823C5.61953 2.9823 1 7.68647 1 13.4912C1 19.2959 5.61953 24 11.3199 24C17.0202 24 21.6397 19.2959 21.6397 13.4912C21.6397 7.68647 17.0028 2.9823 11.3199 2.9823ZM11.3199 23.4142C5.9333 23.4142 1.57526 18.9764 1.57526 13.4912C1.57526 8.006 5.9333 3.56812 11.3199 3.56812C16.7064 3.56812 21.0645 8.006 21.0645 13.4912C21.0645 18.9764 16.689 23.4142 11.3199 23.4142Z" fill="#1D1D22"/>
<g opacity="0.7">
<path opacity="0.7" d="M3.35332 13.4023H2.0459C2.0459 18.6035 6.19479 22.8284 11.3024 22.8284C11.529 22.8284 11.7382 22.8284 11.9474 22.8106C7.15355 22.4556 3.35332 18.3727 3.35332 13.4023Z" fill="#1D1D22"/>
</g>
<path d="M20.5589 13.4911C20.5589 12.4083 18.7111 11.787 16.2531 11.574C14.4751 11.4319 12.6795 11.6095 10.6225 12.2485C8.84443 12.781 7.24067 12.6923 6.07273 12.5503C3.47532 12.2485 2.0459 12.213 2.0459 13.4911C2.0459 15.3373 5.74149 17.645 11.285 16.8462C14.0915 16.4379 15.5384 15.6036 17.1945 15.0355C18.99 14.4319 20.5589 14.4497 20.5589 13.4911Z" fill="#1D1D22"/>
<path d="M14.3531 9.01774C15.2195 9.01774 15.9219 8.30251 15.9219 7.42016C15.9219 6.5378 15.2195 5.82251 14.3531 5.82251C13.4866 5.82251 12.7842 6.5378 12.7842 7.42016C12.7842 8.30251 13.4866 9.01774 14.3531 9.01774Z" fill="#1D1D22"/>
<path d="M16.9153 10.2071C17.2812 10.2071 17.5778 9.90515 17.5778 9.53256C17.5778 9.16003 17.2812 8.85803 16.9153 8.85803C16.5495 8.85803 16.2529 9.16003 16.2529 9.53256C16.2529 9.90515 16.5495 10.2071 16.9153 10.2071Z" fill="#1D1D22"/>
<path opacity="0.7" fill-rule="evenodd" clip-rule="evenodd" d="M11.1642 20.3965C11.1642 20.6709 10.9456 20.8935 10.6761 20.8935C10.4065 20.8935 10.188 20.6709 10.188 20.3965C10.188 20.1219 10.4065 19.8994 10.6761 19.8994C10.9456 19.8994 11.1642 20.1219 11.1642 20.3965ZM10.9539 20.1479C10.9539 20.2067 10.907 20.2543 10.8492 20.2543C10.7915 20.2543 10.7446 20.2067 10.7446 20.1479C10.7446 20.089 10.7915 20.0413 10.8492 20.0413C10.907 20.0413 10.9539 20.089 10.9539 20.1479Z" fill="#1D1D22"/>
<path opacity="0.7" fill-rule="evenodd" clip-rule="evenodd" d="M13.7091 20.1479C13.7091 20.4224 13.4906 20.6449 13.221 20.6449C12.9514 20.6449 12.7329 20.4224 12.7329 20.1479C12.7329 19.8734 12.9514 19.6509 13.221 19.6509C13.4906 19.6509 13.7091 19.8734 13.7091 20.1479ZM13.4989 19.8994C13.4989 19.9583 13.4521 20.006 13.3943 20.006C13.3366 20.006 13.2897 19.9583 13.2897 19.8994C13.2897 19.8406 13.3366 19.7929 13.3943 19.7929C13.4521 19.7929 13.4989 19.8406 13.4989 19.8994Z" fill="#1D1D22"/>
<path opacity="0.7" fill-rule="evenodd" clip-rule="evenodd" d="M12.3308 21.426C12.3308 21.6319 12.1669 21.7988 11.9648 21.7988C11.7625 21.7988 11.5986 21.6319 11.5986 21.426C11.5986 21.2202 11.7625 21.0532 11.9648 21.0532C12.1669 21.0532 12.3308 21.2202 12.3308 21.426ZM12.1565 21.2308C12.1565 21.27 12.1253 21.3018 12.0868 21.3018C12.0483 21.3018 12.017 21.27 12.017 21.2308C12.017 21.1916 12.0483 21.1598 12.0868 21.1598C12.1253 21.1598 12.1565 21.1916 12.1565 21.2308Z" fill="#1D1D22"/>
<path opacity="0.7" fill-rule="evenodd" clip-rule="evenodd" d="M14.5798 21.1598C14.5798 21.3656 14.4159 21.5325 14.2137 21.5325C14.0115 21.5325 13.8477 21.3656 13.8477 21.1598C13.8477 20.9539 14.0115 20.787 14.2137 20.787C14.4159 20.787 14.5798 20.9539 14.5798 21.1598ZM14.4055 20.9645C14.4055 21.0038 14.3742 21.0356 14.3357 21.0356C14.2972 21.0356 14.266 21.0038 14.266 20.9645C14.266 20.9254 14.2972 20.8935 14.3357 20.8935C14.3742 20.8935 14.4055 20.9254 14.4055 20.9645Z" fill="#1D1D22"/>
<path opacity="0.7" fill-rule="evenodd" clip-rule="evenodd" d="M9.40259 19.8995C9.40259 20.3504 9.04359 20.7161 8.60071 20.7161C8.15783 20.7161 7.79883 20.3504 7.79883 19.8995C7.79883 19.4485 8.15783 19.0829 8.60071 19.0829C9.04359 19.0829 9.40259 19.4485 9.40259 19.8995ZM9.0537 19.4734C9.0537 19.5714 8.97564 19.6509 8.87934 19.6509C8.78311 19.6509 8.70505 19.5714 8.70505 19.4734C8.70505 19.3753 8.78311 19.2959 8.87934 19.2959C8.97564 19.2959 9.0537 19.3753 9.0537 19.4734Z" fill="#1D1D22"/>
<path opacity="0.7" fill-rule="evenodd" clip-rule="evenodd" d="M16.5676 17.8934C16.5676 18.3444 16.2086 18.71 15.7657 18.71C15.3229 18.71 14.9639 18.3444 14.9639 17.8934C14.9639 17.4425 15.3229 17.0769 15.7657 17.0769C16.2086 17.0769 16.5676 17.4425 16.5676 17.8934ZM16.2182 17.4674C16.2182 17.5655 16.1402 17.6449 16.0439 17.6449C15.9476 17.6449 15.8696 17.5655 15.8696 17.4674C15.8696 17.3694 15.9476 17.2899 16.0439 17.2899C16.1402 17.2899 16.2182 17.3694 16.2182 17.4674Z" fill="#1D1D22"/>
</svg>
