<svg width="20" height="20" viewBox="0 0 20 20" fill="none" xmlns="http://www.w3.org/2000/svg">
<g clip-path="url(#clip0)">
<path d="M5.55711 3.08121C5.93777 2.64775 6.28786 2.28099 6.62128 1.96978C0.991946 1.78919 2.6313 5.85975 0.786333 9.99146C-1.32536 14.7539 1.0364 16.5683 4.55405 17.1351C4.06281 16.5498 3.66197 15.8942 3.36483 15.1901C1.09475 12.3199 2.01445 7.08788 5.55711 3.08121Z" fill="white" fill-opacity="0.4"/>
<path d="M19.1025 8.15485C18.4377 9.89399 17.4759 11.5045 16.26 12.9145C15.2853 14.0991 14.1176 15.1108 12.8063 15.907C11.2834 16.872 9.5133 17.3748 7.71044 17.3547C6.65787 17.364 5.60619 17.2908 4.56512 17.1351C5.14312 17.8256 5.85972 18.3868 6.66848 18.7828C11.7588 21.2447 12.0783 16.6739 17.4631 14.3538C20.4862 13.0506 20.4973 10.5055 19.0997 8.15485" fill="white" fill-opacity="0.4"/>
<path d="M12.8063 3.40355C13.5432 3.53253 14.2532 3.78425 14.9068 4.1482C16.6191 5.11094 18.0619 6.48874 19.1025 8.15488C20.0194 5.57081 19.5914 3.54249 17.5881 3.1757C15.382 2.77281 13.6593 2.64224 12.0033 1.48635C9.96381 0.0692913 8.17441 0.530531 6.62399 1.9726L6.9602 1.98649C9.11079 2.1143 11.1669 2.5422 12.7951 3.398" fill="white" fill-opacity="0.4"/>
<path d="M5.55719 3.08126C2.01453 7.08793 1.09483 12.32 3.37602 15.1902C2.84831 13.9442 2.61802 12.5925 2.70337 11.2422C2.78875 9.89176 3.18742 8.57981 3.86783 7.41025C5.7878 4.20936 9.64164 2.82007 12.8064 3.40357C11.1671 2.53667 9.11094 2.11989 6.97147 1.99207L6.63525 1.9754C6.29072 2.29215 5.94062 2.64781 5.55719 3.08126Z" fill="white" fill-opacity="0.8"/>
<path d="M14.9068 4.14266C14.2529 3.78064 13.5428 3.53081 12.8062 3.40356C14.9624 4.53722 16.3933 6.45997 16.3933 9.49971C16.3809 10.7829 16.0458 12.0423 15.4189 13.162C14.7921 14.2816 13.8936 15.2256 12.8062 15.907C14.1182 15.1117 15.286 14.0999 16.26 12.9145C17.4759 11.5045 18.4377 9.89403 19.1025 8.15489C18.0627 6.48672 16.6198 5.10696 14.9068 4.14266Z" fill="white"/>
<path d="M12.8063 3.40351C9.64157 2.82001 5.78771 4.20929 3.86774 7.39629C3.18449 8.56735 2.78422 9.88184 2.69883 11.235C2.61344 12.5881 2.8453 13.9424 3.37593 15.1901C3.67202 15.8947 4.07296 16.5504 4.56514 17.1351C5.60621 17.2907 6.65789 17.364 7.71047 17.3547C9.51332 17.3748 11.2834 16.872 12.8063 15.907C13.8939 15.2258 14.7925 14.2818 15.4193 13.1621C16.0462 12.0424 16.3812 10.7829 16.3934 9.49965C16.3934 6.45992 14.9625 4.53717 12.8063 3.40351ZM12.4507 14.4621C11.2802 15.214 9.85964 15.4717 8.49963 15.1791C7.13961 14.8865 5.9508 14.0673 5.1931 12.9006C3.62044 10.4749 4.39844 7.34349 6.75743 5.67637C9.39705 3.80084 12.7813 4.53993 14.015 7.23792C15.2181 9.86642 14.8875 12.9034 12.4507 14.4621Z" fill="white"/>
</g>
<defs>
<clipPath id="clip0">
<rect width="20" height="20" fill="white"/>
</clipPath>
</defs>
</svg>
