<svg width="20" height="20" viewBox="0 0 20 20" fill="none" xmlns="http://www.w3.org/2000/svg">
<g clip-path="url(#clip0_7348_85185)">
<path fill-rule="evenodd" clip-rule="evenodd" d="M19.2593 19.5715C18.8484 19.5715 18.5185 19.2439 18.5185 18.8359C18.5185 18.4279 18.8484 18.1003 19.2593 18.1003C19.6701 18.1003 20 18.4279 20 18.8359C20 19.2439 19.6701 19.5715 19.2593 19.5715ZM18.8858 11.6156C18.475 11.6156 18.1388 11.2817 18.1388 10.8738C18.1388 10.4596 18.475 10.132 18.8858 10.132C19.2966 10.132 19.6327 10.4658 19.6327 10.8738C19.6327 11.2817 19.2966 11.6156 18.8858 11.6156ZM18.8858 9.38396C18.475 9.38396 18.1388 9.05012 18.1388 8.64213C18.1388 8.22796 18.475 7.90034 18.8858 7.90034C19.2966 7.90034 19.6327 8.23414 19.6327 8.64213C19.6327 9.05012 19.2966 9.38396 18.8858 9.38396ZM17.3732 8.06104V9.42106H15.8606V7.86324V7.75195C15.8606 7.56033 15.9353 7.3687 16.0847 7.22653L17.8525 5.48323C18.0828 5.25451 18.4438 5.17417 18.7364 5.32253C19.2219 5.56978 19.2904 6.17561 18.9356 6.5218L17.3732 8.06104ZM18.7364 14.2676C18.4438 14.4159 18.0828 14.3356 17.8525 14.1068L16.0847 12.3636C15.9353 12.2214 15.8606 12.0298 15.8606 11.8381V11.7268V10.1691H17.3732V11.529L18.9356 13.0683C19.2904 13.4145 19.2219 14.0203 18.7364 14.2676ZM15.1074 7.05343V9.7425V12.4316L19.4024 16.697C19.6327 16.9257 19.7137 17.2843 19.5643 17.5686C19.3153 18.057 18.699 18.1188 18.3442 17.7726L13.8189 13.2723C13.6695 13.1239 13.5948 12.9323 13.5948 12.7407V12.4316V9.7425V7.05343V6.74434C13.5948 6.55268 13.6695 6.36106 13.8189 6.2127L16.5889 3.45562C16.8254 3.22071 17.1864 3.14035 17.479 3.29489C17.9583 3.54834 18.0268 4.15417 17.6782 4.50033L15.1074 7.05343ZM13.3645 5.6996C13.2151 5.84798 13.0221 5.92214 12.8292 5.92214H12.5179H9.81637H7.11485H6.8036C6.61066 5.92214 6.41768 5.84798 6.26828 5.6996L3.49206 2.93635C3.26175 2.70762 3.18083 2.34908 3.33022 2.06472C3.57921 1.58254 4.19547 1.51454 4.54402 1.86072L7.10861 4.41381H9.81016H12.5117L15.0576 1.87926C15.2941 1.64436 15.6552 1.56399 15.9477 1.71854C16.427 1.97199 16.4955 2.5778 16.1469 2.92399L13.3645 5.6996ZM12.5428 3.44327C12.3934 3.59162 12.2004 3.66581 12.0075 3.66581H11.8954H10.3144V2.16363H11.6962L13.24 0.630543C13.4765 0.395634 13.8375 0.315271 14.1301 0.469817C14.6094 0.723271 14.6779 1.32908 14.3293 1.67526L12.5428 3.44327ZM10.9368 1.48363C10.526 1.48363 10.1899 1.14981 10.1899 0.741815C10.1899 0.327635 10.526 0 10.9368 0C11.3477 0 11.6838 0.333816 11.6838 0.741815C11.69 1.14981 11.3539 1.48363 10.9368 1.48363ZM7.86805 3.66581C7.67508 3.66581 7.4821 3.59162 7.3327 3.44327L5.5649 1.68145C5.33459 1.45272 5.25365 1.09418 5.40305 0.809814C5.65206 0.327635 6.26828 0.259635 6.61687 0.605814L8.17927 2.15744H9.56115V3.65963H7.98008H7.86805V3.66581ZM8.68971 1.48363C8.27888 1.48363 7.94272 1.14981 7.94272 0.741815C7.94272 0.327635 8.27888 0 8.68971 0C9.10054 0 9.43667 0.333816 9.43667 0.741815C9.44288 1.14981 9.10675 1.48363 8.68971 1.48363ZM6.03176 6.75052V7.05961V9.74868V12.4377V12.7468C6.03176 12.9385 5.95706 13.1301 5.80767 13.2785L3.03766 16.0356C2.80112 16.2705 2.44009 16.3508 2.14752 16.1963C1.66822 15.9428 1.59975 15.337 1.94833 14.9909L4.51915 12.4377V9.74868V7.05961L1.96078 4.52507C1.73047 4.29635 1.64955 3.93781 1.79894 3.65342C2.04793 3.16508 2.66418 3.10326 3.01899 3.44944L5.80767 6.22506C5.95706 6.36723 6.03176 6.55889 6.03176 6.75052ZM3.54185 7.22653C3.69125 7.3687 3.76594 7.56033 3.76594 7.75195V7.86324V9.42106H2.24712V8.06104L0.703394 6.54033C0.466855 6.31161 0.385931 5.95306 0.54155 5.66254C0.796763 5.18653 1.40678 5.12469 1.75537 5.47088L3.54185 7.22653ZM0.746965 7.89416C1.1578 7.89416 1.49393 8.22796 1.49393 8.63595C1.49393 9.05012 1.1578 9.37778 0.746965 9.37778C0.336134 9.37778 0 9.04395 0 8.63595C0 8.22796 0.336134 7.89416 0.746965 7.89416ZM0.746965 10.1258C1.1578 10.1258 1.49393 10.4596 1.49393 10.8676C1.49393 11.2817 1.1578 11.6094 0.746965 11.6094C0.336134 11.6094 0 11.2756 0 10.8676C0 10.4596 0.336134 10.1258 0.746965 10.1258ZM2.24712 11.529V10.1691H3.75973V11.7268V11.8381C3.75973 12.0298 3.68503 12.2214 3.53564 12.3636L1.76782 14.1068C1.5375 14.3356 1.17647 14.4159 0.883911 14.2676C0.398383 14.0203 0.32991 13.4145 0.684718 13.0683L2.24712 11.529ZM6.26207 13.6494C6.41147 13.501 6.60441 13.4269 6.79739 13.4269H7.10861H9.81016H12.5117H12.8229C13.0159 13.4269 13.2089 13.501 13.3582 13.6494L17.8649 18.1312C18.0953 18.3599 18.1762 18.7185 18.0268 19.0028C17.7778 19.485 17.1615 19.553 16.8129 19.2068L12.5117 14.929H9.81016H7.10861L4.56272 17.4636C4.32617 17.6985 3.96513 17.7788 3.67258 17.6243C3.19328 17.3708 3.1248 16.765 3.47339 16.4188L6.26207 13.6494ZM7.3327 15.8996C7.4821 15.7512 7.67508 15.677 7.86805 15.677H7.98008H9.56115V17.1792H8.17927L6.63553 18.7123C6.39901 18.9472 6.03797 19.0275 5.74542 18.873C5.2661 18.6196 5.19765 18.0137 5.54624 17.6676L7.3327 15.8996ZM8.68971 18.0261C9.10054 18.0261 9.43667 18.3599 9.43667 18.7679C9.43667 19.1821 9.10054 19.5097 8.68971 19.5097C8.27888 19.5097 7.94272 19.1759 7.94272 18.7679C7.94272 18.3599 8.27888 18.0261 8.68971 18.0261ZM12.0075 15.6832C12.2004 15.6832 12.3934 15.7574 12.5428 15.9057L14.3169 17.6676C14.5472 17.8963 14.6281 18.2548 14.4787 18.5392C14.2297 19.0214 13.6134 19.0894 13.2649 18.7432L11.7025 17.1916H10.3206V15.6894H11.9016H12.0075V15.6832ZM10.9368 18.0261C11.3477 18.0261 11.6838 18.3599 11.6838 18.7679C11.6838 19.1821 11.3477 19.5097 10.9368 19.5097C10.526 19.5097 10.1899 19.1759 10.1899 18.7679C10.1899 18.3599 10.526 18.0261 10.9368 18.0261Z" fill="white"/>
<path fill-rule="evenodd" clip-rule="evenodd" d="M17.3732 8.06104V9.42106H15.8606V7.86324V7.75195C15.8606 7.56033 15.9353 7.3687 16.0847 7.22653L17.8525 5.48326C18.0828 5.25451 18.4438 5.17417 18.7364 5.32253C19.2219 5.56978 19.2904 6.17561 18.9356 6.5218L17.3732 8.06104ZM18.7364 14.2676C18.4438 14.4159 18.0828 14.3356 17.8525 14.1068L16.0847 12.3636C15.9353 12.2214 15.8606 12.0298 15.8606 11.8381V11.7268V10.1691H17.3732V11.529L18.9356 13.0683C19.2904 13.4145 19.2219 14.0203 18.7364 14.2676ZM13.3645 5.6996C13.2151 5.84798 13.0221 5.92214 12.8292 5.92214H12.5179H9.81637H7.11485H6.8036C6.61066 5.92214 6.41768 5.84798 6.26828 5.6996L3.49206 2.93635C3.26175 2.70763 3.18083 2.34908 3.33022 2.06472C3.57921 1.58254 4.19547 1.51454 4.54406 1.86072L7.10864 4.41381H9.81016H12.5117L15.0576 1.87926C15.2941 1.64436 15.6552 1.56399 15.9477 1.71854C16.427 1.97199 16.4955 2.57781 16.1469 2.92399L13.3645 5.6996ZM12.5428 3.44327C12.3934 3.59162 12.2004 3.66581 12.0075 3.66581H11.8954H10.3144V2.16363H11.6962L13.24 0.630543C13.4765 0.395634 13.8375 0.315271 14.1301 0.469817C14.6094 0.723271 14.6779 1.32908 14.3293 1.67526L12.5428 3.44327ZM10.9368 1.48363C10.526 1.48363 10.1899 1.14981 10.1899 0.741815C10.1899 0.327635 10.526 0 10.9368 0C11.3477 0 11.6838 0.333816 11.6838 0.741815C11.69 1.14981 11.3539 1.48363 10.9368 1.48363ZM7.86805 3.66581C7.67508 3.66581 7.4821 3.59162 7.3327 3.44327L5.5649 1.68145C5.33459 1.45272 5.25365 1.09418 5.40305 0.809814C5.65206 0.327635 6.26828 0.259635 6.61687 0.605814L8.17927 2.15744H9.56115V3.65963H7.98008H7.86805V3.66581ZM8.68971 1.48363C8.27888 1.48363 7.94275 1.14981 7.94275 0.741815C7.94275 0.327635 8.27888 0 8.68971 0C9.10054 0 9.43667 0.333816 9.43667 0.741815C9.44288 1.14981 9.10675 1.48363 8.68971 1.48363ZM6.03176 6.75052V7.05961V9.74868V12.4377V12.7468C6.03176 12.9385 5.95706 13.1301 5.80767 13.2785L3.03766 16.0356C2.80112 16.2705 2.44009 16.3508 2.14752 16.1963C1.66823 15.9428 1.59975 15.337 1.94833 14.9909L4.51915 12.4377V9.74868V7.05961L1.96078 4.52507C1.73047 4.29635 1.64955 3.93781 1.79894 3.65342C2.04793 3.16508 2.66418 3.10326 3.01899 3.44944L5.80767 6.22506C5.95706 6.36723 6.03176 6.55889 6.03176 6.75052ZM3.54185 7.22653C3.69125 7.3687 3.76594 7.56033 3.76594 7.75195V7.86324V9.42106H2.24712V8.06104L0.703394 6.54033C0.466855 6.31161 0.385931 5.95306 0.54155 5.66254C0.796763 5.18653 1.40678 5.12469 1.75537 5.47088L3.54185 7.22653ZM0.746965 7.89416C1.1578 7.89416 1.49393 8.22796 1.49393 8.63595C1.49393 9.05012 1.1578 9.37778 0.746965 9.37778C0.336135 9.37778 0 9.04395 0 8.63595C0 8.22796 0.336135 7.89416 0.746965 7.89416ZM0.746965 10.1258C1.1578 10.1258 1.49393 10.4596 1.49393 10.8676C1.49393 11.2817 1.1578 11.6094 0.746965 11.6094C0.336135 11.6094 0 11.2756 0 10.8676C0 10.4596 0.336135 10.1258 0.746965 10.1258ZM2.24712 11.529V10.1691H3.75973V11.7268V11.8381C3.75973 12.0298 3.68503 12.2214 3.53564 12.3636L1.76782 14.1068C1.5375 14.3356 1.17647 14.4159 0.883911 14.2676C0.398383 14.0203 0.32991 13.4145 0.684718 13.0683L2.24712 11.529ZM6.26207 13.6494C6.41147 13.501 6.60441 13.4269 6.79739 13.4269H7.10864H9.81016H12.5117H12.8229C13.0159 13.4269 13.2089 13.501 13.3582 13.6494L17.8649 18.1312C18.0953 18.3599 18.1762 18.7185 18.0268 19.0028C17.7778 19.485 17.1615 19.553 16.8129 19.2068L12.5117 14.929H9.81016H7.10864L4.56272 17.4636C4.32617 17.6985 3.96513 17.7788 3.67258 17.6243C3.19328 17.3708 3.12481 16.765 3.47339 16.4188L6.26207 13.6494ZM7.3327 15.8996C7.4821 15.7512 7.67508 15.677 7.86805 15.677H7.98008H9.56115V17.1792H8.17927L6.63553 18.7123C6.39901 18.9472 6.03797 19.0275 5.74542 18.873C5.2661 18.6196 5.19765 18.0137 5.54624 17.6676L7.3327 15.8996ZM8.68971 18.0261C9.10054 18.0261 9.43667 18.3599 9.43667 18.7679C9.43667 19.1821 9.10054 19.5097 8.68971 19.5097C8.27888 19.5097 7.94275 19.1759 7.94275 18.7679C7.94275 18.3599 8.27888 18.0261 8.68971 18.0261ZM12.0075 15.6832C12.2004 15.6832 12.3934 15.7574 12.5428 15.9057L14.3169 17.6676C14.5472 17.8963 14.6281 18.2548 14.4787 18.5392C14.2297 19.0214 13.6134 19.0894 13.2649 18.7432L11.7025 17.1916H10.3206V15.6894H11.9016H12.0075V15.6832ZM10.9368 18.0261C11.3477 18.0261 11.6838 18.3599 11.6838 18.7679C11.6838 19.1821 11.3477 19.5097 10.9368 19.5097C10.526 19.5097 10.1899 19.1759 10.1899 18.7679C10.1899 18.3599 10.526 18.0261 10.9368 18.0261Z" fill="white"/>
</g>
<defs>
<clipPath id="clip0_7348_85185">
<rect width="20" height="20" fill="white"/>
</clipPath>
</defs>
</svg>
