<svg width="24" height="24" viewBox="0 0 24 24" fill="none" xmlns="http://www.w3.org/2000/svg">
<g clip-path="url(#clip0_4337_82503)">
<path fill-rule="evenodd" clip-rule="evenodd" d="M23.1111 23.4858C22.6181 23.4858 22.2222 23.0927 22.2222 22.6031C22.2222 22.1135 22.6181 21.7203 23.1111 21.7203C23.6041 21.7203 24 22.1135 24 22.6031C24 23.0927 23.6041 23.4858 23.1111 23.4858ZM22.6629 13.9387C22.17 13.9387 21.7666 13.5381 21.7666 13.0485C21.7666 12.5515 22.17 12.1584 22.6629 12.1584C23.1559 12.1584 23.5593 12.5589 23.5593 13.0485C23.5593 13.5381 23.1559 13.9387 22.6629 13.9387ZM22.6629 11.2608C22.17 11.2608 21.7666 10.8601 21.7666 10.3706C21.7666 9.87355 22.17 9.48041 22.6629 9.48041C23.1559 9.48041 23.5593 9.88097 23.5593 10.3706C23.5593 10.8601 23.1559 11.2608 22.6629 11.2608ZM20.8478 9.67325V11.3053H19.0327V9.43589V9.30234C19.0327 9.07239 19.1223 8.84244 19.3016 8.67183L21.423 6.57988C21.6994 6.30541 22.1326 6.20901 22.4837 6.38703C23.0663 6.68373 23.1484 7.41073 22.7227 7.82616L20.8478 9.67325ZM22.4837 17.1211C22.1326 17.2991 21.6994 17.2027 21.423 16.9282L19.3016 14.8363C19.1223 14.6657 19.0327 14.4357 19.0327 14.2058V14.0722V12.2029H20.8478V13.8348L22.7227 15.682C23.1484 16.0974 23.0663 16.8244 22.4837 17.1211ZM18.1289 8.46412V11.691V14.9179L23.2829 20.0364C23.5593 20.3109 23.6564 20.7411 23.4771 21.0824C23.1783 21.6684 22.4388 21.7426 22.0131 21.3272L16.5826 15.9268C16.4034 15.7487 16.3137 15.5187 16.3137 15.2888V14.9179V11.691V8.46412V8.09321C16.3137 7.86322 16.4034 7.63327 16.5826 7.45524L19.9066 4.14674C20.1905 3.86486 20.6237 3.76842 20.9748 3.95387C21.55 4.25801 21.6321 4.98501 21.2138 5.40039L18.1289 8.46412ZM16.0374 6.83952C15.8581 7.01758 15.6265 7.10657 15.395 7.10657H15.0215H11.7796H8.53782H8.16432C7.93279 7.10657 7.70122 7.01758 7.52194 6.83952L4.19047 3.52362C3.9141 3.24915 3.81699 2.8189 3.99627 2.47766C4.29506 1.89904 5.03457 1.81745 5.45283 2.23286L8.53033 5.29658H11.7722H15.014L18.0691 2.25512C18.3529 1.97323 18.7862 1.87679 19.1373 2.06225C19.7124 2.36639 19.7946 3.09337 19.3763 3.50878L16.0374 6.83952ZM15.0514 4.13192C14.8721 4.30994 14.6405 4.39897 14.409 4.39897H14.2745H12.3772V2.59635H14.0355L15.888 0.756652C16.1718 0.474761 16.605 0.378325 16.9561 0.56378C17.5313 0.867925 17.6134 1.5949 17.1951 2.01032L15.0514 4.13192ZM13.1242 1.78035C12.6312 1.78035 12.2278 1.37977 12.2278 0.890179C12.2278 0.393162 12.6312 0 13.1242 0C13.6172 0 14.0205 0.400579 14.0205 0.890179C14.028 1.37977 13.6246 1.78035 13.1242 1.78035ZM9.44166 4.39897C9.21009 4.39897 8.97852 4.30994 8.79924 4.13192L6.67788 2.01773C6.40151 1.74326 6.30438 1.31301 6.48366 0.971777C6.78247 0.393162 7.52194 0.311562 7.94024 0.726977L9.81513 2.58893H11.4734V4.39156H9.5761H9.44166V4.39897ZM10.4277 1.78035C9.93466 1.78035 9.53126 1.37977 9.53126 0.890179C9.53126 0.393162 9.93466 0 10.4277 0C10.9206 0 11.324 0.400579 11.324 0.890179C11.3315 1.37977 10.9281 1.78035 10.4277 1.78035ZM7.23812 8.10062V8.47153V11.6984V14.9253V15.2962C7.23812 15.5262 7.14848 15.7561 6.9692 15.9342L3.64519 19.2427C3.36134 19.5246 2.9281 19.621 2.57703 19.4356C2.00187 19.1314 1.9197 18.4044 2.338 17.989L5.42298 14.9253V11.6984V8.47153L2.35294 5.43008C2.07656 5.15562 1.97946 4.72537 2.15873 4.38411C2.45752 3.79809 3.19701 3.72391 3.62278 4.13933L6.9692 7.47007C7.14848 7.64068 7.23812 7.87067 7.23812 8.10062ZM4.25022 8.67183C4.42949 8.84244 4.51913 9.07239 4.51913 9.30234V9.43589V11.3053H2.69655V9.67325L0.844073 7.84839C0.560225 7.57393 0.463117 7.14368 0.64986 6.79504C0.956115 6.22383 1.68814 6.14963 2.10644 6.56505L4.25022 8.67183ZM0.896357 9.47299C1.38936 9.47299 1.79272 9.87355 1.79272 10.3631C1.79272 10.8601 1.38936 11.2533 0.896357 11.2533C0.403361 11.2533 0 10.8527 0 10.3631C0 9.87355 0.403361 9.47299 0.896357 9.47299ZM0.896357 12.1509C1.38936 12.1509 1.79272 12.5515 1.79272 13.0411C1.79272 13.5381 1.38936 13.9313 0.896357 13.9313C0.403361 13.9313 0 13.5307 0 13.0411C0 12.5515 0.403361 12.1509 0.896357 12.1509ZM2.69655 13.8348V12.2029H4.51168V14.0722V14.2058C4.51168 14.4357 4.42204 14.6657 4.24276 14.8363L2.12138 16.9282C1.845 17.2027 1.41176 17.2991 1.06069 17.1211C0.47806 16.8244 0.395892 16.0974 0.821661 15.682L2.69655 13.8348ZM7.51449 16.3793C7.69376 16.2012 7.92529 16.1122 8.15687 16.1122H8.53033H11.7722H15.014H15.3875C15.6191 16.1122 15.8506 16.2012 16.0299 16.3793L21.4379 21.7574C21.7143 22.0319 21.8114 22.4621 21.6321 22.8034C21.3334 23.382 20.5938 23.4636 20.1755 23.0482L15.014 17.9148H11.7722H8.53033L5.47527 20.9563C5.19141 21.2381 4.75816 21.3346 4.4071 21.1492C3.83194 20.845 3.74977 20.118 4.16807 19.7026L7.51449 16.3793ZM8.79924 19.0795C8.97852 18.9015 9.21009 18.8124 9.44166 18.8124H9.5761H11.4734V20.615H9.81513L7.96264 22.4547C7.67882 22.7366 7.24557 22.8331 6.89451 22.6476C6.31933 22.3435 6.23718 21.6165 6.65548 21.2011L8.79924 19.0795ZM10.4277 21.6313C10.9206 21.6313 11.324 22.0319 11.324 22.5215C11.324 23.0185 10.9206 23.4117 10.4277 23.4117C9.93466 23.4117 9.53126 23.0111 9.53126 22.5215C9.53126 22.0319 9.93466 21.6313 10.4277 21.6313ZM14.409 18.8198C14.6405 18.8198 14.8721 18.9089 15.0514 19.0869L17.1802 21.2011C17.4566 21.4755 17.5537 21.9058 17.3744 22.247C17.0756 22.8256 16.3361 22.9073 15.9178 22.4918L14.0429 20.6299H12.3847V18.8272H14.282H14.409V18.8198ZM13.1242 21.6313C13.6172 21.6313 14.0205 22.0319 14.0205 22.5215C14.0205 23.0185 13.6172 23.4117 13.1242 23.4117C12.6312 23.4117 12.2278 23.0111 12.2278 22.5215C12.2278 22.0319 12.6312 21.6313 13.1242 21.6313Z" fill="#1D1D22"/>
<path fill-rule="evenodd" clip-rule="evenodd" d="M20.8478 9.67325V11.3053H19.0327V9.43589V9.30234C19.0327 9.07239 19.1223 8.84244 19.3016 8.67183L21.423 6.57992C21.6994 6.30541 22.1326 6.20901 22.4837 6.38703C23.0663 6.68373 23.1484 7.41073 22.7227 7.82616L20.8478 9.67325ZM22.4837 17.1211C22.1326 17.2991 21.6994 17.2027 21.423 16.9282L19.3016 14.8363C19.1223 14.6657 19.0327 14.4357 19.0327 14.2058V14.0722V12.2029H20.8478V13.8348L22.7227 15.682C23.1484 16.0974 23.0663 16.8244 22.4837 17.1211ZM16.0374 6.83952C15.8581 7.01758 15.6265 7.10657 15.395 7.10657H15.0215H11.7796H8.53782H8.16432C7.93279 7.10657 7.70122 7.01758 7.52194 6.83952L4.19047 3.52362C3.9141 3.24915 3.81699 2.8189 3.99627 2.47766C4.29506 1.89904 5.03457 1.81745 5.45287 2.23286L8.53037 5.29658H11.7722H15.014L18.0691 2.25512C18.3529 1.97323 18.7862 1.87679 19.1373 2.06225C19.7124 2.36639 19.7946 3.09337 19.3763 3.50878L16.0374 6.83952ZM15.0514 4.13192C14.8721 4.30994 14.6405 4.39897 14.409 4.39897H14.2745H12.3772V2.59635H14.0355L15.888 0.756652C16.1718 0.474761 16.605 0.378326 16.9561 0.56378C17.5313 0.867925 17.6134 1.5949 17.1951 2.01032L15.0514 4.13192ZM13.1242 1.78035C12.6312 1.78035 12.2278 1.37977 12.2278 0.890179C12.2278 0.393162 12.6312 0 13.1242 0C13.6172 0 14.0205 0.400579 14.0205 0.890179C14.028 1.37977 13.6246 1.78035 13.1242 1.78035ZM9.44166 4.39897C9.21009 4.39897 8.97852 4.30994 8.79924 4.13192L6.67788 2.01773C6.40151 1.74326 6.30438 1.31301 6.48366 0.971777C6.78247 0.393162 7.52194 0.311562 7.94024 0.726977L9.81513 2.58893H11.4734V4.39156H9.5761H9.44166V4.39897ZM10.4277 1.78035C9.93466 1.78035 9.5313 1.37977 9.5313 0.890179C9.5313 0.393162 9.93466 0 10.4277 0C10.9206 0 11.324 0.400579 11.324 0.890179C11.3315 1.37977 10.9281 1.78035 10.4277 1.78035ZM7.23812 8.10062V8.47153V11.6984V14.9253V15.2962C7.23812 15.5262 7.14848 15.7561 6.9692 15.9342L3.64519 19.2427C3.36134 19.5246 2.9281 19.621 2.57703 19.4356C2.00187 19.1314 1.9197 18.4044 2.338 17.989L5.42298 14.9253V11.6984V8.47153L2.35294 5.43008C2.07657 5.15562 1.97946 4.72537 2.15873 4.38411C2.45752 3.79809 3.19701 3.72391 3.62278 4.13933L6.9692 7.47007C7.14848 7.64068 7.23812 7.87067 7.23812 8.10062ZM4.25022 8.67183C4.42949 8.84244 4.51913 9.07239 4.51913 9.30234V9.43589V11.3053H2.69655V9.67325L0.844073 7.84839C0.560225 7.57393 0.463117 7.14368 0.64986 6.79504C0.956115 6.22383 1.68814 6.14963 2.10644 6.56505L4.25022 8.67183ZM0.896357 9.47299C1.38936 9.47299 1.79272 9.87355 1.79272 10.3631C1.79272 10.8601 1.38936 11.2533 0.896357 11.2533C0.403362 11.2533 0 10.8527 0 10.3631C0 9.87355 0.403362 9.47299 0.896357 9.47299ZM0.896357 12.1509C1.38936 12.1509 1.79272 12.5515 1.79272 13.0411C1.79272 13.5381 1.38936 13.9313 0.896357 13.9313C0.403362 13.9313 0 13.5307 0 13.0411C0 12.5515 0.403362 12.1509 0.896357 12.1509ZM2.69655 13.8348V12.2029H4.51168V14.0722V14.2058C4.51168 14.4357 4.42204 14.6657 4.24276 14.8363L2.12138 16.9282C1.845 17.2027 1.41176 17.2991 1.06069 17.1211C0.47806 16.8244 0.395892 16.0974 0.821661 15.682L2.69655 13.8348ZM7.51449 16.3793C7.69376 16.2012 7.92529 16.1122 8.15687 16.1122H8.53037H11.7722H15.014H15.3875C15.6191 16.1122 15.8506 16.2012 16.0299 16.3793L21.4379 21.7574C21.7143 22.0319 21.8114 22.4621 21.6321 22.8034C21.3334 23.382 20.5938 23.4636 20.1755 23.0482L15.014 17.9148H11.7722H8.53037L5.47527 20.9563C5.19141 21.2381 4.75816 21.3346 4.4071 21.1492C3.83194 20.845 3.74977 20.118 4.16807 19.7026L7.51449 16.3793ZM8.79924 19.0795C8.97852 18.9015 9.21009 18.8124 9.44166 18.8124H9.5761H11.4734V20.615H9.81513L7.96264 22.4547C7.67882 22.7366 7.24557 22.8331 6.89451 22.6476C6.31933 22.3435 6.23718 21.6165 6.65548 21.2011L8.79924 19.0795ZM10.4277 21.6313C10.9206 21.6313 11.324 22.0319 11.324 22.5215C11.324 23.0185 10.9206 23.4117 10.4277 23.4117C9.93466 23.4117 9.5313 23.0111 9.5313 22.5215C9.5313 22.0319 9.93466 21.6313 10.4277 21.6313ZM14.409 18.8198C14.6405 18.8198 14.8721 18.9089 15.0514 19.0869L17.1802 21.2011C17.4566 21.4755 17.5537 21.9058 17.3744 22.247C17.0756 22.8256 16.3361 22.9073 15.9178 22.4918L14.0429 20.6299H12.3847V18.8272H14.282H14.409V18.8198ZM13.1242 21.6313C13.6172 21.6313 14.0205 22.0319 14.0205 22.5215C14.0205 23.0185 13.6172 23.4117 13.1242 23.4117C12.6312 23.4117 12.2278 23.0111 12.2278 22.5215C12.2278 22.0319 12.6312 21.6313 13.1242 21.6313Z" fill="#1D1D22"/>
</g>
<defs>
<clipPath id="clip0_4337_82503">
<rect width="24" height="24" fill="white"/>
</clipPath>
</defs>
</svg>
