<svg width="20" height="20" viewBox="0 0 20 20" fill="none" xmlns="http://www.w3.org/2000/svg">
<path fill-rule="evenodd" clip-rule="evenodd" d="M10 18.8889C14.9092 18.8889 18.8889 14.9092 18.8889 10C18.8889 5.0908 14.9092 1.11111 10 1.11111C5.0908 1.11111 1.11111 5.0908 1.11111 10C1.11111 14.9092 5.0908 18.8889 10 18.8889ZM10 20C15.5228 20 20 15.5228 20 10C20 4.47715 15.5228 0 10 0C4.47715 0 0 4.47715 0 10C0 15.5228 4.47715 20 10 20Z" fill="white"/>
<mask id="mask0" style="mask-type:alpha" maskUnits="userSpaceOnUse" x="0" y="0" width="20" height="20">
<path d="M20 10C20 15.5228 15.5228 20 10 20C4.47715 20 0 15.5228 0 10C0 4.47715 4.47715 0 10 0C15.5228 0 20 4.47715 20 10Z" fill="#C4C4C4"/>
</mask>
<g mask="url(#mask0)">
<path fill-rule="evenodd" clip-rule="evenodd" d="M13.0716 20.0203L0.738281 5.07589L1.59525 4.36865L13.9286 19.3131L13.0716 20.0203Z" fill="white"/>
<path fill-rule="evenodd" clip-rule="evenodd" d="M15.6309 18.2589L10.6309 0.147738L11.7019 -0.147949L16.7019 17.9632L15.6309 18.2589Z" fill="white"/>
<path fill-rule="evenodd" clip-rule="evenodd" d="M20.1614 7.78139L4.8281 19.0036L4.17188 18.107L19.5052 6.88477L20.1614 7.78139Z" fill="white"/>
<path fill-rule="evenodd" clip-rule="evenodd" d="M12.8232 5.90255L-0.232316 11.2914L-0.65625 10.2644L12.3993 4.87549L12.8232 5.90255Z" fill="white"/>
</g>
</svg>
