<svg width="20" height="20" viewBox="0 0 20 20" fill="none" xmlns="http://www.w3.org/2000/svg">
<path d="M7.78226 10.4882C8.19627 10.5376 8.61588 10.5089 9.01927 10.4034C10.7467 9.93168 11.9484 8.85466 12.6206 7.20006C12.8843 6.56424 12.9157 5.85586 12.7093 5.19921C12.4779 4.44815 11.9514 3.95169 11.2372 3.70234C9.54276 3.112 7.88366 3.26296 6.30341 4.1004C5.56361 4.49171 5.07542 5.1519 4.65858 5.86166C4.36491 6.36187 4.11255 6.88911 3.70097 7.31422C3.28938 7.73932 2.81021 7.79565 2.28296 7.64994C1.89315 7.54179 1.71365 7.24287 1.67685 6.85457C1.61751 6.2447 1.83232 5.70769 2.15452 5.21198C2.93263 4.01478 4.03219 3.19687 5.309 2.60353C7.05223 1.79163 8.88633 1.4927 10.7918 1.76534C11.9281 1.92757 12.9864 2.31888 13.8659 3.09247C14.5973 3.71602 15.0762 4.58501 15.2126 5.53644C15.4604 7.1963 14.8243 8.53395 13.6879 9.68158C12.7754 10.6039 11.6848 11.2588 10.4786 11.714C9.97838 11.9032 9.45338 12.0287 8.93665 12.1751C8.82024 12.2089 8.76541 12.2502 8.79771 12.3802C9.05983 13.4519 9.43311 14.4749 10.1293 15.3499C10.396 15.6849 10.6799 16.0258 11.1358 16.0844C11.7832 16.1793 12.4442 16.0973 13.0487 15.8471C13.8058 15.5286 14.4592 15.072 14.9647 14.4125C15.1314 14.1955 15.3455 14.0303 15.6407 14.0235C15.9494 14.016 16.1469 14.2045 16.1604 14.5132C16.1777 14.9218 16.0102 15.2643 15.7473 15.5512C15.0782 16.2998 14.2721 16.9137 13.3724 17.3597C12.6567 17.709 11.9109 17.9343 11.102 17.9238C10.3344 17.9133 9.72151 17.5678 9.18 17.0668C8.51756 16.4539 8.03387 15.7059 7.67786 14.8887C7.32186 14.0716 7.01392 13.2176 6.68571 12.3802C6.66843 12.3358 6.64665 12.293 6.6106 12.2059C6.55352 12.3336 6.50996 12.42 6.47616 12.5101C6.06833 13.5984 5.67026 14.6882 5.25192 15.775C5.03122 16.3817 4.71199 16.9478 4.30708 17.4506C4.09753 17.7015 3.87521 17.9463 3.55601 18.0582C2.83273 18.3121 1.90367 17.9831 2.03285 16.8009C2.08167 16.3653 2.28221 15.9928 2.48349 15.6188C3.42683 13.8913 4.3559 12.1526 5.31877 10.4364C5.87531 9.44424 6.4709 8.47386 7.07851 7.51175C7.38495 7.02656 7.75447 6.57817 8.22764 6.23494C8.46573 6.06294 8.72034 5.99835 8.97871 6.17034C9.23708 6.34234 9.30392 6.63751 9.22206 6.92141C9.09233 7.38396 8.93661 7.83883 8.75565 8.28384C8.4755 8.9598 8.1608 9.61999 7.86112 10.2877C7.83183 10.3418 7.81306 10.4011 7.78226 10.4882Z" fill="white"/>
<path d="M16.9086 17.0449C16.9177 16.8776 16.9605 16.7139 17.0343 16.5635C17.1082 16.4131 17.2117 16.2791 17.3385 16.1697C17.4654 16.0602 17.613 15.9775 17.7726 15.9264C17.9322 15.8753 18.1005 15.857 18.2673 15.8725C18.4782 15.8917 18.6754 15.9854 18.8235 16.1368C18.9716 16.2882 19.061 16.4874 19.0754 16.6987C19.1506 17.3889 18.5332 18.0506 17.8392 18.0356C17.7121 18.0346 17.5866 18.0078 17.4702 17.9569C17.3538 17.9059 17.249 17.8319 17.162 17.7393C17.075 17.6467 17.0077 17.5375 16.9641 17.4181C16.9206 17.2988 16.9017 17.1718 16.9086 17.0449V17.0449Z" fill="white"/>
</svg>
