<svg width="24" height="24" viewBox="0 0 24 24" fill="none" xmlns="http://www.w3.org/2000/svg">
<path d="M9.33832 12.5855C9.83514 12.6448 10.3387 12.6102 10.8227 12.4836C12.8957 11.9176 14.3377 10.6252 15.1444 8.63968C15.4608 7.8767 15.4985 7.02664 15.2507 6.23867C14.9731 5.33739 14.3413 4.74164 13.4842 4.44242C11.4509 3.73401 9.46 3.91517 7.5637 4.92009C6.67594 5.38966 6.09011 6.18189 5.5899 7.0336C5.2375 7.63385 4.93467 8.26655 4.44077 8.77667C3.94687 9.28679 3.37186 9.35439 2.73916 9.17954C2.27139 9.04976 2.05599 8.69105 2.01183 8.22509C1.94062 7.49325 2.19839 6.84883 2.58504 6.25399C3.51876 4.81735 4.83824 3.83586 6.37041 3.12384C8.46228 2.14956 10.6632 1.79085 12.9498 2.11802C14.3134 2.31269 15.5833 2.78226 16.6387 3.71058C17.5164 4.45884 18.091 5.50162 18.2547 6.64334C18.5521 8.63517 17.7887 10.2403 16.4251 11.6175C15.33 12.7243 14.0214 13.5102 12.5739 14.0564C11.9737 14.2835 11.3437 14.434 10.7236 14.6098C10.5839 14.6503 10.5181 14.6999 10.5569 14.8558C10.8714 16.1419 11.3193 17.3695 12.1548 18.4195C12.4748 18.8214 12.8155 19.2306 13.3625 19.3009C14.1394 19.4148 14.9326 19.3164 15.6581 19.0161C16.5666 18.634 17.3507 18.086 17.9573 17.2947C18.1573 17.0342 18.4142 16.8359 18.7684 16.8278C19.1388 16.8188 19.3759 17.045 19.3921 17.4154C19.4128 17.9057 19.2118 18.3167 18.8964 18.661C18.0934 19.5594 17.1261 20.296 16.0465 20.8313C15.1876 21.2504 14.2927 21.5208 13.322 21.5081C12.4009 21.4955 11.6654 21.0809 11.0156 20.4798C10.2207 19.7443 9.64025 18.8467 9.21305 17.8661C8.78584 16.8855 8.41632 15.8607 8.02246 14.8558C8.00173 14.8026 7.97559 14.7513 7.93233 14.6467C7.86383 14.7999 7.81156 14.9036 7.771 15.0117C7.2816 16.3177 6.80393 17.6254 6.30191 18.9296C6.03707 19.6576 5.65399 20.337 5.1681 20.9403C4.91665 21.2414 4.64987 21.5352 4.26682 21.6695C3.39889 21.9741 2.28401 21.5793 2.43903 20.1607C2.49761 19.638 2.73826 19.191 2.9798 18.7421C4.11181 16.6692 5.22669 14.5827 6.38213 12.5233C7.04998 11.3327 7.76469 10.1682 8.49383 9.01371C8.86155 8.43148 9.30498 7.89342 9.87278 7.48153C10.1585 7.27514 10.464 7.19763 10.7741 7.40402C11.0841 7.61041 11.1643 7.96462 11.0661 8.3053C10.9104 8.86036 10.7235 9.40621 10.5064 9.94022C10.1702 10.7514 9.79257 11.5436 9.43296 12.3448C9.39781 12.4097 9.37528 12.4809 9.33832 12.5855Z" fill="#1D1D22"/>
<path d="M20.2902 20.4543C20.3011 20.2536 20.3524 20.057 20.4411 19.8766C20.5297 19.6961 20.6539 19.5354 20.8061 19.404C20.9584 19.2726 21.1355 19.1733 21.327 19.1121C21.5185 19.0508 21.7204 19.0288 21.9207 19.0474C22.1738 19.0704 22.4104 19.1828 22.5882 19.3645C22.7659 19.5462 22.873 19.7853 22.8904 20.0388C22.9806 20.8671 22.2397 21.6611 21.4069 21.6431C21.2545 21.6419 21.1039 21.6097 20.9642 21.5486C20.8245 21.4875 20.6987 21.3987 20.5943 21.2876C20.4899 21.1765 20.4091 21.0453 20.3569 20.9021C20.3046 20.7589 20.282 20.6066 20.2902 20.4543Z" fill="#1D1D22"/>
</svg>
