<svg width="24" height="24" viewBox="0 0 24 24" fill="none" xmlns="http://www.w3.org/2000/svg">
<path fill-rule="evenodd" clip-rule="evenodd" d="M9.36376 0.44956C9.18993 0.695472 9.04761 0.948741 9.04761 1.01243C9.04761 1.07612 9.72533 2.5424 10.5538 4.27056C11.3821 5.99885 12.1079 7.53651 12.1665 7.68758C12.2251 7.83853 12.295 7.94027 12.3218 7.91349C12.3486 7.8867 12.0626 6.22107 11.6863 4.21216C11.3099 2.20325 11.002 0.515551 11.002 0.461862C11.002 0.365291 10.0415 -0.00466896 9.80316 4.46374e-05C9.73533 0.00142423 9.53759 0.203649 9.36376 0.44956ZM13.3395 4.41128L13.0159 4.68961L13.2905 6.05127C13.4417 6.80016 13.5936 7.46316 13.6283 7.52455C13.6761 7.6094 14.2973 5.10004 14.3298 4.6903C14.3333 4.64719 14.1846 4.50417 13.9996 4.37242L13.6633 4.13283L13.3395 4.41128ZM19.9752 6.71301C17.4654 9.09786 16.7372 9.87549 17.4509 9.40884C17.603 9.3094 19.0985 8.48578 20.7741 7.57847C22.4497 6.67128 23.86 5.87491 23.9081 5.80869C23.9561 5.74259 23.982 5.42976 23.9656 5.11361L23.9357 4.53878L23.3608 4.34679C23.0447 4.24125 22.7602 4.1541 22.7285 4.15318C22.6969 4.15226 21.4579 5.30422 19.9752 6.71301ZM16.2449 6.55769C16.009 7.32026 15.8323 7.98545 15.8521 8.03581C15.8719 8.08616 16.3178 7.64217 16.8431 7.04917L17.7981 5.97102L17.6535 5.57106C17.5245 5.21443 17.4637 5.17109 17.0913 5.17109H16.6737L16.2449 6.55769ZM8.34091 6.39778C8.15662 6.44664 8.01763 6.76222 8.01452 7.13907C8.01349 7.25059 8.52405 7.65424 9.29122 8.14859C9.99435 8.60155 10.5427 8.90219 10.5099 8.81677C10.4771 8.73124 10.1095 8.13468 9.69325 7.49099C8.94471 6.33385 8.85492 6.2612 8.34091 6.39778ZM1.37364 11.4324C1.16819 11.714 1 11.978 1 12.0189C1 12.06 1.16521 12.3078 1.36709 12.5698C1.56896 12.8318 1.73704 13.0544 1.74072 13.0645C1.75728 13.1105 9.19626 12.0736 9.25236 12.0175C9.28731 11.9826 9.29432 11.938 9.268 11.9183C9.24155 11.8985 7.63721 11.6888 5.70256 11.4522C3.76792 11.2156 2.08654 10.9992 1.96617 10.9712C1.80913 10.9347 1.64162 11.065 1.37364 11.4324ZM19.567 11.5943C18.8082 11.7494 18.1659 11.8938 18.1394 11.9152C18.0208 12.0116 18.3128 12.1077 19.5123 12.367C20.2195 12.52 20.8362 12.6687 20.8828 12.6974C20.972 12.7526 21.4669 12.1435 21.4598 11.9874C21.4575 11.9375 21.3411 11.7651 21.2011 11.6043L20.9466 11.3122L19.567 11.5943ZM8.24285 13.3441C6.40328 13.548 6.45156 13.5323 6.31717 13.9705C6.206 14.3326 6.22129 14.3893 6.48709 14.5984C6.64781 14.7247 6.81888 14.8282 6.86728 14.8282C7.04088 14.8282 9.3925 13.4276 9.3925 13.3242C9.3925 13.2662 9.32789 13.2254 9.2488 13.2336C9.16981 13.2418 8.71708 13.2916 8.24285 13.3441ZM8.64523 15.0471C7.61835 15.4979 7.35979 15.6603 7.27 15.9111C7.13308 16.2937 7.27966 16.5574 7.70871 16.7004C7.99969 16.7974 8.08753 16.7333 9.02266 15.7431C10.0278 14.6786 10.1837 14.4796 10.0056 14.4877C9.95296 14.49 9.34077 14.7418 8.64523 15.0471ZM17.2102 14.5706C17.2102 14.6292 17.6888 15.1186 18.2736 15.6584C18.8584 16.1982 20.1064 17.3636 21.0466 18.2482L22.7561 19.8567L23.3207 19.6762C23.9411 19.4778 24.0349 19.3164 23.9725 18.5546L23.9357 18.1067L21.6364 16.8615C20.3717 16.1768 18.8973 15.3744 18.3598 15.0786C17.164 14.4204 17.2102 14.4409 17.2102 14.5706ZM9.90985 16.4476C9.34077 16.9496 8.8601 17.4284 8.84182 17.5116C8.82342 17.5949 8.86216 17.8043 8.92781 17.977C9.03174 18.2504 9.10095 18.2865 9.46206 18.2553C9.87019 18.2203 9.88617 18.1995 10.4457 16.9737C10.7585 16.2883 10.9987 15.6843 10.9795 15.6313C10.9603 15.5783 10.4789 15.9456 9.90985 16.4476ZM12.1611 16.3554C12.0996 16.5173 11.3693 18.0801 10.5384 19.8284L9.0276 23.0071L9.3441 23.4639C9.51828 23.7151 9.70785 23.9497 9.76557 23.9855C9.89318 24.0643 10.8691 23.8027 10.9529 23.6671C10.9858 23.6138 11.1112 23.0388 11.2315 22.3895C11.3518 21.7401 11.6612 20.0764 11.9192 18.6924C12.3572 16.3421 12.4288 15.6515 12.1611 16.3554ZM15.07 16.6243C15.108 16.8695 15.1941 17.5343 15.2614 18.1015C15.3285 18.6689 15.3995 19.1491 15.419 19.1685C15.4386 19.1881 15.6159 19.2503 15.8132 19.3069C16.1347 19.3991 16.1971 19.3744 16.4139 19.07L16.6559 18.7302L15.9427 17.5252C15.125 16.1437 14.9704 15.9841 15.07 16.6243ZM13.6158 16.4952C13.5777 16.6217 13.4284 17.3114 13.284 18.0278L13.0213 19.3305L13.305 19.5486C13.6584 19.8201 13.7524 19.8195 14.0843 19.5427L14.3499 19.3213L14.0175 17.7933C13.8119 16.8487 13.6585 16.3531 13.6158 16.4952Z" fill="black"/>
</svg>
