<svg width="20" height="20" viewBox="0 0 20 20" fill="none" xmlns="http://www.w3.org/2000/svg">
<path fill-rule="evenodd" clip-rule="evenodd" d="M7.80281 0.374634C7.65795 0.57956 7.53935 0.790618 7.53935 0.843694C7.53935 0.89677 8.10411 2.11867 8.79448 3.5588C9.48476 4.99904 10.0896 6.28043 10.1384 6.40631C10.1873 6.53211 10.2455 6.61689 10.2679 6.59457C10.2902 6.57225 10.0518 5.18423 9.73826 3.51013C9.42459 1.83604 9.16803 0.429626 9.16803 0.384885C9.16803 0.304409 8.36758 -0.0038908 8.16898 3.71978e-05C8.11245 0.00118686 7.94767 0.169707 7.80281 0.374634ZM11.1159 3.67607L10.8462 3.90801L11.0751 5.04272C11.2011 5.6668 11.3277 6.2193 11.3566 6.27046C11.3964 6.34117 11.9141 4.25003 11.9412 3.90859C11.9441 3.87266 11.8202 3.75348 11.666 3.64369L11.3857 3.44403L11.1159 3.67607ZM16.6457 5.59418C14.5542 7.58155 13.9473 8.22957 14.5421 7.8407C14.6689 7.75783 15.9151 7.07149 17.3114 6.3154C18.7078 5.5594 19.883 4.89576 19.9231 4.84058C19.9631 4.78549 19.9847 4.5248 19.971 4.26134L19.9461 3.78232L19.467 3.62232C19.2036 3.53437 18.9665 3.46175 18.9401 3.46099C18.9138 3.46022 17.8813 4.42018 16.6457 5.59418ZM13.5371 5.46474C13.3405 6.10022 13.1933 6.65454 13.2097 6.69651C13.2262 6.73847 13.5979 6.36847 14.0356 5.87431L14.8314 4.97585L14.7109 4.64255C14.6034 4.34536 14.5527 4.30924 14.2424 4.30924H13.8945L13.5371 5.46474ZM6.95043 5.33148C6.79686 5.3722 6.68103 5.63518 6.67844 5.94923C6.67758 6.04216 7.10305 6.37853 7.74236 6.79049C8.3283 7.16796 8.78529 7.41849 8.75789 7.34731C8.73058 7.27603 8.42429 6.7789 8.07739 6.24249C7.4536 5.27821 7.37878 5.21766 6.95043 5.33148ZM1.14437 9.52697C0.97317 9.76169 0.833008 9.98165 0.833008 10.0158C0.833008 10.05 0.970679 10.2565 1.13891 10.4749C1.30715 10.6932 1.44721 10.8787 1.45028 10.8871C1.46407 10.9254 7.66322 10.0614 7.70997 10.0146C7.7391 9.98549 7.74494 9.94831 7.723 9.93193C7.70097 9.91545 6.36401 9.7407 4.75181 9.54354C3.13961 9.34637 1.73846 9.16597 1.63815 9.14269C1.50728 9.11223 1.36769 9.22087 1.14437 9.52697ZM16.3055 9.66195C15.6732 9.79119 15.1379 9.91153 15.1159 9.92935C15.017 10.0096 15.2604 10.0897 16.2599 10.3059C16.8493 10.4334 17.3632 10.5572 17.402 10.5812C17.4763 10.6272 17.8888 10.1196 17.8828 9.98951C17.8809 9.94793 17.7839 9.80422 17.6673 9.67029L17.4551 9.42685L16.3055 9.66195ZM6.86871 11.1201C5.33574 11.29 5.37598 11.2769 5.26398 11.642C5.17134 11.9438 5.18408 11.9911 5.40558 12.1653C5.53952 12.2706 5.68207 12.3568 5.72241 12.3568C5.86707 12.3568 7.82676 11.1897 7.82676 11.1035C7.82676 11.0551 7.77292 11.0211 7.707 11.028C7.64119 11.0348 7.26391 11.0763 6.86871 11.1201ZM7.20403 12.5393C6.3483 12.9149 6.13283 13.0503 6.05801 13.2592C5.94391 13.5781 6.06606 13.7978 6.4236 13.917C6.66608 13.9978 6.73928 13.9444 7.51856 13.1193C8.35618 12.2322 8.48609 12.0664 8.33769 12.0731C8.29381 12.075 7.78365 12.2848 7.20403 12.5393ZM14.3415 12.1421C14.3415 12.191 14.7403 12.5989 15.2277 13.0487C15.715 13.4985 16.755 14.4696 17.5385 15.2068L18.9631 16.5473L19.4336 16.3968C19.9506 16.2315 20.0288 16.097 19.9767 15.4622L19.9461 15.0889L18.03 14.0513C16.9761 13.4806 15.7474 12.812 15.2995 12.5655C14.303 12.017 14.3415 12.0341 14.3415 12.1421ZM8.25788 13.7064C7.78365 14.1246 7.38309 14.5237 7.36786 14.593C7.35253 14.6624 7.38481 14.8369 7.43952 14.9808C7.52612 15.2087 7.5838 15.2388 7.88472 15.2128C8.22483 15.1836 8.23815 15.1662 8.70443 14.1448C8.96511 13.5736 9.16525 13.0702 9.14925 13.026C9.13325 12.9819 8.73212 13.288 8.25788 13.7064ZM10.1339 13.6295C10.0827 13.7644 9.47412 15.0668 8.78165 16.5237L7.52268 19.1726L7.78643 19.5532C7.93157 19.7626 8.08955 19.9581 8.13765 19.9879C8.24399 20.0536 9.05728 19.8356 9.12712 19.7226C9.15452 19.6782 9.25904 19.199 9.35925 18.6579C9.45947 18.1167 9.71737 16.7303 9.93236 15.577C10.2974 13.6184 10.357 13.0429 10.1339 13.6295ZM12.558 13.8536C12.5897 14.058 12.6615 14.6119 12.7175 15.0846C12.7735 15.5574 12.8326 15.9576 12.8489 15.9738C12.8651 15.9901 13.013 16.0419 13.1774 16.0891C13.4452 16.166 13.4973 16.1454 13.6779 15.8917L13.8796 15.6085L13.2852 14.6043C12.6039 13.453 12.475 13.3201 12.558 13.8536ZM11.3461 13.746C11.3144 13.8514 11.19 14.4261 11.0697 15.0232L10.8507 16.1088L11.0872 16.2905C11.3817 16.5168 11.46 16.5162 11.7366 16.2856L11.958 16.1011L11.6809 14.8277C11.5096 14.0406 11.3818 13.6276 11.3461 13.746Z" fill="white"/>
</svg>
