<svg width="24" height="24" viewBox="0 0 24 24" fill="none" xmlns="http://www.w3.org/2000/svg">
<path d="M17.8111 3.52094C18.208 2.95322 18.4209 2.27726 18.421 1.58455C18.41 1.1772 18.2704 0.783764 18.0223 0.460519C17.8995 0.309708 17.7432 0.189646 17.5659 0.10989C17.3885 0.0301345 17.195 -0.00711292 17.0007 0.00111995C15.4092 0.00111995 14.6022 1.4865 14.6022 4.4161C14.6026 4.83725 14.6256 5.25806 14.6711 5.67675L12.32 7.65081C11.7542 7.16137 11.0109 6.91345 10.1082 6.91345C9.44179 6.91162 8.78406 7.06487 8.18708 7.36111C7.60078 7.64757 7.08062 8.05308 6.65976 8.55176C6.1895 9.13997 5.80642 9.79285 5.52232 10.4903C5.16386 11.3583 4.98661 12.2905 5.00147 13.2295C4.98003 14.2043 5.19285 15.1701 5.62204 16.0456C5.28929 17.0771 5.1251 18.1555 5.1358 19.2393C5.12833 20.4047 5.47967 21.5441 6.14212 22.503C6.82229 23.4962 7.70435 23.9999 8.76372 23.9999C8.79707 24.0007 8.8302 23.9944 8.86101 23.9817C8.89182 23.9689 8.91965 23.9499 8.94273 23.9258C8.97446 23.8874 8.99788 23.8428 9.01153 23.7949C9.02517 23.7469 9.02874 23.6967 9.02201 23.6473C9.00676 23.3432 8.83615 23.3105 8.76372 23.3105C7.95333 23.3105 7.30746 22.9279 6.78921 22.1409C6.26244 21.3397 5.98685 20.3995 5.99773 19.4407C5.98945 18.625 6.07799 17.8112 6.26151 17.0164C7.12739 18.0195 8.36166 18.5277 9.93517 18.5277C11.0018 18.549 12.0599 18.3343 13.0339 17.8989C13.8847 17.5132 14.6156 16.9049 15.1493 16.1382C15.663 15.3824 16.0466 14.5459 16.2841 13.6634C16.5318 12.7489 16.6563 11.8054 16.6543 10.8579C16.6543 9.90922 16.4575 8.1099 16.0691 5.50933C16.7236 4.91499 17.308 4.24788 17.8111 3.52094ZM17.5784 1.67085C17.5784 2.43107 17.0306 3.37716 15.9488 4.48578C15.9077 4.06496 15.8869 3.71321 15.8869 3.43739C15.8869 1.70378 16.2619 0.824776 17.0013 0.824776C17.2491 0.824776 17.5784 0.912449 17.5784 1.67085ZM11.649 8.22974C8.861 10.612 6.97492 12.8768 6.03523 14.9702C5.87996 14.4295 5.80294 13.8692 5.80653 13.3066C5.80585 12.6505 5.90713 11.9983 6.10674 11.3733C6.55455 9.90679 7.3006 8.85045 8.32445 8.23386C8.88716 7.90068 9.53072 7.72882 10.1846 7.7371C10.7985 7.7371 11.2788 7.89842 11.649 8.22974ZM8.65135 12.3482C9.70632 11.1098 10.8578 9.95696 12.0951 8.90062C12.179 9.16434 12.2217 9.43944 12.2216 9.71619C12.2159 10.5841 11.8718 11.4156 11.2626 12.0338C10.834 12.5099 10.3618 12.7515 9.85985 12.7515H9.6778L9.70966 12.9306C9.72783 13.0793 9.795 13.2176 9.90056 13.3238C10.0119 13.4184 10.1551 13.467 10.3009 13.4597C10.9225 13.468 11.5281 13.2636 12.0175 12.8803C12.475 12.5381 12.8303 12.0774 13.0448 11.5478C13.2443 11.0081 13.3422 10.4361 13.3338 9.86074C13.338 9.28624 13.169 8.72381 12.8488 8.24682L14.7655 6.65776C14.9764 8.8779 15.0832 10.2294 15.0832 10.6768C15.0832 12.5731 14.6835 14.2073 13.8949 15.5338C13.4989 16.1997 12.9317 16.7473 12.2521 17.1195C11.4992 17.5219 10.6554 17.7235 9.80191 17.705C8.30982 17.705 7.24038 17.1704 6.53275 16.0709C7.00237 14.7095 7.72075 13.4472 8.65135 12.3482Z" fill="#1D1D22"/>
</svg>
