<svg width="20" height="20" viewBox="0 0 20 20" fill="none" xmlns="http://www.w3.org/2000/svg">
<path d="M14.8429 2.93412C15.1737 2.46102 15.3511 1.89771 15.3512 1.32045C15.342 0.980996 15.2257 0.653136 15.0189 0.383766C14.9166 0.25809 14.7864 0.158039 14.6386 0.0915753C14.4908 0.0251121 14.3295 -0.00592743 14.1676 0.000933295C12.8413 0.000933295 12.1688 1.23875 12.1688 3.68009C12.1692 4.03104 12.1884 4.38172 12.2262 4.73062L10.267 6.37567C9.79546 5.96781 9.17604 5.76121 8.42385 5.76121C7.86848 5.75968 7.32038 5.88739 6.82289 6.13425C6.33431 6.37297 5.90084 6.7109 5.55013 7.12647C5.15824 7.61664 4.83901 8.16071 4.60226 8.74191C4.30354 9.46526 4.15583 10.242 4.16822 11.0246C4.15035 11.8369 4.3277 12.6417 4.68536 13.3713C4.40807 14.2309 4.27124 15.1296 4.28016 16.0327C4.27394 17.0039 4.56672 17.9535 5.11876 18.7525C5.68557 19.5801 6.42061 20 7.30343 20C7.33121 20.0006 7.35882 19.9954 7.3845 19.9847C7.41018 19.9741 7.43337 19.9583 7.4526 19.9382C7.47904 19.9062 7.49856 19.869 7.50993 19.829C7.5213 19.7891 7.52428 19.7472 7.51867 19.7061C7.50596 19.4527 7.36378 19.4254 7.30343 19.4254C6.6281 19.4254 6.08988 19.1066 5.658 18.4507C5.21903 17.7831 4.98936 16.9996 4.99843 16.2006C4.99153 15.5209 5.06532 14.8427 5.21825 14.1803C5.93982 15.0163 6.96837 15.4398 8.27963 15.4398C9.16847 15.4575 10.0502 15.2785 10.8619 14.9158C11.5709 14.5944 12.18 14.0874 12.6247 13.4485C13.0528 12.8186 13.3725 12.1216 13.5704 11.3862C13.7768 10.6241 13.8806 9.83781 13.8789 9.04826C13.8789 8.25769 13.7149 6.75825 13.3913 4.59111C13.9366 4.09583 14.4237 3.5399 14.8429 2.93412V2.93412ZM14.649 1.39237C14.649 2.02589 14.1925 2.8143 13.291 3.73815C13.2567 3.38747 13.2394 3.09434 13.2394 2.86449C13.2394 1.41982 13.5519 0.687313 14.1681 0.687313C14.3746 0.687313 14.649 0.760374 14.649 1.39237ZM9.70779 6.85812C7.38449 8.84331 5.81276 10.7307 5.02969 12.4752C4.90029 12.0245 4.83611 11.5577 4.8391 11.0888C4.83854 10.5421 4.92294 9.99856 5.08928 9.47772C5.46245 8.25565 6.08416 7.37538 6.93737 6.86155C7.40629 6.5839 7.94259 6.44068 8.4875 6.44759C8.99905 6.44759 9.39929 6.58202 9.70779 6.85812ZM7.20978 10.2901C8.08893 9.25813 9.04853 8.29747 10.0796 7.41718C10.1495 7.63695 10.1851 7.8662 10.185 8.09683C10.1802 8.8201 9.8935 9.51297 9.38582 10.0281C9.02865 10.425 8.63515 10.6262 8.21687 10.6262H8.06516L8.09171 10.7755C8.10685 10.8994 8.16282 11.0147 8.25079 11.1032C8.34356 11.182 8.46288 11.2225 8.58445 11.2164C9.10238 11.2233 9.60711 11.053 10.0149 10.7336C10.3962 10.4485 10.6922 10.0645 10.871 9.6232C11.0372 9.1734 11.1189 8.69675 11.1118 8.21728C11.1153 7.73853 10.9745 7.26984 10.7076 6.87235L12.3049 5.54813C12.4806 7.39825 12.5697 8.52451 12.5697 8.89731C12.5697 10.4776 12.2365 11.8394 11.5794 12.9448C11.2494 13.4998 10.7767 13.9561 10.2104 14.2662C9.58303 14.6015 8.87981 14.7696 8.16858 14.7541C6.92517 14.7541 6.03397 14.3087 5.44429 13.3924C5.83563 12.258 6.43428 11.206 7.20978 10.2901V10.2901Z" fill="white"/>
</svg>
