<svg width="20" height="20" viewBox="0 0 20 20" fill="none" xmlns="http://www.w3.org/2000/svg">
<path fill-rule="evenodd" clip-rule="evenodd" d="M4.0625 20L7.35159 4.73727L9.19705 16.1919L4.0625 20ZM7.41523 4.65L12.4125 16.2036L9.2825 16.1491L7.41523 4.64909V4.65ZM7.48977 4.56273L14.0352 5.49273L12.5189 16.2036L7.48977 4.56273ZM12.6352 16.0391L14.1107 5.59091L15.0761 6.81636L12.6352 16.0391ZM14.0143 5.39364L7.62705 4.48545L13.378 2.59273L14.0143 5.39364ZM7.59614 4.38727L11.5107 1.67364L13.378 2.49455L7.59614 4.38727ZM7.49977 4.35455L8.25431 2.91L11.447 1.63L7.49977 4.35455ZM8.25431 2.84545L8.61431 1.71819L11.2452 1.63L8.25431 2.84455V2.84545ZM8.59341 1.63L9.44159 0.721819L11.267 1.54273L8.59341 1.63ZM9.49523 0.667273L10.768 0.0436362L12.4134 1.96909L9.49523 0.667273ZM10.9489 0.12L12.848 0.951819L12.508 1.98L10.9489 0.12ZM12.5716 2.01273L12.9216 0.962727L13.3461 2.40727L12.5716 2.01273ZM10.8107 0H12.2007L12.8889 0.765455C12.8953 0.772841 12.899 0.782159 12.8994 0.791909C12.8999 0.801659 12.8971 0.811295 12.8914 0.81925C12.8857 0.827205 12.8776 0.833045 12.8682 0.835819C12.8589 0.838591 12.8488 0.838136 12.8398 0.834545L10.8107 0ZM13.007 0.875455L15.8344 1.66455C15.8486 1.66798 15.8612 1.67614 15.8705 1.68769C15.8795 1.69923 15.8845 1.71348 15.8845 1.72819C15.8845 1.74289 15.8795 1.75714 15.8705 1.76869C15.8612 1.78023 15.8486 1.78839 15.8344 1.79181L13.4316 2.45091L13.007 0.875455Z" fill="white"/>
</svg>
