<svg width="20" height="20" viewBox="0 0 20 20" fill="none" xmlns="http://www.w3.org/2000/svg">
<path fill-rule="evenodd" clip-rule="evenodd" d="M16.5925 4.15348C16.88 4.43868 17.3472 4.40303 17.5628 4.08218C17.7784 3.83263 17.7425 3.44049 17.4909 3.22659C15.119 0.98067 12.9987 -0.160116 9.47672 0.0181322C5.77509 0.19638 2.50472 2.12146 2.72035 6.1855C2.90004 9.78611 6.42198 11.1051 9.51266 12.2816C11.8846 13.1728 13.969 13.9571 14.0768 15.6326C14.1846 17.4864 12.2799 18.5915 10.6267 18.6985C7.50012 18.8767 5.66728 17.7716 3.6188 15.8109C3.36723 15.5613 2.97191 15.5613 2.72035 15.7752C2.43284 16.0248 2.43284 16.4526 2.68441 16.7378C4.98445 19.0193 7.35637 20.1601 10.8064 19.9819C14.2565 19.7323 18.4972 17.8073 18.2816 13.7432C18.1019 10.2139 14.7237 8.89487 11.6689 7.75408C9.15328 6.79155 6.8173 5.90031 6.70948 3.86828C6.63761 2.40665 8.39858 1.33717 9.65641 1.26587C12.7112 1.12327 14.6159 2.19275 16.5925 4.15348ZM16.9882 13.8142C16.9882 15.3828 16.1257 16.7375 14.8319 17.5218L14.76 17.4861C15.2272 16.8444 15.2991 16.0245 15.2991 15.2402C15.2991 12.923 12.7475 12.0317 10.0521 11.0692C7.06924 9.99972 3.94262 8.89459 3.94262 5.75743C3.94262 4.33145 4.58951 2.79852 5.84734 2.08552L5.88328 2.15682C5.55984 2.83416 5.41608 3.58281 5.41608 4.33145C5.41608 6.89821 8.2552 7.93205 11.1302 9.00154C14.0772 10.071 16.9882 11.1405 16.9882 13.8142Z" fill="white"/>
</svg>
