<svg width="24" height="24" viewBox="0 0 24 24" fill="none" xmlns="http://www.w3.org/2000/svg">
<path fill-rule="evenodd" clip-rule="evenodd" d="M19.911 4.98418C20.256 5.32641 20.8166 5.28363 21.0754 4.89862C21.3341 4.59916 21.291 4.12859 20.9891 3.87191C18.1428 1.1768 15.5984 -0.192139 11.3721 0.0217586C6.93011 0.235656 3.00566 2.54575 3.26442 7.42261C3.48004 11.7433 7.70637 13.3262 11.4152 14.7379C14.2615 15.8074 16.7628 16.7485 16.8922 18.7592C17.0215 20.9837 14.7359 22.3099 12.7521 22.4382C9.00015 22.6521 6.80073 21.3259 4.34256 18.9731C4.04068 18.6736 3.5663 18.6736 3.26442 18.9303C2.91941 19.2297 2.91941 19.7431 3.22129 20.0853C5.98134 22.8232 8.82764 24.1922 12.9677 23.9783C17.1078 23.6788 22.1966 21.3687 21.9379 16.4918C21.7223 12.2567 17.6684 10.6738 14.0027 9.3049C10.9839 8.14986 8.18076 7.08037 8.05138 4.64194C7.96513 2.88798 10.0783 1.6046 11.5877 1.51904C15.2534 1.34792 17.5391 2.63131 19.911 4.98418ZM20.3858 16.5771C20.3858 18.4594 19.3508 20.085 17.7983 21.0261L17.712 20.9834C18.2726 20.2133 18.3589 19.2294 18.3589 18.2882C18.3589 15.5076 15.297 14.4381 12.0625 13.2831C8.48309 11.9997 4.73114 10.6735 4.73114 6.90891C4.73114 5.19773 5.50741 3.35822 7.01681 2.50263L7.05993 2.58819C6.6718 3.401 6.4993 4.29937 6.4993 5.19773C6.4993 8.27786 9.90624 9.51846 13.3563 10.8018C16.8926 12.0852 20.3858 13.3686 20.3858 16.5771Z" fill="#1D1D22"/>
</svg>
