<svg width="24" height="25" viewBox="0 0 24 25" fill="none" xmlns="http://www.w3.org/2000/svg">
<path d="M18.8695 0.72368C18.1692 0.85745 17.5554 0.959745 16.9495 1.09352C14.0538 1.73876 11.4177 2.9663 9.04131 4.72106C8.32525 5.24827 7.6564 5.89352 7.09771 6.59384C5.77574 8.25417 5.61049 10.0955 6.62558 11.9604C7.10558 12.8338 7.76656 13.6129 8.40394 14.4076C8.32525 14.3604 8.24656 14.3211 8.17574 14.266C7.29443 13.5893 6.52328 12.8181 5.90951 11.8817C4.87869 10.3001 4.78427 8.65548 5.58689 6.95581C6.39738 5.24827 7.73508 4.0286 9.30099 3.05286C11.8269 1.47909 14.5967 0.550565 17.5082 0.00761425C17.6734 -0.0238612 17.8938 0.0469585 18.0512 0.133516C18.3187 0.283024 18.5548 0.487614 18.8695 0.72368Z" fill="#1D1D22"/>
<path d="M4.54785 23.2837C5.05933 23.1893 5.47638 23.1184 5.89343 23.0398C9.20621 22.3866 12.1806 20.9939 14.8482 18.9401C15.218 18.6568 15.5642 18.3184 15.879 17.9722C17.7518 15.9421 17.9406 13.6365 16.3905 11.3388C16.0285 10.7958 15.5879 10.308 15.1865 9.78861C15.2101 9.78074 15.2495 9.75713 15.2652 9.77287C16.5793 10.7958 17.6967 11.9762 18.1924 13.6129C18.5859 14.8955 18.3105 16.1073 17.7203 17.2562C16.9098 18.8457 15.6272 20.0024 14.1479 20.9309C11.6062 22.5204 8.81277 23.4647 5.86982 23.9998C5.65736 24.0391 5.39769 23.866 5.17736 23.748C4.98064 23.6457 4.80752 23.4804 4.54785 23.2837Z" fill="#1D1D22"/>
<path d="M16.7762 12.9199C17.0673 14.0058 17.028 15.0366 16.3906 16.0045C14.9978 18.137 13.0463 19.6006 10.7959 20.6943C8.73421 21.7016 6.56241 22.3783 4.29618 22.7166C4.09946 22.7481 3.87126 22.6694 3.69028 22.575C3.46995 22.4648 3.28897 22.2839 3.10012 22.1265C3.06864 22.1107 3.06864 22.0635 3.0293 21.9848C3.73749 21.8117 4.43782 21.6622 5.12241 21.4812C7.78208 20.7966 10.3788 19.9153 12.6844 18.373C13.5027 17.8222 14.2739 17.1691 14.9742 16.4688C15.9342 15.5009 16.5952 14.3206 16.7762 12.9199Z" fill="#1D1D22"/>
<path d="M6.65736 11.1889C6.32686 10.0715 6.37408 9.00132 7.03506 7.9941C8.46719 5.80656 10.4895 4.33509 12.8029 3.22558C14.7859 2.28132 16.879 1.65181 19.0429 1.28985C19.2711 1.2505 19.5465 1.3528 19.7669 1.46296C19.9951 1.57312 20.1839 1.76985 20.4672 1.99017C20.2862 2.04526 20.1761 2.0846 20.0659 2.11607C17.6187 2.65116 15.2108 3.32788 12.9446 4.40591C11.1347 5.26361 9.44293 6.31017 8.14457 7.88394C7.34982 8.83607 6.75965 9.90623 6.65736 11.1889Z" fill="#1D1D22"/>
<path d="M7.61737 12.4019C7.16098 11.6937 7.13737 10.9619 7.45213 10.1987C7.93999 9.01046 8.75836 8.08981 9.74196 7.30292C12.5747 5.02095 15.8482 3.67538 19.3813 2.9121C19.877 2.80194 20.3885 2.73898 20.8921 2.6603C20.9551 2.65243 21.018 2.66816 21.1597 2.6839C20.9551 3.07735 20.8056 3.45505 20.5774 3.77767C20.4908 3.90358 20.239 3.93505 20.0502 3.9744C18.5787 4.34423 17.0757 4.61964 15.6436 5.09177C13.1649 5.90227 10.9223 7.16915 9.08098 9.05768C8.17606 9.9862 7.57803 11.0564 7.61737 12.4019Z" fill="#1D1D22"/>
<path d="M15.8082 11.5664C16.3276 12.432 16.2489 13.2189 15.8869 14.0136C15.2495 15.4143 14.1558 16.3979 12.944 17.2713C10.0876 19.333 6.87707 20.5526 3.43838 21.2136C3.1315 21.2766 2.81675 21.3159 2.50986 21.3631C2.46265 21.371 2.40756 21.3553 2.36035 21.3474C2.4233 20.5998 2.86396 20.1199 3.58789 19.9861C6.05084 19.5376 8.45871 18.9317 10.6384 17.6648C11.74 17.0274 12.8102 16.2877 13.7938 15.4772C14.9741 14.5094 15.8082 13.2818 15.8082 11.5664Z" fill="#1D1D22"/>
<path d="M14.9825 10.4023C15.3838 11.3073 15.3838 12.165 14.9667 12.9518C14.652 13.542 14.2507 14.1322 13.7549 14.5728C10.8671 17.1617 7.48346 18.704 3.65133 19.2784C3.58838 19.2863 3.52543 19.2941 3.45461 19.2941C3.431 19.2941 3.4074 19.2705 3.38379 19.2548C3.47035 18.6961 3.84018 18.2948 4.38313 18.1768C7.60149 17.4686 10.4894 16.0758 13.0861 14.0614C13.9753 13.3768 14.6284 12.4955 14.8802 11.3702C14.9353 11.0869 14.9431 10.78 14.9825 10.4023Z" fill="#1D1D22"/>
<path d="M8.4828 13.5809C8.08936 12.8412 8.07362 12.078 8.33329 11.3147C8.62444 10.457 9.19886 9.79599 9.87558 9.22157C12.6848 6.82944 15.9189 5.3501 19.5621 4.75993C19.7117 4.73633 19.869 4.7442 20.0264 4.73633C19.9477 5.28715 19.5779 5.71993 19.0979 5.82223C15.8795 6.52255 12.9838 7.8996 10.3871 9.91402C9.36411 10.7009 8.61657 11.7003 8.4828 13.0458C8.46706 13.2189 8.4828 13.3999 8.4828 13.5809Z" fill="#1D1D22"/>
</svg>
