<svg width="20" height="21" viewBox="0 0 20 21" fill="none" xmlns="http://www.w3.org/2000/svg">
<path d="M15.7248 0.603067C15.1411 0.714542 14.6297 0.799788 14.1248 0.911263C11.7116 1.44897 9.51492 2.47192 7.53459 3.93421C6.93787 4.37356 6.38049 4.91126 5.91492 5.49487C4.81328 6.87848 4.67558 8.4129 5.52148 9.967C5.92148 10.6949 6.4723 11.3441 7.00344 12.0063C6.93787 11.967 6.8723 11.9342 6.81328 11.8883C6.07885 11.3244 5.43623 10.6818 4.92476 9.90143C4.06574 8.58339 3.98705 7.2129 4.6559 5.79651C5.33131 4.37356 6.44607 3.35717 7.75099 2.54405C9.8559 1.23257 12.1641 0.458804 14.5903 0.00634521C14.728 -0.0198843 14.9116 0.0391321 15.0428 0.111263C15.2657 0.235853 15.4625 0.406345 15.7248 0.603067Z" fill="white"/>
<path d="M3.79004 19.4031C4.21627 19.3244 4.56381 19.2654 4.91135 19.1998C7.67201 18.6555 10.1507 17.4949 12.3736 15.7834C12.6818 15.5473 12.9704 15.2654 13.2327 14.9768C14.7933 13.285 14.9507 11.3637 13.6589 9.44898C13.3573 8.99652 12.99 8.58996 12.6556 8.15718C12.6753 8.15062 12.7081 8.13095 12.7212 8.14406C13.8163 8.99652 14.7474 9.98013 15.1605 11.3441C15.4884 12.4129 15.2589 13.4227 14.7671 14.3801C14.0917 15.7047 13.0228 16.6686 11.79 17.4424C9.67201 18.767 7.34414 19.5539 4.89168 19.9998C4.71463 20.0326 4.49824 19.8883 4.31463 19.79C4.15069 19.7047 4.00643 19.567 3.79004 19.4031Z" fill="white"/>
<path d="M13.9802 10.7666C14.2228 11.6715 14.19 12.5305 13.6588 13.3371C12.4982 15.1141 10.872 16.3338 8.99654 17.2453C7.27851 18.0846 5.46868 18.6486 3.58015 18.9305C3.41622 18.9568 3.22605 18.8912 3.07523 18.8125C2.89163 18.7207 2.74081 18.5699 2.58343 18.4387C2.5572 18.4256 2.5572 18.3863 2.52441 18.3207C3.11458 18.1764 3.69818 18.0518 4.26868 17.901C6.48507 17.3305 8.649 16.5961 10.5703 15.3109C11.2523 14.8518 11.8949 14.3076 12.4785 13.724C13.2785 12.9174 13.8293 11.9338 13.9802 10.7666Z" fill="white"/>
<path d="M5.5478 9.32372C5.27239 8.39257 5.31173 7.50077 5.86255 6.66143C7.056 4.83848 8.74124 3.61225 10.6691 2.68766C12.3216 1.90077 14.0658 1.37619 15.8691 1.07455C16.0593 1.04176 16.2888 1.12701 16.4724 1.21881C16.6626 1.31061 16.8199 1.47455 17.056 1.65815C16.9052 1.70405 16.8134 1.73684 16.7216 1.76307C14.6822 2.20897 12.6757 2.77291 10.7871 3.67127C9.27895 4.38602 7.86911 5.25815 6.78714 6.56962C6.12485 7.36307 5.63304 8.25487 5.5478 9.32372Z" fill="white"/>
<path d="M6.34765 10.3346C5.96732 9.74446 5.94765 9.13463 6.20994 8.49856C6.6165 7.5084 7.29847 6.74118 8.11814 6.08544C10.4788 4.1838 13.2067 3.06249 16.1509 2.42642C16.564 2.33462 16.9903 2.28216 17.4099 2.21659C17.4624 2.21003 17.5149 2.22315 17.6329 2.23626C17.4624 2.56413 17.3378 2.87888 17.1476 3.14774C17.0755 3.25265 16.8657 3.27888 16.7083 3.31167C15.4821 3.61987 14.2296 3.84938 13.0362 4.24282C10.9706 4.91823 9.10175 5.97397 7.56732 7.54774C6.81322 8.32151 6.31486 9.21331 6.34765 10.3346Z" fill="white"/>
<path d="M13.1734 9.63867C13.6061 10.36 13.5406 11.0157 13.2389 11.678C12.7078 12.8452 11.7963 13.6649 10.7865 14.3928C8.40614 16.1108 5.73073 17.1272 2.86516 17.678C2.60942 17.7305 2.34712 17.7633 2.09139 17.8026C2.05204 17.8092 2.00614 17.796 1.9668 17.7895C2.01926 17.1665 2.38647 16.7665 2.98975 16.6551C5.04221 16.2813 7.04876 15.7764 8.86516 14.7206C9.78319 14.1895 10.675 13.5731 11.4947 12.8977C12.4783 12.0911 13.1734 11.0682 13.1734 9.63867Z" fill="white"/>
<path d="M12.4859 8.66895C12.8203 9.42304 12.8203 10.1378 12.4728 10.7935C12.2105 11.2853 11.876 11.7771 11.4629 12.1443C9.05638 14.3017 6.23671 15.587 3.04326 16.0657C2.9908 16.0722 2.93835 16.0788 2.87933 16.0788C2.85966 16.0788 2.83998 16.0591 2.82031 16.046C2.89244 15.5804 3.20064 15.246 3.6531 15.1476C6.33507 14.5575 8.74162 13.3968 10.9056 11.7181C11.6465 11.1476 12.1908 10.4132 12.4006 9.4755C12.4465 9.23944 12.4531 8.9837 12.4859 8.66895Z" fill="white"/>
<path d="M7.06851 11.3177C6.74064 10.7014 6.72753 10.0653 6.94392 9.42922C7.18654 8.71447 7.66523 8.16365 8.22917 7.68496C10.5701 5.69152 13.2652 4.45874 16.3013 3.96694C16.4259 3.94727 16.557 3.95382 16.6882 3.94727C16.6226 4.40628 16.3144 4.76694 15.9144 4.85218C13.2324 5.43579 10.8193 6.58333 8.6554 8.26201C7.80294 8.91775 7.17999 9.75053 7.06851 10.8718C7.0554 11.0161 7.06851 11.1669 7.06851 11.3177Z" fill="white"/>
</svg>
