<svg width="20" height="20" viewBox="0 0 20 20" fill="none" xmlns="http://www.w3.org/2000/svg">
<g clip-path="url(#clip0)">
<path d="M3.27195 13.9589C3.39392 13.837 3.5593 13.7686 3.73173 13.7686H19.6414C19.9312 13.7686 20.0763 14.119 19.8713 14.3239L16.7275 17.4651C16.6056 17.587 16.4402 17.6555 16.2678 17.6555H0.358123C0.0682993 17.6555 -0.0767864 17.305 0.128232 17.1001L3.27195 13.9589Z" fill="white"/>
<path d="M3.27195 2.22403C3.39392 2.10215 3.5593 2.03369 3.73173 2.03369H19.6414C19.9312 2.03369 20.0763 2.38416 19.8713 2.58901L16.7275 5.73022C16.6056 5.8521 16.4402 5.92057 16.2678 5.92057H0.358123C0.0682993 5.92057 -0.0767864 5.5701 0.128232 5.36525L3.27195 2.22403Z" fill="white"/>
<path d="M16.7275 8.0541C16.6056 7.93219 16.4402 7.86377 16.2678 7.86377H0.358123C0.0682989 7.86377 -0.0767863 8.2142 0.128232 8.41906L3.27195 11.5603C3.39392 11.6822 3.5593 11.7506 3.73173 11.7506H19.6414C19.9312 11.7506 20.0763 11.4002 19.8713 11.1953L16.7275 8.0541Z" fill="white"/>
</g>
<defs>
<clipPath id="clip0">
<rect width="20" height="15.6892" fill="white" transform="translate(0 2)"/>
</clipPath>
</defs>
</svg>
