<svg width="24" height="24" viewBox="0 0 24 24" fill="none" xmlns="http://www.w3.org/2000/svg">
<path d="M12.2023 2.28231C12.4552 2.39052 12.4158 2.29999 13.5477 5.37336C13.6164 5.55993 13.8911 6.30309 14.1582 7.02481L14.6437 8.33704L14.8514 8.35444C14.9656 8.36404 15.7231 8.3961 16.5347 8.42571C17.3463 8.45533 18.3385 8.49372 18.7396 8.51103C19.1408 8.52836 19.759 8.55197 20.1135 8.56354C20.4679 8.57507 20.8145 8.59895 20.8837 8.61656C21.1612 8.68732 21.3435 8.96727 21.3001 9.25642C21.2813 9.38234 21.2456 9.44068 21.1023 9.57976C21.0062 9.67311 20.2101 10.3135 19.3333 11.0027C16.9203 12.8995 16.3331 13.3653 16.3122 13.3992C16.3016 13.4162 16.4454 13.9682 16.6317 14.6257C17.7394 18.5363 17.9667 19.3801 17.9506 19.5226C17.9172 19.8187 17.647 20.0316 17.3418 20.0023C17.191 19.9878 16.959 19.8411 14.6002 18.2685C13.1828 17.3237 12.0079 16.5506 11.9892 16.5506C11.9705 16.5506 10.7932 17.3253 9.37285 18.2721L6.79049 19.9936H6.57682C6.34758 19.9936 6.2415 19.9417 6.10961 19.7651C5.97589 19.586 5.99384 19.413 6.2338 18.5689C6.35578 18.1398 6.66183 17.056 6.91387 16.1605C7.1659 15.2649 7.44298 14.282 7.52958 13.9762L7.68701 13.4202L7.60777 13.3446C7.56415 13.303 6.48065 12.4433 5.19993 11.4342C3.91922 10.4251 2.83922 9.55853 2.79994 9.50859C2.61991 9.27973 2.63827 8.96778 2.8439 8.76215C2.99322 8.61282 3.11985 8.58823 3.86494 8.56374C4.21943 8.5521 4.86055 8.52809 5.28966 8.51035C5.71877 8.49261 6.66518 8.45522 7.39281 8.42724C8.949 8.36737 9.31247 8.34973 9.32889 8.33331C9.34053 8.32167 9.66363 7.45222 10.9079 4.08434C11.3252 2.95491 11.5096 2.49704 11.5757 2.42652C11.7463 2.24446 11.9853 2.18947 12.2023 2.28231Z" fill="black"/>
<path fill-rule="evenodd" clip-rule="evenodd" d="M12.8542 0.0323524C15.3047 0.21458 17.5965 1.11703 19.5368 2.66387C20.0161 3.04596 20.9483 3.97816 21.3304 4.45748C21.889 5.15813 22.3276 5.84644 22.7357 6.66273C23.8126 8.8169 24.2124 11.2692 23.8748 13.6503C23.4237 16.8322 21.7551 19.6646 19.1929 21.5975C16.7006 23.4776 13.4547 24.3187 10.344 23.8905C9.09256 23.7183 7.91856 23.3626 6.77672 22.8097C5.46113 22.1727 4.53677 21.5145 3.49004 20.4694C2.88851 19.8688 2.50295 19.4047 2.05047 18.7363C0.969893 17.1402 0.325414 15.4159 0.0607902 13.4128C-0.0105472 12.8728 -0.0219449 11.2877 0.041794 10.7669C0.392952 7.89799 1.5489 5.48195 3.50751 3.52337C5.97498 1.05587 9.40253 -0.2243 12.8542 0.0323524ZM5.00132 3.252C6.76349 1.85561 8.928 1.00937 11.192 0.831684C11.5649 0.80241 13.0059 0.843896 13.38 0.894643C14.1918 1.00482 14.9116 1.1729 15.6241 1.41877C19.4093 2.72489 22.2284 5.96404 22.9775 9.868C23.1413 10.7213 23.1647 10.996 23.1628 12.039C23.1607 13.1236 23.1183 13.5486 22.9267 14.4041C21.8451 19.2327 17.822 22.7559 12.9185 23.1685C11.8999 23.2542 10.5917 23.1646 9.58076 22.9399C5.23504 21.9741 1.85657 18.5157 1.00293 14.1591C0.8492 13.3744 0.814667 12.9756 0.815006 11.9881C0.815346 11.002 0.843026 10.6869 1.00137 9.868C1.33984 8.11767 2.11835 6.42779 3.23614 5.01719C3.59896 4.55928 4.54341 3.61483 5.00132 3.252Z" fill="black"/>
</svg>
