<svg width="20" height="20" viewBox="0 0 20 20" fill="none" xmlns="http://www.w3.org/2000/svg">
<path d="M10.1686 1.90193C10.3793 1.9921 10.3465 1.91666 11.2897 4.4778C11.347 4.63328 11.5759 5.25258 11.7985 5.85401L12.2031 6.94753L12.3762 6.96204C12.4714 6.97003 13.1026 6.99675 13.7789 7.02143C14.4552 7.0461 15.2821 7.0781 15.6164 7.09252C15.9506 7.10697 16.4658 7.12664 16.7612 7.13628C17.0566 7.14589 17.3454 7.16579 17.403 7.18046C17.6344 7.23943 17.7862 7.47273 17.7501 7.71368C17.7344 7.81862 17.7046 7.86724 17.5853 7.98314C17.5052 8.06093 16.8418 8.59455 16.1111 9.16896C14.1003 10.7496 13.6109 11.1377 13.5935 11.166C13.5847 11.1802 13.7045 11.6401 13.8597 12.1881C14.7828 15.4469 14.9722 16.1501 14.9588 16.2689C14.931 16.5156 14.7058 16.693 14.4515 16.6685C14.3259 16.6565 14.1325 16.5342 12.1668 15.2238C10.9857 14.4364 10.0066 13.7921 9.991 13.7921C9.97543 13.7921 8.9943 14.4377 7.81071 15.2268L5.65874 16.6614H5.48068C5.28965 16.6614 5.20125 16.6181 5.09135 16.4709C4.97991 16.3217 4.99487 16.1775 5.19483 15.4741C5.29649 15.1165 5.55152 14.2133 5.76155 13.4671C5.97159 12.7208 6.20248 11.9017 6.27465 11.6469L6.40584 11.1835L6.33981 11.1205C6.30345 11.0858 5.40054 10.3694 4.33328 9.5285C3.26602 8.68755 2.36602 7.96544 2.33328 7.92383C2.18326 7.7331 2.19856 7.47315 2.36992 7.30179C2.49435 7.17735 2.59988 7.15686 3.22079 7.13645C3.51619 7.12675 4.05046 7.10674 4.40805 7.09196C4.76564 7.07717 5.55432 7.04602 6.16067 7.0227C7.4575 6.97281 7.76039 6.95811 7.77407 6.94442C7.78377 6.93473 8.05302 6.21019 9.0899 3.40362C9.43762 2.46243 9.59132 2.08087 9.64639 2.0221C9.78855 1.87038 9.98775 1.82456 10.1686 1.90193Z" fill="white"/>
<path fill-rule="evenodd" clip-rule="evenodd" d="M10.7118 0.0269603C12.7539 0.178817 14.6637 0.930862 16.2807 2.21989C16.6801 2.5383 17.4569 3.31514 17.7753 3.71457C18.2408 4.29844 18.6063 4.87203 18.9464 5.55228C19.8438 7.34741 20.177 9.39097 19.8957 11.3752C19.5198 14.0268 18.1293 16.3872 15.9941 17.9979C13.9172 19.5646 11.2122 20.2656 8.62 19.9088C7.57713 19.7652 6.5988 19.4688 5.64727 19.0081C4.55094 18.4773 3.78064 17.9287 2.90837 17.0579C2.40709 16.5574 2.08579 16.1705 1.70873 15.6136C0.808244 14.2835 0.271178 12.8466 0.0506585 11.1773C-0.00878936 10.7273 -0.0182874 9.40638 0.0348284 8.97244C0.32746 6.58166 1.29075 4.56829 2.92293 2.93615C4.97915 0.879894 7.83544 -0.186916 10.7118 0.0269603ZM4.16777 2.71C5.63624 1.54634 7.44 0.841139 9.3267 0.69307C9.63742 0.668675 10.8383 0.703247 11.15 0.745536C11.8265 0.837351 12.4263 0.977419 13.0201 1.18231C16.1744 2.27074 18.5237 4.97004 19.148 8.22333C19.2844 8.93441 19.3039 9.16333 19.3023 10.0325C19.3006 10.9363 19.2652 11.2905 19.1055 12.0034C18.2043 16.0273 14.8517 18.9632 10.7654 19.3071C9.91654 19.3785 8.82644 19.3039 7.98397 19.1166C4.36254 18.3118 1.54714 15.4297 0.835777 11.7992C0.707666 11.1453 0.678889 10.813 0.679172 9.99009C0.679455 9.16831 0.702521 8.90578 0.834477 8.22333C1.11654 6.76472 1.76529 5.35649 2.69678 4.18099C2.99914 3.7994 3.78618 3.01236 4.16777 2.71Z" fill="white"/>
</svg>
