<svg width="24" height="24" viewBox="0 0 24 24" fill="none" xmlns="http://www.w3.org/2000/svg">
<path fill-rule="evenodd" clip-rule="evenodd" d="M12.8268 1.09755C13.6184 1.26524 14.4005 1.74391 15.1379 2.51206C15.4742 2.86238 15.7892 3.22326 15.8378 3.31415C15.9418 3.50843 15.9528 3.50491 14.8277 3.63983C14.419 3.68887 13.6084 3.85171 13.0263 4.00173L11.968 4.27446L11.2665 4.0711C10.8807 3.95926 10.2415 3.81034 9.84608 3.74026C9.03421 3.59627 8.88341 3.6428 8.88341 4.03739C8.88341 4.3045 8.99761 4.37481 9.63466 4.50011C10.5683 4.68368 10.5213 4.80601 9.27261 5.44259C8.75037 5.70884 7.8861 6.21856 7.35182 6.5753C6.81762 6.93203 6.38055 7.17817 6.38055 7.12225C6.38055 6.87525 6.82387 5.71525 7.23638 4.88274C8.08727 3.16554 9.09459 2.01195 10.23 1.45436C11.1591 0.998139 11.8861 0.898259 12.8268 1.09755ZM16.4611 4.3928C16.7486 4.59412 17.7615 6.98897 17.6193 7.13117C17.5955 7.15494 17.2481 6.94627 16.8471 6.66743C16.4463 6.38868 15.8198 5.99596 15.4549 5.79479C14.7436 5.40255 14.6574 5.3959 13.9183 5.67685C13.7017 5.75921 13.7039 5.76179 14.2836 6.07668C16.4089 7.23136 17.5393 8.0566 18.9731 9.49989C20.017 10.5508 20.3359 10.9971 20.4695 11.5943C20.589 12.1278 20.4784 12.753 20.1866 13.1939C19.9748 13.5139 19.9426 13.7294 20.0708 13.969C20.2465 14.2971 20.611 14.0499 21.1642 13.2277L21.4227 12.8435L21.639 13.4069C21.9433 14.1991 22.0234 14.6402 22.0234 15.5237C22.0234 16.8057 21.6834 17.6113 20.802 18.4167C20.5665 18.632 20.1202 18.9324 19.8104 19.0844C18.9633 19.4998 17.487 19.8305 17.487 19.605C17.487 19.5673 17.5792 19.3297 17.6919 19.077C18.586 17.072 19.0583 14.7932 19.0725 12.4171C19.0798 11.1776 19.0636 10.9704 18.95 10.8569C18.8472 10.7541 18.7726 10.7422 18.6028 10.8018L18.3865 10.8778L18.2939 12.5186C18.1844 14.4599 18.0898 15.2365 17.9338 15.4747C17.7809 15.7081 16.405 16.7191 15.552 17.2249C14.6888 17.7366 14.4366 17.9321 14.4366 18.0894C14.4366 18.2481 14.662 18.5003 14.8039 18.5003C14.9761 18.5003 15.5027 18.2097 16.4563 17.5887C16.9433 17.2714 17.3745 17.0321 17.4144 17.0568C17.5359 17.1318 17.4975 17.3665 17.2592 18.0061C16.9034 18.9609 16.7296 19.3102 16.5064 19.5192C16.3175 19.6961 16.2461 19.7109 15.6706 19.693C14.8552 19.6678 13.3409 19.3534 12.1416 18.9605C11.0663 18.6082 9.3441 17.7868 8.29696 17.1267C7.37153 16.5435 6.1664 15.6344 6.06339 15.4419C5.94287 15.2167 5.77189 13.7062 5.7101 12.3213C5.6803 11.6545 5.62109 11.065 5.57854 11.0112C5.44691 10.8451 5.14273 10.8982 5.00281 11.1117C4.88987 11.2842 4.87962 11.4653 4.92459 12.5C4.95306 13.1545 4.99749 13.8836 5.02338 14.1202L5.07046 14.5504L4.85623 14.3549C4.22074 13.7749 3.17376 12.308 3.17376 11.9977C3.17376 11.4783 5.00406 9.40118 6.6543 8.04768C8.56516 6.4805 12.0407 4.86733 14.3584 4.4718C15.7538 4.23363 16.2094 4.21651 16.4611 4.3928ZM6.53698 4.41189C6.53698 4.44951 6.41919 4.73992 6.2752 5.05715C5.97525 5.71799 5.67459 6.60994 5.45027 7.50425L5.29502 8.12308L4.50873 8.90116C4.07628 9.32907 3.4691 10.0119 3.15953 10.4184C2.60467 11.147 2.59513 11.1549 2.49643 10.9666C2.44136 10.8614 2.30723 10.4682 2.19843 10.0927C2.04153 9.5512 2.0007 9.23771 2.00141 8.57782C2.00266 7.31208 2.29721 6.52915 3.05058 5.78869C3.61411 5.23478 4.54611 4.71997 5.38176 4.50105C5.98901 4.34196 6.53698 4.29965 6.53698 4.41189ZM18.8137 4.55095C20.4869 5.03009 21.6673 6.18438 21.9492 7.61719C22.1247 8.50899 21.949 9.92178 21.5506 10.8225L21.3962 11.1714L21.0705 10.71C20.6539 10.1197 19.8551 9.20666 19.2273 8.603C18.7523 8.14631 18.7294 8.10603 18.5387 7.39068C18.2902 6.45805 18.0249 5.68404 17.723 5.01116C17.5932 4.72193 17.487 4.44857 17.487 4.40359C17.487 4.29957 18.2201 4.38099 18.8137 4.55095ZM11.5478 8.0092C11.3608 8.39065 11.2324 8.74262 11.2625 8.79134C11.2966 8.84648 11.5791 8.87988 12.012 8.87988C12.4449 8.87988 12.7273 8.84648 12.7614 8.79134C12.8436 8.65838 12.1617 7.31559 12.012 7.31559C11.9334 7.31559 11.7629 7.57026 11.5478 8.0092ZM8.64877 8.79721C8.64877 9.00878 9.03961 10.0673 9.1696 10.2078C9.26252 10.3082 9.34558 10.2543 9.80173 9.7982C10.424 9.17592 10.4186 9.16059 9.46979 8.85008C8.72065 8.60496 8.64877 8.60034 8.64877 8.79721ZM14.4926 8.87261C14.1577 8.99142 13.842 9.1304 13.791 9.1814C13.7195 9.25289 13.8184 9.39422 14.2228 9.79875C14.6797 10.2556 14.7615 10.3084 14.8558 10.2078C15.0027 10.0511 15.393 8.88254 15.3424 8.75075C15.2878 8.60864 15.2013 8.62107 14.4926 8.87261ZM11.152 9.79843C10.6614 9.97152 9.96723 10.6799 9.79665 11.1816C9.48183 12.1073 9.71859 13.0848 10.4127 13.7246C10.902 14.1756 11.3569 14.3549 12.012 14.3549C12.6671 14.3549 13.122 14.1756 13.6113 13.7246C14.3081 13.0823 14.5435 12.1048 14.2223 11.1872C14.037 10.6577 13.3628 9.98349 12.8332 9.79812C12.3554 9.6309 11.6265 9.63098 11.152 9.79843ZM7.9644 11.5602C7.56832 11.7607 7.31913 11.9343 7.31913 12.0098C7.31913 12.1788 8.69476 12.8541 8.80809 12.7408C8.85643 12.6924 8.88052 12.3742 8.86707 11.9631C8.84916 11.4161 8.8192 11.2636 8.72699 11.2504C8.66246 11.2412 8.31925 11.3806 7.9644 11.5602ZM15.1889 11.3477C15.1623 11.417 15.1406 11.7536 15.1406 12.0955C15.1406 12.5984 15.165 12.7267 15.2682 12.7663C15.4372 12.8311 16.7049 12.2016 16.7049 12.0529C16.7049 11.9906 16.432 11.7965 16.0987 11.6215C15.3274 11.2169 15.2483 11.193 15.1889 11.3477ZM3.14044 13.5532C3.69436 14.2911 5.03636 15.6833 5.83305 16.3462C6.82481 17.1715 8.29125 18.0997 9.68511 18.7843C10.3977 19.1343 10.4717 19.306 9.96825 19.4416C9.41832 19.5896 8.78987 19.6725 8.21367 19.673C7.71012 19.6734 7.64403 19.6545 7.46648 19.4584C7.35933 19.3401 7.1864 19.0545 7.08221 18.8237C6.97811 18.5929 6.82293 18.3781 6.73737 18.3465C6.51258 18.2633 6.29866 18.3405 6.22733 18.5306C6.17102 18.6808 6.20449 18.8026 6.51453 19.5757C6.5757 19.7283 5.95554 19.6974 5.29799 19.5152C3.61716 19.0495 2.39772 17.9277 2.07774 16.553C1.9149 15.8536 2.01541 14.6171 2.30879 13.7096C2.44441 13.2902 2.58465 12.947 2.62047 12.947C2.65622 12.947 2.89024 13.2198 3.14044 13.5532ZM9.07707 13.9052C8.90031 14.3842 8.64877 15.1847 8.64877 15.268C8.64877 15.3251 8.72792 15.3702 8.82475 15.3683C9.08896 15.3632 10.2387 14.9428 10.2735 14.8384C10.2902 14.7884 10.1021 14.536 9.85546 14.2775C9.42528 13.8265 9.15396 13.6967 9.07707 13.9052ZM14.2048 14.313C13.8937 14.6268 13.7286 14.8492 13.7749 14.8919C13.8923 15.0003 14.9899 15.3717 15.193 15.3717C15.3312 15.3717 15.3741 15.3291 15.3707 15.1957C15.3632 14.9098 14.9351 13.8484 14.8179 13.8249C14.7584 13.813 14.4826 14.0326 14.2048 14.313ZM11.2625 15.2256C11.1804 15.3585 11.8623 16.7013 12.012 16.7013C12.0908 16.7013 12.2631 16.4425 12.4832 15.9936C12.7751 15.398 12.8117 15.2742 12.7144 15.2126C12.5465 15.1065 11.3294 15.1174 11.2625 15.2256ZM13.107 20.0595C13.6017 20.1874 14.4288 20.3496 14.945 20.4199C15.4612 20.4901 15.8967 20.5605 15.9126 20.5762C15.9669 20.6299 15.4652 21.2067 14.891 21.7508C12.9351 23.6038 10.4072 23.379 8.5345 21.1852C8.29626 20.9061 8.10127 20.651 8.10127 20.6182C8.10127 20.5855 8.55163 20.4971 9.1021 20.4217C9.65258 20.3463 10.5237 20.1682 11.0379 20.0258C11.5522 19.8836 12.0257 19.7805 12.0902 19.797C12.1547 19.8134 12.6123 19.9315 13.107 20.0595Z" fill="#1D1D22"/>
</svg>
