<svg width="20" height="20" viewBox="0 0 20 20" fill="none" xmlns="http://www.w3.org/2000/svg">
<path fill-rule="evenodd" clip-rule="evenodd" d="M10.6893 0.914299C11.349 1.05404 12.0007 1.45294 12.6152 2.09305C12.8955 2.38499 13.158 2.68572 13.1985 2.76146C13.2852 2.92337 13.2943 2.92043 12.3568 3.03287C12.0162 3.07373 11.3407 3.20944 10.8556 3.33445L9.97362 3.56173L9.38904 3.39226C9.06757 3.29906 8.53493 3.17496 8.20539 3.11656C7.52884 2.99656 7.40317 3.03534 7.40317 3.36417C7.40317 3.58675 7.49833 3.64535 8.02921 3.74977C8.80725 3.90274 8.76808 4.00468 7.7275 4.53517C7.2923 4.75704 6.57208 5.18181 6.12684 5.47909C5.68167 5.77637 5.31745 5.98148 5.31745 5.93488C5.31745 5.72905 5.68689 4.76238 6.03064 4.06862C6.73972 2.63762 7.57915 1.6763 8.52535 1.21164C9.29954 0.831457 9.90538 0.748224 10.6893 0.914299ZM13.7179 3.66034C13.9575 3.82811 14.8015 5.82382 14.683 5.94231C14.6632 5.96213 14.3737 5.78823 14.0396 5.55587C13.7056 5.32357 13.1835 4.99631 12.8794 4.82867C12.2866 4.5018 12.2148 4.49626 11.5989 4.73038C11.4184 4.79901 11.4203 4.80116 11.9033 5.06357C13.6744 6.02581 14.6164 6.71351 15.8112 7.91625C16.6812 8.79199 16.9469 9.1639 17.0583 9.6616C17.1578 10.1062 17.0656 10.6272 16.8225 10.9946C16.646 11.2612 16.6192 11.4408 16.726 11.6405C16.8724 11.9139 17.1762 11.708 17.6371 11.0227L17.8525 10.7026L18.0328 11.1721C18.2864 11.8322 18.3532 12.1999 18.3532 12.9361C18.3532 14.0044 18.0698 14.6757 17.3354 15.3469C17.1391 15.5263 16.7672 15.7767 16.509 15.9034C15.8031 16.2495 14.5728 16.5251 14.5728 16.3371C14.5728 16.3058 14.6497 16.1078 14.7436 15.8972C15.4886 14.2263 15.8823 12.3273 15.8941 10.3473C15.9002 9.31433 15.8866 9.14167 15.792 9.0471C15.7063 8.96145 15.6442 8.95154 15.5027 9.00121L15.3224 9.0645L15.2453 10.4318C15.154 12.0496 15.0752 12.6968 14.9451 12.8952C14.8177 13.0897 13.6711 13.9322 12.9603 14.3537C12.241 14.7802 12.0309 14.9431 12.0309 15.0742C12.0309 15.2064 12.2186 15.4166 12.3369 15.4166C12.4804 15.4166 12.9192 15.1744 13.7139 14.6569C14.1198 14.3925 14.4791 14.1931 14.5123 14.2137C14.6136 14.2762 14.5816 14.4717 14.383 15.0048C14.0865 15.8004 13.9416 16.0915 13.7557 16.2656C13.5982 16.4131 13.5388 16.4255 13.0592 16.4105C12.3797 16.3895 11.1177 16.1275 10.1183 15.8001C9.22224 15.5065 7.78707 14.822 6.91446 14.272C6.14327 13.7859 5.13899 13.0283 5.05315 12.8679C4.95271 12.6803 4.81023 11.4215 4.75874 10.2674C4.73391 9.71179 4.68457 9.22054 4.64911 9.17569C4.53942 9.03726 4.28594 9.08151 4.16933 9.25945C4.07521 9.40317 4.06667 9.55412 4.10415 10.4164C4.12788 10.9618 4.1649 11.5694 4.18647 11.7665L4.22571 12.125L4.04719 11.9621C3.51761 11.4787 2.64513 10.2564 2.64513 9.99773C2.64513 9.56494 4.17037 7.83399 5.54558 6.70607C7.13796 5.40009 10.0342 4.05578 11.9657 3.72617C13.1285 3.5277 13.5082 3.51343 13.7179 3.66034ZM5.44781 3.67625C5.44781 3.7076 5.34965 3.9496 5.22966 4.21397C4.9797 4.76466 4.72915 5.50796 4.54222 6.25321L4.41284 6.76891L3.7576 7.41731C3.39722 7.7739 2.89124 8.34291 2.63327 8.68171C2.17089 9.28884 2.16294 9.29543 2.08068 9.13848C2.03479 9.05088 1.92301 8.72316 1.83235 8.41024C1.7016 7.959 1.66758 7.69777 1.66817 7.14786C1.66921 6.09307 1.91467 5.44063 2.54247 4.82358C3.01208 4.36199 3.78875 3.93298 4.48512 3.75055C4.99117 3.61798 5.44781 3.58271 5.44781 3.67625ZM15.6784 3.79213C17.0728 4.19142 18.0564 5.15332 18.2913 6.34733C18.4376 7.0905 18.2911 8.26782 17.9591 9.01842L17.8305 9.30918L17.5591 8.92469C17.2119 8.43279 16.5462 7.67189 16.0231 7.16884C15.6272 6.78827 15.6082 6.7547 15.4493 6.15857C15.2421 5.38138 15.0211 4.73638 14.7695 4.17564C14.6613 3.93461 14.5728 3.70681 14.5728 3.66934C14.5728 3.58265 15.1837 3.6505 15.6784 3.79213ZM9.62348 6.67401C9.46764 6.99188 9.36068 7.28519 9.38578 7.32579C9.41419 7.37174 9.64956 7.39958 10.0103 7.39958C10.3711 7.39958 10.6064 7.37174 10.6349 7.32579C10.7033 7.21499 10.1351 6.096 10.0103 6.096C9.94481 6.096 9.80272 6.30822 9.62348 6.67401ZM7.20764 7.33068C7.20764 7.50699 7.53333 8.38912 7.64166 8.50618C7.71909 8.5898 7.78831 8.5449 8.16843 8.16484C8.687 7.64628 8.6825 7.6335 7.89182 7.37474C7.26753 7.17047 7.20764 7.16663 7.20764 7.33068ZM12.0775 7.39351C11.7984 7.49252 11.5353 7.60834 11.4928 7.65084C11.4332 7.71041 11.5156 7.82819 11.8527 8.1653C12.2334 8.546 12.3015 8.59 12.3802 8.50618C12.5026 8.37563 12.8278 7.40179 12.7856 7.29197C12.7402 7.17354 12.668 7.1839 12.0775 7.39351ZM9.29368 8.16503C8.88481 8.30928 8.30635 8.8996 8.1642 9.31765C7.90185 10.0891 8.09915 10.9037 8.67755 11.4368C9.0853 11.8127 9.46438 11.9621 10.0103 11.9621C10.5563 11.9621 10.9353 11.8127 11.3431 11.4368C11.9238 10.9016 12.1199 10.087 11.8523 9.32235C11.6978 8.88109 11.136 8.31925 10.6947 8.16477C10.2965 8.02542 9.68905 8.02549 9.29368 8.16503ZM6.63732 9.63318C6.30726 9.80024 6.0996 9.94493 6.0996 10.0078C6.0996 10.1487 7.24596 10.7114 7.3404 10.617C7.38069 10.5767 7.40076 10.3115 7.38955 9.96892C7.37462 9.51306 7.34966 9.38603 7.27281 9.37501C7.21904 9.36732 6.93304 9.48347 6.63732 9.63318ZM12.6577 9.45609C12.6356 9.51384 12.6175 9.79431 12.6175 10.0793C12.6175 10.4983 12.6378 10.6053 12.7238 10.6382C12.8647 10.6923 13.921 10.1677 13.921 10.0437C13.921 9.99186 13.6937 9.83009 13.4159 9.68428C12.7732 9.34705 12.7072 9.32717 12.6577 9.45609ZM2.61736 11.294C3.07896 11.909 4.19729 13.0691 4.8612 13.6215C5.68767 14.3093 6.9097 15.0828 8.07125 15.6533C8.6651 15.945 8.72675 16.088 8.3072 16.201C7.84893 16.3244 7.32522 16.3934 6.84505 16.3938C6.42543 16.3942 6.37035 16.3784 6.2224 16.215C6.1331 16.1164 5.98899 15.8784 5.90217 15.6861C5.81542 15.4937 5.6861 15.3147 5.6148 15.2884C5.42748 15.2191 5.24921 15.2835 5.18977 15.4418C5.14284 15.567 5.17074 15.6685 5.4291 16.3128C5.48007 16.4399 4.96327 16.4142 4.41532 16.2624C3.01463 15.8742 1.99843 14.9394 1.73178 13.7939C1.59608 13.211 1.67983 12.1806 1.92432 11.4244C2.03734 11.0748 2.1542 10.7889 2.18405 10.7889C2.21384 10.7889 2.40886 11.0162 2.61736 11.294ZM7.56455 11.5873C7.41725 11.9865 7.20764 12.6536 7.20764 12.723C7.20764 12.7706 7.2736 12.8082 7.35429 12.8066C7.57446 12.8024 8.53259 12.452 8.56159 12.365C8.57547 12.3233 8.41872 12.113 8.21321 11.8976C7.85473 11.5217 7.62862 11.4136 7.56455 11.5873ZM11.8377 11.9271C11.5784 12.1887 11.4409 12.374 11.4794 12.4096C11.5772 12.4999 12.4919 12.8094 12.6611 12.8094C12.7763 12.8094 12.8121 12.7739 12.8092 12.6628C12.803 12.4245 12.4462 11.54 12.3485 11.5204C12.299 11.5105 12.0692 11.6935 11.8377 11.9271ZM9.38578 12.6877C9.31734 12.7985 9.88557 13.9174 10.0103 13.9174C10.076 13.9174 10.2196 13.7018 10.403 13.3276C10.6462 12.8313 10.6768 12.7282 10.5956 12.6768C10.4557 12.5885 9.4415 12.5975 9.38578 12.6877ZM10.9228 16.7159C11.3351 16.8225 12.0243 16.9577 12.4545 17.0162C12.8847 17.0748 13.2475 17.1334 13.2608 17.1465C13.3061 17.1912 12.888 17.6719 12.4095 18.1253C10.7796 19.6695 8.67298 19.4821 7.11241 17.654C6.91388 17.4214 6.75139 17.2088 6.75139 17.1815C6.75139 17.1543 7.12668 17.0806 7.58541 17.0177C8.04414 16.9549 8.77003 16.8065 9.19858 16.6879C9.62713 16.5693 10.0217 16.4835 10.0755 16.4972C10.1293 16.5108 10.5106 16.6093 10.9228 16.7159Z" fill="white"/>
</svg>
