<svg width="20" height="20" viewBox="0 0 20 20" fill="none" xmlns="http://www.w3.org/2000/svg">
<path fill-rule="evenodd" clip-rule="evenodd" d="M10 0C15.522 0 20 4.478 20 10C20 15.522 15.522 20 10 20C4.478 20 0 15.522 0 10C0 4.478 4.478 0 10 0ZM12.7202 9.4L12.7235 9.39889C13.0698 9.28283 13.6263 9.09625 13.6602 7.92C13.753 8.06208 13.8843 8.2141 14.0334 8.38676L14.0336 8.38698L14.0336 8.38702C14.7431 9.20843 15.8558 10.4966 15.1402 13.4C14.7882 14.77 13.4762 15.436 12.2402 15.94C11.4682 16.268 10.6802 16.8159 10.3602 17.64C10.3602 17.64 4.5182 16.902 4.7002 11.1C4.79201 9.20727 5.94113 8.05001 7.07843 6.90465L7.07847 6.90461C7.74981 6.22853 8.41702 5.55659 8.8602 4.74C9.4962 3.352 9.2802 1.96 9.2802 1.96C9.2802 1.96 13.0002 4.274 11.3202 7.84C10.7742 9.1 12.0782 9.526 12.7202 9.4ZM6.97998 12.38V10.44H13.04V12.38H10.98V14.44H9.03998V12.38H6.97998Z" fill="white"/>
</svg>
