<svg width="20" height="20" viewBox="0 0 20 20" fill="none" xmlns="http://www.w3.org/2000/svg">
<path d="M0.833008 2.17412C0.833008 1.59751 1.06207 1.04451 1.46979 0.636785C1.87752 0.229059 2.43052 0 3.00713 0H16.876C17.4526 0 18.0056 0.229059 18.4134 0.636785C18.8211 1.04451 19.0501 1.59751 19.0501 2.17412C19.0501 2.75073 18.8211 3.30373 18.4134 3.71146C18.0056 4.11919 17.4526 4.34824 16.876 4.34824H12.5441V10.8763C12.5441 10.9375 12.4805 10.9758 12.4234 10.9546C12.2117 10.8773 11.9844 10.8523 11.7609 10.8817C11.5373 10.911 11.3242 10.9939 11.1395 11.1232C10.9549 11.2525 10.8041 11.4244 10.7001 11.6244C10.5961 11.8244 10.5418 12.0465 10.542 12.2719V12.5124C10.542 12.9494 10.3789 13.4784 9.94198 13.4784C9.38928 13.4784 9.37053 12.7121 9.58737 12.2035C9.69991 11.9393 9.74528 11.6514 9.71944 11.3654C9.69359 11.0795 9.59733 10.8044 9.43926 10.5647C9.28118 10.325 9.06621 10.1281 8.81354 9.99177C8.56086 9.8554 8.27835 9.78373 7.99122 9.78314C7.67167 9.78314 7.33907 9.56141 7.33907 9.24267V4.34824H3.00795C2.72237 4.34835 2.43957 4.29219 2.17569 4.18298C1.91182 4.07377 1.67205 3.91364 1.47008 3.71175C1.26811 3.50985 1.10789 3.27014 0.998582 3.00631C0.889271 2.74248 0.833008 2.4597 0.833008 2.17412Z" fill="white"/>
<path d="M12.5442 12.391C12.5442 12.5638 12.4756 12.7296 12.3535 12.8518C12.2314 12.9741 12.0657 13.0429 11.8929 13.0431C11.7199 13.0431 11.554 12.9744 11.4317 12.8521C11.3094 12.7298 11.2407 12.564 11.2407 12.391C11.2407 12.218 11.3094 12.0521 11.4317 11.9298C11.554 11.8075 11.7199 11.7388 11.8929 11.7388C12.0657 11.7391 12.2314 11.8079 12.3535 11.9301C12.4756 12.0524 12.5442 12.2182 12.5442 12.391ZM11.645 15.7072C11.404 15.7072 11.1728 15.6114 11.0023 15.441C10.8319 15.2705 10.7361 15.0393 10.7361 14.7983C10.7361 14.5572 10.8319 14.326 11.0023 14.1555C11.1728 13.9851 11.404 13.8893 11.645 13.8893C11.8861 13.8893 12.1173 13.9851 12.2878 14.1555C12.4582 14.326 12.554 14.5572 12.554 14.7983C12.554 15.0393 12.4582 15.2705 12.2878 15.441C12.1173 15.6114 11.8861 15.7072 11.645 15.7072ZM11.9165 18.0704C11.7479 18.0704 11.5861 18.0035 11.4669 17.8842C11.3476 17.765 11.2807 17.6032 11.2807 17.4346C11.2807 17.266 11.3476 17.1042 11.4669 16.985C11.5861 16.8657 11.7479 16.7987 11.9165 16.7987C12.0851 16.7987 12.2469 16.8657 12.3661 16.985C12.4854 17.1042 12.5524 17.266 12.5524 17.4346C12.5524 17.6032 12.4854 17.765 12.3661 17.8842C12.2469 18.0035 12.0851 18.0704 11.9165 18.0704V18.0704ZM10.0676 17.1615C10.2458 17.1615 10.4166 17.0907 10.5426 16.9648C10.6686 16.8388 10.7394 16.6679 10.7394 16.4898C10.7394 16.3116 10.6686 16.1408 10.5426 16.0148C10.4166 15.8888 10.2458 15.8181 10.0676 15.8181C9.88949 15.8181 9.71864 15.8888 9.59266 16.0148C9.46669 16.1408 9.39592 16.3116 9.39592 16.4898C9.39592 16.6679 9.46669 16.8388 9.59266 16.9648C9.71864 17.0907 9.88949 17.1615 10.0676 17.1615ZM8.74377 18.9998C8.74377 19.5508 9.18968 20 9.74075 20C10.0059 20 10.2602 19.8947 10.4477 19.7072C10.6352 19.5197 10.7406 19.2653 10.7406 19.0002C10.7406 18.735 10.6352 18.4807 10.4477 18.2932C10.2602 18.1057 10.0059 18.0003 9.74075 18.0003C9.19049 18.0003 8.74377 18.4487 8.74377 19.0006V18.9998ZM7.94732 16.3634C7.60983 16.3634 7.28616 16.2294 7.04752 15.9907C6.80887 15.7521 6.6748 15.4284 6.6748 15.0909C6.6748 14.7534 6.80887 14.4298 7.04752 14.1911C7.28616 13.9525 7.60983 13.8184 7.94732 13.8184C8.28482 13.8184 8.60848 13.9525 8.84713 14.1911C9.08577 14.4298 9.21984 14.7534 9.21984 15.0909C9.21984 15.4284 9.08577 15.7521 8.84713 15.9907C8.60848 16.2294 8.28482 16.3634 7.94732 16.3634V16.3634ZM7.12235 11.5212C7.12235 11.0418 7.51038 10.6514 7.98971 10.6514C8.2204 10.6514 8.44164 10.743 8.60476 10.9061C8.76788 11.0693 8.85952 11.2905 8.85952 11.5212C8.85952 11.7519 8.76788 11.9731 8.60476 12.1362C8.44164 12.2994 8.2204 12.391 7.98971 12.391C7.75938 12.3906 7.53864 12.2987 7.376 12.1356C7.21336 11.9725 7.12213 11.7515 7.12235 11.5212V11.5212Z" fill="white"/>
</svg>
