<svg width="24" height="24" viewBox="0 0 24 24" fill="none" xmlns="http://www.w3.org/2000/svg">
<path d="M1 2.60895C1 1.91701 1.27487 1.25341 1.76414 0.764143C2.25342 0.27487 2.91701 0 3.60895 0H20.2516C20.9436 0 21.6072 0.27487 22.0964 0.764143C22.5857 1.25341 22.8606 1.91701 22.8606 2.60895C22.8606 3.30088 22.5857 3.96448 22.0964 4.45375C21.6072 4.94302 20.9436 5.21789 20.2516 5.21789H15.0533V13.0516C15.0533 13.1249 14.977 13.1709 14.9085 13.1455C14.6544 13.0528 14.3816 13.0228 14.1134 13.058C13.8452 13.0932 13.5894 13.1926 13.3678 13.3478C13.1463 13.5029 12.9654 13.7093 12.8405 13.9493C12.7157 14.1892 12.6506 14.4558 12.6508 14.7263V15.0149C12.6508 15.5392 12.4551 16.1741 11.9308 16.1741C11.2675 16.1741 11.245 15.2546 11.5052 14.6441C11.6403 14.3272 11.6947 13.9817 11.6637 13.6385C11.6327 13.2954 11.5172 12.9652 11.3275 12.6776C11.1378 12.39 10.8798 12.1538 10.5766 11.9901C10.2734 11.8265 9.93441 11.7405 9.58986 11.7398C9.20639 11.7398 8.80728 11.4737 8.80728 11.0912V5.21789H3.60992C3.26723 5.21802 2.92787 5.15063 2.61122 5.01958C2.29458 4.88852 2.00686 4.69637 1.76449 4.4541C1.52212 4.21182 1.32986 3.92417 1.19869 3.60757C1.06752 3.29098 1 2.95164 1 2.60895Z" fill="#1D1D22"/>
<path d="M15.0535 14.8692C15.0535 15.0766 14.9712 15.2755 14.8247 15.4222C14.6781 15.5689 14.4793 15.6515 14.2719 15.6518C14.0644 15.6518 13.8653 15.5693 13.7185 15.4225C13.5718 15.2758 13.4893 15.0767 13.4893 14.8692C13.4893 14.6616 13.5718 14.4626 13.7185 14.3158C13.8653 14.169 14.0644 14.0866 14.2719 14.0866C14.4793 14.0868 14.6781 14.1694 14.8247 14.3161C14.9712 14.4629 15.0535 14.6618 15.0535 14.8692ZM13.9745 18.8486C13.6853 18.8486 13.4078 18.7337 13.2033 18.5291C12.9987 18.3246 12.8838 18.0472 12.8838 17.7579C12.8838 17.4686 12.9987 17.1912 13.2033 16.9866C13.4078 16.7821 13.6853 16.6672 13.9745 16.6672C14.2638 16.6672 14.5412 16.7821 14.7458 16.9866C14.9504 17.1912 15.0653 17.4686 15.0653 17.7579C15.0653 18.0472 14.9504 18.3246 14.7458 18.5291C14.5412 18.7337 14.2638 18.8486 13.9745 18.8486ZM14.3003 21.6845C14.0979 21.6845 13.9038 21.6041 13.7608 21.461C13.6177 21.3179 13.5373 21.1239 13.5373 20.9215C13.5373 20.7191 13.6177 20.525 13.7608 20.382C13.9038 20.2389 14.0979 20.1585 14.3003 20.1585C14.5027 20.1585 14.6967 20.2389 14.8398 20.382C14.9829 20.525 15.0633 20.7191 15.0633 20.9215C15.0633 21.1239 14.9829 21.3179 14.8398 21.461C14.6967 21.6041 14.5027 21.6845 14.3003 21.6845ZM12.0817 20.5938C12.2954 20.5938 12.5005 20.5089 12.6516 20.3577C12.8028 20.2065 12.8877 20.0015 12.8877 19.7877C12.8877 19.5739 12.8028 19.3689 12.6516 19.2177C12.5005 19.0666 12.2954 18.9817 12.0817 18.9817C11.8679 18.9817 11.6629 19.0666 11.5117 19.2177C11.3605 19.3689 11.2756 19.5739 11.2756 19.7877C11.2756 20.0015 11.3605 20.2065 11.5117 20.3577C11.6629 20.5089 11.8679 20.5938 12.0817 20.5938ZM10.493 22.7997C10.493 23.461 11.0281 24 11.6894 24C12.0076 24 12.3128 23.8736 12.5378 23.6486C12.7628 23.4236 12.8892 23.1184 12.8892 22.8002C12.8892 22.482 12.7628 22.1768 12.5378 21.9518C12.3128 21.7268 12.0076 21.6004 11.6894 21.6004C11.0291 21.6004 10.493 22.1384 10.493 22.8007V22.7997ZM9.53728 19.6361C9.13228 19.6361 8.74388 19.4752 8.45751 19.1888C8.17114 18.9025 8.01025 18.5141 8.01025 18.1091C8.01025 17.7041 8.17114 17.3157 8.45751 17.0293C8.74388 16.7429 9.13228 16.5821 9.53728 16.5821C9.94227 16.5821 10.3307 16.7429 10.617 17.0293C10.9034 17.3157 11.0643 17.7041 11.0643 18.1091C11.0643 18.5141 10.9034 18.9025 10.617 19.1888C10.3307 19.4752 9.94227 19.6361 9.53728 19.6361ZM8.5473 13.8254C8.5473 13.2502 9.01294 12.7816 9.58814 12.7816C9.86497 12.7816 10.1305 12.8916 10.3262 13.0873C10.5219 13.2831 10.6319 13.5486 10.6319 13.8254C10.6319 14.1022 10.5219 14.3677 10.3262 14.5635C10.1305 14.7592 9.86497 14.8692 9.58814 14.8692C9.31175 14.8686 9.04686 14.7584 8.85169 14.5627C8.65653 14.367 8.54704 14.1018 8.5473 13.8254Z" fill="#1D1D22"/>
</svg>
