<svg width="20" height="20" viewBox="0 0 20 20" fill="none" xmlns="http://www.w3.org/2000/svg">
<path d="M6.09914 16.1983C9.46761 16.1983 12.1983 13.4676 12.1983 10.0991C12.1983 6.73068 9.46761 4 6.09914 4C2.73068 4 0 6.73068 0 10.0991C0 13.4676 2.73068 16.1983 6.09914 16.1983Z" fill="white" fill-opacity="0.3"/>
<path d="M5.39298 12.1629C5.64564 12.1629 5.85045 11.958 5.85045 11.7054C5.85045 11.4527 5.64564 11.2479 5.39298 11.2479C5.14033 11.2479 4.93552 11.4527 4.93552 11.7054C4.93552 11.958 5.14033 12.1629 5.39298 12.1629Z" fill="white"/>
<path d="M6.74308 12.1629C6.99573 12.1629 7.20055 11.958 7.20055 11.7054C7.20055 11.4527 6.99573 11.2479 6.74308 11.2479C6.49043 11.2479 6.28561 11.4527 6.28561 11.7054C6.28561 11.958 6.49043 12.1629 6.74308 12.1629Z" fill="white"/>
<path d="M8.09306 12.1629C8.34571 12.1629 8.55052 11.958 8.55052 11.7054C8.55052 11.4527 8.34571 11.2479 8.09306 11.2479C7.84041 11.2479 7.63559 11.4527 7.63559 11.7054C7.63559 11.958 7.84041 12.1629 8.09306 12.1629Z" fill="white"/>
<path d="M9.44319 12.1629C9.69584 12.1629 9.90065 11.958 9.90065 11.7054C9.90065 11.4527 9.69584 11.2479 9.44319 11.2479C9.19053 11.2479 8.98572 11.4527 8.98572 11.7054C8.98572 11.958 9.19053 12.1629 9.44319 12.1629Z" fill="white"/>
<path d="M10.7933 12.1629C11.0459 12.1629 11.2507 11.958 11.2507 11.7054C11.2507 11.4527 11.0459 11.2479 10.7933 11.2479C10.5406 11.2479 10.3358 11.4527 10.3358 11.7054C10.3358 11.958 10.5406 12.1629 10.7933 12.1629Z" fill="white"/>
<path d="M12.1434 12.1629C12.396 12.1629 12.6008 11.958 12.6008 11.7054C12.6008 11.4527 12.396 11.2479 12.1434 11.2479C11.8907 11.2479 11.6859 11.4527 11.6859 11.7054C11.6859 11.958 11.8907 12.1629 12.1434 12.1629Z" fill="white"/>
<path d="M13.4936 12.1629C13.7463 12.1629 13.9511 11.958 13.9511 11.7054C13.9511 11.4527 13.7463 11.2479 13.4936 11.2479C13.241 11.2479 13.0362 11.4527 13.0362 11.7054C13.0362 11.958 13.241 12.1629 13.4936 12.1629Z" fill="white"/>
<path d="M14.8437 12.1629C15.0964 12.1629 15.3012 11.958 15.3012 11.7054C15.3012 11.4527 15.0964 11.2479 14.8437 11.2479C14.5911 11.2479 14.3863 11.4527 14.3863 11.7054C14.3863 11.958 14.5911 12.1629 14.8437 12.1629Z" fill="white"/>
<path d="M16.1937 12.1629C16.4464 12.1629 16.6512 11.958 16.6512 11.7054C16.6512 11.4527 16.4464 11.2479 16.1937 11.2479C15.9411 11.2479 15.7362 11.4527 15.7362 11.7054C15.7362 11.958 15.9411 12.1629 16.1937 12.1629Z" fill="white"/>
<path d="M16.9458 13.3887C17.1197 13.3887 17.2607 13.2477 17.2607 13.0738C17.2607 12.8999 17.1197 12.7589 16.9458 12.7589C16.7719 12.7589 16.631 12.8999 16.631 13.0738C16.631 13.2477 16.7719 13.3887 16.9458 13.3887Z" fill="white"/>
<path d="M15.5503 13.3887C15.7242 13.3887 15.8652 13.2477 15.8652 13.0738C15.8652 12.8999 15.7242 12.7589 15.5503 12.7589C15.3764 12.7589 15.2354 12.8999 15.2354 13.0738C15.2354 13.2477 15.3764 13.3887 15.5503 13.3887Z" fill="white"/>
<path d="M14.1555 13.3887C14.3294 13.3887 14.4704 13.2477 14.4704 13.0738C14.4704 12.8999 14.3294 12.7589 14.1555 12.7589C13.9816 12.7589 13.8406 12.8999 13.8406 13.0738C13.8406 13.2477 13.9816 13.3887 14.1555 13.3887Z" fill="white"/>
<path d="M12.7604 13.3887C12.9343 13.3887 13.0752 13.2477 13.0752 13.0738C13.0752 12.8999 12.9343 12.7589 12.7604 12.7589C12.5864 12.7589 12.4455 12.8999 12.4455 13.0738C12.4455 13.2477 12.5864 13.3887 12.7604 13.3887Z" fill="white"/>
<path d="M11.365 13.3887C11.5389 13.3887 11.6799 13.2477 11.6799 13.0738C11.6799 12.8999 11.5389 12.7589 11.365 12.7589C11.1911 12.7589 11.0501 12.8999 11.0501 13.0738C11.0501 13.2477 11.1911 13.3887 11.365 13.3887Z" fill="white"/>
<path d="M9.96985 13.3887C10.1438 13.3887 10.2847 13.2477 10.2847 13.0738C10.2847 12.8999 10.1438 12.7589 9.96985 12.7589C9.79595 12.7589 9.65497 12.8999 9.65497 13.0738C9.65497 13.2477 9.79595 13.3887 9.96985 13.3887Z" fill="white"/>
<path d="M8.57474 13.3887C8.74865 13.3887 8.88963 13.2477 8.88963 13.0738C8.88963 12.8999 8.74865 12.7589 8.57474 12.7589C8.40084 12.7589 8.25986 12.8999 8.25986 13.0738C8.25986 13.2477 8.40084 13.3887 8.57474 13.3887Z" fill="white"/>
<path d="M7.17963 13.3887C7.35354 13.3887 7.49452 13.2477 7.49452 13.0738C7.49452 12.8999 7.35354 12.7589 7.17963 12.7589C7.00572 12.7589 6.86475 12.8999 6.86475 13.0738C6.86475 13.2477 7.00572 13.3887 7.17963 13.3887Z" fill="white"/>
<path d="M5.78425 13.3887C5.95815 13.3887 6.09913 13.2477 6.09913 13.0738C6.09913 12.8999 5.95815 12.7589 5.78425 12.7589C5.61034 12.7589 5.46936 12.8999 5.46936 13.0738C5.46936 13.2477 5.61034 13.3887 5.78425 13.3887Z" fill="white"/>
<path d="M17.6861 14.3412C17.8545 14.3412 17.9911 14.2046 17.9911 14.0362C17.9911 13.8677 17.8545 13.7312 17.6861 13.7312C17.5177 13.7312 17.3811 13.8677 17.3811 14.0362C17.3811 14.2046 17.5177 14.3412 17.6861 14.3412Z" fill="white"/>
<path d="M16.271 14.3412C16.4395 14.3412 16.576 14.2046 16.576 14.0362C16.576 13.8677 16.4395 13.7312 16.271 13.7312C16.1026 13.7312 15.9661 13.8677 15.9661 14.0362C15.9661 14.2046 16.1026 14.3412 16.271 14.3412Z" fill="white"/>
<path d="M14.856 14.3412C15.0244 14.3412 15.161 14.2046 15.161 14.0362C15.161 13.8677 15.0244 13.7312 14.856 13.7312C14.6875 13.7312 14.551 13.8677 14.551 14.0362C14.551 14.2046 14.6875 14.3412 14.856 14.3412Z" fill="white"/>
<path d="M13.4413 14.3413C13.6098 14.3413 13.7463 14.2047 13.7463 14.0363C13.7463 13.8679 13.6098 13.7313 13.4413 13.7313C13.2729 13.7313 13.1364 13.8679 13.1364 14.0363C13.1364 14.2047 13.2729 14.3413 13.4413 14.3413Z" fill="white"/>
<path d="M12.0264 14.3413C12.1948 14.3413 12.3314 14.2047 12.3314 14.0363C12.3314 13.8679 12.1948 13.7313 12.0264 13.7313C11.858 13.7313 11.7214 13.8679 11.7214 14.0363C11.7214 14.2047 11.858 14.3413 12.0264 14.3413Z" fill="white"/>
<path d="M10.6113 14.3412C10.7797 14.3412 10.9163 14.2046 10.9163 14.0362C10.9163 13.8677 10.7797 13.7312 10.6113 13.7312C10.4429 13.7312 10.3063 13.8677 10.3063 14.0362C10.3063 14.2046 10.4429 14.3412 10.6113 14.3412Z" fill="white"/>
<path d="M9.19655 14.3412C9.36498 14.3412 9.50153 14.2046 9.50153 14.0362C9.50153 13.8677 9.36498 13.7312 9.19655 13.7312C9.02811 13.7312 8.89157 13.8677 8.89157 14.0362C8.89157 14.2046 9.02811 14.3412 9.19655 14.3412Z" fill="white"/>
<path d="M7.7816 14.3412C7.95004 14.3412 8.08658 14.2046 8.08658 14.0362C8.08658 13.8677 7.95004 13.7312 7.7816 13.7312C7.61317 13.7312 7.47662 13.8677 7.47662 14.0362C7.47662 14.2046 7.61317 14.3412 7.7816 14.3412Z" fill="white"/>
<path d="M6.36684 14.3413C6.53527 14.3413 6.67182 14.2047 6.67182 14.0363C6.67182 13.8679 6.53527 13.7313 6.36684 13.7313C6.1984 13.7313 6.06186 13.8679 6.06186 14.0363C6.06186 14.2047 6.1984 14.3413 6.36684 14.3413Z" fill="white"/>
<path d="M18.6723 15.24C18.8013 15.24 18.9059 15.1355 18.9059 15.0065C18.9059 14.8775 18.8013 14.7729 18.6723 14.7729C18.5433 14.7729 18.4388 14.8775 18.4388 15.0065C18.4388 15.1355 18.5433 15.24 18.6723 15.24Z" fill="white"/>
<path d="M17.2387 15.2402C17.3677 15.2402 17.4722 15.1356 17.4722 15.0066C17.4722 14.8776 17.3677 14.7731 17.2387 14.7731C17.1097 14.7731 17.0051 14.8776 17.0051 15.0066C17.0051 15.1356 17.1097 15.2402 17.2387 15.2402Z" fill="white"/>
<path d="M15.8049 15.24C15.9339 15.24 16.0384 15.1355 16.0384 15.0065C16.0384 14.8775 15.9339 14.7729 15.8049 14.7729C15.6759 14.7729 15.5714 14.8775 15.5714 15.0065C15.5714 15.1355 15.6759 15.24 15.8049 15.24Z" fill="white"/>
<path d="M14.3711 15.24C14.5001 15.24 14.6047 15.1355 14.6047 15.0065C14.6047 14.8775 14.5001 14.7729 14.3711 14.7729C14.2421 14.7729 14.1376 14.8775 14.1376 15.0065C14.1376 15.1355 14.2421 15.24 14.3711 15.24Z" fill="white"/>
<path d="M12.9376 15.24C13.0666 15.24 13.1712 15.1355 13.1712 15.0065C13.1712 14.8775 13.0666 14.7729 12.9376 14.7729C12.8086 14.7729 12.7041 14.8775 12.7041 15.0065C12.7041 15.1355 12.8086 15.24 12.9376 15.24Z" fill="white"/>
<path d="M11.504 15.2402C11.633 15.2402 11.7375 15.1356 11.7375 15.0066C11.7375 14.8776 11.633 14.7731 11.504 14.7731C11.375 14.7731 11.2704 14.8776 11.2704 15.0066C11.2704 15.1356 11.375 15.2402 11.504 15.2402Z" fill="white"/>
<path d="M10.0702 15.2402C10.1992 15.2402 10.3037 15.1356 10.3037 15.0066C10.3037 14.8776 10.1992 14.7731 10.0702 14.7731C9.9412 14.7731 9.83664 14.8776 9.83664 15.0066C9.83664 15.1356 9.9412 15.2402 10.0702 15.2402Z" fill="white"/>
<path d="M8.63653 15.2402C8.76552 15.2402 8.87008 15.1356 8.87008 15.0066C8.87008 14.8776 8.76552 14.7731 8.63653 14.7731C8.50755 14.7731 8.40298 14.8776 8.40298 15.0066C8.40298 15.1356 8.50755 15.2402 8.63653 15.2402Z" fill="white"/>
<path d="M7.20276 15.2402C7.33174 15.2402 7.43631 15.1356 7.43631 15.0066C7.43631 14.8776 7.33174 14.7731 7.20276 14.7731C7.07377 14.7731 6.96921 14.8776 6.96921 15.0066C6.96921 15.1356 7.07377 15.2402 7.20276 15.2402Z" fill="white"/>
<path d="M19.8214 16.0493C19.92 16.0493 20 15.9693 20 15.8707C20 15.772 19.92 15.692 19.8214 15.692C19.7227 15.692 19.6427 15.772 19.6427 15.8707C19.6427 15.9693 19.7227 16.0493 19.8214 16.0493Z" fill="white"/>
<path d="M18.3756 16.0493C18.4743 16.0493 18.5542 15.9693 18.5542 15.8707C18.5542 15.772 18.4743 15.692 18.3756 15.692C18.2769 15.692 18.197 15.772 18.197 15.8707C18.197 15.9693 18.2769 16.0493 18.3756 16.0493Z" fill="white"/>
<path d="M16.93 16.0493C17.0287 16.0493 17.1086 15.9693 17.1086 15.8707C17.1086 15.772 17.0287 15.692 16.93 15.692C16.8313 15.692 16.7514 15.772 16.7514 15.8707C16.7514 15.9693 16.8313 16.0493 16.93 16.0493Z" fill="white"/>
<path d="M15.4845 16.0493C15.5832 16.0493 15.6632 15.9693 15.6632 15.8707C15.6632 15.772 15.5832 15.692 15.4845 15.692C15.3859 15.692 15.3059 15.772 15.3059 15.8707C15.3059 15.9693 15.3859 16.0493 15.4845 16.0493Z" fill="white"/>
<path d="M14.0387 16.0493C14.1374 16.0493 14.2174 15.9693 14.2174 15.8707C14.2174 15.772 14.1374 15.692 14.0387 15.692C13.9401 15.692 13.8601 15.772 13.8601 15.8707C13.8601 15.9693 13.9401 16.0493 14.0387 16.0493Z" fill="white"/>
<path d="M12.5931 16.0493C12.6918 16.0493 12.7718 15.9693 12.7718 15.8707C12.7718 15.772 12.6918 15.692 12.5931 15.692C12.4945 15.692 12.4145 15.772 12.4145 15.8707C12.4145 15.9693 12.4945 16.0493 12.5931 16.0493Z" fill="white"/>
<path d="M11.1477 16.0493C11.2463 16.0493 11.3263 15.9693 11.3263 15.8707C11.3263 15.772 11.2463 15.692 11.1477 15.692C11.049 15.692 10.969 15.772 10.969 15.8707C10.969 15.9693 11.049 16.0493 11.1477 16.0493Z" fill="white"/>
<path d="M9.70217 16.0493C9.80083 16.0493 9.88081 15.9693 9.88081 15.8707C9.88081 15.772 9.80083 15.692 9.70217 15.692C9.60351 15.692 9.52353 15.772 9.52353 15.8707C9.52353 15.9693 9.60351 16.0493 9.70217 16.0493Z" fill="white"/>
<path d="M8.25655 16.0493C8.35521 16.0493 8.43518 15.9693 8.43518 15.8707C8.43518 15.772 8.35521 15.692 8.25655 15.692C8.15789 15.692 8.07791 15.772 8.07791 15.8707C8.07791 15.9693 8.15789 16.0493 8.25655 16.0493Z" fill="white"/>
<path d="M4.73527 10.729C4.90918 10.729 5.05016 10.588 5.05016 10.4141C5.05016 10.2402 4.90918 10.0992 4.73527 10.0992C4.56136 10.0992 4.42038 10.2402 4.42038 10.4141C4.42038 10.588 4.56136 10.729 4.73527 10.729Z" fill="white"/>
<path d="M6.13053 10.729C6.30444 10.729 6.44542 10.588 6.44542 10.4141C6.44542 10.2402 6.30444 10.0992 6.13053 10.0992C5.95663 10.0992 5.81564 10.2402 5.81564 10.4141C5.81564 10.588 5.95663 10.729 6.13053 10.729Z" fill="white"/>
<path d="M7.52576 10.729C7.69967 10.729 7.84065 10.588 7.84065 10.4141C7.84065 10.2402 7.69967 10.0992 7.52576 10.0992C7.35186 10.0992 7.21088 10.2402 7.21088 10.4141C7.21088 10.588 7.35186 10.729 7.52576 10.729Z" fill="white"/>
<path d="M8.92087 10.729C9.09478 10.729 9.23576 10.588 9.23576 10.4141C9.23576 10.2402 9.09478 10.0992 8.92087 10.0992C8.74697 10.0992 8.60599 10.2402 8.60599 10.4141C8.60599 10.588 8.74697 10.729 8.92087 10.729Z" fill="white"/>
<path d="M10.3158 10.729C10.4897 10.729 10.6307 10.588 10.6307 10.4141C10.6307 10.2402 10.4897 10.0992 10.3158 10.0992C10.1419 10.0992 10.0009 10.2402 10.0009 10.4141C10.0009 10.588 10.1419 10.729 10.3158 10.729Z" fill="white"/>
<path d="M11.7114 10.729C11.8853 10.729 12.0263 10.588 12.0263 10.4141C12.0263 10.2402 11.8853 10.0992 11.7114 10.0992C11.5375 10.0992 11.3965 10.2402 11.3965 10.4141C11.3965 10.588 11.5375 10.729 11.7114 10.729Z" fill="white"/>
<path d="M13.1063 10.729C13.2802 10.729 13.4212 10.588 13.4212 10.4141C13.4212 10.2402 13.2802 10.0992 13.1063 10.0992C12.9324 10.0992 12.7914 10.2402 12.7914 10.4141C12.7914 10.588 12.9324 10.729 13.1063 10.729Z" fill="white"/>
<path d="M14.5016 10.729C14.6755 10.729 14.8165 10.588 14.8165 10.4141C14.8165 10.2402 14.6755 10.0992 14.5016 10.0992C14.3277 10.0992 14.1867 10.2402 14.1867 10.4141C14.1867 10.588 14.3277 10.729 14.5016 10.729Z" fill="white"/>
<path d="M15.8967 10.729C16.0706 10.729 16.2116 10.588 16.2116 10.4141C16.2116 10.2402 16.0706 10.0992 15.8967 10.0992C15.7228 10.0992 15.5818 10.2402 15.5818 10.4141C15.5818 10.588 15.7228 10.729 15.8967 10.729Z" fill="white"/>
<path d="M3.99513 9.75669C4.16357 9.75669 4.30011 9.62014 4.30011 9.45171C4.30011 9.28327 4.16357 9.14673 3.99513 9.14673C3.8267 9.14673 3.69016 9.28327 3.69016 9.45171C3.69016 9.62014 3.8267 9.75669 3.99513 9.75669Z" fill="white"/>
<path d="M5.41005 9.75669C5.57849 9.75669 5.71503 9.62014 5.71503 9.45171C5.71503 9.28327 5.57849 9.14673 5.41005 9.14673C5.24162 9.14673 5.10507 9.28327 5.10507 9.45171C5.10507 9.62014 5.24162 9.75669 5.41005 9.75669Z" fill="white"/>
<path d="M6.82485 9.75669C6.99328 9.75669 7.12982 9.62014 7.12982 9.45171C7.12982 9.28327 6.99328 9.14673 6.82485 9.14673C6.65641 9.14673 6.51987 9.28327 6.51987 9.45171C6.51987 9.62014 6.65641 9.75669 6.82485 9.75669Z" fill="white"/>
<path d="M8.23976 9.75669C8.4082 9.75669 8.54474 9.62014 8.54474 9.45171C8.54474 9.28327 8.4082 9.14673 8.23976 9.14673C8.07133 9.14673 7.93478 9.28327 7.93478 9.45171C7.93478 9.62014 8.07133 9.75669 8.23976 9.75669Z" fill="white"/>
<path d="M9.65471 9.75669C9.82314 9.75669 9.95969 9.62014 9.95969 9.45171C9.95969 9.28327 9.82314 9.14673 9.65471 9.14673C9.48628 9.14673 9.34973 9.28327 9.34973 9.45171C9.34973 9.62014 9.48628 9.75669 9.65471 9.75669Z" fill="white"/>
<path d="M11.0696 9.75669C11.2381 9.75669 11.3746 9.62014 11.3746 9.45171C11.3746 9.28327 11.2381 9.14673 11.0696 9.14673C10.9012 9.14673 10.7646 9.28327 10.7646 9.45171C10.7646 9.62014 10.9012 9.75669 11.0696 9.75669Z" fill="white"/>
<path d="M12.4847 9.75669C12.6531 9.75669 12.7897 9.62014 12.7897 9.45171C12.7897 9.28327 12.6531 9.14673 12.4847 9.14673C12.3163 9.14673 12.1797 9.28327 12.1797 9.45171C12.1797 9.62014 12.3163 9.75669 12.4847 9.75669Z" fill="white"/>
<path d="M13.8993 9.75669C14.0678 9.75669 14.2043 9.62014 14.2043 9.45171C14.2043 9.28327 14.0678 9.14673 13.8993 9.14673C13.7309 9.14673 13.5944 9.28327 13.5944 9.45171C13.5944 9.62014 13.7309 9.75669 13.8993 9.75669Z" fill="white"/>
<path d="M15.3143 9.75669C15.4827 9.75669 15.6192 9.62014 15.6192 9.45171C15.6192 9.28327 15.4827 9.14673 15.3143 9.14673C15.1458 9.14673 15.0093 9.28327 15.0093 9.45171C15.0093 9.62014 15.1458 9.75669 15.3143 9.75669Z" fill="white"/>
<path d="M3.00863 8.71503C3.13762 8.71503 3.24218 8.61046 3.24218 8.48147C3.24218 8.35249 3.13762 8.24792 3.00863 8.24792C2.87965 8.24792 2.77509 8.35249 2.77509 8.48147C2.77509 8.61046 2.87965 8.71503 3.00863 8.71503Z" fill="white"/>
<path d="M4.44241 8.7149C4.5714 8.7149 4.67596 8.61034 4.67596 8.48135C4.67596 8.35237 4.5714 8.2478 4.44241 8.2478C4.31343 8.2478 4.20886 8.35237 4.20886 8.48135C4.20886 8.61034 4.31343 8.7149 4.44241 8.7149Z" fill="white"/>
<path d="M5.87619 8.71503C6.00517 8.71503 6.10974 8.61046 6.10974 8.48147C6.10974 8.35249 6.00517 8.24792 5.87619 8.24792C5.7472 8.24792 5.64264 8.35249 5.64264 8.48147C5.64264 8.61046 5.7472 8.71503 5.87619 8.71503Z" fill="white"/>
<path d="M7.30985 8.71503C7.43883 8.71503 7.5434 8.61046 7.5434 8.48147C7.5434 8.35249 7.43883 8.24792 7.30985 8.24792C7.18086 8.24792 7.07629 8.35249 7.07629 8.48147C7.07629 8.61046 7.18086 8.71503 7.30985 8.71503Z" fill="white"/>
<path d="M8.74347 8.7149C8.87246 8.7149 8.97702 8.61034 8.97702 8.48135C8.97702 8.35237 8.87246 8.2478 8.74347 8.2478C8.61449 8.2478 8.50992 8.35237 8.50992 8.48135C8.50992 8.61034 8.61449 8.7149 8.74347 8.7149Z" fill="white"/>
<path d="M10.1772 8.7149C10.3062 8.7149 10.4108 8.61034 10.4108 8.48135C10.4108 8.35237 10.3062 8.2478 10.1772 8.2478C10.0483 8.2478 9.9437 8.35237 9.9437 8.48135C9.9437 8.61034 10.0483 8.7149 10.1772 8.7149Z" fill="white"/>
<path d="M11.6109 8.7149C11.7399 8.7149 11.8444 8.61034 11.8444 8.48135C11.8444 8.35237 11.7399 8.2478 11.6109 8.2478C11.4819 8.2478 11.3773 8.35237 11.3773 8.48135C11.3773 8.61034 11.4819 8.7149 11.6109 8.7149Z" fill="white"/>
<path d="M13.0444 8.7149C13.1734 8.7149 13.278 8.61034 13.278 8.48135C13.278 8.35237 13.1734 8.2478 13.0444 8.2478C12.9154 8.2478 12.8109 8.35237 12.8109 8.48135C12.8109 8.61034 12.9154 8.7149 13.0444 8.7149Z" fill="white"/>
<path d="M14.4781 8.7149C14.607 8.7149 14.7116 8.61034 14.7116 8.48135C14.7116 8.35237 14.607 8.2478 14.4781 8.2478C14.3491 8.2478 14.2445 8.35237 14.2445 8.48135C14.2445 8.61034 14.3491 8.7149 14.4781 8.7149Z" fill="white"/>
<path d="M1.86002 7.79615C1.95875 7.79615 2.03879 7.71611 2.03879 7.61738C2.03879 7.51864 1.95875 7.4386 1.86002 7.4386C1.76128 7.4386 1.68124 7.51864 1.68124 7.61738C1.68124 7.71611 1.76128 7.79615 1.86002 7.79615Z" fill="white"/>
<path d="M3.30547 7.796C3.40413 7.796 3.48411 7.71602 3.48411 7.61736C3.48411 7.5187 3.40413 7.43872 3.30547 7.43872C3.20681 7.43872 3.12683 7.5187 3.12683 7.61736C3.12683 7.71602 3.20681 7.796 3.30547 7.796Z" fill="white"/>
<path d="M4.75097 7.796C4.84962 7.796 4.9296 7.71602 4.9296 7.61736C4.9296 7.5187 4.84962 7.43872 4.75097 7.43872C4.65231 7.43872 4.57233 7.5187 4.57233 7.61736C4.57233 7.71602 4.65231 7.796 4.75097 7.796Z" fill="white"/>
<path d="M6.1966 7.79627C6.29533 7.79627 6.37537 7.71623 6.37537 7.6175C6.37537 7.51876 6.29533 7.43872 6.1966 7.43872C6.09786 7.43872 6.01782 7.51876 6.01782 7.6175C6.01782 7.71623 6.09786 7.79627 6.1966 7.79627Z" fill="white"/>
<path d="M7.6422 7.796C7.74086 7.796 7.82084 7.71602 7.82084 7.61736C7.82084 7.5187 7.74086 7.43872 7.6422 7.43872C7.54354 7.43872 7.46356 7.5187 7.46356 7.61736C7.46356 7.71602 7.54354 7.796 7.6422 7.796Z" fill="white"/>
<path d="M9.0877 7.796C9.18635 7.796 9.26633 7.71602 9.26633 7.61736C9.26633 7.5187 9.18635 7.43872 9.0877 7.43872C8.98904 7.43872 8.90906 7.5187 8.90906 7.61736C8.90906 7.71602 8.98904 7.796 9.0877 7.796Z" fill="white"/>
<path d="M10.5332 7.796C10.6318 7.796 10.7118 7.71602 10.7118 7.61736C10.7118 7.5187 10.6318 7.43872 10.5332 7.43872C10.4345 7.43872 10.3545 7.5187 10.3545 7.61736C10.3545 7.71602 10.4345 7.796 10.5332 7.796Z" fill="white"/>
<path d="M11.979 7.796C12.0777 7.796 12.1577 7.71602 12.1577 7.61736C12.1577 7.5187 12.0777 7.43872 11.979 7.43872C11.8804 7.43872 11.8004 7.5187 11.8004 7.61736C11.8004 7.71602 11.8804 7.796 11.979 7.796Z" fill="white"/>
<path d="M13.4248 7.796C13.5235 7.796 13.6034 7.71602 13.6034 7.61736C13.6034 7.5187 13.5235 7.43872 13.4248 7.43872C13.3261 7.43872 13.2462 7.5187 13.2462 7.61736C13.2462 7.71602 13.3261 7.796 13.4248 7.796Z" fill="white"/>
</svg>
