<svg width="20" height="20" viewBox="0 0 20 20" fill="none" xmlns="http://www.w3.org/2000/svg">
<g clip-path="url(#clip0)">
<path d="M18.3894 5.26562C17.5794 4.69906 16.7116 4.09441 15.8634 3.49437C15.8442 3.47908 15.8242 3.46483 15.8034 3.45169C15.7036 3.37106 15.5909 3.30784 15.47 3.26475L15.4608 3.26012C13.1922 2.71203 10.8867 2.14894 8.65623 1.60545C6.63112 1.11387 4.6118 0.621161 2.5867 0.128454L2.42745 0.086896C2.24516 0.0361422 2.03398 -0.0204037 1.80897 0.00729452C1.74719 0.0163996 1.68812 0.0388464 1.63587 0.0730578L1.57819 0.119214C1.50751 0.19122 1.45353 0.277877 1.42011 0.373073L1.40625 0.409989V0.625781L1.41549 0.65925C2.69517 4.24442 4.00716 7.88036 5.27183 11.4009C6.24688 14.1091 7.25886 16.9166 8.24889 19.672C8.30891 19.8603 8.48314 19.9813 8.69891 19.9998H8.74506C8.83898 20.0025 8.93191 19.98 9.01425 19.9347C9.09661 19.8895 9.16539 19.8231 9.21358 19.7423L12.9257 14.3307L15.6384 10.3739L16.7497 8.7527C17.3589 7.86191 17.9866 6.94339 18.6097 6.04797L18.6433 6.00181V5.94527C18.657 5.78141 18.6619 5.44333 18.3894 5.26562ZM14.0403 7.2388C13.1691 7.69344 12.2783 8.16192 11.3841 8.62578L12.9488 6.94802C13.6007 6.24528 14.2804 5.51833 14.945 4.80636L14.9588 4.79252C15.0165 4.71752 15.0858 4.64712 15.1608 4.57328C15.2127 4.5202 15.2692 4.46942 15.32 4.40827C15.6663 4.64713 16.0181 4.89059 16.3562 5.12945C16.5997 5.30253 16.8478 5.47563 17.1017 5.64987C16.07 6.17491 15.0396 6.71377 14.0403 7.2388ZM11.8006 7.01378C11.1313 7.74073 10.4367 8.48502 9.74781 9.2212C8.41277 7.59997 7.04769 5.95566 5.72647 4.36558L3.92292 2.19623L3.91831 2.19162C3.78214 2.03698 3.65059 1.86853 3.51906 1.70812C3.43481 1.60083 3.34598 1.49813 3.25711 1.38966C3.79909 1.52882 4.34261 1.66192 4.88759 1.78891C5.36069 1.90084 5.85339 2.01853 6.33573 2.13969L14.495 4.12325C13.5915 5.08906 12.6822 6.06873 11.8006 7.01494V7.01378ZM9.44319 16.1492C9.49511 15.6566 9.55166 15.1511 9.59781 14.6538C9.64052 14.2557 9.68205 13.8484 9.72473 13.4595C9.79053 12.8364 9.86091 12.189 9.91628 11.5555L9.9313 11.4436C9.97745 11.0397 10.0236 10.6243 10.0525 10.2066C10.1068 10.176 10.163 10.149 10.2209 10.1258C10.2913 10.0935 10.3617 10.0659 10.4321 10.0243C11.5144 9.45658 12.598 8.89002 13.6849 8.32808C14.7673 7.76497 15.8773 7.18339 16.9794 6.60761C15.9802 8.05448 14.9851 9.50419 13.9942 10.9567C13.1553 12.1798 12.2933 13.4399 11.4348 14.6826C11.0979 15.1788 10.7459 15.6853 10.4136 16.1723C10.0386 16.7158 9.65436 17.2744 9.27933 17.8317C9.32548 17.2697 9.38319 16.7019 9.44319 16.1492ZM2.9098 2.49625C2.8498 2.32778 2.78286 2.15355 2.72747 1.98969C3.99331 3.51745 5.26722 5.05445 6.50997 6.5453C7.15153 7.31842 7.79309 8.08691 8.43584 8.86464C8.56277 9.01003 8.6897 9.16466 8.81086 9.31467C8.97008 9.50736 9.12933 9.70814 9.30241 9.90084C9.24702 10.3832 9.19856 10.8701 9.14778 11.3398C9.11548 11.6675 9.08203 11.9952 9.04394 12.3287V12.3333C9.03125 12.5444 9.00241 12.7545 8.97933 12.961L8.872 13.8933L8.86741 13.9268C8.78202 14.873 8.67931 15.8295 8.58122 16.7573C8.53855 17.1416 8.50045 17.5352 8.45892 17.9286C8.43584 17.8592 8.40814 17.7878 8.38391 17.7231C8.31467 17.5352 8.24312 17.3388 8.17852 17.1461L7.67656 15.7545C6.08764 11.3351 4.4987 6.92031 2.91094 2.49625" fill="white"/>
</g>
<defs>
<clipPath id="clip0">
<rect width="20" height="20" fill="white"/>
</clipPath>
</defs>
</svg>
