<svg width="24" height="24" viewBox="0 0 24 24" fill="none" xmlns="http://www.w3.org/2000/svg">
<g clip-path="url(#clip0_2385_50023)">
<path d="M0.0136719 2.40456V9.85331V9.56148C0.0692596 15.9263 5.40568 21.36 12.0067 21.36C18.6078 21.36 23.9442 16.2181 23.9998 9.85331V2.40456C23.9998 2.40456 22.3321 1.59854 20.4422 3.53021C19.2331 4.76704 18.2603 9.24185 15.6616 9.26964C12.1874 9.32523 9.8249 4.71145 7.00383 2.98823C4.04378 1.18163 0.0136719 2.40456 0.0136719 2.40456Z" fill="url(#paint0_linear_2385_50023)"/>
<path d="M24 10.576V5.40632C23.319 5.5175 22.4852 5.85102 21.6097 6.65705C20.2478 7.90777 19.1639 12.4243 16.2455 12.466C12.3544 12.5215 9.70005 7.85218 6.53155 6.10117C4.32194 4.90603 1.58425 5.045 0 5.28125V10.5899V10.2702C0.0555877 17.0797 5.4059 22.8887 11.993 22.8887C18.5941 22.8887 23.9444 17.3855 24 10.576Z" fill="url(#paint1_linear_2385_50023)"/>
<path d="M24 10.5759V9.39468C23.4858 9.58924 22.916 9.90887 22.3324 10.4092C20.8593 11.6599 19.6919 16.1764 16.5512 16.2181C12.3544 16.2737 9.5055 11.6043 6.08685 9.85328C4.11349 8.8666 1.72322 8.79711 0 8.93608V10.5898V10.2702C0.0555877 17.0797 5.4059 22.8886 11.993 22.8886C18.5941 22.8886 23.9444 17.3854 24 10.5759Z" fill="#1D1D22"/>
</g>
<defs>
<linearGradient id="paint0_linear_2385_50023" x1="12.0067" y1="2" x2="11.9511" y2="22.1505" gradientUnits="userSpaceOnUse">
<stop stop-color="#1D1D22"/>
<stop offset="1" stop-color="#1D1D22" stop-opacity="0"/>
</linearGradient>
<linearGradient id="paint1_linear_2385_50023" x1="12" y1="5.12158" x2="12" y2="22.8887" gradientUnits="userSpaceOnUse">
<stop stop-color="#1D1D22"/>
<stop offset="0.536237" stop-color="#1D1D22" stop-opacity="0"/>
</linearGradient>
<clipPath id="clip0_2385_50023">
<rect width="24" height="24" fill="white"/>
</clipPath>
</defs>
</svg>
