<svg width="20" height="20" viewBox="0 0 20 20" fill="none" xmlns="http://www.w3.org/2000/svg">
<path d="M0.0117188 2.00413V8.21142V7.96822C0.0580418 13.2722 4.50506 17.8003 10.0059 17.8003C15.5068 17.8003 19.9538 13.5154 20.0001 8.21142V2.00413C20.0001 2.00413 18.6104 1.33244 17.0355 2.94217C16.0279 3.97286 15.2173 7.70187 13.0517 7.72503C10.1565 7.77135 8.18774 3.92653 5.83685 2.49052C3.37014 0.985018 0.0117188 2.00413 0.0117188 2.00413Z" fill="url(#paint0_linear_7348_85126)"/>
<path d="M20 8.81291V4.50486C19.4325 4.59751 18.7377 4.87545 18.0081 5.54713C16.8732 6.5894 15.9699 10.3532 13.5379 10.3879C10.2953 10.4342 8.08338 6.54308 5.44296 5.0839C3.60162 4.08795 1.32021 4.20376 0 4.40064V8.82449V8.55813C0.0463231 14.2327 4.50492 19.0735 9.9942 19.0735C15.4951 19.0735 19.9537 14.4875 20 8.81291V8.81291Z" fill="url(#paint1_linear_7348_85126)"/>
<path d="M20 8.8131V7.82874C19.5715 7.99087 19.0967 8.25723 18.6103 8.67413C17.3827 9.7164 16.41 13.4802 13.7927 13.5149C10.2953 13.5612 7.92125 9.67008 5.07238 8.2109C3.42791 7.38867 1.43602 7.33077 0 7.44657V8.82468V8.55833C0.0463231 14.2329 4.50492 19.0737 9.9942 19.0737C15.4951 19.0737 19.9537 14.4877 20 8.8131V8.8131Z" fill="white"/>
<defs>
<linearGradient id="paint0_linear_7348_85126" x1="10.0059" y1="1.66699" x2="9.95959" y2="18.4591" gradientUnits="userSpaceOnUse">
<stop stop-color="white"/>
<stop offset="1" stop-color="#1D1D22" stop-opacity="0"/>
</linearGradient>
<linearGradient id="paint1_linear_7348_85126" x1="9.99999" y1="4.26758" x2="9.99999" y2="19.0735" gradientUnits="userSpaceOnUse">
<stop stop-color="white"/>
<stop offset="0.536237" stop-color="#1D1D22" stop-opacity="0"/>
</linearGradient>
</defs>
</svg>
