<svg width="20" height="20" viewBox="0 0 20 20" fill="none" xmlns="http://www.w3.org/2000/svg">
<path d="M8.59653 18.6644L0.0424202 1.23172C0.011223 1.16749 -0.00316736 1.09643 0.000582982 1.02512C0.00430555 0.953836 0.0260853 0.884663 0.0638109 0.824045C0.101564 0.763456 0.154041 0.713397 0.21638 0.678589C0.278692 0.64378 0.348838 0.625333 0.420233 0.625H3.38495C3.54384 0.625 3.69275 0.713897 3.76275 0.853909L10.01 13.5006C10.5656 14.634 12.178 14.634 12.7347 13.5006L18.9619 0.863911C18.9978 0.794766 19.052 0.736816 19.1188 0.696423C19.1853 0.656058 19.2619 0.634806 19.3397 0.635H19.7086C19.9275 0.635 20.0664 0.863911 19.9675 1.05282L11.3223 18.6655C10.7656 19.7989 9.15436 19.7989 8.59653 18.6655V18.6644V18.6644Z" fill="white"/>
</svg>
