<svg width="20" height="20" viewBox="0 0 20 20" fill="none" xmlns="http://www.w3.org/2000/svg">
<path d="M10 0C8.02219 0 6.0888 0.586489 4.4443 1.6853C2.79981 2.78412 1.51809 4.34591 0.761209 6.17317C0.00433266 8.00042 -0.1937 10.0111 0.192151 11.9509C0.578003 13.8907 1.53041 15.6725 2.92894 17.0711C4.32747 18.4695 6.1093 19.422 8.04909 19.8078C9.98891 20.1937 11.9996 19.9956 13.8268 19.2387C15.6541 18.4819 17.2159 17.2002 18.3147 15.5557C19.4134 13.9112 20 11.9778 20 10C20 7.34783 18.9464 4.8043 17.0711 2.92894C15.1957 1.05357 12.6522 0 10 0ZM14.0625 7.90156L7.30313 15.8359L6.58594 16.8375L6.69844 16.5531L6.45469 16.8391L8.9125 10.5234H6.13125L8.92969 3.16094H14.4266L10.875 7.90156H14.0625Z" fill="white"/>
</svg>
