<svg width="20" height="20" viewBox="0 0 20 20" fill="none" xmlns="http://www.w3.org/2000/svg">
<path d="M19.8279 8.39578C19.7667 8.19798 19.7171 8.00018 19.6584 7.80238C19.2306 6.39748 18.627 5.07734 17.7545 3.88887C16.8048 2.59529 15.624 1.57579 14.1681 0.88859C12.8265 0.255079 11.4103 -0.0280507 9.92796 0.0021837C9.34662 0.0119561 8.76721 0.0717017 8.19611 0.180763C6.55101 0.499214 5.05399 1.15703 3.71632 2.16805C2.59143 3.018 1.67903 4.05501 1.00766 5.29857C0.486406 6.26438 0.145527 7.31708 0.00172843 8.40509C-0.00618401 8.46416 0.0130286 8.49355 0.0602166 8.52378C0.578442 8.85494 1.09648 9.18743 1.61433 9.52123C1.88559 9.69558 2.15769 9.86906 2.44704 10.0541C2.39505 10.0852 2.35944 10.1081 2.32243 10.1287C1.57081 10.5432 0.818904 10.9567 0.0667151 11.3692C0.010202 11.3992 -0.00590354 11.4257 0.010202 11.4907C0.0540009 11.673 0.0856482 11.858 0.12775 12.0406C0.420771 13.3121 0.884741 14.5142 1.58493 15.6198C2.46259 17.0064 3.61941 18.097 5.06954 18.8667C6.49056 19.6209 8.01386 19.9747 9.61883 19.9991C10.2834 20.0078 10.9473 19.9544 11.6019 19.8394C12.7835 19.6381 13.9227 19.2392 14.9717 18.6594C16.3535 17.8939 17.497 16.8697 18.3532 15.5356C19.1113 14.3545 19.5439 13.0598 19.6864 11.6645C19.6945 11.5837 19.6696 11.5447 19.6042 11.504C18.8278 11.0221 18.0526 10.5385 17.2787 10.053C17.2504 10.0346 17.2221 10.0146 17.1829 9.98888C17.234 9.95892 17.2707 9.93688 17.308 9.91597C18.1301 9.45143 18.9526 8.98755 19.7754 8.52434C19.8285 8.49269 19.8492 8.46416 19.8279 8.39578ZM11.6157 14.1208L9.9175 11.0974L8.21364 14.1208H6.61856L9.06557 9.96713L6.67281 5.87981H8.25715L9.9175 8.85749L11.5779 5.87981H13.1622L10.7748 9.96713L13.2164 14.1208H11.6157Z" fill="white"/>
</svg>
