<svg width="20" height="20" viewBox="0 0 20 20" fill="none" xmlns="http://www.w3.org/2000/svg">
<path fill-rule="evenodd" clip-rule="evenodd" d="M3.33301 7.26856V14.5371H5.37288H7.41266L7.43895 11.2028L7.46514 7.86857L8.31307 8.98743C8.77945 9.60277 9.91713 11.1033 10.8412 12.3217L12.5215 14.5371H14.9967C16.358 14.5371 17.4719 14.5154 17.4719 14.4888C17.4719 14.4622 16.699 13.4209 15.7543 12.1746C14.8096 10.9284 13.5152 9.21753 12.8776 8.37279L11.7186 6.83673L12.572 5.68362C15.3865 1.88047 16.6753 0.113708 16.6753 0.058646C16.6753 0.0242946 15.6816 0.00826453 14.4672 0.0230008L12.259 0.0497847L9.83718 3.27245L7.41535 6.49511V3.24755V0H5.37418H3.33301V7.26856ZM4.38267 16.2016C3.48316 16.7065 3.09832 17.8542 3.52179 18.7688C4.03766 19.8831 5.28337 20.3191 6.32736 19.751C7.0119 19.3784 7.34814 18.8537 7.39414 18.0862C7.46524 16.9013 6.67953 16.0198 5.49655 15.9573C4.96694 15.9293 4.80425 15.9649 4.38267 16.2016Z" fill="white"/>
</svg>
