<svg width="24" height="24" viewBox="0 0 24 24" fill="none" xmlns="http://www.w3.org/2000/svg">
<path fill-rule="evenodd" clip-rule="evenodd" d="M4 8.72227V17.4445H6.44785H8.89559L8.92713 13.4434L8.95855 9.44228L9.97607 10.7849C10.5357 11.5233 11.9009 13.3239 13.0099 14.786L15.0261 17.4445H17.9964C19.63 17.4445 20.9666 17.4185 20.9666 17.3866C20.9666 17.3547 20.0392 16.105 18.9055 14.6096C17.7719 13.1141 16.2186 11.061 15.4535 10.0473L14.0628 8.20407L15.0868 6.82034C18.4642 2.25656 20.0107 0.136449 20.0107 0.0703752C20.0107 0.0291535 18.8183 0.00991744 17.361 0.027601L14.7112 0.0597416L11.805 3.92693L8.89881 7.79413V3.89706V0H6.44941H4V8.72227ZM5.25959 19.4419C4.18018 20.0478 3.71838 21.425 4.22654 22.5226C4.84558 23.8597 6.34044 24.3829 7.59322 23.7012C8.41467 23.2541 8.81816 22.6244 8.87336 21.7034C8.95867 20.2816 8.01583 19.2238 6.59625 19.1487C5.96072 19.1152 5.76548 19.1579 5.25959 19.4419Z" fill="#1D1D22"/>
</svg>
