<svg width="20" height="20" viewBox="0 0 20 20" fill="none" xmlns="http://www.w3.org/2000/svg">
<path d="M17.1772 3.88144L14.769 5.10838L3.14013 11.0316C3.1008 10.7316 3.08102 10.4295 3.08089 10.127C3.08248 8.9201 3.39935 7.73456 4.0001 6.68781C4.60086 5.64105 5.46465 4.76941 6.50593 4.15921C7.54721 3.54901 8.72983 3.22144 9.93667 3.20893C11.1435 3.19642 12.3327 3.49942 13.3864 4.08791L14.7648 3.38559L14.9704 3.28066C13.7077 2.36417 12.2162 1.81465 10.6607 1.69283C9.10517 1.57101 7.54629 1.88163 6.1563 2.59038C4.76631 3.29912 3.59934 4.37838 2.78437 5.70887C1.9694 7.03937 1.53817 8.56929 1.53833 10.1295C1.53833 10.345 1.54651 10.5597 1.56287 10.7735C1.58578 11.0762 1.51863 11.379 1.36988 11.6437C1.22112 11.9084 0.997394 12.1232 0.726857 12.261L0 12.6317V14.3604L2.13996 13.2697L2.83297 12.916L3.51582 12.5682L15.7751 6.32179L17.1526 5.62031L20 4.16914V2.44127L17.1772 3.88144Z" fill="white"/>
<path d="M20 5.89844L4.21222 13.937L2.83466 14.6402L0 16.0846V17.8116L2.8152 16.3774L5.22339 15.1504L16.8641 9.2188C16.9035 9.52069 16.9232 9.82482 16.9233 10.1293C16.9226 11.3376 16.6058 12.5246 16.0045 13.5727C15.4031 14.6207 14.5381 15.4932 13.4954 16.1036C12.4526 16.714 11.2683 17.041 10.06 17.0522C8.85181 17.0635 7.66164 16.7585 6.60772 16.1675L6.5231 16.2124L5.02877 16.9739C6.29119 17.8904 7.7824 18.4401 9.33765 18.5622C10.8929 18.6843 12.4516 18.3741 13.8416 17.6659C15.2316 16.9576 16.3988 15.8789 17.2141 14.5489C18.0294 13.2188 18.4612 11.6893 18.4617 10.1293C18.4617 9.91181 18.4532 9.69434 18.4371 9.47942C18.4143 9.17676 18.4813 8.87409 18.6299 8.60943C18.7785 8.34476 19.002 8.12991 19.2723 7.99185L20 7.62123V5.89844Z" fill="white"/>
</svg>
