<svg width="24" height="24" viewBox="0 0 24 24" fill="none" xmlns="http://www.w3.org/2000/svg">
<path d="M20.6126 4.65734L17.7228 6.12967L3.76815 13.2375C3.72096 12.8776 3.69722 12.515 3.69707 12.152C3.69898 10.7037 4.07922 9.28108 4.80012 8.02498C5.52103 6.76887 6.55758 5.7229 7.80712 4.99066C9.05665 4.25842 10.4758 3.86533 11.924 3.85033C13.3722 3.83532 14.7992 4.19891 16.0636 4.9051L17.7177 4.06231L17.9645 3.93641C16.4492 2.83661 14.6594 2.17719 12.7928 2.031C10.9262 1.88482 9.05555 2.25757 7.38756 3.10806C5.71957 3.95855 4.31921 5.25366 3.34125 6.85026C2.36329 8.44685 1.8458 10.2828 1.846 12.1551C1.846 12.4136 1.85581 12.6712 1.87544 12.9278C1.90294 13.2911 1.82236 13.6544 1.64385 13.9721C1.46534 14.2897 1.19687 14.5474 0.872229 14.7128L0 15.1576V17.2321L2.56795 15.9232L3.39956 15.4988L4.21899 15.0814L18.9301 7.58575L20.5832 6.74399L24 5.00258V2.92913L20.6126 4.65734Z" fill="#1D1D22"/>
<path d="M24 7.078L5.05466 16.7243L3.40159 17.5681L0 19.3014V21.3738L3.37824 19.6527L6.26807 18.1804L20.2369 11.0624C20.2841 11.4247 20.3079 11.7897 20.308 12.155C20.3071 13.605 19.927 15.0295 19.2054 16.2871C18.4838 17.5447 17.4458 18.5917 16.1944 19.3242C14.9431 20.0567 13.5219 20.4491 12.0721 20.4626C10.6222 20.476 9.19397 20.11 7.92926 19.4009L7.82772 19.4547L6.03452 20.3686C7.54942 21.4684 9.33888 22.128 11.2052 22.2746C13.0715 22.4211 14.942 22.0488 16.6099 21.1989C18.2779 20.349 19.6785 19.0545 20.6569 17.4585C21.6353 15.8625 22.1534 14.027 22.154 12.155C22.154 11.894 22.1438 11.6331 22.1246 11.3752C22.0971 11.012 22.1776 10.6488 22.3559 10.3312C22.5342 10.0136 22.8024 9.75577 23.1268 9.5901L24 9.14536V7.078Z" fill="#1D1D22"/>
</svg>
