<svg width="20" height="20" viewBox="0 0 20 20" fill="none" xmlns="http://www.w3.org/2000/svg">
<g clip-path="url(#clip0_7348_85125)">
<path fill-rule="evenodd" clip-rule="evenodd" d="M2.85713 0C1.27918 0 0 1.26765 0 2.83138V16.9709C0 18.5346 1.27918 19.8023 2.85714 19.8023H17.1428C18.7208 19.8023 19.9999 18.5346 19.9999 16.9709V2.83138C19.9999 1.26765 18.7208 0 17.1428 0H2.85713ZM15.7143 2.82871H4.76196V5.18612H15.7143V2.82871ZM15.576 10.4072C15.576 11.2098 15.3873 11.9466 15.01 12.6177C14.6327 13.2756 14.0532 13.8086 13.2717 14.2165C12.4901 14.6244 11.5198 14.8283 10.361 14.8283H8.21832V19.8022H4.76186V5.94642H10.361C11.4929 5.94642 12.4497 6.13721 13.2312 6.51881C14.0128 6.90043 14.599 7.42671 14.9898 8.09781C15.3805 8.76891 15.576 9.53869 15.576 10.4072ZM10.0981 12.144C10.7585 12.144 11.2503 11.9927 11.5737 11.6901C11.8971 11.3874 12.0589 10.9598 12.0589 10.4072C12.0589 9.85447 11.8971 9.42681 11.5737 9.12416C11.2503 8.82152 10.7585 8.67023 10.0981 8.67023H8.21832V12.144H10.0981Z" fill="white"/>
</g>
<defs>
<clipPath id="clip0_7348_85125">
<rect width="20" height="20" fill="white"/>
</clipPath>
</defs>
</svg>
