<svg width="24" height="24" viewBox="0 0 24 24" fill="none" xmlns="http://www.w3.org/2000/svg">
<g clip-path="url(#clip0_2385_49991)">
<path fill-rule="evenodd" clip-rule="evenodd" d="M3.42856 0C1.53502 0 0 1.52118 0 3.39765V20.3651C0 22.2415 1.53502 23.7627 3.42857 23.7627H20.5713C22.465 23.7627 23.9999 22.2415 23.9999 20.3651V3.39765C23.9999 1.52118 22.465 0 20.5713 0H3.42856ZM18.8572 3.39445H5.71436V6.22335H18.8572V3.39445ZM18.6912 12.4886C18.6912 13.4518 18.4647 14.336 18.012 15.1413C17.5592 15.9308 16.8639 16.5703 15.926 17.0598C14.9881 17.5493 13.8238 17.794 12.4332 17.794H9.86198V23.7627H5.71423V7.1357H12.4332C13.7915 7.1357 14.9396 7.36466 15.8775 7.82257C16.8154 8.28052 17.5188 8.91205 17.9877 9.71737C18.4567 10.5227 18.6912 11.4464 18.6912 12.4886ZM12.1178 14.5728C12.9102 14.5728 13.5004 14.3913 13.8884 14.0281C14.2766 13.6649 14.4706 13.1517 14.4706 12.4886C14.4706 11.8254 14.2766 11.3122 13.8884 10.949C13.5004 10.5858 12.9102 10.4043 12.1178 10.4043H9.86198V14.5728H12.1178Z" fill="#1D1D22"/>
</g>
<defs>
<clipPath id="clip0_2385_49991">
<rect width="24" height="24" fill="white"/>
</clipPath>
</defs>
</svg>
