<svg width="24" height="24" viewBox="0 0 24 24" fill="none" xmlns="http://www.w3.org/2000/svg">
<path d="M14.4465 24C12.7211 24 11.4636 23.5966 10.6739 22.7639C9.8842 21.9313 9.50222 21.0601 9.50222 20.0987C9.50222 19.7597 9.56659 19.4592 9.71681 19.2232C9.84557 18.9871 10.0344 18.7983 10.2705 18.6695C10.5065 18.5408 10.8027 18.4549 11.146 18.4549C11.4894 18.4549 11.7855 18.5193 12.0216 18.6695C12.2576 18.7983 12.4465 18.9871 12.5752 19.2232C12.704 19.4592 12.7898 19.7554 12.7898 20.0987C12.7898 20.5236 12.6825 20.867 12.4894 21.1202C12.2962 21.3777 12.043 21.5665 11.764 21.6524C12.0001 21.97 12.3821 22.206 12.8928 22.3562C13.4035 22.5064 13.9143 22.5708 14.4293 22.5708C15.1546 22.5708 15.7941 22.3777 16.3692 21.9957C16.9444 21.6137 17.3693 21.0386 17.6482 20.2918C17.9272 19.5451 18.0517 18.6953 18.0517 17.7339C18.0517 16.691 17.9015 15.8154 17.6053 15.0901C17.3049 14.3433 16.88 13.7897 16.3049 13.4506C15.7298 13.0901 15.1117 12.9185 14.4293 12.9185C13.983 12.9185 13.4508 13.1116 12.7898 13.4721L11.5881 14.0472V13.4506L17.0216 6.20601H9.50222V13.7296C9.50222 14.3476 9.63097 14.8584 9.90566 15.2661C10.1846 15.6695 10.6095 15.8627 11.1632 15.8627C11.6095 15.8627 12.0173 15.7124 12.4207 15.4163C12.8241 15.1159 13.1675 14.7554 13.4636 14.3519C13.5066 14.2661 13.5495 14.2017 13.5924 14.1803C13.6568 14.1373 13.6997 14.1159 13.7641 14.1159C13.8714 14.1159 13.9787 14.1588 14.1246 14.2661C14.2533 14.4163 14.3177 14.5837 14.3177 14.7768C14.3177 14.8627 14.2748 14.9914 14.2533 15.1588C13.9529 15.8627 13.528 16.3949 12.9744 16.7554C12.4207 17.1159 11.8241 17.309 11.1632 17.309C9.52368 17.309 8.41208 16.9914 7.77258 16.3519C7.15455 15.7124 6.83695 14.8369 6.83695 13.7511V6.20601H3V4.79828H6.85841V1.60086L5.98287 0.725322V0H8.54083L9.49793 0.48927V4.77682L19.4508 4.75536L20.4294 5.73391L14.3392 11.8541C14.6997 11.7039 15.086 11.618 15.4894 11.5751C16.1504 11.5751 16.8971 11.7897 17.704 12.2146C18.5367 12.618 19.1761 13.1931 19.6225 13.9185C20.0689 14.6438 20.3693 15.3262 20.498 15.9871C20.6268 16.6481 20.7126 17.2232 20.7126 17.7554C20.7126 18.927 20.4551 20.0129 19.9659 21.0172C19.4766 22.0172 18.7298 22.7854 17.7083 23.2747C16.704 23.7639 15.6182 24 14.4465 24Z" fill="#1D1D22"/>
</svg>
