<svg width="20" height="20" viewBox="0 0 20 20" fill="none" xmlns="http://www.w3.org/2000/svg">
<path d="M12.0387 20C10.6009 20 9.55301 19.6638 8.89492 18.97C8.23683 18.2761 7.91851 17.5501 7.91851 16.7489C7.91851 16.4664 7.97216 16.216 8.09734 16.0193C8.20464 15.8226 8.36201 15.6652 8.55872 15.5579C8.75543 15.4506 9.00222 15.3791 9.28834 15.3791C9.57447 15.3791 9.82125 15.4328 10.018 15.5579C10.2147 15.6652 10.372 15.8226 10.4793 16.0193C10.5866 16.216 10.6582 16.4628 10.6582 16.7489C10.6582 17.103 10.5688 17.3891 10.4078 17.6001C10.2469 17.8147 10.0358 17.9721 9.80337 18.0436C10.0001 18.3083 10.3184 18.505 10.744 18.6302C11.1696 18.7554 11.5952 18.809 12.0244 18.809C12.6289 18.809 13.1618 18.6481 13.641 18.3298C14.1203 18.0114 14.4744 17.5322 14.7069 16.9099C14.9393 16.2876 15.0431 15.5794 15.0431 14.7783C15.0431 13.9092 14.9179 13.1795 14.6711 12.5751C14.4207 11.9528 14.0667 11.4914 13.5874 11.2089C13.1081 10.9084 12.5931 10.7654 12.0244 10.7654C11.6525 10.7654 11.209 10.9263 10.6582 11.2268L9.65673 11.706V11.2089L14.1847 5.17167H7.91851V11.4413C7.91851 11.9564 8.02581 12.382 8.25471 12.7217C8.48719 13.0579 8.84127 13.2189 9.30265 13.2189C9.67461 13.2189 10.0144 13.0937 10.3506 12.8469C10.6868 12.5966 10.9729 12.2961 11.2197 11.9599C11.2555 11.8884 11.2912 11.8348 11.327 11.8169C11.3806 11.7811 11.4164 11.7632 11.4701 11.7632C11.5595 11.7632 11.6489 11.799 11.7705 11.8884C11.8778 12.0136 11.9314 12.1531 11.9314 12.314C11.9314 12.3856 11.8957 12.4928 11.8778 12.6323C11.6274 13.2189 11.2733 13.6624 10.812 13.9628C10.3506 14.2632 9.85344 14.4242 9.30265 14.4242C7.9364 14.4242 7.01006 14.1595 6.47715 13.6266C5.96213 13.0937 5.69746 12.3641 5.69746 11.4592V5.17167H2.5V3.99857H5.71534V1.33405L4.98572 0.604435V0H7.11736L7.91494 0.407725V3.98069L16.209 3.9628L17.0245 4.77825L11.9493 9.8784C12.2497 9.75322 12.5716 9.68169 12.9078 9.64592C13.4586 9.64592 14.081 9.82475 14.7534 10.1788C15.4472 10.515 15.9801 10.9943 16.3521 11.5987C16.724 12.2031 16.9744 12.7718 17.0817 13.3226C17.189 13.8734 17.2605 14.3526 17.2605 14.7961C17.2605 15.7725 17.0459 16.6774 16.6382 17.5143C16.2305 18.3476 15.6082 18.9878 14.7569 19.3956C13.92 19.8033 13.0151 20 12.0387 20Z" fill="white"/>
</svg>
