<svg width="71" height="40" viewBox="0 0 71 40" fill="none" xmlns="http://www.w3.org/2000/svg">
<path d="M35.004 25.6565C34.478 24.2277 32.5182 28.2205 31.8383 26.8539C30.741 24.6949 29.0202 24.2233 26.7576 24.2796C23.6178 24.3606 19.9065 26.2902 17.9402 29.1354C17.7803 29.3668 17.3736 29.2873 17.3338 29.0117C17.0641 27.1447 16.5907 25.3032 15.7029 23.6934C13.1334 18.9957 9.55788 20.2603 5.46382 21.3784C4.65392 21.599 1.50432 22.9766 0.306432 23.5671C0.0988476 23.6694 -0.0585751 23.5452 0.0210443 23.3335C1.53451 19.3089 4.13662 16.5431 7.30887 14.0463C10.4826 11.5471 13.4818 8.97963 17.0275 7.03632C17.1621 6.96255 17.3326 7.00523 17.4167 7.13078C19.1997 9.79193 21.4482 11.6939 24.2425 12.776C25.6028 13.3067 27.0343 13.6471 28.4939 13.787C29.3271 13.8659 30.3059 14.1101 31.1061 13.7249C32.3096 13.1436 31.6012 11.863 31.568 10.7404C31.5625 10.5542 31.7609 10.4433 31.938 10.5167L33.2197 11.0474C33.3825 11.1148 33.5666 11.0239 33.6576 10.877C33.9425 10.4175 34.5116 10.2629 35.004 10.2487C35.8038 10.2244 36.3448 10.5255 36.9611 10.9772C37.0577 11.048 37.1895 11.0556 37.293 10.9945L38.5678 10.2412C38.3931 10.3445 38.4591 11.6993 38.4707 11.9098C38.5096 12.5505 38.7854 13.1763 39.2864 13.5107C40.2459 14.1496 41.5918 13.8133 42.6308 13.6686C43.8794 13.5017 45.1011 13.1822 46.2666 12.7178C48.634 11.7594 50.7063 10.1077 52.3339 7.97877C52.534 7.71651 52.7271 7.44937 52.913 7.17736C52.991 7.0632 53.1418 7.01751 53.2714 7.07234C56.8581 8.58909 60.1359 11.3725 63.0429 14.082C64.5325 15.4706 66.1367 16.9457 67.3448 18.65C68.2227 19.8855 70.2552 22.6595 70.9513 23.7127C71.0702 23.8926 70.9575 23.9991 70.7634 23.8973C68.6091 22.7678 62.3726 19.6207 61.9242 22.8459C61.8331 23.5026 61.8983 24.1623 62.0301 24.8138C62.0918 25.1192 61.6346 25.3424 61.4163 25.1137C58.8272 22.4015 55.398 21.0381 52.3941 23.9245C51.515 24.7684 51.0335 27.8393 50.824 29.7081C50.7894 30.017 50.2033 30.113 50.0532 29.8383C48.7484 27.4493 46.5409 24.9656 44.2059 24.413C41.4597 23.7554 39.0175 23.8362 37.7706 26.2583C36.9839 27.7889 36.6787 26.1964 36.3296 26.0811C36.0555 25.9906 35.5755 26.0376 35.4507 26.2904C35.3909 26.4115 35.3086 26.4667 35.004 25.6565Z" fill="url(#paint0_linear_345:1279)"/>
<path d="M30.8119 15.6361C28.2631 15.5308 25.7727 14.9364 23.5189 13.8954C22.3662 13.3668 21.2788 12.7369 20.2737 12.0154C19.4135 11.3984 18.3888 10.8666 18.1332 9.75446C18.1092 9.58225 18.0607 9.41332 17.9887 9.25159C17.9566 9.17693 17.8988 9.1127 17.8233 9.0677C17.7477 9.02269 17.6579 8.9991 17.5663 9.00016C17.4287 9.04246 17.3124 9.12522 17.2374 9.23418C16.3216 10.2612 15.0146 10.8917 13.9032 11.6924C12.7177 12.5383 11.5552 13.4183 10.4157 14.3325C8.16353 16.15 6.03986 18.0844 4.05631 20.1251C3.88071 20.3031 4.15633 20.5777 4.32971 20.3978L4.74981 19.9878L17.1129 11.0909C17.6219 16.5935 17.982 22.1153 18.5355 27.5946C18.5666 27.9002 18.7578 28.1401 19.0601 27.906C19.3623 27.672 19.1401 27.5192 19.109 27.2465C19.0245 26.5115 18.76 25.7534 18.7866 24.9836C18.9067 21.4809 18.3621 17.87 19.469 14.5027C20.9983 16.8449 22.4631 19.0904 24.4814 21.067C23.6523 18.8254 22.6765 16.5857 21.9919 14.2977C24.4592 15.6709 27.9756 16.0384 30.823 16.0384C31.0608 16.0326 31.0608 15.6457 30.8119 15.6361Z" fill="white" fill-opacity="0.2"/>
<path d="M42.1662 15.8547C44.6971 15.8547 47.8206 15.505 50.0137 14.1534C49.4071 16.3878 48.5398 18.5768 47.8029 20.7695C48.0222 20.1155 49.0673 19.2856 49.4842 18.7129C50.0433 17.9473 50.5155 17.1136 51.0647 16.3424C51.6207 15.5957 52.1288 14.8173 52.586 14.0116C52.8152 13.5806 53.0424 12.4483 53.4593 12.2007C54.5419 11.558 56.3122 14.8018 56.8614 15.5428C58.5151 17.7771 59.086 20.6693 60.548 23.0001C61.204 21.726 59.8961 20.2573 59.3804 19.1382C58.3926 17.0116 58.0508 14.7696 56.7784 12.868C57.6556 13.2215 58.3827 14.1742 59.1492 14.7677C60.0436 15.4823 60.9432 16.2006 61.848 16.9227C62.9643 17.815 64.3671 18.6543 65.3391 19.7336C65.4636 19.8697 65.5861 20.0058 65.7085 20.1438C65.8626 20.3196 66.1037 20.0512 65.9516 19.8773C64.1867 17.8813 62.2971 15.9894 60.2932 14.212C59.2843 13.3172 58.251 12.4571 57.1933 11.6317C56.1897 10.8491 55.0398 10.2328 54.2298 9.22908C54.1631 9.12259 54.0597 9.04169 53.9374 9.00035C53.8556 8.9976 53.775 9.01997 53.7075 9.06419C53.6399 9.10841 53.5889 9.17215 53.562 9.24609C53.498 9.40417 53.4548 9.56927 53.4336 9.73758C53.2064 10.8245 52.2956 11.3444 51.529 11.9474C50.6366 12.6529 49.6707 13.2686 48.6465 13.7848C46.6432 14.8022 44.4296 15.3832 42.1642 15.4861C41.9449 15.4861 41.9449 15.8641 42.1662 15.8547Z" fill="white" fill-opacity="0.2"/>
<path d="M28.6503 38.8629L25.0047 21.264C24.9765 21.1279 25.0796 21 25.2175 21H46.7824C46.9234 21 47.0272 21.1332 46.9937 21.2713L42.7243 38.8835C42.5535 39.3461 41.9597 40.2079 40.9508 39.9542C39.9418 39.7004 39.7159 38.7117 39.729 38.2491C39.993 35.6183 40.5024 30.4703 40.5182 30.0313C40.519 30.009 40.5069 30.0045 40.4858 30.0111C37.8003 30.847 33.4172 30.4128 31.298 30.0508C31.1566 30.0267 31.0311 30.1418 31.0433 30.2859C31.2373 32.5674 31.6261 36.9417 31.8075 38.2491C32.0317 39.866 30.6256 39.9496 30.4797 39.9539C30.4709 39.9542 30.463 39.9547 30.4543 39.9557C29.4378 40.0726 28.8431 39.3154 28.6627 38.9026C28.6571 38.8897 28.6532 38.8766 28.6503 38.8629Z" fill="url(#paint1_linear_345:1279)"/>
<path d="M40.3982 6.06171C36.7584 4.74495 32.4816 5.44986 30.3171 6.10934C30.0095 6.20305 29.6726 6.10856 29.4754 5.8606C28.0028 4.00868 25.7488 1.27722 24.7572 0.221581C24.5057 -0.0462262 24.1577 0.0489357 24.0036 0.379273C13.3344 23.2587 34.3543 27.6147 36.4651 27.9904C36.5857 28.0119 36.6994 27.996 36.8147 27.9552C56.1837 21.0907 51.7122 7.12029 46.6001 0.280422C46.3145 -0.101769 45.7345 -0.0889702 45.4477 0.292397L41.2955 5.81354C41.0916 6.08468 40.722 6.17882 40.3982 6.06171Z" fill="url(#paint2_linear_345:1279)"/>
<path d="M37.5229 17.9996H35.4771C35.0525 17.9996 34.8402 18.53 35.141 18.8394L36.1294 19.8563C36.3108 20.0429 36.6027 20.048 36.7901 19.8677L37.8474 18.8509C38.1638 18.5466 37.9553 17.9996 37.5229 17.9996Z" fill="#7A60E7"/>
<path d="M39.6838 14.2598C40.0427 12.6581 41.5554 11.5773 43.1889 11.7388V11.7388C44.9561 11.9135 46.2645 13.4895 46.0898 15.2567V15.2567C45.9238 16.9356 44.4885 18.2007 42.8021 18.1546L41.0978 18.1081C40.0144 18.0785 39.2036 17.1037 39.3718 16.0331L39.5721 14.7587L39.6838 14.2598Z" fill="#EBC847"/>
<path d="M32.7397 14.2718C32.3898 12.6654 30.8808 11.5769 29.2446 11.7387V11.7387C27.4774 11.9134 26.1738 13.4889 26.3485 15.2561V15.2561C26.5145 16.935 27.9498 18.2001 29.6362 18.154L31.3279 18.1078C32.4157 18.0781 33.2276 17.0959 33.0521 16.0219L32.8456 14.7581L32.7397 14.2718Z" fill="#EBC847"/>
<path d="M44 15C44 15.8605 43.4525 16.6004 43.1677 16.9271C43.083 17.0243 42.917 17.0243 42.8323 16.9271C42.5475 16.6004 42 15.8605 42 15C42 14.1395 42.5475 13.3996 42.8323 13.0729C42.917 12.9757 43.083 12.9757 43.1677 13.0729C43.4525 13.3996 44 14.1395 44 15Z" fill="#111314"/>
<path d="M31 15C31 15.8605 30.4525 16.6004 30.1677 16.9271C30.083 17.0243 29.917 17.0243 29.8323 16.9271C29.5475 16.6004 29 15.8605 29 15C29 14.1395 29.5475 13.3996 29.8323 13.0729C29.917 12.9757 30.083 12.9757 30.1677 13.0729C30.4525 13.3996 31 14.1395 31 15Z" fill="#111314"/>
<defs>
<linearGradient id="paint0_linear_345:1279" x1="35.5388" y1="9.02644" x2="35.5169" y2="31.1777" gradientUnits="userSpaceOnUse">
<stop stop-color="#7A60E7"/>
<stop offset="1" stop-color="#696BE6"/>
</linearGradient>
<linearGradient id="paint1_linear_345:1279" x1="36.0251" y1="40" x2="36.0251" y2="21" gradientUnits="userSpaceOnUse">
<stop stop-color="#3F4140"/>
<stop offset="1" stop-color="#0C0C0D"/>
</linearGradient>
<linearGradient id="paint2_linear_345:1279" x1="35.9503" y1="-0.46544" x2="35.9503" y2="28.0188" gradientUnits="userSpaceOnUse">
<stop stop-color="#0C0D0F"/>
<stop offset="1" stop-color="#3F4140"/>
</linearGradient>
</defs>
</svg>
