<svg width="151" height="100" viewBox="0 0 151 100" fill="none" xmlns="http://www.w3.org/2000/svg">
<g clip-path="url(#clip0_347:2712)">
<path d="M114.035 57.3858V59.1096C113.865 59.477 114.051 59.8867 113.896 60.2569L113.333 64.7163C113.155 67.0795 112.777 69.4231 112.202 71.7219C110.985 76.5741 108.735 81.105 105.607 85.0039C101.971 89.5254 97.3761 92.4559 91.7303 93.6965C88.6013 94.3839 85.3549 94.3229 82.2538 93.5185C82.0196 93.4382 81.7664 93.4315 81.5283 93.4991C81.2901 93.5668 81.0781 93.7056 80.9206 93.8971C77.3014 97.5172 71.5964 97.6557 67.7545 93.9141C67.4726 93.6315 67.1908 93.2528 66.6918 93.4846L66.7088 93.4704C63.8643 94.2425 60.9044 94.4943 57.9708 94.2136C50.5596 93.5973 43.6528 90.2016 38.629 84.7043C35.1645 80.8813 32.738 76.2298 31.5822 71.1962C31.1143 69.2491 30.9142 67.2597 30.6746 65.2617C30.1342 60.8189 30.8542 56.3134 32.752 52.2623C34.7514 47.7235 38.4614 44.1625 43.0712 42.3573C48.1449 40.2944 53.3059 40.4583 58.4951 41.9052C59.9495 42.3093 61.3138 43.0045 62.757 43.4058L62.7372 43.3916C63.6084 43.6243 64.4961 43.7897 65.3924 43.8862C65.4901 43.906 65.5848 43.9383 65.6743 43.9823C65.7965 44.0577 65.9051 44.1532 65.9956 44.2648C66.6355 45.2624 67.7489 45.5252 68.7439 45.8135C70.9988 46.4719 73.3214 46.6076 75.5989 45.7485C75.8498 45.6524 76.1627 45.6157 76.3233 45.415C77.4508 44.002 79.1956 43.954 80.681 43.3351C82.0678 43.3351 83.3334 42.7699 84.661 42.4873C86.3291 41.8658 88.0486 41.393 89.7995 41.0743C90.2927 41.3428 90.2927 41.3428 89.6614 41.7667C89.8474 41.8487 89.9996 41.7215 90.1631 41.6932C90.3689 41.6593 90.5662 41.583 90.7691 41.5293C95.8653 40.1729 100.44 41.1422 104.33 44.7566C106.686 46.9495 108.067 49.7613 108.913 52.8558C110.1 57.1936 110.021 61.5569 109.229 65.9371C108.152 71.8942 106.182 77.5235 102.695 82.5142C100.355 85.9384 97.2514 88.7686 93.6301 90.7801C93.4753 90.8709 93.3107 90.9439 93.1396 90.9977C93.072 91.0175 92.9339 90.9751 92.9592 91.1023C92.9592 91.1334 93.0889 91.1899 93.1114 91.2803C91.8768 92.0151 90.5323 92.1761 89.1343 92.0546C88.6241 91.5996 89.1343 91.2916 89.3485 91.0345C90.335 89.8362 91.2342 88.5787 92.1221 87.3042C93.3321 85.4963 94.3702 83.5784 95.2226 81.576C95.3072 81.3895 95.1832 81.3132 95.1324 81.1888C95.1071 80.7084 95.4509 80.4315 95.7328 80.1347C100.226 75.3843 102.853 69.7352 103.727 63.2694C103.905 62.3016 103.963 61.3153 103.899 60.3332C103.335 61.3647 102.887 62.2295 102.419 63.0801C101.554 64.65 100.543 66.1345 99.3999 67.514C99.1914 67.7683 99.0194 68.1555 98.5543 67.9577C98.3006 67.5112 98.3711 67.0251 98.419 66.5447C99.042 60.3728 97.5227 54.8339 93.4074 50.1541C91.2573 47.691 88.3005 46.0785 85.0697 45.6072C83.5965 45.3652 82.0958 45.3433 80.6162 45.5422C80.92 45.6526 81.2464 45.6856 81.5661 45.6383C85.7406 45.6157 89.0102 47.5062 91.7416 50.4989C94.8027 53.8505 96.0203 58.0442 97.0322 62.3199C97.4745 64.0928 97.6643 65.9195 97.596 67.7457C97.5627 68.1653 97.6184 68.5871 97.7595 68.9835C97.8327 69.3226 97.6213 69.5487 97.4156 69.7578C94.8152 72.4124 91.7843 74.6054 88.4521 76.2434C88.0942 76.4214 87.6291 76.8708 87.2035 76.2688C87.2035 74.5337 87.708 72.8466 87.7165 71.1143C87.7165 69.1361 87.7728 67.1805 87.1527 65.2787C86.9977 64.753 87.4346 64.6033 87.739 64.4111C89.1765 63.5096 90.5887 62.5686 92.0347 61.6784C93.1622 60.9889 93.1763 60.7854 92.2207 59.8274C90.1405 57.7305 87.6798 57.1314 84.8583 57.9425C84.5764 58.0216 84.2946 58.1488 83.993 58.0075C83.79 57.5214 84.2241 57.4677 84.4778 57.3829C85.0162 57.2077 84.9992 56.928 84.7738 56.5041C84.0897 55.138 83.26 53.8503 82.2989 52.6636C80.8107 50.903 79.1984 49.2555 77.1013 48.1986C76.7602 48.0262 76.4304 47.8001 76.0048 47.8708C75.9456 48.2353 76.2613 48.3144 76.4473 48.4727C79.6127 51.1574 81.9579 54.4072 83.2827 58.3636C83.1671 58.7761 82.8007 58.9683 82.5047 59.2113C80.2498 60.9804 79.2097 63.4107 78.8179 66.1575C78.6882 67.0618 78.536 67.9775 78.7417 68.9185C78.9475 69.8595 78.9982 69.9472 79.8692 69.4159C81.2447 68.5681 82.578 67.6666 83.9451 66.8103C84.3284 66.5701 84.7343 66.166 85.2078 66.6917C85.6814 67.8899 85.5207 69.17 85.5827 70.4021C85.7377 73.5842 85.7321 76.7803 85.205 79.9454C85.1725 80.3025 85.0879 80.6528 84.9541 80.9853C84.3904 81.3668 84.3143 80.7932 84.1085 80.5417C83.6632 79.9765 83.418 79.2361 82.7246 78.7133C82.5232 79.2271 82.4858 79.7909 82.6174 80.3269C82.7258 81.1265 82.7597 81.9344 82.7189 82.7403C82.7189 83.427 82.3356 83.7746 81.6732 83.8452L81.4956 83.8622C79.4436 84.043 79.2801 83.9356 78.5529 82.0112C78.271 81.2595 78.1837 80.3495 77.5917 79.8239C76.9378 79.2389 76.0471 79.8747 75.2607 79.7476C74.6011 79.6402 73.888 79.9426 73.2876 79.465C72.7239 76.2632 71.9318 73.1066 71.9825 69.8087C72.0361 66.1886 72.0276 62.5601 72.4561 58.9683C72.8563 55.613 73.3261 52.2661 73.8654 48.9277C73.9472 48.4331 74.0486 47.9329 73.8231 47.3904C73.3214 47.5769 73.2312 48.0121 73.1016 48.3794C72.2858 50.6954 71.741 53.0985 71.478 55.5404C71.1941 57.8843 71.0632 60.2443 71.0862 62.6053C71.1664 66.0427 71.4772 69.4708 72.0164 72.8664C72.3602 75.0537 72.8253 77.2127 73.2115 79.3887C73.0001 79.7956 72.6026 79.6995 72.2644 79.7193C71.0711 79.7761 69.8751 79.7079 68.6959 79.5158C68.5812 79.4836 68.4611 79.4756 68.3431 79.4924C68.2251 79.5092 68.1119 79.5504 68.0107 79.6134C67.9095 79.6763 67.8224 79.7597 67.755 79.8582C67.6876 79.9567 67.6413 80.0682 67.6192 80.1856C67.295 81.1493 66.9202 82.0931 66.5932 83.0539C66.3113 83.9017 65.8744 84.1335 65.0119 83.9159C64.4341 83.7717 63.8647 83.588 63.2897 83.4298C62.5258 83.215 62.306 82.8081 62.4244 82.0168C62.5427 81.2255 62.974 80.5699 63.3038 79.8691C63.8985 78.6002 63.9013 78.5946 62.6019 78.1735C62.0081 77.9851 61.4218 77.7656 60.8431 77.5151C60.5612 77.3964 60.1807 77.3342 60.1976 76.8849C60.4231 75.5284 59.9326 74.2257 59.8847 72.889C59.7917 70.2919 59.6874 67.6977 59.958 65.1063C60.3357 64.527 60.6937 64.9876 60.9981 65.1741C62.9317 66.3525 64.8456 67.5649 66.7623 68.7744C67.7686 69.4074 68.0702 69.317 68.1914 68.147C68.5719 64.5044 67.171 59.33 62.7006 57.5271C62.5832 57.5003 62.4726 57.4497 62.3756 57.3782C62.2786 57.3067 62.1973 57.216 62.1368 57.1116C62.1001 56.8427 62.1568 56.5693 62.2975 56.3373C63.7435 52.9066 65.5165 49.7161 68.7382 47.5995C68.7848 47.5668 68.8241 47.5249 68.8537 47.4762C68.8833 47.4276 68.9025 47.3733 68.9102 47.3169C68.5494 47.153 68.2421 47.3677 67.9462 47.4921C64.1973 49.0888 61.8944 52.0306 60.3611 55.6874C60.1694 56.148 60.2342 56.4278 60.7923 56.4843C60.9868 56.5041 61.2264 56.5662 61.1475 56.8771C60.8978 57.0405 60.5967 57.1059 60.3019 57.0608C57.9821 57.0212 56.2091 58.1912 54.6222 59.6974C53.9542 60.3389 54.019 60.6469 54.7829 61.1726C55.8399 61.9017 56.9054 62.611 58.0103 63.2666C58.3626 63.4757 58.7713 63.6622 58.7234 64.1935C58.4162 65.5782 58.5036 66.9799 58.5797 68.3703C58.6885 70.9267 59.032 73.4676 59.6057 75.9608C59.6386 76.1062 59.6519 76.2555 59.6451 76.4045C59.4337 76.9866 59.0194 76.7351 58.6952 76.5853C55.8759 75.2991 53.2544 73.6158 50.91 71.5862C49.4111 70.2731 48.0407 68.8197 46.8173 67.2455C46.5354 66.8895 46.0985 66.5758 46.2169 66.0106C46.6312 65.1204 46.5777 64.1398 46.713 63.2016C47.3609 58.7653 49.1255 54.5677 51.8402 51.0048C54.1571 47.9188 57.1957 46.0311 61.2405 46.1837C61.8947 46.2396 62.5451 46.3339 63.1882 46.4663C63.3489 46.4917 63.5575 46.5963 63.5687 46.2882C63.58 45.9802 63.0333 46.9353 62.6331 46.698C62.044 46.3475 62.5202 45.6383 62.1199 45.8163C61.2743 45.8333 60.4738 45.5902 59.6339 45.5676C56.7419 45.4828 54.3544 46.6245 52.2235 48.4586C49.6219 50.6939 47.9955 53.5312 47.0343 56.7951C46.3578 59.0618 45.8907 61.3861 45.6391 63.7385C45.608 64.0211 45.6391 64.3433 45.422 64.5863C44.6638 64.6315 44.6638 63.8657 44.2579 63.4559C43.9394 63.7131 44.0127 64.0494 44.0409 64.3405C44.2889 66.9827 44.6384 69.6052 45.5742 72.1118C45.6885 72.3553 45.7418 72.623 45.7292 72.8918C45.6362 74.1974 45.9717 75.4352 46.3409 76.6673C47.646 81.0249 49.6444 85.0095 52.745 88.378C53.7086 89.443 54.7981 90.3863 55.9893 91.1871C56.0153 91.131 56.0294 91.0701 56.0307 91.0083C56.032 90.9465 56.0205 90.8851 55.9969 90.828C55.9734 90.7709 55.9382 90.7193 55.8937 90.6765C55.8492 90.6338 55.7963 90.6007 55.7384 90.5795C52.6604 88.6013 50.8339 85.6708 49.4302 82.4011C49.0124 81.5061 48.6665 80.5791 48.3957 79.6289C48.3084 79.2841 48.1561 78.9422 48.3957 78.5946C48.858 78.4505 49.0299 78.8235 49.2413 79.0948C52.9733 84.1532 57.9314 87.437 63.8985 89.2937C64.4003 89.4491 64.9527 89.5254 65.3558 89.9295C65.7091 90.6177 66.1729 91.2431 66.7285 91.7805C66.7764 91.3001 66.4692 91.1051 66.348 90.831C66.2268 90.5569 65.9703 90.2997 66.4241 90.0962C67.1795 89.8899 67.9039 90.1867 68.6424 90.2347C68.9383 90.2545 69.2315 90.3393 69.5303 90.3562C70.6577 90.424 70.7761 90.3223 70.7959 89.2258C70.7907 88.9258 70.8039 88.6256 70.8353 88.3272C70.9368 87.6122 71.3117 87.177 72.0671 87.1572C72.8724 87.1516 73.6768 87.1035 74.4771 87.0131C75.1648 86.9255 75.6045 87.2957 75.8441 87.9344C75.8991 88.1052 75.9359 88.2814 75.9541 88.46C76.1908 90.2771 76.188 90.2573 77.9666 89.9719C79.376 89.7458 80.7261 89.2174 82.1524 89.0563C82.6231 89.2315 82.4342 89.5734 82.3412 89.873C82.1559 90.377 81.9452 90.8712 81.7098 91.3538C81.6225 91.5544 81.4421 91.8398 81.7578 91.9698C82.0734 92.0998 82.1806 91.8059 82.2792 91.594C82.702 90.6756 83.1615 89.7684 83.3475 88.768C83.6886 88.3046 84.2354 88.2028 84.7174 87.9881C87.6223 86.7638 90.3274 85.1091 92.7422 83.0794C93.1114 82.7657 93.4384 82.3277 94.0134 82.3531C94.2051 82.6216 94.0585 82.8646 93.9599 83.1105C92.931 85.6538 90.2561 89.63 88.221 91.6223C88.3986 91.8031 88.7707 91.659 88.8496 91.984C88.5677 92.439 88.1252 92.3146 87.7221 92.2666C86.5946 92.1224 85.4192 92.0914 84.3397 91.6364C86.1746 92.5096 88.1253 90.6473 90.1153 90.4551C90.7185 90.879 91.237 91.6872 91.7303 91.2803C93.1932 90.7151 94.084 88.0757 95.4708 87.3042C97.1743 86.3948 99.3444 88.4046 100.736 87.064C99.9276 87.8543 99.0492 88.5694 98.1118 89.2004C97.8299 89.3869 97.548 89.6921 97.1788 89.3389C97.2126 88.9574 97.5283 88.7991 97.7736 88.5928C102.258 84.7665 105.928 80.2958 108.47 74.9434C110.127 71.5191 111.166 67.8281 111.54 64.0409C111.898 60.2485 111.715 56.5126 110.627 52.8558C109.372 48.6423 107.199 45.0505 103.422 42.6004C102.484 41.9928 101.449 41.6226 100.42 41.2128C100.138 41.1054 99.7269 41.1422 99.7184 40.6702C100.784 40.4159 101.756 40.8539 102.74 41.1196C105.263 41.7641 107.576 43.0554 109.451 44.8668C111.191 46.5624 112.349 48.6988 113.116 51.033C113.716 52.8868 113.961 54.8057 114.243 56.7217C114.254 56.8407 114.241 56.9607 114.205 57.0747C114.17 57.1887 114.112 57.2945 114.035 57.3858Z" fill="#FF790B"/>
<path d="M73.366 79.4539C74.555 79.4821 75.7469 79.5442 76.9218 79.3126C77.5839 79.1827 77.9558 79.3635 78.1615 80.0639C78.4433 81.0608 78.8997 82.0097 79.2238 82.9981C79.2666 83.2001 79.3838 83.3784 79.5519 83.4978C79.72 83.6171 79.9268 83.6686 80.131 83.6421C82.6669 83.6759 82.6669 83.6872 82.4893 81.1653C82.4386 80.3915 82.3879 79.6205 82.3428 78.8467C82.3428 78.6066 82.3428 78.3553 82.6246 78.2536C82.9064 78.1519 83.0388 78.3891 83.1684 78.584C83.7206 79.4313 84.2719 80.2785 84.8223 81.1257C85.2957 81.3206 85.7662 81.4759 86.2057 81.0495C86.6594 80.7671 87.1102 80.4847 87.5638 80.1825C88.2344 79.756 88.2964 79.451 87.885 78.7704C87.6339 78.3278 87.3292 77.918 86.9778 77.5504C86.7298 77.0449 86.7495 76.6382 87.3722 76.4518C91.3098 74.7392 94.845 72.2175 97.7494 69.0497C97.9175 68.6009 98.2337 68.2233 98.6454 67.9794C100.652 65.8528 102.089 63.3534 103.371 60.7524C103.435 60.6196 103.475 60.47 103.551 60.3457C103.669 60.1537 103.748 59.8458 104.052 59.9503C104.309 60.0407 104.19 60.3175 104.185 60.5152C104.074 64.9078 102.966 69.2174 100.945 73.1165C99.5809 75.7825 97.9664 78.2762 95.7912 80.3717C95.5608 80.6423 95.357 80.9345 95.1826 81.2444C94.9825 81.8346 94.45 82.0577 93.9767 82.3458C91.5789 84.3029 89.1163 86.164 86.2846 87.4659C85.3182 87.9093 84.3433 88.3414 83.3741 88.7792C83.2548 88.937 83.0931 89.0574 82.908 89.1264C82.7228 89.1954 82.5219 89.2102 82.3287 89.1689C80.5875 89.5417 78.8828 90.0698 77.1162 90.3579C76.3076 90.4906 75.8567 90.468 75.744 89.4796C75.6623 88.7735 75.9525 87.8924 75.2538 87.3756C74.6198 86.9068 73.8647 87.3445 73.1631 87.3417C71.1908 87.3417 71.0668 86.952 71.0358 89.4259C71.0189 90.7391 71.2387 90.6516 69.7482 90.6007C68.5592 90.5584 67.4012 90.1941 66.2009 90.2364C66.0565 90.3085 65.8915 90.3276 65.7345 90.2905C65.5775 90.2534 65.4385 90.1623 65.3415 90.0331C63.0874 89.2084 60.7714 88.5278 58.6272 87.3869C54.799 85.4037 51.4859 82.5518 48.9516 79.0585C48.8048 78.8727 48.6487 78.6945 48.4838 78.5247C47.1032 76.9037 45.9198 75.1753 45.593 73.0007C45.0661 71.2723 44.466 69.5609 44.2321 67.7619C44.0602 66.4346 43.9363 65.1044 43.8095 63.7742C43.7785 63.4523 43.7475 63.0541 44.1814 62.9806C44.6153 62.9072 44.6125 63.311 44.7167 63.5737C44.8468 63.9706 45.0803 64.3255 45.3929 64.6017C45.6343 64.7573 45.8402 64.9623 45.997 65.2032C46.1539 65.4441 46.2581 65.7155 46.303 65.9996C47.1737 67.5501 48.4021 68.8238 49.6419 70.0551C52.2072 72.6102 55.1973 74.6974 58.4778 76.223C58.8272 76.3868 59.1991 76.5055 59.5598 76.6297C59.6992 76.603 59.8435 76.6195 59.9734 76.677C60.1032 76.7345 60.2125 76.8303 60.2867 76.9517C61.2947 77.4607 62.3572 77.8529 63.4537 78.1209C64.2708 78.3129 64.1694 78.6207 63.913 79.2194C63.5129 80.1486 62.9353 80.9902 62.6704 81.9899C62.4901 82.679 62.707 83.0208 63.3241 83.1987C63.8876 83.3596 64.4878 83.4613 65.0456 83.6562C65.8008 83.9217 66.1924 83.7296 66.4263 82.9247C66.7475 81.812 67.2124 80.7388 67.5843 79.6346C67.728 79.2082 67.9309 79.1178 68.3789 79.1884C69.9671 79.4575 71.5807 79.5437 73.1885 79.4454C73.2477 79.3776 73.3096 79.3776 73.366 79.4539Z" fill="url(#paint0_linear_347:2712)"/>
<path d="M89.8684 41.3861C93.1348 40.5206 96.4266 40.1344 99.775 40.8364C101.052 41.4622 102.438 41.809 103.661 42.5871C106.789 44.5831 108.796 47.4447 110.194 50.7629C111.85 54.7098 112.274 58.8795 111.988 63.0971C111.603 68.7778 109.741 73.999 106.718 78.8312C104.581 82.2453 101.906 85.1886 99.0108 87.9543C98.4447 88.4871 97.7399 88.831 97.2615 89.4513C97.2615 89.5133 97.2814 89.5922 97.2417 89.6232C96.0303 90.5733 94.7141 91.2612 93.1178 91.2274C93.0017 91.2105 92.8121 91.2274 92.7809 91.1738C92.6791 90.9596 92.9253 90.9737 93.0187 90.9201C94.2371 90.2867 95.4048 89.5609 96.5115 88.7493C99.6612 86.3194 102.295 83.2902 104.258 79.8377C106.801 75.2427 108.5 70.2322 109.274 65.0423C110.143 59.4969 109.84 54.0473 107.16 48.9727C104.915 44.7438 101.38 42.1219 96.5907 41.4453C94.3603 41.1324 92.1215 41.4876 89.959 42.1811C89.676 42.2685 89.4099 42.3926 89.1099 42.2009C89.2712 41.7244 89.7439 41.7131 90.0779 41.5102C90.0779 41.5102 90.0581 41.4481 90.0411 41.4397C89.9848 41.4179 89.9272 41.4 89.8684 41.3861Z" fill="#F96500"/>
<path d="M62.1949 56.9903C67.4316 58.8847 68.6496 64.2281 68.4195 68.0055C68.4048 68.1238 68.3832 68.241 68.3549 68.3567C68.0911 69.6479 67.8891 69.7357 66.8058 69.0589C64.5607 67.6563 62.3156 66.2565 60.0705 64.8595C59.7866 64.822 59.5142 64.7228 59.272 64.5688C59.0297 64.4148 58.8234 64.2097 58.6673 63.9676C57.309 63.0728 55.9451 62.1836 54.5953 61.2746C53.613 60.6149 53.5878 60.4393 54.4072 59.5756C56.2398 57.6529 58.4288 56.5712 61.1425 56.7694C61.5354 56.5542 61.875 56.6986 62.1949 56.9903Z" fill="url(#paint1_linear_347:2712)"/>
<path d="M83.9195 58.0108C85.4285 57.497 86.9403 57.1819 88.5504 57.5538C90.3094 57.9625 91.6891 58.9334 92.889 60.2392C93.4088 60.8069 93.3048 61.2072 92.6754 61.6075C90.818 62.7884 88.9775 64.0005 87.1285 65.2013C86.5608 65.8745 85.806 66.3601 84.962 66.5951C83.2199 67.6889 81.4786 68.7809 79.7383 69.871C78.8476 70.4245 78.6143 70.3195 78.5328 69.2692C78.1788 64.7953 79.5163 61.0539 83.2395 58.3713C83.3126 57.9739 83.602 57.9711 83.9195 58.0108Z" fill="url(#paint2_linear_347:2712)"/>
<path d="M49.0138 43.5939H50.4413C48.581 44.1082 46.8016 44.8745 45.154 45.8712C42.2819 47.6208 40.5547 50.2592 39.2215 53.2081C38.0348 55.9441 37.2651 58.8388 36.9375 61.7979C36.6798 64.0226 36.7394 66.2719 37.1145 68.4802C37.3629 70.0322 37.5313 71.5843 37.8511 73.1335C38.4221 75.8594 39.564 78.4019 40.706 80.9275C41.3743 82.4464 42.1628 83.9108 43.0642 85.3071C42.5731 85.2337 42.4704 84.7653 42.0878 84.7286C41.1171 84.39 40.7346 83.5434 40.3206 82.7251C39.0886 81.0658 38.1183 79.2314 37.4428 77.2845C36.4921 74.7166 35.5243 72.1402 35.1361 69.4114C34.8107 66.8095 34.7647 64.1808 34.999 61.5694C35.103 59.7554 35.4299 57.9606 35.9726 56.2247C37.4 51.8733 40.0494 48.4391 43.7636 45.7555C44.7511 45.082 45.7874 44.4812 46.8641 43.9579C47.4865 43.3061 48.203 43.2214 49.0138 43.5939Z" fill="#F96500"/>
<path d="M98.6557 68.0428C98.4463 68.4663 98.1389 68.8335 97.7592 69.1137C97.3194 69.0458 97.3899 68.7011 97.4012 68.4158C97.6098 63.8076 96.3976 59.4565 94.582 55.3343C92.4452 50.4887 88.8593 47.0728 83.4719 46.0105C82.4937 45.8155 81.4506 45.954 80.4386 45.9314C80.2469 45.9314 79.9537 46.0161 79.9283 45.7223C79.9086 45.4708 80.1679 45.4398 80.3794 45.3889C82.4956 45.0228 84.6678 45.1533 86.7252 45.7703C90.9764 46.9655 93.9562 49.7259 96.0903 53.526C97.5432 56.1309 98.4326 59.0131 98.7008 61.9852C98.9066 64.0223 98.6416 66.0227 98.6557 68.0428Z" fill="#F96500"/>
<path d="M46.1593 66.1698C45.7915 65.7464 45.4832 65.2752 45.2427 64.769C45.4981 60.5838 46.3352 56.5062 48.387 52.836C50.4387 49.1658 53.356 46.3926 57.7035 45.5805C59.2158 45.313 60.7697 45.3972 62.244 45.8267C62.5048 45.7884 62.771 45.8155 63.0187 45.9054C63.2664 45.9953 63.4878 46.1452 63.6629 46.3417C63.7225 46.5822 64.1113 46.5539 64.0942 46.9076C63.5011 47.0803 62.9421 46.7746 62.3916 46.6813C58.85 46.0955 55.8646 47.1934 53.4127 49.6751C49.9875 53.1303 48.0493 57.3862 47.0759 62.0978C46.8177 63.3457 46.6871 64.6219 46.531 65.8868C46.5027 66.2009 46.4232 66.2716 46.1593 66.1698Z" fill="#F96500"/>
<path d="M73.3498 79.5065H73.1764C72.4556 77.7989 72.1887 75.9701 71.9879 74.1526C71.8256 72.7042 71.4872 71.2953 71.3386 69.8525C71.2698 69.1762 71.1075 68.5028 71.091 67.8265C71.0249 65.1467 70.7471 62.4726 70.9149 59.7928C71.168 55.8224 71.5559 51.8689 72.9921 48.1155C73.0341 47.9736 73.0865 47.8351 73.1489 47.7013C73.336 47.3688 73.5286 46.9095 73.9468 47.0138C74.365 47.118 74.2219 47.614 74.2219 47.9493C74.1972 49.4061 73.8643 50.8263 73.6717 52.2634C73.3195 54.963 72.871 57.6484 72.6427 60.3648C72.4088 63.1488 72.3345 65.9413 72.285 68.7367C72.1996 71.7354 72.519 74.7319 73.2342 77.6411C73.402 78.2554 73.3113 78.8838 73.3498 79.5065Z" fill="#F96500"/>
<path d="M85.0559 66.5115C85.7262 65.9883 86.439 65.5247 87.1866 65.1256C88.1097 65.7184 87.7559 66.7204 87.8665 67.5333C88.2838 70.5393 87.7836 73.5086 87.3829 76.4779C87.0568 76.7799 86.7942 77.0961 87.1811 77.5392C87.2806 78.8714 86.8909 80.0795 86.3023 81.2396C85.7993 81.6686 85.3019 82.0101 84.8818 81.1436C85.4003 77.7074 85.5734 74.226 85.3986 70.7538C85.3185 69.3425 85.4207 67.903 85.0559 66.5115Z" fill="#F96500"/>
<path d="M62.3288 57.0282C61.9633 57.0376 61.6005 56.9628 61.2682 56.8096C61.2236 56.7732 61.1817 56.7143 61.1315 56.7031C59.8895 56.4565 59.9342 56.4761 60.4365 55.2682C61.3051 53.1594 62.6037 51.2567 64.249 49.6826C65.514 48.521 67.0064 47.6372 68.6307 47.0873C68.8763 47.0005 69.1889 46.908 69.3564 47.177C69.5378 47.4937 69.2336 47.6338 69.0075 47.7796C65.8733 49.775 64.1624 52.8579 62.7112 56.1314C62.5716 56.4285 62.4488 56.7255 62.3288 57.0282Z" fill="#F96500"/>
<path d="M83.9677 58.0014L83.2848 58.3583C82.7938 57.8861 82.6499 57.2341 82.3903 56.6411C80.9779 53.4752 78.8063 50.7034 76.0664 48.5692C75.8378 48.3865 75.4089 48.2039 75.6431 47.8076C75.8773 47.4113 76.2498 47.6923 76.5263 47.8076C77.6406 48.2379 78.6716 48.8569 79.574 49.6372C81.825 51.5569 83.6804 53.8935 85.0372 56.5174C85.3956 57.2144 85.3194 57.5123 84.5405 57.6416C84.4229 57.6506 84.3092 57.6881 84.2094 57.7508C84.1095 57.8135 84.0266 57.8995 83.9677 58.0014Z" fill="#F96500"/>
<path d="M45.65 73.1017C46.3102 75.107 47.4868 76.838 48.5448 78.634C48.621 80.2603 49.3912 81.6575 50.0232 83.0972C51.0395 85.4986 52.5543 87.6554 54.4669 89.4242C54.9833 89.8994 55.5955 90.1879 56.1598 90.5952C56.425 90.7931 56.7636 91.0138 56.5153 91.3871C56.2331 91.8085 55.92 91.4748 55.6689 91.2994C53.2426 89.5038 51.1945 87.2449 49.6423 84.6528C47.7733 81.6597 46.4582 78.3532 45.7601 74.8921C45.6528 74.3207 45.2663 73.7211 45.65 73.1017Z" fill="#F96500"/>
<path d="M58.5682 64.038C59.0797 64.2726 59.5587 64.571 59.9935 64.926C60.2985 65.3601 59.9935 65.7914 59.9935 66.2227C59.9935 68.2552 59.908 70.2905 60.0277 72.3145C60.0615 73.5005 60.2047 74.6809 60.4553 75.8411C60.5436 76.1991 60.8259 76.746 60.1702 76.9687C59.8979 76.9373 59.6415 76.8253 59.4348 76.6473C58.8452 74.4429 58.4786 72.186 58.3401 69.91C58.2461 68.3933 58.1577 66.8852 58.1776 65.3686C58.1748 64.8866 58.2147 64.4186 58.5682 64.038Z" fill="#F96500"/>
<path d="M89.0158 91.9312L88.9479 91.9537H88.8742L87.7812 91.8833C90.4549 89.1628 92.5859 85.9634 94.0617 82.4545C94.359 81.9732 94.8573 81.7087 95.2736 81.3568C95.8824 81.2048 95.5567 81.5482 95.486 81.7537C94.2661 84.6595 92.646 87.3828 90.6723 89.8456C90.123 90.538 89.568 91.2332 89.0158 91.9312Z" fill="#F8760F"/>
<path d="M82.3351 89.2084C82.6496 88.9955 83.0082 88.8596 83.3829 88.8115C83.7218 89.0502 83.4592 89.3263 83.3829 89.5391C83.105 90.3384 82.7825 91.121 82.417 91.8829C82.2645 92.1877 82.0216 92.6421 81.516 92.3344C81.0669 92.0468 81.307 91.7132 81.4426 91.3825L82.3351 89.2084Z" fill="#F8760F"/>
<path d="M58.2767 43.4863C56.5574 43.0963 54.8152 42.8034 53.0592 42.6093L52.6147 42.3277C54.6219 42.1748 56.5102 42.4618 58.3928 42.8238C58.6617 42.8748 58.959 43.0303 58.8882 43.3227C58.8174 43.615 58.4862 43.4326 58.2767 43.4863Z" fill="#F3730F"/>
<path d="M65.3049 90.1417C65.6127 90.1324 65.9176 90.2 66.1885 90.3379C66.4579 90.6865 66.7302 91.0297 66.988 91.3838C67.1387 91.5908 67.1937 91.8441 66.9533 91.9994C66.9032 92.0348 66.8449 92.0586 66.7832 92.0688C66.7215 92.079 66.6581 92.0753 66.5982 92.058C66.5383 92.0408 66.4836 92.0104 66.4385 91.9694C66.3935 91.9285 66.3594 91.8781 66.3391 91.8223C66.0494 91.2313 65.2904 90.8962 65.3049 90.1417Z" fill="#F7750F"/>
<path d="M82.1015 39.7478C81.4814 39.9089 80.7881 39.9089 80.168 39.7478H82.1015Z" fill="#3D5E29"/>
<path d="M80.6504 39.0226H81.738C81.5846 39.1008 81.3925 39.1435 81.1942 39.1435C80.996 39.1435 80.8038 39.1008 80.6504 39.0226Z" fill="#3D5E29"/>
<path d="M82.9007 39.8685C82.8117 39.558 82.5131 39.7938 82.3447 39.6931C82.3797 39.6436 82.4262 39.6015 82.4809 39.5698C82.5357 39.5381 82.5974 39.5176 82.6618 39.5097C82.7261 39.5018 82.7916 39.5066 82.8538 39.5239C82.9159 39.5411 82.9731 39.5704 83.0214 39.6097C83.1358 39.696 83.0278 39.8139 82.9007 39.8685Z" fill="#3D5E29"/>
<path d="M86.3311 81.319L87.2172 77.4519C87.8052 77.8531 88.0393 78.5374 88.3877 79.1244C88.6663 79.5816 88.4155 79.9503 88.0337 80.2099C87.4708 80.5875 86.8995 80.9503 86.3311 81.319Z" fill="#E45600"/>
<path d="M106.754 43.9169C106.754 47.0204 92.0919 49.5363 74.0049 49.5363C55.9178 49.5363 41.2554 47.0204 41.2554 43.9169C41.2554 40.8134 55.9178 38.2975 74.0049 38.2975C92.0919 38.2975 106.754 40.8134 106.754 43.9169Z" fill="#AD4130"/>
<path d="M101.111 33.9039C101.908 37.6639 97.5401 37.0944 94.016 35.9371C93.0908 35.6333 92.0414 36.4383 92.0845 37.4112C92.2632 41.4434 91.9263 48.0421 91.8647 48.0259C109.292 50.5451 108.821 33.6449 107.129 25.3598C106.569 22.6197 105.725 16.3089 107.737 12.8269C110.252 8.47453 113.228 10.5153 116.735 13.6498C119.508 16.1286 121.836 14.2852 122.675 13.377C122.91 13.1223 123.1 12.7684 123.169 12.4284C123.884 8.86931 117.331 4.67534 113.821 3.39699C111.976 2.77551 106.78 1.83697 101.579 8.49C95.7013 16.0095 99.8928 28.1634 101.111 33.9039Z" fill="url(#paint3_linear_347:2712)"/>
<path d="M60.6313 52.7715C62.4292 50.3407 61.5795 46.8745 58.8612 45.5509L54.5192 43.4366C51.8497 42.1367 48.6503 43.5282 47.7809 46.3671L43.8635 59.1589C43.1813 61.3867 44.1853 63.7841 46.2514 64.861L46.5124 64.997C48.622 66.0965 51.2181 65.4976 52.6328 63.585L60.6313 52.7715Z" fill="url(#paint4_linear_347:2712)"/>
<path d="M84.5112 45.6962C82.3435 43.6437 82.536 40.1365 84.9152 38.3336L88.9647 35.2649C91.2935 33.5002 94.6435 34.189 96.087 36.7295L104.39 51.3421C105.559 53.3997 105.067 56.0013 103.226 57.4892L103.139 57.5595C101.256 59.0824 98.5357 58.9759 96.7767 57.3104L84.5112 45.6962Z" fill="url(#paint5_linear_347:2712)"/>
<path d="M74.4581 15.2655C67.1858 14.6936 59.8397 18.298 56.3644 20.6403C55.9252 20.9364 55.349 20.9398 54.9207 20.628C51.2538 17.9589 45.5852 13.9908 43.3135 12.6262C42.7882 12.3106 42.2856 12.6337 42.1986 13.2404C35.3632 60.9273 75.3922 57.7904 79.1149 57.3975C79.3155 57.3763 79.4836 57.2984 79.6461 57.179C110.546 34.4668 94.8744 11.1297 82.1036 1.34243C81.4699 0.856746 80.5588 1.1435 80.2877 1.89453L75.7553 14.4522C75.5626 14.9862 75.0241 15.31 74.4581 15.2655Z" fill="url(#paint6_linear_347:2712)"/>
<path d="M75.4742 39.8269L71.7748 41.062C70.5482 41.4715 70.4304 43.1603 71.5883 43.736L73.9704 44.9205C74.6687 45.2678 75.5167 45.0005 75.8897 44.3155L77.2071 41.8959C77.8368 40.7393 76.7233 39.4099 75.4742 39.8269Z" fill="#7A60E7"/>
<path d="M77.504 30.9366C77.3086 27.8898 79.4166 25.1759 82.417 24.6116L82.6414 24.5694C85.9209 23.9525 89.0904 26.1685 89.7073 29.448C90.2933 32.5637 88.3818 35.6558 85.3158 36.4621L81.708 37.4108C79.9457 37.8742 78.1772 36.6837 77.9435 34.8764L77.573 32.0116L77.504 30.9366Z" fill="#EBC847"/>
<path d="M64.8253 34.6833C63.3579 31.9904 60.106 30.8238 57.2614 31.9698L57.0795 32.0431C53.9842 33.2902 52.5077 36.8645 53.7548 39.9599C54.9395 42.9004 58.2158 44.4758 61.2332 43.5033L64.7635 42.3655C66.505 41.8042 67.3519 39.836 66.5619 38.1856L65.3212 35.5936L64.8253 34.6833Z" fill="#EBC847"/>
<path d="M85.4585 30.2958C85.9773 32.07 85.4597 33.8704 85.1803 34.6347C85.1053 34.8398 84.8664 34.9097 84.6927 34.7773C84.0456 34.2839 82.6396 33.0459 82.1208 31.2716C81.6021 29.4974 82.1197 27.697 82.3991 26.9327C82.4741 26.7276 82.7129 26.6577 82.8866 26.7901C83.5338 27.2835 84.9397 28.5215 85.4585 30.2958Z" fill="#111314"/>
<path d="M61.3784 37.336C61.8972 39.1102 61.3796 40.9106 61.1002 41.675C61.0252 41.8801 60.7863 41.9499 60.6127 41.8175C59.9655 41.3241 58.5595 40.0861 58.0408 38.3119C57.522 36.5377 58.0396 34.7372 58.319 33.9729C58.394 33.7678 58.6329 33.698 58.8065 33.8304C59.4537 34.3238 60.8597 35.5618 61.3784 37.336Z" fill="#111314"/>
<mask id="mask0_347:2712" style="mask-type:alpha" maskUnits="userSpaceOnUse" x="41" y="-20" width="38" height="43">
<path d="M68.1072 21.1574C58.7738 24.8569 47.7063 19.0227 43.3874 8.12645C39.0685 -2.76981 43.1335 -14.602 52.467 -18.3015C61.8004 -22.001 72.8679 -16.1668 77.1868 -5.27057C81.5058 5.62569 77.4407 17.4579 68.1072 21.1574Z" fill="#C4C4C4"/>
</mask>
<g mask="url(#mask0_347:2712)">
<path d="M96.6319 11.9634L97.1176 13.0674C97.1128 13.3503 97.3474 13.5604 97.3524 13.8411L98.2479 16.8558C98.8001 18.4193 99.2183 20.0268 99.498 21.6608C100.085 25.1115 99.9209 28.6472 99.0163 32.0254C97.9617 35.9457 95.845 39.117 92.5788 41.5023C90.7687 42.8242 88.6724 43.6999 86.4597 44.0584C86.2871 44.0731 86.1231 44.1401 85.9896 44.2505C85.8561 44.3609 85.7595 44.5096 85.7126 44.6766C84.4148 48.0148 80.8001 49.7109 77.2855 48.3972C77.0253 48.2957 76.7381 48.1326 76.4839 48.4216L76.4907 48.4077C74.8866 49.7037 73.0619 50.6989 71.1042 51.3458C66.1842 53.0393 60.8041 52.8107 56.0377 50.7057C52.7418 49.2334 49.8772 46.9383 47.7187 44.0403C46.8704 42.9252 46.1817 41.7074 45.4653 40.4954C43.8674 37.8024 43.059 34.7141 43.1329 31.5849C43.1345 28.1148 44.5071 24.7889 46.9507 22.3339C49.6187 19.5832 52.9702 18.234 56.7011 17.6984C57.7465 17.5474 58.816 17.6082 59.8533 17.4586L59.8367 17.4551C60.4602 17.3587 61.0753 17.2144 61.6765 17.0237C61.7447 17.0089 61.8144 17.0029 61.8841 17.0058C61.9836 17.0197 62.0801 17.0502 62.1695 17.0962C62.8604 17.5548 63.6475 17.4094 64.3659 17.3136C65.9956 17.1 67.5212 16.5324 68.7377 15.3405C68.8713 15.2083 69.0614 15.0966 69.1077 14.9228C69.4316 13.7002 70.5355 13.1779 71.3124 12.363C72.2006 11.9722 72.8518 11.2536 73.6224 10.6986C74.5156 9.83056 75.4836 9.04326 76.5151 8.34583C76.9067 8.37877 76.9067 8.37877 76.6218 8.82815C76.764 8.82821 76.8256 8.70389 76.9224 8.63972C77.0446 8.56003 77.1494 8.45557 77.2643 8.364C80.1458 6.05935 83.3487 5.39112 86.8582 6.60985C88.9852 7.35031 90.662 8.76191 92.0755 10.5054C94.0577 12.9491 95.2366 15.7657 95.9636 18.7941C96.9525 22.9125 97.2769 27.0728 96.4501 31.2514C95.9164 34.1036 94.7262 36.7907 92.9737 39.0993C92.9002 39.2011 92.8154 39.2942 92.721 39.3768C92.6832 39.4086 92.5828 39.4203 92.6349 39.4946C92.6436 39.5145 92.7426 39.5142 92.7825 39.5658C92.1989 40.3842 91.3832 40.8662 90.4536 41.1823C89.9987 41.0347 90.2386 40.6936 90.3034 40.4686C90.5976 39.4232 90.8191 38.3645 91.0286 37.2981C91.2941 35.7993 91.4186 34.2786 91.4002 32.756C91.4018 32.6127 91.3009 32.5988 91.2334 32.5335C91.0818 32.2329 91.224 31.9587 91.3209 31.6892C92.8598 27.381 92.9505 23.023 91.6882 18.6359C91.5298 17.9658 91.2888 17.3179 90.971 16.7071C90.9006 17.5265 90.8573 18.2066 90.7973 18.8832C90.6857 20.1323 90.4567 21.3678 90.1133 22.5733C90.0514 22.795 90.0503 23.0914 89.6968 23.0958C89.4085 22.8813 89.3167 22.5501 89.212 22.229C87.8719 18.1008 85.3382 14.9817 81.3841 13.1442C79.3131 12.1725 76.9652 11.973 74.7633 12.5815C73.7516 12.8416 72.7843 13.2504 71.8928 13.7947C72.1185 13.7798 72.3368 13.709 72.5282 13.5886C75.1953 12.3979 77.822 12.6873 80.4144 13.8343C83.3192 15.1183 85.2806 17.4609 87.1334 19.9141C87.9162 20.9248 88.5525 22.0412 89.0233 23.23C89.1202 23.5081 89.2747 23.7626 89.4767 23.9767C89.6192 24.1732 89.5475 24.3776 89.4747 24.5695C88.5573 27.0022 87.2342 29.2607 85.5617 31.2486C85.3826 31.4635 85.2114 31.8823 84.7692 31.6167C84.2803 30.5055 84.128 29.2829 83.6454 28.1711C83.088 26.9042 82.5731 25.6359 81.64 24.5926C81.3927 24.2997 81.6302 24.0807 81.7711 23.8718C82.4377 22.8895 83.0769 21.8889 83.7521 20.9114C84.2799 20.1521 84.2316 20.0178 83.3497 19.6735C81.4267 18.9168 79.682 19.2264 78.1036 20.5409C77.9453 20.6709 77.8006 20.8318 77.5677 20.8263C77.3008 20.5722 77.5636 20.4155 77.7022 20.2897C77.9976 20.0258 77.908 19.8514 77.6441 19.6435C76.8211 18.9613 75.9269 18.3705 74.9771 17.8813C73.5279 17.1731 72.0311 16.5723 70.3903 16.4863C70.1233 16.472 69.8484 16.4201 69.5957 16.5853C69.6605 16.8354 69.885 16.7972 70.0487 16.8461C72.8323 17.6735 75.2499 19.094 77.2131 21.2545C77.2554 21.5513 77.0748 21.7776 76.9538 22.0166C76.0081 23.7849 76.0268 25.6344 76.5498 27.504C76.7216 28.1197 76.8821 28.7489 77.279 29.2936C77.676 29.8383 77.7331 29.8801 78.1412 29.2944C78.7833 28.3639 79.3831 27.4109 80.0173 26.4774C80.1952 26.2155 80.3412 25.8424 80.7926 26.0456C81.4335 26.6795 81.6913 27.5446 82.0782 28.3162C83.0741 30.3104 83.971 32.3589 84.5253 34.5344C84.605 34.7722 84.6496 35.0204 84.6576 35.2711C84.4041 35.6742 84.1937 35.3283 83.9911 35.2252C83.5466 34.9887 83.1809 34.5836 82.5896 34.4442C82.6054 34.83 82.7403 35.2016 82.9756 35.5078C83.2703 35.9893 83.5197 36.4972 83.7206 37.0248C83.9141 37.4645 83.7666 37.7952 83.3622 38.0271L83.2533 38.0879C81.9901 38.782 81.8551 38.7593 80.8472 37.7317C80.4548 37.3297 80.1425 36.7716 79.6153 36.6017C79.0317 36.4113 78.6404 37.0695 78.1009 37.2097C77.6483 37.3267 77.2768 37.7213 76.7577 37.5846C75.4945 35.6929 74.0978 33.8946 73.2011 31.7682C72.2154 29.4348 71.1876 27.1133 70.4499 24.6923C69.7608 22.4307 69.1186 20.1549 68.5234 17.865C68.4364 17.5252 68.3604 17.1763 68.0631 16.8924C67.7944 17.1532 67.8592 17.4573 67.8797 17.7291C68.0098 19.4422 68.338 21.1347 68.8576 22.7726C69.3363 24.3537 69.9174 25.902 70.5974 27.4076C71.6173 29.5864 72.7822 31.6942 74.0843 33.7169C74.9208 35.0208 75.827 36.2725 76.6875 37.5572C76.6667 37.8774 76.3851 37.9278 76.1741 38.0358C75.4259 38.4084 74.6407 38.7017 73.8314 38.911C73.7489 38.9227 73.6697 38.9514 73.5989 38.9954C73.528 39.0394 73.4672 39.0977 73.4201 39.1665C73.373 39.2354 73.3407 39.3133 73.3253 39.3954C73.3099 39.4775 73.3117 39.5619 73.3306 39.6433C73.3945 40.3518 73.4204 41.0619 73.4817 41.7693C73.5401 42.3917 73.3256 42.6632 72.7119 42.7669C72.3012 42.8374 71.8848 42.8802 71.472 42.9409C70.9222 43.0185 70.6668 42.8199 70.5196 42.2798C70.3725 41.7397 70.464 41.1983 70.4777 40.6565C70.5011 39.6763 70.5013 39.6719 69.5504 39.7684C69.1171 39.8151 68.6798 39.8397 68.2385 39.8423C68.0245 39.8457 67.7633 39.9131 67.6476 39.6206C67.4098 38.6883 66.7286 37.9922 66.3213 37.1497C65.5299 35.5127 64.7322 33.8806 64.1753 32.1448C64.254 31.6674 64.613 31.8615 64.8605 31.8952C66.4309 32.105 67.9982 32.3422 69.5665 32.5767C70.3893 32.6986 70.557 32.5557 70.3049 31.7723C69.5223 29.3322 67.1672 26.4132 63.7962 26.5181C63.7135 26.5341 63.6283 26.5328 63.5461 26.5143C63.4638 26.4959 63.3862 26.4607 63.3181 26.4109C63.2187 26.249 63.178 26.0579 63.2028 25.8698C63.1622 23.2652 63.3986 20.7224 64.8655 18.459C64.8862 18.425 64.8995 18.3871 64.9048 18.3476C64.91 18.3081 64.907 18.2679 64.896 18.2296C64.6188 18.2263 64.4825 18.4504 64.328 18.6134C62.3771 20.6923 61.7312 23.2252 61.7795 25.9991C61.7866 26.3481 61.9069 26.509 62.2802 26.388C62.4104 26.3458 62.5813 26.3182 62.6184 26.5395C62.5045 26.7145 62.3301 26.8412 62.1286 26.8954C60.6318 27.5237 59.826 28.7725 59.2341 30.1843C58.987 30.7833 59.1153 30.9623 59.7526 31.0837C60.635 31.2528 61.5172 31.4069 62.4096 31.5154C62.6941 31.5501 63.0084 31.5543 63.1275 31.9081C63.3209 32.8815 63.7718 33.7545 64.2123 34.6235C65.0023 36.23 65.9382 37.7605 67.0081 39.1956C67.0702 39.2794 67.1207 39.3713 67.1584 39.4686C67.187 39.901 66.8508 39.8567 66.601 39.8521C64.4331 39.8227 62.2798 39.4833 60.2066 38.8441C58.8767 38.4255 57.5895 37.8808 56.3624 37.2174C56.0816 37.0688 55.7134 36.991 55.63 36.5957C55.6445 35.9089 55.3339 35.296 55.1562 34.657C54.3212 31.6333 54.2685 28.4479 55.0031 25.4012C55.6174 22.772 57.0315 20.7069 59.6649 19.6649C60.0996 19.5164 60.5427 19.3936 60.9919 19.2971C61.1019 19.2681 61.265 19.2763 61.1854 19.0759C61.1058 18.8754 61.0249 19.6412 60.7016 19.6019C60.2256 19.5435 60.3308 18.9551 60.1246 19.1819C59.5878 19.431 59.0067 19.5009 58.4624 19.7231C56.5864 20.4837 55.3791 21.8875 54.5312 23.6625C53.4949 25.8271 53.2527 28.1024 53.5569 30.4636C53.7623 32.1058 54.1181 33.726 54.6197 35.3034C54.6795 35.4932 54.7901 35.6907 54.7196 35.9075C54.2467 36.1501 54.031 35.6597 53.6556 35.5116C53.524 35.7661 53.6657 35.9608 53.7658 36.1393C54.6692 37.7615 55.6319 39.3426 56.9375 40.6842C57.0793 40.8079 57.1889 40.9644 57.2566 41.14C57.5649 42.0024 58.1284 42.7005 58.7121 43.3856C60.7757 45.8086 63.1783 47.7973 66.1131 49.081C67.0303 49.4915 67.9938 49.7886 68.9823 49.9658C68.9832 49.9226 68.9751 49.8796 68.9585 49.8397C68.9419 49.7997 68.9173 49.7637 68.8861 49.7337C68.8549 49.7038 68.8178 49.6807 68.7773 49.6658C68.7367 49.6509 68.6935 49.6447 68.6505 49.6474C66.1219 49.2478 64.1264 47.8857 62.3062 46.1872C61.7864 45.7318 61.3036 45.2355 60.8625 44.7033C60.7094 44.5071 60.5156 44.331 60.5711 44.0409C60.8265 43.8183 61.0418 44.0088 61.2536 44.123C65.0689 46.311 69.1694 47.017 73.5141 46.5247C73.8792 46.4828 74.2545 46.376 74.6265 46.5213C75.0467 46.8625 75.5199 47.1323 76.0272 47.3199C75.9225 46.9988 75.6708 46.9604 75.516 46.819C75.3611 46.6776 75.1244 46.5852 75.3577 46.327C75.7833 45.9821 76.3309 45.968 76.8173 45.7907C77.0125 45.72 77.2241 45.6917 77.4202 45.6183C78.1614 45.3441 78.2085 45.2456 77.9122 44.5378C77.8244 44.3471 77.7482 44.1512 77.6843 43.9512C77.5478 43.4647 77.6653 43.0803 78.1435 42.8548C78.6576 42.6243 79.1593 42.3669 79.6463 42.0835C80.0621 41.8336 80.448 41.9468 80.7814 42.2883C80.8647 42.3822 80.9379 42.4847 80.9999 42.5939C81.6635 43.6909 81.6561 43.6791 82.7147 42.9951C83.5536 42.4532 84.2694 41.7344 85.1374 41.2293C85.4883 41.2089 85.4637 41.4811 85.4885 41.6992C85.5118 42.0742 85.5161 42.45 85.5014 42.8254C85.5019 42.9785 85.4668 43.2121 85.7056 43.2064C85.9445 43.2007 85.9302 42.9823 85.9337 42.8188C85.9457 42.1115 85.9843 41.4011 85.8216 40.708C85.9094 40.3151 86.231 40.0958 86.4791 39.8225C87.9946 38.2199 89.2608 36.398 90.2353 34.4177C90.3834 34.1128 90.4694 33.7401 90.8448 33.5944C91.0432 33.7123 91.0178 33.9093 91.0239 34.0945C91.0817 36.0133 90.4889 39.3134 89.7469 41.1627C89.9116 41.2285 90.1093 41.0314 90.2514 41.2173C90.1991 41.5881 89.8806 41.6331 89.609 41.7159C88.8463 41.9413 88.0848 42.2526 87.2652 42.2654C88.6864 42.3076 89.4109 40.5653 90.6312 39.8815C91.137 39.983 91.6968 40.3545 91.898 39.9549C92.6756 39.1808 92.5024 37.2394 93.1732 36.3546C94.0079 35.2922 95.964 35.9678 96.4775 34.7172C96.1824 35.4511 95.8214 36.1565 95.3988 36.8248C95.2709 37.0237 95.1764 37.2986 94.8403 37.1764C94.7545 36.9225 94.9121 36.7322 95.011 36.531C96.8049 32.8169 97.8955 28.9197 98.0157 24.7756C98.1115 22.1159 97.737 19.4592 96.9095 16.9284C96.0702 14.3988 94.9002 12.0578 93.173 10.0225C91.1825 7.6775 88.7787 5.98957 85.6694 5.4847C84.8971 5.36006 84.1303 5.41445 83.356 5.44192C83.1452 5.45257 82.892 5.59205 82.7536 5.29219C83.3643 4.8291 84.1105 4.83562 84.8153 4.72856C86.6129 4.43032 88.458 4.60566 90.1693 5.23735C91.7608 5.83321 93.1047 6.87501 94.2534 8.15389C95.1602 9.17196 95.858 10.3317 96.5783 11.4794C96.6188 11.5525 96.6444 11.633 96.6536 11.7161C96.6628 11.7992 96.6554 11.8833 96.6319 11.9634Z" fill="#FF790B"/>
<path d="M76.8022 37.5554C77.5716 37.2384 78.3524 36.9424 79.0396 36.463C79.427 36.1932 79.7162 36.2042 80.0452 36.5948C80.5066 37.1539 81.0663 37.633 81.5523 38.1747C81.6367 38.2919 81.7619 38.3731 81.9032 38.4022C82.0445 38.4312 82.1914 38.406 82.3148 38.3314C83.9483 37.6386 83.9515 37.6458 83.1272 36.0807C82.8767 35.5995 82.627 35.12 82.3801 34.6371C82.3124 34.4834 82.2416 34.3224 82.3934 34.1779C82.5452 34.0334 82.6969 34.148 82.8348 34.2363C83.4272 34.6233 84.019 35.0105 84.6102 35.3981C84.9682 35.3895 85.3133 35.3564 85.4747 34.9594C85.6856 34.6507 85.8947 34.3429 86.1001 34.0215C86.4094 33.5595 86.3632 33.3467 85.908 33.0267C85.6224 32.814 85.3118 32.6374 84.9832 32.501C84.6819 32.2471 84.58 31.9811 84.9262 31.6863C86.9654 29.48 88.5189 26.8689 89.4864 24.0219C89.4676 23.6871 89.5636 23.3561 89.7586 23.0839C90.4442 21.1567 90.6602 19.1512 90.7483 17.1242C90.7525 17.0209 90.7355 16.914 90.7492 16.8129C90.7709 16.6566 90.7347 16.4372 90.959 16.4184C91.1487 16.4041 91.1509 16.6146 91.203 16.7428C92.3698 19.5872 92.8745 22.6594 92.6785 25.726C92.5563 27.8176 92.225 29.8696 91.4224 31.8245C91.3511 32.0627 91.3029 32.3073 91.2786 32.5549C91.3168 32.9892 91.0386 33.2822 90.8166 33.6C89.8325 35.529 88.7798 37.4148 87.3331 39.0465C86.8391 39.6027 86.3365 40.1541 85.8392 40.7076C85.8072 40.8422 85.7376 40.9649 85.6385 41.0613C85.5394 41.1577 85.4149 41.2237 85.2795 41.2517C84.2694 41.9811 83.3265 42.7996 82.2763 43.4819C81.7958 43.7947 81.5007 43.9073 81.15 43.306C80.8988 42.8769 80.8364 42.2308 80.2432 42.0967C79.7051 41.9751 79.3449 42.4682 78.8948 42.6641C77.6317 43.2198 77.4424 43.0051 78.1197 44.5983C78.4789 45.444 78.595 45.326 77.6261 45.7135C76.8527 46.0214 76.0084 46.1143 75.2516 46.4797C75.1795 46.5665 75.0792 46.6253 74.9682 46.6457C74.8572 46.6661 74.7425 46.647 74.644 46.5916C72.968 46.6986 71.293 46.9153 69.5983 46.7888C66.5879 46.5973 63.6625 45.7044 61.0552 44.1813C60.9088 44.1037 60.7587 44.0336 60.6052 43.9713C59.2643 43.3221 58.0194 42.5486 57.1974 41.2481C56.373 40.2896 55.5064 39.3627 54.8497 38.2765C54.3656 37.4749 53.9115 36.6579 53.4555 35.8418C53.3449 35.6443 53.2128 35.398 53.47 35.2287C53.7272 35.0594 53.8392 35.3189 53.98 35.4577C54.1751 35.6752 54.4246 35.8367 54.7027 35.9255C54.9011 35.9572 55.0907 36.0304 55.2591 36.1405C55.4274 36.2506 55.5706 36.3951 55.6794 36.5644C56.6739 37.312 57.8195 37.7816 58.9604 38.2208C61.3232 39.1343 63.8263 39.6285 66.3571 39.6812C66.627 39.6877 66.8986 39.6589 67.1646 39.6368C67.2464 39.5804 67.3434 39.5503 67.4428 39.5506C67.5422 39.5508 67.6392 39.5814 67.7209 39.6382C68.5098 39.6802 69.3008 39.632 70.0785 39.4946C70.6559 39.3874 70.6777 39.6131 70.6822 40.0688C70.6877 40.7766 70.555 41.4783 70.667 42.1932C70.7457 42.6853 70.981 42.843 71.4263 42.7831C71.8325 42.7274 72.2455 42.6234 72.6577 42.591C73.2161 42.5483 73.4128 42.3149 73.3358 41.7336C73.228 40.9305 73.2233 40.1122 73.1504 39.3002C73.1222 38.9866 73.2267 38.8716 73.5335 38.7905C74.6264 38.5154 75.6842 38.1159 76.6861 37.5999C76.7049 37.5399 76.7446 37.5224 76.8022 37.5554Z" fill="#3B1D2C"/>
<path d="M76.6464 8.5258C78.4944 7.05117 80.4937 5.87629 82.8359 5.3824C83.8298 5.42353 84.8157 5.25483 85.818 5.40862C88.3835 5.80565 90.4749 7.0728 92.3054 8.8039C94.4779 10.8651 95.9247 13.4158 96.93 16.1974C98.2841 19.9439 98.5625 23.8125 97.9881 27.7589C97.5815 30.5475 96.6978 33.1861 95.6227 35.7732C95.4103 36.2739 95.0559 36.6928 94.9243 37.2248C94.9418 37.2645 94.9767 37.3095 94.9601 37.3405C94.452 38.2903 93.8029 39.1017 92.771 39.5298C92.6919 39.5517 92.5752 39.616 92.5402 39.5904C92.4146 39.4819 92.5762 39.4216 92.621 39.3609C93.2228 38.612 93.7661 37.8182 94.2462 36.9865C95.5786 34.5429 96.4116 31.861 96.6965 29.0965C97.0304 25.4373 96.7063 21.7498 95.7397 18.208C94.7337 14.4117 93.0042 11.007 89.8578 8.51235C87.2288 6.43653 84.226 5.75351 80.9682 6.6696C79.4517 7.09764 78.1179 7.95597 76.9285 9.00944C76.7718 9.14516 76.6364 9.29957 76.3902 9.26133C76.3593 8.91074 76.6588 8.77033 76.8155 8.54623C76.8155 8.54623 76.7854 8.51209 76.7721 8.51146C76.7299 8.51335 76.688 8.51814 76.6464 8.5258Z" fill="#F96500"/>
<path d="M77.5188 20.8496C78.3404 20.0954 79.2198 19.4676 80.3557 19.2521C81.5974 19.0183 82.7546 19.2513 83.8909 19.7495C84.3838 19.9666 84.43 20.2522 84.1397 20.6859C83.2829 21.9655 82.4457 23.2604 81.5999 24.5504C81.426 25.1415 81.0795 25.6651 80.6052 26.0535C79.7977 27.2449 78.9902 28.4348 78.1828 29.6233C77.7683 30.2288 77.5894 30.2272 77.2412 29.5775C75.7539 26.8122 75.5563 24.0392 77.1849 21.2721C77.1197 20.997 77.3042 20.9136 77.5188 20.8496Z" fill="#3B1D2C"/>
<path d="M51.1024 21.452L52.0166 21.0498C50.9701 21.9033 50.0465 22.8955 49.2722 23.998C47.9258 25.9277 47.5631 28.1041 47.5401 30.3683C47.5511 32.4549 47.8738 34.5256 48.4977 36.513C48.9595 38.0103 49.6315 39.4341 50.4939 40.7426C51.0903 41.6666 51.6355 42.6131 52.2768 43.5152C53.4106 45.1 54.8583 46.4066 56.3013 47.7022C57.1572 48.4867 58.0748 49.2023 59.0455 49.8426C58.7104 49.9339 58.5125 49.6629 58.2572 49.7472C57.5402 49.8038 57.0566 49.3695 56.5609 48.962C55.3044 48.2465 54.1661 47.3451 53.185 46.2886C51.8526 44.9119 50.5068 43.5346 49.4893 41.8965C48.5477 40.3218 47.7777 38.6513 47.1919 36.9128C46.7474 35.7218 46.451 34.4803 46.3094 33.2157C45.9975 30.0267 46.7266 27.0809 48.3491 24.3157C48.7918 23.6061 49.2861 22.9293 49.8283 22.2909C50.0432 21.698 50.4782 21.4419 51.1024 21.452Z" fill="#F96500"/>
<path d="M89.7845 23.1218C89.7698 23.4519 89.6764 23.7737 89.5121 24.0601C89.2114 24.1406 89.1594 23.9 89.0862 23.7141C87.9214 20.7041 85.919 18.2591 83.5948 16.1307C80.861 13.6296 77.602 12.4524 73.8525 13.29C73.1711 13.4407 72.5421 13.8233 71.8876 14.094C71.7648 14.148 71.6009 14.2849 71.5019 14.1039C71.4184 13.9484 71.5758 13.8554 71.6968 13.7633C72.949 12.9325 74.3768 12.4041 75.8683 12.2195C78.9277 11.7871 81.6138 12.7153 84.0512 14.5477C85.7157 15.8065 87.0974 17.4018 88.1066 19.2296C88.8124 20.4762 89.2063 21.832 89.7845 23.1218Z" fill="#F96500"/>
<path d="M55.6356 36.7137C55.2808 36.5462 54.9505 36.3313 54.6539 36.0749C53.6382 33.3226 53.0254 30.4753 53.3052 27.5467C53.5851 24.6181 54.672 22.0201 57.2274 20.275C58.1206 19.6776 59.1394 19.2937 60.2046 19.1533C60.3609 19.0553 60.539 18.9977 60.723 18.9854C60.9069 18.9732 61.0909 19.0069 61.2584 19.0833C61.3644 19.2206 61.6054 19.0929 61.6942 19.3242C61.363 19.6019 60.9188 19.5637 60.5399 19.659C58.1068 20.2818 56.5042 21.8261 55.6332 24.1063C54.4132 27.2842 54.3711 30.5559 55.0753 33.8476C55.2615 34.7195 55.5375 35.5736 55.7939 36.4277C55.8643 36.6368 55.8333 36.7045 55.6356 36.7137Z" fill="#F96500"/>
<path d="M76.8067 37.5933L76.6957 37.6422C75.7529 36.7517 75.0667 35.6557 74.4259 34.5483C73.9139 33.6664 73.3002 32.8595 72.7985 31.9774C72.5639 31.5636 72.2702 31.1781 72.069 30.7496C71.2717 29.052 70.3402 27.4177 69.6926 25.6542C68.736 23.0402 67.8705 20.399 67.7327 17.5906C67.7196 17.4879 67.7141 17.3844 67.7164 17.2811C67.7425 17.0155 67.7365 16.667 68.0336 16.616C68.3308 16.5649 68.379 16.9228 68.4734 17.1376C68.8681 18.0776 69.055 19.0809 69.3366 20.0555C69.8717 21.8836 70.3412 23.7297 70.9603 25.5337C71.595 27.3826 72.3343 29.1919 73.0902 30.9961C73.8804 32.9406 74.9293 34.7696 76.207 36.4312C76.4876 36.7774 76.6065 37.2054 76.8067 37.5933Z" fill="#F96500"/>
<path d="M63.4172 26.3031C63.1858 26.4121 62.9324 26.4664 62.6764 26.4619C62.6375 26.4512 62.5941 26.4253 62.5588 26.4323C61.6939 26.6242 61.7281 26.6242 61.7094 25.7091C61.6715 24.1139 61.9671 22.5294 62.5772 21.0577C63.0601 19.9574 63.7668 18.9708 64.6521 18.161C64.7849 18.0362 64.959 17.8889 65.1421 18.014C65.3475 18.1657 65.1922 18.3412 65.0885 18.4982C63.6435 20.6593 63.4165 23.1157 63.4094 25.621C63.4037 25.8506 63.4088 26.0754 63.4172 26.3031Z" fill="#F96500"/>
<path d="M77.5479 20.8291L77.2111 21.2501C76.7636 21.0861 76.4877 20.709 76.1543 20.4024C74.3578 18.7729 72.186 17.6096 69.83 17.0148C69.6321 16.9623 69.306 16.9661 69.3443 16.6463C69.3826 16.3265 69.7004 16.4016 69.91 16.3975C70.7448 16.3591 71.5795 16.465 72.3773 16.7105C74.3598 17.3056 76.2064 18.2793 77.8147 19.5774C78.2406 19.9228 78.2757 20.135 77.8134 20.4373C77.7405 20.4762 77.6783 20.5323 77.632 20.6005C77.5858 20.6688 77.5569 20.7473 77.5479 20.8291Z" fill="#F96500"/>
<path d="M57.0063 18.7723C55.7954 19.007 54.5971 19.3103 53.4178 19.6807L53.0538 19.6256C54.2962 18.9622 55.5863 18.6139 56.894 18.3153C57.0806 18.2722 57.3148 18.288 57.3519 18.4952C57.3889 18.7024 57.1254 18.6789 57.0063 18.7723Z" fill="#F3730F"/>
<path d="M73.2436 3.49992C73.1452 3.198 72.9402 2.94223 72.6666 2.77981C72.4868 2.75551 72.4095 2.8412 72.4191 3.01582C72.8331 3.6116 73.3334 4.16721 73.3368 4.95867C73.3545 5.1476 73.3465 5.33817 73.3128 5.52517C73.1762 5.88483 73.3323 6.3333 72.978 6.6271C72.7761 6.87319 72.7492 7.25565 72.3911 7.38305C71.4171 5.79034 70.5348 5.25846 69.1643 5.42613C68.9045 5.48712 68.6581 5.59554 68.4376 5.74587C67.5105 6.40372 67.2486 7.33133 67.4463 8.38208C67.6836 9.64598 68.8749 10.4708 70.0389 10.2431C70.4197 10.1229 70.7593 9.90891 71.129 9.76348L71.2998 9.68835C71.3835 9.66661 71.4206 9.51451 71.5459 9.59728C71.2716 10.9699 70.2026 12.759 69.2239 13.487C69.2038 13.5497 69.2446 13.6524 69.2363 13.6582C69.1557 13.7066 69.1514 13.618 69.1251 13.5778C69.0788 13.512 69.048 13.4372 68.9999 13.3722C68.8405 13.1194 68.6074 12.9214 68.3316 12.8043C68.2207 12.8186 68.1814 12.7389 68.1438 12.6585C67.4226 12.2022 66.8454 11.6395 66.575 10.7931C66.1869 9.6039 66.0696 8.34241 66.2317 7.09996C66.3361 6.35155 66.6929 5.68388 66.8013 4.94449C66.8956 4.75439 66.9521 4.54805 66.9676 4.33689C66.9303 3.96116 66.8496 3.61523 66.4161 3.50216L66.3019 3.44467C66.2166 3.39695 66.1216 3.36879 66.0238 3.36224C65.926 3.35569 65.8279 3.3709 65.7366 3.40678L65.3196 3.57299C65.1721 3.76504 64.8831 3.73917 64.7446 3.94667C63.5679 4.8307 62.7949 6.02623 62.133 7.30651C60.6938 10.1075 60.2631 12.9927 61.3607 16.0049C61.4008 16.1603 61.4697 16.3069 61.5638 16.437C61.7899 16.665 61.7619 17.0351 62.0227 17.2435C62.2089 17.5581 62.5434 17.5941 62.8363 17.6139C64.3047 17.6879 65.7693 17.3849 67.0896 16.7338C67.9805 16.2944 68.9388 15.7715 69.3592 14.8345C69.5879 14.3137 69.9383 13.8544 70.3811 13.495C70.7395 13.1908 71.0601 12.845 71.3975 12.5177C71.681 12.3391 71.7093 11.9992 71.8853 11.7536C72.0092 11.3845 72.1338 11.0172 72.2559 10.6489C72.4717 10.2465 72.5636 9.78996 72.5199 9.33683C72.4888 8.78008 72.6784 8.23238 73.048 7.81158C73.0448 7.75216 73.0546 7.69268 73.0766 7.63725C73.0986 7.58181 73.1324 7.53172 73.1756 7.4904C73.7949 6.57151 74.0731 5.58718 73.7911 4.48299C73.6226 4.15418 73.6072 3.72997 73.2436 3.49992ZM71.7151 8.26658C71.6928 8.85173 71.0878 8.89598 70.8038 9.23639C70.6125 9.40929 70.3702 9.51589 70.1135 9.54013C69.4067 9.85108 68.9376 9.46491 68.4898 9.00901C68.2796 8.74324 68.141 8.42824 68.0871 8.0937C67.9743 7.37405 68.174 6.77331 68.7967 6.355C69.3338 5.99371 69.8775 6.03677 70.4137 6.36329C70.6399 6.50293 70.8721 6.63136 71.1022 6.76499C71.3323 6.89863 71.2888 7.18925 71.4737 7.33846C71.4752 7.37541 71.4804 7.4121 71.4894 7.44794C71.4957 7.46238 71.5211 7.47064 71.5365 7.48108C71.507 7.7591 71.8186 7.96462 71.7135 8.26297L71.7151 8.26658Z" fill="#31A76C"/>
<path d="M71.2109 9.66515C70.8592 9.94308 70.4152 10.1384 69.9727 10.21L71.2109 9.66515Z" fill="#3D5E29"/>
<path d="M68.032 8.10805L68.4406 9.03678C68.3278 8.9179 68.2306 8.76949 68.1589 8.60647C68.0872 8.44344 68.0434 8.27154 68.032 8.10805Z" fill="#3D5E29"/>
<path d="M70.0762 9.60934L70.7727 9.30289C70.6965 9.39617 70.5855 9.47765 70.4585 9.53351C70.3315 9.58937 70.1964 9.61616 70.0762 9.60934Z" fill="#3D5E29"/>
<path d="M71.7283 8.32804C71.6713 8.07463 71.6133 7.82373 71.557 7.57206C71.6245 7.82084 71.9115 8.02089 71.7283 8.32804Z" fill="#3D5E29"/>
<path d="M71.4558 7.3403C71.2633 7.19179 71.1258 6.99878 71.0549 6.77768C71.383 6.85804 71.3447 7.13852 71.4558 7.3403Z" fill="#3D5E29"/>
<path d="M71.7531 9.51801C71.6087 9.34418 71.4838 9.57934 71.3476 9.56233C71.3561 9.52074 71.374 9.4807 71.4001 9.44499C71.4263 9.40928 71.46 9.37876 71.499 9.35553C71.538 9.33231 71.5813 9.31695 71.626 9.31052C71.6706 9.30408 71.7155 9.30671 71.7575 9.31825C71.8551 9.34127 71.8191 9.44722 71.7531 9.51801Z" fill="#3D5E29"/>
<path d="M58.8458 6.07559C58.5415 5.76738 58.1508 5.55732 57.7238 5.47244C57.2968 5.38756 56.8531 5.43175 56.4497 5.59932C55.2437 6.07398 54.756 7.08495 54.5561 8.27069C54.4268 9.04869 54.5668 9.81151 54.7242 10.5645C54.8083 10.9581 54.6823 11.0867 54.2722 11.0734C53.9322 11.0615 53.6302 10.8887 53.2912 10.9087C53.0345 10.8193 52.7827 10.6718 52.4895 10.7018L52.363 10.6563C52.2 10.4952 52.0082 10.3657 51.7972 10.2745C51.1086 9.84501 50.5373 9.25388 50.1334 8.55267C49.9531 8.24668 50 8.11625 50.3142 7.92635C50.9584 7.53314 51.5833 7.08603 51.6545 6.23027L51.6499 6.24951C51.6764 5.71693 51.7417 5.17375 51.1722 4.84746C50.3118 4.30472 49.6635 4.42203 49.0271 5.23802L48.9639 5.39069C48.942 5.60267 48.8098 5.7964 48.8514 6.01922C48.6871 6.41652 48.807 6.82228 48.8867 7.19618C48.9664 7.57008 48.8403 7.63417 48.5451 7.64995C47.9245 7.63242 47.4779 7.23481 46.977 6.95582L46.9901 6.96083C46.362 6.32877 46.0937 5.52125 45.8755 4.68949C45.6404 4.32799 45.8389 3.97377 45.9167 3.61232C45.3067 3.88071 45.1871 4.50804 45.5516 5.51434C45.7881 6.48656 46.2241 7.31936 47.1341 7.83165C47.4719 8.0845 47.8712 8.24431 48.2921 8.29509C48.4813 8.31979 48.6732 8.31659 48.8617 8.28557L48.849 8.29117C49.1473 8.26758 49.2538 8.45534 49.3747 8.69059C49.8759 9.68673 50.6588 10.5146 51.6282 11.0733C52.5975 11.6321 53.7115 11.8976 54.8345 11.8377C55.0467 11.8261 55.1768 11.855 55.2791 12.0726C56.1099 13.8079 57.1927 15.3204 59.0245 16.1396C59.9207 16.5761 60.8706 16.8954 61.8507 17.0897L61.9543 17.0634C61.9975 16.7861 61.7847 16.5741 61.7656 16.3134L61.5358 15.8355C61.4331 16.096 61.2644 16.2067 60.9676 16.0704C60.4738 15.8572 59.9796 15.6032 59.4771 15.4196C57.9996 14.8772 57.1543 13.682 56.3096 12.5081C55.7964 11.7911 55.8683 11.7272 56.681 11.3761C56.8592 11.3107 57.0331 11.2341 57.2018 11.147C58.3245 10.483 59.3684 9.76322 59.6243 8.34407C59.7083 7.9299 59.6806 7.50178 59.5438 7.1033C59.407 6.70483 59.1662 6.35022 58.8458 6.07559ZM49.5409 7.28505C49.3592 6.7277 49.3759 6.12393 49.5881 5.57453C49.7209 5.26859 50.0041 5.17627 50.3134 5.17792C50.4287 5.17206 50.5433 5.19527 50.6467 5.24538C50.7501 5.2955 50.8388 5.3709 50.9047 5.46454C51.2451 6.20375 50.5138 7.38219 49.8049 7.47023C49.775 7.47798 49.7438 7.47918 49.7135 7.47374C49.6831 7.4683 49.6544 7.45635 49.6293 7.43873C49.6041 7.4211 49.5832 7.39823 49.568 7.37169C49.5527 7.34515 49.5434 7.31559 49.5409 7.28505ZM58.3421 9.2978C57.7175 10.0436 56.8779 10.5815 55.9377 10.8378C55.7231 10.8935 55.515 10.9786 55.4513 10.6708C55.1886 9.4217 54.9213 8.17678 55.7731 7.00558C56.1577 6.47687 56.6158 6.10527 57.2895 6.17911C57.9631 6.25296 58.5116 6.59067 58.7298 7.20503C59.1287 8.04764 58.8252 8.74086 58.3421 9.2978Z" fill="#31A76C"/>
<path d="M56.7247 23.796C51.7941 23.0709 51.4074 20.1907 51.9512 18.9621L58.1748 17.9349H64.9422L71.1054 13.8261C72.9785 11.6911 76.0601 7.96502 78.7792 7.11908C80.9395 6.44697 83.3109 10.5028 81.317 12.5572C79.7218 14.2007 76.7046 16.8271 75.3955 17.9349L73.0718 19.3686C70.8409 20.7451 68.493 21.9512 65.978 22.69C63.2863 23.4806 59.7339 24.2385 56.7247 23.796Z" fill="#FF790B"/>
</g>
<rect x="13.5" y="71.0757" width="27.8592" height="27.8592" rx="13.9296" transform="rotate(-14.7133 13.5 71.0757)" fill="url(#paint7_linear_347:2712)"/>
<g clip-path="url(#clip1_347:2712)">
<path d="M30.0715 83.5456L31.5195 84.6805L32.3219 87.7361L27.809 87.0036L25.7362 79.1098C25.7056 78.9933 25.7282 78.8685 25.7988 78.7672L26.1554 78.2523C26.1897 78.2023 26.2338 78.1599 26.2851 78.1276C26.3364 78.0954 26.3938 78.074 26.4537 78.0649C26.5136 78.0557 26.5747 78.0589 26.6333 78.0743C26.6919 78.0897 26.7467 78.1169 26.7944 78.1543L31.7431 82.0136L34.1034 82.7231L32.3557 76.0675L30.3229 75.6428L31.3314 79.8397L30.0489 78.8277L28.8029 74.2583L33.3175 75.0739L35.3808 82.9313L34.6644 83.9245L31.363 83.0725L27.0664 79.7197L28.695 86.0998L30.854 86.5748L30.0715 83.5456Z" fill="white"/>
</g>
<rect x="115.673" y="68" width="24.5659" height="24.5659" rx="12.283" transform="rotate(14.0869 115.673 68)" fill="url(#paint8_linear_347:2712)"/>
<g clip-path="url(#clip2_347:2712)">
<path d="M123.18 84.6753L123.817 86.1674L123.139 88.8694L119.963 86.3862L121.715 79.406C121.741 79.303 121.811 79.2162 121.909 79.1679L122.403 78.9215C122.451 78.8974 122.503 78.8834 122.556 78.8803C122.61 78.8772 122.663 78.885 122.713 78.9034C122.763 78.9217 122.809 78.9502 122.848 78.9869C122.887 79.0237 122.917 79.0681 122.938 79.1172L125.123 84.2016L126.645 85.7525L128.122 79.8672L126.732 78.6755L125.728 82.3469L125.167 81.0201L126.145 76.9599L129.287 79.508L127.544 86.456L126.568 86.9192L124.379 84.8584L122.484 80.4424L121.032 86.0642L122.498 87.3484L123.18 84.6753Z" fill="white"/>
</g>
<rect x="91.5" y="80.9365" width="20" height="19" rx="9.5" fill="url(#paint9_linear_347:2712)"/>
<g clip-path="url(#clip3_347:2712)">
<path d="M100.733 92.0325L101.531 93.0319V95.1865L98.5312 93.9216V88.3555C98.5312 88.2734 98.5698 88.195 98.6373 88.1404L98.9788 87.8625C99.0116 87.8355 99.05 87.8151 99.0915 87.8028C99.133 87.7904 99.1768 87.7862 99.22 87.7905C99.2633 87.7949 99.3051 87.8075 99.343 87.8279C99.3809 87.8482 99.414 87.8756 99.4403 87.9086L102.173 91.3115L103.682 92.1883V87.4953L102.348 86.8631L102.283 89.8062L101.577 88.9165L101.545 85.6865L104.531 87.0065V92.5469L103.853 93.078L101.716 91.9442L99.3438 88.9882L99.3113 93.4789L100.724 94.1662L100.733 92.0325Z" fill="white"/>
</g>
</g>
<defs>
<linearGradient id="paint0_linear_347:2712" x1="74.0052" y1="59.9292" x2="74.0052" y2="90.6243" gradientUnits="userSpaceOnUse">
<stop stop-color="#AD4130"/>
<stop offset="1" stop-color="#7B4B28"/>
</linearGradient>
<linearGradient id="paint1_linear_347:2712" x1="61.1345" y1="56.6662" x2="61.1345" y2="69.476" gradientUnits="userSpaceOnUse">
<stop stop-color="#AD4130"/>
<stop offset="1" stop-color="#7B4B28"/>
</linearGradient>
<linearGradient id="paint2_linear_347:2712" x1="85.8497" y1="57.3914" x2="85.8497" y2="70.2011" gradientUnits="userSpaceOnUse">
<stop stop-color="#AD4130"/>
<stop offset="1" stop-color="#7B4B28"/>
</linearGradient>
<linearGradient id="paint3_linear_347:2712" x1="115.682" y1="10.4615" x2="99.0598" y2="42.7506" gradientUnits="userSpaceOnUse">
<stop stop-color="#3C3E3D"/>
<stop offset="1" stop-color="#0F1012"/>
</linearGradient>
<linearGradient id="paint4_linear_347:2712" x1="44.6798" y1="67.4304" x2="53.4609" y2="45.7778" gradientUnits="userSpaceOnUse">
<stop stop-color="#474948"/>
<stop offset="1" stop-color="#0E0F11"/>
</linearGradient>
<linearGradient id="paint5_linear_347:2712" x1="105.615" y1="60.0034" x2="91.1146" y2="37.4037" gradientUnits="userSpaceOnUse">
<stop stop-color="#474948"/>
<stop offset="1" stop-color="#0E0F11"/>
</linearGradient>
<linearGradient id="paint6_linear_347:2712" x1="62.946" y1="5.62944" x2="78.1769" y2="57.7207" gradientUnits="userSpaceOnUse">
<stop stop-color="#0C0D0F"/>
<stop offset="1" stop-color="#3F4140"/>
</linearGradient>
<linearGradient id="paint7_linear_347:2712" x1="13.5" y1="71.0757" x2="41.3592" y2="98.935" gradientUnits="userSpaceOnUse">
<stop stop-color="#6DF5B1"/>
<stop offset="1" stop-color="#31A76C"/>
</linearGradient>
<linearGradient id="paint8_linear_347:2712" x1="115.673" y1="68" x2="140.239" y2="92.5659" gradientUnits="userSpaceOnUse">
<stop stop-color="#6DF5B1"/>
<stop offset="1" stop-color="#31A76C"/>
</linearGradient>
<linearGradient id="paint9_linear_347:2712" x1="91.5" y1="80.9365" x2="110.475" y2="100.91" gradientUnits="userSpaceOnUse">
<stop stop-color="#6DF5B1"/>
<stop offset="1" stop-color="#31A76C"/>
</linearGradient>
<clipPath id="clip0_347:2712">
<rect width="150" height="100" fill="white" transform="translate(0.5)"/>
</clipPath>
<clipPath id="clip1_347:2712">
<rect width="13.9296" height="13.9296" fill="white" transform="translate(22.0054 76.0432) rotate(-14.7133)"/>
</clipPath>
<clipPath id="clip2_347:2712">
<rect width="12.283" height="12.283" fill="white" transform="translate(120.135 75.4516) rotate(14.0869)"/>
</clipPath>
<clipPath id="clip3_347:2712">
<rect width="10" height="9.50001" fill="white" transform="translate(96.5 85.6865)"/>
</clipPath>
</defs>
</svg>
