<svg width="7" height="15" viewBox="0 0 7 15" fill="none" xmlns="http://www.w3.org/2000/svg">
<path d="M6.69013 7.48902C6.69055 7.25578 6.61547 7.02974 6.47793 6.85014L1.86493 0.860621C1.70833 0.656761 1.4833 0.528561 1.23934 0.504224C0.995378 0.479887 0.752475 0.561406 0.564065 0.730848C0.375655 0.90029 0.257171 1.14378 0.234678 1.40774C0.212185 1.6717 0.287526 1.93452 0.444127 2.13838L4.57738 7.48902L0.591744 12.8397C0.515107 12.9418 0.457877 13.0593 0.423342 13.1854C0.388808 13.3115 0.37765 13.4438 0.39051 13.5746C0.403371 13.7054 0.439995 13.8321 0.498279 13.9475C0.556563 14.063 0.635358 14.1648 0.730134 14.2472C0.824997 14.3386 0.936287 14.4079 1.05703 14.4506C1.17777 14.4933 1.30537 14.5086 1.43183 14.4954C1.55828 14.4823 1.68087 14.4411 1.79191 14.3743C1.90295 14.3076 2.00005 14.2167 2.07713 14.1074L6.53329 8.11792C6.64909 7.93316 6.70431 7.71173 6.69013 7.48902Z" fill="#B0B0BD"/>
</svg>
