<svg width="6" height="10" viewBox="0 0 6 10" fill="none" xmlns="http://www.w3.org/2000/svg">
<path d="M5.79105 0.189898C5.52537 -0.0632995 5.08256 -0.0632995 4.81688 0.189898L0.16187 4.62614C0.110558 4.67494 0.0698488 4.7329 0.042073 4.79672C0.0142971 4.86053 0 4.92894 0 4.99802C0 5.06711 0.0142971 5.13551 0.042073 5.19933C0.0698488 5.26314 0.110558 5.32111 0.16187 5.36991L4.81688 9.80614C5.08809 10.0646 5.52537 10.0646 5.79659 9.80614C6.0678 9.54767 6.0678 9.13095 5.79659 8.87248L1.7283 5.00066L5.79659 1.12357C6.06227 0.865093 6.06227 0.448371 5.79105 0.189898Z" fill="white"/>
</svg>
