<svg width="15" height="15" viewBox="0 0 15 15" fill="none" xmlns="http://www.w3.org/2000/svg">
<path d="M7.5 0C3.35826 0 0 3.35826 0 7.5C0 11.6417 3.35826 15 7.5 15C11.6417 15 15 11.6417 15 7.5C15 3.35826 11.6417 0 7.5 0ZM7.5 11.8527C7.13002 11.8527 6.83036 11.553 6.83036 11.183C6.83036 10.8131 7.13002 10.5134 7.5 10.5134C7.86998 10.5134 8.16964 10.8131 8.16964 11.183C8.16964 11.553 7.86998 11.8527 7.5 11.8527ZM8.55301 8.17801C8.4014 8.23656 8.27095 8.33943 8.17868 8.47322C8.0864 8.60701 8.03658 8.76549 8.03571 8.92801V9.30804C8.03571 9.3817 7.97545 9.44196 7.90179 9.44196H7.09821C7.02455 9.44196 6.96429 9.3817 6.96429 9.30804V8.9481C6.96429 8.56138 7.07645 8.17969 7.29743 7.86161C7.51339 7.55022 7.81473 7.3125 8.16964 7.1769C8.73884 6.95759 9.10714 6.48047 9.10714 5.95982C9.10714 5.22154 8.3856 4.62054 7.5 4.62054C6.6144 4.62054 5.89286 5.22154 5.89286 5.95982V6.08705C5.89286 6.16071 5.83259 6.22098 5.75893 6.22098H4.95536C4.8817 6.22098 4.82143 6.16071 4.82143 6.08705V5.95982C4.82143 5.3019 5.10937 4.6875 5.6317 4.23047C6.13393 3.79018 6.79688 3.54911 7.5 3.54911C8.20312 3.54911 8.86607 3.79185 9.3683 4.23047C9.89062 4.6875 10.1786 5.3019 10.1786 5.95982C10.1786 6.92746 9.54074 7.79799 8.55301 8.17801Z" fill="#C3C3C3"/>
</svg>
