<svg width="13" height="13" viewBox="0 0 13 13" fill="none" xmlns="http://www.w3.org/2000/svg">
<path d="M6.4998 0.550003C3.21402 0.550003 0.549805 3.21422 0.549805 6.5C0.549805 9.78578 3.21402 12.45 6.4998 12.45C9.78559 12.45 12.4498 9.78578 12.4498 6.5C12.4498 3.21422 9.78559 0.550003 6.4998 0.550003ZM6.4998 9.95313C6.20629 9.95313 5.96855 9.71539 5.96855 9.42188C5.96855 9.12836 6.20629 8.89063 6.4998 8.89063C6.79332 8.89063 7.03105 9.12836 7.03105 9.42188C7.03105 9.71539 6.79332 9.95313 6.4998 9.95313ZM7.3352 7.03789C7.21492 7.08434 7.11143 7.16595 7.03822 7.27209C6.96501 7.37823 6.92549 7.50396 6.9248 7.63289V7.93438C6.9248 7.99282 6.87699 8.04063 6.81855 8.04063H6.18106C6.12262 8.04063 6.0748 7.99282 6.0748 7.93438V7.64883C6.0748 7.34203 6.16379 7.03922 6.3391 6.78688C6.51043 6.53985 6.74949 6.35125 7.03105 6.24368C7.48262 6.06969 7.77481 5.69117 7.77481 5.27813C7.77481 4.69243 7.20238 4.21563 6.4998 4.21563C5.79723 4.21563 5.2248 4.69243 5.2248 5.27813V5.37907C5.2248 5.4375 5.17699 5.48532 5.11855 5.48532H4.48105C4.42262 5.48532 4.3748 5.4375 4.3748 5.37907V5.27813C4.3748 4.75618 4.60324 4.26875 5.01762 3.90618C5.41605 3.55688 5.94199 3.36563 6.4998 3.36563C7.05762 3.36563 7.58355 3.55821 7.98199 3.90618C8.39637 4.26875 8.6248 4.75618 8.6248 5.27813C8.6248 6.04578 8.11879 6.73641 7.3352 7.03789Z" fill="#C3C3C3"/>
</svg>
