<svg width="24" height="25" viewBox="0 0 24 25" fill="none" xmlns="http://www.w3.org/2000/svg">
<path d="M8.30993 12.489C8.30951 12.2558 8.38459 12.0297 8.52213 11.8501L13.1351 5.86062C13.2917 5.65676 13.5168 5.52856 13.7607 5.50422C14.0047 5.47989 14.2476 5.56141 14.436 5.73085C14.6244 5.90029 14.7429 6.14378 14.7654 6.40774C14.7879 6.6717 14.7125 6.93452 14.5559 7.13838L10.4227 12.489L14.4083 17.8397C14.485 17.9418 14.5422 18.0593 14.5767 18.1854C14.6113 18.3115 14.6224 18.4438 14.6096 18.5746C14.5967 18.7054 14.5601 18.8321 14.5018 18.9475C14.4435 19.063 14.3647 19.1648 14.2699 19.2472C14.1751 19.3386 14.0638 19.4079 13.943 19.4506C13.8223 19.4933 13.6947 19.5086 13.5682 19.4954C13.4418 19.4823 13.3192 19.4411 13.2082 19.3743C13.0971 19.3076 13 19.2167 12.9229 19.1074L8.46677 13.1179C8.35097 12.9332 8.29575 12.7117 8.30993 12.489Z" fill="#B0B0BD"/>
</svg>
