<svg width="9" height="5" viewBox="0 0 9 5" fill="none" xmlns="http://www.w3.org/2000/svg">
<path d="M1.13293 0.6393C0.95569 0.816423 0.95569 1.11163 1.13293 1.28875L4.2383 4.39209C4.27246 4.42629 4.31303 4.45343 4.3577 4.47195C4.40237 4.49047 4.45026 4.5 4.49862 4.5C4.54698 4.5 4.59486 4.49047 4.63953 4.47195C4.6842 4.45343 4.72477 4.42629 4.75893 4.39209L7.8643 1.28875C8.04523 1.10794 8.04523 0.816422 7.8643 0.63561C7.68337 0.454797 7.39167 0.454797 7.21074 0.63561L4.50046 3.3478L1.7865 0.63561C1.60556 0.458487 1.31386 0.458487 1.13293 0.6393Z" fill="#3FBB7D" stroke="#3FBB7D" stroke-width="0.5"/>
</svg>
