<svg width="50" height="50" viewBox="0 0 50 50" fill="none" xmlns="http://www.w3.org/2000/svg">
<path fill-rule="evenodd" clip-rule="evenodd" d="M32.7781 0.305176L43.1948 10.7219C43.3901 10.9172 43.5 11.1816 43.5001 11.4585V23.9585C43.5001 24.2353 43.3902 24.4997 43.1949 24.695L39.0282 28.8617C38.6763 29.2137 38.129 29.2686 37.714 28.9919L32.174 25.2992L26.5282 30.945C26.3247 31.1484 26.0582 31.2502 25.7917 31.2502C25.5252 31.2502 25.2586 31.1484 25.0552 30.945L17.4583 23.3481L11.9448 28.8616C11.538 29.2686 10.8788 29.2686 10.4719 28.8616L6.30518 24.6949C6.10986 24.4996 6 24.2351 6 23.9584V4.1667C6 1.86865 7.86973 0 10.1666 0H32.0416C32.3184 0 32.5828 0.109863 32.7781 0.305176ZM39.9437 10.4167L33.0833 3.55635V8.3334C33.0833 9.48184 34.0171 10.4167 35.1666 10.4167H39.9437ZM38.1595 26.7843L41.4167 23.5271V12.5H35.1667C32.8697 12.5 31 10.6313 31 8.3334V2.0834H10.1667C9.01729 2.0834 8.0834 3.01826 8.0834 4.1667V23.5269L11.2084 26.6519L16.7219 21.1384C16.9254 20.935 17.1919 20.8332 17.4584 20.8332C17.7249 20.8332 17.9915 20.935 18.1949 21.1384L25.7918 28.7353L31.3053 23.2218C31.6572 22.8719 32.2045 22.8149 32.6195 23.0916L38.1595 26.7843ZM41.7219 29.4719C42.0189 29.1737 42.4706 29.0822 42.8571 29.246C43.2457 29.4067 43.5 29.7872 43.5 30.2083V45.8333C43.5 48.1314 41.6303 50 39.3334 50H10.1667C7.86973 50 6 48.1314 6.0002 45.8331V30.2081C6.0002 29.787 6.25449 29.4065 6.64307 29.2458C7.03164 29.0831 7.4792 29.1736 7.77832 29.4717L11.2085 32.9019L16.722 27.3884C17.1288 26.9814 17.788 26.9814 18.1949 27.3884L25.7918 34.9853L31.3053 29.4718C31.6572 29.1209 32.2045 29.0649 32.6195 29.3416L38.1595 33.0343L41.7219 29.4719ZM39.3334 47.9166C40.4828 47.9166 41.4167 46.9817 41.4167 45.8333H41.4166V32.7231L39.0281 35.1115C38.6762 35.4635 38.1289 35.5184 37.7139 35.2417L32.1739 31.549L26.5281 37.1948C26.1213 37.6018 25.4621 37.6018 25.0552 37.1948L17.4583 29.598L11.9448 35.1114C11.538 35.5184 10.8788 35.5184 10.4719 35.1114L8.0834 32.723V45.8333C8.0834 46.9817 9.01719 47.9166 10.1667 47.9166H39.3334Z" fill="#BDC4D4"/>
</svg>
