<svg width="12" height="11" viewBox="0 0 12 11" fill="none" xmlns="http://www.w3.org/2000/svg">
<path d="M11.4638 0.236561C10.9039 -0.181166 10.1308 -0.0279996 9.73089 0.556819L4.94542 7.69995L2.11947 4.74801C1.63959 4.24674 0.839789 4.24674 0.35991 4.74801C-0.11997 5.24929 -0.11997 6.08474 0.35991 6.58602L4.22561 10.624C4.46555 10.8747 4.78546 11 5.10538 11C5.10538 11 5.10538 11 5.11871 11C5.11871 11 5.21202 11 5.23868 11C5.58526 10.9722 5.91851 10.7772 6.14512 10.457L11.7837 2.04671C12.1703 1.44797 12.0236 0.640364 11.4638 0.236561Z" fill="#3FBB7D"/>
</svg>
