<svg width="17" height="17" viewBox="0 0 17 17" fill="none" xmlns="http://www.w3.org/2000/svg">
<path d="M3.9383 0.973286C4.17399 0.784734 4.21221 0.440818 4.02365 0.205129C3.8351 -0.030561 3.49119 -0.0687738 3.2555 0.119778L1.43379 1.57714C1.1981 1.76569 1.15989 2.10961 1.34844 2.3453C1.53699 2.58099 1.88091 2.6192 2.1166 2.43065L3.9383 0.973286Z" fill="white"/>
<path d="M13.4112 0.119778C13.1755 -0.0687738 12.8316 -0.030561 12.643 0.205129C12.4545 0.440818 12.4927 0.784734 12.7284 0.973286L14.5501 2.43065C14.7858 2.6192 15.1297 2.58099 15.3182 2.3453C15.5068 2.10961 15.4686 1.76569 15.2329 1.57714L13.4112 0.119778Z" fill="white"/>
<path fill-rule="evenodd" clip-rule="evenodd" d="M8.33333 0.546534C4.0071 0.546534 0.5 4.05364 0.5 8.37987C0.5 12.7061 4.0071 16.2132 8.33333 16.2132C12.6596 16.2132 16.1667 12.7061 16.1667 8.37987C16.1667 4.05364 12.6596 0.546534 8.33333 0.546534ZM8.87985 5.46514C8.87985 5.16331 8.63516 4.91863 8.33333 4.91863C8.0315 4.91863 7.78682 5.16331 7.78682 5.46514L7.78682 8.01553C7.78682 8.92102 8.52087 9.65506 9.42636 9.65506H10.5194C10.8212 9.65506 11.0659 9.41038 11.0659 9.10855C11.0659 8.80672 10.8212 8.56204 10.5194 8.56204H9.42636C9.12453 8.56204 8.87985 8.31736 8.87985 8.01553L8.87985 5.46514Z" fill="white"/>
</svg>
