<svg width="25" height="24" viewBox="0 0 25 24" fill="none" xmlns="http://www.w3.org/2000/svg">
<path d="M12.375 2C6.865 2 2.375 6.49 2.375 12C2.375 17.51 6.865 22 12.375 22C17.885 22 22.375 17.51 22.375 12C22.375 6.49 17.885 2 12.375 2ZM16.725 15.57C16.585 15.81 16.335 15.94 16.075 15.94C15.945 15.94 15.815 15.91 15.695 15.83L12.595 13.98C11.825 13.52 11.255 12.51 11.255 11.62V7.52C11.255 7.11 11.595 6.77 12.005 6.77C12.415 6.77 12.755 7.11 12.755 7.52V11.62C12.755 11.98 13.055 12.51 13.365 12.69L16.465 14.54C16.825 14.75 16.945 15.21 16.725 15.57Z" fill="#BDC4D4"/>
</svg>
