<svg width="16" height="16" viewBox="0 0 16 16" fill="none" xmlns="http://www.w3.org/2000/svg">
<path d="M8.11111 1.77778C6.70467 1.77778 5.32981 2.19484 4.16039 2.97622C2.99098 3.75759 2.07953 4.8682 1.5413 6.16758C1.00308 7.46697 0.862257 8.89678 1.13664 10.2762C1.41102 11.6556 2.08829 12.9227 3.0828 13.9172C4.07731 14.9117 5.34438 15.589 6.7238 15.8634C8.10322 16.1377 9.53303 15.9969 10.8324 15.4587C12.1318 14.9205 13.2424 14.009 14.0238 12.8396C14.8052 11.6702 15.2222 10.2953 15.2222 8.88889C15.2222 7.0029 14.473 5.19417 13.1394 3.86057C11.8058 2.52698 9.9971 1.77778 8.11111 1.77778ZM8.11111 14.8148C6.93908 14.8148 5.79336 14.4673 4.81885 13.8161C3.84433 13.165 3.08479 12.2395 2.63627 11.1566C2.18775 10.0738 2.0704 8.88231 2.29905 7.7328C2.52771 6.58328 3.0921 5.52738 3.92085 4.69863C4.74961 3.86987 5.80551 3.30548 6.95502 3.07683C8.10454 2.84817 9.29605 2.96553 10.3789 3.41405C11.4617 3.86257 12.3872 4.62211 13.0383 5.59662C13.6895 6.57113 14.037 7.71685 14.037 8.88889C14.037 10.4605 13.4127 11.9678 12.3014 13.0792C11.19 14.1905 9.68277 14.8148 8.11111 14.8148ZM5.74074 0.592593C5.74074 0.435427 5.80318 0.284699 5.91431 0.173566C6.02544 0.0624337 6.17617 0 6.33334 0H9.88889C10.0461 0 10.1968 0.0624337 10.3079 0.173566C10.4191 0.284699 10.4815 0.435427 10.4815 0.592593C10.4815 0.749758 10.4191 0.900486 10.3079 1.01162C10.1968 1.12275 10.0461 1.18519 9.88889 1.18519H6.33334C6.17617 1.18519 6.02544 1.12275 5.91431 1.01162C5.80318 0.900486 5.74074 0.749758 5.74074 0.592593ZM11.6252 10.2933C11.5965 10.3658 11.5537 10.4318 11.4994 10.4877C11.4451 10.5436 11.3804 10.5882 11.3088 10.619C11.2373 10.6498 11.1603 10.6662 11.0824 10.6673C11.0045 10.6684 10.9272 10.654 10.8548 10.6252L7.89185 9.44C7.78159 9.39609 7.68706 9.32008 7.62049 9.22182C7.55393 9.12356 7.51841 9.00757 7.51852 8.88889V4.74074C7.51852 4.58357 7.58095 4.43285 7.69209 4.32171C7.80322 4.21058 7.95395 4.14815 8.11111 4.14815C8.26828 4.14815 8.41901 4.21058 8.53014 4.32171C8.64127 4.43285 8.70371 4.58357 8.70371 4.74074V8.48592L11.2933 9.52296C11.3658 9.5517 11.4318 9.59443 11.4877 9.64872C11.5436 9.703 11.5882 9.76778 11.619 9.83933C11.6498 9.91088 11.6662 9.98781 11.6673 10.0657C11.6684 10.1436 11.6541 10.221 11.6252 10.2933Z" fill="white"/>
</svg>
