<svg width="16" height="16" viewBox="0 0 16 16" fill="none" xmlns="http://www.w3.org/2000/svg">
<path fill-rule="evenodd" clip-rule="evenodd" d="M5.75 0C5.33578 0 5 0.325611 5 0.727273C5 1.12893 5.33578 1.45455 5.75 1.45455H10.25C10.6642 1.45455 11 1.12893 11 0.727273C11 0.325611 10.6642 0 10.25 0H5.75ZM15 9.21212C15 12.961 11.866 16 8 16C4.13403 16 1 12.961 1 9.21212C1 5.46328 4.13403 2.42424 8 2.42424C11.866 2.42424 15 5.46328 15 9.21212ZM8 4.12121C8.41418 4.12121 8.75 4.44682 8.75 4.84848V8.76264L11.3354 10.0162C11.7059 10.1958 11.8561 10.6327 11.6708 10.9919C11.4856 11.3512 11.0351 11.4968 10.6646 11.3172L7.94098 9.99662C7.51752 9.7913 7.25 9.37159 7.25 8.91247V4.84848C7.25 4.44682 7.58582 4.12121 8 4.12121Z" fill="white"/>
</svg>
