<svg width="22" height="14" viewBox="0 0 22 14" fill="none" xmlns="http://www.w3.org/2000/svg">
<path d="M8.94896 0C5.88779 0 3.40524 2.17287 3.00208 5.00729C1.25482 5.71501 0 7.33538 0 9.26979C0 11.8561 2.21237 13.9333 4.88125 13.9333H13.701C13.7982 13.9347 13.8947 13.9168 13.9849 13.8805C14.075 13.8443 14.1571 13.7905 14.2263 13.7222C14.2955 13.654 14.3505 13.5727 14.388 13.4831C14.4255 13.3934 14.4448 13.2972 14.4448 13.2C14.4448 13.1028 14.4255 13.0066 14.388 12.9169C14.3505 12.8273 14.2955 12.746 14.2263 12.6778C14.1571 12.6095 14.075 12.5557 13.9849 12.5195C13.8947 12.4832 13.7982 12.4653 13.701 12.4667H4.88125C2.96003 12.4667 1.46667 11.0185 1.46667 9.26979C1.46667 7.84057 2.46609 6.60374 3.87292 6.19896C4.01879 6.15643 4.14786 6.06965 4.24228 5.95059C4.3367 5.83154 4.39181 5.6861 4.4 5.53438C4.53924 3.25493 6.44291 1.46667 8.94896 1.46667C10.6296 1.46667 12.1644 2.19208 12.9594 3.34583C13.0196 3.43342 13.0981 3.50688 13.1894 3.56113C13.2808 3.61538 13.3829 3.64912 13.4886 3.66002C13.5943 3.67092 13.7011 3.65871 13.8017 3.62425C13.9022 3.58978 13.994 3.53388 14.0708 3.46042C14.3653 3.18017 15.0369 2.93333 15.5948 2.93333C16.4677 2.93333 16.9818 3.25724 17.3708 3.79271C17.7599 4.32818 17.9667 5.11413 17.9667 5.86667C17.9687 6.00884 18.012 6.14735 18.0914 6.26534C18.1707 6.38333 18.2826 6.47572 18.4135 6.53125C19.6025 7.04591 20.5333 8.13995 20.5333 9.30417C20.5333 11.0529 19.0456 12.4667 17.1187 12.4667C17.0216 12.4653 16.9251 12.4832 16.8349 12.5195C16.7447 12.5557 16.6627 12.6095 16.5935 12.6778C16.5243 12.746 16.4693 12.8273 16.4318 12.9169C16.3943 13.0066 16.375 13.1028 16.375 13.2C16.375 13.2972 16.3943 13.3934 16.4318 13.4831C16.4693 13.5727 16.5243 13.654 16.5935 13.7222C16.6627 13.7905 16.7447 13.8443 16.8349 13.8805C16.9251 13.9168 17.0216 13.9347 17.1187 13.9333C19.782 13.9333 22 11.8905 22 9.30417C22 7.55756 20.8149 6.17005 19.376 5.40833C19.3083 4.54146 19.0801 3.66142 18.551 2.93333C17.9285 2.0766 16.8955 1.46667 15.5948 1.46667C14.9282 1.46667 14.2811 1.67659 13.7042 2.00521C12.5402 0.722154 10.8013 0 8.94896 0Z" fill="#C3C3C3"/>
</svg>
