<svg width="24" height="24" viewBox="0 0 24 24" fill="none" xmlns="http://www.w3.org/2000/svg">
<path d="M13.6446 11.999L18.6572 6.99813C18.8767 6.77862 19 6.48091 19 6.17048C19 5.86005 18.8767 5.56233 18.6572 5.34282C18.4377 5.12332 18.14 5 17.8295 5C17.5191 5 17.2214 5.12332 17.0019 5.34282L12.001 10.3554L7.00012 5.34282C6.78061 5.12332 6.48289 5 6.17247 5C5.86204 5 5.56432 5.12332 5.34481 5.34282C5.12531 5.56233 5.00199 5.86005 5.00199 6.17048C5.00199 6.48091 5.12531 6.77862 5.34481 6.99813L10.3573 11.999L5.34481 16.9999C5.23555 17.1083 5.14883 17.2372 5.08965 17.3792C5.03047 17.5213 5 17.6736 5 17.8275C5 17.9814 5.03047 18.1338 5.08965 18.2758C5.14883 18.4179 5.23555 18.5468 5.34481 18.6552C5.45318 18.7644 5.58211 18.8512 5.72416 18.9103C5.86621 18.9695 6.01858 19 6.17247 19C6.32635 19 6.47872 18.9695 6.62077 18.9103C6.76282 18.8512 6.89175 18.7644 7.00012 18.6552L12.001 13.6427L17.0019 18.6552C17.1102 18.7644 17.2392 18.8512 17.3812 18.9103C17.5233 18.9695 17.6756 19 17.8295 19C17.9834 19 18.1358 18.9695 18.2778 18.9103C18.4199 18.8512 18.5488 18.7644 18.6572 18.6552C18.7664 18.5468 18.8532 18.4179 18.9123 18.2758C18.9715 18.1338 19.002 17.9814 19.002 17.8275C19.002 17.6736 18.9715 17.5213 18.9123 17.3792C18.8532 17.2372 18.7664 17.1083 18.6572 16.9999L13.6446 11.999Z" fill="#B0B0BD"/>
</svg>
