<svg width="12" height="12" viewBox="0 0 12 12" fill="none" xmlns="http://www.w3.org/2000/svg">
<path d="M12.0001 0.901922V8.13912C12.0003 8.25772 11.9774 8.37521 11.9328 8.48486C11.8882 8.59451 11.8228 8.69417 11.7403 8.77815C11.6577 8.86214 11.5596 8.9288 11.4517 8.97432C11.3437 9.01985 11.228 9.04335 11.1111 9.04348H9.93423V3.67516C9.93423 2.80381 9.23694 2.09511 8.3799 2.09511H3.08582V0.901922C3.08591 0.783386 3.10901 0.666029 3.15381 0.556552C3.19861 0.447074 3.26423 0.347621 3.34691 0.26387C3.4296 0.180119 3.52773 0.11371 3.63571 0.0684349C3.7437 0.0231601 3.85941 -9.40078e-05 3.97625 2.85616e-07H11.1098C11.3457 4.07872e-08 11.5719 0.0949824 11.7389 0.264089C11.9058 0.433195 11.9997 0.662599 12.0001 0.901922Z" fill="#BDC4D4"/>
<path d="M8.20678 2.95653H0.707481C0.519846 2.95653 0.339895 3.03215 0.207216 3.16675C0.074538 3.30135 0 3.48391 0 3.67426V11.2823C0 11.4726 0.074538 11.6552 0.207216 11.7898C0.339895 11.9244 0.519846 12 0.707481 12H8.20678C8.39442 12 8.57437 11.9244 8.70705 11.7898C8.83973 11.6552 8.91426 11.4726 8.91426 11.2823V3.67426C8.91426 3.48391 8.83973 3.30135 8.70705 3.16675C8.57437 3.03215 8.39442 2.95653 8.20678 2.95653ZM6.33224 9.20083H2.5775C2.35379 9.20083 2.16192 9.02858 2.14579 8.80235C2.14143 8.74324 2.14914 8.68387 2.16844 8.62793C2.18774 8.57199 2.21821 8.52069 2.25795 8.47725C2.29769 8.43381 2.34584 8.39916 2.39939 8.37546C2.45293 8.35177 2.51073 8.33954 2.56915 8.33955H6.32375C6.54746 8.33955 6.73932 8.51181 6.75546 8.73804C6.75982 8.79714 6.75211 8.85652 6.73281 8.91246C6.71351 8.96839 6.68304 9.01969 6.6433 9.06313C6.60356 9.10657 6.55541 9.14123 6.50186 9.16492C6.44831 9.18861 6.39052 9.20084 6.3321 9.20083H6.33224ZM6.33224 6.61698H2.5775C2.35379 6.61698 2.16192 6.44473 2.14579 6.2185C2.14143 6.15939 2.14914 6.10002 2.16844 6.04408C2.18774 5.98814 2.21821 5.93684 2.25795 5.8934C2.29769 5.84996 2.34584 5.81531 2.39939 5.79161C2.45293 5.76792 2.51073 5.75569 2.56915 5.7557H6.32375C6.54746 5.7557 6.73932 5.92796 6.75546 6.15419C6.75982 6.21329 6.75211 6.27267 6.73281 6.3286C6.71351 6.38454 6.68304 6.43584 6.6433 6.47928C6.60356 6.52272 6.55541 6.55738 6.50186 6.58107C6.44831 6.60476 6.39052 6.61699 6.3321 6.61698H6.33224Z" fill="#BDC4D4"/>
</svg>
