<svg width="16" height="16" viewBox="0 0 16 16" fill="none" xmlns="http://www.w3.org/2000/svg">
<path fill-rule="evenodd" clip-rule="evenodd" d="M3.23953 3.23664C2.66658 4.02524 2.66658 5.15016 2.66658 7.4V8.6C2.66658 10.8498 2.66658 11.9748 3.23953 12.7634C3.42457 13.018 3.64854 13.242 3.90322 13.4271C4.69182 14 5.81674 14 8.06658 14C10.3164 14 11.4413 14 12.2299 13.4271C12.4846 13.242 12.7086 13.018 12.8936 12.7634C13.4666 11.9748 13.4666 10.8498 13.4666 8.6V7.4C13.4666 5.15016 13.4666 4.02524 12.8936 3.23664C12.7086 2.98196 12.4846 2.75799 12.2299 2.57295C11.4413 2 10.3164 2 8.06658 2C5.81674 2 4.69182 2 3.90322 2.57295C3.64854 2.75799 3.42457 2.98196 3.23953 3.23664ZM5.66658 5.15C5.41805 5.15 5.21658 5.35147 5.21658 5.6C5.21658 5.84853 5.41805 6.05 5.66658 6.05H10.4666C10.7151 6.05 10.9166 5.84853 10.9166 5.6C10.9166 5.35147 10.7151 5.15 10.4666 5.15H5.66658ZM5.66658 7.55C5.41805 7.55 5.21658 7.75147 5.21658 8C5.21658 8.24853 5.41805 8.45 5.66658 8.45H10.4666C10.7151 8.45 10.9166 8.24853 10.9166 8C10.9166 7.75147 10.7151 7.55 10.4666 7.55H5.66658ZM5.66658 9.95C5.41805 9.95 5.21658 10.1515 5.21658 10.4C5.21658 10.6485 5.41805 10.85 5.66658 10.85H7.46658C7.71511 10.85 7.91658 10.6485 7.91658 10.4C7.91658 10.1515 7.71511 9.95 7.46658 9.95H5.66658Z" fill="white"/>
</svg>
