<svg width="127" height="126" viewBox="0 0 127 126" fill="none" xmlns="http://www.w3.org/2000/svg">
<g filter="url(#filter0_i)">
<path fill-rule="evenodd" clip-rule="evenodd" d="M28.5 9.33334C23.5493 9.33334 18.8014 11.3 15.3007 14.8007C11.8 18.3014 9.83334 23.0493 9.83334 28V98C9.83334 102.951 11.8 107.699 15.3007 111.199C18.3339 114.233 22.3036 116.114 26.5302 116.562L74.7824 63.4829C76.3095 61.8034 78.1702 60.4603 80.2452 59.54C82.3202 58.6197 84.5642 58.142 86.8341 58.1374C89.104 58.1328 91.35 58.6014 93.4287 59.5132C95.5072 60.425 97.3729 61.76 98.9067 63.433L117.167 83.3468V28C117.167 23.0493 115.2 18.3014 111.699 14.8007C108.199 11.3 103.451 9.33334 98.5 9.33334H28.5ZM126.5 97.8774V28C126.5 20.5739 123.55 13.452 118.299 8.20101C113.048 2.94999 105.926 0 98.5 0H28.5C21.0739 0 13.952 2.94999 8.70101 8.20101C3.44999 13.452 0.5 20.5739 0.5 28V98C0.5 105.426 3.44999 112.548 8.70101 117.799C13.952 123.05 21.0739 126 28.5 126H98.5C98.5585 126 98.617 126 98.6755 125.999H99.2763C106.497 125.999 113.421 123.131 118.527 118.026C123.632 112.92 126.5 105.996 126.5 98.7753V97.9995C126.5 97.9587 126.5 97.918 126.5 97.8774ZM43.0838 23.3333C32.4523 23.3333 23.8338 31.9518 23.8338 42.5833C23.8338 53.2148 32.4523 61.8333 43.0838 61.8333C53.7153 61.8333 62.3338 53.2148 62.3338 42.5833C62.3338 31.9518 53.7153 23.3333 43.0838 23.3333Z" fill="#DEE1E9"/>
</g>
<defs>
<filter id="filter0_i" x="0.5" y="0" width="126" height="128" filterUnits="userSpaceOnUse" color-interpolation-filters="sRGB">
<feFlood flood-opacity="0" result="BackgroundImageFix"/>
<feBlend mode="normal" in="SourceGraphic" in2="BackgroundImageFix" result="shape"/>
<feColorMatrix in="SourceAlpha" type="matrix" values="0 0 0 0 0 0 0 0 0 0 0 0 0 0 0 0 0 0 127 0" result="hardAlpha"/>
<feOffset dy="2"/>
<feGaussianBlur stdDeviation="2.5"/>
<feComposite in2="hardAlpha" operator="arithmetic" k2="-1" k3="1"/>
<feColorMatrix type="matrix" values="0 0 0 0 0.741176 0 0 0 0 0.768627 0 0 0 0 0.831373 0 0 0 0.6 0"/>
<feBlend mode="normal" in2="shape" result="effect1_innerShadow"/>
</filter>
</defs>
</svg>
