<svg width="30" height="30" viewBox="0 0 30 30" fill="none" xmlns="http://www.w3.org/2000/svg">
<path d="M23.2247 14.5833C22.6914 13.6583 19.7581 9.01664 14.7747 9.16664C10.1664 9.28331 7.49973 13.3333 6.77473 14.5833C6.70159 14.71 6.66309 14.8537 6.66309 15C6.66309 15.1463 6.70159 15.29 6.77473 15.4166C7.29973 16.325 10.1081 20.8333 15.0164 20.8333H15.2247C19.8331 20.7166 22.5081 16.6666 23.2247 15.4166C23.2979 15.29 23.3364 15.1463 23.3364 15C23.3364 14.8537 23.2979 14.71 23.2247 14.5833ZM15.1831 19.1666C11.5914 19.25 9.24973 16.175 8.5164 15C9.34973 13.6583 11.5247 10.9166 14.8581 10.8333C18.4331 10.7416 20.7831 13.825 21.5247 15C20.6664 16.3416 18.5164 19.0833 15.1831 19.1666Z" fill="#C3C3C3"/>
<path d="M14.9997 12.0833C14.4228 12.0833 13.8589 12.2543 13.3793 12.5748C12.8996 12.8953 12.5258 13.3508 12.305 13.8838C12.0843 14.4167 12.0265 15.0032 12.1391 15.5689C12.2516 16.1347 12.5294 16.6544 12.9373 17.0623C13.3452 17.4702 13.8649 17.748 14.4307 17.8605C14.9964 17.9731 15.5829 17.9153 16.1158 17.6946C16.6488 17.4738 17.1043 17.1 17.4248 16.6203C17.7453 16.1407 17.9163 15.5768 17.9163 14.9999C17.9163 14.2264 17.6091 13.4845 17.0621 12.9375C16.5151 12.3905 15.7732 12.0833 14.9997 12.0833ZM14.9997 16.2499C14.7524 16.2499 14.5108 16.1766 14.3052 16.0393C14.0997 15.9019 13.9394 15.7067 13.8448 15.4783C13.7502 15.2499 13.7255 14.9985 13.7737 14.7561C13.8219 14.5136 13.941 14.2909 14.1158 14.116C14.2906 13.9412 14.5133 13.8222 14.7558 13.7739C14.9983 13.7257 15.2496 13.7505 15.478 13.8451C15.7064 13.9397 15.9017 14.0999 16.039 14.3055C16.1764 14.511 16.2497 14.7527 16.2497 14.9999C16.2497 15.3314 16.118 15.6494 15.8836 15.8838C15.6491 16.1182 15.3312 16.2499 14.9997 16.2499Z" fill="#C3C3C3"/>
</svg>
