<svg width="30" height="30" viewBox="0 0 30 30" fill="none" xmlns="http://www.w3.org/2000/svg">
<path d="M8.92499 7.74166C8.84729 7.66396 8.75505 7.60233 8.65353 7.56028C8.55201 7.51823 8.44321 7.49658 8.33333 7.49658C8.22344 7.49658 8.11464 7.51823 8.01312 7.56028C7.9116 7.60233 7.81936 7.66396 7.74166 7.74166C7.58474 7.89858 7.49658 8.11141 7.49658 8.33333C7.49658 8.55524 7.58474 8.76807 7.74166 8.92499L12.4333 13.6167C12.1365 14.1688 12.0255 14.802 12.1167 15.4222C12.208 16.0424 12.4966 16.6168 12.9399 17.06C13.3832 17.5033 13.9576 17.792 14.5778 17.8833C15.198 17.9745 15.8311 17.8635 16.3833 17.5667L21.075 22.2583C21.1525 22.3364 21.2446 22.3984 21.3462 22.4407C21.4477 22.483 21.5566 22.5048 21.6667 22.5048C21.7767 22.5048 21.8856 22.483 21.9871 22.4407C22.0887 22.3984 22.1809 22.3364 22.2583 22.2583C22.3364 22.1809 22.3984 22.0887 22.4407 21.9871C22.483 21.8856 22.5048 21.7767 22.5048 21.6667C22.5048 21.5566 22.483 21.4477 22.4407 21.3462C22.3984 21.2446 22.3364 21.1525 22.2583 21.075L8.92499 7.74166ZM15 16.25C14.6685 16.25 14.3505 16.1183 14.1161 15.8839C13.8817 15.6495 13.75 15.3315 13.75 15V14.9417L15.05 16.2417L15 16.25Z" fill="#C3C3C3"/>
<path d="M15.1836 19.1666C11.6002 19.25 9.25022 16.175 8.51689 15C9.03894 14.1672 9.66636 13.4054 10.3836 12.7333L9.16689 11.5583C8.22632 12.4445 7.42056 13.4637 6.77522 14.5833C6.70208 14.71 6.66357 14.8537 6.66357 15C6.66357 15.1463 6.70208 15.29 6.77522 15.4166C7.30022 16.325 10.1086 20.8333 15.0169 20.8333H15.2252C16.1482 20.8059 17.0592 20.617 17.9169 20.275L16.6002 18.9583C16.1372 19.0801 15.662 19.15 15.1836 19.1666ZM23.2252 14.5833C22.6919 13.6583 19.7502 9.01664 14.7752 9.16664C13.8523 9.19402 12.9413 9.38299 12.0836 9.72497L13.4002 11.0416C13.8632 10.9198 14.3384 10.85 14.8169 10.8333C18.3919 10.7416 20.7419 13.825 21.4836 15C20.9486 15.8352 20.3071 16.5972 19.5752 17.2666L20.8336 18.4416C21.7859 17.5577 22.603 16.5385 23.2586 15.4166C23.3267 15.2871 23.3595 15.1418 23.3536 14.9955C23.3478 14.8492 23.3035 14.707 23.2252 14.5833Z" fill="#C3C3C3"/>
</svg>
