<svg width="30" height="30" viewBox="0 0 30 30" fill="none" xmlns="http://www.w3.org/2000/svg">
<path d="M8.9245 7.74166C8.8468 7.66396 8.75456 7.60233 8.65304 7.56028C8.55153 7.51823 8.44272 7.49658 8.33284 7.49658C8.22295 7.49658 8.11415 7.51823 8.01263 7.56028C7.91111 7.60233 7.81887 7.66396 7.74117 7.74166C7.58425 7.89858 7.49609 8.11141 7.49609 8.33333C7.49609 8.55524 7.58425 8.76807 7.74117 8.92499L12.4328 13.6167C12.136 14.1688 12.025 14.802 12.1162 15.4222C12.2075 16.0424 12.4962 16.6168 12.9395 17.06C13.3827 17.5033 13.9571 17.792 14.5773 17.8833C15.1975 17.9745 15.8307 17.8635 16.3828 17.5667L21.0745 22.2583C21.152 22.3364 21.2441 22.3984 21.3457 22.4407C21.4472 22.483 21.5562 22.5048 21.6662 22.5048C21.7762 22.5048 21.8851 22.483 21.9867 22.4407C22.0882 22.3984 22.1804 22.3364 22.2578 22.2583C22.3359 22.1809 22.3979 22.0887 22.4402 21.9871C22.4826 21.8856 22.5043 21.7767 22.5043 21.6667C22.5043 21.5566 22.4826 21.4477 22.4402 21.3462C22.3979 21.2446 22.3359 21.1525 22.2578 21.075L8.9245 7.74166ZM14.9995 16.25C14.668 16.25 14.35 16.1183 14.1156 15.8839C13.8812 15.6495 13.7495 15.3315 13.7495 15V14.9417L15.0495 16.2417L14.9995 16.25Z" fill="#C3C3C3"/>
<path d="M15.1831 19.1666C11.5997 19.25 9.24973 16.175 8.5164 15C9.03846 14.1672 9.66587 13.4054 10.3831 12.7333L9.1664 11.5583C8.22584 12.4445 7.42007 13.4637 6.77473 14.5833C6.70159 14.71 6.66309 14.8537 6.66309 15C6.66309 15.1463 6.70159 15.29 6.77473 15.4166C7.29973 16.325 10.1081 20.8333 15.0164 20.8333H15.2247C16.1477 20.8059 17.0587 20.617 17.9164 20.275L16.5997 18.9583C16.1367 19.0801 15.6616 19.15 15.1831 19.1666ZM23.2247 14.5833C22.6914 13.6583 19.7497 9.01664 14.7747 9.16664C13.8518 9.19402 12.9408 9.38299 12.0831 9.72497L13.3997 11.0416C13.8628 10.9198 14.3379 10.85 14.8164 10.8333C18.3914 10.7416 20.7414 13.825 21.4831 15C20.9481 15.8352 20.3066 16.5972 19.5747 17.2666L20.8331 18.4416C21.7854 17.5577 22.6025 16.5385 23.2581 15.4166C23.3262 15.2871 23.359 15.1418 23.3531 14.9955C23.3473 14.8492 23.303 14.707 23.2247 14.5833Z" fill="#C3C3C3"/>
</svg>
