<svg width="30" height="30" viewBox="0 0 30 30" fill="none" xmlns="http://www.w3.org/2000/svg">
<path d="M23.2252 14.5833C22.6919 13.6583 19.7586 9.01664 14.7752 9.16664C10.1669 9.28331 7.50022 13.3333 6.77522 14.5833C6.70208 14.71 6.66357 14.8537 6.66357 15C6.66357 15.1463 6.70208 15.29 6.77522 15.4166C7.30022 16.325 10.1086 20.8333 15.0169 20.8333H15.2252C19.8336 20.7166 22.5086 16.6666 23.2252 15.4166C23.2984 15.29 23.3369 15.1463 23.3369 15C23.3369 14.8537 23.2984 14.71 23.2252 14.5833ZM15.1836 19.1666C11.5919 19.25 9.25022 16.175 8.51689 15C9.35022 13.6583 11.5252 10.9166 14.8586 10.8333C18.4336 10.7416 20.7836 13.825 21.5252 15C20.6669 16.3416 18.5169 19.0833 15.1836 19.1666Z" fill="#C3C3C3"/>
<path d="M15.0002 12.0835C14.4233 12.0835 13.8594 12.2546 13.3798 12.575C12.9001 12.8955 12.5263 13.3511 12.3055 13.884C12.0848 14.417 12.027 15.0034 12.1395 15.5692C12.2521 16.135 12.5299 16.6547 12.9378 17.0626C13.3457 17.4705 13.8654 17.7482 14.4312 17.8608C14.9969 17.9733 15.5834 17.9156 16.1163 17.6948C16.6493 17.4741 17.1048 17.1002 17.4253 16.6206C17.7458 16.1409 17.9168 15.577 17.9168 15.0002C17.9168 14.2266 17.6095 13.4847 17.0626 12.9378C16.5156 12.3908 15.7737 12.0835 15.0002 12.0835ZM15.0002 16.2502C14.7529 16.2502 14.5113 16.1769 14.3057 16.0395C14.1001 15.9021 13.9399 15.7069 13.8453 15.4785C13.7507 15.2501 13.726 14.9988 13.7742 14.7563C13.8224 14.5138 13.9415 14.2911 14.1163 14.1163C14.2911 13.9415 14.5138 13.8224 14.7563 13.7742C14.9988 13.7259 15.2501 13.7507 15.4785 13.8453C15.7069 13.9399 15.9022 14.1001 16.0395 14.3057C16.1769 14.5113 16.2502 14.7529 16.2502 15.0002C16.2502 15.3317 16.1185 15.6496 15.884 15.884C15.6496 16.1185 15.3317 16.2502 15.0002 16.2502Z" fill="#C3C3C3"/>
</svg>
