<svg width="20" height="20" viewBox="0 0 20 20" fill="none" xmlns="http://www.w3.org/2000/svg">
<path d="M9.99084 13.3314C9.79647 13.3317 9.6081 13.264 9.45844 13.1398L4.46717 8.97528C4.29729 8.83391 4.19046 8.63075 4.17018 8.41051C4.1499 8.19027 4.21783 7.97098 4.35903 7.80089C4.50023 7.6308 4.70314 7.52383 4.92311 7.50352C5.14308 7.48322 5.36209 7.55123 5.53198 7.69261L9.99084 11.424L14.4497 7.82588C14.5348 7.75669 14.6327 7.70502 14.7378 7.67385C14.8429 7.64267 14.9531 7.6326 15.0621 7.64421C15.1711 7.65582 15.2768 7.68888 15.3729 7.7415C15.4691 7.79412 15.554 7.86525 15.6227 7.95081C15.6988 8.03645 15.7565 8.13692 15.7921 8.24593C15.8277 8.35493 15.8405 8.47012 15.8295 8.58428C15.8186 8.69844 15.7842 8.80911 15.7286 8.90936C15.673 9.0096 15.5972 9.09726 15.5062 9.16685L10.5149 13.1898C10.361 13.2943 10.1764 13.3442 9.99084 13.3314Z" fill="#3FBB7D"/>
</svg>
