<svg width="28" height="36" viewBox="0 0 28 36" fill="none" xmlns="http://www.w3.org/2000/svg">
<path fill-rule="evenodd" clip-rule="evenodd" d="M1.78489 1.79661C2.5073 1.02603 3.49784 0.583252 4.54175 0.583252H16.3542H16.3543C17.3827 0.583389 18.36 1.01328 19.08 1.76419L19.08 1.76423L26.0174 9.00077C26.3842 9.38315 26.6731 9.83719 26.8696 10.335C27.066 10.8327 27.1667 11.3658 27.1667 11.9032V11.9032V31.3332C27.1667 32.4012 26.7695 33.4343 26.0486 34.2032C25.3262 34.9738 24.3357 35.4166 23.2917 35.4166H4.54175C3.49784 35.4166 2.5073 34.9738 1.78489 34.2032C1.06401 33.4343 0.666748 32.4012 0.666748 31.3332V4.66658C0.666748 3.59868 1.06401 2.56554 1.78489 1.79661ZM4.54175 2.08325C3.92805 2.08325 3.32888 2.34285 2.87919 2.82252C2.42797 3.30382 2.16675 3.96638 2.16675 4.66658V31.3332C2.16675 32.0334 2.42797 32.696 2.87919 33.1773C3.32888 33.657 3.92805 33.9166 4.54175 33.9166H23.2917C23.9054 33.9166 24.5046 33.657 24.9543 33.1773C25.4055 32.696 25.6667 32.0334 25.6667 31.3332V12.0833H20.1667C19.1228 12.0833 18.1323 11.6405 17.4099 10.8699C16.689 10.101 16.2917 9.06783 16.2917 7.99992V2.08325H4.54175ZM24.9348 10.0391C25.089 10.1998 25.2229 10.3828 25.3327 10.5833H20.1667C19.5531 10.5833 18.9539 10.3237 18.5042 9.84399C18.053 9.36268 17.7917 8.70012 17.7917 7.99992V2.61109C17.863 2.67014 17.9317 2.7339 17.9972 2.80227L17.9973 2.80231L24.9347 10.0389L24.9348 10.0391ZM20.2804 19.3636C20.5733 19.0707 20.5733 18.5958 20.2804 18.3029C19.9875 18.01 19.5126 18.01 19.2198 18.3029L12.2501 25.2726L8.61375 21.6363C8.32085 21.3434 7.84598 21.3434 7.55309 21.6363C7.26019 21.9291 7.26019 22.404 7.55309 22.6969L11.5783 26.7222C11.9493 27.0932 12.5508 27.0932 12.9218 26.7222L20.2804 19.3636Z" fill="#3FBB7D"/>
</svg>
