<svg width="17" height="22" viewBox="0 0 17 22" fill="none" xmlns="http://www.w3.org/2000/svg">
<path fill-rule="evenodd" clip-rule="evenodd" d="M2.625 0.25C1.91262 0.25 1.24002 0.552303 0.752022 1.07283C0.265564 1.59172 0 2.28571 0 3V19C0 19.7143 0.265564 20.4083 0.752022 20.9272C1.24002 21.4477 1.91261 21.75 2.625 21.75H13.875C14.5874 21.75 15.26 21.4477 15.748 20.9272C16.2344 20.4083 16.5 19.7143 16.5 19V7.342V7.34191C16.5 6.98214 16.4326 6.62495 16.3007 6.29091C16.1689 5.95682 15.9746 5.65107 15.7269 5.39285L11.5645 1.05098L11.5645 1.05094C11.0781 0.543592 10.4144 0.250093 9.7126 0.25H9.7125H2.625ZM1.84633 2.09874C2.06159 1.86912 2.34282 1.75 2.625 1.75H9.375V5C9.375 5.71429 9.64056 6.40828 10.127 6.92717C10.615 7.4477 11.2876 7.75 12 7.75H15V19C15 19.3466 14.8705 19.67 14.6537 19.9013C14.4384 20.1309 14.1572 20.25 13.875 20.25H2.625C2.34282 20.25 2.0616 20.1309 1.84633 19.9013C1.62952 19.67 1.5 19.3466 1.5 19V3C1.5 2.65342 1.62952 2.33 1.84633 2.09874ZM14.4707 6.25L10.875 2.49926V5C10.875 5.34658 11.0045 5.67 11.2213 5.90126C11.4366 6.13088 11.7178 6.25 12 6.25H14.4707ZM9 11.3107L10.2197 12.5303C10.5126 12.8232 10.9874 12.8232 11.2803 12.5303C11.5732 12.2374 11.5732 11.7626 11.2803 11.4697L8.92175 9.11109C8.55075 8.74009 7.94925 8.74009 7.57825 9.11109L5.21967 11.4697C4.92678 11.7626 4.92678 12.2374 5.21967 12.5303C5.51256 12.8232 5.98744 12.8232 6.28033 12.5303L7.5 11.3107V17C7.5 17.4142 7.83579 17.75 8.25 17.75C8.66421 17.75 9 17.4142 9 17V11.3107Z" fill="#C3C3C3"/>
</svg>
