<svg width="28" height="36" viewBox="0 0 28 36" fill="none" xmlns="http://www.w3.org/2000/svg">
<path fill-rule="evenodd" clip-rule="evenodd" d="M4.125 0.25C3.08109 0.25 2.09055 0.692779 1.36814 1.46335C0.64726 2.23229 0.25 3.26542 0.25 4.33333V31C0.25 32.0679 0.64726 33.101 1.36814 33.87C2.09055 34.6405 3.08109 35.0833 4.125 35.0833H22.875C23.9189 35.0833 24.9094 34.6405 25.6319 33.87C26.3527 33.101 26.75 32.0679 26.75 31V11.57V11.5699C26.7499 11.0325 26.6493 10.4995 26.4528 10.0017C26.2564 9.50394 25.9674 9.0499 25.6007 8.66751L18.6633 1.43098L18.6632 1.43094C17.9433 0.68003 16.966 0.250137 15.9376 0.25H15.9375H4.125ZM2.46244 2.48927C2.91213 2.0096 3.5113 1.75 4.125 1.75H15.9374H15.9375C16.0528 1.75002 16.1676 1.7592 16.281 1.77729V8.00004C16.281 9.06795 16.6783 10.1011 17.3991 10.87C18.1216 11.6406 19.1121 12.0834 20.156 12.0834H25.25V31C25.25 31.7002 24.9888 32.3628 24.5376 32.8441C24.0879 33.3237 23.4887 33.5833 22.875 33.5833H4.125C3.5113 33.5833 2.91213 33.3237 2.46244 32.8441C2.01122 32.3628 1.75 31.7002 1.75 31V4.33333C1.75 3.63313 2.01122 2.97057 2.46244 2.48927ZM25.0696 10.5834L25.0576 10.5524C24.931 10.2317 24.7468 9.94424 24.5181 9.70582L24.518 9.70569L17.781 2.6782V8.00004C17.781 8.70024 18.0422 9.3628 18.4935 9.84411C18.9431 10.3238 19.5423 10.5834 20.156 10.5834H25.0696ZM14.656 17.3107L17.5423 20.197C17.8352 20.4899 18.3101 20.4899 18.603 20.197C18.8959 19.9041 18.8959 19.4293 18.603 19.1364L14.5778 15.1111C14.2068 14.7401 13.6053 14.7401 13.2343 15.1111L9.20901 19.1364C8.91612 19.4293 8.91612 19.9041 9.20901 20.197C9.5019 20.4899 9.97678 20.4899 10.2697 20.197L13.156 17.3107V28C13.156 28.4143 13.4918 28.75 13.906 28.75C14.3202 28.75 14.656 28.4143 14.656 28V17.3107Z" fill="#7D7E8D"/>
</svg>
