<svg width="28" height="36" viewBox="0 0 28 36" fill="none" xmlns="http://www.w3.org/2000/svg">
<path fill-rule="evenodd" clip-rule="evenodd" d="M1.78489 1.79667C2.5073 1.02609 3.49784 0.583313 4.54175 0.583313H16.3542H16.3543C17.3827 0.58345 18.36 1.01334 19.08 1.76426L19.08 1.76429L26.0174 9.00083C26.3842 9.38321 26.6731 9.83725 26.8696 10.3351C27.066 10.8328 27.1667 11.3658 27.1667 11.9032V11.9033V31.3333C27.1667 32.4012 26.7695 33.4343 26.0486 34.2033C25.3262 34.9739 24.3357 35.4166 23.2917 35.4166H4.54175C3.49784 35.4166 2.5073 34.9739 1.78489 34.2033C1.06401 33.4343 0.666748 32.4012 0.666748 31.3333V4.66665C0.666748 3.59874 1.06401 2.5656 1.78489 1.79667ZM4.54175 2.08331C3.92805 2.08331 3.32888 2.34291 2.87919 2.82258C2.42797 3.30388 2.16675 3.96644 2.16675 4.66665V31.3333C2.16675 32.0335 2.42797 32.6961 2.87919 33.1774C3.32888 33.657 3.92805 33.9166 4.54175 33.9166H23.2917C23.9054 33.9166 24.5046 33.657 24.9543 33.1774C25.4055 32.6961 25.6667 32.0335 25.6667 31.3333V12.0833H20.1667C19.1228 12.0833 18.1323 11.6405 17.4099 10.87C16.689 10.101 16.2917 9.06789 16.2917 7.99998V2.08331H4.54175ZM24.9348 10.0391C25.089 10.1999 25.2229 10.3829 25.3327 10.5833H20.1667C19.5531 10.5833 18.9539 10.3237 18.5042 9.84405C18.053 9.36274 17.7917 8.70018 17.7917 7.99998V2.61116C17.863 2.6702 17.9317 2.73396 17.9972 2.80233L17.9973 2.80237L24.9347 10.039L24.9348 10.0391ZM20.2804 19.3636C20.5733 19.0707 20.5733 18.5959 20.2804 18.303C19.9875 18.0101 19.5126 18.0101 19.2198 18.303L12.2501 25.2727L8.61375 21.6363C8.32085 21.3434 7.84598 21.3434 7.55309 21.6363C7.26019 21.9292 7.26019 22.4041 7.55309 22.697L11.5783 26.7222C11.9493 27.0932 12.5508 27.0932 12.9218 26.7222L20.2804 19.3636Z" fill="#3FBB7D"/>
</svg>
