<svg width="20" height="16" viewBox="0 0 20 16" fill="none" xmlns="http://www.w3.org/2000/svg">
<path fill-rule="evenodd" clip-rule="evenodd" d="M8 4C8 4.55228 7.55228 5 7 5C6.44772 5 6 4.55228 6 4C6 3.44772 6.44772 3 7 3C7.55228 3 8 3.44772 8 4ZM9.82929 3C9.41746 1.83481 8.30622 1 7 1C5.69378 1 4.58254 1.83481 4.17071 3H1C0.447715 3 0 3.44772 0 4C0 4.55228 0.447715 5 1 5H4.17071C4.58254 6.16519 5.69378 7 7 7C8.30622 7 9.41746 6.16519 9.82929 5H19C19.5523 5 20 4.55228 20 4C20 3.44772 19.5523 3 19 3H9.82929Z" fill="#C3C3C3"/>
<path fill-rule="evenodd" clip-rule="evenodd" d="M14 12C14 12.5523 13.5523 13 13 13C12.4477 13 12 12.5523 12 12C12 11.4477 12.4477 11 13 11C13.5523 11 14 11.4477 14 12ZM15.8293 11C15.4175 9.83481 14.3062 9 13 9C11.6887 9 10.5738 9.84136 10.1659 11.0137C10.1119 11.0047 10.0565 11 10 11H1C0.447715 11 0 11.4477 0 12C0 12.5523 0.447715 13 1 13H10C10.0565 13 10.1119 12.9953 10.1659 12.9863C10.5738 14.1586 11.6887 15 13 15C14.3062 15 15.4175 14.1652 15.8293 13H19C19.5523 13 20 12.5523 20 12C20 11.4477 19.5523 11 19 11H15.8293Z" fill="#C3C3C3"/>
</svg>
