<svg width="16" height="16" viewBox="0 0 16 16" fill="none" xmlns="http://www.w3.org/2000/svg">
<path d="M14.3718 9.67997C14.3718 10.4642 14.3718 10.2484 14.3718 11.0326C14.3718 11.5563 14.3718 12.08 14.3718 12.6038C14.3718 12.8825 14.3886 13.1692 14.3599 13.4471C14.3581 13.4631 14.3562 13.479 14.3541 13.4949C14.3633 13.4276 14.3726 13.3604 14.3819 13.2931C14.3578 13.4649 14.3128 13.6315 14.2468 13.7919C14.2726 13.7301 14.2983 13.6683 14.324 13.6065C14.2578 13.7625 14.1735 13.9083 14.0716 14.0436C14.112 13.9903 14.1525 13.937 14.1929 13.8837C14.0902 14.0169 13.9728 14.136 13.8414 14.2407C13.8948 14.199 13.9482 14.1573 14.0016 14.1156C13.862 14.2241 13.7106 14.3136 13.5482 14.3831C13.6128 14.356 13.6773 14.3289 13.7419 14.3019C13.5821 14.3681 13.4162 14.4133 13.2451 14.4375C13.3145 14.4285 13.3839 14.4195 13.4533 14.4105C13.2706 14.4341 13.0857 14.4284 12.9019 14.4284C12.6017 14.4284 12.3015 14.4284 12.0013 14.4284C11.0101 14.4284 10.019 14.4284 9.02785 14.4284C7.8971 14.4284 6.76637 14.4284 5.63564 14.4284C4.82299 14.4284 4.01033 14.4284 3.1977 14.4284C2.96515 14.4284 2.72639 14.4404 2.49532 14.4105C2.56232 14.4198 2.62931 14.4291 2.69632 14.4385C2.52516 14.4143 2.35929 14.3691 2.19952 14.3029C2.26108 14.3287 2.32263 14.3546 2.38417 14.3804C2.22882 14.3139 2.0835 14.2292 1.94881 14.1269C2.00187 14.1675 2.05495 14.2081 2.10801 14.2487C1.9754 14.1456 1.85669 14.0278 1.75245 13.8959C1.79398 13.9495 1.83551 14.0031 1.87704 14.0567C1.76894 13.9165 1.67988 13.7645 1.61063 13.6015C1.63759 13.6663 1.66452 13.7312 1.69148 13.796C1.62555 13.6356 1.58054 13.469 1.55644 13.2972C1.5654 13.3669 1.57434 13.4366 1.58327 13.5062C1.5598 13.3228 1.56554 13.1372 1.56554 12.9527C1.56554 12.6513 1.56554 12.3499 1.56554 12.0485C1.56554 11.0535 1.56554 10.0585 1.56554 9.06344C1.56554 7.92826 1.56554 6.79309 1.56554 5.65791C1.56554 4.84207 1.56554 4.02623 1.56554 3.21041C1.56554 2.97694 1.55359 2.73725 1.58327 2.50527C1.574 2.57254 1.56474 2.63979 1.55545 2.70706C1.57955 2.53523 1.62456 2.36871 1.69049 2.20831C1.66475 2.27012 1.63903 2.33191 1.61329 2.39369C1.67955 2.23773 1.76388 2.09184 1.86574 1.95662C1.8253 2.00989 1.78487 2.06318 1.74442 2.11644C1.84713 1.98332 1.96448 1.86414 2.0959 1.7595C2.04251 1.80119 1.98912 1.84288 1.93575 1.88457C2.07533 1.77605 2.22675 1.68664 2.38915 1.61712C2.32457 1.64418 2.26 1.67122 2.19543 1.69828C2.35522 1.6321 2.52109 1.58691 2.69223 1.56272C2.62284 1.57171 2.55345 1.58068 2.48405 1.58965C2.76813 1.55301 3.06433 1.57185 3.34992 1.57185C3.86905 1.57185 4.3882 1.57185 4.90733 1.57185C5.68435 1.57185 5.46137 1.57185 6.23841 1.57185C6.66474 1.57185 7.02397 1.22179 7.0268 0.791674C7.02962 0.365815 6.67605 0.000188645 6.24968 0.000188645C5.46688 0.000188645 5.68407 0.000188645 4.90126 0.000188645C4.38383 0.000188645 3.86641 0.000188645 3.34898 0.000188645C2.99038 0.000188645 2.64368 -0.00545061 2.28713 0.044936C1.77626 0.117164 1.32144 0.370756 0.929972 0.697483C0.545879 1.01805 0.279626 1.47516 0.124031 1.94631C0.0162952 2.27246 0 2.61588 0 2.95612C0 3.65933 0 4.36256 0 5.06576C0 6.1756 0 7.28547 0 8.39532C0 9.45232 0 10.5093 0 11.5664C0 12.111 0 12.6557 0 13.2005C0 13.968 0.305643 14.7217 0.867522 15.2482C1.39081 15.7385 2.07959 16 2.79324 16C3.36139 16 3.92955 16 4.49773 16C5.56018 16 6.62264 16 7.68509 16C8.78417 16 9.88323 16 10.9823 16C11.6603 16 12.3383 16 13.0163 16C13.4002 16 13.7886 15.9681 14.147 15.8197C14.2908 15.7601 14.4324 15.7029 14.5672 15.6254C14.7053 15.546 14.83 15.4449 14.9543 15.346C15.1529 15.1878 15.3041 14.9969 15.4544 14.7925C15.7562 14.3822 15.9 13.8649 15.9336 13.3619C15.9513 13.0978 15.9373 12.8289 15.9373 12.5645C15.9373 12.0344 15.9373 11.5042 15.9373 10.9741C15.9373 10.2132 15.9373 10.4522 15.9373 9.69129C15.9373 9.26328 15.5886 8.90265 15.1602 8.8998C14.736 8.89697 14.3718 9.25193 14.3718 9.67997Z" fill="#3FBB7D"/>
<path d="M15.3219 3.34884H12.8372V0.677953C12.8372 0.303628 12.4675 0 12.093 0C11.7185 0 11.3488 0.303628 11.3488 0.677953V3.34884H8.67795C8.30363 3.34884 8 3.71851 8 4.09302C8 4.46753 8.30363 4.83721 8.67795 4.83721H11.3488V7.32186C11.3488 7.69656 11.7185 8 12.093 8C12.4675 8 12.8372 7.69656 12.8372 7.32186V4.83721H15.3219C15.6966 4.83721 16 4.46753 16 4.09302C16 3.71851 15.6966 3.34884 15.3219 3.34884Z" fill="#3FBB7D"/>
</svg>
