<svg width="18" height="18" viewBox="0 0 18 18" fill="none" xmlns="http://www.w3.org/2000/svg">
<path d="M9 18C4.03714 18 0 13.9628 0 9C0 4.03723 4.03723 0 9 0C13.9628 0 18 4.03723 18 9C18 13.9628 13.9628 18 9 18ZM9 1.54286C4.86 1.54286 1.51714 4.88558 1.51714 9C1.51714 13.1144 4.86005 16.4829 9 16.4829C13.14 16.4829 16.4829 13.14 16.4829 9C16.457 4.88562 13.1143 1.54286 9 1.54286V1.54286Z" fill="#BDC4D4"/>
<path d="M8.7691 11.4941C8.35763 11.4941 7.99763 11.1597 7.99763 10.7226C7.99763 9.53965 8.7691 8.51117 9.87473 8.17684C10.3633 8.02258 10.6977 7.58546 10.6718 7.07122C10.6718 6.1455 9.90035 5.37403 8.97464 5.37403C8.04892 5.37403 7.27745 6.1455 7.27745 7.07122C7.27745 7.48269 6.94311 7.84269 6.50597 7.84269C6.0945 7.84269 5.7345 7.50835 5.7345 7.07122C5.78616 5.29689 7.22611 3.85693 9.00044 3.85693C10.7748 3.85693 12.2147 5.29689 12.2147 7.07122C12.2147 8.25417 11.4433 9.28265 10.3376 9.61698C9.84901 9.77124 9.51468 10.2084 9.54053 10.7226C9.54053 11.1341 9.18054 11.4941 8.76906 11.4941H8.7691Z" fill="#BDC4D4"/>
<path d="M9.69396 13.0883C9.69396 13.5997 9.27944 14.014 8.76824 14.014C8.25685 14.014 7.84253 13.5997 7.84253 13.0883C7.84253 12.5771 8.25687 12.1626 8.76824 12.1626C9.27945 12.1626 9.69396 12.5771 9.69396 13.0883Z" fill="#BDC4D4"/>
</svg>
