<svg width="18" height="18" viewBox="0 0 18 18" fill="none" xmlns="http://www.w3.org/2000/svg">
<path d="M17.1 10.8C16.8613 10.8 16.6324 10.8948 16.4636 11.0636C16.2948 11.2324 16.2 11.4613 16.2 11.7V15.3C16.2 15.5387 16.1052 15.7676 15.9364 15.9364C15.7676 16.1052 15.5387 16.2 15.3 16.2H2.7C2.46131 16.2 2.23239 16.1052 2.0636 15.9364C1.89482 15.7676 1.8 15.5387 1.8 15.3V11.7C1.8 11.4613 1.70518 11.2324 1.5364 11.0636C1.36761 10.8948 1.13869 10.8 0.9 10.8C0.661305 10.8 0.432387 10.8948 0.263604 11.0636C0.0948211 11.2324 0 11.4613 0 11.7V15.3C0 16.0161 0.284464 16.7028 0.790812 17.2092C1.29716 17.7155 1.98392 18 2.7 18H15.3C16.0161 18 16.7028 17.7155 17.2092 17.2092C17.7155 16.7028 18 16.0161 18 15.3V11.7C18 11.4613 17.9052 11.2324 17.7364 11.0636C17.5676 10.8948 17.3387 10.8 17.1 10.8ZM8.361 12.339C8.44659 12.4209 8.54752 12.4852 8.658 12.528C8.76573 12.5756 8.88222 12.6002 9 12.6002C9.11778 12.6002 9.23427 12.5756 9.342 12.528C9.45248 12.4852 9.55341 12.4209 9.639 12.339L13.239 8.739C13.4085 8.56953 13.5037 8.33967 13.5037 8.1C13.5037 7.86033 13.4085 7.63047 13.239 7.461C13.0695 7.29153 12.8397 7.19632 12.6 7.19632C12.3603 7.19632 12.1305 7.29153 11.961 7.461L9.9 9.531V0.9C9.9 0.661305 9.80518 0.432387 9.6364 0.263604C9.46761 0.0948211 9.23869 0 9 0C8.7613 0 8.53239 0.0948211 8.3636 0.263604C8.19482 0.432387 8.1 0.661305 8.1 0.9V9.531L6.039 7.461C5.95509 7.37709 5.85546 7.31052 5.74582 7.26511C5.63618 7.21969 5.51867 7.19632 5.4 7.19632C5.28133 7.19632 5.16382 7.21969 5.05418 7.26511C4.94454 7.31052 4.84491 7.37709 4.761 7.461C4.67709 7.54491 4.61052 7.64454 4.56511 7.75418C4.51969 7.86381 4.49632 7.98133 4.49632 8.1C4.49632 8.21867 4.51969 8.33618 4.56511 8.44582C4.61052 8.55546 4.67709 8.65509 4.761 8.739L8.361 12.339Z" fill="#3FBB7D"/>
</svg>
