<svg width="16" height="16" viewBox="0 0 16 16" fill="none" xmlns="http://www.w3.org/2000/svg">
<path d="M16 8C16 3.58549 12.4145 0 8 0C3.58549 0 0 3.58549 0 8C0 12.4145 3.58549 16 8 16C12.4145 16 16 12.4145 16 8ZM7.12953 4.39378C7.12953 3.9171 7.52332 3.52332 8 3.52332C8.47668 3.52332 8.87047 3.9171 8.87047 4.39378V7.85492C8.87047 8.33161 8.47668 8.72539 8 8.72539C7.52332 8.72539 7.12953 8.33161 7.12953 7.85492V4.39378ZM7.19171 10.9637C7.19171 10.5285 7.54404 10.1554 8 10.1554C8.43523 10.1554 8.80829 10.5078 8.80829 10.9637C8.80829 11.399 8.45596 11.772 8 11.772C7.56477 11.772 7.19171 11.4197 7.19171 10.9637Z" fill="#EB5757"/>
</svg>
