<svg width="38" height="37" viewBox="0 0 38 37" fill="none" xmlns="http://www.w3.org/2000/svg">
<path fill-rule="evenodd" clip-rule="evenodd" d="M21.9366 1.72656H10.0924C9.67815 1.72656 9.34236 1.39078 9.34236 0.976563C9.34236 0.562349 9.67815 0.226562 10.0924 0.226562H21.9933H21.9934C23.0279 0.2267 24.0111 0.659147 24.7354 1.41462L24.7354 1.41466L31.7248 8.70538L31.7249 8.70551C32.0938 9.09019 32.3845 9.54697 32.5822 10.0478C32.7798 10.5486 32.8811 11.0849 32.8812 11.6256V11.6257V21.9659C32.8812 22.3801 32.5454 22.7159 32.1312 22.7159C31.717 22.7159 31.3812 22.3801 31.3812 21.9659V11.8014H25.835C24.7849 11.8014 23.7884 11.356 23.0616 10.5808C22.3363 9.80716 21.9366 8.76768 21.9366 7.69315V1.72656ZM30.6422 9.74369C30.8 9.9082 30.9368 10.0958 31.0484 10.3014H25.835C25.2151 10.3014 24.6099 10.0392 24.1559 9.55487C23.7003 9.06888 23.4366 8.39997 23.4366 7.69315V2.25257C23.5117 2.31417 23.5838 2.38094 23.6527 2.45273L30.6421 9.74356L30.6422 9.74369ZM7.69396 8.02024L31.3423 31.6686C31.2535 32.1984 31.0155 32.6858 30.6619 33.0629C30.2078 33.5473 29.6027 33.8095 28.9828 33.8095H10.0924C9.47245 33.8095 8.86733 33.5473 8.41326 33.0629C7.95764 32.577 7.69396 31.908 7.69396 31.2012V11.6257V8.02024ZM6.19396 6.52024V11.6257V31.2012C6.19396 32.2757 6.59368 33.3152 7.31895 34.0888C8.04575 34.8641 9.04225 35.3095 10.0924 35.3095H28.9828C30.0329 35.3095 31.0294 34.8641 31.7562 34.0888C32.0908 33.732 32.3561 33.3185 32.5448 32.8711L35.8018 36.1281C36.0947 36.421 36.5696 36.421 36.8625 36.1281C37.1554 35.8352 37.1554 35.3603 36.8625 35.0675L2.24127 0.446232C1.94837 0.153339 1.4735 0.153339 1.18061 0.446232C0.887714 0.739126 0.887714 1.214 1.18061 1.50689L6.19396 6.52024Z" fill="#EB5757"/>
</svg>
