<svg width="22" height="22" viewBox="0 0 22 22" fill="none" xmlns="http://www.w3.org/2000/svg">
<path fill-rule="evenodd" clip-rule="evenodd" d="M4.60554 0.78595C4.60554 0.371736 4.94133 0.0359497 5.35554 0.0359497H12.4961H12.4962C13.2016 0.0360433 13.8689 0.331074 14.3579 0.841161L14.358 0.841197L18.5515 5.21558C18.8005 5.4752 18.9959 5.78262 19.1285 6.11854C19.261 6.45442 19.3288 6.81359 19.3288 7.17536V7.17544V13.3796C19.3288 13.7938 18.993 14.1296 18.5788 14.1296C18.1646 14.1296 17.8288 13.7938 17.8288 13.3796V7.58088H14.8011C14.085 7.58088 13.4088 7.277 12.9182 6.75366C12.4291 6.23197 12.1621 5.53416 12.1621 4.8159V1.53595H5.35554C4.94133 1.53595 4.60554 1.20016 4.60554 0.78595ZM13.6621 2.28285L17.3031 6.08088H14.8011C14.5152 6.08088 14.2304 5.96018 14.0125 5.72775C13.7931 5.49369 13.6621 5.16645 13.6621 4.8159V2.28285ZM2.7165 3.81213V7.17544V18.9207C2.7165 19.639 2.98354 20.3368 3.47264 20.8585C3.96326 21.3818 4.63943 21.6857 5.35554 21.6857H16.6898C17.4059 21.6857 18.0821 21.3818 18.5727 20.8585C18.7704 20.6476 18.9319 20.4079 19.054 20.1497L20.5691 21.6647C20.862 21.9576 21.3369 21.9576 21.6298 21.6647C21.9227 21.3719 21.9227 20.897 21.6298 20.6041L4.02413 2.99845C4.00644 2.97878 3.98772 2.96006 3.96806 2.94237L1.28131 0.25562C0.988413 -0.0372736 0.51354 -0.0372736 0.220646 0.25562C-0.0722467 0.548513 -0.0722467 1.02339 0.220646 1.31628L2.7165 3.81213ZM17.8288 18.9245L4.2165 5.31213V7.17544V18.9207C4.2165 19.2713 4.3475 19.5985 4.56694 19.8326C4.78484 20.065 5.06964 20.1857 5.35554 20.1857H16.6898C16.9757 20.1857 17.2605 20.065 17.4784 19.8326C17.697 19.5994 17.8279 19.2736 17.8288 18.9245Z" fill="#EB5757"/>
</svg>
