<svg width="10" height="12" viewBox="0 0 10 12" fill="none" xmlns="http://www.w3.org/2000/svg">
<path d="M8.37908 1.00001H3.80811V7.16656H9.97967V2.59558C9.97967 2.38563 9.93824 2.17773 9.85774 1.98382C9.77724 1.78991 9.65926 1.61379 9.51057 1.46556C9.36187 1.31733 9.18538 1.19991 8.99122 1.12002C8.79706 1.04013 8.58904 0.999348 8.37908 1.00001Z" fill="#3FBB7D"/>
<path d="M2.38333 1H1.59558C1.1724 1 0.766562 1.1681 0.467333 1.46733C0.168105 1.76656 0 2.1724 0 2.59558L0 3.38333H2.38333V1Z" fill="#3FBB7D"/>
<path d="M0 4.80811H2.38333V7.19143H0V4.80811Z" fill="#3FBB7D"/>
<path d="M7.61621 10.98H8.40396C8.61392 10.98 8.82181 10.9385 9.01573 10.858C9.20964 10.7775 9.38576 10.6595 9.53398 10.5109C9.68221 10.3622 9.79964 10.1857 9.87953 9.99151C9.95942 9.79734 10.0002 9.58932 9.99954 9.37936V8.6167H7.61621V10.98Z" fill="#3FBB7D"/>
<path d="M3.80811 8.6167H6.19143V11H3.80811V8.6167Z" fill="#3FBB7D"/>
<path d="M0 8.6167V9.40445C0 9.82763 0.168105 10.2335 0.467333 10.5327C0.766562 10.8319 1.1724 11 1.59558 11H2.38333V8.6167H0Z" fill="#3FBB7D"/>
</svg>
