<svg width="12" height="12" viewBox="0 0 12 12" fill="none" xmlns="http://www.w3.org/2000/svg">
<path d="M9.3794 1.00001H4.80829V7.16656H10.98V2.59558C10.98 2.38563 10.9386 2.17773 10.8581 1.98382C10.7776 1.78991 10.6596 1.61379 10.5109 1.46556C10.3622 1.31733 10.1857 1.19991 9.99155 1.12002C9.79739 1.04013 9.58936 0.999348 9.3794 1.00001Z" fill="#1D1D22"/>
<path d="M3.3834 1H2.59562C2.17244 1 1.76658 1.1681 1.46735 1.46733C1.16811 1.76656 1 2.1724 1 2.59558L1 3.38333H3.3834V1Z" fill="#1D1D22"/>
<path d="M1 4.80811H3.3834V7.19143H1V4.80811Z" fill="#1D1D22"/>
<path d="M8.61664 10.98H9.40441C9.61438 10.98 9.82228 10.9385 10.0162 10.858C10.2101 10.7775 10.3862 10.6595 10.5345 10.5109C10.6827 10.3622 10.8001 10.1857 10.88 9.99151C10.9599 9.79734 11.0007 9.58932 11 9.37936V8.6167H8.61664V10.98Z" fill="#1D1D22"/>
<path d="M4.80829 8.6167H7.19169V11H4.80829V8.6167Z" fill="#1D1D22"/>
<path d="M1 8.6167V9.40445C1 9.82763 1.16811 10.2335 1.46735 10.5327C1.76658 10.8319 2.17244 11 2.59562 11H3.3834V8.6167H1Z" fill="#1D1D22"/>
</svg>
