<svg width="16" height="16" viewBox="0 0 16 16" fill="none" xmlns="http://www.w3.org/2000/svg">
<path fill-rule="evenodd" clip-rule="evenodd" d="M14.3718 11.0326V9.67997C14.3718 9.25193 14.736 8.89697 15.1602 8.8998C15.5886 8.90265 15.9373 9.26328 15.9373 9.69129V10.9741V12.5645C15.9373 12.6453 15.9386 12.7265 15.9399 12.8079C15.9429 12.9928 15.9459 13.1785 15.9336 13.3619C15.9 13.8649 15.7562 14.3822 15.4544 14.7925C15.3041 14.9969 15.1529 15.1878 14.9543 15.346L14.9349 15.3614L14.9349 15.3614L14.9349 15.3614C14.817 15.4554 14.6982 15.5501 14.5672 15.6254C14.4402 15.6984 14.3072 15.7534 14.1721 15.8093L14.172 15.8093L14.172 15.8093L14.147 15.8197C13.7886 15.9681 13.4002 16 13.0163 16H10.9823H7.68509H4.49773H2.79324C2.07959 16 1.39081 15.7385 0.867522 15.2482C0.305643 14.7217 0 13.968 0 13.2005V11.5664V8.39532V5.06575V2.95612C0 2.61588 0.0162952 2.27246 0.124031 1.94631C0.279626 1.47516 0.545879 1.01805 0.929972 0.697483C1.32144 0.370756 1.77626 0.117164 2.28713 0.044936C2.61099 -0.000831068 2.92672 -0.00037446 3.25063 9.39632e-05L3.34898 0.000188645H4.90126H6.24968C6.67605 0.000188645 7.02962 0.365815 7.0268 0.791674C7.02397 1.22179 6.66474 1.57185 6.23841 1.57185H4.90733H3.34992C3.27784 1.57185 3.20508 1.57065 3.13202 1.56944H3.13201H3.13201C2.95553 1.56653 2.77723 1.56359 2.60228 1.57746C2.49827 1.59687 2.39631 1.62421 2.29658 1.65948C2.20127 1.70597 2.11 1.75964 2.02297 1.82032C1.94488 1.88852 1.87222 1.96226 1.80513 2.04138C1.74829 2.12523 1.69781 2.21288 1.65382 2.30421C1.61968 2.4006 1.59288 2.49908 1.57341 2.59949C1.56091 2.74979 1.56264 2.90251 1.56435 3.05393C1.56495 3.10629 1.56554 3.1585 1.56554 3.21041V5.65791V9.06344V12.0485V12.9527C1.56554 12.9829 1.56538 13.0133 1.56523 13.0436C1.56463 13.1603 1.56404 13.2772 1.57224 13.3935C1.5915 13.4959 1.61836 13.5962 1.65282 13.6944C1.69913 13.7901 1.75258 13.8817 1.813 13.9691C1.88097 14.0475 1.95446 14.1205 2.03332 14.1879C2.11679 14.2449 2.20405 14.2955 2.29497 14.3397C2.39103 14.374 2.48917 14.4009 2.58923 14.4205C2.73894 14.433 2.89106 14.4313 3.04188 14.4295C3.09402 14.429 3.14601 14.4284 3.1977 14.4284H5.63564H9.02785H12.0013H12.9019C12.932 14.4284 12.9621 14.4285 12.9923 14.4287H12.9923C13.1086 14.4293 13.2251 14.4299 13.3411 14.4216C13.443 14.4023 13.5429 14.3753 13.6408 14.3407C13.7361 14.2942 13.8273 14.2406 13.9143 14.1799C13.9924 14.1117 14.0651 14.038 14.1321 13.9589C14.189 13.875 14.2395 13.7874 14.2835 13.696C14.318 13.5986 14.345 13.499 14.3645 13.3975C14.3804 13.2101 14.3773 13.0192 14.3742 12.8299V12.8299V12.8298V12.8298C14.373 12.7541 14.3718 12.6786 14.3718 12.6038V11.0326ZM12.3459 1.57388L10.1298 1.57184C9.70345 1.57145 9.34988 1.20649 9.3527 0.78035C9.35553 0.350527 9.71475 -0.000206931 10.1411 0.000177167L10.2287 0.000264462L12.946 0.00277856L15.0734 0.00473949C15.1023 0.00154373 15.1317 -3.8894e-06 15.1613 0.000193638C15.2933 0.00107084 15.4178 0.0359425 15.5269 0.0963033C15.5906 0.130497 15.6504 0.17418 15.7041 0.227403C15.7605 0.283349 15.8066 0.346626 15.8422 0.414507C15.8692 0.464099 15.8911 0.51678 15.9071 0.571766C15.9285 0.643375 15.9397 0.718829 15.9392 0.796307C15.9392 0.806498 15.9389 0.816644 15.9384 0.826741L15.9384 0.879655L15.9359 3.60762L15.9338 5.83242C15.9334 6.26044 15.5699 6.61542 15.1454 6.61259C14.7173 6.60974 14.3679 6.24911 14.3683 5.82111L14.3684 5.73313L14.3709 3.00516L14.3712 2.68163L12.8929 4.16458L10.4658 6.59915L8.4241 8.64726L7.56607 9.50797C7.26419 9.81078 6.7637 9.81582 6.45917 9.51389C6.15705 9.21438 6.15196 8.70487 6.45324 8.40264L7.25659 7.5968L9.27037 5.57673L11.6974 3.14216L13.2599 1.57472L12.3459 1.57388Z" fill="#C3C3C3"/>
</svg>
