<svg width="21" height="21" viewBox="0 0 21 21" fill="none" xmlns="http://www.w3.org/2000/svg">
<path d="M17.9748 13.9001C17.7748 16.1251 16.1665 17.5834 13.8332 17.5834H6.33317C4.03317 17.5834 2.1665 15.7167 2.1665 13.4167V7.58341C2.1665 5.31675 3.53317 3.73341 5.65817 3.46675C5.87484 3.43341 6.09984 3.41675 6.33317 3.41675H13.8332C14.0498 3.41675 14.2582 3.42508 14.4582 3.45841C16.4498 3.69175 17.7998 5.08341 17.9748 7.10008C17.9998 7.34175 17.7998 7.54175 17.5582 7.54175H16.2665C15.4665 7.54175 14.7248 7.85008 14.1915 8.40008C13.5582 9.01675 13.2415 9.88342 13.3165 10.7501C13.4498 12.2667 14.7832 13.4584 16.3665 13.4584H17.5582C17.7998 13.4584 17.9998 13.6584 17.9748 13.9001Z" fill="#3FBB7D"/>
<path d="M18.8334 9.64175V11.3584C18.8334 11.8167 18.4667 12.1917 18 12.2084H16.3667C15.4667 12.2084 14.6417 11.5501 14.5667 10.6501C14.5167 10.1251 14.7167 9.63342 15.0667 9.29175C15.375 8.97508 15.8 8.79175 16.2667 8.79175H18C18.4667 8.80841 18.8334 9.18342 18.8334 9.64175Z" fill="#3FBB7D"/>
</svg>
