<svg width="21" height="21" viewBox="0 0 21 21" fill="none" xmlns="http://www.w3.org/2000/svg">
<path d="M9.25817 9.85008L7.42484 2.49175C7.38317 2.30008 7.20817 2.16675 7.00817 2.16675C4.33317 2.16675 2.1665 4.33341 2.1665 7.00841V11.7584C2.1665 12.0417 2.4415 12.2501 2.7165 12.1667L8.9665 10.3584C9.18317 10.3001 9.3165 10.0751 9.25817 9.85008Z" fill="#3FBB7D"/>
<path d="M9.7665 11.9C9.70817 11.6667 9.4665 11.525 9.23317 11.5917L2.47484 13.5584C2.2915 13.6167 2.1665 13.7834 2.1665 13.975V13.9917C2.1665 16.6667 4.33317 18.8334 7.00817 18.8334H10.9415C11.2165 18.8334 11.4248 18.575 11.3582 18.3L9.7665 11.9Z" fill="#3FBB7D"/>
<path d="M13.9919 2.16675H9.20018C8.92518 2.16675 8.71685 2.42508 8.78352 2.70008L12.7335 18.5084C12.7835 18.7001 12.9502 18.8334 13.1502 18.8334H13.9835C16.6669 18.8334 18.8335 16.6667 18.8335 13.9917V7.00841C18.8335 4.33341 16.6669 2.16675 13.9919 2.16675Z" fill="#3FBB7D"/>
</svg>
