<svg width="13" height="16" viewBox="0 0 13 16" fill="none" xmlns="http://www.w3.org/2000/svg">
<path d="M6.4 0C7.24869 0 8.06262 0.337142 8.66274 0.937258C9.26286 1.53737 9.6 2.35131 9.6 3.2V4.8H11C11.2364 4.8 11.4704 4.84656 11.6888 4.93702C11.9072 5.02748 12.1056 5.16006 12.2728 5.32721C12.4399 5.49435 12.5725 5.69278 12.663 5.91117C12.7534 6.12956 12.8 6.36362 12.8 6.6V14.2C12.8 14.4364 12.7534 14.6704 12.663 14.8888C12.5725 15.1072 12.4399 15.3056 12.2728 15.4728C12.1056 15.6399 11.9072 15.7725 11.6888 15.863C11.4704 15.9534 11.2364 16 11 16H1.8C1.32261 16 0.864773 15.8104 0.527208 15.4728C0.189642 15.1352 0 14.6774 0 14.2V6.6C0 6.12261 0.189642 5.66477 0.527208 5.32721C0.864773 4.98964 1.32261 4.8 1.8 4.8H3.2V3.2C3.2 2.35131 3.53714 1.53737 4.13726 0.937258C4.73737 0.337142 5.55131 0 6.4 0ZM11 6H1.8C1.64087 6 1.48826 6.06321 1.37574 6.17574C1.26321 6.28826 1.2 6.44087 1.2 6.6V14.2C1.2 14.5312 1.4688 14.8 1.8 14.8H11C11.1591 14.8 11.3117 14.7368 11.4243 14.6243C11.5368 14.5117 11.6 14.3591 11.6 14.2V6.6C11.6 6.44087 11.5368 6.28826 11.4243 6.17574C11.3117 6.06321 11.1591 6 11 6ZM6.4 9.2C6.71826 9.2 7.02348 9.32643 7.24853 9.55147C7.47357 9.77652 7.6 10.0817 7.6 10.4C7.6 10.7183 7.47357 11.0235 7.24853 11.2485C7.02348 11.4736 6.71826 11.6 6.4 11.6C6.08174 11.6 5.77652 11.4736 5.55147 11.2485C5.32643 11.0235 5.2 10.7183 5.2 10.4C5.2 10.0817 5.32643 9.77652 5.55147 9.55147C5.77652 9.32643 6.08174 9.2 6.4 9.2ZM6.4 1.2C5.86957 1.2 5.36086 1.41071 4.98579 1.78579C4.61071 2.16086 4.4 2.66957 4.4 3.2V4.8H8.4V3.2C8.4 2.66957 8.18929 2.16086 7.81421 1.78579C7.43914 1.41071 6.93043 1.2 6.4 1.2Z" fill="white"/>
</svg>
