<svg width="15" height="18" viewBox="0 0 15 18" fill="none" xmlns="http://www.w3.org/2000/svg">
<path d="M7.2 0C8.15478 0 9.07045 0.379285 9.74558 1.05442C10.4207 1.72955 10.8 2.64522 10.8 3.6V5.4H12.375C12.6409 5.4 12.9043 5.45238 13.1499 5.55414C13.3956 5.65591 13.6189 5.80507 13.8069 5.99311C13.9949 6.18115 14.1441 6.40438 14.2459 6.65007C14.3476 6.89575 14.4 7.15907 14.4 7.425V15.975C14.4 16.2409 14.3476 16.5042 14.2459 16.7499C14.1441 16.9956 13.9949 17.2189 13.8069 17.4069C13.6189 17.5949 13.3956 17.7441 13.1499 17.8459C12.9043 17.9476 12.6409 18 12.375 18H2.025C1.48794 18 0.97287 17.7867 0.593109 17.4069C0.213348 17.0271 0 16.5121 0 15.975V7.425C0 6.88794 0.213348 6.37287 0.593109 5.99311C0.97287 5.61335 1.48794 5.4 2.025 5.4H3.6V3.6C3.6 2.64522 3.97928 1.72955 4.65442 1.05442C5.32955 0.379285 6.24522 0 7.2 0ZM12.375 6.75H2.025C1.84598 6.75 1.67429 6.82112 1.5477 6.9477C1.42112 7.07429 1.35 7.24598 1.35 7.425V15.975C1.35 16.3476 1.6524 16.65 2.025 16.65H12.375C12.554 16.65 12.7257 16.5789 12.8523 16.4523C12.9789 16.3257 13.05 16.154 13.05 15.975V7.425C13.05 7.24598 12.9789 7.07429 12.8523 6.9477C12.7257 6.82112 12.554 6.75 12.375 6.75ZM7.2 10.35C7.55804 10.35 7.90142 10.4922 8.15459 10.7454C8.40777 10.9986 8.55 11.342 8.55 11.7C8.55 12.058 8.40777 12.4014 8.15459 12.6546C7.90142 12.9078 7.55804 13.05 7.2 13.05C6.84196 13.05 6.49858 12.9078 6.24541 12.6546C5.99223 12.4014 5.85 12.058 5.85 11.7C5.85 11.342 5.99223 10.9986 6.24541 10.7454C6.49858 10.4922 6.84196 10.35 7.2 10.35ZM7.2 1.35C6.60326 1.35 6.03097 1.58705 5.60901 2.00901C5.18705 2.43097 4.95 3.00326 4.95 3.6V5.4H9.45V3.6C9.45 3.00326 9.21295 2.43097 8.79099 2.00901C8.36903 1.58705 7.79674 1.35 7.2 1.35Z" fill="white"/>
</svg>
