<svg width="14" height="15" viewBox="0 0 14 15" fill="none" xmlns="http://www.w3.org/2000/svg">
<path d="M6.02778 9.93976C6.02778 9.44071 6.46306 9.03614 7 9.03614C7.53694 9.03614 7.97222 9.44071 7.97222 9.93976C7.97222 10.4388 7.53694 10.8434 7 10.8434C6.46306 10.8434 6.02778 10.4388 6.02778 9.93976Z" fill="#C5EBD8"/>
<path fill-rule="evenodd" clip-rule="evenodd" d="M7 0C4.53006 0 2.52778 1.86099 2.52778 4.15663V4.96172C2.52778 5.01002 2.53457 5.05683 2.54732 5.1014C1.43036 5.48286 0.559738 6.32037 0.190336 7.37705C0 7.9215 0 8.59425 0 9.93976C0 11.2853 0 11.958 0.190336 12.5025C0.575016 13.6028 1.50323 14.4656 2.68716 14.8231C3.27295 15 3.99678 15 5.44443 15H8.55556C10.0032 15 10.7271 15 11.3128 14.8231C12.4968 14.4656 13.425 13.6028 13.8097 12.5025C14 11.958 14 11.2853 14 9.93976C14 8.59425 14 7.9215 13.8097 7.37705C13.4403 6.32037 12.5696 5.48286 11.4527 5.1014C11.4654 5.05683 11.4722 5.01002 11.4722 4.96172V4.15663C11.4722 1.86099 9.46994 0 7 0ZM8.55556 4.87952C9.30633 4.87952 9.86243 4.87952 10.3056 4.90419V4.15663C10.3056 2.45985 8.82561 1.08434 7 1.08434C5.17439 1.08434 3.69444 2.45985 3.69444 4.15663V4.90419C4.13757 4.87952 4.69367 4.87952 5.44444 4.87952H8.55556ZM4.86111 9.93976C4.86111 8.84184 5.81872 7.95181 7 7.95181C8.18128 7.95181 9.13889 8.84184 9.13889 9.93976C9.13889 11.0377 8.18128 11.9277 7 11.9277C5.81872 11.9277 4.86111 11.0377 4.86111 9.93976Z" fill="#C5EBD8"/>
</svg>
