<svg width="18" height="4" viewBox="0 0 18 4" fill="none" xmlns="http://www.w3.org/2000/svg">
<path d="M1.88889 2.77779C2.37981 2.77779 2.77778 2.37982 2.77778 1.8889C2.77778 1.39797 2.37981 1 1.88889 1C1.39797 1 1 1.39797 1 1.8889C1 2.37982 1.39797 2.77779 1.88889 2.77779Z" fill="#3FBB7D" stroke="#3FBB7D" stroke-width="2"/>
<path d="M9.00022 2.77779C9.49114 2.77779 9.88911 2.37982 9.88911 1.8889C9.88911 1.39797 9.49114 1 9.00022 1C8.5093 1 8.11133 1.39797 8.11133 1.8889C8.11133 2.37982 8.5093 2.77779 9.00022 2.77779Z" fill="#3FBB7D" stroke="#3FBB7D" stroke-width="2"/>
<path d="M16.1115 2.77779C16.6025 2.77779 17.0004 2.37982 17.0004 1.8889C17.0004 1.39797 16.6025 1 16.1115 1C15.6206 1 15.2227 1.39797 15.2227 1.8889C15.2227 2.37982 15.6206 2.77779 16.1115 2.77779Z" fill="#3FBB7D" stroke="#3FBB7D" stroke-width="2"/>
</svg>
