<svg width="16" height="4" viewBox="0 0 16 4" fill="none" xmlns="http://www.w3.org/2000/svg">
<path fill-rule="evenodd" clip-rule="evenodd" d="M1.67906 0C0.751742 0 0 0.751743 0 1.67906C0 2.60639 0.751742 3.35813 1.67906 3.35813C2.60639 3.35813 3.35813 2.60639 3.35813 1.67906C3.35813 0.751743 2.60639 0 1.67906 0ZM8 0C7.07268 0 6.32093 0.751743 6.32093 1.67906C6.32093 2.60639 7.07268 3.35813 8 3.35813C8.92732 3.35813 9.67906 2.60639 9.67906 1.67906C9.67906 0.751743 8.92732 0 8 0ZM14.3209 0C13.3936 0 12.6419 0.751742 12.6419 1.67906C12.6419 2.60639 13.3936 3.35813 14.3209 3.35813C15.2483 3.35813 16 2.60639 16 1.67906C16 0.751743 15.2483 0 14.3209 0Z" fill="#C3C3C3"/>
</svg>
