<svg width="10" height="11" viewBox="0 0 10 11" fill="none" xmlns="http://www.w3.org/2000/svg">
<path d="M9.79304 5.41807L5.2495 0.609515C5.21678 0.574799 5.17793 0.547257 5.13515 0.528465C5.09237 0.509673 5.04652 0.5 5.00021 0.5C4.9539 0.5 4.90804 0.509673 4.86526 0.528465C4.82249 0.547257 4.78363 0.574799 4.75091 0.609515L0.207377 5.41807C0.0750086 5.55826 0 5.74869 0 5.94729C0 6.35969 0.31658 6.69498 0.705963 6.69498H1.1847V10.1262C1.1847 10.3329 1.34243 10.5 1.53768 10.5H4.29424V7.8831H5.52968V10.5H8.46274C8.65798 10.5 8.81572 10.3329 8.81572 10.1262V6.69498H9.29445C9.48197 6.69498 9.66177 6.61671 9.79414 6.47535C10.0688 6.18328 10.0688 5.71014 9.79304 5.41807Z" fill="white" fill-opacity="0.6"/>
</svg>
