<svg width="21" height="20" viewBox="0 0 21 20" fill="none" xmlns="http://www.w3.org/2000/svg">
<path fill-rule="evenodd" clip-rule="evenodd" d="M18.8333 10.0001C18.8333 14.6025 15.1024 18.3334 10.5 18.3334C5.89763 18.3334 2.16667 14.6025 2.16667 10.0001C2.16667 5.39771 5.89763 1.66675 10.5 1.66675C15.1024 1.66675 18.8333 5.39771 18.8333 10.0001ZM10.5 5.20841C10.8452 5.20841 11.125 5.48824 11.125 5.83342V10.8334C11.125 11.1786 10.8452 11.4584 10.5 11.4584C10.1548 11.4584 9.875 11.1786 9.875 10.8334V5.83342C9.875 5.48824 10.1548 5.20841 10.5 5.20841ZM10.5 14.1667C10.9602 14.1667 11.3333 13.7937 11.3333 13.3334C11.3333 12.8732 10.9602 12.5001 10.5 12.5001C10.0398 12.5001 9.66667 12.8732 9.66667 13.3334C9.66667 13.7937 10.0398 14.1667 10.5 14.1667Z" fill="#FA5E5E"/>
</svg>
