<svg width="50" height="50" viewBox="0 0 50 50" fill="none" xmlns="http://www.w3.org/2000/svg">
<g clip-path="url(#clip0)">
<path d="M5.71305 13.984C6.17852 12.2469 7.31499 10.7658 8.87247 9.86661L23.5536 1.39043C25.1111 0.491217 26.962 0.247542 28.6992 0.713007C30.4363 1.17847 31.9174 2.31495 32.8166 3.87242L41.2928 18.5536C42.192 20.1111 42.4357 21.962 41.9702 23.6991C41.5047 25.4362 40.3683 26.9173 38.8108 27.8165L24.1296 36.2927C22.5721 37.1919 20.7212 37.4356 18.9841 36.9701C17.2469 36.5047 15.7659 35.3682 14.8667 33.8107L6.39047 19.1296C5.49126 17.5721 5.24759 15.7212 5.71305 13.984Z" fill="white"/>
<path fill-rule="evenodd" clip-rule="evenodd" d="M10.052 11.8735C9.01369 12.473 8.25604 13.4604 7.94573 14.6185C7.63542 15.7766 7.79787 17.0105 8.39734 18.0488L16.8735 32.73C17.473 33.7683 18.4604 34.526 19.6185 34.8363C20.6218 35.1051 21.6821 35.0191 22.6228 34.6015L26.3155 17.626C26.4324 17.0888 26.6601 16.5818 26.9838 16.1376C27.3076 15.6933 27.7204 15.3214 28.1959 15.0455C28.6714 14.7697 29.1992 14.596 29.7455 14.5356C30.2919 14.4751 30.8448 14.5292 31.3691 14.6944L37.6103 16.6599L30.9085 5.05203C30.309 4.01372 29.3216 3.25607 28.1635 2.94576C27.0054 2.63545 25.7715 2.7979 24.7332 3.39737L10.052 11.8735ZM41.3393 18.5981L32.866 3.92188C31.9668 2.3644 30.4857 1.22792 28.7485 0.762459C27.0114 0.296994 25.1605 0.540668 23.603 1.43988L8.92185 9.91606C7.36437 10.8153 6.22789 12.2964 5.76243 14.0335C5.29696 15.7706 5.54064 17.6215 6.43985 19.179L14.916 33.8602C15.8152 35.4177 17.2963 36.5541 19.0335 37.0196C20.7706 37.4851 22.6215 37.2414 24.179 36.3422L38.8601 27.866C38.8809 27.854 38.9016 27.8419 38.9223 27.8297L39.0227 27.7717C40.537 26.8974 41.642 25.4574 42.0945 23.7684C42.5471 22.0794 42.3102 20.2798 41.4359 18.7654L41.3421 18.6031L41.342 18.6027C41.3411 18.6012 41.3402 18.5997 41.3393 18.5981ZM14.8058 13.0439C12.576 14.3312 11.8121 17.1824 13.0994 19.4122C14.3868 21.6419 17.2379 22.4059 19.4677 21.1185C21.6974 19.8312 22.4614 16.98 21.174 14.7503C19.8867 12.5205 17.0355 11.7565 14.8058 13.0439Z" fill="#3FBB7D"/>
<mask id="path-3-inside-1" fill="white">
<rect x="5" y="26" width="27" height="24" rx="1"/>
</mask>
<rect x="5" y="26" width="27" height="24" rx="1" fill="#D3ECDD" stroke="#3FBB7D" stroke-width="4" mask="url(#path-3-inside-1)"/>
<path d="M31.0188 27L44.0188 27V49H31.0188L31.0188 27Z" fill="#A6D9BC" stroke="#3FBB7D" stroke-width="2"/>
<path d="M31.823 27L44.4646 27L48.2146 33L35.573 33L31.823 27Z" fill="#D3ECDD" stroke="#3FBB7D" stroke-width="2"/>
<path d="M30.2146 27H5.57305L1.82305 33L26.4646 33L30.2146 27Z" fill="#D3ECDD" stroke="#3FBB7D" stroke-width="2"/>
<circle cx="1.5" cy="19.5" r="1" fill="#3FBB7D" stroke="#3FBB7D"/>
<path d="M3 5L5.5 7.5" stroke="#3FBB7D" stroke-width="1.4" stroke-linecap="round"/>
<path d="M3 7.5L5.5 5" stroke="#3FBB7D" stroke-width="1.4" stroke-linecap="round"/>
<path d="M26 43.5H19" stroke="#3FBB7D" stroke-width="2" stroke-linecap="round"/>
</g>
<defs>
<clipPath id="clip0">
<rect width="50" height="50" fill="white"/>
</clipPath>
</defs>
</svg>
