<svg width="60" height="60" viewBox="0 0 60 60" fill="none" xmlns="http://www.w3.org/2000/svg">
<path d="M46.3126 23.6563C46.3126 19.1753 44.9839 14.795 42.4943 11.0691C40.0048 7.34334 36.4664 4.43942 32.3265 2.72462C28.1866 1.00982 23.6312 0.561146 19.2363 1.43534C14.8414 2.30954 10.8044 4.46735 7.63589 7.63589C4.46735 10.8044 2.30954 14.8414 1.43534 19.2363C0.561146 23.6312 1.00982 28.1866 2.72462 32.3265C4.43942 36.4664 7.34334 40.0048 11.0691 42.4943C14.795 44.9839 19.1753 46.3126 23.6563 46.3126C29.6631 46.3059 35.4219 43.9167 39.6693 39.6693C43.9167 35.4219 46.3059 29.6631 46.3126 23.6563V23.6563ZM23.6563 44.5001C19.5338 44.5001 15.5039 43.2777 12.0761 40.9873C8.64838 38.697 5.97677 35.4416 4.39915 31.6329C2.82154 27.8242 2.40876 23.6332 3.21302 19.5899C4.01729 15.5466 6.00247 11.8326 8.91752 8.91752C11.8326 6.00247 15.5466 4.01729 19.5899 3.21302C23.6332 2.40876 27.8242 2.82154 31.6329 4.39915C35.4416 5.97677 38.697 8.64838 40.9873 12.0761C43.2777 15.5039 44.5001 19.5338 44.5001 23.6563C44.4938 29.1825 42.2958 34.4806 38.3882 38.3882C34.4806 42.2958 29.1825 44.4938 23.6563 44.5001V44.5001Z" fill="#BDC4D4" stroke="#BDC4D4" stroke-width="0.7"/>
<path d="M23.6563 7.79688C20.5196 7.79688 17.4533 8.72701 14.8453 10.4697C12.2372 12.2123 10.2045 14.6892 9.00411 17.5872C7.80375 20.4851 7.48968 23.6739 8.10162 26.7503C8.71356 29.8267 10.224 32.6526 12.442 34.8706C14.66 37.0886 17.4859 38.599 20.5623 39.211C23.6387 39.8229 26.8275 39.5088 29.7254 38.3085C32.6234 37.1081 35.1003 35.0754 36.8429 32.4673C38.5856 29.8592 39.5157 26.793 39.5157 23.6563C39.5109 19.4516 37.8385 15.4205 34.8653 12.4473C31.8921 9.4741 27.861 7.80166 23.6563 7.79688V7.79688ZM23.6563 37.7032C20.8781 37.7032 18.1623 36.8794 15.8523 35.3359C13.5423 33.7924 11.7418 31.5985 10.6786 29.0318C9.61547 26.4651 9.33729 23.6407 9.87929 20.9159C10.4213 18.191 11.7591 15.6881 13.7236 13.7236C15.6881 11.7591 18.191 10.4213 20.9159 9.87929C23.6407 9.33728 26.4651 9.61546 29.0318 10.6786C31.5986 11.7418 33.7924 13.5422 35.3359 15.8522C36.8794 18.1622 37.7032 20.8781 37.7032 23.6563C37.699 27.3805 36.2177 30.9509 33.5843 33.5843C30.9509 36.2177 27.3805 37.699 23.6563 37.7032Z" fill="#BDC4D4" stroke="#BDC4D4" stroke-width="0.7"/>
<path d="M57.6055 50.8689L48.1411 41.4045C47.8418 41.1042 47.4464 40.9188 47.0241 40.8809C46.6018 40.8429 46.1796 40.9549 45.8317 41.1971L43.1091 38.4746C42.7404 38.9575 42.3543 39.4258 41.9509 39.8795L44.5268 42.4555L42.4569 44.5253L39.881 41.9494C39.4272 42.3523 38.9589 42.7384 38.4761 43.1077L41.1981 45.8297C40.9561 46.1779 40.8444 46.6001 40.8824 47.0223C40.9204 47.4446 41.1058 47.84 41.406 48.1394L50.8703 57.6037C51.7633 58.4969 52.9747 58.9987 54.2377 58.9987C55.5008 58.9987 56.7121 58.497 57.6053 57.6039C58.4984 56.7108 59.0002 55.4995 59.0002 54.2365C59.0002 52.9734 58.4985 51.7621 57.6054 50.8689L57.6055 50.8689ZM56.3235 56.3224V56.3225C55.7702 56.8756 55.0199 57.1863 54.2376 57.1862C53.4553 57.1862 52.705 56.8753 52.1519 56.3221L42.6876 46.8578L46.8594 42.6861L56.3238 52.1505C56.5977 52.4245 56.815 52.7497 56.9632 53.1076C57.1114 53.4656 57.1877 53.8492 57.1877 54.2366C57.1876 54.624 57.1113 55.0076 56.963 55.3655C56.8147 55.7234 56.5974 56.0485 56.3235 56.3224H56.3235Z" fill="#BDC4D4" stroke="#BDC4D4" stroke-width="0.7"/>
<path fill-rule="evenodd" clip-rule="evenodd" d="M29.6993 17.3007C29.2984 16.8998 28.6485 16.8998 28.2471 17.3007L23.5002 22.0476L18.7529 17.3007C18.3519 16.8998 17.7016 16.8998 17.3007 17.3007C16.8998 17.7016 16.8998 18.3519 17.3007 18.7528L22.0476 23.5002L17.3007 28.2471C16.8998 28.648 16.8998 29.2983 17.3007 29.6992C17.501 29.8999 17.764 30 18.0266 30C18.2896 30 18.5522 29.8999 18.7529 29.6992L23.4998 24.9523L28.2467 29.6992C28.4474 29.8999 28.7104 30 28.973 30C29.236 30 29.4986 29.8999 29.6993 29.6992C30.1002 29.2983 30.1002 28.648 29.6993 28.2471L24.952 23.5002L29.6993 18.7528C30.1002 18.3519 30.1002 17.7016 29.6993 17.3007V17.3007Z" fill="#EB5757" stroke="#EB5757" stroke-width="0.5"/>
</svg>
