<svg width="17" height="16" viewBox="0 0 17 16" fill="none" xmlns="http://www.w3.org/2000/svg">
<path fill-rule="evenodd" clip-rule="evenodd" d="M3.5 1.5H13.5C14.3284 1.5 15 2.17157 15 3V13C15 13.8284 14.3284 14.5 13.5 14.5H3.5C2.67157 14.5 2 13.8284 2 13V3C2 2.17157 2.67157 1.5 3.5 1.5ZM0.5 3C0.5 1.34315 1.84315 0 3.5 0H13.5C15.1569 0 16.5 1.34315 16.5 3V13C16.5 14.6569 15.1569 16 13.5 16H3.5C1.84315 16 0.5 14.6569 0.5 13V3ZM4.72225 4.44445C4.35406 4.44445 4.05558 4.74292 4.05558 5.11111C4.05558 5.4793 4.35406 5.77778 4.72225 5.77778H12.2778C12.646 5.77778 12.9445 5.4793 12.9445 5.11111C12.9445 4.74292 12.646 4.44445 12.2778 4.44445H4.72225ZM4.05558 7.77777C4.05558 7.40958 4.35406 7.1111 4.72225 7.1111H12.2778C12.646 7.1111 12.9445 7.40958 12.9445 7.77777C12.9445 8.14596 12.646 8.44444 12.2778 8.44444H4.72225C4.35406 8.44444 4.05558 8.14596 4.05558 7.77777ZM4.72225 9.77779C4.35406 9.77779 4.05558 10.0763 4.05558 10.4445C4.05558 10.8126 4.35406 11.1111 4.72225 11.1111H8.72225C9.09044 11.1111 9.38891 10.8126 9.38891 10.4445C9.38891 10.0763 9.09044 9.77779 8.72225 9.77779H4.72225Z" fill="#3FBB7D"/>
</svg>
