<svg width="22" height="22" viewBox="0 0 22 22" fill="none" xmlns="http://www.w3.org/2000/svg">
<path fill-rule="evenodd" clip-rule="evenodd" d="M11 1.5C5.75329 1.5 1.5 5.75329 1.5 11C1.5 16.2467 5.75329 20.5 11 20.5C16.2467 20.5 20.5 16.2467 20.5 11C20.5 5.75329 16.2467 1.5 11 1.5ZM0.5 11C0.5 5.20101 5.20101 0.5 11 0.5C16.799 0.5 21.5 5.20101 21.5 11C21.5 16.799 16.799 21.5 11 21.5C5.20101 21.5 0.5 16.799 0.5 11ZM11 6.5C11.2761 6.5 11.5 6.72386 11.5 7V10.5H15C15.2761 10.5 15.5 10.7239 15.5 11C15.5 11.2761 15.2761 11.5 15 11.5H11.5V15C11.5 15.2761 11.2761 15.5 11 15.5C10.7239 15.5 10.5 15.2761 10.5 15V11.5H7C6.72386 11.5 6.5 11.2761 6.5 11C6.5 10.7239 6.72386 10.5 7 10.5H10.5V7C10.5 6.72386 10.7239 6.5 11 6.5Z" fill="#3FBB7D"/>
<path d="M11.5 10.5H11.25C11.25 10.6381 11.3619 10.75 11.5 10.75V10.5ZM11.5 11.5V11.25C11.3619 11.25 11.25 11.3619 11.25 11.5H11.5ZM10.5 11.5H10.75C10.75 11.3619 10.6381 11.25 10.5 11.25V11.5ZM10.5 10.5V10.75C10.6381 10.75 10.75 10.6381 10.75 10.5H10.5ZM1.75 11C1.75 5.89137 5.89137 1.75 11 1.75V1.25C5.61522 1.25 1.25 5.61522 1.25 11H1.75ZM11 20.25C5.89137 20.25 1.75 16.1086 1.75 11H1.25C1.25 16.3848 5.61522 20.75 11 20.75V20.25ZM20.25 11C20.25 16.1086 16.1086 20.25 11 20.25V20.75C16.3848 20.75 20.75 16.3848 20.75 11H20.25ZM11 1.75C16.1086 1.75 20.25 5.89137 20.25 11H20.75C20.75 5.61522 16.3848 1.25 11 1.25V1.75ZM11 0.25C5.06294 0.25 0.25 5.06294 0.25 11H0.75C0.75 5.33908 5.33908 0.75 11 0.75V0.25ZM21.75 11C21.75 5.06294 16.9371 0.25 11 0.25V0.75C16.6609 0.75 21.25 5.33908 21.25 11H21.75ZM11 21.75C16.9371 21.75 21.75 16.9371 21.75 11H21.25C21.25 16.6609 16.6609 21.25 11 21.25V21.75ZM0.25 11C0.25 16.9371 5.06294 21.75 11 21.75V21.25C5.33908 21.25 0.75 16.6609 0.75 11H0.25ZM11.75 7C11.75 6.58579 11.4142 6.25 11 6.25V6.75C11.1381 6.75 11.25 6.86193 11.25 7H11.75ZM11.75 10.5V7H11.25V10.5H11.75ZM11.5 10.75H15V10.25H11.5V10.75ZM15 10.75C15.1381 10.75 15.25 10.8619 15.25 11H15.75C15.75 10.5858 15.4142 10.25 15 10.25V10.75ZM15.25 11C15.25 11.1381 15.1381 11.25 15 11.25V11.75C15.4142 11.75 15.75 11.4142 15.75 11H15.25ZM15 11.25H11.5V11.75H15V11.25ZM11.75 15V11.5H11.25V15H11.75ZM11 15.75C11.4142 15.75 11.75 15.4142 11.75 15H11.25C11.25 15.1381 11.1381 15.25 11 15.25V15.75ZM10.25 15C10.25 15.4142 10.5858 15.75 11 15.75V15.25C10.8619 15.25 10.75 15.1381 10.75 15H10.25ZM10.25 11.5V15H10.75V11.5H10.25ZM10.5 11.25H7V11.75H10.5V11.25ZM7 11.25C6.86193 11.25 6.75 11.1381 6.75 11H6.25C6.25 11.4142 6.58579 11.75 7 11.75V11.25ZM6.75 11C6.75 10.8619 6.86193 10.75 7 10.75V10.25C6.58579 10.25 6.25 10.5858 6.25 11H6.75ZM7 10.75H10.5V10.25H7V10.75ZM10.25 7V10.5H10.75V7H10.25ZM11 6.25C10.5858 6.25 10.25 6.58579 10.25 7H10.75C10.75 6.86193 10.8619 6.75 11 6.75V6.25Z" fill="#3FBB7D"/>
</svg>
