<svg width="18" height="19" viewBox="0 0 18 19" fill="none" xmlns="http://www.w3.org/2000/svg">
<path fill-rule="evenodd" clip-rule="evenodd" d="M11.8004 10.4925L7.49617 15.0176C7.2264 15.3012 6.83274 15.4312 6.44712 15.3641L5.33822 15.171C4.87262 15.0899 4.50143 14.7369 4.39718 14.2759L4.09362 12.9336C4.00806 12.5552 4.24542 12.1791 4.6238 12.0936C5.00217 12.008 5.37827 12.2454 5.46384 12.6237L5.73297 13.8138L6.56465 13.9586L11.1466 9.14155C11.3773 8.89896 11.7401 8.85746 12.0158 9.02252C12.0883 9.00524 12.163 8.99519 12.2381 8.99261C13.2673 8.95717 14.6217 8.54575 15.2555 7.87944C16.5032 6.56773 16.4513 4.49292 15.1396 3.24523C13.8279 1.99754 11.7531 2.04944 10.5054 3.36115C9.61544 4.29675 9.38667 5.62058 9.80463 6.75559C9.91697 7.06065 9.88266 7.41303 9.65861 7.64857C9.33844 7.98517 8.78617 7.94276 8.59813 7.51797C7.85499 5.83919 8.14332 3.80608 9.48749 2.39294C11.2699 0.519069 14.2339 0.444927 16.1078 2.22734C17.9817 4.00976 18.0558 6.97377 16.2734 8.84765C15.1629 10.0151 13.4047 10.6828 11.8654 10.5033C11.8432 10.5007 11.8215 10.4971 11.8004 10.4925ZM14.2046 5.58721C13.8481 5.96198 13.2553 5.97681 12.8805 5.62033C12.5057 5.26384 12.4909 4.67104 12.8474 4.29627C13.2039 3.92149 13.7967 3.90666 14.1715 4.26315C14.5462 4.61963 14.5611 5.21243 14.2046 5.58721ZM14.3718 14.0326V12.68C14.3718 12.2519 14.736 11.897 15.1602 11.8998C15.5886 11.9026 15.9373 12.2633 15.9373 12.6913V13.9741V15.5645C15.9373 15.6453 15.9386 15.7265 15.9399 15.8079C15.9429 15.9928 15.9459 16.1785 15.9336 16.3619C15.9 16.8649 15.7562 17.3822 15.4544 17.7925C15.3041 17.9969 15.1529 18.1878 14.9543 18.346C14.9478 18.3511 14.9414 18.3563 14.9349 18.3614C14.817 18.4554 14.6982 18.5501 14.5672 18.6254C14.4402 18.6984 14.3072 18.7534 14.172 18.8093C14.1637 18.8128 14.1554 18.8162 14.147 18.8197C13.7886 18.9681 13.4002 19 13.0163 19H10.9823H7.68509H4.49773H2.79324C2.07959 19 1.39081 18.7385 0.867522 18.2482C0.305643 17.7216 0 16.968 0 16.2004V14.5664V11.3953V8.06575V5.95611C0 5.61587 0.0162952 5.27245 0.124031 4.9463C0.279626 4.47515 0.545879 4.01804 0.929972 3.69747C1.32144 3.37075 1.77626 3.11716 2.28713 3.04493C2.61099 2.99916 2.92672 2.99962 3.25063 3.00009C3.28332 3.00013 3.3161 3.00018 3.34898 3.00018H4.90126H6.24968C6.67605 3.00018 7.02962 3.36581 7.0268 3.79167C7.02397 4.22179 6.66474 4.57184 6.23841 4.57184H4.90733H3.34992C3.27784 4.57184 3.20508 4.57064 3.13202 4.56943C2.95553 4.56652 2.77723 4.56358 2.60228 4.57745C2.49827 4.59686 2.39631 4.6242 2.29658 4.65947C2.20127 4.70597 2.11 4.75964 2.02297 4.82031C1.94488 4.88851 1.87221 4.96225 1.80513 5.04138C1.74829 5.12522 1.69781 5.21287 1.65382 5.3042C1.61968 5.40059 1.59288 5.49907 1.57341 5.59948C1.56091 5.74978 1.56264 5.9025 1.56435 6.05392C1.56495 6.10628 1.56554 6.15849 1.56554 6.2104V8.6579V12.0634V15.0485V15.9526C1.56554 15.9829 1.56538 16.0133 1.56523 16.0436C1.56463 16.1603 1.56404 16.2772 1.57224 16.3935C1.5915 16.4958 1.61836 16.5962 1.65282 16.6944C1.69913 16.7901 1.75258 16.8817 1.813 16.9691C1.88097 17.0475 1.95446 17.1205 2.03332 17.1879C2.11679 17.2449 2.20405 17.2955 2.29496 17.3397C2.39102 17.374 2.48917 17.4009 2.58923 17.4204C2.73895 17.433 2.89106 17.4313 3.04188 17.4295C3.09403 17.4289 3.14601 17.4284 3.1977 17.4284H5.63564H9.02785H12.0013H12.9019C12.932 17.4284 12.9621 17.4285 12.9923 17.4287C13.1086 17.4293 13.2251 17.4298 13.3411 17.4216C13.443 17.4023 13.5429 17.3753 13.6408 17.3407C13.7361 17.2942 13.8273 17.2405 13.9143 17.1799C13.9924 17.1117 14.0651 17.038 14.1321 16.9589C14.189 16.875 14.2395 16.7874 14.2835 16.696C14.318 16.5986 14.345 16.499 14.3645 16.3975C14.3804 16.2101 14.3773 16.0192 14.3742 15.8299C14.373 15.7541 14.3718 15.6787 14.3718 15.6037V14.0326Z" fill="#3FBB7D"/>
</svg>
