<svg width="18" height="18" viewBox="0 0 18 18" fill="none" xmlns="http://www.w3.org/2000/svg">
<path d="M6.23077 18C6.61312 18 6.92308 17.69 6.92308 17.3077C6.92308 16.9253 6.61312 16.6154 6.23077 16.6154H5.30769C3.14104 16.6154 1.38461 14.859 1.38461 12.6923V11.7692C1.38461 11.3869 1.07466 11.0769 0.692308 11.0769C0.309958 11.0769 0 11.3869 0 11.7692V12.6923C0 15.6237 2.37634 18 5.30769 18H6.23077Z" fill="#BDC4D4"/>
<path d="M12.6923 18C15.6237 18 18 15.6237 18 12.6923V11.7692C18 11.3869 17.69 11.0769 17.3077 11.0769C16.9253 11.0769 16.6154 11.3869 16.6154 11.7692V12.6923C16.6154 14.859 14.859 16.6154 12.6923 16.6154H11.7692C11.3869 16.6154 11.0769 16.9253 11.0769 17.3077C11.0769 17.69 11.3869 18 11.7692 18H12.6923Z" fill="#BDC4D4"/>
<path d="M16.6154 6.23077C16.6154 6.61312 16.9253 6.92308 17.3077 6.92308C17.69 6.92308 18 6.61312 18 6.23077V5.30769C18 2.37633 15.6237 0 12.6923 0H11.7692C11.3869 0 11.0769 0.309958 11.0769 0.692308C11.0769 1.07466 11.3869 1.38461 11.7692 1.38461H12.6923C14.859 1.38461 16.6154 3.14104 16.6154 5.30769V6.23077Z" fill="#BDC4D4"/>
<path d="M0 6.23077C0 6.61312 0.309958 6.92308 0.692308 6.92308C1.07466 6.92308 1.38461 6.61312 1.38461 6.23077V5.30769C1.38461 3.14104 3.14104 1.38461 5.30769 1.38461H6.23077C6.61312 1.38461 6.92308 1.07466 6.92308 0.692308C6.92308 0.309958 6.61312 0 6.23077 0H5.30769C2.37633 0 0 2.37634 0 5.30769V6.23077Z" fill="#BDC4D4"/>
<path d="M7.99969 6.00079C7.99969 6.9436 7.99969 7.41501 7.7068 7.7079C7.41391 8.00079 6.9425 8.00079 5.99969 8.00079C5.05689 8.00079 4.58548 8.00079 4.29259 7.7079C3.99969 7.41501 3.99969 6.9436 3.99969 6.00079C3.99969 5.05798 3.99969 4.58658 4.29259 4.29369C4.58548 4.00079 5.05689 4.00079 5.99969 4.00079C6.9425 4.00079 7.41391 4.00079 7.7068 4.29369C7.99969 4.58658 7.99969 5.05798 7.99969 6.00079Z" fill="#BDC4D4"/>
<path d="M7.99969 11.9999C7.99969 12.9427 7.99969 13.4141 7.7068 13.707C7.41391 13.9999 6.9425 13.9999 5.99969 13.9999C5.05689 13.9999 4.58548 13.9999 4.29259 13.707C3.99969 13.4141 3.99969 12.9427 3.99969 11.9999C3.99969 11.0571 3.99969 10.5857 4.29259 10.2928C4.58548 9.99988 5.05689 9.99988 5.99969 9.99988C6.9425 9.99988 7.41391 9.99988 7.7068 10.2928C7.99969 10.5857 7.99969 11.0571 7.99969 11.9999Z" fill="#BDC4D4"/>
<path d="M13.9999 6.00079C13.9999 6.9436 13.9999 7.41501 13.707 7.7079C13.4141 8.00079 12.9427 8.00079 11.9999 8.00079C11.0571 8.00079 10.5857 8.00079 10.2928 7.7079C9.99988 7.41501 9.99988 6.9436 9.99988 6.00079C9.99988 5.05798 9.99988 4.58658 10.2928 4.29369C10.5857 4.00079 11.0571 4.00079 11.9999 4.00079C12.9427 4.00079 13.4141 4.00079 13.707 4.29369C13.9999 4.58658 13.9999 5.05798 13.9999 6.00079Z" fill="#BDC4D4"/>
<path d="M13.9999 11.9999C13.9999 12.9427 13.9999 13.4141 13.707 13.707C13.4141 13.9999 12.9427 13.9999 11.9999 13.9999C11.0571 13.9999 10.5857 13.9999 10.2928 13.707C9.99988 13.4141 9.99988 12.9427 9.99988 11.9999C9.99988 11.0571 9.99988 10.5857 10.2928 10.2928C10.5857 9.99988 11.0571 9.99988 11.9999 9.99988C12.9427 9.99988 13.4141 9.99988 13.707 10.2928C13.9999 10.5857 13.9999 11.0571 13.9999 11.9999Z" fill="#BDC4D4"/>
</svg>
