<svg width="24" height="24" viewBox="0 0 24 24" fill="none" xmlns="http://www.w3.org/2000/svg">
<path fill-rule="evenodd" clip-rule="evenodd" d="M22 12C22 17.5228 17.5228 22 12 22C6.47715 22 2 17.5228 2 12C2 6.47715 6.47715 2 12 2C17.5228 2 22 6.47715 22 12ZM13.5585 7.66138C12.5866 6.36543 10.5591 6.69444 10.0468 8.23126L9.71151 9.23717C9.58053 9.63013 9.15579 9.8425 8.76283 9.71152C8.36987 9.58053 8.1575 9.15579 8.28849 8.76283L8.62379 7.75691C9.5187 5.0722 13.0606 4.49743 14.7585 6.76138C15.7532 8.08755 15.6838 9.92892 14.5922 11.1765L13.673 12.227C13.078 12.907 12.75 13.7798 12.75 14.6834V15C12.75 15.4142 12.4142 15.75 12 15.75C11.5858 15.75 11.25 15.4142 11.25 15V14.6834C11.25 13.4165 11.7098 12.1927 12.5441 11.2392L13.4633 10.1887C14.0882 9.47458 14.1279 8.42052 13.5585 7.66138ZM12 19C12.5523 19 13 18.5523 13 18C13 17.4477 12.5523 17 12 17C11.4477 17 11 17.4477 11 18C11 18.5523 11.4477 19 12 19Z" fill="#3FBB7D"/>
</svg>
