<svg width="21" height="20" viewBox="0 0 21 20" fill="none" xmlns="http://www.w3.org/2000/svg">
<path fill-rule="evenodd" clip-rule="evenodd" d="M1.56102 2.29008C0.5 3.75045 0.5 5.83363 0.5 10C0.5 14.1664 0.5 16.2496 1.56102 17.7099C1.90368 18.1816 2.31844 18.5963 2.79008 18.939C4.25045 20 6.33363 20 10.5 20C14.6664 20 16.7496 20 18.2099 18.939C18.6816 18.5963 19.0963 18.1816 19.439 17.7099C20.5 16.2496 20.5 14.1664 20.5 10C20.5 5.83363 20.5 3.75045 19.439 2.29008C19.0963 1.81844 18.6816 1.40368 18.2099 1.06102C16.7496 0 14.6664 0 10.5 0C6.33363 0 4.25045 0 2.79008 1.06102C2.31844 1.40368 1.90368 1.81844 1.56102 2.29008ZM11.3333 5.55556C11.3333 5.09532 10.9602 4.72222 10.5 4.72222C10.0398 4.72222 9.66667 5.09532 9.66667 5.55556V13.2625C9.65087 13.2501 9.63476 13.2374 9.61832 13.2242C9.25985 12.9363 8.8337 12.5081 8.2006 11.8694L6.64743 10.3023C6.32345 9.97538 5.79582 9.97303 5.46894 10.297C5.14205 10.621 5.1397 11.1486 5.46368 11.4755L7.05072 13.0768C7.64115 13.6725 8.13358 14.1694 8.57471 14.5237C9.0374 14.8953 9.52368 15.1779 10.1161 15.2534C10.2436 15.2697 10.3718 15.2778 10.5 15.2778C10.6282 15.2778 10.7564 15.2697 10.8839 15.2534C11.4763 15.1779 11.9626 14.8953 12.4253 14.5237C12.8664 14.1694 13.3588 13.6725 13.9493 13.0768L15.5363 11.4755C15.8603 11.1486 15.858 10.621 15.5311 10.297C15.2042 9.97303 14.6765 9.97538 14.3526 10.3023L12.7994 11.8694C12.1663 12.5081 11.7402 12.9363 11.3817 13.2242C11.3652 13.2374 11.3491 13.2501 11.3333 13.2625V5.55556Z" fill="white"/>
</svg>
