<svg width="16" height="16" viewBox="0 0 16 16" fill="none" xmlns="http://www.w3.org/2000/svg">
<path d="M2.3125 9.08108C3.03737 9.08108 3.60595 9.68205 3.82484 10.3731C3.94884 10.7646 4.12923 11.1387 4.36232 11.4835C4.84305 12.1947 5.52633 12.7489 6.32576 13.0762C7.12518 13.4035 8.00485 13.4892 8.85352 13.3223C9.70218 13.1555 10.4817 12.7436 11.0936 12.1388C11.7054 11.5341 12.1221 10.7635 12.2909 9.92471C12.4597 9.08587 12.3731 8.2164 12.042 7.42623C11.7108 6.63606 11.1501 5.9607 10.4306 5.48553C9.71115 5.01037 8.86529 4.75676 8 4.75676L8 5.99065C8 6.38879 7.55733 6.62722 7.22488 6.40816L3.3836 3.87697C3.08375 3.67938 3.08375 3.23954 3.3836 3.04195L7.22488 0.510757C7.55733 0.291692 8 0.53013 8 0.928264L8 2.16216C9.38446 2.16216 10.7378 2.56795 11.889 3.32821C13.0401 4.08847 13.9373 5.16906 14.4672 6.43332C14.997 7.69759 15.1356 9.08875 14.8655 10.4309C14.5954 11.773 13.9287 13.0059 12.9497 13.9735C11.9708 14.9411 10.7235 15.6001 9.36563 15.8671C8.00776 16.134 6.6003 15.997 5.32121 15.4733C4.04213 14.9496 2.94888 14.0628 2.17971 12.925C1.65779 12.153 1.30099 11.2889 1.12554 10.3856C0.987321 9.67399 1.58763 9.08108 2.3125 9.08108Z" fill="#BDC4D4"/>
</svg>
