<svg width="14" height="14" viewBox="0 0 14 14" fill="none" xmlns="http://www.w3.org/2000/svg">
<path d="M12.8092 8.00106C12.6328 7.94609 12.4419 7.96307 12.278 8.0483C12.1141 8.13353 11.9905 8.2801 11.9342 8.45606C11.6035 9.46719 10.9588 10.3464 10.0939 10.9658C9.22898 11.5853 8.18898 11.9125 7.12522 11.9001C5.80946 11.915 4.54147 11.4076 3.5993 10.489C2.65712 9.57047 2.11767 8.31577 2.09922 7.00006C2.11767 5.68435 2.65712 4.42965 3.5993 3.5111C4.54147 2.59254 5.80946 2.08511 7.12522 2.10006C8.31352 2.09719 9.46526 2.51083 10.3802 3.26906L8.86122 3.01706C8.77018 3.00208 8.67708 3.00525 8.58727 3.02637C8.49746 3.0475 8.41271 3.08617 8.3379 3.14017C8.26309 3.19416 8.19969 3.26241 8.15135 3.34099C8.10301 3.41958 8.07068 3.50694 8.05622 3.59806C8.04124 3.6891 8.0444 3.7822 8.06553 3.87201C8.08666 3.96182 8.12533 4.04656 8.17932 4.12138C8.23332 4.19619 8.30157 4.25959 8.38015 4.30793C8.45873 4.35627 8.5461 4.3886 8.63722 4.40306L11.6052 4.89306H11.7242C11.8054 4.89297 11.8859 4.87875 11.9622 4.85106C11.9879 4.84133 12.0116 4.82711 12.0322 4.80906C12.0824 4.7904 12.1296 4.76445 12.1722 4.73206L12.2352 4.65506C12.2352 4.62006 12.2982 4.59206 12.3262 4.55006C12.3542 4.50806 12.3262 4.48006 12.3612 4.45206C12.3806 4.41129 12.3969 4.36918 12.4102 4.32606L12.9352 1.52606C12.9527 1.43414 12.9519 1.33967 12.9328 1.24806C12.9138 1.15645 12.8769 1.06948 12.8242 0.992132C12.7716 0.91478 12.7042 0.848557 12.626 0.797242C12.5477 0.745928 12.4601 0.710527 12.3682 0.693061C12.2763 0.675595 12.1818 0.676407 12.0902 0.695449C11.9986 0.714491 11.9116 0.75139 11.8343 0.804041C11.6781 0.910374 11.5705 1.07441 11.5352 1.26006L11.3462 2.27506C10.1744 1.25953 8.67584 0.700363 7.12522 0.700061C5.43817 0.685128 3.8141 1.34007 2.60938 2.52117C1.40466 3.70227 0.717692 5.31305 0.699219 7.00006C0.717692 8.68707 1.40466 10.2979 2.60938 11.479C3.8141 12.6601 5.43817 13.315 7.12522 13.3001C8.49242 13.3211 9.83024 12.9025 10.9417 12.1061C12.0532 11.3097 12.8796 10.1774 13.2992 8.87606C13.3258 8.78644 13.3341 8.69241 13.3237 8.59951C13.3134 8.50662 13.2845 8.41674 13.2388 8.33519C13.1931 8.25363 13.1316 8.18205 13.0578 8.12467C12.984 8.06728 12.8995 8.02525 12.8092 8.00106Z" fill="#3FBB7D"/>
</svg>
