<svg width="9" height="11" viewBox="0 0 9 11" fill="none" xmlns="http://www.w3.org/2000/svg">
<path d="M8.43765 9.89681H0.564716C0.415571 9.89681 0.272534 9.95493 0.167073 10.0584C0.0616113 10.1618 0.00236354 10.3021 0.00236354 10.4484C0.00236354 10.5947 0.0616113 10.735 0.167073 10.8384C0.272534 10.9419 0.415571 11 0.564716 11H8.43765C8.58679 11 8.72983 10.9419 8.83529 10.8384C8.94075 10.735 9 10.5947 9 10.4484C9 10.3021 8.94075 10.1618 8.83529 10.0584C8.72983 9.95493 8.58679 9.89681 8.43765 9.89681ZM0.564716 8.79363H0.615328L2.96034 8.58402C3.21722 8.55892 3.45748 8.44791 3.64078 8.26961L8.70195 3.30528C8.89839 3.10172 9.00455 2.83009 8.99718 2.54989C8.9898 2.2697 8.86948 2.0038 8.66259 1.81046L7.12174 0.299096C6.92064 0.113814 6.65712 0.00750141 6.38131 0.00038212C6.1055 -0.00673717 5.83664 0.0858335 5.62589 0.260485L0.564716 5.22482C0.382944 5.40462 0.269765 5.64028 0.244175 5.89225L0.00236354 8.19239C-0.00521193 8.27318 0.00547578 8.35462 0.0336647 8.43089C0.0618537 8.50717 0.10685 8.5764 0.165446 8.63367C0.217992 8.68479 0.28031 8.72523 0.348825 8.75268C0.417341 8.78013 0.490707 8.79405 0.564716 8.79363ZM6.34007 1.07133L7.87529 2.57718L6.75059 3.65278L5.24349 2.17451L6.34007 1.07133Z" fill="#BDC4D4"/>
</svg>
