<svg width="20" height="20" viewBox="0 0 20 20" fill="none" xmlns="http://www.w3.org/2000/svg">
<path d="M1.33333 11.6667C1.33333 11.2985 1.03486 11 0.666667 11C0.298477 11 0 11.2985 0 11.6667V13.2533C0 13.6215 0.298477 13.92 0.666667 13.92C1.03486 13.92 1.33333 13.6215 1.33333 13.2533V11.6667Z" fill="#3FBB7D"/>
<path d="M13.0667 20H2.22667C1.63612 20 1.06976 19.7654 0.652176 19.3478C0.234595 18.9302 0 18.3639 0 17.7733V16.3333C0 16.1565 0.0702379 15.9869 0.195262 15.8619C0.320286 15.7369 0.489856 15.6667 0.666667 15.6667C0.843478 15.6667 1.01305 15.7369 1.13807 15.8619C1.2631 15.9869 1.33333 16.1565 1.33333 16.3333V17.7733C1.33333 18.0103 1.42745 18.2375 1.59498 18.405C1.76252 18.5725 1.98974 18.6667 2.22667 18.6667H13.06C13.1782 18.6667 13.2952 18.6434 13.4044 18.5982C13.5136 18.5529 13.6128 18.4866 13.6964 18.4031C13.78 18.3195 13.8463 18.2203 13.8915 18.1111C13.9367 18.0019 13.96 17.8849 13.96 17.7667V6.94C13.96 6.82181 13.9367 6.70478 13.8915 6.59558C13.8463 6.48639 13.78 6.38717 13.6964 6.3036C13.6128 6.22003 13.5136 6.15374 13.4044 6.10851C13.2952 6.06328 13.1782 6.04 13.06 6.04H2.22667C1.98974 6.04 1.76252 6.13412 1.59498 6.30165C1.42745 6.46918 1.33333 6.6964 1.33333 6.93333V8.42C1.33333 8.59681 1.2631 8.76638 1.13807 8.8914C1.01305 9.01643 0.843478 9.08666 0.666667 9.08666C0.489856 9.08666 0.320286 9.01643 0.195262 8.8914C0.0702379 8.76638 0 8.59681 0 8.42V6.94C0.00175863 6.34822 0.23762 5.78119 0.656071 5.36274C1.07452 4.94429 1.64156 4.70842 2.23333 4.70667H13.06C13.6523 4.70667 14.2204 4.94196 14.6392 5.36079C15.058 5.77962 15.2933 6.34768 15.2933 6.94V17.7733C15.2933 18.3639 15.0587 18.9302 14.6412 19.3478C14.2236 19.7654 13.6572 20 13.0667 20Z" fill="#3FBB7D"/>
<path d="M17.7727 15.2933H13.9594V6.94C13.9594 6.82181 13.9361 6.70478 13.8909 6.59558C13.8457 6.48639 13.7794 6.38718 13.6958 6.3036C13.6122 6.22003 13.513 6.15374 13.4038 6.10851C13.2946 6.06328 13.1776 6.04 13.0594 6.04H4.70605V2.22667C4.70782 1.63551 4.94389 1.06916 5.36253 0.651769C5.78118 0.234379 6.34822 -2.63382e-06 6.93939 0H17.7727C18.3633 0 18.9296 0.234595 19.3472 0.652176C19.7648 1.06976 19.9994 1.63612 19.9994 2.22667V13.06C19.9994 13.6512 19.765 14.2182 19.3476 14.6369C18.9302 15.0555 18.3639 15.2916 17.7727 15.2933ZM15.2927 13.96H17.7727C18.0103 13.9582 18.2375 13.8626 18.4048 13.6941C18.5722 13.5255 18.6661 13.2975 18.6661 13.06V2.22667C18.6661 1.98974 18.5719 1.76252 18.4044 1.59498C18.2369 1.42745 18.0096 1.33333 17.7727 1.33333H6.93939C6.70184 1.33333 6.47393 1.42723 6.30534 1.59458C6.13674 1.76192 6.04115 1.98913 6.03939 2.22667V4.70667H13.0594C13.6517 4.70667 14.2198 4.94196 14.6386 5.3608C15.0574 5.77963 15.2927 6.34768 15.2927 6.94V13.96Z" fill="#3FBB7D"/>
</svg>
