<svg width="17" height="17" viewBox="0 0 17 17" fill="none" xmlns="http://www.w3.org/2000/svg">
<path fill-rule="evenodd" clip-rule="evenodd" d="M12.8566 7.17829C12.8566 10.3143 10.3143 12.8566 7.17829 12.8566C4.04226 12.8566 1.5 10.3143 1.5 7.17829C1.5 4.04226 4.04226 1.5 7.17829 1.5C10.3143 1.5 12.8566 4.04226 12.8566 7.17829ZM11.6962 12.7568C10.4625 13.7572 8.89037 14.3566 7.17829 14.3566C3.21383 14.3566 0 11.1428 0 7.17829C0 3.21383 3.21383 0 7.17829 0C11.1428 0 14.3566 3.21383 14.3566 7.17829C14.3566 8.89038 13.7572 10.4625 12.7568 11.6962L15.7842 14.7235C16.0771 15.0164 16.0771 15.4913 15.7842 15.7842C15.4913 16.0771 15.0164 16.0771 14.7235 15.7842L11.6962 12.7568Z" fill="#C3C3C3"/>
</svg>
