<svg width="20" height="20" viewBox="0 0 20 20" fill="none" xmlns="http://www.w3.org/2000/svg">
<path fill-rule="evenodd" clip-rule="evenodd" d="M18.3333 9.99996C18.3333 14.6023 14.6024 18.3333 10 18.3333C5.39763 18.3333 1.66667 14.6023 1.66667 9.99996C1.66667 5.39759 5.39763 1.66663 10 1.66663C14.6024 1.66663 18.3333 5.39759 18.3333 9.99996ZM10 5.20829C10.3452 5.20829 10.625 5.48811 10.625 5.83329V10.8333C10.625 11.1785 10.3452 11.4583 10 11.4583C9.65482 11.4583 9.375 11.1785 9.375 10.8333V5.83329C9.375 5.48811 9.65482 5.20829 10 5.20829ZM10 14.1666C10.4602 14.1666 10.8333 13.7935 10.8333 13.3333C10.8333 12.8731 10.4602 12.5 10 12.5C9.53976 12.5 9.16667 12.8731 9.16667 13.3333C9.16667 13.7935 9.53976 14.1666 10 14.1666Z" fill="#FA5E5E"/>
</svg>
