<svg width="24" height="25" viewBox="0 0 24 25" fill="none" xmlns="http://www.w3.org/2000/svg">
<path d="M15.2055 4.61252C15.6097 4.20685 16.0582 3.87055 16.6314 3.77923C16.7535 3.75978 16.8766 3.75 17 3.75C17.1234 3.75 17.2466 3.75978 17.3687 3.77923C17.9419 3.87055 18.3904 4.20685 18.7945 4.61252C19.1883 5.00783 19.6283 5.56274 20.1614 6.23522L21.5877 8.03403C21.8451 8.3586 21.7906 8.83034 21.466 9.08768C21.1414 9.34503 20.6697 9.29054 20.4123 8.96597L19.0145 7.203C18.4563 6.49898 18.0727 6.01697 17.75 5.68952L17.75 18.5C17.75 18.9142 17.4142 19.25 17 19.25C16.5858 19.25 16.25 18.9142 16.25 18.5L16.25 5.68952C15.9274 6.01697 15.5438 6.49897 14.9856 7.203L13.5877 8.96597C13.3304 9.29054 12.8586 9.34503 12.5341 9.08768C12.2095 8.83034 12.155 8.3586 12.4123 8.03403L13.8386 6.23521C14.3718 5.56274 14.8118 5.00783 15.2055 4.61252Z" fill="#3FBB7D"/>
<path d="M7.75003 5.5C7.75003 5.08579 7.41424 4.75 7.00003 4.75C6.58581 4.75 6.25003 5.08579 6.25003 5.5L6.25003 18.3105C5.92737 17.983 5.54378 17.501 4.98556 16.797L3.58771 15.034C3.33036 14.7095 2.85863 14.655 2.53406 14.9123C2.20949 15.1697 2.155 15.6414 2.41235 15.966L3.8386 17.7648C4.37178 18.4373 4.81175 18.9922 5.20554 19.3875C5.60965 19.7932 6.05819 20.1294 6.63136 20.2208C6.75347 20.2402 6.87664 20.25 7.00003 20.25C7.12341 20.25 7.24659 20.2402 7.3687 20.2208C7.94187 20.1294 8.39041 19.7932 8.79452 19.3875C9.18831 18.9922 9.62828 18.4372 10.1615 17.7648L11.5877 15.966C11.8451 15.6414 11.7906 15.1697 11.466 14.9123C11.1414 14.655 10.6697 14.7095 10.4123 15.034L9.0145 16.797C8.45628 17.501 8.07269 17.983 7.75003 18.3105L7.75003 5.5Z" fill="#3FBB7D"/>
<path d="M15.2055 4.61252C15.6097 4.20685 16.0582 3.87055 16.6314 3.77923C16.7535 3.75978 16.8766 3.75 17 3.75C17.1234 3.75 17.2466 3.75978 17.3687 3.77923C17.9419 3.87055 18.3904 4.20685 18.7945 4.61252C19.1883 5.00783 19.6283 5.56274 20.1614 6.23522L21.5877 8.03403C21.8451 8.3586 21.7906 8.83034 21.466 9.08768C21.1414 9.34503 20.6697 9.29054 20.4123 8.96597L19.0145 7.203C18.4563 6.49898 18.0727 6.01697 17.75 5.68952L17.75 18.5C17.75 18.9142 17.4142 19.25 17 19.25C16.5858 19.25 16.25 18.9142 16.25 18.5L16.25 5.68952C15.9274 6.01697 15.5438 6.49897 14.9856 7.203L13.5877 8.96597C13.3304 9.29054 12.8586 9.34503 12.5341 9.08768C12.2095 8.83034 12.155 8.3586 12.4123 8.03403L13.8386 6.23521C14.3718 5.56274 14.8118 5.00783 15.2055 4.61252Z" stroke="#3FBB7D" stroke-width="0.5" stroke-linecap="round"/>
<path d="M7.75003 5.5C7.75003 5.08579 7.41424 4.75 7.00003 4.75C6.58581 4.75 6.25003 5.08579 6.25003 5.5L6.25003 18.3105C5.92737 17.983 5.54378 17.501 4.98556 16.797L3.58771 15.034C3.33036 14.7095 2.85863 14.655 2.53406 14.9123C2.20949 15.1697 2.155 15.6414 2.41235 15.966L3.8386 17.7648C4.37178 18.4373 4.81175 18.9922 5.20554 19.3875C5.60965 19.7932 6.05819 20.1294 6.63136 20.2208C6.75347 20.2402 6.87664 20.25 7.00003 20.25C7.12341 20.25 7.24659 20.2402 7.3687 20.2208C7.94187 20.1294 8.39041 19.7932 8.79452 19.3875C9.18831 18.9922 9.62828 18.4372 10.1615 17.7648L11.5877 15.966C11.8451 15.6414 11.7906 15.1697 11.466 14.9123C11.1414 14.655 10.6697 14.7095 10.4123 15.034L9.0145 16.797C8.45628 17.501 8.07269 17.983 7.75003 18.3105L7.75003 5.5Z" stroke="#3FBB7D" stroke-width="0.5" stroke-linecap="round"/>
</svg>
