<svg width="21" height="20" viewBox="0 0 21 20" fill="none" xmlns="http://www.w3.org/2000/svg">
<path fill-rule="evenodd" clip-rule="evenodd" d="M1.56102 2.29008C0.5 3.75045 0.5 5.83363 0.5 10C0.5 14.1664 0.5 16.2496 1.56102 17.7099C1.90368 18.1816 2.31844 18.5963 2.79008 18.939C4.25045 20 6.33363 20 10.5 20C14.6664 20 16.7496 20 18.2099 18.939C18.6816 18.5963 19.0963 18.1816 19.439 17.7099C20.5 16.2496 20.5 14.1664 20.5 10C20.5 5.83363 20.5 3.75045 19.439 2.29008C19.0963 1.81844 18.6816 1.40368 18.2099 1.06102C16.7496 0 14.6664 0 10.5 0C6.33363 0 4.25045 0 2.79008 1.06102C2.31844 1.40368 1.90368 1.81844 1.56102 2.29008ZM8.57472 5.47632C9.03741 5.10474 9.52368 4.8221 10.1161 4.74659C10.2436 4.73035 10.3718 4.72222 10.5 4.72222C10.6282 4.72222 10.7564 4.73035 10.8839 4.74659C11.4763 4.8221 11.9626 5.10474 12.4253 5.47633C12.8664 5.83059 13.3588 6.32745 13.9493 6.9232L15.5363 8.52449C15.8603 8.85138 15.858 9.37901 15.5311 9.70299C15.2042 10.027 14.6765 10.0246 14.3526 9.69773L12.7994 8.13065C12.1663 7.49187 11.7402 7.0637 11.3817 6.77581C11.3652 6.76261 11.3491 6.74986 11.3333 6.73754V14.4444C11.3333 14.9047 10.9602 15.2778 10.5 15.2778C10.0398 15.2778 9.66667 14.9047 9.66667 14.4444V6.73754C9.65087 6.74986 9.63476 6.76261 9.61832 6.77581C9.25985 7.0637 8.8337 7.49187 8.2006 8.13065L6.64743 9.69773C6.32345 10.0246 5.79582 10.027 5.46894 9.70299C5.14205 9.37901 5.1397 8.85138 5.46368 8.52449L7.05072 6.92322C7.64115 6.32747 8.13358 5.8306 8.57472 5.47632Z" fill="white"/>
</svg>
