<svg width="25" height="24" viewBox="0 0 25 24" fill="none" xmlns="http://www.w3.org/2000/svg">
<path d="M19.0651 5.41994L13.8951 2.42994C12.9051 1.85994 11.3551 1.85994 10.3651 2.42994L5.14508 5.43994C3.07508 6.83994 2.95508 7.04994 2.95508 9.27994V14.7099C2.95508 16.9399 3.07508 17.1599 5.18508 18.5799L10.3551 21.5699C10.8551 21.8599 11.4951 21.9999 12.1251 21.9999C12.7551 21.9999 13.3951 21.8599 13.8851 21.5699L19.1051 18.5599C21.1751 17.1599 21.2951 16.9499 21.2951 14.7199V9.27994C21.2951 7.04994 21.1751 6.83994 19.0651 5.41994ZM12.1251 15.2499C10.3351 15.2499 8.87508 13.7899 8.87508 11.9999C8.87508 10.2099 10.3351 8.74994 12.1251 8.74994C13.9151 8.74994 15.3751 10.2099 15.3751 11.9999C15.3751 13.7899 13.9151 15.2499 12.1251 15.2499Z" fill="#BDC4D4"/>
</svg>
