<svg width="16" height="16" viewBox="0 0 16 16" fill="none" xmlns="http://www.w3.org/2000/svg">
<path fill-rule="evenodd" clip-rule="evenodd" d="M10.1206 1.39919C9.32233 -0.466397 6.67767 -0.466397 5.87936 1.39919C5.70603 1.80425 5.24103 1.99686 4.83204 1.833C2.94838 1.07832 1.07832 2.94839 1.833 4.83204C1.99686 5.24103 1.80425 5.70603 1.39919 5.87936C-0.466397 6.67767 -0.466397 9.32233 1.39919 10.1206C1.80425 10.294 1.99686 10.759 1.833 11.168C1.07832 13.0516 2.94839 14.9217 4.83204 14.167C5.24103 14.0031 5.70603 14.1957 5.87936 14.6008C6.67767 16.4664 9.32233 16.4664 10.1206 14.6008C10.294 14.1957 10.759 14.0031 11.168 14.167C13.0516 14.9217 14.9217 13.0516 14.167 11.168C14.0031 10.759 14.1957 10.294 14.6008 10.1206C16.4664 9.32233 16.4664 6.67767 14.6008 5.87936C14.1957 5.70603 14.0031 5.24103 14.167 4.83204C14.9217 2.94839 13.0516 1.07832 11.168 1.833C10.759 1.99686 10.294 1.80425 10.1206 1.39919ZM7.25433 1.98756C7.53503 1.33158 8.46496 1.33157 8.74567 1.98756C9.23861 3.13953 10.561 3.6873 11.7242 3.2213C12.3865 2.95593 13.0441 3.61349 12.7787 4.27583C12.3127 5.43896 12.8605 6.76139 14.0124 7.25433C14.6684 7.53503 14.6684 8.46496 14.0124 8.74567C12.8605 9.23861 12.3127 10.561 12.7787 11.7242C13.0441 12.3865 12.3865 13.0441 11.7242 12.7787C10.561 12.3127 9.23861 12.8605 8.74567 14.0124C8.46496 14.6684 7.53503 14.6684 7.25433 14.0124C6.76139 12.8605 5.43896 12.3127 4.27583 12.7787C3.61349 13.0441 2.95593 12.3865 3.2213 11.7242C3.6873 10.561 3.13953 9.23861 1.98756 8.74567C1.33157 8.46496 1.33157 7.53503 1.98756 7.25433C3.13953 6.76139 3.6873 5.43896 3.2213 4.27583C2.95593 3.61349 3.61349 2.95593 4.27583 3.2213C5.43896 3.6873 6.76139 3.13953 7.25433 1.98756ZM9.40117 8C9.40117 8.77385 8.77384 9.40117 8 9.40117C7.22616 9.40117 6.59883 8.77385 6.59883 8C6.59883 7.22616 7.22616 6.59883 8 6.59883C8.77384 6.59883 9.40117 7.22616 9.40117 8ZM10.8967 8C10.8967 9.59983 9.59983 10.8967 8 10.8967C6.40017 10.8967 5.10326 9.59983 5.10326 8C5.10326 6.40018 6.40017 5.10326 8 5.10326C9.59983 5.10326 10.8967 6.40018 10.8967 8Z" fill="white"/>
</svg>
