<svg width="24" height="24" viewBox="0 0 24 24" fill="none" xmlns="http://www.w3.org/2000/svg">
<g clip-path="url(#clip0)">
<path d="M21.1864 16.0273C20.5413 17.7756 19.5657 19.2957 18.2864 20.545C16.8301 21.967 14.9233 23.097 12.6187 23.903C12.5431 23.9294 12.4642 23.951 12.3849 23.9669C12.2802 23.9876 12.1736 23.9988 12.0679 24.0002H12.0472C11.9346 24.0002 11.8215 23.9889 11.7092 23.9669C11.6299 23.951 11.5521 23.9294 11.4769 23.9036C9.16956 23.0988 7.26031 21.9694 5.80261 20.5474C4.5227 19.2981 3.5473 17.7789 2.90313 16.0306C1.7318 12.8519 1.79846 9.35015 1.85211 6.53618L1.85302 6.49297C1.86382 6.26061 1.87078 6.01653 1.87463 5.747C1.89422 4.4237 2.94634 3.32891 4.26983 3.25512C7.02923 3.10112 9.16388 2.20116 10.9878 0.423388L11.0037 0.40874C11.3066 0.130969 11.6882 -0.00526186 12.0679 0.000414433C12.4341 0.00517519 12.7989 0.141223 13.0909 0.40874L13.1065 0.423388C14.9308 2.20116 17.0654 3.10112 19.8248 3.25512C21.1483 3.32891 22.2005 4.4237 22.22 5.747C22.2239 6.01836 22.2308 6.26208 22.2417 6.49297L22.2422 6.51128C22.2957 9.33056 22.362 12.8392 21.1864 16.0273Z" fill="#3FBB7D"/>
<path d="M21.1859 16.0274C20.5408 17.7757 19.5652 19.2958 18.2858 20.5451C16.8296 21.9671 14.9227 23.0971 12.6182 23.9031C12.5425 23.9295 12.4636 23.9511 12.3843 23.967C12.2796 23.9877 12.173 23.9989 12.0674 24.0003V0.000488281C12.4336 0.00524904 12.7983 0.141296 13.0904 0.408814L13.106 0.423462C14.9302 2.20124 17.0649 3.1012 19.8243 3.25519C21.1478 3.32898 22.1999 4.42377 22.2195 5.74708C22.2233 6.01844 22.2303 6.26215 22.2411 6.49305L22.2417 6.51136C22.2951 9.33064 22.3614 12.8393 21.1859 16.0274Z" fill="#31A76C"/>
<path d="M18.0283 12.0001C18.0283 15.2911 15.3562 17.9699 12.068 17.9816H12.0469C8.74903 17.9816 6.06543 15.2982 6.06543 12.0001C6.06543 8.70221 8.74903 6.0188 12.0469 6.0188H12.068C15.3562 6.03052 18.0283 8.70935 18.0283 12.0001Z" fill="white"/>
<path d="M18.0277 12.0001C18.0277 15.2911 15.3556 17.9699 12.0674 17.9816V6.0188C15.3556 6.03052 18.0277 8.70935 18.0277 12.0001Z" fill="#F7F8FB"/>
<path d="M14.7613 11.1389L12.0674 13.8331L11.4853 14.4152C11.3478 14.5527 11.1674 14.6214 10.9873 14.6214C10.8069 14.6214 10.6267 14.5527 10.489 14.4152L9.23752 13.1631C8.96249 12.8881 8.96249 12.4426 9.23752 12.1674C9.51218 11.8924 9.95822 11.8924 10.2332 12.1674L10.9873 12.9214L13.7655 10.1432C14.0406 9.86797 14.4866 9.86797 14.7613 10.1432C15.0363 10.4182 15.0363 10.8642 14.7613 11.1389Z" fill="#3FBB7D"/>
<path d="M14.7612 11.1389L12.0674 13.8331V11.8411L13.7655 10.1432C14.0405 9.86797 14.4866 9.86797 14.7612 10.1432C15.0363 10.4182 15.0363 10.8642 14.7612 11.1389Z" fill="#31A76C"/>
</g>
<defs>
<clipPath id="clip0">
<rect width="24" height="24" fill="white" transform="translate(0 0.000244141)"/>
</clipPath>
</defs>
</svg>
