<svg width="14" height="14" viewBox="0 0 14 14" fill="none" xmlns="http://www.w3.org/2000/svg">
<path d="M3.22048 0.333252C1.63992 0.333252 0.333008 1.58165 0.333008 3.15276C0.333008 3.94834 0.676902 4.70372 1.27484 5.23614L3.49909 7.21667C4.09831 7.75023 4.43603 8.49999 4.43603 9.28196V12.1386C4.43603 13.4113 5.89635 14.09 6.90397 13.3782L8.23148 12.4404C8.85098 12.0027 9.2229 11.299 9.2229 10.5441V9.36133C9.2229 8.54083 9.59464 7.75769 10.2463 7.22209L12.6536 5.24342C13.2943 4.71684 13.6678 3.939 13.6678 3.1151C13.6678 1.56479 12.3783 0.333252 10.8191 0.333252H3.22048Z" fill="#1D1D22"/>
</svg>
