<svg width="18" height="14" viewBox="0 0 18 14" fill="none" xmlns="http://www.w3.org/2000/svg">
<path fill-rule="evenodd" clip-rule="evenodd" d="M1 2.99994C1 2.44765 1.44772 1.99994 2 1.99994H16C16.5523 1.99994 17 2.44765 17 2.99994C17 3.55222 16.5523 3.99994 16 3.99994H2C1.44772 3.99994 1 3.55222 1 2.99994ZM3.66667 7.44438C3.66667 6.8921 4.11438 6.44438 4.66667 6.44438L13.3333 6.44438C13.8856 6.44438 14.3333 6.8921 14.3333 7.44438C14.3333 7.99667 13.8856 8.44438 13.3333 8.44438L4.66667 8.44438C4.11438 8.44438 3.66667 7.99667 3.66667 7.44438ZM6.44444 10.8888C5.89216 10.8888 5.44444 11.3365 5.44444 11.8888C5.44444 12.4411 5.89216 12.8888 6.44444 12.8888H11.5556C12.1078 12.8888 12.5556 12.4411 12.5556 11.8888C12.5556 11.3365 12.1078 10.8888 11.5556 10.8888H6.44444Z" fill="white"/>
</svg>
