<svg width="16" height="16" viewBox="0 0 16 16" fill="none" xmlns="http://www.w3.org/2000/svg">
<path fill-rule="evenodd" clip-rule="evenodd" d="M8 1.52381C4.4233 1.52381 1.52381 4.4233 1.52381 8C1.52381 11.5767 4.4233 14.4762 8 14.4762C11.5767 14.4762 14.4762 11.5767 14.4762 8C14.4762 4.4233 11.5767 1.52381 8 1.52381ZM8 2.75769e-06C3.58173 2.37143e-06 4.54271e-06 3.58172 4.15645e-06 8C3.77019e-06 12.4183 3.58172 16 8 16C12.4183 16 16 12.4183 16 8C16 3.58172 12.4183 3.14395e-06 8 2.75769e-06Z" fill="#EAEAEA"/>
<path d="M8 14.5C9.72391 14.5 11.3772 13.8152 12.5962 12.5962C13.8152 11.3772 14.5 9.7239 14.5 8C14.5 7.80109 14.579 7.61032 14.7197 7.46967C14.8603 7.32902 15.0511 7.25 15.25 7.25C15.4489 7.25 15.6397 7.32902 15.7803 7.46967C15.921 7.61032 16 7.80109 16 8C16 9.58225 15.5308 11.129 14.6518 12.4446C13.7727 13.7602 12.5233 14.7855 11.0615 15.391C9.59966 15.9965 7.99113 16.155 6.43928 15.8463C4.88743 15.5376 3.46197 14.7757 2.34315 13.6568C1.22433 12.538 0.462403 11.1126 0.153721 9.56072C-0.15496 8.00887 0.00346661 6.40034 0.608968 4.93853C1.21447 3.47672 2.23985 2.22729 3.55544 1.34824C4.87104 0.469191 6.41775 -8.37706e-07 8 -6.99381e-07C8.19892 -6.81992e-07 8.38968 0.0790164 8.53033 0.219669C8.67099 0.360321 8.75 0.551087 8.75 0.749999C8.75 0.948912 8.67099 1.13968 8.53033 1.28033C8.38968 1.42098 8.19892 1.5 8 1.5C6.2761 1.5 4.6228 2.18482 3.40381 3.4038C2.18482 4.62279 1.5 6.27609 1.5 8C1.5 9.7239 2.18482 11.3772 3.40381 12.5962C4.6228 13.8152 6.2761 14.5 8 14.5V14.5Z" fill="#3FBB7D"/>
</svg>
