<svg width="21" height="20" viewBox="0 0 21 20" fill="none" xmlns="http://www.w3.org/2000/svg">
<path fill-rule="evenodd" clip-rule="evenodd" d="M2.79008 1.06102C4.25045 7.449e-08 6.33363 1.15865e-07 10.5 1.98616e-07C14.6664 2.81367e-07 16.7496 3.22743e-07 18.2099 1.06102C18.6816 1.40368 19.0963 1.81845 19.439 2.29008C20.5 3.75045 20.5 5.83363 20.5 10C20.5 14.1664 20.5 16.2496 19.439 17.7099C19.0963 18.1816 18.6816 18.5963 18.2099 18.939C16.7496 20 14.6664 20 10.5 20C6.33363 20 4.25045 20 2.79008 18.939C2.31844 18.5963 1.90368 18.1816 1.56102 17.7099C0.5 16.2496 0.5 14.1664 0.5 10C0.5 5.83363 0.5 3.75045 1.56102 2.29008C1.90368 1.81844 2.31844 1.40368 2.79008 1.06102ZM4.83175 12.1778C4.5162 12.4921 4.21765 12.8759 4.13622 13.387C4.11952 13.4919 4.11111 13.5977 4.11111 13.7038C4.11111 13.8099 4.11952 13.9157 4.13622 14.0206C4.21765 14.5316 4.5162 14.9155 4.83175 15.2298C5.13591 15.5328 5.55765 15.8672 6.04664 16.2549L7.38966 17.3197C7.7503 17.6057 8.27445 17.5451 8.56039 17.1845C8.84633 16.8239 8.78579 16.2997 8.42515 16.0138L7.11925 14.9783C6.90683 14.8099 6.72433 14.665 6.56715 14.5371L15.3148 14.5371C15.7751 14.5371 16.1482 14.164 16.1482 13.7038C16.1482 13.2436 15.7751 12.8705 15.3148 12.8705L6.56715 12.8705C6.72433 12.7426 6.90683 12.5977 7.11925 12.4293L8.42515 11.3938C8.78578 11.1079 8.84633 10.5837 8.56039 10.2231C8.27445 9.86246 7.7503 9.80191 7.38966 10.0879L6.04666 11.1527C5.55766 11.5404 5.13592 11.8748 4.83175 12.1778ZM5.685 7.12963C5.22476 7.12963 4.85167 6.75653 4.85167 6.2963C4.85167 5.83606 5.22476 5.46296 5.685 5.46296L14.4327 5.46296C14.2755 5.33514 14.093 5.19019 13.8806 5.02176L12.5747 3.98632C12.214 3.70037 12.1535 3.17622 12.4394 2.81559C12.7254 2.45496 13.2495 2.39441 13.6102 2.68035L14.9532 3.74522C15.4422 4.1329 15.8639 4.46726 16.1681 4.77025C16.4836 5.08459 16.7822 5.46845 16.8636 5.9795C16.8803 6.08435 16.8887 6.19021 16.8887 6.2963C16.8887 6.40238 16.8803 6.50824 16.8636 6.6131C16.7822 7.12415 16.4836 7.508 16.1681 7.82235C15.8639 8.12533 15.4422 8.45969 14.9532 8.84736L13.6102 9.91224C13.2495 10.1982 12.7254 10.1376 12.4394 9.77701C12.1535 9.41637 12.214 8.89222 12.5747 8.60628L13.8806 7.57084C14.093 7.40241 14.2755 7.25745 14.4327 7.12963L5.685 7.12963Z" fill="white"/>
</svg>
