<svg width="25" height="24" viewBox="0 0 25 24" fill="none" xmlns="http://www.w3.org/2000/svg">
<path d="M16.815 2H8.435C4.795 2 2.625 4.17 2.625 7.81V16.18C2.625 19.83 4.795 22 8.435 22H16.805C20.445 22 22.615 19.83 22.615 16.19V7.81C22.625 4.17 20.455 2 16.815 2ZM18.315 14.05C18.275 14.14 18.225 14.22 18.155 14.29L15.205 17.24C15.055 17.39 14.865 17.46 14.675 17.46C14.485 17.46 14.295 17.39 14.145 17.24C13.855 16.95 13.855 16.47 14.145 16.18L15.815 14.51H7.625C7.215 14.51 6.875 14.17 6.875 13.76C6.875 13.35 7.215 13.01 7.625 13.01H17.625C17.725 13.01 17.815 13.03 17.915 13.07C18.095 13.15 18.245 13.29 18.325 13.48C18.395 13.66 18.395 13.86 18.315 14.05ZM17.625 10.99H7.625C7.525 10.99 7.435 10.97 7.335 10.93C7.155 10.85 7.005 10.71 6.925 10.52C6.845 10.34 6.845 10.13 6.925 9.95C6.975 9.86 7.025 9.78 7.095 9.71L10.045 6.76C10.335 6.47 10.815 6.47 11.105 6.76C11.395 7.05 11.395 7.53 11.105 7.82L9.435 9.49H17.625C18.035 9.49 18.375 9.83 18.375 10.24C18.375 10.65 18.035 10.99 17.625 10.99Z" fill="#BDC4D4"/>
</svg>
