<svg width="9" height="9" viewBox="0 0 9 9" fill="none" xmlns="http://www.w3.org/2000/svg">
<path d="M5.38106 4.49947L8.06634 1.82043C8.18394 1.70283 8.25 1.54334 8.25 1.37704C8.25 1.21074 8.18394 1.05125 8.06634 0.933656C7.94875 0.816063 7.78926 0.75 7.62296 0.75C7.45666 0.75 7.29717 0.816063 7.17958 0.933656L4.50053 3.61894L1.82149 0.933656C1.7039 0.816063 1.54441 0.75 1.37811 0.75C1.2118 0.75 1.05231 0.816063 0.934722 0.933656C0.817129 1.05125 0.751066 1.21074 0.751066 1.37704C0.751066 1.54334 0.817129 1.70283 0.934722 1.82043L3.62001 4.49947L0.934722 7.17851C0.87619 7.23656 0.829732 7.30563 0.798027 7.38173C0.766323 7.45783 0.75 7.53945 0.75 7.62189C0.75 7.70433 0.766323 7.78596 0.798027 7.86206C0.829732 7.93816 0.87619 8.00722 0.934722 8.06528C0.992776 8.12381 1.06184 8.17027 1.13794 8.20197C1.21404 8.23368 1.29567 8.25 1.37811 8.25C1.46055 8.25 1.54217 8.23368 1.61827 8.20197C1.69437 8.17027 1.76344 8.12381 1.82149 8.06528L4.50053 5.37999L7.17958 8.06528C7.23763 8.12381 7.3067 8.17027 7.3828 8.20197C7.4589 8.23368 7.54052 8.25 7.62296 8.25C7.7054 8.25 7.78702 8.23368 7.86312 8.20197C7.93922 8.17027 8.00829 8.12381 8.06634 8.06528C8.12488 8.00722 8.17134 7.93816 8.20304 7.86206C8.23474 7.78596 8.25107 7.70433 8.25107 7.62189C8.25107 7.53945 8.23474 7.45783 8.20304 7.38173C8.17134 7.30563 8.12488 7.23656 8.06634 7.17851L5.38106 4.49947Z" fill="white"/>
</svg>
