<svg width="18" height="9" viewBox="0 0 18 9" fill="none" xmlns="http://www.w3.org/2000/svg">
<g clip-path="url(#clip0)">
<path d="M74 44C74 46.7614 71.7614 49 69 49L-51 49C-53.7614 49 -56 46.7614 -56 44L-56 14C-56 11.2386 -53.7614 8.99999 -51 8.99999L0.543644 8.99999C2.3671 8.99999 4.04597 8.00733 4.92472 6.40959L8.12379 0.593115C8.50371 -0.097662 9.4963 -0.0976619 9.87622 0.593115L13.0753 6.40959C13.954 8.00733 15.6329 8.99999 17.4564 9L69 9C71.7614 9 74 11.2386 74 14L74 44Z" fill="white"/>
</g>
<defs>
<clipPath id="clip0">
<rect width="18" height="9" fill="white"/>
</clipPath>
</defs>
</svg>
