<svg width="12" height="12" viewBox="0 0 12 12" fill="none" xmlns="http://www.w3.org/2000/svg">
<path fill-rule="evenodd" clip-rule="evenodd" d="M3 1C1.89543 1 1 1.89543 1 3V9C1 10.1046 1.89543 11 3 11H9C10.1046 11 11 10.1046 11 9V3C11 1.89543 10.1046 1 9 1H3ZM8.35087 4.71468H7.68301V4.2164C7.68301 3.36196 6.95845 2.66667 6.0685 2.66667C5.17808 2.66667 4.45351 3.36196 4.45351 4.2164V4.71468H3.78534V8.26389H3.78993L6.06818 9.33333L8.34627 8.26389H8.35087V4.71468ZM7.43209 5.54748V7.67363L6.06818 8.31243L4.70412 7.67363V5.54748H7.43209ZM5.28184 4.71468V4.2164C5.28184 3.82093 5.63477 3.49914 6.0685 3.49914C6.50175 3.49914 6.85469 3.82093 6.85469 4.2164V4.71468H5.28184Z" fill="#1D1D22"/>
</svg>
