<svg width="15" height="14" viewBox="0 0 15 14" fill="none" xmlns="http://www.w3.org/2000/svg">
<path d="M12.0074 2.05176C9.28651 -0.683919 4.83549 -0.683919 2.09982 2.05176L1.50832 2.64325V1.57856C1.50832 1.16451 1.16821 0.824399 0.754159 0.824399C0.340111 0.824399 0 1.16451 0 1.57856V4.44732C0 4.86137 0.340111 5.20148 0.754159 5.20148H3.63771C4.05176 5.20148 4.39187 4.86137 4.39187 4.44732C4.39187 4.03327 4.05176 3.69316 3.63771 3.69316H2.57301L3.16451 3.10166C5.30869 0.957486 8.81331 0.957486 10.9575 3.11645C13.1017 5.26063 13.1017 8.75046 10.9575 10.8946C8.81331 13.0388 5.30869 13.0388 3.16451 10.8946C2.30684 10.037 1.77449 8.95749 1.59704 7.7597C1.53789 7.34566 1.15342 7.06469 0.754159 7.12384C0.340111 7.18299 0.0591497 7.55268 0.118299 7.96673C0.325323 9.48983 1.02033 10.8651 2.09982 11.9445C3.46026 13.305 5.26432 14 7.0536 14C8.84288 14 10.6469 13.3198 12.0074 11.9445C14.7431 9.22366 14.7431 4.78743 12.0074 2.05176Z" fill="white"/>
<path d="M7.09791 3.11643C6.68386 3.11643 6.34375 3.45654 6.34375 3.87059V7.00552C6.34375 7.34563 6.56556 7.64138 6.89088 7.73011L9.19772 8.38075C9.27166 8.39554 9.33081 8.41033 9.40475 8.41033C9.73007 8.41033 10.0258 8.18852 10.1293 7.86319C10.2476 7.46393 10.011 7.04988 9.61177 6.94637L7.85207 6.45839V3.8558C7.83728 3.44175 7.49717 3.11643 7.09791 3.11643Z" fill="white"/>
</svg>
