<svg width="12" height="16" viewBox="0 0 12 16" fill="none" xmlns="http://www.w3.org/2000/svg">
<path d="M6.8241 15.6458L11.6654 10.7111C12.1115 10.2564 12.1115 9.49846 11.6654 9.04372C11.2193 8.58899 10.4757 8.58899 10.0296 9.04372L7.15456 11.9574L7.15456 1.17846C7.15456 0.521617 6.64234 -0.000488515 5.99793 -0.000488544C5.35353 -0.000488572 4.84131 0.521617 4.84131 1.17846L4.84131 11.9574L1.98279 9.04372C1.53666 8.58898 0.793116 8.58898 0.346988 9.04372C0.115663 9.27951 -4.18893e-07 9.58267 -4.32145e-07 9.88583C-4.45396e-07 10.189 0.115663 10.4921 0.346988 10.7279L5.17177 15.6458C5.38657 15.8648 5.68399 15.9995 5.99793 15.9995C6.31188 15.9995 6.60929 15.8816 6.8241 15.6458Z" fill="#B1B3BE"/>
</svg>
