<svg width="47" height="50" viewBox="0 0 47 50" fill="none" xmlns="http://www.w3.org/2000/svg">
<path d="M8.52517 10.7547C8.52517 10.4073 8.66318 10.0741 8.90885 9.82843C9.15451 9.58277 9.4877 9.44476 9.83512 9.44476H28.4155C28.7629 9.44476 29.0961 9.58277 29.3418 9.82843C29.5874 10.0741 29.7254 10.4073 29.7254 10.7547C29.7254 11.1021 29.5874 11.4353 29.3418 11.681C29.0961 11.9267 28.7629 12.0647 28.4155 12.0647H9.83512C9.4877 12.0647 9.15451 11.9267 8.90885 11.681C8.66318 11.4353 8.52517 11.1021 8.52517 10.7547ZM9.83512 19.4973H28.4155C28.7629 19.4973 29.0961 19.3593 29.3418 19.1137C29.5874 18.868 29.7254 18.5348 29.7254 18.1874C29.7254 17.84 29.5874 17.5068 29.3418 17.2611C29.0961 17.0154 28.7629 16.8774 28.4155 16.8774H9.83512C9.4877 16.8774 9.15451 17.0154 8.90885 17.2611C8.66318 17.5068 8.52517 17.84 8.52517 18.1874C8.52517 18.5348 8.66318 18.868 8.90885 19.1137C9.15451 19.3593 9.4877 19.4973 9.83512 19.4973ZM9.83512 26.9274H28.4155C28.7629 26.9274 29.0961 26.7894 29.3418 26.5437C29.5874 26.298 29.7254 25.9648 29.7254 25.6174C29.7254 25.27 29.5874 24.9368 29.3418 24.6912C29.0961 24.4455 28.7629 24.3075 28.4155 24.3075H9.83512C9.4877 24.3075 9.15451 24.4455 8.90885 24.6912C8.66318 24.9368 8.52517 25.27 8.52517 25.6174C8.52517 25.9648 8.66318 26.298 8.90885 26.5437C9.15451 26.7894 9.4877 26.9274 9.83512 26.9274ZM24.1555 31.7532H9.82464C9.47722 31.7532 9.14403 31.8913 8.89837 32.1369C8.65271 32.3826 8.51469 32.7158 8.51469 33.0632C8.51469 33.4106 8.65271 33.7438 8.89837 33.9895C9.14403 34.2351 9.47722 34.3732 9.82464 34.3732H24.1555C24.5029 34.3732 24.8361 34.2351 25.0818 33.9895C25.3275 33.7438 25.4655 33.4106 25.4655 33.0632C25.4655 32.7158 25.3275 32.3826 25.0818 32.1369C24.8361 31.8913 24.5029 31.7532 24.1555 31.7532ZM46.0082 40.0976C46.0098 42.3956 45.2115 44.6225 43.7505 46.3962C42.2894 48.1699 40.2566 49.3798 38.0008 49.8182C35.745 50.2567 33.407 49.8963 31.3879 48.7991C29.3688 47.7018 27.7945 45.9361 26.9352 43.8048H6.54976C4.81266 43.8048 3.1467 43.1147 1.91838 41.8864C0.690062 40.6581 0 38.9922 0 37.2551V6.54976C0 4.81266 0.690062 3.1467 1.91838 1.91838C3.1467 0.690062 4.81266 0 6.54976 0H31.7008C33.438 0 35.1039 0.690062 36.3322 1.91838C37.5605 3.1467 38.2506 4.81266 38.2506 6.54976V30.4433C40.4476 30.9328 42.4126 32.1554 43.8225 33.91C45.2323 35.6646 46.0031 37.8468 46.0082 40.0976ZM26.3091 41.1849C26.0931 39.8356 26.1724 38.4555 26.5414 37.1398C26.9104 35.824 27.5603 34.604 28.4464 33.5637C29.3325 32.5235 30.4337 31.6878 31.674 31.1142C32.9143 30.5407 34.2642 30.243 35.6307 30.2416V6.54976C35.6363 6.03213 35.5385 5.51858 35.343 5.03926C35.1475 4.55993 34.8582 4.12447 34.4922 3.75843C34.1261 3.39238 33.6907 3.10312 33.2114 2.90762C32.732 2.71211 32.2185 2.61429 31.7008 2.6199H6.54976C6.03213 2.61429 5.51858 2.71211 5.03926 2.90762C4.55993 3.10312 4.12447 3.39238 3.75843 3.75843C3.39238 4.12447 3.10312 4.55993 2.90762 5.03926C2.71211 5.51858 2.61429 6.03213 2.6199 6.54976V37.2551C2.61429 37.7727 2.71211 38.2862 2.90762 38.7656C3.10312 39.2449 3.39238 39.6803 3.75843 40.0464C4.12447 40.4124 4.55993 40.7017 5.03926 40.8972C5.51858 41.0927 6.03213 41.1905 6.54976 41.1849H26.3091ZM43.3882 40.0976C43.3882 38.6566 42.9609 37.248 42.1603 36.0498C41.3597 34.8516 40.2218 33.9178 38.8905 33.3663C37.5592 32.8148 36.0942 32.6706 34.6809 32.9517C33.2675 33.2328 31.9693 33.9267 30.9503 34.9457C29.9314 35.9647 29.2375 37.2629 28.9563 38.6762C28.6752 40.0896 28.8195 41.5545 29.3709 42.8859C29.9224 44.2172 30.8563 45.3551 32.0544 46.1557C33.2526 46.9563 34.6613 47.3836 36.1023 47.3836C38.0342 47.3822 39.8866 46.6141 41.2527 45.2481C42.6188 43.882 43.3869 42.0296 43.3882 40.0976Z" fill="#BDC4D4"/>
<circle cx="36" cy="40" r="8.5" stroke="#3FBB7D" stroke-width="3"/>
<path d="M36.5 36V41L33 42.5" stroke="#3FBB7D" stroke-width="2.5" stroke-linecap="round"/>
</svg>
