<svg width="50" height="50" viewBox="0 0 50 50" fill="none" xmlns="http://www.w3.org/2000/svg">
<path d="M10.5252 10.7547C10.5252 10.4073 10.6632 10.0741 10.9088 9.82843C11.1545 9.58277 11.4877 9.44476 11.8351 9.44476H30.4155C30.7629 9.44476 31.0961 9.58277 31.3418 9.82843C31.5874 10.0741 31.7254 10.4073 31.7254 10.7547C31.7254 11.1021 31.5874 11.4353 31.3418 11.681C31.0961 11.9267 30.7629 12.0647 30.4155 12.0647H11.8351C11.4877 12.0647 11.1545 11.9267 10.9088 11.681C10.6632 11.4353 10.5252 11.1021 10.5252 10.7547ZM11.8351 19.4973H30.4155C30.7629 19.4973 31.0961 19.3593 31.3418 19.1137C31.5874 18.868 31.7254 18.5348 31.7254 18.1874C31.7254 17.84 31.5874 17.5068 31.3418 17.2611C31.0961 17.0154 30.7629 16.8774 30.4155 16.8774H11.8351C11.4877 16.8774 11.1545 17.0154 10.9088 17.2611C10.6632 17.5068 10.5252 17.84 10.5252 18.1874C10.5252 18.5348 10.6632 18.868 10.9088 19.1137C11.1545 19.3593 11.4877 19.4973 11.8351 19.4973ZM11.8351 26.9274H30.4155C30.7629 26.9274 31.0961 26.7894 31.3418 26.5437C31.5874 26.298 31.7254 25.9648 31.7254 25.6174C31.7254 25.27 31.5874 24.9368 31.3418 24.6912C31.0961 24.4455 30.7629 24.3075 30.4155 24.3075H11.8351C11.4877 24.3075 11.1545 24.4455 10.9088 24.6912C10.6632 24.9368 10.5252 25.27 10.5252 25.6174C10.5252 25.9648 10.6632 26.298 10.9088 26.5437C11.1545 26.7894 11.4877 26.9274 11.8351 26.9274ZM26.1555 31.7532H11.8246C11.4772 31.7532 11.144 31.8913 10.8984 32.1369C10.6527 32.3826 10.5147 32.7158 10.5147 33.0632C10.5147 33.4106 10.6527 33.7438 10.8984 33.9895C11.144 34.2351 11.4772 34.3732 11.8246 34.3732H26.1555C26.5029 34.3732 26.8361 34.2351 27.0818 33.9895C27.3275 33.7438 27.4655 33.4106 27.4655 33.0632C27.4655 32.7158 27.3275 32.3826 27.0818 32.1369C26.8361 31.8913 26.5029 31.7532 26.1555 31.7532ZM48.0082 40.0976C48.0098 42.3956 47.2115 44.6225 45.7505 46.3962C44.2894 48.1699 42.2566 49.3798 40.0008 49.8182C37.745 50.2567 35.407 49.8963 33.3879 48.7991C31.3688 47.7018 29.7945 45.9361 28.9352 43.8048H8.54976C6.81266 43.8048 5.1467 43.1147 3.91838 41.8864C2.69006 40.6581 2 38.9922 2 37.2551V6.54976C2 4.81266 2.69006 3.1467 3.91838 1.91838C5.1467 0.690062 6.81266 0 8.54976 0H33.7008C35.438 0 37.1039 0.690062 38.3322 1.91838C39.5605 3.1467 40.2506 4.81266 40.2506 6.54976V30.4433C42.4476 30.9328 44.4126 32.1554 45.8225 33.91C47.2323 35.6646 48.0031 37.8468 48.0082 40.0976ZM28.3091 41.1849C28.0931 39.8356 28.1724 38.4555 28.5414 37.1398C28.9104 35.824 29.5603 34.604 30.4464 33.5637C31.3325 32.5235 32.4337 31.6878 33.674 31.1142C34.9143 30.5407 36.2642 30.243 37.6307 30.2416V6.54976C37.6363 6.03213 37.5385 5.51858 37.343 5.03926C37.1475 4.55993 36.8582 4.12447 36.4922 3.75843C36.1261 3.39238 35.6907 3.10312 35.2114 2.90762C34.732 2.71211 34.2185 2.61429 33.7008 2.6199H8.54976C8.03213 2.61429 7.51858 2.71211 7.03926 2.90762C6.55993 3.10312 6.12447 3.39238 5.75843 3.75843C5.39238 4.12447 5.10312 4.55993 4.90762 5.03926C4.71211 5.51858 4.61429 6.03213 4.6199 6.54976V37.2551C4.61429 37.7727 4.71211 38.2862 4.90762 38.7656C5.10312 39.2449 5.39238 39.6803 5.75843 40.0464C6.12447 40.4124 6.55993 40.7017 7.03926 40.8972C7.51858 41.0927 8.03213 41.1905 8.54976 41.1849H28.3091ZM45.3882 40.0976C45.3882 38.6566 44.9609 37.248 44.1603 36.0498C43.3597 34.8516 42.2218 33.9178 40.8905 33.3663C39.5592 32.8148 38.0942 32.6706 36.6809 32.9517C35.2675 33.2328 33.9693 33.9267 32.9503 34.9457C31.9314 35.9647 31.2375 37.2629 30.9563 38.6762C30.6752 40.0896 30.8195 41.5545 31.3709 42.8859C31.9224 44.2172 32.8563 45.3551 34.0544 46.1557C35.2526 46.9563 36.6613 47.3836 38.1023 47.3836C40.0342 47.3822 41.8866 46.6141 43.2527 45.2481C44.6188 43.882 45.3869 42.0296 45.3882 40.0976Z" fill="#BDC4D4"/>
<circle cx="38" cy="40" r="8.5" stroke="#3FBB7D" stroke-width="3"/>
<path d="M38.5 36V41L35 42.5" stroke="#3FBB7D" stroke-width="2.5" stroke-linecap="round"/>
</svg>
