<svg width="12" height="12" viewBox="0 0 12 12" fill="none" xmlns="http://www.w3.org/2000/svg">
<path fill-rule="evenodd" clip-rule="evenodd" d="M10.0147 7.89536V7.04998C10.0147 6.78246 10.2432 6.56061 10.5093 6.56238C10.778 6.56416 10.9967 6.78955 10.9967 7.05705V7.85882V8.85281C10.9967 8.90331 10.9975 8.95408 10.9984 9.00495V9.00496V9.00497C11.0002 9.12052 11.0021 9.23659 10.9944 9.35121C10.9733 9.66557 10.8831 9.98887 10.6938 10.2453C10.5995 10.373 10.5047 10.4924 10.3801 10.5912L10.3679 10.6009L10.3679 10.6009C10.294 10.6596 10.2194 10.7188 10.1373 10.7659C10.0577 10.8115 9.97423 10.8459 9.88943 10.8808L9.87373 10.8873C9.64891 10.9801 9.40532 11 9.1645 11H7.88866H5.82048H3.8212H2.75206C2.30443 11 1.87239 10.8366 1.54415 10.5301C1.19171 10.201 1 9.73002 1 9.25028V8.22898V6.24708V4.1661V2.84757C1 2.63492 1.01022 2.42029 1.0778 2.21644C1.1754 1.92197 1.3424 1.63628 1.58333 1.43593C1.82887 1.23172 2.11416 1.07323 2.43461 1.02809C2.63775 0.999481 2.83579 0.999766 3.03896 1.00006L3.10065 1.00012H4.07432H4.92012C5.18756 1.00012 5.40934 1.22863 5.40757 1.4948C5.40579 1.76362 5.18047 1.9824 4.91305 1.9824H4.07813H3.10124C3.05603 1.9824 3.01039 1.98165 2.96456 1.9809H2.96456C2.85386 1.97908 2.74202 1.97724 2.63228 1.98591C2.56704 1.99804 2.50309 2.01513 2.44053 2.03717C2.38075 2.06623 2.3235 2.09978 2.26891 2.1377C2.21993 2.18033 2.17435 2.22641 2.13227 2.27587C2.09662 2.32827 2.06496 2.38305 2.03736 2.44013C2.01595 2.50037 1.99914 2.56193 1.98692 2.62468C1.97908 2.71862 1.98017 2.81407 1.98124 2.9087V2.9087C1.98161 2.94143 1.98198 2.97406 1.98198 3.0065V4.53619V6.66465V8.53034V9.09541L1.98179 9.15224C1.98142 9.22518 1.98104 9.29825 1.98619 9.37094C1.99827 9.43491 2.01512 9.49764 2.03674 9.55902C2.06578 9.61881 2.09931 9.67606 2.13721 9.73066C2.17984 9.77969 2.22593 9.8253 2.2754 9.86741C2.32776 9.90306 2.38249 9.93471 2.43952 9.9623C2.49977 9.98373 2.56134 10.0006 2.6241 10.0128C2.71801 10.0206 2.81342 10.0195 2.90802 10.0185C2.94073 10.0181 2.97334 10.0177 3.00576 10.0177H4.53496H6.66273H8.52783H9.09273L9.14942 10.0179H9.14947H9.14948C9.22242 10.0183 9.2955 10.0187 9.3682 10.0135C9.43213 10.0014 9.49483 9.98456 9.55618 9.96295C9.61596 9.93389 9.67321 9.90035 9.72779 9.86243C9.77677 9.81981 9.82233 9.77375 9.8644 9.7243C9.90007 9.67189 9.93173 9.61711 9.95933 9.56002C9.98098 9.49913 9.99793 9.4369 10.0102 9.37344C10.0201 9.25633 10.0182 9.13701 10.0163 9.01866L10.0163 9.01855C10.0155 8.97126 10.0147 8.92413 10.0147 8.87735V7.89536ZM8.744 1.98374L7.35395 1.98246C7.0865 1.98222 6.86473 1.75412 6.86649 1.48779C6.86827 1.21915 7.0936 0.999937 7.36101 1.00018L7.41597 1.00023L9.1204 1.0018L10.4548 1.00303C10.473 1.00103 10.4914 1.00006 10.51 1.00019C10.5913 1.00073 10.6681 1.02178 10.7357 1.0583C10.777 1.07994 10.8157 1.10787 10.8504 1.14213C10.8863 1.17759 10.9155 1.21776 10.938 1.26086C10.9545 1.29139 10.9679 1.32377 10.9778 1.35754C10.9912 1.40226 10.9982 1.44938 10.9979 1.49776C10.9979 1.50412 10.9977 1.51045 10.9974 1.51676L10.9974 1.54985L10.9958 3.25483L10.9945 4.64533C10.9943 4.91284 10.7663 5.1347 10.5 5.13294C10.2314 5.13116 10.0123 4.90576 10.0125 4.63826L10.0126 4.58327L10.0142 2.87829L10.0144 2.67602L9.08706 3.60287L7.56471 5.12447L6.28403 6.40454L5.74583 6.94249C5.55647 7.13174 5.24254 7.13489 5.05152 6.94619C4.86202 6.75899 4.85882 6.44055 5.0478 6.25166L5.5517 5.74801L6.81485 4.48546L8.3372 2.96386L9.31726 1.98427L8.744 1.98374Z" fill="#3FBB7D"/>
<path d="M10.5093 6.56238L10.5083 6.71237H10.5083L10.5093 6.56238ZM10.9984 9.00495H11.1484L11.1483 9.00253L10.9984 9.00495ZM10.9984 9.00497H10.8483L10.8484 9.00739L10.9984 9.00497ZM10.9944 9.35121L10.8447 9.34116V9.34116L10.9944 9.35121ZM10.6938 10.2453L10.8145 10.3344L10.8145 10.3344L10.6938 10.2453ZM10.3801 10.5912L10.2869 10.4737L10.2868 10.4738L10.3801 10.5912ZM10.3679 10.6009L10.458 10.7209L10.4612 10.7184L10.3679 10.6009ZM10.3679 10.6009L10.2779 10.4808L10.2747 10.4834L10.3679 10.6009ZM10.1373 10.7659L10.2119 10.896L10.2119 10.896L10.1373 10.7659ZM9.88943 10.8808L9.83229 10.7421L9.83226 10.7421L9.88943 10.8808ZM9.87373 10.8873L9.81655 10.7486L9.8165 10.7486L9.87373 10.8873ZM1.54415 10.5301L1.64653 10.4205L1.64652 10.4205L1.54415 10.5301ZM1.0778 2.21644L1.22018 2.26364L1.22018 2.26363L1.0778 2.21644ZM1.58333 1.43593L1.67924 1.55126L1.67924 1.55126L1.58333 1.43593ZM2.43461 1.02809L2.41369 0.87955L2.41368 0.879552L2.43461 1.02809ZM3.03896 1.00006L3.03875 1.15006L3.03882 1.15006L3.03896 1.00006ZM3.10065 1.00012L3.10051 1.15012H3.10065V1.00012ZM5.40757 1.4948L5.25757 1.4938V1.4938L5.40757 1.4948ZM2.96456 1.9809L2.96703 1.8309H2.96456V1.9809ZM2.96456 1.9809L2.9621 2.1309H2.96456V1.9809ZM2.63228 1.98591L2.62047 1.83638L2.61261 1.837L2.60485 1.83844L2.63228 1.98591ZM2.44053 2.03717L2.39068 1.8957L2.38263 1.89853L2.37495 1.90227L2.44053 2.03717ZM2.26891 2.1377L2.18334 2.0145L2.17662 2.01917L2.17045 2.02454L2.26891 2.1377ZM2.13227 2.27587L2.01803 2.17866L2.01279 2.18481L2.00825 2.19149L2.13227 2.27587ZM2.03736 2.44013L1.90232 2.37484L1.89876 2.3822L1.89602 2.38989L2.03736 2.44013ZM1.98692 2.62468L1.83968 2.59602L1.83812 2.60405L1.83744 2.61221L1.98692 2.62468ZM1.98124 2.9087H2.13125L2.13123 2.907L1.98124 2.9087ZM1.98124 2.9087H1.83123L1.83125 2.91041L1.98124 2.9087ZM1.98198 9.09541L2.13198 9.09592V9.09541H1.98198ZM1.98179 9.15224L2.13179 9.15301L2.13179 9.15275L1.98179 9.15224ZM1.98619 9.37094L1.83656 9.38153L1.83718 9.39022L1.8388 9.39878L1.98619 9.37094ZM2.03674 9.55902L1.89525 9.60884L1.89809 9.61689L1.90181 9.62457L2.03674 9.55902ZM2.13721 9.73066L2.01398 9.8162L2.01865 9.82291L2.02401 9.82908L2.13721 9.73066ZM2.2754 9.86741L2.17817 9.98163L2.18432 9.98686L2.19098 9.9914L2.2754 9.86741ZM2.43952 9.9623L2.37419 10.0973L2.38155 10.1009L2.38925 10.1036L2.43952 9.9623ZM2.6241 10.0128L2.59543 10.16L2.60346 10.1616L2.61162 10.1623L2.6241 10.0128ZM2.90802 10.0185L2.90972 10.1685H2.90973L2.90802 10.0185ZM9.09273 10.0177L9.09324 9.86773H9.09273V10.0177ZM9.14942 10.0179L9.14891 10.1679H9.14942V10.0179ZM9.14948 10.0179L9.15024 9.86792H9.14948V10.0179ZM9.3682 10.0135L9.37881 10.1631L9.38751 10.1625L9.39607 10.1609L9.3682 10.0135ZM9.55618 9.96295L9.60603 10.1044L9.61408 10.1016L9.62176 10.0979L9.55618 9.96295ZM9.72779 9.86243L9.81337 9.98562L9.82008 9.98096L9.82625 9.97559L9.72779 9.86243ZM9.8644 9.7243L9.97865 9.82151L9.98387 9.81536L9.98841 9.80869L9.8644 9.7243ZM9.95933 9.56002L10.0944 9.62531L10.0979 9.61796L10.1007 9.61026L9.95933 9.56002ZM10.0102 9.37344L10.1575 9.40187L10.159 9.39405L10.1596 9.38611L10.0102 9.37344ZM10.0163 9.01866L10.1663 9.01624L10.1662 9.01482L10.0163 9.01866ZM10.0163 9.01855L9.86627 9.02097L9.86631 9.0224L10.0163 9.01855ZM7.35395 1.98246L7.35408 1.83246H7.35408L7.35395 1.98246ZM8.744 1.98374L8.74414 1.83374H8.74414L8.744 1.98374ZM6.86649 1.48779L7.01649 1.48878V1.48878L6.86649 1.48779ZM7.36101 1.00018L7.36116 0.850177L7.36115 0.850177L7.36101 1.00018ZM7.41597 1.00023L7.41582 1.15023H7.41583L7.41597 1.00023ZM9.1204 1.0018L9.12026 1.1518H9.12026L9.1204 1.0018ZM10.4548 1.00303L10.4547 1.15303L10.463 1.15304L10.4712 1.15213L10.4548 1.00303ZM10.51 1.00019L10.509 1.15018L10.509 1.15018L10.51 1.00019ZM10.7357 1.0583L10.6643 1.19026L10.666 1.19116L10.7357 1.0583ZM10.8504 1.14213L10.9558 1.03542L10.9558 1.03541L10.8504 1.14213ZM10.938 1.26086L10.805 1.33025L10.8061 1.33228L10.938 1.26086ZM10.9778 1.35754L10.8338 1.39965L10.8341 1.40049L10.9778 1.35754ZM10.9979 1.49776L10.8479 1.49676V1.49677L10.9979 1.49776ZM10.9974 1.51676L10.8474 1.50984L10.8474 1.51664L10.9974 1.51676ZM10.9974 1.54985L11.1474 1.54999V1.54997L10.9974 1.54985ZM10.9958 3.25483L10.8458 3.25469L10.9958 3.25483ZM10.9945 4.64533L11.1445 4.64547V4.64547L10.9945 4.64533ZM10.5 5.13294L10.501 4.98294H10.501L10.5 5.13294ZM10.0125 4.63826L10.1625 4.6384V4.63838L10.0125 4.63826ZM10.0126 4.58327L9.86259 4.58313V4.58315L10.0126 4.58327ZM10.0142 2.87829L10.1642 2.87843V2.87843L10.0142 2.87829ZM10.0144 2.67602L10.1644 2.67616L10.1647 2.31368L9.90831 2.56993L10.0144 2.67602ZM9.08706 3.60287L9.1931 3.70896V3.70896L9.08706 3.60287ZM7.56471 5.12447L7.45867 5.01838L7.45866 5.01838L7.56471 5.12447ZM6.28403 6.40454L6.17799 6.29845L6.28403 6.40454ZM5.74583 6.94249L5.85187 7.04858L5.85187 7.04858L5.74583 6.94249ZM5.05152 6.94619L5.15694 6.83948L5.15694 6.83947L5.05152 6.94619ZM5.0478 6.25166L4.94176 6.14556L4.94176 6.14557L5.0478 6.25166ZM5.5517 5.74801L5.65774 5.8541L5.65774 5.8541L5.5517 5.74801ZM6.81485 4.48546L6.70881 4.37937L6.70881 4.37937L6.81485 4.48546ZM8.3372 2.96386L8.44324 3.06995L8.44325 3.06995L8.3372 2.96386ZM9.31726 1.98427L9.4233 2.09036L9.67918 1.8346L9.3174 1.83427L9.31726 1.98427ZM9.86474 7.04998V7.89536H10.1647V7.04998H9.86474ZM10.5103 6.41238C10.1627 6.41007 9.86474 6.6975 9.86474 7.04998H10.1647C10.1647 6.86742 10.3237 6.71115 10.5083 6.71237L10.5103 6.41238ZM11.1467 7.05705C11.1467 6.70892 10.8633 6.41472 10.5103 6.41238L10.5083 6.71237C10.6927 6.71359 10.8467 6.87018 10.8467 7.05705H11.1467ZM11.1467 7.85882V7.05705H10.8467V7.85882H11.1467ZM11.1467 8.85281V7.85882H10.8467V8.85281H11.1467ZM11.1483 9.00253C11.1475 8.95145 11.1467 8.9019 11.1467 8.85281H10.8467C10.8467 8.90472 10.8476 8.9567 10.8484 9.00737L11.1483 9.00253ZM11.1484 9.00496V9.00495H10.8484V9.00496H11.1484ZM11.1484 9.00497V9.00496H10.8484V9.00497H11.1484ZM11.1441 9.36126C11.1522 9.23936 11.1502 9.11702 11.1483 9.00255L10.8484 9.00739C10.8503 9.12403 10.8519 9.23382 10.8447 9.34116L11.1441 9.36126ZM10.8145 10.3344C11.0255 10.0486 11.1216 9.6951 11.1441 9.36125L10.8447 9.34116C10.8249 9.63603 10.7407 9.9292 10.5731 10.1562L10.8145 10.3344ZM10.4733 10.7087C10.6144 10.5968 10.719 10.4637 10.8145 10.3344L10.5731 10.1562C10.48 10.2824 10.395 10.388 10.2869 10.4737L10.4733 10.7087ZM10.4612 10.7184L10.4734 10.7087L10.2868 10.4738L10.2747 10.4834L10.4612 10.7184ZM10.4579 10.7209L10.4579 10.7209L10.2779 10.4809L10.2779 10.4809L10.4579 10.7209ZM10.2119 10.896C10.3055 10.8424 10.3888 10.7759 10.4612 10.7184L10.2747 10.4834C10.1992 10.5434 10.1334 10.5952 10.0627 10.6357L10.2119 10.896ZM9.94658 11.0195C10.0299 10.9852 10.1224 10.9473 10.2119 10.896L10.0627 10.6357C9.9929 10.6757 9.91852 10.7066 9.83229 10.7421L9.94658 11.0195ZM9.9309 11.026L9.9466 11.0195L9.83226 10.7421L9.81655 10.7486L9.9309 11.026ZM9.1645 11.15C9.41156 11.15 9.67874 11.13 9.93095 11.026L9.8165 10.7486C9.61909 10.8301 9.39908 10.85 9.1645 10.85V11.15ZM7.88866 11.15H9.1645V10.85H7.88866V11.15ZM5.82048 11.15H7.88866V10.85H5.82048V11.15ZM3.8212 11.15H5.82048V10.85H3.8212V11.15ZM2.75206 11.15H3.8212V10.85H2.75206V11.15ZM1.44178 10.6397C1.79889 10.9732 2.26795 11.15 2.75206 11.15V10.85C2.3409 10.85 1.94589 10.7 1.64653 10.4205L1.44178 10.6397ZM0.85 9.25028C0.85 9.76895 1.05708 10.2805 1.44179 10.6397L1.64652 10.4205C1.32635 10.1215 1.15 9.6911 1.15 9.25028H0.85ZM0.85 8.22898V9.25028H1.15V8.22898H0.85ZM0.85 6.24708V8.22898H1.15V6.24708H0.85ZM0.85 4.1661V6.24708H1.15V4.1661H0.85ZM0.85 2.84757V4.1661H1.15V2.84757H0.85ZM0.935419 2.16924C0.85983 2.39725 0.85 2.63229 0.85 2.84757H1.15C1.15 2.63756 1.16061 2.44332 1.22018 2.26364L0.935419 2.16924ZM1.48742 1.3206C1.21957 1.54334 1.03934 1.85569 0.935415 2.16925L1.22018 2.26363C1.31145 1.98826 1.46524 1.72922 1.67924 1.55126L1.48742 1.3206ZM2.41368 0.879552C2.05704 0.929793 1.74655 1.10509 1.48741 1.3206L1.67924 1.55126C1.9112 1.35835 2.17128 1.21666 2.45553 1.17662L2.41368 0.879552ZM3.03918 0.850059C2.83759 0.849768 2.62903 0.849228 2.41369 0.87955L2.45552 1.17662C2.64646 1.14973 2.83399 1.14976 3.03875 1.15006L3.03918 0.850059ZM3.10079 0.850118L3.03911 0.850059L3.03882 1.15006L3.10051 1.15012L3.10079 0.850118ZM4.07432 0.850118H3.10065V1.15012H4.07432V0.850118ZM4.92012 0.850118H4.07432V1.15012H4.92012V0.850118ZM5.55757 1.49579C5.55988 1.14823 5.27261 0.850118 4.92012 0.850118V1.15012C5.10251 1.15012 5.2588 1.30904 5.25757 1.4938L5.55757 1.49579ZM4.91305 2.1324C5.26119 2.1324 5.55523 1.84879 5.55757 1.49579L5.25757 1.4938C5.25635 1.67845 5.09975 1.8324 4.91305 1.8324V2.1324ZM4.07813 2.1324H4.91305V1.8324H4.07813V2.1324ZM3.10124 2.1324H4.07813V1.8324H3.10124V2.1324ZM2.9621 2.13088C3.00771 2.13163 3.05459 2.1324 3.10124 2.1324V1.8324C3.05747 1.8324 3.01307 1.83168 2.96703 1.83092L2.9621 2.13088ZM2.96456 2.1309H2.96456V1.8309H2.96456V2.1309ZM2.64409 2.13545C2.7455 2.12744 2.85013 2.12904 2.9621 2.13088L2.96703 1.83092C2.85759 1.82912 2.73855 1.82705 2.62047 1.83638L2.64409 2.13545ZM2.49038 2.17865C2.5456 2.15919 2.60206 2.1441 2.65971 2.13338L2.60485 1.83844C2.53203 1.85198 2.46057 1.87107 2.39068 1.8957L2.49038 2.17865ZM2.35449 2.26089C2.40274 2.22737 2.4533 2.19775 2.50611 2.17208L2.37495 1.90227C2.30819 1.93472 2.24426 1.97218 2.18334 2.0145L2.35449 2.26089ZM2.24651 2.37307C2.28374 2.32932 2.32404 2.28857 2.36738 2.25086L2.17045 2.02454C2.11581 2.07208 2.06496 2.1235 2.01803 2.17866L2.24651 2.37307ZM2.17241 2.50542C2.19679 2.45498 2.22477 2.40658 2.25629 2.36024L2.00825 2.19149C1.96847 2.24996 1.93312 2.31112 1.90232 2.37484L2.17241 2.50542ZM2.13416 2.65334C2.14495 2.59789 2.15979 2.54355 2.1787 2.49037L1.89602 2.38989C1.8721 2.4572 1.85332 2.52596 1.83968 2.59602L2.13416 2.65334ZM2.13123 2.907C2.13014 2.81112 2.12926 2.72282 2.1364 2.63715L1.83744 2.61221C1.82891 2.71442 1.83019 2.81701 1.83125 2.9104L2.13123 2.907ZM2.13124 2.9087V2.9087H1.83124V2.9087H2.13124ZM2.13198 3.0065C2.13198 2.97307 2.1316 2.93958 2.13123 2.907L1.83125 2.91041C1.83163 2.94328 1.83198 2.97506 1.83198 3.0065H2.13198ZM2.13198 4.53619V3.0065H1.83198V4.53619H2.13198ZM2.13198 6.66465V4.53619H1.83198V6.66465H2.13198ZM2.13198 8.53034V6.66465H1.83198V8.53034H2.13198ZM2.13198 9.09541V8.53034H1.83198V9.09541H2.13198ZM2.13179 9.15275L2.13198 9.09592L1.83199 9.0949L1.83179 9.15173L2.13179 9.15275ZM2.13582 9.36035C2.13114 9.29428 2.13141 9.22691 2.13179 9.15301L1.83179 9.15147C1.83142 9.22345 1.83095 9.30222 1.83656 9.38153L2.13582 9.36035ZM2.17822 9.5092C2.15914 9.45501 2.14426 9.39963 2.13358 9.3431L1.8388 9.39878C1.85228 9.47019 1.8711 9.54027 1.89525 9.60884L2.17822 9.5092ZM2.26043 9.64512C2.22693 9.59686 2.19732 9.54629 2.17166 9.49347L1.90181 9.62457C1.93425 9.69133 1.97169 9.75527 2.01398 9.8162L2.26043 9.64512ZM2.37263 9.75319C2.32887 9.71594 2.28811 9.67561 2.2504 9.63224L2.02401 9.82908C2.07157 9.88377 2.123 9.93467 2.17817 9.98163L2.37263 9.75319ZM2.50484 9.82727C2.45445 9.80289 2.4061 9.77493 2.35982 9.74342L2.19098 9.9914C2.24942 10.0312 2.31053 10.0665 2.37419 10.0973L2.50484 9.82727ZM2.65278 9.86555C2.59733 9.85475 2.54298 9.83989 2.48978 9.82097L2.38925 10.1036C2.45656 10.1276 2.52534 10.1464 2.59543 10.16L2.65278 9.86555ZM2.90632 9.86848C2.81047 9.86957 2.72221 9.87045 2.63658 9.8633L2.61162 10.1623C2.7138 10.1708 2.81636 10.1695 2.90972 10.1685L2.90632 9.86848ZM3.00576 9.86773C2.97234 9.86773 2.93888 9.86811 2.90631 9.86848L2.90973 10.1685C2.94258 10.1681 2.97433 10.1677 3.00576 10.1677V9.86773ZM4.53496 9.86773H3.00576V10.1677H4.53496V9.86773ZM6.66273 9.86773H4.53496V10.1677H6.66273V9.86773ZM8.52783 9.86773H6.66273V10.1677H8.52783V9.86773ZM9.09273 9.86773H8.52783V10.1677H9.09273V9.86773ZM9.14993 9.86792L9.09324 9.86773L9.09222 10.1677L9.14891 10.1679L9.14993 9.86792ZM9.14947 9.86792H9.14942V10.1679H9.14947V9.86792ZM9.14948 9.86792H9.14947V10.1679H9.14948V9.86792ZM9.35759 9.86388C9.29152 9.86857 9.22415 9.8683 9.15024 9.86792L9.14872 10.1679C9.2207 10.1683 9.29948 10.1688 9.37881 10.1631L9.35759 9.86388ZM9.50633 9.82147C9.45217 9.84056 9.39682 9.85543 9.34033 9.86612L9.39607 10.1609C9.46744 10.1474 9.53749 10.1286 9.60603 10.1044L9.50633 9.82147ZM9.64221 9.73924C9.59397 9.77275 9.54341 9.80237 9.4906 9.82804L9.62176 10.0979C9.68851 10.0654 9.75245 10.0279 9.81337 9.98562L9.64221 9.73924ZM9.75016 9.6271C9.71295 9.67083 9.67266 9.71157 9.62933 9.74927L9.82625 9.97559C9.88087 9.92806 9.93172 9.87666 9.97865 9.82151L9.75016 9.6271ZM9.82429 9.49473C9.7999 9.54518 9.77193 9.59358 9.7404 9.63991L9.98841 9.80869C10.0282 9.75021 10.0636 9.68904 10.0944 9.62531L9.82429 9.49473ZM9.8629 9.34501C9.85207 9.40108 9.83711 9.45602 9.818 9.50978L10.1007 9.61026C10.1248 9.54224 10.1438 9.47272 10.1575 9.40187L9.8629 9.34501ZM9.86628 9.02109C9.86822 9.14077 9.86989 9.25247 9.86071 9.36077L10.1596 9.38611C10.1703 9.26018 10.1681 9.13325 10.1662 9.01624L9.86628 9.02109ZM9.86631 9.0224L9.86631 9.02251L10.1662 9.01482L10.1662 9.01471L9.86631 9.0224ZM9.86474 8.87735C9.86474 8.92554 9.86552 8.97389 9.86628 9.02097L10.1662 9.01613C10.1655 8.96863 10.1647 8.92271 10.1647 8.87735H9.86474ZM9.86474 7.89536V8.87735H10.1647V7.89536H9.86474ZM7.35381 2.13246L8.74387 2.13374L8.74414 1.83374L7.35408 1.83246L7.35381 2.13246ZM6.7165 1.48679C6.71419 1.83468 7.00158 2.13215 7.35381 2.13246L7.35408 1.83246C7.17143 1.8323 7.01526 1.67356 7.01649 1.48878L6.7165 1.48679ZM7.36115 0.850177C7.01274 0.849864 6.71883 1.13414 6.7165 1.48679L7.01649 1.48878C7.01771 1.30416 7.17445 1.15001 7.36088 1.15018L7.36115 0.850177ZM7.41612 0.850232L7.36116 0.850177L7.36087 1.15018L7.41582 1.15023L7.41612 0.850232ZM9.12054 0.851803L7.41611 0.850232L7.41583 1.15023L9.12026 1.1518L9.12054 0.851803ZM10.4549 0.853029L9.12053 0.851803L9.12026 1.1518L10.4547 1.15303L10.4549 0.853029ZM10.511 0.850191C10.4865 0.850028 10.4623 0.851301 10.4384 0.853928L10.4712 1.15213C10.4836 1.15076 10.4962 1.1501 10.509 1.15018L10.511 0.850191ZM10.807 0.926344C10.7187 0.878616 10.6179 0.850899 10.511 0.850191L10.509 1.15018C10.5648 1.15055 10.6175 1.16494 10.6643 1.19025L10.807 0.926344ZM10.9558 1.03541C10.9103 0.99051 10.8595 0.953834 10.8053 0.925432L10.666 1.19116C10.6945 1.20605 10.7211 1.22524 10.745 1.24885L10.9558 1.03541ZM11.071 1.19148C11.0415 1.13499 11.0031 1.08214 10.9558 1.03542L10.745 1.24885C10.7695 1.27304 10.7895 1.30052 10.805 1.33024L11.071 1.19148ZM11.1218 1.31543C11.1089 1.27131 11.0914 1.22912 11.0699 1.18944L10.8061 1.33228C10.8176 1.35365 10.827 1.37622 10.8338 1.39965L11.1218 1.31543ZM11.1479 1.49875C11.1483 1.43508 11.139 1.37316 11.1215 1.31459L10.8341 1.40049C10.8433 1.43136 10.8481 1.46368 10.8479 1.49676L11.1479 1.49875ZM11.1472 1.52367C11.1476 1.51539 11.1478 1.50708 11.1479 1.49875L10.8479 1.49677C10.8479 1.50116 10.8478 1.50552 10.8476 1.50985L11.1472 1.52367ZM11.1474 1.54997L11.1474 1.51688L10.8474 1.51664L10.8474 1.54973L11.1474 1.54997ZM11.1458 3.25497L11.1474 1.54999L10.8474 1.54971L10.8458 3.25469L11.1458 3.25497ZM11.1445 4.64547L11.1458 3.25497L10.8458 3.25469L10.8445 4.64519L11.1445 4.64547ZM10.499 5.28293C10.8469 5.28524 11.1442 4.99767 11.1445 4.64547L10.8445 4.64519C10.8443 4.82802 10.6856 4.98416 10.501 4.98294L10.499 5.28293ZM9.86254 4.63812C9.86221 4.98653 10.1463 5.2806 10.499 5.28293L10.501 4.98294C10.3165 4.98172 10.1624 4.825 10.1625 4.6384L9.86254 4.63812ZM9.86259 4.58315L9.86254 4.63814L10.1625 4.63838L10.1626 4.58339L9.86259 4.58315ZM9.86417 2.87815L9.86259 4.58313L10.1626 4.58341L10.1642 2.87843L9.86417 2.87815ZM9.86435 2.67588L9.86417 2.87816L10.1642 2.87843L10.1644 2.67616L9.86435 2.67588ZM9.1931 3.70896L10.1204 2.78211L9.90831 2.56993L8.98102 3.49677L9.1931 3.70896ZM7.67075 5.23056L9.1931 3.70896L8.98102 3.49677L7.45867 5.01838L7.67075 5.23056ZM6.39007 6.51063L7.67075 5.23056L7.45866 5.01838L6.17799 6.29845L6.39007 6.51063ZM5.85187 7.04858L6.39007 6.51063L6.17799 6.29845L5.63979 6.8364L5.85187 7.04858ZM4.9461 7.05289C5.19657 7.30033 5.60495 7.29536 5.85187 7.04858L5.63979 6.83639C5.50799 6.96812 5.28851 6.96946 5.15694 6.83948L4.9461 7.05289ZM4.94176 6.14557C4.69315 6.39407 4.69819 6.808 4.94611 7.0529L5.15694 6.83947C5.02585 6.70998 5.0245 6.48704 5.15384 6.35775L4.94176 6.14557ZM5.44566 5.64191L4.94176 6.14556L5.15384 6.35775L5.65774 5.8541L5.44566 5.64191ZM6.70881 4.37937L5.44566 5.64192L5.65774 5.8541L6.92089 4.59155L6.70881 4.37937ZM8.23116 2.85776L6.70881 4.37937L6.92089 4.59155L8.44324 3.06995L8.23116 2.85776ZM9.21122 1.87818L8.23116 2.85777L8.44325 3.06995L9.4233 2.09036L9.21122 1.87818ZM8.74386 2.13374L9.31712 2.13427L9.3174 1.83427L8.74414 1.83374L8.74386 2.13374Z" fill="#3FBB7D"/>
</svg>
