<svg width="25" height="24" viewBox="0 0 25 24" fill="none" xmlns="http://www.w3.org/2000/svg">
<path d="M21.845 16.08C21.605 18.75 19.675 20.5 16.875 20.5H7.875C5.115 20.5 2.875 18.26 2.875 15.5V8.5C2.875 5.78 4.515 3.88 7.065 3.56C7.325 3.52 7.595 3.5 7.875 3.5H16.875C17.135 3.5 17.385 3.51 17.625 3.55C20.015 3.83 21.635 5.5 21.845 7.92C21.875 8.21 21.635 8.45 21.345 8.45H19.795C18.835 8.45 17.945 8.82 17.305 9.48C16.545 10.22 16.165 11.26 16.255 12.3C16.415 14.12 18.015 15.55 19.915 15.55H21.345C21.635 15.55 21.875 15.79 21.845 16.08Z" fill="#BDC4D4"/>
<path d="M22.8752 10.97V13.03C22.8752 13.58 22.4352 14.03 21.8752 14.05H19.9152C18.8352 14.05 17.8452 13.26 17.7552 12.18C17.6952 11.55 17.9352 10.96 18.3552 10.55C18.7252 10.17 19.2352 9.94995 19.7952 9.94995H21.8752C22.4352 9.96995 22.8752 10.42 22.8752 10.97Z" fill="#BDC4D4"/>
</svg>
