<svg width="15" height="15" viewBox="0 0 15 15" fill="none" xmlns="http://www.w3.org/2000/svg">
<path d="M15 7.5C15 3.3614 11.6386 0 7.5 0C3.3614 0 0 3.3614 0 7.5C0 11.6386 3.3614 15 7.5 15C11.6386 15 15 11.6386 15 7.5ZM6.68394 4.11917C6.68394 3.67228 7.05311 3.30311 7.5 3.30311C7.94689 3.30311 8.31606 3.67228 8.31606 4.11917V7.36399C8.31606 7.81088 7.94689 8.18005 7.5 8.18005C7.05311 8.18005 6.68394 7.81088 6.68394 7.36399V4.11917ZM6.74223 10.2785C6.74223 9.87047 7.07254 9.52073 7.5 9.52073C7.90803 9.52073 8.25777 9.85104 8.25777 10.2785C8.25777 10.6865 7.92746 11.0363 7.5 11.0363C7.09197 11.0363 6.74223 10.706 6.74223 10.2785Z" fill="#C3C3C3"/>
</svg>
