<svg width="24" height="24" viewBox="0 0 24 24" fill="none" xmlns="http://www.w3.org/2000/svg">
<g clip-path="url(#clip0_5816_69776)">
<path d="M21.9 10.2172L21.35 8.86094L20.35 6.43906C19.5 4.35625 17.45 3 15.15 3H8.8C6.5 3 4.45 4.35625 3.6 6.43906L2.6 8.86094L2.05 10.2172C0.85 10.6531 0 11.7672 0 13.075V15.4C0 16.2234 0.3 16.9016 0.8 17.4344V20.05C0.8 20.9219 1.5 21.6 2.4 21.6H4C4.85 21.6 5.6 20.9219 5.6 20.05V18.5H18.4V20.05C18.4 20.9219 19.1 21.6 20 21.6H21.6C22.45 21.6 23.2 20.9219 23.2 20.05V17.4344C23.65 16.9016 24 16.2234 24 15.4V13.075C24 11.7672 23.1 10.6531 21.9 10.2172ZM6.55 7.60156C6.95 6.68125 7.8 6.1 8.8 6.1H15.15C16.15 6.1 17 6.68125 17.4 7.60156L18.4 9.975H5.6L6.55 7.60156ZM4 15.4C3 15.4 2.4 14.8187 2.4 13.85C2.4 12.9297 3 12.3 4 12.3C4.95 12.3 6.4 13.7047 6.4 14.625C6.4 15.5453 4.95 15.4 4 15.4ZM20 15.4C19 15.4 17.6 15.5453 17.6 14.625C17.6 13.7047 19 12.3 20 12.3C20.95 12.3 21.6 12.9297 21.6 13.85C21.6 14.8187 20.95 15.4 20 15.4Z" fill="#3FBB7D"/>
</g>
<defs>
<clipPath id="clip0_5816_69776">
<rect width="24" height="24" fill="white"/>
</clipPath>
</defs>
</svg>
