<svg width="24" height="24" viewBox="0 0 24 24" fill="none" xmlns="http://www.w3.org/2000/svg">
<g clip-path="url(#clip0_5816_69785)">
<path d="M20.5924 0.557627C19.1851 1.04588 17.6629 2.0511 16.428 3.28609L8.21386 11.5002C7.89793 11.4715 7.582 11.5002 7.26608 11.5289L13.2112 5.58374C8.1277 8.94405 4.7961 6.18687 1.26347 9.7195L4.93971 13.3957L4.48018 13.8553L0.803936 10.179C0.0284797 10.9545 0.258244 12.3905 1.26347 13.3957L3.10159 15.2339C2.41229 15.9232 2.49845 16.4689 2.87182 16.8422L4.02065 17.991C4.42274 18.3931 4.93971 18.4506 5.629 17.7613L6.08853 18.2208C5.39924 18.9101 5.4854 19.4558 5.85877 19.8292L7.00759 20.978C7.40968 21.3801 7.92665 21.4375 8.61595 20.7482L10.4541 22.5863C11.488 23.6203 12.8953 23.8213 13.6708 23.0459L9.99454 19.3696L10.4541 18.9101L14.1303 22.5863C17.6629 19.0537 14.9345 15.7508 18.2661 10.6386L12.3209 16.5837C12.3783 16.2965 12.4071 15.9806 12.3496 15.636L20.5637 7.42186C21.7987 6.18687 22.8327 4.6934 23.3209 3.28609C23.7804 2.02238 23.7804 0.988436 23.3209 0.528906C22.8901 0.0980967 21.8562 0.0980984 20.5924 0.557627ZM20.1042 6.04327C19.9606 6.18687 19.7883 6.18687 19.6447 6.04327L17.8065 4.20515C17.6917 4.09026 17.6629 3.88922 17.8065 3.74562C18.6969 2.85528 20.9945 5.15293 20.1042 6.04327Z" fill="#454CF9"/>
</g>
<defs>
<clipPath id="clip0_5816_69785">
<rect width="24" height="24" fill="white"/>
</clipPath>
</defs>
</svg>
