<svg width="24" height="24" viewBox="0 0 24 24" fill="none" xmlns="http://www.w3.org/2000/svg">
<g clip-path="url(#clip0_5816_69768)">
<path d="M5.33333 7.875V6.80078C4.66667 7.01562 4.08333 7.44531 3.66667 7.96094V7.875C1.625 7.91797 0 9.59375 0 11.6562V14.0625C0 14.4492 0.291667 14.75 0.666667 14.75H1.33333C1.66667 14.75 2 14.4492 2 14.0625V11.6562C2 11.0977 2.25 10.625 2.66667 10.3242C2.66667 10.4102 2.66667 10.5391 2.66667 10.625C2.66667 11.8281 3.125 12.9023 3.91667 13.6328L2.83333 16.5977C2.75 16.8984 2.66667 17.2422 2.66667 17.543C2.66667 17.8008 2.70833 18.0156 2.75 18.2305L3.79167 22.4844C3.875 22.7852 4.16667 23 4.45833 23H7.20833C7.54167 23 7.875 22.6992 7.875 22.3125C7.875 22.2695 7.83333 22.2266 7.83333 22.1836L6.75 17.6289L7.75 14.9219L8.66667 15.0508V11.957C6.75 11.6133 5.33333 9.9375 5.33333 7.875ZM12 7.875V6.5H6.66667V7.875C6.66667 9.42188 7.83333 10.625 9.33333 10.625C10.7917 10.625 12 9.42188 12 7.875ZM23.9583 4.30859C23.9583 3.96484 23.8333 3.62109 23.625 3.36328C23.4583 3.19141 23.25 2.97656 23.0417 2.76172C23.5 2.46094 23.875 1.98828 23.9583 1.42969V1.38672C23.9583 1.17188 23.8333 1.04297 23.625 1H18.625C15.7083 1.04297 13.3333 3.44922 13.3333 6.5V7.91797C13.2917 9.9375 11.875 11.6133 10 11.957V15.3086L13.3333 15.8672V22.3125C13.3333 22.6992 13.625 23 14 23H16.6667C17 23 17.3333 22.6992 17.3333 22.3125V14.707C18.125 13.8477 18.6667 12.6445 18.6667 11.3555C18.6667 11.3555 18.6667 11.3555 18.6667 11.3125C18.625 11.3125 18.625 11.3125 18.625 11.3125V6.88672L19.2917 7.1875L20.0833 8.82031C20.3333 9.29297 20.75 9.59375 21.2917 9.59375C21.4583 9.59375 21.625 9.55078 21.7917 9.50781L23.125 8.94922C23.625 8.73438 24 8.17578 24 7.66016L23.9583 4.30859ZM21.2917 5.125C20.9583 5.125 20.625 4.82422 20.625 4.4375C20.625 4.09375 20.9583 3.75 21.2917 3.75C21.6667 3.75 21.9583 4.09375 21.9583 4.4375C21.9583 4.82422 21.6667 5.125 21.2917 5.125Z" fill="#F99145"/>
</g>
<defs>
<clipPath id="clip0_5816_69768">
<rect width="24" height="24" fill="white"/>
</clipPath>
</defs>
</svg>
