<svg width="25" height="24" viewBox="0 0 25 24" fill="none" xmlns="http://www.w3.org/2000/svg">
<path d="M16.565 2H8.185C4.545 2 2.375 4.17 2.375 7.81V16.18C2.375 19.83 4.545 22 8.185 22H16.555C20.195 22 22.365 19.83 22.365 16.19V7.81C22.375 4.17 20.205 2 16.565 2ZM11.875 17.25C11.875 17.61 11.515 17.85 11.185 17.71C9.975 17.19 8.395 16.71 7.295 16.57L7.105 16.55C6.495 16.47 5.995 15.9 5.995 15.28V7.58C5.995 6.81 6.615 6.24 7.375 6.3C8.625 6.4 10.475 7 11.635 7.66C11.795 7.75 11.875 7.92 11.875 8.09V17.25ZM18.755 15.27C18.755 15.89 18.255 16.46 17.645 16.54L17.435 16.56C16.345 16.71 14.775 17.18 13.565 17.69C13.235 17.83 12.875 17.59 12.875 17.23V8.08C12.875 7.9 12.965 7.73 13.125 7.64C14.285 6.99 16.095 6.41 17.325 6.3H17.365C18.135 6.3 18.755 6.92 18.755 7.69V15.27Z" fill="#9C9CAC"/>
</svg>
