<svg width="25" height="24" viewBox="0 0 25 24" fill="none" xmlns="http://www.w3.org/2000/svg">
<path d="M9.94405 12C9.94405 10.7951 10.9205 9.81828 12.1251 9.81828C13.3296 9.81828 14.3061 10.7951 14.3061 12C14.3061 13.2049 13.3296 14.1817 12.1251 14.1817C10.9205 14.1817 9.94405 13.2049 9.94405 12Z" fill="#9C9CAC"/>
<path fill-rule="evenodd" clip-rule="evenodd" d="M8.815 3.49835C9.76535 0.167218 14.4847 0.167217 15.435 3.49835C15.7295 4.53045 16.7895 5.14265 17.8302 4.88169C21.1893 4.03942 23.5489 8.1278 21.1402 10.6167C20.3939 11.3878 20.3939 12.6122 21.1402 13.3833C23.5489 15.8722 21.1893 19.9606 17.8302 19.1183C16.7895 18.8573 15.7295 19.4695 15.435 20.5017C14.4847 23.8328 9.76535 23.8328 8.815 20.5017C8.52055 19.4695 7.46054 18.8573 6.41977 19.1183C3.06071 19.9606 0.701052 15.8722 3.10977 13.3833C3.85608 12.6122 3.85608 11.3878 3.10977 10.6167C0.701053 8.1278 3.06071 4.03942 6.41977 4.88169C7.46053 5.14265 8.52055 4.53045 8.815 3.49835ZM12.1251 8.3638C10.1175 8.3638 8.49005 9.99178 8.49005 12C8.49005 14.0082 10.1175 15.6362 12.1251 15.6362C14.1326 15.6362 15.7601 14.0082 15.7601 12C15.7601 9.99178 14.1326 8.3638 12.1251 8.3638Z" fill="#9C9CAC"/>
</svg>
