<svg width="25" height="24" viewBox="0 0 25 24" fill="none" xmlns="http://www.w3.org/2000/svg">
<path fill-rule="evenodd" clip-rule="evenodd" d="M4.91508 3.06102C6.37545 2 8.45863 2 12.625 2C16.7914 2 18.8746 2 20.3349 3.06102C20.8066 3.40368 21.2213 3.81845 21.564 4.29008C22.625 5.75045 22.625 7.83363 22.625 12C22.625 16.1664 22.625 18.2496 21.564 19.7099C21.2213 20.1816 20.8066 20.5963 20.3349 20.939C18.8746 22 16.7914 22 12.625 22C8.45863 22 6.37545 22 4.91508 20.939C4.44344 20.5963 4.02868 20.1816 3.68602 19.7099C2.625 18.2496 2.625 16.1664 2.625 12C2.625 7.83363 2.625 5.75045 3.68602 4.29008C4.02868 3.81844 4.44344 3.40368 4.91508 3.06102ZM6.95675 14.1778C6.6412 14.4921 6.34265 14.8759 6.26122 15.387C6.24452 15.4919 6.23611 15.5977 6.23611 15.7038C6.23611 15.8099 6.24452 15.9157 6.26122 16.0206C6.34265 16.5316 6.6412 16.9155 6.95675 17.2298C7.26091 17.5328 7.68265 17.8672 8.17164 18.2549L9.51466 19.3197C9.8753 19.6057 10.3994 19.5451 10.6854 19.1845C10.9713 18.8239 10.9108 18.2997 10.5502 18.0138L9.24425 16.9783C9.03183 16.8099 8.84933 16.665 8.69215 16.5371L17.4398 16.5371C17.9001 16.5371 18.2732 16.164 18.2732 15.7038C18.2732 15.2436 17.9001 14.8705 17.4398 14.8705L8.69215 14.8705C8.84933 14.7426 9.03183 14.5977 9.24425 14.4293L10.5502 13.3938C10.9108 13.1079 10.9713 12.5837 10.6854 12.2231C10.3994 11.8625 9.8753 11.8019 9.51466 12.0879L8.17166 13.1527C7.68266 13.5404 7.26092 13.8748 6.95675 14.1778ZM7.81 9.12963C7.34976 9.12963 6.97667 8.75653 6.97667 8.2963C6.97667 7.83606 7.34976 7.46296 7.81 7.46296L16.5577 7.46296C16.4005 7.33514 16.218 7.19019 16.0056 7.02176L14.6997 5.98632C14.339 5.70037 14.2785 5.17622 14.5644 4.81559C14.8504 4.45496 15.3745 4.39441 15.7352 4.68035L17.0782 5.74522C17.5672 6.1329 17.9889 6.46726 18.2931 6.77025C18.6086 7.08459 18.9072 7.46845 18.9886 7.9795C19.0053 8.08435 19.0137 8.19021 19.0137 8.2963C19.0137 8.40238 19.0053 8.50824 18.9886 8.6131C18.9072 9.12415 18.6086 9.508 18.2931 9.82235C17.9889 10.1253 17.5672 10.4597 17.0782 10.8474L15.7352 11.9122C15.3745 12.1982 14.8504 12.1376 14.5644 11.777C14.2785 11.4164 14.339 10.8922 14.6997 10.6063L16.0056 9.57084C16.218 9.40241 16.4005 9.25745 16.5577 9.12963L7.81 9.12963Z" fill="#9C9CAC"/>
</svg>
