<svg width="25" height="24" viewBox="0 0 25 24" fill="none" xmlns="http://www.w3.org/2000/svg">
<path d="M19.8695 4.64243C19.2563 4.44913 18.5671 4.35528 17.771 4.30615C16.861 4.25 15.7551 4.25 14.3983 4.25H11.3357C9.73235 4.24999 8.47539 4.24999 7.4712 4.34547C6.44765 4.44279 5.60955 4.64457 4.87073 5.09732C4.09703 5.57144 3.44653 6.22194 2.97241 6.99563C2.95562 7.02304 2.93916 7.05059 2.92305 7.07828C3.00034 5.63513 3.20223 4.67932 3.72954 3.92267C4.00549 3.5267 4.33951 3.17848 4.71932 2.89079C5.89536 2 7.57296 2 10.9282 2H16.2969C17.9841 2 18.8277 2 19.3519 2.54645C19.7544 2.96614 19.8478 3.58228 19.8695 4.64243Z" fill="#9C9CAC"/>
<path d="M3.6118 7.38751C2.875 8.58985 2.875 10.2266 2.875 13.5C2.875 16.7734 2.875 18.4101 3.6118 19.6125C4.02408 20.2853 4.58973 20.8509 5.26251 21.2632C6.46485 22 8.10157 22 11.375 22H14.375C17.6484 22 19.2851 22 20.4875 21.2632C21.1603 20.8509 21.7259 20.2853 22.1382 19.6125C22.6221 18.8229 22.7882 17.8459 22.8452 16.3409H16.5115C14.591 16.3409 13.0342 14.7841 13.0342 12.8637C13.0342 10.9432 14.591 9.38638 16.5115 9.38638H22.7527C22.6525 8.55873 22.4701 7.92906 22.1382 7.38751C21.7259 6.71473 21.1603 6.14908 20.4875 5.7368C20.296 5.61943 20.0934 5.52076 19.875 5.43781C18.7222 5 17.127 5 14.375 5H11.375C8.10157 5 6.46485 5 5.26251 5.7368C4.58973 6.14908 4.02408 6.71473 3.6118 7.38751Z" fill="#9C9CAC"/>
<path fill-rule="evenodd" clip-rule="evenodd" d="M22.8529 10.8864H16.5115C15.4194 10.8864 14.5342 11.7716 14.5342 12.8637C14.5342 13.9557 15.4194 14.8409 16.5115 14.8409H22.8727C22.875 14.4268 22.875 13.9811 22.875 13.5C22.875 12.4828 22.875 11.6236 22.8529 10.8864ZM16.5115 12.1137C16.0972 12.1137 15.7615 12.4494 15.7615 12.8637C15.7615 13.2779 16.0972 13.6137 16.5115 13.6137H19.2387C19.6529 13.6137 19.9887 13.2779 19.9887 12.8637C19.9887 12.4494 19.6529 12.1137 19.2387 12.1137H16.5115Z" fill="#9C9CAC"/>
</svg>
