<svg width="375" height="315" viewBox="0 0 375 315" fill="none" xmlns="http://www.w3.org/2000/svg">
<g clip-path="url(#clip0)">
<path d="M1143 269.258V271.427C1129.55 270.086 1116.33 266.889 1104.26 262.35C1077.68 252.388 1053.38 236.746 1029.88 221.646C1015.46 212.341 1000.53 202.75 985.229 194.558C961.103 181.627 915.394 163.302 880.647 185.995C866.572 195.186 856.636 209.943 847.043 224.215C835.223 241.799 823.003 259.981 803.046 267.289C786.002 273.568 767.643 270.172 749.885 266.86C741.006 265.205 731.812 263.492 722.847 263.035C720.392 262.893 717.937 262.864 715.453 262.921C707.573 263.035 699.636 263.949 691.784 265.205C685.903 266.175 680.05 267.317 674.283 268.43C655.411 272.113 635.853 275.909 616.582 272.912C597.51 269.972 580.179 260.638 563.392 251.589C547.946 243.254 531.929 234.634 514.684 231.123C470.316 222.074 428.746 247.108 388.518 271.285C353.515 292.379 317.456 314.073 278.969 314.073C273.83 314.073 268.691 313.702 263.495 312.874C228.177 307.336 196.429 283.045 163.596 236.461C158.913 229.839 154.288 222.959 149.777 216.337C130.505 187.764 110.548 158.25 82.0548 138.725C58.7003 122.74 26.438 116.061 0 123.511V121.313C26.9519 113.949 59.6139 120.742 83.2825 136.955C112.09 156.708 132.161 186.394 151.576 215.138C156.058 221.76 160.684 228.611 165.337 235.233C197.828 281.304 229.12 305.31 263.809 310.761C307.434 317.612 348.09 293.15 387.433 269.458C413.443 253.787 440.052 237.774 467.689 230.752C483.135 226.841 498.924 225.7 515.112 229.011C532.671 232.607 548.802 241.285 564.419 249.705C581.036 258.668 598.195 267.917 616.896 270.8C635.825 273.74 655.182 269.972 673.883 266.347C676.681 265.804 679.507 265.262 682.362 264.72C695.724 262.236 709.371 260.153 722.962 260.895C723.076 260.895 723.161 260.895 723.276 260.923C732.241 261.408 741.434 263.121 750.285 264.748C768.557 268.145 785.802 271.37 802.333 265.29C821.604 258.212 833.082 241.114 845.244 223.045C854.98 208.573 865.03 193.616 879.477 184.196C907.142 166.156 941.289 173.235 966.699 183.483C974.065 186.451 980.689 189.677 986.228 192.645C1001.62 200.895 1016.58 210.514 1031.05 219.848C1054.44 234.891 1078.65 250.447 1105 260.352C1116.85 264.805 1129.84 267.945 1143 269.258Z" fill="white" fill-opacity="0.2"/>
<path d="M1143 0.000427246V218.478C1102.89 221.19 1062.14 215.11 1024.63 200.638C1006.18 193.531 987.941 184.368 969.526 176.632C945.229 166.471 920.59 158.792 894.751 161.704C828.371 169.182 786.316 242.455 723.276 260.924C720.706 261.694 718.108 262.351 715.453 262.922C714.054 263.207 712.655 263.492 711.256 263.721C704.718 264.834 698.237 265.291 691.784 265.205C688.644 265.177 685.503 265.005 682.362 264.72C627.888 259.782 576.382 219.706 519.937 215.995C501.408 214.767 483.307 217.479 465.463 222.332C439.167 229.411 413.5 241.085 388.119 251.39C345.549 268.659 297.099 282.417 254.558 265.091C222.068 251.846 199.198 222.845 176.329 196.214C146.265 161.161 112.033 127.222 68.4646 112.037C46.8232 104.472 22.3838 102.817 0 107.698V0.000427246H1143Z" fill="url(#paint0_linear)"/>
<path d="M1143 0.000427246V82.579C1125.53 91.7131 1106 96.7655 1086.24 96.4515C1049.58 95.8806 1015.52 79.0109 981.231 66.0518C946.942 53.0928 907.942 43.9871 874.309 58.5733C827.172 79.0395 809.499 136.471 771.84 171.437C746.83 194.672 712.341 207.432 678.223 206.061C621.064 203.778 568.331 164.216 511.486 170.724C457.668 176.918 416.184 222.76 363.536 235.576C300.868 250.847 236.371 216.166 189.006 172.379C148.549 135.043 110.777 87.9168 56.6161 78.0119C37.7155 74.558 18.6722 76.128 0 80.6951V0.000427246H186.265C193.089 27.5171 204.852 53.892 222.639 75.8711C244.88 103.331 277.113 123.511 312.231 127.308C370.017 133.559 423.464 96.7369 481.023 88.6304C510.516 84.4914 541.065 88.1166 568.759 99.049C593.027 108.611 614.869 123.54 639.051 133.302C663.233 143.036 691.813 147.06 714.71 134.587C736.181 122.883 748.2 99.2774 756.366 76.2421C764.56 53.1784 770.499 28.716 785.031 9.04896C787.401 5.852 789.97 2.82631 792.768 0.000427246H1143V0.000427246Z" fill="#3E304D"/>
<path d="M792.768 0C789.97 2.82588 787.401 5.85157 785.031 9.04853C770.499 28.7155 764.56 53.178 756.366 76.2417C748.201 99.2769 736.181 122.883 714.71 134.586C691.813 147.06 663.233 143.035 639.051 133.302C614.869 123.54 593.027 108.611 568.759 99.0486C541.065 88.1161 510.516 84.491 481.023 88.6299C423.464 96.7365 370.018 133.559 312.231 127.307C277.113 123.511 244.88 103.33 222.639 75.8707C204.852 53.8916 193.089 27.5167 186.265 0H792.768Z" fill="url(#paint1_linear)"/>
<path d="M1143 39.3911V41.6461C1116.59 49.7812 1088.95 47.6404 1071.65 44.7859C1051.55 41.4748 1031.74 35.5947 1012.58 29.9144C996.535 25.176 979.947 20.2379 963.33 16.8697C932.724 10.6756 889.355 8.13512 856.322 31.1989C837.821 44.1294 825.002 63.511 812.583 82.2646C804.931 93.7964 797.022 105.757 787.8 116.232C753.168 155.566 697.552 174.577 646.103 164.643C625.661 160.704 605.904 152.483 586.775 144.548C559.937 133.359 532.157 121.798 503.007 122.598C467.604 123.568 434.999 142.407 403.479 160.619C371.788 178.944 339.183 197.783 304.094 197.783C299.069 197.783 293.987 197.384 288.848 196.556C253.331 190.818 225.808 164.358 208.963 143.207C198.028 129.448 188.406 114.377 179.099 99.8478C171.162 87.4311 162.939 74.6147 153.974 62.6547C136.016 38.7346 114.06 17.5547 89.5067 0H93.1612C116.944 17.3264 138.186 38.078 155.687 61.3702C164.709 73.3873 172.932 86.2322 180.898 98.6775C190.177 113.178 199.77 128.192 210.647 141.865C227.264 162.731 254.359 188.82 289.191 194.444C329.419 200.952 364.85 180.485 402.394 158.792C434.171 140.409 467.004 121.427 502.95 120.457C532.586 119.686 560.565 131.304 587.603 142.55C606.618 150.485 626.289 158.649 646.503 162.56C697.238 172.35 752.055 153.597 786.202 114.834C795.309 104.443 803.189 92.569 810.784 81.0657C823.318 62.1694 836.251 42.6166 855.095 29.4291C875.623 15.0999 900.033 10.4472 922.988 10.4472C937.635 10.4472 951.682 12.3311 963.759 14.7859C980.461 18.1827 997.106 23.0923 1013.21 27.8592C1032.31 33.5395 1052.04 39.3911 1071.99 42.6737C1089.24 45.4996 1116.79 47.6404 1143 39.3911Z" fill="white" fill-opacity="0.2"/>
<path d="M225.37 171C223.543 171 223.543 173.854 225.37 173.854C227.198 173.854 227.198 171 225.37 171Z" fill="white" fill-opacity="0.5"/>
<path d="M273.37 167C271.543 167 271.543 169.854 273.37 169.854C275.198 169.854 275.198 167 273.37 167Z" fill="white" fill-opacity="0.5"/>
<path d="M346.37 76C344.543 76 344.543 78.8544 346.37 78.8544C348.198 78.8544 348.198 76 346.37 76Z" fill="white" fill-opacity="0.5"/>
<path d="M91.3704 27C89.5432 27 89.5432 29.8544 91.3704 29.8544C93.1977 29.8544 93.1977 27 91.3704 27Z" fill="white" fill-opacity="0.5"/>
<path d="M166.37 24C164.543 24 164.543 26.8544 166.37 26.8544C168.198 26.8544 168.198 24 166.37 24Z" fill="white" fill-opacity="0.5"/>
<path d="M131.37 76C129.543 76 129.543 78.8544 131.37 78.8544C133.198 78.8544 133.198 76 131.37 76Z" fill="white" fill-opacity="0.5"/>
<path d="M322.968 232L324.167 235.054L327.365 235.768L324.852 237.88L325.138 241.134L322.368 239.393L319.37 240.677L320.17 237.509L318 235.026L321.283 234.826L322.968 232Z" fill="white" fill-opacity="0.5"/>
<path d="M356.739 158L356.539 160.655L358.623 162.339L356.025 162.967L355.083 165.479L353.655 163.195L351 163.081L352.713 161.026L352.028 158.457L354.512 159.456L356.739 158Z" fill="white" fill-opacity="0.5"/>
<path d="M303.532 90.3302L297.907 89.3311L293.881 93.3844L293.111 87.7041L288 85.1351L293.139 82.6518L293.996 77L297.964 81.1389L303.617 80.197L300.905 85.2493L303.532 90.3302Z" fill="white" fill-opacity="0.5"/>
<path d="M45.5956 22.9776L47.1374 21.6361L46.9375 19.5809L48.6791 20.6656L50.5635 19.8092L50.0781 21.8073L51.4771 23.3487L49.4214 23.52L48.3936 25.2897L47.5942 23.4058L45.5956 22.9776Z" fill="url(#paint2_linear)"/>
<path d="M297.027 35.9904C244.374 15.0965 213.162 -31.2309 227.475 -67.2465C241.788 -103.262 296.275 -115.528 348.928 -94.604C401.58 -73.68 432.763 -27.3828 418.449 8.63291C404.136 44.6486 349.679 56.9144 297.027 35.9904ZM348.176 -92.71C297.057 -113.033 244.164 -101.098 230.272 -66.1342C216.379 -31.1707 246.66 13.8038 297.779 34.0964C348.898 54.3891 401.791 42.484 415.683 7.52058C429.575 -27.4429 399.295 -72.4174 348.176 -92.71Z" fill="#2D262D"/>
<path d="M306.348 12.5111C272.64 -0.867027 252.643 -30.5394 261.815 -53.5978C270.986 -76.6563 305.867 -84.5328 339.606 -71.1247C373.344 -57.7165 393.311 -28.0742 384.139 -4.98569C374.968 18.0427 340.057 25.9193 306.348 12.5111ZM338.854 -69.2307C306.679 -82.0075 273.362 -74.5218 264.611 -52.4855C255.861 -30.4793 274.925 -2.15975 307.13 10.6171C339.335 23.3939 372.623 15.9082 381.373 -6.12809C390.093 -28.1343 371.029 -56.4538 338.854 -69.2307Z" fill="#2D262D"/>
<path d="M312.663 -3.36314C291.735 -11.6606 279.346 -30.0893 285.029 -44.3994C290.712 -58.7094 312.363 -63.5797 333.291 -55.2822C354.22 -46.9848 366.609 -28.5561 360.926 -14.246C355.212 0.0640602 333.592 4.96436 312.663 -3.36314ZM332.54 -53.3582C313.144 -61.0544 293.088 -56.5449 287.825 -43.287C282.563 -30.0292 294.05 -12.9834 313.445 -5.25712C332.84 2.43905 352.897 -2.07043 358.159 -15.3283C363.391 -28.5861 351.905 -45.662 332.54 -53.3582Z" fill="#2D262D"/>
<path d="M300.695 26.7305C255.53 8.78275 228.768 -30.9608 241.036 -61.8657C253.305 -92.7706 300.064 -103.293 345.229 -85.345C390.394 -67.3973 417.156 -27.6538 404.888 3.25111C392.619 34.126 345.86 44.6782 300.695 26.7305ZM344.477 -83.4511C300.845 -100.798 255.68 -90.6061 243.803 -60.7534C231.925 -30.9006 257.785 7.49002 301.447 24.8365C345.108 42.1829 390.243 31.9915 402.121 2.13878C413.999 -27.7139 388.139 -66.1046 344.477 -83.4511Z" fill="#2D262D"/>
<rect x="30" y="110" width="260" height="80" rx="24" fill="#251925"/>
<path d="M274.786 160.881L302.045 134.631C315.029 122.197 338.575 114.706 342.528 118.877C346.2 122.693 338.134 146.265 325.229 158.709L297.97 184.958C300.892 188.283 299.338 194.714 294.34 199.534C290.071 203.631 284.637 205.255 281.193 203.643C281.637 203.291 282.002 202.931 282.446 202.58C285.71 199.493 287.446 195.664 287.577 192.454L281.026 185.64C281.026 185.64 280.662 186.001 268.106 190.582C273.168 178.271 273.533 177.911 273.533 177.911L266.982 171.097C263.76 171.044 259.937 172.694 256.673 175.78C256.309 176.141 255.935 176.581 255.57 176.942C254.127 173.386 255.88 168.027 260.149 163.929C265.068 159.1 271.597 157.766 274.786 160.881Z" fill="url(#paint3_linear)"/>
<path d="M304.421 142.639C305.187 136.049 311.154 131.33 317.75 132.101C324.345 132.871 329.07 138.838 328.304 145.429C327.538 152.02 321.57 156.738 314.975 155.968C308.38 155.198 303.655 149.23 304.421 142.639Z" fill="#272D34"/>
<path d="M306.411 142.872C307.05 137.38 312.022 133.448 317.518 134.09C323.014 134.732 326.952 139.705 326.314 145.197C325.675 150.689 320.702 154.621 315.206 153.979C309.711 153.337 305.773 148.364 306.411 142.872Z" fill="url(#paint4_linear)"/>
<path d="M291.002 162.291C291.365 159.172 294.189 156.938 297.311 157.303C300.433 157.668 302.669 160.492 302.307 163.612C301.944 166.731 299.119 168.965 295.998 168.6C292.876 168.236 290.639 165.411 291.002 162.291Z" fill="#1A1B1A"/>
<path d="M268.56 190.259C268.06 190.667 267.56 191.076 266.985 191.456C252.705 202.706 238.201 213.871 222.897 223.097C221.776 223.782 220.654 224.467 219.562 225.077C218.883 225.503 218.129 225.9 217.48 226.251C216.904 226.631 216.283 226.907 215.708 227.287C211.469 229.607 207.185 231.823 202.911 233.786C199.702 235.214 196.55 236.492 193.277 237.637C184.305 240.885 175.107 242.93 166.139 243.261C161.693 243.441 157.269 243.114 152.989 242.414C148.709 241.714 144.498 240.61 140.281 239.076C131.818 236.082 123.234 231.839 113.977 227.338C109.334 225.125 104.541 222.855 99.4095 220.797C98.138 220.308 96.7918 219.791 95.5204 219.303L93.5757 218.555L91.5277 217.854C88.7777 216.969 86.0565 216.01 83.2952 215.378C72.169 212.39 60.6752 210.806 49.0955 210.563C25.9361 210.076 2.65774 215.037 -18.8013 224.644C-29.5682 229.434 -39.8285 235.362 -49.3465 242.263C-58.8644 249.163 -67.7609 256.903 -75.9034 265.362C-83.195 272.946 -89.9283 281.088 -96 289.741L-39.0093 311.639C-37.0316 308.279 -34.9042 304.977 -32.7021 301.703C-27.8725 294.718 -22.4272 288.141 -16.4524 282.197C-10.4776 276.252 -3.94471 270.866 3.16371 266.216C17.277 256.961 33.7211 250.576 50.8452 248.229C59.3699 247.041 68.102 246.877 76.7884 247.726C78.9629 247.875 81.1259 248.277 83.3177 248.604L84.9285 248.879L86.5854 249.258C87.6899 249.511 88.8232 249.689 89.899 250.017C94.3919 251.056 98.9483 252.378 103.729 253.786C113.262 256.676 123.41 259.974 134.478 261.996C140.013 263.006 145.69 263.643 151.523 263.652C157.178 263.679 162.706 263.142 168.182 262.071C168.285 262.025 168.464 262.007 168.538 262.036C179.594 259.846 189.878 255.644 199.137 250.532C205.665 246.946 211.756 242.935 217.53 238.63C220.049 236.766 222.521 234.798 224.994 232.829C233 226.292 240.464 219.375 247.687 212.194C254.512 205.375 261.039 198.441 267.52 191.404C267.813 191.087 268.21 190.725 268.56 190.259Z" fill="url(#paint5_linear)" fill-opacity="0.5"/>
<path d="M97.074 153.075C97.074 152.237 96.7781 151.596 96.1862 151.152C95.5944 150.698 94.529 150.224 92.9902 149.731C91.4513 149.228 90.2331 148.735 89.3354 148.252C86.889 146.93 85.6658 145.149 85.6658 142.91C85.6658 141.746 85.9914 140.71 86.6424 139.803C87.3033 138.885 88.2454 138.17 89.4686 137.657C90.7016 137.144 92.0826 136.888 93.6116 136.888C95.1505 136.888 96.5216 137.169 97.7251 137.731C98.9285 138.284 99.8607 139.068 100.522 140.084C101.192 141.1 101.528 142.254 101.528 143.546H97.0888C97.0888 142.56 96.7781 141.795 96.1566 141.253C95.5352 140.7 94.6622 140.424 93.5376 140.424C92.4526 140.424 91.6091 140.656 91.0074 141.12C90.4057 141.573 90.1048 142.175 90.1048 142.925C90.1048 143.625 90.455 144.212 91.1554 144.686C91.8656 145.159 92.9063 145.603 94.2775 146.017C96.8028 146.777 98.6425 147.719 99.7966 148.843C100.951 149.968 101.528 151.369 101.528 153.046C101.528 154.91 100.822 156.375 99.4119 157.44C98.0013 158.496 96.1024 159.024 93.7152 159.024C92.058 159.024 90.5487 158.723 89.1874 158.121C87.8261 157.509 86.7855 156.676 86.0654 155.62C85.3551 154.565 85 153.342 85 151.951H89.4538C89.4538 154.328 90.8742 155.517 93.7152 155.517C94.7707 155.517 95.5944 155.305 96.1862 154.88C96.7781 154.446 97.074 153.845 97.074 153.075Z" fill="white"/>
<path d="M115.112 142.718L115.245 144.508C116.38 143.117 117.914 142.422 119.847 142.422C121.909 142.422 123.324 143.236 124.094 144.863C125.218 143.236 126.821 142.422 128.903 142.422C130.639 142.422 131.931 142.93 132.779 143.946C133.628 144.952 134.052 146.471 134.052 148.503V158.728H129.761V148.518C129.761 147.61 129.583 146.949 129.228 146.535C128.873 146.111 128.247 145.899 127.349 145.899C126.067 145.899 125.179 146.511 124.686 147.734L124.7 158.728H120.424V148.533C120.424 147.605 120.242 146.935 119.877 146.52C119.512 146.106 118.89 145.899 118.012 145.899C116.799 145.899 115.921 146.402 115.379 147.408V158.728H111.102V142.718H115.112Z" fill="white"/>
<path d="M151.157 150.871C151.157 153.337 150.595 155.314 149.471 156.804C148.356 158.284 146.847 159.024 144.943 159.024C143.325 159.024 142.018 158.461 141.022 157.337V164.883H136.745V142.718H140.711L140.859 144.286C141.895 143.043 143.246 142.422 144.913 142.422C146.886 142.422 148.42 143.152 149.515 144.612C150.61 146.072 151.157 148.084 151.157 150.649V150.871ZM146.881 150.56C146.881 149.07 146.615 147.921 146.082 147.112C145.559 146.303 144.795 145.899 143.789 145.899C142.447 145.899 141.525 146.412 141.022 147.438V153.993C141.544 155.048 142.477 155.576 143.818 155.576C145.86 155.576 146.881 153.904 146.881 150.56Z" fill="white"/>
<path d="M157.728 158.728H153.437V136H157.728V158.728Z" fill="white"/>
<path d="M168.027 159.024C165.679 159.024 163.765 158.303 162.286 156.863C160.816 155.423 160.081 153.504 160.081 151.107V150.693C160.081 149.085 160.392 147.65 161.013 146.387C161.635 145.115 162.512 144.138 163.647 143.457C164.791 142.767 166.093 142.422 167.553 142.422C169.743 142.422 171.464 143.112 172.717 144.493C173.98 145.874 174.611 147.832 174.611 150.367V152.113H164.416C164.554 153.159 164.969 153.998 165.659 154.629C166.36 155.26 167.242 155.576 168.308 155.576C169.955 155.576 171.242 154.979 172.17 153.786L174.271 156.138C173.63 157.046 172.762 157.756 171.667 158.269C170.572 158.772 169.358 159.024 168.027 159.024ZM167.538 145.884C166.69 145.884 166 146.17 165.467 146.742C164.944 147.314 164.609 148.133 164.461 149.199H170.409V148.858C170.389 147.911 170.133 147.181 169.639 146.668C169.146 146.146 168.446 145.884 167.538 145.884Z" fill="white"/>
<path d="M108.174 158.728H103.883V142.718H108.174V158.728ZM103.631 138.575C103.631 137.933 103.843 137.406 104.267 136.991C104.701 136.577 105.288 136.37 106.028 136.37C106.758 136.37 107.34 136.577 107.774 136.991C108.208 137.406 108.425 137.933 108.425 138.575C108.425 139.226 108.203 139.758 107.759 140.173C107.325 140.587 106.748 140.794 106.028 140.794C105.308 140.794 104.726 140.587 104.282 140.173C103.848 139.758 103.631 139.226 103.631 138.575Z" fill="#3FBB7D"/>
<path d="M194.263 158.728H189.824V149.494H181.168V158.728H176.729V137.184H181.168V145.914H189.824V137.184H194.263V158.728Z" fill="#3FBB7D"/>
<path d="M196.602 150.575C196.602 148.986 196.907 147.571 197.519 146.328C198.131 145.085 199.008 144.123 200.153 143.443C201.307 142.762 202.643 142.422 204.163 142.422C206.323 142.422 208.084 143.083 209.445 144.404C210.816 145.726 211.581 147.522 211.738 149.79L211.768 150.885C211.768 153.342 211.082 155.314 209.711 156.804C208.34 158.284 206.5 159.024 204.192 159.024C201.884 159.024 200.039 158.284 198.658 156.804C197.287 155.324 196.602 153.312 196.602 150.767V150.575ZM200.878 150.885C200.878 152.404 201.164 153.568 201.736 154.377C202.308 155.176 203.127 155.576 204.192 155.576C205.228 155.576 206.037 155.181 206.619 154.392C207.201 153.593 207.492 152.321 207.492 150.575C207.492 149.085 207.201 147.931 206.619 147.112C206.037 146.293 205.218 145.884 204.163 145.884C203.117 145.884 202.308 146.293 201.736 147.112C201.164 147.921 200.878 149.179 200.878 150.885Z" fill="#3FBB7D"/>
<path d="M218.309 158.728H214.018V136H218.309V158.728Z" fill="#3FBB7D"/>
<path d="M220.573 150.604C220.573 148.109 221.131 146.121 222.245 144.641C223.37 143.162 224.904 142.422 226.847 142.422C228.406 142.422 229.693 143.004 230.709 144.168V136H235V158.728H231.138L230.931 157.026C229.865 158.358 228.494 159.024 226.817 159.024C224.933 159.024 223.419 158.284 222.275 156.804C221.14 155.314 220.573 153.248 220.573 150.604ZM224.849 150.915C224.849 152.414 225.111 153.564 225.634 154.363C226.156 155.162 226.916 155.561 227.912 155.561C229.234 155.561 230.166 155.004 230.709 153.889V147.571C230.176 146.456 229.254 145.899 227.942 145.899C225.88 145.899 224.849 147.571 224.849 150.915Z" fill="#3FBB7D"/>
<rect x="85" y="208" width="260" height="80" rx="24" fill="#251925"/>
<g clip-path="url(#clip1)">
<path d="M166.652 252.276C166.652 251.58 166.406 251.048 165.913 250.679C165.421 250.303 164.535 249.91 163.255 249.501C161.975 249.083 160.961 248.674 160.215 248.273C158.18 247.176 157.162 245.698 157.162 243.84C157.162 242.874 157.433 242.015 157.975 241.262C158.524 240.5 159.308 239.907 160.325 239.481C161.351 239.055 162.5 238.843 163.772 238.843C165.052 238.843 166.192 239.076 167.193 239.543C168.195 240.001 168.97 240.652 169.519 241.495C170.078 242.338 170.356 243.296 170.356 244.368H166.664C166.664 243.55 166.406 242.915 165.889 242.465C165.372 242.007 164.646 241.777 163.71 241.777C162.808 241.777 162.106 241.97 161.606 242.354C161.105 242.731 160.855 243.23 160.855 243.852C160.855 244.434 161.146 244.921 161.729 245.314C162.319 245.707 163.185 246.075 164.326 246.419C166.426 247.049 167.956 247.831 168.917 248.764C169.877 249.697 170.356 250.86 170.356 252.251C170.356 253.798 169.77 255.014 168.596 255.898C167.423 256.774 165.844 257.212 163.858 257.212C162.479 257.212 161.224 256.962 160.092 256.463C158.959 255.955 158.094 255.264 157.495 254.388C156.904 253.512 156.608 252.497 156.608 251.343H160.313C160.313 253.315 161.495 254.302 163.858 254.302C164.736 254.302 165.421 254.126 165.913 253.774C166.406 253.414 166.652 252.914 166.652 252.276Z" fill="#F2F4F8"/>
<path d="M186.825 251.809L189.237 239.088H192.917L188.941 256.966H185.225L182.307 245.007L179.391 256.966H175.673L171.698 239.088H175.378L177.803 251.785L180.757 239.088H183.883L186.825 251.809Z" fill="#F2F4F8"/>
<path d="M204.499 253.283H198.025L196.794 256.966H192.868L199.539 239.088H202.96L209.668 256.966H205.742L204.499 253.283ZM199.022 250.299H203.502L201.25 243.607L199.022 250.299Z" fill="#F2F4F8"/>
<path d="M215.035 250.667V256.966H211.342V239.088H218.333C219.679 239.088 220.861 239.334 221.878 239.825C222.904 240.316 223.691 241.016 224.241 241.925C224.791 242.825 225.066 243.852 225.066 245.007C225.066 246.758 224.462 248.142 223.257 249.157C222.058 250.164 220.397 250.667 218.272 250.667H215.035ZM215.035 247.683H218.333C219.31 247.683 220.052 247.454 220.561 246.996C221.078 246.537 221.336 245.882 221.336 245.031C221.336 244.155 221.078 243.447 220.561 242.907C220.044 242.367 219.33 242.088 218.42 242.072H215.035V247.683Z" fill="#F2F4F8"/>
<path d="M239.207 252.681C239.207 251.92 239.027 251.277 238.666 250.753C238.313 250.221 237.751 249.754 236.98 249.353C236.217 248.944 235.06 248.527 233.509 248.101C231.958 247.675 230.793 247.245 230.013 246.812C229.242 246.378 228.676 245.874 228.315 245.301C227.954 244.728 227.773 244.033 227.773 243.214C227.773 241.912 228.323 240.86 229.423 240.058C230.522 239.248 231.954 238.843 233.718 238.843C234.867 238.843 235.897 239.068 236.807 239.518C237.726 239.96 238.436 240.586 238.937 241.397C239.437 242.199 239.688 243.108 239.688 244.123H239.023C239.023 242.788 238.531 241.687 237.546 240.82C236.561 239.944 235.285 239.506 233.718 239.506C232.143 239.506 230.867 239.858 229.89 240.562C228.922 241.257 228.438 242.133 228.438 243.189C228.438 244.262 228.861 245.125 229.706 245.78C230.551 246.435 231.946 247.016 233.891 247.524C235.835 248.023 237.259 248.604 238.161 249.267C239.31 250.111 239.884 251.24 239.884 252.656C239.884 253.557 239.63 254.355 239.121 255.051C238.613 255.738 237.891 256.27 236.955 256.647C236.02 257.024 234.969 257.212 233.804 257.212C232.508 257.212 231.343 256.999 230.309 256.573C229.275 256.139 228.495 255.526 227.97 254.731C227.453 253.937 227.195 253 227.195 251.92H227.86C227.86 253.385 228.409 254.523 229.509 255.333C230.608 256.144 232.04 256.549 233.804 256.549C235.372 256.549 236.664 256.193 237.681 255.48C238.699 254.76 239.207 253.827 239.207 252.681Z" fill="#FBFF5C"/>
<path d="M244.057 249.415V256.966H243.392V239.088H248.992C250.822 239.088 252.242 239.551 253.251 240.476C254.269 241.393 254.777 242.67 254.777 244.307C254.777 245.928 254.281 247.18 253.288 248.064C252.303 248.948 250.9 249.398 249.079 249.415H244.057ZM244.057 248.752H248.992C250.609 248.752 251.864 248.363 252.759 247.585C253.661 246.807 254.113 245.723 254.113 244.331C254.113 242.891 253.661 241.769 252.759 240.967C251.864 240.156 250.609 239.751 248.992 239.751H244.057V248.752Z" fill="#FBFF5C"/>
<path d="M266.273 251.625H257.497L255.503 256.966H254.777L261.485 239.088H262.297L269.005 256.966H268.279L266.273 251.625ZM257.744 250.962H266.027L261.891 239.886L257.744 250.962Z" fill="#FBFF5C"/>
<path d="M283.935 251.49C283.763 253.332 283.127 254.748 282.027 255.738C280.928 256.721 279.434 257.212 277.547 257.212C276.275 257.212 275.147 256.893 274.163 256.254C273.186 255.607 272.427 254.695 271.885 253.516C271.344 252.329 271.069 250.974 271.061 249.452V246.689C271.061 245.166 271.327 243.807 271.861 242.612C272.394 241.409 273.153 240.48 274.138 239.825C275.131 239.17 276.267 238.843 277.547 238.843C279.418 238.843 280.907 239.334 282.015 240.316C283.123 241.298 283.763 242.706 283.935 244.54H283.27C283.082 242.895 282.507 241.646 281.547 240.795C280.587 239.935 279.254 239.506 277.547 239.506C275.808 239.506 274.4 240.161 273.326 241.47C272.259 242.78 271.726 244.536 271.726 246.738V249.366C271.726 250.774 271.963 252.022 272.439 253.111C272.915 254.191 273.596 255.034 274.482 255.64C275.377 256.246 276.398 256.549 277.547 256.549C279.262 256.549 280.6 256.127 281.56 255.284C282.528 254.441 283.098 253.176 283.27 251.49H283.935Z" fill="#FBFF5C"/>
<path d="M297.745 248.101H288.76V256.303H299V256.966H288.095V239.088H299V239.751H288.76V247.438H297.745V248.101Z" fill="#FBFF5C"/>
<path fill-rule="evenodd" clip-rule="evenodd" d="M149.895 247.871C149.895 253.102 145.665 257.342 140.447 257.342C135.23 257.342 131 253.102 131 247.871C131 242.64 135.23 238.4 140.447 238.4C145.665 238.4 149.895 242.64 149.895 247.871ZM146.116 244.022C146.116 244.696 145.57 245.244 144.897 245.244C144.224 245.244 143.678 244.696 143.678 244.022C143.678 243.347 144.224 242.799 144.897 242.799C145.57 242.799 146.116 243.347 146.116 244.022ZM140.386 244.021C141.598 244.021 142.581 243.365 142.581 242.555C142.581 241.745 141.598 241.088 140.386 241.088C139.175 241.088 138.192 241.745 138.192 242.555C138.192 243.365 139.175 244.021 140.386 244.021Z" fill="#FBFF5C"/>
</g>
<path d="M67.6942 312.628C88.5081 312.628 105.381 295.755 105.381 274.941C105.381 254.127 88.5081 237.254 67.6942 237.254C46.8803 237.254 30.0073 254.127 30.0073 274.941C30.0073 295.755 46.8803 312.628 67.6942 312.628Z" fill="url(#paint6_linear)"/>
<path opacity="0.5" d="M40.98 286C33.5805 268.148 40.9378 247.862 57.425 238.69C56.0323 239.084 54.6396 239.563 53.2751 240.125C34.0448 248.087 24.9149 270.131 32.8771 289.362C40.8394 308.592 62.8832 317.722 82.1135 309.76C83.4922 309.197 84.8004 308.55 86.0665 307.832C67.9194 312.995 48.3795 303.851 40.98 286Z" fill="#7B5D7B"/>
<path opacity="0.2" d="M61.2093 304.755C64.4308 303.32 65.8376 299.227 69.059 297.806C70.4095 297.215 71.9288 297.159 73.3637 296.863C85.5462 294.472 91.0184 276.93 103.426 276.381C104.045 276.353 104.692 276.367 105.353 276.381C105.438 274.229 105.339 272.048 105.03 269.882C104.467 270.388 103.918 270.937 103.328 271.401C99.5434 274.398 93.9163 273.877 89.9493 276.606C87.3327 278.407 85.7994 281.347 83.8018 283.823C78.6531 290.153 70.7049 292.953 62.9959 294.697C58.7757 295.654 45.6647 296.16 39.2217 299.705C41.6695 302.533 44.5112 304.952 47.606 306.908C48.7033 305.796 49.8146 305.065 52.3186 304.896C55.315 304.713 58.2833 306.049 61.2093 304.755Z" fill="white"/>
<path opacity="0.2" d="M105.015 280.207C100.317 281.641 95.126 284.371 93.874 285.707C92.8189 286.818 91.9467 288.07 90.8495 289.14C89.2598 290.673 87.2201 291.798 86.1228 293.711C85.6164 294.584 85.349 295.582 84.7301 296.37C82.212 299.592 76.3036 297.299 73.4057 300.183C73.054 300.534 72.7445 300.984 72.7445 301.491C72.7164 302.799 74.4327 303.306 75.7409 303.249C78.47 303.123 81.1288 302.293 83.7313 301.463C86.1509 300.689 88.5705 299.929 91.0042 299.156C94.0006 298.199 97.222 297.088 98.9664 294.471C100.556 292.066 101.344 290.518 102.638 289.224C103.778 286.326 104.579 283.301 105.015 280.207Z" fill="white"/>
<path opacity="0.2" d="M92.5376 256.912C91.9327 258.643 91.6513 260.753 90.0476 261.667C87.9234 262.891 85.3491 260.992 82.9013 260.978C77.3306 260.936 76.1067 269.489 71.1127 271.965C67.0894 273.962 61.167 271.683 58.4238 275.228C57.4672 276.466 57.1437 278.211 55.8354 279.083C54.1895 280.194 52.009 279.28 50.1521 278.548C43.7936 276.03 36.5347 276.199 30.1621 278.633C30.5138 282.276 31.4001 285.92 32.8631 289.479C33.3133 290.576 33.8197 291.645 34.3683 292.672C35.6203 291.842 36.7035 290.801 37.3928 289.479C38.0118 288.283 38.2932 286.89 39.1935 285.877C41.585 283.134 46.0725 284.991 49.0126 287.129C51.9668 289.268 56.0183 291.575 58.9021 289.352C61.3217 287.481 61.0826 283.5 63.3615 281.446C67.3426 277.845 74.6718 283.176 78.7796 279.73C81.776 277.212 80.6927 271.754 83.8016 269.376C86.1931 267.533 89.8366 268.532 92.4251 266.999C96.2092 264.762 96.0686 258.291 100.162 256.673C100.275 256.631 100.401 256.603 100.514 256.561C99.501 254.746 98.3475 253.058 97.0814 251.468C94.9994 252.692 93.3395 254.619 92.5376 256.912Z" fill="white"/>
<path opacity="0.2" d="M30.1481 271.879C32.8772 269.459 35.4657 266.899 37.7868 265.9C40.6144 264.69 44.3845 264.958 46.1429 267.476C46.8182 268.432 47.1417 269.628 47.9436 270.5C49.5473 272.231 52.5155 271.935 54.4006 270.514C56.2856 269.094 57.3829 266.885 58.4661 264.803C58.9303 263.917 59.4508 263.002 60.323 262.538C61.9126 261.722 63.9102 262.763 65.5983 262.172C67.2723 261.596 68.032 259.612 68.1305 257.84C68.2149 256.067 67.8632 254.252 68.2571 252.522C68.9745 249.329 72.1116 247.162 75.3049 246.487C78.5123 245.812 81.8182 246.318 85.0678 246.656C87.7125 246.937 90.3713 247.092 93.03 247.134C88.1345 242.689 82.1558 239.622 75.7551 238.215C74.6297 240.776 73.5043 243.223 70.958 243.997C69.1996 244.532 67.0895 244.053 65.6546 245.193C64.065 246.431 64.1212 248.949 62.7145 250.384C59.5212 253.633 53.7534 248.189 49.6457 250.173C47.9436 251.003 47.0011 252.93 45.327 253.802C42.9215 255.04 39.7281 253.915 36.9146 253.268C33.0742 258.754 30.7108 265.183 30.1481 271.879Z" fill="white"/>
<path d="M266.8 105.435C269.39 94.3585 262.511 83.2799 251.435 80.6897C240.359 78.0996 229.28 84.9788 226.69 96.0549C224.1 107.131 230.979 118.21 242.055 120.8C253.131 123.39 264.21 116.511 266.8 105.435Z" fill="url(#paint7_linear)"/>
</g>
<defs>
<linearGradient id="paint0_linear" x1="0" y1="136.547" x2="1143" y2="136.547" gradientUnits="userSpaceOnUse">
<stop stop-color="#2D262D"/>
<stop offset="1" stop-color="#8F6B8F"/>
<stop offset="1" stop-color="#8F6B8F"/>
</linearGradient>
<linearGradient id="paint1_linear" x1="186.265" y1="71.1976" x2="792.768" y2="71.1976" gradientUnits="userSpaceOnUse">
<stop stop-color="#2D262D"/>
<stop offset="1" stop-color="#8F6B8F"/>
<stop offset="1" stop-color="#8F6B8F"/>
</linearGradient>
<linearGradient id="paint2_linear" x1="45.5956" y1="22.4354" x2="51.4771" y2="22.4354" gradientUnits="userSpaceOnUse">
<stop stop-color="#2D262D"/>
<stop offset="1" stop-color="#8F6B8F"/>
<stop offset="1" stop-color="#8F6B8F"/>
</linearGradient>
<linearGradient id="paint3_linear" x1="322.44" y1="172.464" x2="288.185" y2="136.853" gradientUnits="userSpaceOnUse">
<stop offset="0.1528" stop-color="white"/>
<stop offset="0.2771" stop-color="#FCFCFC"/>
<stop offset="0.374" stop-color="#F2F2F2"/>
<stop offset="0.4618" stop-color="#E2E2E1"/>
<stop offset="0.544" stop-color="#CBCBCA"/>
<stop offset="0.6218" stop-color="#AEADAC"/>
<stop offset="0.6925" stop-color="#8C8B8A"/>
<stop offset="1" stop-color="white"/>
</linearGradient>
<linearGradient id="paint4_linear" x1="323.301" y1="151.218" x2="309.438" y2="136.806" gradientUnits="userSpaceOnUse">
<stop stop-color="#69BFF2"/>
<stop offset="0.7004" stop-color="#BDE0F9"/>
<stop offset="0.8651" stop-color="#69BFF2"/>
</linearGradient>
<linearGradient id="paint5_linear" x1="40.4538" y1="347.873" x2="136.135" y2="122.702" gradientUnits="userSpaceOnUse">
<stop offset="0.0297619" stop-color="white" stop-opacity="0"/>
<stop offset="0.9065" stop-color="#A1D3E6" stop-opacity="0.9036"/>
<stop offset="1" stop-color="#97CEE3"/>
</linearGradient>
<linearGradient id="paint6_linear" x1="95.746" y1="245.5" x2="42.246" y2="306" gradientUnits="userSpaceOnUse">
<stop stop-color="#856485"/>
<stop offset="1" stop-color="#3E304D"/>
</linearGradient>
<linearGradient id="paint7_linear" x1="259.452" y1="118.133" x2="231.363" y2="84.0251" gradientUnits="userSpaceOnUse">
<stop stop-color="#E8B467"/>
<stop offset="1" stop-color="#F1D185"/>
</linearGradient>
<clipPath id="clip0">
<rect width="375" height="315" fill="white"/>
</clipPath>
<clipPath id="clip1">
<rect width="168" height="64" fill="white" transform="translate(131 216)"/>
</clipPath>
</defs>
</svg>
