<svg width="375" height="314" viewBox="0 0 375 314" fill="none" xmlns="http://www.w3.org/2000/svg">
<g clip-path="url(#clip0)">
<path d="M768 269.258V271.427C754.552 270.086 741.333 266.889 729.257 262.35C702.676 252.388 678.379 236.746 654.882 221.646C640.464 212.341 625.532 202.75 610.229 194.558C586.103 181.627 540.394 163.302 505.647 185.995C491.572 195.186 481.636 209.943 472.043 224.215C460.223 241.799 448.003 259.981 428.046 267.289C411.002 273.568 392.643 270.172 374.885 266.86C366.006 265.205 356.812 263.492 347.847 263.035C345.392 262.893 342.937 262.864 340.453 262.921C332.573 263.035 324.636 263.949 316.784 265.205C310.903 266.175 305.05 267.317 299.283 268.43C280.411 272.113 260.853 275.909 241.582 272.912C222.51 269.972 205.179 260.638 188.392 251.589C172.946 243.254 156.929 234.634 139.684 231.123C95.3162 222.074 53.7463 247.108 13.5183 271.285C-21.4849 292.379 -57.5444 314.073 -96.0308 314.073C-101.17 314.073 -106.309 313.702 -111.505 312.874C-146.823 307.336 -178.571 283.045 -211.404 236.461C-216.087 229.839 -220.712 222.959 -225.223 216.337C-244.495 187.764 -264.452 158.25 -292.945 138.725C-316.3 122.74 -348.562 116.061 -375 123.511V121.313C-348.048 113.949 -315.386 120.742 -291.718 136.955C-262.91 156.708 -242.839 186.394 -223.424 215.138C-218.942 221.76 -214.316 228.611 -209.663 235.233C-177.172 281.304 -145.88 305.31 -111.191 310.761C-67.5657 317.612 -26.9095 293.15 12.4334 269.458C38.4431 253.787 65.0524 237.774 92.6895 230.752C108.135 226.841 123.924 225.7 140.112 229.011C157.671 232.607 173.802 241.285 189.419 249.705C206.036 258.668 223.195 267.917 241.896 270.8C260.825 273.74 280.182 269.972 298.883 266.347C301.681 265.804 304.507 265.262 307.362 264.72C320.724 262.236 334.371 260.153 347.962 260.895C348.076 260.895 348.161 260.895 348.276 260.923C357.241 261.408 366.434 263.121 375.285 264.748C393.557 268.145 410.802 271.37 427.333 265.29C446.604 258.212 458.082 241.114 470.244 223.045C479.98 208.573 490.03 193.616 504.477 184.196C532.142 166.156 566.289 173.235 591.699 183.483C599.065 186.451 605.689 189.677 611.228 192.645C626.617 200.895 641.577 210.514 656.052 219.848C679.436 234.891 703.647 250.447 729.999 260.352C741.847 264.805 754.838 267.945 768 269.258Z" fill="white" fill-opacity="0.2"/>
<path d="M768 0.000427246V218.478C727.886 221.19 687.144 215.11 649.629 200.638C631.185 193.531 612.941 184.368 594.526 176.632C570.229 166.471 545.59 158.792 519.751 161.704C453.371 169.182 411.316 242.455 348.276 260.924C345.706 261.694 343.108 262.351 340.453 262.922C339.054 263.207 337.655 263.492 336.256 263.721C329.718 264.834 323.237 265.291 316.784 265.205C313.644 265.177 310.503 265.005 307.362 264.72C252.888 259.782 201.382 219.706 144.937 215.995C126.408 214.767 108.307 217.479 90.4626 222.332C64.1673 229.411 38.5002 241.085 13.1186 251.39C-29.4505 268.659 -77.9011 282.417 -120.442 265.091C-152.932 251.846 -175.802 222.845 -198.671 196.214C-228.735 161.161 -262.967 127.222 -306.535 112.037C-328.177 104.472 -352.616 102.817 -375 107.698V0.000427246H768Z" fill="url(#paint0_linear)"/>
<path d="M768 0.000427246V82.579C750.527 91.7131 730.998 96.7655 711.241 96.4515C674.582 95.8806 640.521 79.0109 606.231 66.0518C571.942 53.0928 532.942 43.9871 499.309 58.5733C452.172 79.0395 434.499 136.471 396.84 171.437C371.83 194.672 337.341 207.432 303.223 206.061C246.064 203.778 193.331 164.216 136.486 170.724C82.6682 176.918 41.184 222.76 -11.4636 235.576C-74.1324 250.847 -138.629 216.166 -185.994 172.379C-226.451 135.043 -264.223 87.9168 -318.384 78.0119C-337.284 74.558 -356.328 76.128 -375 80.6951V0.000427246H-188.735C-181.911 27.5171 -170.148 53.892 -152.361 75.8711C-130.12 103.331 -97.8866 123.511 -62.7692 127.308C-4.98254 133.559 48.4644 96.7369 106.023 88.6304C135.516 84.4914 166.065 88.1166 193.759 99.049C218.027 108.611 239.869 123.54 264.051 133.302C288.233 143.036 316.813 147.06 339.71 134.587C361.181 122.883 373.2 99.2774 381.366 76.2421C389.56 53.1784 395.499 28.716 410.031 9.04896C412.401 5.852 414.97 2.82631 417.768 0.000427246H768V0.000427246Z" fill="#3E304D"/>
<path d="M417.768 0C414.97 2.82588 412.401 5.85157 410.031 9.04853C395.499 28.7155 389.56 53.178 381.366 76.2417C373.201 99.2769 361.181 122.883 339.71 134.586C316.813 147.06 288.233 143.035 264.051 133.302C239.869 123.54 218.027 108.611 193.759 99.0486C166.065 88.1161 135.516 84.491 106.023 88.6299C48.4645 96.7365 -4.98248 133.559 -62.7692 127.307C-97.8866 123.511 -130.12 103.33 -152.361 75.8707C-170.148 53.8916 -181.911 27.5167 -188.735 0H417.768Z" fill="url(#paint1_linear)"/>
<path d="M768 39.3911V41.6461C741.591 49.7812 713.954 47.6404 696.652 44.7859C676.552 41.4748 656.738 35.5947 637.58 29.9144C621.535 25.176 604.947 20.2379 588.33 16.8697C557.724 10.6756 514.355 8.13512 481.322 31.1989C462.821 44.1294 450.002 63.511 437.583 82.2646C429.931 93.7964 422.022 105.757 412.8 116.232C378.168 155.566 322.552 174.577 271.103 164.643C250.661 160.704 230.904 152.483 211.775 144.548C184.937 133.359 157.157 121.798 128.007 122.598C92.604 123.568 59.9991 142.407 28.4791 160.619C-3.21216 178.944 -35.8171 197.783 -70.906 197.783C-75.9309 197.783 -81.0129 197.384 -86.1521 196.556C-121.669 190.818 -149.192 164.358 -166.037 143.207C-176.972 129.448 -186.594 114.377 -195.901 99.8478C-203.838 87.4311 -212.061 74.6147 -221.026 62.6547C-238.984 38.7346 -260.94 17.5547 -285.493 0H-281.839C-258.056 17.3264 -236.814 38.078 -219.313 61.3702C-210.291 73.3873 -202.068 86.2322 -194.102 98.6775C-184.823 113.178 -175.23 128.192 -164.353 141.865C-147.736 162.731 -120.641 188.82 -85.8095 194.444C-45.5815 200.952 -10.15 180.485 27.3942 158.792C59.1712 140.409 92.0045 121.427 127.95 120.457C157.586 119.686 185.565 131.304 212.603 142.55C231.618 150.485 251.289 158.649 271.503 162.56C322.238 172.35 377.055 153.597 411.202 114.834C420.309 104.443 428.189 92.569 435.784 81.0657C448.318 62.1694 461.251 42.6166 480.095 29.4291C500.623 15.0999 525.033 10.4472 547.988 10.4472C562.635 10.4472 576.682 12.3311 588.759 14.7859C605.461 18.1827 622.106 23.0923 638.209 27.8592C657.309 33.5395 677.038 39.3911 696.995 42.6737C714.239 45.4996 741.791 47.6404 768 39.3911Z" fill="white" fill-opacity="0.2"/>
<path d="M109.37 39C107.543 39 107.543 41.8544 109.37 41.8544C111.226 41.8544 111.226 39 109.37 39Z" fill="white" fill-opacity="0.5"/>
<path d="M131.37 19C129.543 19 129.543 21.8544 131.37 21.8544C133.198 21.8544 133.198 19 131.37 19Z" fill="white" fill-opacity="0.5"/>
<path d="M78.3704 113C76.5432 113 76.5432 115.854 78.3704 115.854C80.2262 115.854 80.2262 113 78.3704 113Z" fill="white" fill-opacity="0.5"/>
<path d="M224.384 216.89C222.557 216.89 222.557 219.745 224.384 219.745C226.212 219.745 226.212 216.89 224.384 216.89Z" fill="white" fill-opacity="0.5"/>
<path d="M45.6503 89.6445L41.2448 87.4607L37.0023 90L37.6387 84.9722L34 81.5695L38.8135 80.6384L40.8042 76L43.1375 80.4522L48 80.994L44.6387 84.6675L45.6503 89.6445Z" fill="white" fill-opacity="0.5"/>
<path d="M335.365 111.419L332.111 109.506L328.713 111.076L329.541 107.394L327 104.625L330.74 104.283L332.567 101L334.052 104.482L337.764 105.225L334.909 107.679L335.365 111.419Z" fill="white" fill-opacity="0.5"/>
<path d="M227.027 83.8053C174.374 62.9114 143.162 16.5841 157.475 -19.4316C171.788 -55.4473 226.275 -67.713 278.928 -46.7891C331.58 -25.8651 362.763 20.4322 348.449 56.4479C334.136 92.4635 279.679 104.729 227.027 83.8053ZM278.176 -44.8951C227.057 -65.2178 174.164 -53.2827 160.272 -18.3192C146.379 16.6442 176.66 61.6187 227.779 81.9114C278.898 102.204 331.791 90.299 345.683 55.3355C359.575 20.3721 329.295 -24.6025 278.176 -44.8951Z" fill="#8B688B"/>
<path d="M236.348 60.326C202.64 46.9479 182.643 17.2756 191.815 -5.78289C200.986 -28.8413 235.867 -36.7179 269.606 -23.3097C303.344 -9.90154 323.311 19.7407 314.139 42.8293C304.968 65.8576 270.057 73.7342 236.348 60.326ZM268.854 -21.4157C236.679 -34.1926 203.362 -26.7069 194.611 -4.67055C185.861 17.3357 204.925 45.6552 237.13 58.432C269.335 71.2089 302.623 63.7232 311.373 41.6869C320.093 19.6806 301.029 -8.63889 268.854 -21.4157Z" fill="#8B688B"/>
<path d="M242.663 44.4518C221.735 36.1544 209.346 17.7256 215.029 3.41558C220.712 -10.8945 242.363 -15.7647 263.291 -7.46729C284.22 0.83014 296.609 19.2589 290.926 33.5689C285.212 47.879 263.592 52.7793 242.663 44.4518ZM262.54 -5.54325C243.144 -13.2394 223.088 -8.72994 217.825 4.52791C212.563 17.7858 224.05 34.8316 243.445 42.5578C262.84 50.254 282.897 45.7445 288.159 32.4867C293.391 19.2288 281.905 2.15292 262.54 -5.54325Z" fill="#8B688B"/>
<path d="M230.695 74.5454C185.53 56.5977 158.768 16.8542 171.036 -14.0508C183.305 -44.9557 230.064 -55.4778 275.229 -37.5301C320.394 -19.5824 347.156 20.1611 334.888 51.0661C322.619 81.9409 275.86 92.4931 230.695 74.5454ZM274.477 -35.6361C230.845 -52.9826 185.68 -42.7912 173.803 -12.9384C161.925 16.9143 187.785 55.305 231.447 72.6514C275.108 89.9979 320.243 79.8064 332.121 49.9537C343.999 20.101 318.139 -18.2897 274.477 -35.6361Z" fill="#8B688B"/>
<rect x="30" y="192" width="315" height="96" rx="24" fill="#251925"/>
<rect x="263" y="206" width="67" height="67" rx="16" fill="#44BD80"/>
<path d="M282.085 253.294C280.251 253.294 278.765 251.824 278.765 250.01V228.99C278.765 227.176 280.251 225.706 282.085 225.706H309.648C311.482 225.706 312.969 227.176 312.969 228.99V232.288C312.969 232.465 312.816 232.603 312.637 232.603L303.006 232.603C300.806 232.603 299.021 234.368 299.021 236.544V242.456C299.021 244.633 300.806 246.397 303.006 246.397H312.637C312.816 246.397 312.969 246.535 312.969 246.712V250.01C312.969 251.824 311.482 253.294 309.648 253.294L282.085 253.294Z" fill="white"/>
<path fill-rule="evenodd" clip-rule="evenodd" d="M312.637 234.574C313.737 234.574 314.629 235.456 314.629 236.544V242.456C314.629 243.544 313.737 244.427 312.637 244.427H303.007C301.906 244.427 301.014 243.544 301.014 242.456V236.544C301.014 235.456 301.906 234.574 303.007 234.574H312.637ZM305.995 241.471C304.895 241.471 304.003 240.588 304.003 239.5C304.003 238.412 304.895 237.53 305.995 237.53C307.096 237.53 307.988 238.412 307.988 239.5C307.988 240.588 307.096 241.471 305.995 241.471Z" fill="white"/>
<path d="M240 232.361C240 228.295 236.836 225 232.934 225L67.0661 225C63.1636 225 60 228.295 60 232.361L60 247.639C60 251.705 63.1636 255 67.0661 255L232.934 255C236.836 255 240 251.705 240 247.639L240 232.361Z" fill="url(#paint2_linear)"/>
<rect x="213" y="83" width="40" height="40" rx="20" fill="url(#paint3_linear)"/>
<path fill-rule="evenodd" clip-rule="evenodd" d="M233 93C238.522 93 243 97.478 243 103C243 108.522 238.522 113 233 113C227.478 113 223 108.522 223 103C223 97.478 227.478 93 233 93ZM235.72 102.4L235.724 102.399C236.07 102.283 236.626 102.096 236.66 100.92C236.753 101.062 236.884 101.214 237.033 101.387L237.034 101.387L237.034 101.387C237.743 102.208 238.856 103.497 238.14 106.4C237.788 107.77 236.476 108.436 235.24 108.94C234.468 109.268 233.68 109.816 233.36 110.64C233.36 110.64 227.518 109.902 227.7 104.1C227.792 102.207 228.941 101.05 230.078 99.9046L230.078 99.9046C230.75 99.2285 231.417 98.5566 231.86 97.74C232.496 96.352 232.28 94.96 232.28 94.96C232.28 94.96 236 97.274 234.32 100.84C233.774 102.1 235.078 102.526 235.72 102.4ZM229.98 105.38V103.44H236.04V105.38H233.98V107.44H232.04V105.38H229.98Z" fill="white"/>
<rect x="190" y="156" width="51" height="51" rx="25.5" fill="#EBBB4E"/>
<rect x="190" y="156" width="51" height="51" rx="25.5" fill="url(#paint4_linear)"/>
<g clip-path="url(#clip1)">
<path d="M210.651 179.648L215.542 174.757L220.435 179.65L223.281 176.804L215.542 169.065L207.805 176.802L210.651 179.648ZM202.949 181.658L205.795 178.812L208.641 181.658L205.795 184.503L202.949 181.658ZM210.651 183.667L215.542 188.558L220.435 183.665L223.281 186.509L215.542 194.25L207.805 186.513L207.801 186.509L210.651 183.667ZM222.443 181.658L225.288 178.812L228.134 181.658L225.288 184.503L222.443 181.658ZM218.428 181.655H218.431V181.658L215.542 184.546L212.657 181.663L212.652 181.658L212.657 181.654L213.162 181.148L213.407 180.902L215.542 178.769L218.429 181.656L218.428 181.655Z" fill="white"/>
</g>
<rect x="117" y="76" width="62" height="62" rx="31" fill="url(#paint5_linear)"/>
<path d="M140.188 91.5H155.812L157.3 93.0391V120.961L155.812 122.5H140.188L138.7 120.961V93.0391L140.188 91.5ZM141.676 119.42H154.324V94.5798H141.676V119.42ZM152.734 111.407H149.499V114.914H146.579V111.408H143.344V108.387H152.734V111.407ZM152.734 102.755V105.774H143.344V102.755H146.579V99.2469H149.499V102.755H152.734Z" fill="white"/>
<rect x="52" y="149" width="65" height="65" rx="32.5" fill="#F7931A"/>
<rect x="52" y="149" width="65" height="65" rx="32.5" fill="url(#paint6_linear)"/>
<path d="M96.551 178.43C97.0591 174.985 94.4168 173.188 90.8091 171.89L91.9778 167.197L89.0814 166.548L87.9127 171.091C87.2013 170.941 86.3375 170.791 85.6261 170.542L86.7948 165.949L83.8985 165.25L82.7297 169.943C82.0692 169.793 81.5102 169.693 80.9005 169.543L76.937 168.595L76.2256 171.64C76.2256 171.64 78.3598 172.139 78.309 172.139C79.4777 172.439 79.6809 173.188 79.6301 173.737L78.309 179.029C78.3598 179.029 78.4614 179.079 78.6139 179.079C78.5631 179.079 78.4614 179.029 78.309 179.029L76.3781 186.417C76.2256 186.717 75.8699 187.316 75.0569 187.066C75.0569 187.116 72.9228 186.567 72.9228 186.567L71.5 189.812L75.2602 190.711C75.9716 190.861 76.6321 191.01 77.3435 191.21L76.124 195.903L79.0204 196.602L80.1891 191.909C81.0021 192.159 81.7643 192.308 82.4757 192.458L81.307 197.051L84.2033 197.75L85.4229 193.057C90.3517 193.956 94.0611 193.606 95.6363 189.263C96.8559 185.719 95.5855 183.672 92.994 182.424C94.7217 182.224 96.1445 180.976 96.551 178.43ZM89.9452 187.566C89.0306 191.11 83.0346 189.163 81.0529 188.714L82.6281 182.523C84.6098 182.973 90.8599 183.821 89.9452 187.566ZM90.8599 178.43C90.0469 181.675 85.0163 180.027 83.3903 179.628L84.7623 173.987C86.4391 174.336 91.6729 175.035 90.8599 178.43Z" fill="white"/>
<rect x="264" y="124" width="57" height="56" rx="28" fill="#132BD8"/>
<rect x="264" y="124" width="57" height="56" rx="28" fill="url(#paint7_linear)"/>
<g clip-path="url(#clip2)">
<path d="M292.382 157.366V148.728L283.795 152.424L292.382 157.366ZM292.382 148.134V137.993L284.072 151.71L292.382 148.134ZM292.935 137.989V148.134L301.362 151.761L292.935 137.989ZM292.935 148.728V157.366L301.528 152.426L292.935 148.728ZM292.382 166.05V159.103L283.853 154.197L292.382 166.05ZM292.935 166.05L301.465 154.196L292.935 159.102V166.05Z" fill="white"/>
</g>
</g>
<defs>
<linearGradient id="paint0_linear" x1="-375" y1="136.547" x2="768" y2="136.547" gradientUnits="userSpaceOnUse">
<stop stop-color="#2D262D"/>
<stop offset="1" stop-color="#8F6B8F"/>
<stop offset="1" stop-color="#8F6B8F"/>
</linearGradient>
<linearGradient id="paint1_linear" x1="-188.735" y1="71.1976" x2="417.768" y2="71.1976" gradientUnits="userSpaceOnUse">
<stop stop-color="#2D262D"/>
<stop offset="1" stop-color="#8F6B8F"/>
<stop offset="1" stop-color="#8F6B8F"/>
</linearGradient>
<linearGradient id="paint2_linear" x1="60.0762" y1="240.146" x2="249.5" y2="240.146" gradientUnits="userSpaceOnUse">
<stop stop-color="#473447"/>
<stop offset="1" stop-color="#463447" stop-opacity="0.5"/>
</linearGradient>
<linearGradient id="paint3_linear" x1="213" y1="83" x2="253" y2="123" gradientUnits="userSpaceOnUse">
<stop stop-color="#F8C7B4"/>
<stop offset="1" stop-color="#EF8053"/>
</linearGradient>
<linearGradient id="paint4_linear" x1="190" y1="156" x2="241" y2="207" gradientUnits="userSpaceOnUse">
<stop stop-color="white" stop-opacity="0.7"/>
<stop offset="1" stop-color="white" stop-opacity="0.1"/>
</linearGradient>
<linearGradient id="paint5_linear" x1="117" y1="76" x2="179" y2="138" gradientUnits="userSpaceOnUse">
<stop stop-color="#C2E8EB"/>
<stop offset="1" stop-color="#76CCD3"/>
</linearGradient>
<linearGradient id="paint6_linear" x1="52" y1="149" x2="117" y2="214" gradientUnits="userSpaceOnUse">
<stop stop-color="white" stop-opacity="0.7"/>
<stop offset="1" stop-color="white" stop-opacity="0.1"/>
</linearGradient>
<linearGradient id="paint7_linear" x1="264" y1="124" x2="319.991" y2="180.991" gradientUnits="userSpaceOnUse">
<stop stop-color="white" stop-opacity="0.7"/>
<stop offset="1" stop-color="white" stop-opacity="0.1"/>
</linearGradient>
<clipPath id="clip0">
<rect width="375" height="314" fill="white"/>
</clipPath>
<clipPath id="clip1">
<rect width="25.5" height="25.5" fill="white" transform="translate(202.75 168.75)"/>
</clipPath>
<clipPath id="clip2">
<rect width="28.5" height="28" fill="white" transform="translate(278.25 138)"/>
</clipPath>
</defs>
</svg>
