<svg width="375" height="314" viewBox="0 0 375 314" fill="none" xmlns="http://www.w3.org/2000/svg">
<g clip-path="url(#clip0)">
<path d="M393 269.258V271.428C379.552 270.086 366.333 266.889 354.257 262.351C327.676 252.389 303.379 236.746 279.882 221.646C265.464 212.341 250.532 202.75 235.229 194.558C211.103 181.627 165.394 163.302 130.647 185.995C116.572 195.186 106.636 209.943 97.043 224.215C85.223 241.799 73.0033 259.981 53.0463 267.289C36.0016 273.568 17.6434 270.172 -0.115112 266.86C-8.99438 265.205 -18.1877 263.492 -27.1526 263.036C-29.608 262.893 -32.0634 262.864 -34.5473 262.921C-42.4272 263.036 -50.3644 263.949 -58.2158 265.205C-64.0973 266.175 -69.9502 267.317 -75.7174 268.43C-94.5895 272.113 -114.147 275.909 -133.418 272.912C-152.49 269.972 -169.821 260.638 -186.608 251.589C-202.054 243.254 -218.071 234.634 -235.316 231.123C-279.684 222.075 -321.254 247.108 -361.482 271.285C-396.485 292.379 -432.544 314.073 -471.031 314.073C-476.17 314.073 -481.309 313.702 -486.505 312.874C-521.823 307.336 -553.571 283.045 -586.404 236.461C-591.087 229.839 -595.712 222.959 -600.223 216.337C-619.495 187.764 -639.452 158.25 -667.945 138.725C-691.3 122.741 -723.562 116.061 -750 123.511V121.313C-723.048 113.949 -690.386 120.742 -666.718 136.956C-637.91 156.708 -617.839 186.394 -598.424 215.138C-593.942 221.761 -589.316 228.611 -584.663 235.233C-552.172 281.304 -520.88 305.31 -486.191 310.762C-442.566 317.612 -401.91 293.15 -362.567 269.458C-336.557 253.787 -309.948 237.774 -282.311 230.752C-266.865 226.841 -251.076 225.7 -234.888 229.011C-217.329 232.607 -201.198 241.285 -185.581 249.705C-168.964 258.668 -151.805 267.917 -133.104 270.8C-114.175 273.74 -94.8179 269.972 -76.1171 266.347C-73.3192 265.804 -70.4926 265.262 -67.6376 264.72C-54.2758 262.236 -40.6285 260.153 -27.0384 260.895C-26.9242 260.895 -26.8386 260.895 -26.7244 260.923C-17.7594 261.409 -8.5661 263.121 0.284668 264.748C18.5571 268.145 35.8017 271.37 52.3326 265.291C71.6043 258.212 83.0817 241.114 95.2443 223.045C104.98 208.573 115.03 193.616 129.477 184.196C157.142 166.156 191.289 173.235 216.699 183.483C224.065 186.451 230.689 189.677 236.228 192.645C251.617 200.895 266.577 210.514 281.052 219.848C304.436 234.891 328.647 250.448 354.999 260.352C366.847 264.805 379.838 267.945 393 269.258Z" fill="white" fill-opacity="0.2"/>
<path d="M393 0.000488281V218.478C352.886 221.19 312.144 215.11 274.629 200.638C256.185 193.531 237.941 184.368 219.526 176.632C195.229 166.471 170.59 158.792 144.751 161.704C78.3709 169.182 36.3157 242.455 -26.7244 260.924C-29.2939 261.694 -31.8921 262.351 -34.5473 262.922C-35.9463 263.207 -37.3453 263.493 -38.7443 263.721C-45.2824 264.834 -51.7634 265.291 -58.2158 265.205C-61.3564 265.177 -64.497 265.005 -67.6376 264.72C-122.112 259.782 -173.618 219.706 -230.063 215.995C-248.592 214.767 -266.693 217.479 -284.537 222.332C-310.833 229.411 -336.5 241.085 -361.881 251.39C-404.451 268.659 -452.901 282.417 -495.442 265.091C-527.932 251.846 -550.802 222.846 -573.671 196.214C-603.735 161.161 -637.967 127.222 -681.535 112.037C-703.177 104.472 -727.616 102.817 -750 107.698V0.000488281H393Z" fill="url(#paint0_linear)"/>
<path d="M393 0.000488281V82.579C375.527 91.7132 355.998 96.7655 336.241 96.4516C299.582 95.8807 265.521 79.011 231.231 66.0519C196.942 53.0928 157.942 43.9872 124.309 58.5733C77.1718 79.0396 59.4988 136.471 21.8404 171.437C-3.17004 194.672 -37.6593 207.432 -71.7774 206.062C-128.936 203.778 -181.669 164.216 -238.514 170.724C-292.332 176.918 -333.816 222.76 -386.464 235.576C-449.132 250.847 -513.629 216.166 -560.994 172.379C-601.451 135.043 -639.223 87.9168 -693.384 78.012C-712.284 74.5581 -731.328 76.128 -750 80.6951V0.000488281H-563.735C-556.911 27.5172 -545.149 53.8921 -527.361 75.8711C-505.12 103.331 -472.887 123.512 -437.769 127.308C-379.983 133.559 -326.536 96.737 -268.977 88.6304C-239.484 84.4915 -208.935 88.1166 -181.241 99.0491C-156.973 108.611 -135.132 123.54 -110.949 133.302C-86.7665 143.036 -58.1873 147.061 -35.2896 134.587C-13.8194 122.884 -17.6655 102.535 -9.5 79.5C-1.30597 56.4362 -32.0323 36.667 -17.5 17C-15.1303 13.803 -12.298 -0.674118 -9.5 -3.5L393 0.000488281Z" fill="#3E304D"/>
<path d="M393 39.3911V41.6461C366.591 49.7813 338.954 47.6404 321.652 44.786C301.552 41.4749 281.738 35.5948 262.58 29.9144C246.535 25.1761 229.947 20.2379 213.33 16.8697C182.724 10.6756 139.355 8.13518 106.322 31.1989C87.8214 44.1295 75.0021 63.511 62.5825 82.2646C54.9309 93.7965 47.0223 105.757 37.8005 116.232C3.16846 155.566 -52.4484 174.577 -103.897 164.643C-124.339 160.704 -144.096 152.484 -163.225 144.548C-190.063 133.359 -217.843 121.798 -246.993 122.598C-282.396 123.568 -315.001 142.407 -346.521 160.619C-378.212 178.944 -410.817 197.783 -445.906 197.783C-450.931 197.783 -456.013 197.384 -461.152 196.556C-496.669 190.818 -524.192 164.358 -541.037 143.207C-551.972 129.448 -561.594 114.377 -570.901 99.8479C-578.838 87.4311 -587.061 74.6148 -596.026 62.6547C-613.984 38.7346 -635.94 17.5548 -660.493 6.10352e-05H-656.839C-633.056 17.3264 -611.814 38.0781 -594.313 61.3702C-585.291 73.3874 -577.068 86.2323 -569.102 98.6776C-559.823 113.178 -550.23 128.192 -539.353 141.865C-522.736 162.731 -495.641 188.82 -460.809 194.444C-420.581 200.952 -385.15 180.485 -347.606 158.792C-315.829 140.409 -282.996 121.427 -247.05 120.457C-217.414 119.686 -189.435 131.304 -162.397 142.55C-143.382 150.485 -123.711 158.649 -103.497 162.56C-52.7624 172.35 2.05499 153.597 36.2017 114.834C45.3093 104.444 53.1894 92.5691 60.7839 81.0658C73.3176 62.1695 86.2511 42.6166 105.095 29.4292C125.623 15.1 150.033 10.4473 172.988 10.4473C187.635 10.4473 201.682 12.3312 213.759 14.786C230.461 18.1828 247.106 23.0924 263.209 27.8593C282.309 33.5396 302.038 39.3911 321.995 42.6737C339.239 45.4996 366.791 47.6404 393 39.3911Z" fill="white" fill-opacity="0.2"/>
<path d="M161.324 31.1117C163.089 31.5846 163.827 28.8274 162.062 28.3545C160.298 27.8816 159.559 30.6388 161.324 31.1117Z" fill="white" fill-opacity="0.3"/>
<path d="M70.8254 86.8579C68.309 87.7403 69.6326 91.515 72.149 90.6326C74.6655 89.7502 73.3419 85.9755 70.8254 86.8579Z" fill="white" fill-opacity="0.3"/>
<path d="M224.334 36.1146C226.099 36.5875 226.838 33.8304 225.073 33.3574C223.308 32.8845 222.541 35.6343 224.334 36.1146Z" fill="white" fill-opacity="0.3"/>
<path d="M75.88 134.665C73.3733 135.544 74.697 139.318 77.2036 138.439C79.7102 137.56 78.4258 133.772 75.88 134.665Z" fill="white" fill-opacity="0.3"/>
<path d="M188.345 79.1175C190.11 79.5905 190.848 76.8333 189.083 76.3603C187.291 75.88 186.552 78.6372 188.345 79.1175Z" fill="white" fill-opacity="0.3"/>
<path d="M17.9165 102.232C15.4196 103.107 16.7432 106.882 19.2401 106.006C21.7761 105.117 20.4525 101.342 17.9165 102.232Z" fill="white" fill-opacity="0.3"/>
<path d="M229.547 109.154C227.72 109.154 227.72 112.008 229.547 112.008C231.374 112.008 231.374 109.154 229.547 109.154Z" fill="white" fill-opacity="0.3"/>
<path d="M318.37 120C316.543 120 316.543 122.854 318.37 122.854C320.198 122.854 320.198 120 318.37 120Z" fill="white" fill-opacity="0.3"/>
<path d="M325.37 175C323.543 175 323.543 177.854 325.37 177.854C327.198 177.854 327.198 175 325.37 175Z" fill="white" fill-opacity="0.3"/>
<path d="M345.075 17.4806L341.306 21.1628L342.163 26.3293L337.509 23.8745L332.855 26.3007L333.769 21.1342L330 17.452L335.225 16.7099L337.566 12.0001L339.879 16.7099L345.075 17.4806Z" fill="white" fill-opacity="0.3"/>
<path d="M225.55 150.114L230.86 141.779L227.006 132.702L236.57 135.157L243.994 128.678L244.622 138.525L253.073 143.606L243.908 147.231L241.681 156.851L235.4 149.23L225.55 150.114Z" fill="white" fill-opacity="0.3"/>
<path d="M266.492 122.912L266.178 126.48L268.947 128.792L265.435 129.591L264.093 132.931L262.266 129.819L258.669 129.591L261.038 126.908L260.153 123.426L263.465 124.824L266.492 122.912Z" fill="white" fill-opacity="0.3"/>
<path d="M344.91 148.275L343.083 144.564L339 143.965L341.941 141.082L341.256 137L344.91 138.913L348.565 137L347.879 141.082L350.849 143.965L346.737 144.564L344.91 148.275Z" fill="white" fill-opacity="0.3"/>
<rect x="87" y="100" width="200" height="200" rx="100" fill="#251925"/>
<mask id="mask0" mask-type="alpha" maskUnits="userSpaceOnUse" x="87" y="100" width="200" height="200">
<rect x="87" y="100" width="200" height="200" rx="100" fill="#251925"/>
</mask>
<g mask="url(#mask0)">
<path d="M258.15 262.771L254.976 277.975L250.783 298.273L239.733 351.566H135.891L124.997 299.096L120.961 279.699L117.434 262.771C117.434 256.854 120.608 251.486 125.781 247.489C131.306 243.217 139.104 240.592 147.725 240.592H227.82C236.324 240.592 244.004 243.139 249.49 247.293C254.898 251.29 258.15 256.737 258.15 262.771Z" fill="#ECECEC"/>
<path d="M126.369 247.174L126.212 278.366L126.133 292.198C126.133 292.198 125.585 294.941 124.958 299.056C124.017 305.208 122.881 314.456 123.077 322.097C123.39 334.832 123.547 380.405 123.547 380.405H97.6454C97.6454 380.405 92.1594 343.14 89.769 315.2C89.1421 307.676 89.6123 300.819 90.9054 294.588C97.136 264.69 121.705 249.76 125.781 247.448C126.173 247.291 126.369 247.174 126.369 247.174Z" fill="white"/>
<path d="M188.204 390.437C187.224 390.437 186.44 389.654 186.44 388.674V240.591C186.44 239.612 187.224 238.828 188.204 238.828C189.183 238.828 189.967 239.612 189.967 240.591V388.674C189.928 389.654 189.144 390.437 188.204 390.437Z" fill="#D7D6D6"/>
<path d="M171.001 296.079H142.787C139.731 296.079 137.301 293.61 137.301 290.592C137.301 287.536 139.77 285.107 142.787 285.107H171.001C174.057 285.107 176.487 287.575 176.487 290.592C176.526 293.61 174.057 296.079 171.001 296.079Z" fill="#84BAD2"/>
<path d="M233.894 296.079H205.68C202.624 296.079 200.194 293.61 200.194 290.592C200.194 287.536 202.663 285.107 205.68 285.107H233.894C236.951 285.107 239.38 287.575 239.38 290.592C239.38 293.61 236.951 296.079 233.894 296.079Z" fill="#84BAD2"/>
<path d="M286.168 315.239C283.778 343.14 278.292 380.444 278.292 380.444H252.351C252.351 380.444 252.507 334.871 252.821 322.136C253.017 314.142 251.763 304.424 250.822 298.272C250.274 294.628 249.804 292.237 249.804 292.237L249.725 276.955L249.608 247.291V247.174C249.608 247.174 274.491 260.027 283.386 288.162C285.815 295.999 287.03 305.012 286.168 315.239Z" fill="white"/>
<path d="M283.347 288.163C279.585 285.576 271.395 281.383 255.015 277.974C253.33 277.622 251.567 277.269 249.686 276.955C235.266 274.408 215.398 272.527 188.164 272.527C160.734 272.527 140.71 275.035 126.212 278.405C124.37 278.836 122.646 279.267 120.961 279.738C101.486 285.028 93.5701 291.768 90.9054 294.667C97.136 264.769 121.705 249.839 125.781 247.527C131.306 243.256 139.104 240.63 147.725 240.63H227.82C236.324 240.63 244.004 243.177 249.49 247.331V247.213C249.568 247.174 274.412 260.066 283.347 288.163Z" fill="#D7D6D6"/>
<path d="M188.204 249.291C217.831 249.291 241.849 225.273 241.849 195.645C241.849 166.018 217.831 142 188.204 142C158.576 142 134.558 166.018 134.558 195.645C134.558 225.273 158.576 249.291 188.204 249.291Z" fill="url(#paint1_linear)"/>
<path d="M188.204 251.37C175.625 251.37 163.556 247.491 153.368 240.163C152.584 239.615 152.388 238.517 152.976 237.734C153.524 236.95 154.621 236.754 155.405 237.342C165.006 244.238 176.33 247.883 188.204 247.883C200.077 247.883 211.402 244.238 221.002 237.342C221.786 236.793 222.883 236.95 223.432 237.734C223.98 238.517 223.823 239.615 223.04 240.163C212.812 247.491 200.782 251.37 188.204 251.37Z" fill="#E35A64"/>
<path d="M235.422 195.097C235.422 195.097 233.306 220.058 214.066 232.519C207.679 236.634 199.411 239.416 188.674 239.416C145.648 239.416 141.925 195.136 141.925 195.136C141.925 195.136 152.937 172.408 181.15 169.078C183.384 168.803 185.735 168.686 188.204 168.686C221.629 168.607 235.422 195.097 235.422 195.097Z" fill="url(#paint2_linear)"/>
<path d="M235.422 195.096C235.422 195.096 233.306 220.057 214.066 232.519C208.815 196.037 181.15 169.038 181.15 169.038C183.384 168.763 185.735 168.646 188.204 168.646C221.629 168.607 235.422 195.096 235.422 195.096Z" fill="#EEEDED" fill-opacity="0.3"/>
<path d="M187.733 269.746C169.59 269.746 156.933 262.457 149.527 256.344C141.494 249.683 137.772 243.099 137.615 242.825C137.145 241.963 137.458 240.905 138.281 240.435C139.143 239.964 140.201 240.278 140.671 241.101C140.711 241.179 144.276 247.488 151.878 253.719C161.988 262.026 174.058 266.258 187.773 266.258C204.818 266.258 216.966 259.44 224.137 253.719C231.935 247.488 235.775 241.14 235.814 241.101C236.324 240.278 237.382 240.004 238.205 240.474C239.028 240.983 239.302 242.041 238.832 242.864C238.675 243.139 234.717 249.722 226.449 256.344C218.768 262.457 205.876 269.746 187.733 269.746Z" fill="#E35A64"/>
</g>
<path d="M69 222C86.6731 222 101 207.673 101 190C101 172.327 86.6731 158 69 158C51.3269 158 37 172.327 37 190C37 207.673 51.3269 222 69 222Z" fill="url(#paint3_linear)"/>
<path d="M76.5461 176.117C78.9496 177.531 80.8581 179.439 82.2716 181.843C83.685 184.246 84.3948 186.864 84.3948 189.691C84.3948 192.518 83.685 195.137 82.2716 197.54C80.8581 199.944 78.9496 201.852 76.5461 203.266C74.1426 204.679 71.5243 205.383 68.6974 205.383C65.8704 205.383 63.2522 204.679 60.8487 203.266C58.4452 201.852 56.5367 199.944 55.1232 197.54C53.7097 195.137 53 192.518 53 189.691C53 186.864 53.7097 184.246 55.1232 181.843C56.5367 179.439 58.4452 177.531 60.8487 176.117C63.2522 174.704 65.8704 174 68.6974 174C71.5243 174 74.1426 174.704 76.5461 176.117ZM62.6439 179.219C60.789 180.31 59.31 181.783 58.2245 183.638C57.1331 185.493 56.5904 187.515 56.5904 189.697C56.5904 191.88 57.1331 193.896 58.2245 195.757C59.3159 197.612 60.789 199.085 62.6439 200.176C64.4987 201.268 66.5205 201.81 68.6974 201.81C70.8802 201.81 72.8961 201.268 74.7509 200.176C76.6057 199.085 78.0848 197.612 79.1702 195.757C80.2617 193.902 80.8044 191.88 80.8044 189.697C80.8044 187.515 80.2617 185.499 79.1702 183.638C78.0788 181.783 76.6057 180.31 74.7509 179.219C72.8961 178.127 70.8743 177.584 68.6974 177.584C66.5205 177.578 64.4987 178.127 62.6439 179.219ZM77.4228 186C77.4228 186.202 77.3393 186.363 77.1783 186.483L66.7591 196.836C66.598 196.997 66.4131 197.081 66.2163 197.081C66.0136 197.081 65.8525 196.997 65.7332 196.836L60.2225 191.326C60.0614 191.165 59.9779 190.98 59.9779 190.777C59.9779 190.574 60.0614 190.413 60.2225 190.294L61.618 188.904C61.7373 188.785 61.8984 188.719 62.1011 188.719C62.3039 188.719 62.4828 188.779 62.6439 188.904L66.2163 192.596L74.8165 184.055C74.9358 183.936 75.0968 183.87 75.2996 183.87C75.5024 183.87 75.6813 183.954 75.8423 184.115L77.1723 185.445C77.3393 185.618 77.4228 185.797 77.4228 186Z" fill="white"/>
<path d="M294.84 112.178C296.224 91.0987 280.257 72.8889 259.178 71.5053C238.099 70.1217 219.889 86.0883 218.505 107.168C217.122 128.247 233.088 146.457 254.168 147.84C275.247 149.224 293.457 133.257 294.84 112.178Z" fill="url(#paint4_linear)"/>
<path d="M265.755 113.528L267.567 111.716C267.719 111.564 267.885 111.524 268.077 111.604C268.268 111.677 268.361 111.829 268.361 112.054V120.26C268.361 121.014 268.096 121.656 267.567 122.185C267.038 122.714 266.397 122.978 265.643 122.978H245.718C244.964 122.978 244.323 122.714 243.794 122.185C243.265 121.656 243 121.014 243 120.26V100.342C243 99.588 243.265 98.9465 243.794 98.4175C244.323 97.8884 244.964 97.6239 245.718 97.6239H261.225C261.417 97.6239 261.549 97.7165 261.622 97.9083C261.695 98.1001 261.662 98.2654 261.51 98.4175L259.698 100.229C259.618 100.302 259.526 100.342 259.413 100.342H245.718V120.267H265.643V113.813C265.643 113.7 265.676 113.601 265.755 113.528ZM274.637 102.094L259.751 116.98L254.659 117.549C253.905 117.622 253.263 117.397 252.734 116.868C252.205 116.339 251.98 115.697 252.053 114.943L252.622 109.851L267.508 94.9655C268.149 94.324 268.93 94 269.855 94C270.781 94 271.562 94.324 272.203 94.9655L274.637 97.3991C275.278 98.0405 275.602 98.8209 275.602 99.7467C275.602 100.673 275.278 101.453 274.637 102.094ZM269.035 103.847L265.755 100.567L255.227 111.095L254.831 114.771L258.508 114.375L269.035 103.847ZM272.712 99.3235L270.279 96.8899C270.166 96.7775 270.027 96.7179 269.855 96.7179C269.683 96.7179 269.545 96.7775 269.432 96.8899L267.68 98.6423L270.96 101.922L272.712 100.17C272.825 100.058 272.884 99.9186 272.884 99.7467C272.884 99.5748 272.831 99.4359 272.712 99.3235Z" fill="white"/>
<path d="M325 220C325 235.464 312.464 248 297 248C281.536 248 269 235.464 269 220C269 204.536 281.536 192 297 192C312.464 191.994 325 204.53 325 220Z" fill="#FDB2B6"/>
<path d="M308.912 210.699C309.381 211.167 309.61 211.735 309.61 212.4V226.806C309.61 227.472 309.376 228.039 308.912 228.508C308.443 228.977 307.876 229.207 307.21 229.207H286.4C285.735 229.207 285.167 228.972 284.699 228.508C284.23 228.039 284 227.472 284 226.806V212.4C284 211.735 284.234 211.167 284.699 210.699C285.167 210.23 285.735 210 286.4 210H307.21C307.881 210 308.448 210.234 308.912 210.699ZM286.405 212.4V214.449C287.572 215.382 289.822 217.149 293.156 219.751L293.606 220.15C294.271 220.717 294.806 221.115 295.204 221.35C295.837 221.781 296.372 222.001 296.808 222.001C297.244 222.001 297.773 221.786 298.406 221.35C298.805 221.115 299.339 220.717 300.009 220.15L300.46 219.751C303.793 217.182 306.048 215.415 307.21 214.449V212.4H286.405ZM307.21 226.806V217.505L301.407 222.109C300.572 222.808 299.888 223.309 299.353 223.609C298.453 224.144 297.605 224.411 296.803 224.411C296.001 224.411 295.134 224.144 294.201 223.609C293.699 223.309 293.02 222.808 292.152 222.109L286.4 217.505V226.806H307.21Z" fill="white"/>
<path d="M155.987 116.013C159.86 99.451 149.574 82.8855 133.013 79.0126C116.451 75.1396 99.8855 85.4258 96.0126 101.987C92.1396 118.549 102.426 135.114 118.987 138.987C135.549 142.86 152.115 132.574 155.987 116.013Z" fill="url(#paint5_linear)"/>
<path d="M137.62 112.625C137.696 113.262 137.649 113.917 137.481 114.588C137.313 115.26 137.041 115.857 136.67 116.384C136.635 118.029 136.108 119.298 135.1 120.196C134.017 121.203 132.43 121.707 130.333 121.707H129.099C127.53 121.707 126.093 121.539 124.784 121.203C124.037 121.018 123.104 120.7 121.98 120.248C121.309 119.987 120.822 119.802 120.521 119.686C120.034 119.535 119.565 119.46 119.119 119.46C119.009 119.836 118.795 120.149 118.476 120.416C118.157 120.676 117.792 120.81 117.381 120.81H113.796C113.309 120.81 112.892 120.63 112.533 120.277C112.18 119.923 112 119.5 112 119.014V105.558C112 105.071 112.18 104.654 112.533 104.295C112.886 103.942 113.309 103.762 113.796 103.762H119.345C119.721 103.426 120.353 102.667 121.251 101.492C122.148 100.316 122.803 99.5222 123.214 99.1109C123.365 98.9603 123.533 98.4216 123.718 97.4832C124.054 96.1394 124.39 95.1662 124.726 94.5696C125.323 93.5211 126.145 92.9998 127.194 92.9998C128.874 92.9998 130.183 93.469 131.115 94.4016C132.088 95.4095 132.575 96.904 132.575 98.885C132.575 99.7423 132.407 100.605 132.071 101.463H134.087C135.431 101.463 136.572 101.949 137.504 102.922C138.437 103.896 138.906 105.013 138.906 106.288C138.906 107.261 138.645 108.194 138.118 109.091C138.385 110.325 138.217 111.501 137.62 112.625ZM116.541 116.268C116.281 116.008 115.962 115.874 115.586 115.874C115.209 115.874 114.896 116.008 114.63 116.268C114.369 116.529 114.236 116.848 114.236 117.224C114.236 117.601 114.369 117.913 114.63 118.18C114.89 118.44 115.209 118.574 115.586 118.574C115.962 118.574 116.275 118.44 116.541 118.18C116.802 117.919 116.935 117.601 116.935 117.224C116.935 116.848 116.802 116.529 116.541 116.268ZM135.575 110.186C135.593 109.456 135.396 108.871 134.985 108.419C135.245 108.419 135.518 108.194 135.796 107.748C136.074 107.301 136.218 106.815 136.218 106.288C136.218 105.766 136.01 105.28 135.604 104.828C135.193 104.382 134.689 104.156 134.093 104.156H128.26C128.26 103.71 128.352 103.241 128.538 102.754C128.613 102.494 128.781 102.1 129.042 101.579C129.302 101.057 129.488 100.646 129.603 100.345C129.789 99.8581 129.881 99.3716 129.881 98.885C129.881 97.9119 129.771 97.2052 129.545 96.7534C129.134 96.0409 128.352 95.6875 127.194 95.6875C127.008 95.9134 126.84 96.232 126.69 96.6375C126.614 96.8634 126.522 97.2515 126.412 97.8134C126.261 98.5606 126.134 99.1225 126.018 99.4932C125.792 100.09 125.473 100.594 125.062 101.005C124.761 101.306 124.222 101.978 123.434 103.021C122.612 104.145 121.998 104.909 121.587 105.32C120.874 106.068 120.277 106.444 119.791 106.444H119.177V116.871C119.814 116.871 120.503 116.963 121.251 117.149C121.697 117.259 122.374 117.485 123.266 117.821C124.39 118.191 125.247 118.458 125.844 118.603C126.852 118.863 127.842 118.997 128.816 118.997H130.895C131.978 118.997 132.783 118.719 133.305 118.157C133.901 117.56 134.11 116.604 133.919 115.295C134.365 115.034 134.683 114.577 134.875 113.922C135.06 113.268 135.008 112.66 134.707 112.098C135.268 111.559 135.558 110.916 135.575 110.186Z" fill="white"/>
<path d="M119.147 201.733C120.648 215.359 133.433 225.13 140.253 224.379C147.073 223.629 145.326 212.642 143.825 199.015C142.324 185.389 141.625 174.285 134.818 175.036C127.998 175.787 117.646 188.106 119.147 201.733Z" fill="url(#paint6_linear)"/>
<path d="M143.825 199.015C142.324 185.389 141.625 174.285 134.818 175.036C133.99 175.127 133.11 175.385 132.217 175.799C136.086 178.543 136.772 187.938 137.989 199.015C139.334 211.257 140.874 221.377 136.229 223.849C137.691 224.327 139.063 224.522 140.253 224.392C147.06 223.629 145.326 212.642 143.825 199.015Z" fill="#1A1B1A"/>
<path d="M193 240V237.352C211.513 237.352 225.236 232.559 232.683 223.5C238.216 216.773 238.378 210.07 238.378 210L241 210.035C241 210.352 240.814 217.746 234.701 225.187C229.145 231.949 217.394 240 193 240Z" fill="#1A1B1A"/>
<path d="M199 238C199 240.761 195.199 243 190.494 243C185.801 243 182 240.761 182 238C182 235.239 185.801 233 190.494 233C195.199 233 199 235.239 199 238Z" fill="#1A1B1A"/>
<path d="M256.426 201.733C254.925 215.359 242.139 225.13 235.32 224.379C228.5 223.629 230.247 212.642 231.748 199.015C233.249 185.389 233.948 174.285 240.755 175.036C247.575 175.787 257.94 188.106 256.426 201.733Z" fill="url(#paint7_linear)"/>
<path d="M237.597 199.015C238.814 187.938 239.499 178.543 243.369 175.799C242.463 175.385 241.583 175.127 240.768 175.036C233.948 174.285 233.262 185.389 231.761 199.015C230.26 212.642 228.513 223.629 235.332 224.379C236.523 224.509 237.895 224.314 239.357 223.836C234.711 221.377 236.251 211.257 237.597 199.015Z" fill="#1A1B1A"/>
</g>
<defs>
<linearGradient id="paint0_linear" x1="-750" y1="136.547" x2="393" y2="136.547" gradientUnits="userSpaceOnUse">
<stop stop-color="#2D262D"/>
<stop offset="1" stop-color="#8F6B8F"/>
<stop offset="1" stop-color="#8F6B8F"/>
</linearGradient>
<linearGradient id="paint1_linear" x1="228" y1="153.5" x2="152.5" y2="244" gradientUnits="userSpaceOnUse">
<stop stop-color="#FCFCFC"/>
<stop offset="1" stop-color="#A1A09F"/>
</linearGradient>
<linearGradient id="paint2_linear" x1="142" y1="197.5" x2="235" y2="197.5" gradientUnits="userSpaceOnUse">
<stop stop-color="#5F4B77"/>
<stop offset="1" stop-color="#5F4B77" stop-opacity="0.4"/>
</linearGradient>
<linearGradient id="paint3_linear" x1="88.5" y1="163" x2="49" y2="217" gradientUnits="userSpaceOnUse">
<stop stop-color="#A0D2E3"/>
<stop offset="1" stop-color="#80B6CF"/>
</linearGradient>
<linearGradient id="paint4_linear" x1="218.505" y1="107.168" x2="294.84" y2="112.178" gradientUnits="userSpaceOnUse">
<stop stop-color="#E35760"/>
<stop offset="1" stop-color="#DB829D"/>
</linearGradient>
<linearGradient id="paint5_linear" x1="145" y1="135" x2="103" y2="83.9998" gradientUnits="userSpaceOnUse">
<stop stop-color="#E8B467"/>
<stop offset="1" stop-color="#F1D185"/>
</linearGradient>
<linearGradient id="paint6_linear" x1="132.099" y1="175" x2="132.099" y2="224.42" gradientUnits="userSpaceOnUse">
<stop stop-color="#EFEFEF"/>
<stop offset="1" stop-color="#A9A8A7"/>
</linearGradient>
<linearGradient id="paint7_linear" x1="243.475" y1="175" x2="243.475" y2="224.42" gradientUnits="userSpaceOnUse">
<stop stop-color="#EBEBEB"/>
<stop offset="1" stop-color="#AEADAC"/>
</linearGradient>
<clipPath id="clip0">
<rect width="375" height="314" fill="white"/>
</clipPath>
</defs>
</svg>
