<svg width="12" height="12" viewBox="0 0 12 12" fill="none" xmlns="http://www.w3.org/2000/svg">
<path fill-rule="evenodd" clip-rule="evenodd" d="M2.42971 2.42748C2 3.01893 2 3.86262 2 5.55V6.45C2 8.13738 2 8.98107 2.42971 9.57252C2.56849 9.76353 2.73647 9.93151 2.92748 10.0703C3.51893 10.5 4.36262 10.5 6.05 10.5C7.73738 10.5 8.58107 10.5 9.17252 10.0703C9.36353 9.93151 9.53151 9.76353 9.67029 9.57252C10.1 8.98107 10.1 8.13738 10.1 6.45V5.55C10.1 3.86262 10.1 3.01893 9.67029 2.42748C9.53151 2.23647 9.36353 2.06849 9.17252 1.92971C8.58107 1.5 7.73738 1.5 6.05 1.5C4.36262 1.5 3.51893 1.5 2.92748 1.92971C2.73647 2.06849 2.56849 2.23647 2.42971 2.42748ZM4.25 3.8625C4.0636 3.8625 3.9125 4.0136 3.9125 4.2C3.9125 4.3864 4.0636 4.5375 4.25 4.5375H7.85C8.0364 4.5375 8.1875 4.3864 8.1875 4.2C8.1875 4.0136 8.0364 3.8625 7.85 3.8625H4.25ZM4.25 5.6625C4.0636 5.6625 3.9125 5.8136 3.9125 6C3.9125 6.1864 4.0636 6.3375 4.25 6.3375H7.85C8.0364 6.3375 8.1875 6.1864 8.1875 6C8.1875 5.8136 8.0364 5.6625 7.85 5.6625H4.25ZM4.25 7.4625C4.0636 7.4625 3.9125 7.6136 3.9125 7.8C3.9125 7.9864 4.0636 8.1375 4.25 8.1375H5.6C5.7864 8.1375 5.9375 7.9864 5.9375 7.8C5.9375 7.6136 5.7864 7.4625 5.6 7.4625H4.25Z" fill="white"/>
</svg>
