<svg width="12" height="12" viewBox="0 0 12 12" fill="none" xmlns="http://www.w3.org/2000/svg">
<path d="M6 0C4.81331 0 3.65328 0.351894 2.66658 1.01118C1.67989 1.67047 0.910851 2.60754 0.456726 3.7039C0.00259981 4.80026 -0.11622 6.00665 0.115291 7.17054C0.346802 8.33443 0.918247 9.40352 1.75736 10.2426C2.59648 11.0818 3.66557 11.6532 4.82946 11.8847C5.99335 12.1162 7.19974 11.9974 8.2961 11.5433C9.39246 11.0891 10.3295 10.3201 10.9888 9.33342C11.6481 8.34672 12 7.18669 12 6C11.9982 4.40925 11.3655 2.88417 10.2407 1.75935C9.11582 0.634518 7.59075 0.00179922 6 0ZM5.6254 6.9828C5.67052 7.06861 5.73921 7.13974 5.82339 7.18783C5.90757 7.23592 6.00374 7.25896 6.10057 7.25424C6.25172 7.25657 6.39846 7.20327 6.51288 7.10448C6.63021 7.00463 6.71234 6.77375 6.75927 6.41184L7.94595 6.51012C7.7951 7.54283 7.29562 8.11691 6.44752 8.23236V9.24324H5.70836V8.23236C5.45355 8.20774 5.2077 8.1254 4.98946 7.99161C4.77121 7.85781 4.58631 7.67607 4.44877 7.46016C4.18056 7.0142 4.04374 6.50157 4.05406 5.98127C4.05406 5.29487 4.1982 4.73796 4.48649 4.31052C4.61928 4.10515 4.79972 3.93492 5.01247 3.81432C5.22521 3.69373 5.46395 3.62633 5.70836 3.61787V2.75676H6.44752V3.62256C7.34255 3.73488 7.84202 4.30271 7.94595 5.32607L6.75927 5.39627C6.71904 4.82531 6.50283 4.53983 6.11063 4.53984C6.00876 4.5341 5.90752 4.55915 5.82008 4.61174C5.73265 4.66432 5.66306 4.742 5.62037 4.83467C5.52147 5.03123 5.47203 5.38847 5.47203 5.9064C5.47203 6.44304 5.52316 6.80184 5.6254 6.9828Z" fill="white"/>
</svg>
