<svg width="20" height="20" viewBox="0 0 20 20" fill="none" xmlns="http://www.w3.org/2000/svg">
<path fill-rule="evenodd" clip-rule="evenodd" d="M9.54318 0.84892C9.12997 0.906935 8.71148 1.14693 8.45574 1.47251C8.29989 1.67094 8.23931 1.80428 7.62712 3.29645C6.08492 7.05534 5.3948 8.72632 5.37427 8.75138C5.35845 8.77061 4.99526 8.78302 4.18512 8.792C2.85512 8.80675 2.87513 8.80378 2.57575 9.03182C2.28875 9.25043 2.13294 9.5672 2.13294 9.93216C2.13294 10.4021 2.36021 10.7573 2.8 10.9747L2.984 11.0656L3.6718 11.0849C4.05005 11.0955 4.36423 11.1088 4.36995 11.1145C4.37564 11.1202 3.8679 12.37 3.24161 13.8917C1.68589 17.6719 1.70648 17.6198 1.67753 17.8466C1.58685 18.5567 2.09232 19.1663 2.77178 19.1663C3.06193 19.1663 3.39981 19.0279 3.61288 18.8217C3.83923 18.6026 3.72015 18.8808 5.78851 13.7391C6.36267 12.3118 6.84315 11.13 6.85625 11.1129C6.87464 11.0888 7.12232 11.0817 7.94471 11.0817C9.10142 11.0817 9.17565 11.0745 9.42388 10.9394C9.68639 10.7966 9.88418 10.5569 9.97379 10.2733C10.0115 10.1539 10.02 10.0671 10.013 9.87148C10.0053 9.65349 9.99413 9.60054 9.92463 9.45257C9.81838 9.22642 9.61527 9.01632 9.38623 8.8956L9.20702 8.80118L8.52082 8.77822C8.14341 8.76562 7.8312 8.75222 7.82701 8.74848C7.81506 8.73783 8.01872 8.21876 8.84523 6.15353C9.82615 3.70248 10.0256 3.21917 10.0473 3.24118C10.0676 3.26192 10.9422 5.4335 12.7626 9.98376C15.3889 16.5485 16.1395 18.4018 16.2461 18.5854C16.3337 18.7362 16.5317 18.9221 16.7008 19.0122C17.3637 19.3655 18.1157 19.0786 18.3298 18.3905C18.3645 18.2793 18.3771 18.1633 18.3771 17.9571V17.6756L18.1305 17.0797C17.702 16.0446 12.4457 3.29101 12.1489 2.56636C11.8175 1.75705 11.797 1.71423 11.6377 1.49799C11.4423 1.23269 11.1019 1.00126 10.7416 0.888719C10.5873 0.840536 9.79116 0.814086 9.54318 0.84892Z" fill="white"/>
</svg>
