<svg width="24" height="24" viewBox="0 0 24 24" fill="none" xmlns="http://www.w3.org/2000/svg">
<path fill-rule="evenodd" clip-rule="evenodd" d="M11.4514 1.01909C10.9556 1.08871 10.4534 1.37671 10.1465 1.7674C9.95948 2.00551 9.88678 2.16553 9.15215 3.95613C7.30151 8.4668 6.47337 10.472 6.44873 10.502C6.42975 10.5251 5.99392 10.54 5.02176 10.5508C3.42575 10.5685 3.44977 10.5649 3.09051 10.8386C2.7461 11.1009 2.55914 11.481 2.55914 11.919C2.55914 12.483 2.83186 12.9092 3.35961 13.17L3.58041 13.2792L4.40577 13.3023C4.85967 13.315 5.23669 13.331 5.24355 13.3378C5.25037 13.3447 4.64109 14.8444 3.88954 16.6705C2.02268 21.2066 2.04738 21.1442 2.01265 21.4163C1.90383 22.2685 2.51039 23 3.32574 23C3.67392 23 4.07938 22.8338 4.33507 22.5864C4.60668 22.3236 4.4638 22.6574 6.94582 16.4874C7.63481 14.7746 8.21139 13.3564 8.22712 13.3358C8.24918 13.3069 8.5464 13.2984 9.53327 13.2984C10.9213 13.2984 11.0104 13.2898 11.3083 13.1277C11.6233 12.9563 11.8606 12.6687 11.9682 12.3284C12.0134 12.1851 12.0236 12.0809 12.0153 11.8462C12.006 11.5846 11.9926 11.521 11.9092 11.3435C11.7817 11.0721 11.5379 10.82 11.2631 10.6751L11.048 10.5618L10.2246 10.5343C9.7717 10.5191 9.39706 10.5031 9.39202 10.4986C9.37768 10.4858 9.62208 9.8629 10.6139 7.38463C11.791 4.44337 12.0303 3.8634 12.0563 3.88981C12.0808 3.91469 13.1302 6.52059 15.3147 11.9809C18.4663 19.8586 19.367 22.0826 19.4949 22.3028C19.6 22.4838 19.8376 22.7069 20.0405 22.815C20.8361 23.239 21.7384 22.8947 21.9954 22.069C22.037 21.9355 22.0522 21.7964 22.0522 21.5489V21.2111L21.7562 20.4961C21.242 19.2539 14.9345 3.9496 14.5783 3.08002C14.1806 2.10885 14.156 2.05746 13.9649 1.79798C13.7304 1.47962 13.3219 1.2019 12.8895 1.06685C12.7043 1.00903 11.749 0.977294 11.4514 1.01909Z" fill="#1D1D22"/>
</svg>
