<svg width="20" height="20" viewBox="0 0 20 20" fill="none" xmlns="http://www.w3.org/2000/svg">
<path d="M1 2.69736C1 2.71681 1.0022 2.73588 1.00293 2.75533V2.6427C1.00183 2.66104 1 2.67902 1 2.69736Z" fill="white"/>
<path d="M18.9998 2.64242C18.9998 2.63142 18.9998 2.62041 18.998 2.60977C18.982 2.17487 18.797 1.76336 18.4822 1.46284C18.1674 1.16232 17.7478 0.996522 17.3126 1.00073H17.3024H17.2917H11.3912L17.2099 14.8819H15.9919L11.3402 3.97888H8.6823L5.22173 12.1499H4.00376L7.9651 2.8541H10.9L10.1215 1.00257L2.79643 1.00477C2.76452 1.00294 2.73223 1 2.69995 1C2.66767 1 2.63428 1.00294 2.60163 1.00477C2.18552 1.02171 1.79084 1.19381 1.49528 1.4872C1.19972 1.78059 1.02471 2.17399 1.0047 2.58996V2.70002L1.02304 13.3638C0.998814 13.8195 1.08829 14.274 1.28343 14.6865C1.47856 15.099 1.77321 15.4565 2.14086 15.7268L2.44168 15.8959L3.31444 13.7582H6.41476L7.35611 11.6154H9.07264L8.24171 9.52431L10.0136 5.29224L14.1382 14.8826H12.8909L10.0393 8.23921L9.48572 9.52321L10.787 12.7384H8.07515L7.16168 14.9079H4.11676L3.43367 16.4488L3.72128 16.6098L8.82061 19.4188C9.16558 19.6094 9.55328 19.7094 9.94741 19.7094C10.3415 19.7094 10.7292 19.6094 11.0742 19.4188L18.0603 15.5301C19.0204 15.007 18.9873 13.3723 18.9873 13.3723L18.9987 2.67287C18.998 2.66553 18.9998 2.65416 18.9998 2.64242Z" fill="white"/>
</svg>
