<svg width="20" height="20" viewBox="0 0 20 20" fill="none" xmlns="http://www.w3.org/2000/svg">
<path d="M5.25192 14.6008H0.209963C0.0488097 14.6008 -0.0520882 14.4304 0.028133 14.2937L8.3127 0.179229C8.45212 -0.0582971 8.80113 -0.0605401 8.93997 0.17731C12.2005 5.76305 17.8118 15.2033 19.8753 18.671C20.2266 19.2613 19.7942 20 19.0958 20H4.01187C3.73132 20 3.55893 19.7015 3.70195 19.4655L6.16934 15.3939C6.23454 15.2863 6.35294 15.2203 6.48082 15.2203H11.5283C11.8076 15.2203 11.9818 14.9242 11.8413 14.6882L8.9405 9.81512C8.80094 9.58066 8.45463 9.58051 8.31485 9.81484L5.56466 14.4251C5.49977 14.5339 5.38069 14.6008 5.25192 14.6008Z" fill="white"/>
</svg>
