<svg width="20" height="20" viewBox="0 0 20 20" fill="none" xmlns="http://www.w3.org/2000/svg">
<g clip-path="url(#clip0)">
<path d="M6.19675 8.54732L10.0328 4.71127L13.8708 8.54929L16.103 6.3172L10.0328 0.24707L3.96464 6.31521L6.19675 8.54732ZM0.15625 10.1236L2.38834 7.89151L4.62045 10.1236L2.38834 12.3557L0.15625 10.1236ZM6.19675 11.6999L10.0328 15.536L13.8708 11.6979L16.103 13.929L10.0328 20.0002L3.96464 13.932L3.96169 13.929L6.19675 11.6999ZM15.4451 10.1236L17.6772 7.89151L19.9094 10.1236L17.6772 12.3557L15.4451 10.1236ZM12.2965 10.1216H12.2985V10.1236L10.0328 12.3893L7.77008 10.1276L7.76613 10.1236L7.77008 10.1206L8.16612 9.72362L8.35872 9.53102L10.0328 7.85793L12.2975 10.1226L12.2965 10.1216Z" fill="white"/>
</g>
<defs>
<clipPath id="clip0">
<rect width="20" height="20" fill="white"/>
</clipPath>
</defs>
</svg>
