<svg width="20" height="20" viewBox="0 0 20 20" fill="none" xmlns="http://www.w3.org/2000/svg">
<g clip-path="url(#clip0_4038_4535)">
<path fill-rule="evenodd" clip-rule="evenodd" d="M9.31132 0.0379637L14.1967 2.74494C14.3869 2.85057 14.3869 3.11247 14.1967 3.21811L9.31132 5.92508C9.2242 5.9735 9.11416 5.9735 9.02705 5.92508L4.14173 3.21811C3.95145 3.11247 3.95145 2.85057 4.14173 2.74494L9.02705 0.0379637C9.11645 -0.0126546 9.2242 -0.0126546 9.31132 0.0379637ZM15.3266 4.2602V9.67635C15.3266 9.77318 15.2715 9.86345 15.1844 9.91408L10.1891 12.676C9.9988 12.7817 9.7627 12.6496 9.7627 12.4384V7.0244C9.7627 6.92757 9.81772 6.83733 9.9048 6.78671L14.8979 4.02032C15.0882 3.91688 15.3266 4.04893 15.3266 4.2602ZM9.9048 14.0723L16.7044 10.3155C16.8924 10.2099 17.1308 10.342 17.1285 10.5511V15.9672C17.1285 16.0662 17.0735 16.1565 16.9864 16.2049L10.1891 19.9638C9.9988 20.0673 9.7627 19.9374 9.7627 19.7262V14.31C9.7627 14.2109 9.81772 14.1207 9.9048 14.0723ZM3 9.67181V4.25783C3 4.04656 3.23613 3.91671 3.4264 4.02015L8.41717 6.78654C8.50428 6.83496 8.55931 6.92517 8.55931 7.0242V12.4382C8.55931 12.6495 8.32318 12.7793 8.1329 12.6758L3.14213 9.90726C3.05502 9.85884 3 9.76864 3 9.67181ZM3 16.9601V11.544C3 11.3327 3.23613 11.2028 3.4264 11.3063L8.41717 14.0727C8.50428 14.1233 8.55931 14.2136 8.55931 14.3104V19.7244C8.55931 19.9356 8.32318 20.0677 8.1329 19.962L3.14213 17.1978C3.05502 17.1472 3 17.057 3 16.9601Z" fill="white"/>
</g>
<defs>
<clipPath id="clip0_4038_4535">
<rect width="20" height="20" fill="white"/>
</clipPath>
</defs>
</svg>
