<svg width="20" height="20" viewBox="0 0 20 20" fill="none" xmlns="http://www.w3.org/2000/svg">
<g clip-path="url(#clip0)">
<path fill-rule="evenodd" clip-rule="evenodd" d="M0.761967 12.0329C0.759533 12.0864 0.7583 12.1401 0.7583 12.1939C0.7583 12.3976 0.7759 12.5987 0.810227 12.7968H0.7583V13.1086C0.7583 13.2608 0.768127 13.4116 0.787407 13.5607C1.16398 16.4714 5.14475 18.7615 10 18.7615C14.8553 18.7615 18.836 16.4714 19.2126 13.5607C19.2319 13.4116 19.2417 13.2608 19.2417 13.1086V12.7968H19.1898C19.2241 12.5987 19.2417 12.3976 19.2417 12.1939C19.2417 12.1401 19.2405 12.0864 19.2381 12.0329C19.0986 8.98535 15.016 6.54103 10 6.54103C4.98401 6.54103 0.901373 8.98535 0.761967 12.0329ZM0.00297098 12.0329C0.071712 10.1734 1.32592 8.61153 3.07159 7.54375C4.88117 6.43688 7.3326 5.7771 10 5.7771C12.6674 5.7771 15.1189 6.43688 16.9284 7.54375C18.6741 8.61153 19.9283 10.1734 19.997 12.0329H20V13.1086C20 15.0389 18.7243 16.6604 16.9284 17.7588C15.1189 18.8657 12.6674 19.5255 10 19.5255C7.3326 19.5255 4.88117 18.8657 3.07159 17.7588C1.27573 16.6604 0 15.0389 0 13.1086V12.0329H0.00297098Z" fill="white"/>
<path d="M19.2415 13.1085C19.2415 16.2305 15.1039 18.7614 9.99981 18.7614C4.89575 18.7614 0.758087 16.2305 0.758087 13.1085V12.2136H19.2415V13.1085Z" fill="#F6E0AE"/>
<path d="M19.0415 12.1939C19.0415 13.6575 18.0707 15.0158 16.4309 16.0188C14.7946 17.0197 12.5214 17.6453 9.9998 17.6453C7.4782 17.6453 5.20496 17.0197 3.56871 16.0188C1.92884 15.0158 0.958069 13.6575 0.958069 12.1939C0.958069 10.7303 1.92884 9.37194 3.56871 8.36888C5.20496 7.36802 7.4782 6.74243 9.9998 6.74243C12.5214 6.74243 14.7946 7.36802 16.4309 8.36888C18.0707 9.37194 19.0415 10.7303 19.0415 12.1939Z" fill="#EFC871"/>
<path fill-rule="evenodd" clip-rule="evenodd" d="M9.99981 6.94398C7.50865 6.94398 5.2726 7.56244 3.67253 8.54118L3.56873 8.36895L3.67252 8.54118C2.06532 9.52425 1.15809 10.8277 1.15809 12.1939C1.15809 13.5603 2.06531 14.8636 3.67252 15.8467C5.2726 16.8254 7.50865 17.4439 9.99981 17.4439C12.491 17.4439 14.727 16.8254 16.3271 15.8467C17.9343 14.8636 18.8415 13.5603 18.8415 12.1939C18.8415 10.8277 17.9343 9.52426 16.3271 8.54118C14.727 7.56244 12.491 6.94398 9.99981 6.94398ZM3.46493 8.19673C5.13735 7.17374 7.44777 6.54102 9.99981 6.54102C12.5519 6.54102 14.8622 7.17374 16.5347 8.19673C18.2072 9.21976 19.2415 10.633 19.2415 12.1939C19.2415 13.7549 18.2072 15.1681 16.5347 16.1911C14.8622 17.2141 12.5519 17.8469 9.99981 17.8469C7.44777 17.8469 5.13735 17.2141 3.46493 16.1911C1.79239 15.1681 0.758087 13.7549 0.758087 12.1939C0.758087 10.6331 1.79239 9.21976 3.46493 8.19673Z" fill="white"/>
<path fill-rule="evenodd" clip-rule="evenodd" d="M2.18054 10.5968C2.18051 10.6003 2.18051 10.6039 2.18051 10.6074C2.18051 10.8645 2.21749 11.1163 2.28835 11.3607H2.18042V11.6918C2.18042 11.8379 2.1924 11.9823 2.21572 12.1247C2.56805 14.2741 5.51569 15.9518 9.09981 15.9518C12.6839 15.9518 15.6316 14.2741 15.9839 12.1247C16.0073 11.9823 16.0192 11.8379 16.0192 11.6918V11.3607H15.9114C15.9803 11.1229 16.0173 10.8782 16.0192 10.6285C16.0193 10.6214 16.0193 10.6144 16.0193 10.6074C16.0193 10.6039 16.0193 10.6003 16.0193 10.5968C16.01 8.24893 12.9156 6.34742 9.09988 6.34742C5.28418 6.34742 2.18984 8.24893 2.18054 10.5968ZM1.42225 10.5968H1.42215V11.6918C1.42215 13.235 2.43506 14.5084 3.81168 15.3559C5.20128 16.2115 7.07281 16.7157 9.09981 16.7157C11.1268 16.7157 12.9984 16.2115 14.388 15.3559C15.7645 14.5084 16.7775 13.235 16.7775 11.6918V10.6313C16.7775 10.6233 16.7776 10.6154 16.7776 10.6074C16.7776 9.0642 15.7647 7.79082 14.3881 6.9433C12.9984 6.08777 11.1269 5.5835 9.09988 5.5835C7.07288 5.5835 5.20135 6.08777 3.81174 6.9433C2.43832 7.78887 1.42686 9.05836 1.42225 10.5968Z" fill="white"/>
<path d="M16.0193 11.6919C16.0193 14.0446 12.9213 15.9519 9.09985 15.9519C5.27837 15.9519 2.18045 14.0446 2.18045 11.6919V10.6924H16.0193V11.6919Z" fill="#F6E0AE"/>
<path d="M15.8193 10.6081C15.8193 11.6877 15.1077 12.6977 13.8883 13.4484C12.6724 14.197 10.9799 14.6666 9.09986 14.6666C7.2198 14.6666 5.52731 14.197 4.3114 13.4484C3.09206 12.6977 2.38046 11.6877 2.38046 10.6081C2.38046 9.52845 3.09206 8.51841 4.3114 7.76774C5.52731 7.01913 7.2198 6.54956 9.09986 6.54956C10.9799 6.54956 12.6724 7.01913 13.8883 7.76774C15.1077 8.51841 15.8193 9.52845 15.8193 10.6081Z" fill="#EFC871"/>
<path fill-rule="evenodd" clip-rule="evenodd" d="M9.09985 6.75111C7.25046 6.75111 5.59534 7.21344 4.41568 7.93973L4.41568 7.93974C3.2293 8.6701 2.58045 9.62514 2.58045 10.6081C2.58045 11.5911 3.2293 12.5462 4.41568 13.2765L4.41568 13.2765C5.59534 14.0028 7.25046 14.4652 9.09985 14.4652C10.9492 14.4652 12.6043 14.0028 13.784 13.2765C14.9704 12.5462 15.6193 11.5911 15.6193 10.6081C15.6193 9.62514 14.9704 8.6701 13.784 7.93974L13.8883 7.76781L13.784 7.93973C12.6043 7.21344 10.9492 6.75111 9.09985 6.75111ZM4.2071 7.59589C5.45926 6.82496 7.18911 6.34814 9.09985 6.34814C11.0106 6.34814 12.7404 6.82496 13.9926 7.59589C15.2449 8.36685 16.0193 9.43189 16.0193 10.6081C16.0193 11.7844 15.2449 12.8494 13.9926 13.6204C12.7404 14.3913 11.0106 14.8681 9.09985 14.8681C7.18911 14.8681 5.45926 14.3913 4.2071 13.6204C2.95478 12.8494 2.18045 11.7844 2.18045 10.6081C2.18045 9.43189 2.95478 8.36685 4.2071 7.59589Z" fill="white"/>
<path fill-rule="evenodd" clip-rule="evenodd" d="M4.26569 8.30552C4.26565 8.30908 4.26565 8.31263 4.26565 8.31619C4.26565 8.57322 4.30263 8.82494 4.37349 9.06948H4.26556V9.40052C4.26556 9.54666 4.27753 9.69106 4.30086 9.83344C4.65319 11.9828 7.6008 13.6605 11.1849 13.6605C14.7691 13.6605 17.7167 11.9828 18.0691 9.83344C18.0924 9.69106 18.1043 9.54666 18.1043 9.40052V9.06948H17.9966C18.0655 8.83159 18.1024 8.58692 18.1043 8.33722C18.1044 8.33016 18.1045 8.32318 18.1045 8.31619C18.1045 8.31263 18.1044 8.30908 18.1044 8.30552C18.0951 5.95769 15.0008 4.05617 11.1851 4.05617C7.36933 4.05617 4.27497 5.95769 4.26569 8.30552ZM3.50739 8.30552H3.50729V9.40052C3.50729 10.9438 4.5202 12.2171 5.89681 13.0646C7.2864 13.9202 9.15793 14.4245 11.1849 14.4245C13.212 14.4245 15.0835 13.9202 16.4731 13.0646C17.8497 12.2171 18.8627 10.9438 18.8627 9.40052V8.34004C18.8627 8.33205 18.8627 8.32412 18.8627 8.31619C18.8627 6.77297 17.8498 5.49955 16.4732 4.65204C15.0836 3.79651 13.2121 3.29224 11.1851 3.29224C9.15807 3.29224 7.28647 3.79651 5.89688 4.65204C4.52345 5.49761 3.512 6.76711 3.50739 8.30552Z" fill="white"/>
<path d="M18.1044 9.39989C18.1044 11.7526 15.0065 13.6599 11.185 13.6599C7.36353 13.6599 4.26562 11.7526 4.26562 9.39989V8.40039H18.1044V9.39989Z" fill="#F6E0AE"/>
<path d="M17.9044 8.31583C17.9044 9.39545 17.1928 10.4055 15.9735 11.1562C14.7575 11.9047 13.065 12.3743 11.185 12.3743C9.30491 12.3743 7.61245 11.9047 6.39654 11.1562C5.1772 10.4055 4.46561 9.39545 4.46561 8.31583C4.46561 7.23621 5.1772 6.22618 6.39654 5.47548C7.61245 4.7269 9.30491 4.25732 11.185 4.25732C13.065 4.25732 14.7575 4.7269 15.9735 5.47548C17.1928 6.22618 17.9044 7.23621 17.9044 8.31583Z" fill="#EFC871"/>
<path fill-rule="evenodd" clip-rule="evenodd" d="M11.185 4.45888C9.3356 4.45888 7.68051 4.92121 6.50085 5.64747C5.31448 6.37787 4.66563 7.3329 4.66563 8.3159C4.66563 9.29889 5.31448 10.2539 6.50085 10.9843L6.39656 11.1562L6.50085 10.9843C7.68051 11.7106 9.33561 12.1729 11.185 12.1729C13.0344 12.1729 14.6895 11.7106 15.8692 10.9843C17.0555 10.2539 17.7044 9.29889 17.7044 8.3159C17.7044 7.3329 17.0555 6.37787 15.8692 5.64747C14.6895 4.92121 13.0344 4.45888 11.185 4.45888ZM6.29227 5.30363C7.54442 4.53273 9.27426 4.05591 11.185 4.05591C13.0957 4.05591 14.8256 4.53273 16.0778 5.30363L15.9735 5.47555L16.0778 5.30363C17.3301 6.07462 18.1044 7.13965 18.1044 8.3159C18.1044 9.49215 17.3301 10.5572 16.0778 11.3282C14.8256 12.099 13.0957 12.5759 11.185 12.5759C9.27426 12.5759 7.54442 12.099 6.29227 11.3282C5.03996 10.5572 4.26562 9.49215 4.26562 8.3159C4.26562 7.13965 5.03996 6.07462 6.29227 5.30363L6.39656 5.47555L6.29227 5.30363Z" fill="white"/>
<path fill-rule="evenodd" clip-rule="evenodd" d="M2.18054 6.0133C2.18051 6.01683 2.18051 6.02037 2.18051 6.02393C2.18051 6.28097 2.21749 6.53273 2.28835 6.77726H2.18042V7.10829C2.18042 7.25444 2.1924 7.39883 2.21572 7.54118C2.56805 9.69057 5.51569 11.3683 9.09981 11.3683C12.6839 11.3683 15.6316 9.69057 15.9839 7.54118C16.0073 7.39883 16.0192 7.25444 16.0192 7.10829V6.77726H15.9114C15.9803 6.53938 16.0173 6.2947 16.0192 6.04495C16.0193 6.03794 16.0193 6.03094 16.0193 6.02393C16.0193 6.02037 16.0193 6.01683 16.0193 6.0133C16.01 3.66545 12.9156 1.76393 9.09988 1.76393C5.28418 1.76393 2.18984 3.66545 2.18054 6.0133ZM1.42225 6.0133H1.42215V7.10829C1.42215 8.65151 2.43506 9.9249 3.81168 10.7724C5.20128 11.628 7.07281 12.1322 9.09981 12.1322C11.1268 12.1322 12.9984 11.628 14.388 10.7724C15.7645 9.9249 16.7775 8.65151 16.7775 7.10829V6.04778C16.7775 6.03982 16.7776 6.03186 16.7776 6.02393C16.7776 4.48073 15.7647 3.20731 14.3881 2.35981C12.9984 1.50427 11.1269 1 9.09988 1C7.07288 1 5.20135 1.50427 3.81174 2.35981C2.43832 3.20537 1.42686 4.47488 1.42225 6.0133Z" fill="white"/>
<path d="M16.0193 7.10864C16.0193 9.46135 12.9213 11.3687 9.09985 11.3687C5.27837 11.3687 2.18045 9.46135 2.18045 7.10864V6.10913H16.0193V7.10864Z" fill="#F6E0AE"/>
<path d="M15.8526 6.02371C15.8526 7.11946 15.1306 8.13863 13.9058 8.89272C12.6838 9.645 10.9851 10.1158 9.0999 10.1158C7.2147 10.1158 5.51601 9.645 4.29405 8.89272C3.06924 8.13863 2.34717 7.11946 2.34717 6.02371C2.34717 4.92798 3.06924 3.90879 4.29405 3.15472C5.51601 2.40242 7.2147 1.93164 9.0999 1.93164C10.9851 1.93164 12.6838 2.40242 13.9058 3.15472C15.1306 3.90879 15.8526 4.92798 15.8526 6.02371Z" fill="#EFC871"/>
<path fill-rule="evenodd" clip-rule="evenodd" d="M9.09985 2.09948C7.24021 2.09948 5.57266 2.56422 4.38091 3.29792C3.18355 4.03509 2.51378 5.00845 2.51378 6.02365C2.51378 7.03885 3.18355 8.0122 4.38092 8.74939C5.57266 9.48307 7.24022 9.94783 9.09985 9.94783C10.9595 9.94783 12.627 9.48307 13.8188 8.74939C15.0162 8.0122 15.6859 7.03885 15.6859 6.02365C15.6859 5.00845 15.0162 4.03509 13.8188 3.29792C12.627 2.56422 10.9595 2.09948 9.09985 2.09948ZM4.2071 3.01139C5.45926 2.24048 7.18909 1.76367 9.09985 1.76367C11.0106 1.76367 12.7404 2.24048 13.9926 3.01138L13.9057 3.15465L13.9926 3.01139C15.2449 3.78236 16.0193 4.84737 16.0193 6.02365C16.0193 7.19993 15.2449 8.26494 13.9926 9.03593L13.9926 9.03593C12.7404 9.8068 11.0106 10.2836 9.09985 10.2836C7.18909 10.2836 5.45926 9.8068 4.2071 9.03593L4.20709 9.03593C2.95483 8.26494 2.18045 7.19993 2.18045 6.02365C2.18045 4.84737 2.95483 3.78236 4.20709 3.01139L4.294 3.15465L4.2071 3.01139Z" fill="white"/>
<path fill-rule="evenodd" clip-rule="evenodd" d="M3.81693 6.28944C3.81693 7.07492 4.38348 7.77839 5.27726 8.25175L4.658 9.33231L4.65812 9.33244H4.658V12.0672C4.658 12.4289 4.94898 12.722 5.30795 12.722C5.66692 12.722 5.95794 12.4289 5.95794 12.0672V9.8923L6.62417 8.72967C7.0502 8.82074 7.50753 8.8701 7.98346 8.8701C10.2845 8.8701 12.1499 7.7147 12.1499 6.28944C12.1499 4.86417 10.2845 3.70874 7.98346 3.70874C5.68231 3.70874 3.81693 4.86417 3.81693 6.28944Z" fill="#EFC972"/>
<path fill-rule="evenodd" clip-rule="evenodd" d="M5.27723 8.25126C5.17825 8.1988 5.08324 8.14359 4.9926 8.0857C4.26489 7.62106 3.81689 6.98742 3.81689 6.28896C3.81689 4.86366 5.68231 3.70823 7.98339 3.70823C10.2845 3.70823 12.1499 4.86366 12.1499 6.28896C12.1499 7.71422 10.2845 8.86968 7.98339 8.86968C7.50746 8.86968 7.05019 8.82018 6.62417 8.72918L5.95791 9.89174V12.0667C5.95791 12.4284 5.66692 12.7215 5.30795 12.7215C4.94898 12.7215 4.65797 12.4284 4.65797 12.0667V9.33195L5.27723 8.25126ZM3.99445 9.34344V12.0667C3.99445 12.7975 4.58252 13.3899 5.30795 13.3899C6.03335 13.3899 6.62142 12.7975 6.62142 12.0667V10.0709L6.96699 9.46789C7.29519 9.51396 7.63533 9.53807 7.98339 9.53807C9.23639 9.53807 10.4026 9.22483 11.2771 8.68317C12.1407 8.14823 12.8135 7.32059 12.8135 6.28896C12.8135 5.25729 12.1407 4.42962 11.2771 3.89469C10.4026 3.35303 9.23639 3.03979 7.98339 3.03979C6.73039 3.03979 5.56423 3.35303 4.68973 3.89469C3.82603 4.42962 3.15338 5.25729 3.15338 6.28896C3.15338 7.19435 3.66816 7.93996 4.38335 8.47416L4.08794 8.98963C4.05978 9.03711 4.03731 9.08842 4.02144 9.14262C4.00203 9.20871 3.99325 9.27641 3.99445 9.34344Z" fill="white"/>
<path d="M5.1185 5.20142C5.1185 5.93975 6.05211 6.5383 7.20381 6.5383C8.35548 6.5383 9.28915 5.93975 9.28915 5.20142C9.28915 4.46306 8.35548 3.8645 7.20381 3.8645C6.05211 3.8645 5.1185 4.46306 5.1185 5.20142Z" fill="#F2D38D"/>
<path d="M5.1185 4.62915H9.28915V5.2021H5.1185V4.62915Z" fill="#DFDCD7"/>
<path d="M7.20379 5.86513C6.64402 5.86513 6.14194 5.71947 5.78294 5.48931C5.42274 5.25838 5.21848 4.95175 5.21848 4.62896C5.21848 4.30619 5.42274 3.99956 5.78294 3.76864C6.14194 3.53848 6.64402 3.39282 7.20379 3.39282C7.76352 3.39282 8.26559 3.53848 8.62465 3.76864C8.98485 3.99956 9.18912 4.30619 9.18912 4.62896C9.18912 4.95175 8.98485 5.25838 8.62465 5.48931C8.26559 5.71947 7.76352 5.86513 7.20379 5.86513Z" fill="#F2D38D"/>
<path fill-rule="evenodd" clip-rule="evenodd" d="M7.20381 3.49372C6.66012 3.49372 6.1773 3.63539 5.83665 3.85379L5.83665 3.85379C5.49372 4.07363 5.3185 4.35264 5.3185 4.62911C5.3185 4.90561 5.49373 5.18462 5.83665 5.40447C6.1773 5.62287 6.66012 5.76455 7.20381 5.76455C7.74746 5.76455 8.23028 5.62287 8.571 5.40447L8.62468 5.48947L8.571 5.40447C8.91392 5.18462 9.08915 4.90561 9.08915 4.62911C9.08915 4.35264 8.91392 4.07364 8.571 3.85379M5.72927 3.6838C6.10663 3.44187 6.62796 3.29224 7.20381 3.29224C7.77963 3.29224 8.30095 3.44188 8.67836 3.6838L8.67837 3.6838C9.05584 3.9258 9.28915 4.26004 9.28915 4.62911C9.28915 4.9982 9.05584 5.33246 8.67837 5.57446L8.67836 5.57446C8.30095 5.81639 7.77963 5.96603 7.20381 5.96603C6.62795 5.96603 6.10663 5.81639 5.72927 5.57446L5.78296 5.48947L5.72927 5.57446C5.3518 5.33245 5.1185 4.9982 5.1185 4.62911C5.1185 4.26004 5.3518 3.9258 5.72927 3.6838ZM5.72927 3.6838L5.78296 3.76879L5.72927 3.6838ZM7.20381 3.49372C7.74746 3.49372 8.23027 3.63539 8.57099 3.85379L7.20381 3.49372Z" fill="white"/>
<path d="M6.41251 4.46755L7.00023 4.09073C7.1245 4.0111 7.28317 4.0111 7.40737 4.09073L7.99517 4.46755C8.11223 4.54259 8.11223 4.71475 7.99517 4.7898L7.40737 5.16662C7.28317 5.24625 7.1245 5.24625 7.00023 5.16662L6.41251 4.7898C6.29544 4.71475 6.29544 4.54259 6.41251 4.46755Z" fill="white"/>
<path fill-rule="evenodd" clip-rule="evenodd" d="M5.37353 3.11911C5.87267 2.79912 6.52175 2.62305 7.20427 2.62305C7.88681 2.62305 8.53587 2.79912 9.03501 3.11911C9.52634 3.4341 9.95307 3.95139 9.95307 4.6284V5.20135C9.95307 5.87832 9.52634 6.39565 9.03501 6.71061C8.53587 7.03063 7.88681 7.20667 7.20427 7.20667C6.52175 7.20667 5.87267 7.03063 5.37353 6.71061C4.88224 6.39565 4.45547 5.87832 4.45547 5.20135V4.6284C4.45547 3.95139 4.88224 3.4341 5.37353 3.11911ZM7.20427 3.29149C6.0526 3.29149 5.11899 3.89004 5.11899 4.6284V5.20135C5.11899 5.93968 6.0526 6.53823 7.20427 6.53823C8.35594 6.53823 9.28961 5.93968 9.28961 5.20135V4.6284C9.28961 3.89004 8.35594 3.29149 7.20427 3.29149Z" fill="white"/>
</g>
<defs>
<clipPath id="clip0">
<rect width="20" height="18.5366" fill="white" transform="translate(0 1)"/>
</clipPath>
</defs>
</svg>
