<svg width="20" height="21" viewBox="0 0 20 21" fill="none" xmlns="http://www.w3.org/2000/svg">
<path fill-rule="evenodd" clip-rule="evenodd" d="M10.5151 0.0137346C10.7701 0.0632047 10.9814 0.241167 11.0735 0.484113L13.2126 6.12558H16.6684C16.9829 6.12558 17.264 6.32183 17.3724 6.61709L19.6776 12.8958C19.7621 13.1258 19.7288 13.3827 19.5885 13.5836C19.4482 13.7846 19.2186 13.9043 18.9736 13.9043H15.316L13.0879 16.2717L13.074 16.2586L9.86235 19.7849C9.68623 19.9782 9.42208 20.0659 9.16529 20.0162C8.90849 19.9664 8.69615 19.7865 8.60494 19.5414L6.50753 13.9043H3.05516C2.74063 13.9043 2.45951 13.708 2.35111 13.4128L0.0459549 7.13406C-0.038507 6.90401 -0.00524511 6.6472 0.13504 6.44626C0.275325 6.24531 0.504936 6.12558 0.750005 6.12558H4.38804L9.82122 0.24123C9.99748 0.0503347 10.26 -0.0357356 10.5151 0.0137346ZM13.0283 7.62558L10.7218 10.1814L11.538 12.4043H17.8993L16.1448 7.62558H13.0283ZM10.1375 8.5899L11.8312 6.71317L10.1008 2.14957L6.42966 6.12558H8.7092C9.02373 6.12558 9.30484 6.32183 9.41325 6.61709L10.1375 8.5899ZM9.00173 9.8485L6.69529 12.4043H3.57876L1.82431 7.62558H8.1856L9.00173 9.8485ZM7.89025 13.3191L9.58602 11.44L10.3103 13.4128C10.4187 13.708 10.6998 13.9043 11.0144 13.9043H13.2561L12.1268 15.1042C12.0766 15.1375 12.0297 15.1776 11.9872 15.2242L9.58177 17.8653L7.89025 13.3191Z" fill="white"/>
</svg>
