<svg width="20" height="20" viewBox="0 0 20 20" fill="none" xmlns="http://www.w3.org/2000/svg">
<g clip-path="url(#clip0)">
<path fill-rule="evenodd" clip-rule="evenodd" d="M2.39658 1.46893H9.29343C13.4885 1.46893 16.6684 3.72378 17.8515 7.00488H20V8.98805H18.304C18.3372 9.3014 18.3542 9.62066 18.3542 9.94504V9.99378C18.3542 10.359 18.3327 10.718 18.2907 11.0696H20V13.0528H17.8106C16.5964 16.2882 13.4412 18.5216 9.29343 18.5216H2.39658V13.0528H0V11.0696H2.39658V8.98805H0V7.00488H2.39658V1.46893ZM4.32468 13.0528V16.7426H9.29343C12.3596 16.7426 14.6376 15.2647 15.6981 13.0528H4.32468ZM16.2887 11.0696H4.32468V8.98805H16.2918C16.3362 9.3156 16.3589 9.65137 16.3589 9.99378V10.0425C16.3589 10.3927 16.3352 10.7357 16.2887 11.0696ZM9.29343 3.24503C12.3737 3.24503 14.6586 4.76181 15.7126 7.00488H4.32468V3.24503H9.29343Z" fill="white"/>
</g>
<defs>
<clipPath id="clip0">
<rect width="20" height="20" fill="white"/>
</clipPath>
</defs>
</svg>
