<svg width="20" height="20" viewBox="0 0 20 20" fill="none" xmlns="http://www.w3.org/2000/svg">
<path fill-rule="evenodd" clip-rule="evenodd" d="M8.26054 0.0972695C7.19991 0.299075 6.37785 0.583085 5.38675 1.09023C3.91451 1.84355 2.59169 3.0061 1.65399 4.37063C1.16482 5.08244 0.491374 6.58371 0.245139 7.51134C0.0351879 8.30223 0.00728362 8.57669 0.000597287 9.92123C-0.00519754 11.0968 0.0300172 11.5994 0.157058 12.1526C1.01478 15.8891 3.79309 18.7654 7.50481 19.7594C8.27088 19.9646 8.55215 19.9929 9.88889 19.9996C11.6112 20.0081 12.2923 19.8923 13.626 19.3638C16.6833 18.1526 18.8734 15.6694 19.711 12.465C19.987 11.4091 20.0814 9.7063 19.9237 8.62685C19.4345 5.27711 17.441 2.51885 14.4356 1.03356C12.9239 0.286401 11.9565 0.0494287 10.2455 0.00712175C9.3489 -0.0151028 8.69479 0.0146192 8.26054 0.0972695ZM13.3212 6.99812V7.82373H11.3599H9.39855V8.71629V9.60884H11.137H12.8754V10.4568V11.3047H11.1393H9.40319L9.37858 12.6658L9.35398 14.027L8.26188 14.0521L7.16978 14.0771V10.1248V6.17251H10.2455H13.3212V6.99812Z" fill="white"/>
</svg>
