<svg width="20" height="20" viewBox="0 0 20 20" fill="none" xmlns="http://www.w3.org/2000/svg">
<path fill-rule="evenodd" clip-rule="evenodd" d="M10 20C15.5228 20 20 15.5228 20 10C20 4.47715 15.5228 0 10 0C4.47715 0 0 4.47715 0 10C0 15.5228 4.47715 20 10 20ZM4.70898 8.92443C3.28019 11.5748 4.11001 14.0715 6.31072 15.6399C6.38303 14.3423 7.32787 12.7958 7.80769 12.0879C7.88357 11.976 8.05329 12.0397 8.04584 12.1742C7.94662 13.965 8.41503 14.753 8.94446 15.1787C8.94446 15.1787 9.26318 14.3745 10.4864 13.9847C10.5872 13.9527 10.68 14.0485 10.6586 14.1509C10.4686 15.0604 10.9014 15.8946 11.6778 15.8354C12.0984 15.8033 12.5274 15.2743 12.6554 15.1039C12.6813 15.0693 12.7135 15.0599 12.7472 15.0871C12.8823 15.1961 13.239 15.5419 13.4233 16C16.6904 14.0923 16.0793 10.4881 15.6678 9.11624C15.6135 8.9351 15.3628 8.94211 15.2541 9.09746C14.8381 9.69161 14.105 9.81813 13.8815 9.77667C14.7289 6.20118 12.3832 4.22641 9.38501 3.01544C9.2083 2.94407 9.03542 3.13378 9.11633 3.30466C9.61389 4.35548 10.5866 6.77789 9.23309 7.24146C7.74095 7.75247 7.82654 5.93238 7.9413 5.08427C7.96411 4.91565 7.78459 4.78437 7.63772 4.87307C5.11539 6.3962 5.63819 9.70821 5.7726 10.0149C5.7726 10.0149 5.35001 9.67726 5.1416 9.00082C5.08325 8.81146 4.80315 8.74971 4.70898 8.92443Z" fill="white"/>
</svg>
