<svg width="20" height="20" viewBox="0 0 20 20" fill="none" xmlns="http://www.w3.org/2000/svg">
<path d="M7.66193 6.80402L7.57314 6.89281L5.53917 8.92678L4.92572 9.54023C4.8934 9.58789 4.85231 9.62898 4.80465 9.6613C4.61476 9.78601 4.3597 9.73326 4.23483 9.54346C4.18959 9.47566 4.16594 9.39571 4.16703 9.31422V7.38514C4.20178 6.44314 4.97585 5.6976 5.91854 5.69824H7.66193L7.15346 6.21479L6.56423 6.80402H7.66193Z" fill="white" fill-opacity="0.86"/>
<path d="M15.9999 7.91757V8.04672C15.9706 9.14317 15.5464 10.1922 14.8054 11.0009L9.0343 16.7719C8.71458 17.0577 8.30083 17.2157 7.87202 17.2158C7.75571 17.2136 7.63972 17.2028 7.52498 17.1835L7.18597 17.0786C6.82343 16.9527 6.47009 16.8017 6.12862 16.6266L6.05598 16.5863C5.99266 16.5389 5.95649 16.4635 5.95912 16.3845C5.95831 16.3295 5.97526 16.2757 6.00755 16.2311L12.4808 9.74979C12.5122 9.71557 12.5394 9.67763 12.5615 9.63679C12.6018 9.5595 12.6343 9.47838 12.6584 9.39464C12.6705 9.34149 12.6785 9.28753 12.6826 9.23321C12.6897 9.1987 12.6924 9.16347 12.6907 9.12828C12.6907 8.53093 12.2064 8.04672 11.6091 8.04672H9.24416L10.8342 6.45664C10.8819 6.42431 10.923 6.38323 10.9553 6.33557C10.9981 6.26805 11.0205 6.18955 11.0199 6.10956C11.0199 5.88222 10.8356 5.69795 10.6082 5.69795H7.2344C7.2344 5.69795 7.55726 5.34279 7.68637 5.21365C7.97695 4.89885 8.3321 4.49531 8.71954 4.2128C9.50068 3.63826 10.4457 3.32984 11.4154 3.33303C11.9896 3.33372 12.5587 3.44047 13.0942 3.64779L13.3122 3.73657C13.6998 3.91496 14.061 4.14581 14.3856 4.42267L14.4502 4.47917H14.4583C15.4382 5.35022 15.9992 6.59846 15.9999 7.9095V7.91757Z" fill="white"/>
<path fill-rule="evenodd" clip-rule="evenodd" d="M7.2583 5.69824H11.3262C11.5536 5.69824 11.7379 5.88252 11.7379 6.10986C11.7398 6.19122 11.7142 6.27085 11.6653 6.33586L9.96218 8.04701H5.55522C5.44766 8.0481 5.35004 7.98442 5.30766 7.88558C5.26532 7.78674 5.28655 7.67213 5.3615 7.595L7.2583 5.69824ZM9.36491 6.61833C9.36927 6.76229 9.48724 6.8767 9.63128 6.87662C9.7739 6.8744 9.88776 6.75696 9.8855 6.61429C9.88328 6.47167 9.76583 6.35782 9.62321 6.36008C9.57449 6.35996 9.52683 6.374 9.48599 6.40044C9.45334 6.42094 9.42577 6.4485 9.40527 6.48111C9.37993 6.52248 9.366 6.56986 9.36491 6.61833Z" fill="white"/>
<path opacity="0.48" d="M9.87267 6.61767C9.87275 6.47811 9.76197 6.36373 9.62245 6.35938C9.53027 6.36184 9.4454 6.41031 9.39648 6.48852C9.44572 6.4459 9.50892 6.4229 9.57402 6.42395C9.71225 6.42395 9.82424 6.53598 9.82424 6.67417V6.68224C9.82582 6.7249 9.81456 6.76708 9.79196 6.80332C9.84382 6.75557 9.87312 6.68813 9.87267 6.61767Z" fill="white"/>
<path opacity="0.75" d="M11.327 5.69824H7.25904L5.37032 7.595C5.29638 7.67108 5.27459 7.78376 5.31491 7.88191C5.35518 7.98002 5.4499 8.04491 5.55596 8.04701H9.96296L11.666 6.33586C11.7149 6.27085 11.7405 6.19122 11.7386 6.10986C11.7386 5.88252 11.5544 5.69824 11.327 5.69824Z" fill="#D9D9D9" fill-opacity="0.6"/>
<path opacity="0.75" fill-rule="evenodd" clip-rule="evenodd" d="M7.25904 5.69824H11.327C11.5544 5.69824 11.7386 5.88252 11.7386 6.10986C11.7405 6.19122 11.7149 6.27085 11.666 6.33586L9.96296 8.04701H5.55596C5.4499 8.04491 5.35518 7.98002 5.31491 7.88191C5.27459 7.78376 5.29638 7.67108 5.37032 7.595L7.25904 5.69824ZM9.44133 6.80099C9.48976 6.84946 9.55547 6.87666 9.62395 6.87666C9.76182 6.86871 9.87063 6.75644 9.87418 6.61837C9.87422 6.47881 9.76343 6.36444 9.62395 6.36008C9.57528 6.36 9.52762 6.374 9.48674 6.40044C9.45413 6.42094 9.42652 6.44854 9.40602 6.48115C9.38068 6.52252 9.36675 6.56986 9.36566 6.61837C9.36566 6.68686 9.39286 6.75256 9.44133 6.80099Z" fill="white"/>
<path d="M7.78288 5.69824H7.22593L5.35339 7.56271C5.27086 7.64359 5.24584 7.76652 5.29031 7.87319C5.33475 7.97986 5.43964 8.04871 5.55518 8.04701H6.41881L8.76758 5.69824H7.78288Z" fill="white"/>
<path opacity="0.89" d="M7.78288 5.69824H7.22593L5.35339 7.56271C5.27086 7.64359 5.24584 7.76652 5.29031 7.87319C5.33475 7.97986 5.43964 8.04871 5.55518 8.04701H6.41881L8.76758 5.69824H7.78288Z" fill="white"/>
</svg>
