<svg width="24" height="24" viewBox="0 0 24 24" fill="none" xmlns="http://www.w3.org/2000/svg">
<path d="M9.19393 8.16482L9.08738 8.27137L6.64661 10.7121L5.91048 11.4483C5.87168 11.5055 5.82238 11.5548 5.76519 11.5936C5.53732 11.7432 5.23125 11.6799 5.08141 11.4521C5.02712 11.3708 4.99874 11.2748 5.00004 11.1771V8.86216C5.04174 7.73176 5.97063 6.83712 7.10185 6.83789H9.19393L8.58376 7.45775L7.87668 8.16482H9.19393Z" fill="#1D1D22" fill-opacity="0.86"/>
<path d="M19.1995 9.50147V9.65645C19.1643 10.9722 18.6553 12.231 17.766 13.2014L10.8408 20.1267C10.4571 20.4696 9.9606 20.6592 9.44603 20.6594C9.30646 20.6567 9.16727 20.6437 9.02958 20.6206L8.62277 20.4947C8.18773 20.3437 7.76372 20.1624 7.35396 19.9523L7.26678 19.9039C7.1908 19.847 7.1474 19.7566 7.15055 19.6618C7.14958 19.5958 7.16992 19.5312 7.20867 19.4777L14.9766 11.7001C15.0143 11.6591 15.0469 11.6135 15.0734 11.5645C15.1218 11.4718 15.1607 11.3745 15.1897 11.274C15.2042 11.2102 15.2138 11.1454 15.2187 11.0802C15.2273 11.0388 15.2305 10.9966 15.2284 10.9543C15.2284 10.2375 14.6473 9.65645 13.9305 9.65645H11.0926L13.0007 7.74836C13.0579 7.70957 13.1072 7.66027 13.146 7.60307C13.1974 7.52205 13.2242 7.42785 13.2235 7.33186C13.2235 7.05906 13.0023 6.83793 12.7295 6.83793H8.68089C8.68089 6.83793 9.06833 6.41174 9.22325 6.25677C9.57195 5.87901 9.99813 5.39476 10.4631 5.05575C11.4004 4.36631 12.5345 3.9962 13.6981 4.00003C14.3871 4.00085 15.0701 4.12895 15.7127 4.37773L15.9742 4.48428C16.4393 4.69834 16.8728 4.97536 17.2624 5.30759L17.3399 5.37539H17.3496C18.5254 6.42065 19.1986 7.91854 19.1995 9.49179V9.50147Z" fill="#1D1D22"/>
<path fill-rule="evenodd" clip-rule="evenodd" d="M8.71034 6.83789H13.5919C13.8647 6.83789 14.0859 7.05902 14.0859 7.33183C14.0881 7.42946 14.0574 7.52501 13.9987 7.60304L11.955 9.65642H6.66665C6.53759 9.65772 6.42043 9.5813 6.36958 9.4627C6.31878 9.34409 6.34425 9.20655 6.43419 9.114L8.71034 6.83789ZM11.2383 7.942C11.2435 8.11475 11.3851 8.25204 11.5579 8.25195C11.7291 8.24928 11.8657 8.10835 11.863 7.93715C11.8603 7.766 11.7194 7.62938 11.5482 7.63209C11.4898 7.63195 11.4326 7.6488 11.3836 7.68052C11.3444 7.70513 11.3113 7.7382 11.2867 7.77733C11.2563 7.82698 11.2396 7.88383 11.2383 7.942Z" fill="#1D1D22"/>
<path opacity="0.48" d="M11.8478 7.94081C11.8479 7.77334 11.7149 7.63609 11.5475 7.63086C11.4369 7.63381 11.3351 7.69198 11.2764 7.78584C11.3355 7.73469 11.4113 7.70709 11.4894 7.70835C11.6553 7.70835 11.7897 7.84279 11.7897 8.00861V8.0183C11.7916 8.06949 11.7781 8.1201 11.7509 8.16359C11.8132 8.1063 11.8483 8.02537 11.8478 7.94081Z" fill="white"/>
<path opacity="0.75" d="M13.592 6.83789H8.71046L6.44399 9.114C6.35527 9.20529 6.32911 9.34051 6.3775 9.45829C6.42583 9.57602 6.53949 9.6539 6.66677 9.65642H11.9552L13.9988 7.60304C14.0575 7.52501 14.0882 7.42946 14.086 7.33183C14.086 7.05902 13.8649 6.83789 13.592 6.83789Z" fill="#D9D9D9" fill-opacity="0.6"/>
<path opacity="0.75" fill-rule="evenodd" clip-rule="evenodd" d="M8.71046 6.83789H13.592C13.8649 6.83789 14.086 7.05902 14.086 7.33183C14.0882 7.42946 14.0575 7.52501 13.9988 7.60304L11.9552 9.65642H6.66677C6.53949 9.6539 6.42583 9.57602 6.3775 9.45829C6.32911 9.34051 6.35527 9.20529 6.44399 9.114L8.71046 6.83789ZM11.3292 8.16119C11.3873 8.21935 11.4662 8.252 11.5484 8.252C11.7138 8.24246 11.8444 8.10772 11.8486 7.94204C11.8487 7.77457 11.7157 7.63732 11.5484 7.63209C11.4899 7.632 11.4328 7.6488 11.3837 7.68052C11.3446 7.70513 11.3114 7.73825 11.2868 7.77738C11.2564 7.82702 11.2397 7.88383 11.2384 7.94204C11.2384 8.02423 11.271 8.10307 11.3292 8.16119Z" fill="#1D1D22"/>
<path d="M9.33945 6.83789H8.67112L6.42407 9.07526C6.32503 9.17231 6.295 9.31983 6.34837 9.44783C6.40169 9.57583 6.52756 9.65845 6.66622 9.65641H7.70257L10.5211 6.83789H9.33945Z" fill="#1D1D22"/>
<path opacity="0.89" d="M9.33945 6.83789H8.67112L6.42407 9.07526C6.32503 9.17231 6.295 9.31983 6.34837 9.44783C6.40169 9.57583 6.52756 9.65845 6.66622 9.65641H7.70257L10.5211 6.83789H9.33945Z" fill="#1D1D22"/>
</svg>
