<svg width="20" height="20" viewBox="0 0 20 20" fill="none" xmlns="http://www.w3.org/2000/svg">
<path fill-rule="evenodd" clip-rule="evenodd" d="M3.00065 0.584878C3.04991 0.635317 3.4447 1.01478 3.87797 1.42813C5.20817 2.69717 5.59489 3.06752 5.62463 3.10083C5.64036 3.11844 5.65821 3.13284 5.66431 3.13284C5.6704 3.13284 5.75545 3.08517 5.85329 3.02692C6.19407 2.82403 6.81531 2.52424 7.19192 2.38095C7.86176 2.12612 8.69478 1.9386 9.32479 1.9008C9.63793 1.88202 10.601 1.89257 10.9003 1.91806C11.5853 1.97638 12.49 2.2168 13.2225 2.53515C13.57 2.68616 14.0769 2.95385 14.35 3.13063C14.4029 3.16484 14.4536 3.19283 14.4626 3.19282C14.4784 3.19282 14.8577 2.80334 15.989 1.62552C16.2821 1.32031 16.6501 0.939734 16.8068 0.779794C17.0819 0.498893 17.0928 0.489655 17.1283 0.508252C17.2169 0.554822 19.4597 2.67097 19.4999 2.74601C19.5116 2.76792 19.4864 2.80301 19.3599 2.94121C19.115 3.20864 18.747 3.59696 17.7657 4.62331C17.262 5.15022 16.8452 5.58914 16.8396 5.5987C16.834 5.60824 16.8704 5.68669 16.9205 5.77302C17.0394 5.97814 17.3408 6.59156 17.4581 6.86737C17.7477 7.54838 17.9434 8.34772 18.0308 9.20708C18.0565 9.45886 18.0564 10.3847 18.0307 10.6319C17.919 11.7084 17.6595 12.6133 17.2027 13.5191C17.107 13.7088 16.9687 13.9643 16.8954 14.0869C16.8022 14.2427 16.7662 14.3157 16.7759 14.3294C16.7835 14.3402 17.0666 14.6107 17.405 14.9306C17.9925 15.486 18.6586 16.1214 19.31 16.748C19.4754 16.9071 19.6127 17.0488 19.615 17.0629C19.6196 17.0905 19.3872 17.3447 18.6592 18.1085C17.8593 18.9477 17.3497 19.4658 17.3242 19.4658C17.3103 19.4658 17.2147 19.3865 17.1118 19.2896C16.6353 18.8405 15.649 17.9021 15.0514 17.3294C14.6894 16.9825 14.3851 16.6967 14.375 16.6943C14.365 16.6919 14.2627 16.7467 14.1478 16.8161C13.1642 17.4097 11.9955 17.7956 10.8028 17.9206C10.5488 17.9472 9.9102 17.9558 9.55737 17.9375C9.11835 17.9147 8.86039 17.8854 8.54732 17.8228C7.48719 17.611 6.60191 17.2672 5.745 16.7345C5.65362 16.6776 5.57249 16.6312 5.56472 16.6312C5.54439 16.6312 5.30306 16.8786 4.44567 17.7785C3.19916 19.0869 2.79776 19.5031 2.77844 19.5073C2.75683 19.512 2.60294 19.3708 1.93482 18.7333C1.00117 17.8425 0.380036 17.2282 0.384793 17.2006C0.389054 17.1759 0.711527 16.8306 1.46981 16.0387C1.8727 15.618 2.82794 14.6117 3.02731 14.398C3.11589 14.3031 3.17274 14.2298 3.17272 14.2106C3.17271 14.1691 3.11105 14.0407 2.98477 13.819C2.77691 13.4542 2.54319 12.927 2.39956 12.4992C1.74839 10.5594 1.84886 8.48948 2.68532 6.61241C2.79478 6.36678 2.93158 6.10503 3.112 5.7961C3.20317 5.63997 3.27777 5.5076 3.27777 5.50195C3.27777 5.49629 3.24233 5.45895 3.199 5.41896C3.00945 5.24407 1.17245 3.48793 0.903636 3.22466C0.740427 3.06481 0.606882 2.92387 0.606882 2.91148C0.606882 2.88846 0.69064 2.79713 1.38716 2.06086C1.60586 1.82968 2.02655 1.38237 2.32204 1.06684C2.62731 0.740873 2.87046 0.493164 2.88518 0.493164C2.89944 0.493164 2.9514 0.534439 3.00065 0.584878ZM5.8556 7.41205C6.64842 6.10244 7.96069 5.2656 9.49735 5.08971C9.73455 5.06256 10.3901 5.07082 10.6302 5.10398C11.5635 5.23285 12.4235 5.59781 13.076 6.1419C13.2727 6.30591 13.6314 6.66339 13.7914 6.85485C14.2525 7.40686 14.6093 8.14998 14.7643 8.88146C15.2159 11.0127 14.2427 13.1348 12.3331 14.183C10.8292 15.0085 8.97467 14.9643 7.49598 14.0679C6.42719 13.4199 5.65061 12.3838 5.31967 11.1643C5.1998 10.7226 5.15796 10.3174 5.17333 9.74702C5.18674 9.24968 5.2255 8.97812 5.33972 8.5815C5.43837 8.23889 5.66216 7.7316 5.8556 7.41205Z" fill="white"/>
</svg>
