<svg width="24" height="24" viewBox="0 0 24 24" fill="none" xmlns="http://www.w3.org/2000/svg">
<path fill-rule="evenodd" clip-rule="evenodd" d="M3.60097 0.701853C3.66008 0.76238 4.13384 1.21774 4.65376 1.71376C6.25 3.23661 6.71407 3.68103 6.74975 3.721C6.76862 3.74213 6.79005 3.75941 6.79736 3.75941C6.80467 3.75941 6.90673 3.70221 7.02415 3.6323C7.43308 3.38883 8.17857 3.02909 8.6305 2.85714C9.43431 2.55134 10.4339 2.32631 11.1899 2.28096C11.5657 2.25843 12.7214 2.27108 13.0806 2.30168C13.9025 2.37165 14.9882 2.66015 15.8672 3.04218C16.2842 3.22339 16.8924 3.54462 17.2202 3.75676C17.2837 3.79781 17.3445 3.8314 17.3553 3.83138C17.3743 3.83138 17.8295 3.36401 19.187 1.95063C19.5388 1.58437 19.9804 1.12768 20.1683 0.935752C20.4985 0.598672 20.5116 0.587585 20.5541 0.609903C20.6605 0.665786 23.3518 3.20516 23.4 3.29521C23.4141 3.3215 23.3839 3.36362 23.232 3.52945C22.9382 3.85037 22.4966 4.31635 21.3191 5.54797C20.7146 6.18027 20.2145 6.70697 20.2077 6.71844C20.201 6.72988 20.2447 6.82403 20.3048 6.92762C20.4475 7.17376 20.8092 7.90987 20.9499 8.24085C21.2975 9.05806 21.5323 10.0173 21.6372 11.0485C21.6679 11.3506 21.6679 12.4617 21.6371 12.7583C21.503 14.0501 21.1915 15.136 20.6434 16.2229C20.5286 16.4505 20.3626 16.7572 20.2746 16.9043C20.1628 17.0912 20.1196 17.1788 20.1313 17.1953C20.1404 17.2082 20.4801 17.5329 20.8862 17.9167C21.5912 18.5832 22.3905 19.3457 23.1722 20.0976C23.3707 20.2885 23.5354 20.4586 23.5382 20.4755C23.5437 20.5086 23.2649 20.8136 22.3913 21.7302C21.4314 22.7372 20.8199 23.359 20.7893 23.359C20.7725 23.359 20.6578 23.2638 20.5344 23.1475C19.9625 22.6085 18.779 21.4826 18.0618 20.7952C17.6275 20.379 17.2623 20.036 17.2502 20.0332C17.2382 20.0303 17.1155 20.0961 16.9775 20.1793C15.7972 20.8917 14.3948 21.3547 12.9635 21.5047C12.6587 21.5366 11.8924 21.547 11.469 21.525C10.9422 21.4976 10.6327 21.4624 10.257 21.3874C8.98482 21.1332 7.92248 20.7206 6.8942 20.0813C6.78454 20.0132 6.68718 19.9574 6.67786 19.9574C6.65346 19.9574 6.36387 20.2543 5.335 21.3342C3.83919 22.9043 3.35751 23.4037 3.33432 23.4088C3.30839 23.4144 3.12372 23.245 2.32199 22.48C1.2016 21.411 0.456239 20.6739 0.461947 20.6407C0.46706 20.6111 0.854027 20.1967 1.76396 19.2465C2.24744 18.7416 3.39372 17.5341 3.63297 17.2777C3.73926 17.1637 3.80748 17.0758 3.80746 17.0527C3.80745 17.0029 3.73346 16.8488 3.58192 16.5828C3.33248 16.145 3.05202 15.5125 2.87967 14.999C2.09826 12.6713 2.21883 10.1874 3.22257 7.93489C3.35393 7.64014 3.51809 7.32604 3.73459 6.95532C3.844 6.76797 3.93352 6.60912 3.93352 6.60233C3.93352 6.59555 3.89099 6.55073 3.83899 6.50275C3.61154 6.29288 1.40714 4.18552 1.08456 3.86959C0.888707 3.67777 0.728454 3.50864 0.728454 3.49378C0.728454 3.46615 0.828963 3.35656 1.66478 2.47303C1.92722 2.19561 2.43206 1.65885 2.78665 1.28021C3.15296 0.889048 3.44475 0.591797 3.46241 0.591797C3.47952 0.591797 3.54188 0.641327 3.60097 0.701853ZM7.02692 8.89446C7.9783 7.32293 9.55302 6.31872 11.397 6.10765C11.6817 6.07507 12.4683 6.08499 12.7565 6.12478C13.8764 6.27942 14.9084 6.71738 15.6914 7.37028C15.9275 7.56709 16.3578 7.99606 16.5498 8.22582C17.1032 8.88823 17.5314 9.77998 17.7174 10.6578C18.2593 13.2152 17.0914 15.7618 14.7999 17.0196C12.9952 18.0102 10.7698 17.9572 8.99537 16.8814C7.71282 16.1039 6.78092 14.8606 6.3838 13.3972C6.23995 12.8671 6.18975 12.3809 6.20819 11.6964C6.22428 11.0996 6.27079 10.7737 6.40785 10.2978C6.52624 9.88667 6.79479 9.27792 7.02692 8.89446Z" fill="#1D1D22"/>
</svg>
