<svg width="20" height="20" viewBox="0 0 20 20" fill="none" xmlns="http://www.w3.org/2000/svg">
<path d="M16.1029 11.5809V18.0147C15.5147 18.6765 14.7427 19.1544 13.75 19.4853C12.7941 19.8529 11.7279 20 10.5515 20C8.45586 20 6.72794 19.3382 5.33088 17.9779C4.26471 16.9853 3.60294 15.772 3.34559 14.375H2.5V13.272H3.23529C3.23529 13.1985 3.23529 13.0882 3.23529 13.0147C3.23529 12.9044 3.23529 12.7941 3.23529 12.647H2.5V11.5441H3.38235C3.60294 10.2573 4.22794 9.08088 5.22059 8.08823C5.77206 7.53674 6.36029 7.09558 7.02206 6.80145C6.875 6.50733 6.72794 6.21325 6.65441 5.88237C6.61765 5.69852 6.58088 5.51472 6.54411 5.33088C6.54411 5.18384 6.54411 5.07351 6.54411 4.92648C6.54411 4.77941 6.54411 4.66912 6.58088 4.55882C6.58088 4.48529 6.65441 4.41176 6.72794 4.375C6.80147 4.33823 6.875 4.375 6.91176 4.41176C7.05883 4.52206 7.16912 4.63235 7.27941 4.74264C7.31617 4.77941 7.3897 4.81617 7.42645 4.85294C7.50002 4.8897 7.61029 4.8897 7.64705 4.81617C7.68381 4.77941 7.68381 4.74264 7.68381 4.70588C7.68381 4.59559 7.68381 4.48529 7.68381 4.375V4.30147C7.68381 4.11765 7.68381 3.97059 7.72057 3.78676C7.75733 3.34558 7.8309 2.90441 7.97794 2.46324C8.08822 2.05882 8.27206 1.69117 8.49267 1.32353C8.67647 1.06618 8.89707 0.772061 9.1912 0.588234C9.41175 0.367648 9.74264 0.220588 10.0735 0.0735297C10.147 0.0735297 10.2206 0.0367643 10.2941 0C10.3309 0 10.4044 -5.16111e-07 10.4412 0.0367643C10.4779 0.0735291 10.4779 0.110294 10.4779 0.147059C10.4412 0.257353 10.4412 0.330882 10.4044 0.441177C10.3676 0.55147 10.3676 0.698527 10.3309 0.808825C10.3309 0.919118 10.2941 1.02941 10.2941 1.17647C10.2941 1.28676 10.2941 1.39706 10.2941 1.50735C10.2941 1.7647 10.3309 2.05882 10.4412 2.27941C10.4779 2.46323 10.5883 2.61029 10.6618 2.75735C10.772 2.86764 10.8456 2.94118 10.9927 3.05147C11.1029 3.125 11.25 3.16176 11.3971 3.125C11.5441 3.125 11.6544 3.08823 11.7647 3.0147C11.9118 2.94118 12.0221 2.83088 12.0956 2.68382C12.1323 2.64706 12.1691 2.57353 12.2059 2.53676C12.2059 2.53676 12.2059 2.5 12.2427 2.5C12.2794 2.42647 12.4265 2.42647 12.4632 2.5C12.5 2.57353 12.5735 2.68382 12.6103 2.75735C12.7206 2.97794 12.8309 3.23529 12.8676 3.49265C12.8676 3.56617 12.9044 3.67647 12.9044 3.78676C12.9044 3.89705 12.9044 3.97059 12.9044 4.04412C12.9044 4.33823 12.8676 4.63235 12.7574 4.88971C12.7574 4.92648 12.7206 4.96323 12.7574 5.03675C12.7941 5.14708 12.9044 5.2206 13.0515 5.18384C13.0882 5.18384 13.0882 5.14703 13.125 5.14703C13.1985 5.11027 13.3088 5.03675 13.3824 4.96323C13.3824 4.96323 13.4191 4.92648 13.4559 4.92648C13.4926 4.92648 13.5294 4.96323 13.5294 4.99999V5.18384C13.5294 5.25736 13.5294 5.33088 13.5294 5.36764C13.5294 5.51472 13.4926 5.625 13.4926 5.73528C13.3824 5.99265 13.2721 6.25001 13.1618 6.50733C14.2279 6.87502 15.1103 7.49998 15.8823 8.34559L13.75 10.4412C12.8676 9.48528 11.7279 8.9706 10.3676 8.9706C9.1912 8.9706 8.19854 9.375 7.42645 10.147C6.98529 10.5882 6.69118 11.0662 6.50735 11.5809H7.64705V12.6838H6.28676C6.28676 12.7941 6.28676 12.9044 6.28676 13.0515C6.28676 13.125 6.28676 13.2353 6.28676 13.3088H7.64705V14.4117H6.47059C6.65441 15 6.98529 15.5147 7.42645 15.9559C8.19854 16.7279 9.22796 17.0956 10.5147 17.0956C11.6912 17.0956 12.5735 16.875 13.125 16.4338V14.4117H10.5147V11.5809H16.1029Z" fill="white"/>
</svg>
