<svg width="24" height="24" viewBox="0 0 24 24" fill="none" xmlns="http://www.w3.org/2000/svg">
<path d="M19.3235 13.897V21.6176C18.6176 22.4118 17.6912 22.9853 16.5 23.3823C15.3529 23.8235 14.0735 24 12.6618 24C10.147 24 8.07353 23.2059 6.39706 21.5735C5.11765 20.3823 4.32353 18.9264 4.01471 17.25H3V15.9265H3.88235C3.88235 15.8382 3.88235 15.7059 3.88235 15.6176C3.88235 15.4853 3.88235 15.3529 3.88235 15.1764H3V13.8529H4.05882C4.32353 12.3088 5.07353 10.8971 6.26471 9.70587C6.92647 9.04409 7.63235 8.51469 8.42647 8.16174C8.25 7.80879 8.07353 7.4559 7.98529 7.05884C7.94118 6.83823 7.89706 6.61767 7.85294 6.39705C7.85294 6.22061 7.85294 6.08822 7.85294 5.91177C7.85294 5.73529 7.85294 5.60294 7.89706 5.47059C7.89706 5.38235 7.98529 5.29412 8.07353 5.24999C8.16176 5.20588 8.25 5.24999 8.29412 5.29412C8.47059 5.42647 8.60294 5.55882 8.73529 5.69117C8.77941 5.73529 8.86764 5.77941 8.91174 5.82352C9.00002 5.86764 9.13235 5.86764 9.17646 5.77941C9.22058 5.73529 9.22058 5.69117 9.22058 5.64706C9.22058 5.5147 9.22058 5.38235 9.22058 5.24999V5.16176C9.22058 4.94117 9.22058 4.76471 9.26469 4.54411C9.3088 4.0147 9.39708 3.48529 9.57352 2.95588C9.70586 2.47059 9.92648 2.02941 10.1912 1.58824C10.4118 1.27941 10.6765 0.926473 11.0294 0.705881C11.2941 0.441178 11.6912 0.264706 12.0882 0.0882356C12.1764 0.0882356 12.2647 0.0441172 12.353 0C12.3971 0 12.4853 -6.19333e-07 12.5294 0.0441172C12.5735 0.088235 12.5735 0.132353 12.5735 0.176471C12.5294 0.308823 12.5294 0.397058 12.4853 0.529412C12.4412 0.661764 12.4412 0.838233 12.3971 0.97059C12.3971 1.10294 12.353 1.23529 12.353 1.41176C12.353 1.54411 12.353 1.67647 12.353 1.80882C12.353 2.11764 12.3971 2.47059 12.5294 2.73529C12.5735 2.95588 12.7059 3.13235 12.7941 3.30882C12.9265 3.44117 13.0147 3.52941 13.1912 3.66176C13.3235 3.75 13.5 3.79411 13.6765 3.75C13.8529 3.75 13.9853 3.70588 14.1176 3.61765C14.2941 3.52941 14.4265 3.39705 14.5147 3.22059C14.5588 3.17647 14.6029 3.08823 14.647 3.04412C14.647 3.04412 14.647 3 14.6912 3C14.7353 2.91176 14.9118 2.91176 14.9559 3C15 3.08823 15.0882 3.22059 15.1324 3.30882C15.2647 3.57353 15.397 3.88235 15.4412 4.19118C15.4412 4.27941 15.4853 4.41176 15.4853 4.54411C15.4853 4.67647 15.4853 4.76471 15.4853 4.85294C15.4853 5.20588 15.4412 5.55882 15.3088 5.86765C15.3088 5.91177 15.2647 5.95588 15.3088 6.0441C15.3529 6.1765 15.4853 6.26472 15.6618 6.22061C15.7059 6.22061 15.7059 6.17644 15.75 6.17644C15.8382 6.13233 15.9706 6.0441 16.0588 5.95588C16.0588 5.95588 16.1029 5.91177 16.1471 5.91177C16.1912 5.91177 16.2353 5.95588 16.2353 5.99999V6.22061C16.2353 6.30883 16.2353 6.39705 16.2353 6.44116C16.2353 6.61767 16.1912 6.75 16.1912 6.88234C16.0588 7.19118 15.9265 7.50001 15.7941 7.80879C17.0735 8.25002 18.1324 8.99997 19.0588 10.0147L16.5 12.5294C15.4412 11.3823 14.0735 10.7647 12.4412 10.7647C11.0294 10.7647 9.83825 11.25 8.91174 12.1765C8.38235 12.7059 8.02941 13.2794 7.80882 13.897H9.17646V15.2206H7.54412C7.54412 15.3529 7.54412 15.4853 7.54412 15.6618C7.54412 15.75 7.54412 15.8823 7.54412 15.9706H9.17646V17.2941H7.7647C7.98529 18 8.38235 18.6177 8.91174 19.147C9.83825 20.0735 11.0735 20.5147 12.6176 20.5147C14.0294 20.5147 15.0882 20.25 15.75 19.7206V17.2941H12.6176V13.897H19.3235Z" fill="#1D1D22"/>
</svg>
