<svg width="24" height="24" viewBox="0 0 24 24" fill="none" xmlns="http://www.w3.org/2000/svg">
<g clip-path="url(#clip0_692_24954)">
<path fill-rule="evenodd" clip-rule="evenodd" d="M10.7533 0.0372154C8.81518 0.255939 6.87891 0.956314 5.3019 2.00892C4.40169 2.60976 3.26616 3.65192 2.58367 4.50351C1.4117 5.96601 0.528259 7.90949 0.153343 9.85023C0.0182755 10.5493 0.00374594 10.75 0.000225351 11.9638C-0.00396583 13.4348 0.0478932 13.8812 0.359717 15.0556C0.851203 16.9068 1.76024 18.5976 3.02319 20.0091C4.58029 21.7495 6.65147 23.0261 8.8738 23.6154C9.89762 23.8868 10.4273 23.9594 11.6186 23.9912C12.8674 24.0245 13.5464 23.9679 14.5504 23.7469C15.6625 23.502 17.1076 22.9637 17.4084 22.6823C17.6955 22.4138 17.6364 21.9231 17.2958 21.7469C17.0504 21.62 16.9498 21.6347 16.3654 21.8835C13.9598 22.9073 11.6294 23.0776 9.09705 22.4146C5.78775 21.5482 2.91511 18.8599 1.78109 15.5682C1.36325 14.3554 1.19689 13.3387 1.19589 11.9918C1.1946 10.2444 1.52352 8.80478 2.27486 7.26969C3.90993 3.92909 7.04119 1.71347 10.7706 1.25836C11.642 1.15201 13.2396 1.22047 14.1034 1.40125C17.9164 2.19908 20.9479 4.85501 22.2037 8.49793C22.9153 10.5624 22.9771 12.8722 22.3764 14.9535C22.1838 15.6206 22.1671 15.8799 22.3054 16.0507C22.6081 16.4243 23.1517 16.3564 23.3401 15.9214C23.8705 14.697 24.1316 12.2553 23.9145 10.551C23.7338 9.13298 23.3907 7.98616 22.7649 6.70919C21.0234 3.1554 17.7311 0.742843 13.7681 0.116569C13.0689 0.00603315 11.4149 -0.0374994 10.7533 0.0372154ZM9.3697 3.91328C9.08677 4.00247 8.51816 4.40225 8.1998 4.73587C7.52429 5.4439 5.01445 8.43512 4.85037 8.72772C4.50379 9.34595 4.53363 9.73064 4.97672 10.3572L5.22373 10.7065L3.94961 10.7068C3.24828 10.707 2.58227 10.7329 2.46827 10.7646C1.88995 10.9252 1.89118 11.7773 2.46995 11.9332C2.59379 11.9666 3.38737 11.9835 4.43126 11.9751L6.18457 11.961L6.62369 12.5443C6.86516 12.865 7.05371 13.1365 7.04264 13.1476C7.03158 13.1586 6.19854 13.1681 5.19148 13.1686C3.24621 13.1695 3.13031 13.1834 2.89896 13.4429C2.82385 13.5271 2.78719 13.6472 2.78719 13.8093C2.78719 14.1027 2.95915 14.3131 3.2665 14.3959C3.39017 14.4292 4.40102 14.4494 5.77612 14.4462C7.95034 14.441 8.08273 14.4464 8.15292 14.5435C8.19377 14.6 8.39192 14.8599 8.59321 15.1212L8.9593 15.5962L6.84862 15.6241C5.00042 15.6486 4.72022 15.6637 4.59544 15.7455C4.27104 15.9582 4.24953 16.4545 4.55369 16.7105L4.72369 16.8535H7.33619H9.94864L10.4273 17.4543L10.9059 18.055L8.72789 18.0829L6.54998 18.1109L6.38697 18.2934C6.15154 18.557 6.15853 18.867 6.40558 19.1137L6.5872 19.295L12.9019 19.3345C19.6169 19.3765 20.2985 19.3591 20.8256 19.1324C21.145 18.9949 21.439 18.6703 21.5665 18.3139C21.6175 18.1715 21.6718 17.8035 21.6873 17.4962C21.7113 17.0198 21.6974 16.884 21.5931 16.5762C21.2126 15.4536 20.3036 14.6586 18.645 13.998C18.4062 13.9028 18.0221 13.7771 17.7916 13.7187C17.5556 13.6588 17.3481 13.5722 17.3166 13.5205C17.2859 13.47 17.1118 13.1997 16.9298 12.9198C16.2644 11.8965 15.9572 11.2539 15.7233 10.3959L15.6006 9.94556L15.7497 9.4738C15.9277 8.91079 16.0767 8.27183 16.1725 7.6602C16.2391 7.23582 16.2364 7.19995 16.1208 6.9734C15.894 6.52897 15.428 6.37764 14.7728 6.53578C13.8071 6.76887 12.706 6.55093 11.8402 5.95528C11.4623 5.69542 11.0888 5.28251 10.7184 4.71547C10.2247 3.95949 9.87778 3.75317 9.3697 3.91328ZM10.2475 6.17551C10.7372 6.77798 11.7104 7.38872 12.6252 7.66763C13.0754 7.80493 13.2135 7.82058 14.0056 7.82432C14.6997 7.82762 14.8857 7.84427 14.8857 7.903C14.8857 8.02444 14.6769 8.80254 14.5244 9.24932C14.3604 9.72969 14.3494 9.97082 14.4693 10.4469C14.745 11.5415 15.1217 12.3901 15.7715 13.3808C16.1364 13.9369 16.2139 14.0911 16.1699 14.1734C16.0322 14.4306 16.1729 14.8379 16.4486 14.9805C16.6656 15.0927 16.7745 15.0875 17.0394 14.9523C17.3054 14.8165 17.3925 14.8306 18.1549 15.1327C19.6905 15.7412 20.3892 16.3894 20.46 17.2709C20.4966 17.7272 20.4076 18.0019 20.2062 18.0543C19.9439 18.1224 15.0755 18.1539 14.3549 18.0921C13.6045 18.0277 12.8947 17.8229 12.2433 17.4827C11.8858 17.296 11.8155 17.2233 11.0184 16.2169C10.5533 15.6296 10.0927 15.0485 9.99475 14.9256C9.89684 14.8026 8.92108 13.5366 7.82639 12.1121L5.83609 9.52203L5.94098 9.31795C6.07593 9.0553 8.81132 5.85273 9.22753 5.47011L9.54377 5.17929L9.79782 5.55712C9.93758 5.76489 10.1399 6.04318 10.2475 6.17551ZM10.4772 8.71682C10.207 8.86659 10.1176 9.22775 10.2753 9.53276C10.3214 9.62178 10.5472 9.96473 10.7772 10.2948C11.0071 10.6249 11.1876 10.9027 11.1782 10.9121C11.1687 10.9215 11.0259 10.9548 10.8609 10.9862C10.5119 11.0523 10.319 11.2089 10.271 11.465C10.2145 11.766 10.2028 11.7452 11.371 13.4207C11.9171 14.2039 12.0611 14.3388 12.3511 14.3388C12.5421 14.3388 12.7947 14.1832 12.8692 14.0196C13.0247 13.6783 12.9272 13.4575 12.1379 12.362C12.0521 12.2429 11.9934 12.1268 12.0075 12.104C12.0217 12.0811 12.1488 12.0494 12.2902 12.0335C12.7524 11.9814 13.0203 11.5881 12.8571 11.2012C12.744 10.9332 11.2716 8.82557 11.1264 8.72386C10.9782 8.62009 10.658 8.61657 10.4772 8.71682Z" fill="#1D1D22"/>
</g>
<defs>
<clipPath id="clip0_692_24954">
<rect width="24" height="24" fill="white"/>
</clipPath>
</defs>
</svg>
