<svg width="20" height="20" viewBox="0 0 20 20" fill="none" xmlns="http://www.w3.org/2000/svg">
<g clip-path="url(#clip0_7348_85113)">
<path fill-rule="evenodd" clip-rule="evenodd" d="M8.96108 0.0310129C7.34598 0.213283 5.73242 0.796928 4.41825 1.6741C3.66808 2.1748 2.7218 3.04326 2.15306 3.75292C1.17642 4.97167 0.440216 6.59124 0.127786 8.20852C0.0152296 8.79105 0.00312162 8.95837 0.000187792 9.96984C-0.00330486 11.1957 0.039911 11.5677 0.299764 12.5464C0.709336 14.089 1.46687 15.498 2.51932 16.6742C3.81691 18.1246 5.54289 19.1884 7.39483 19.6795C8.24802 19.9057 8.6894 19.9661 9.68219 19.9926C10.7228 20.0204 11.2886 19.9733 12.1254 19.789C13.0521 19.585 14.2564 19.1364 14.507 18.902C14.7462 18.6781 14.697 18.2692 14.4132 18.1224C14.2086 18.0166 14.1248 18.0289 13.6378 18.2362C11.6332 19.0894 9.69118 19.2313 7.58087 18.6788C4.82312 17.9568 2.42926 15.7166 1.48424 12.9735C1.13605 11.9628 0.99741 11.1156 0.996572 9.99313C0.995501 8.53697 1.2696 7.33732 1.89572 6.05807C3.25827 3.27424 5.86766 1.42789 8.97547 1.04863C9.70166 0.960012 11.033 1.01706 11.7528 1.16771C14.9303 1.83257 17.4566 4.04584 18.5031 7.08161C19.0961 8.802 19.1476 10.7268 18.647 12.4613C18.4865 13.0172 18.4726 13.2332 18.5878 13.3756C18.8401 13.6869 19.293 13.6303 19.4501 13.2678C19.8921 12.2475 20.1097 10.2127 19.9288 8.79254C19.7782 7.61081 19.4923 6.65513 18.9707 5.59099C17.5195 2.6295 14.7759 0.619036 11.4734 0.0971405C10.8908 0.00502763 9.51241 -0.0312495 8.96108 0.0310129ZM7.80808 3.26106C7.57231 3.33539 7.09847 3.66854 6.83317 3.94656C6.27025 4.53658 4.1787 7.02926 4.04198 7.2731C3.75316 7.78829 3.77803 8.10887 4.14727 8.63099L4.3531 8.92205L3.29134 8.92233C2.7069 8.92247 2.15189 8.94412 2.05689 8.97053C1.57496 9.10437 1.57598 9.81445 2.05829 9.94433C2.16149 9.97213 2.82281 9.98624 3.69271 9.97925L5.15381 9.96752L5.51974 10.4536C5.72097 10.7209 5.87809 10.9471 5.86887 10.9563C5.85965 10.9655 5.16545 10.9734 4.32623 10.9738C2.70518 10.9746 2.60859 10.9862 2.4158 11.2024C2.35321 11.2726 2.32266 11.3727 2.32266 11.5077C2.32266 11.7522 2.46595 11.9276 2.72208 11.9966C2.82514 12.0243 3.66752 12.0412 4.81344 12.0385C6.62528 12.0342 6.73561 12.0387 6.7941 12.1195C6.82814 12.1666 6.99327 12.3833 7.16101 12.601L7.46608 12.9968L5.70718 13.0201C4.16702 13.0405 3.93352 13.0531 3.82953 13.1213C3.5592 13.2985 3.54127 13.7121 3.79475 13.9254L3.93641 14.0446H6.11349H8.29053L8.6894 14.5452L9.08821 15.0458L7.27324 15.0691L5.45832 15.0924L5.32248 15.2445C5.12629 15.4642 5.13211 15.7225 5.33799 15.9281L5.48933 16.0792L10.7516 16.1121C16.3474 16.1471 16.9154 16.1326 17.3547 15.9436C17.6209 15.8291 17.8658 15.5586 17.9721 15.2616C18.0145 15.1429 18.0599 14.8363 18.0728 14.5801C18.0928 14.1832 18.0812 14.07 17.9942 13.8135C17.6772 12.878 16.9197 12.2155 15.5375 11.665C15.3385 11.5857 15.0185 11.481 14.8264 11.4322C14.6297 11.3824 14.4567 11.3102 14.4305 11.2671C14.4049 11.225 14.2599 10.9997 14.1082 10.7665C13.5537 9.91373 13.2977 9.37828 13.1028 8.66322L13.0005 8.28797L13.1248 7.89484C13.2731 7.42566 13.3973 6.89319 13.4771 6.3835C13.5326 6.02985 13.5303 5.99996 13.434 5.81117C13.245 5.44081 12.8567 5.3147 12.3107 5.44649C11.5059 5.64073 10.5884 5.45911 9.86679 4.96273C9.55194 4.74619 9.24068 4.40209 8.93202 3.92956C8.52059 3.29958 8.23149 3.12765 7.80808 3.26106ZM8.53959 5.14626C8.94767 5.64832 9.75866 6.15727 10.521 6.38969C10.8962 6.50411 11.0112 6.51715 11.6713 6.52027C12.2498 6.52302 12.4048 6.53689 12.4048 6.58584C12.4048 6.68703 12.2308 7.33545 12.1037 7.70777C11.967 8.10808 11.9578 8.30902 12.0578 8.70578C12.2875 9.61793 12.6014 10.3251 13.1429 11.1506C13.447 11.614 13.5116 11.7426 13.4749 11.8112C13.3601 12.0255 13.4774 12.3649 13.7072 12.4838C13.888 12.5773 13.9787 12.5729 14.1995 12.4602C14.4212 12.3471 14.4937 12.3588 15.1291 12.6106C16.4088 13.1177 16.991 13.6578 17.05 14.3924C17.0805 14.7727 17.0063 15.0016 16.8385 15.0452C16.62 15.102 12.5629 15.1283 11.9624 15.0768C11.3371 15.0231 10.7456 14.8524 10.2027 14.5689C9.90484 14.4133 9.84621 14.3528 9.182 13.514C8.79446 13.0247 8.41054 12.5404 8.32895 12.438C8.24737 12.3355 7.43423 11.2805 6.522 10.0934L4.8634 7.93503L4.95081 7.76496C5.06328 7.54608 7.34277 4.87728 7.68961 4.55842L7.95315 4.31608L8.16485 4.63093C8.28131 4.80407 8.44994 5.03598 8.53959 5.14626ZM8.73098 7.26402C8.50582 7.38882 8.43136 7.68979 8.56278 7.94397C8.60115 8.01815 8.78933 8.30394 8.98096 8.57898C9.17259 8.85406 9.32296 9.08555 9.31514 9.09338C9.30727 9.10125 9.18829 9.129 9.05072 9.15513C8.75995 9.21026 8.59919 9.34075 8.55914 9.55413C8.51211 9.80504 8.50233 9.78767 9.4758 11.1839C9.93092 11.8366 10.0509 11.949 10.2926 11.949C10.4517 11.949 10.6622 11.8194 10.7244 11.683C10.8539 11.3986 10.7727 11.2146 10.1149 10.3016C10.0434 10.2024 9.99453 10.1056 10.0063 10.0866C10.018 10.0676 10.124 10.0412 10.2418 10.0279C10.627 9.98451 10.8503 9.65672 10.7143 9.33437C10.62 9.11102 9.393 7.35464 9.27202 7.26989C9.14852 7.18341 8.88163 7.18047 8.73098 7.26402Z" fill="white"/>
</g>
<defs>
<clipPath id="clip0_7348_85113">
<rect width="20" height="20" fill="white"/>
</clipPath>
</defs>
</svg>
