<svg width="20" height="20" viewBox="0 0 20 20" fill="none" xmlns="http://www.w3.org/2000/svg">
<path fill-rule="evenodd" clip-rule="evenodd" d="M15.0431 2.97018C15.0431 2.97018 15.8684 3.0032 16.7268 3.10223C14.7954 1.5836 12.9632 1.13792 11.4776 1.13792C9.44547 1.13792 8.06413 1.96769 7.96357 2.0281L7.96158 2.02929L8.60537 1.00586C8.60537 1.00586 6.03028 0.758253 5.1224 3.48189C4.89131 2.90415 4.67672 2.06231 4.67672 2.06231C4.67672 2.06231 3.33966 3.23429 3.96693 5.1821C2.43179 4.62086 0.236378 3.84504 0.153844 3.82854C0.0382959 3.81203 0.00528219 3.86155 0.00528219 3.86155C0.00528219 3.86155 -0.0277315 3.91107 0.0713096 3.99361C0.252887 4.14216 3.71932 6.70073 4.47864 7.19592C4.31357 7.7902 4.31357 8.07079 4.47864 8.35138C4.70973 8.73106 4.72624 8.92918 4.69323 9.20977C4.66021 9.49043 4.36309 11.9169 4.29706 12.214C4.27041 12.3339 4.14155 12.5776 3.9995 12.8462L3.9995 12.8462C3.78967 13.243 3.55107 13.6941 3.57076 13.8811C3.60377 14.1948 4.03296 15.5318 4.41261 15.6805C4.69323 15.7795 5.38651 15.9941 5.8487 15.9941C6.01378 15.9941 6.16233 15.961 6.22836 15.895C6.50898 15.6474 6.59152 15.5978 6.78957 15.5978H6.83915C6.87692 15.5978 6.91818 15.6013 6.9629 15.6051L6.96293 15.6051C7.01585 15.6095 7.07363 15.6144 7.13622 15.6144C7.40033 15.6144 7.74698 15.5649 7.99461 15.3338C8.16575 15.1627 8.39554 14.9622 8.61144 14.7738C8.85364 14.5625 9.07835 14.3665 9.1831 14.2443C9.43073 13.9307 9.56279 13.5015 9.4968 13.0723C9.44721 12.6762 9.66181 12.3295 9.90937 11.9829C10.2231 11.5702 10.8008 10.8274 10.8008 10.8274C11.9398 11.6858 12.6496 12.9898 12.6496 14.4424C12.6496 17.0174 10.4046 19.0973 7.63148 19.0973C7.20228 19.0973 6.78957 19.0478 6.37692 18.9488C7.64796 19.3944 8.72088 19.543 9.59582 19.543C11.4611 19.543 12.4514 18.8662 12.4514 18.8662C12.4514 18.8662 12.1049 19.3119 11.5436 19.8236H11.5601C14.6469 19.3944 16.149 16.8524 16.149 16.8524C16.149 16.8524 16.0335 17.6777 15.8849 18.2389C19.8909 15.2305 19.3339 11.4849 19.2877 11.1747L19.2853 11.1576C19.3057 11.1882 19.4714 11.3894 19.6457 11.6009C19.7531 11.7313 19.8637 11.8657 19.9455 11.9664C20.6059 5.16556 15.0431 2.97018 15.0431 2.97018ZM8.72088 13.8317C8.67006 13.8952 8.49198 14.0566 8.3223 14.2105L8.32221 14.2106C8.27158 14.2565 8.2217 14.3017 8.17618 14.3434C8.10776 14.4061 8.03739 14.4688 7.96778 14.5308L7.96768 14.5309L7.96766 14.5309C7.83572 14.6484 7.70649 14.7635 7.59845 14.8716C7.53238 14.9376 7.40033 14.9706 7.20228 14.9706H7.02072H6.92162H6.85563H6.7071C6.95465 14.6404 7.68099 13.8811 7.92855 13.716C8.22569 13.5181 8.3743 13.3199 8.19266 12.9733C8.01109 12.6266 7.53238 12.7092 7.53238 12.7092C7.53238 12.7092 7.81305 12.5936 8.0606 12.5936C7.74698 12.5111 7.35082 12.5937 7.16925 12.7752C7.03722 12.8962 7.00786 13.2227 6.9785 13.5492C6.96382 13.7124 6.94914 13.8757 6.92162 14.0133C6.84777 14.3975 6.61501 14.6098 6.25901 14.9344C6.21744 14.9723 6.17419 15.0117 6.12932 15.0531C5.89822 15.2677 5.73316 15.3338 5.6011 15.3338C5.32049 15.2843 4.99035 15.2017 4.75926 15.1192C4.59418 14.9045 4.34658 14.1948 4.28056 13.8977C4.31623 13.7788 4.429 13.5656 4.5263 13.3817L4.5263 13.3817L4.52632 13.3817C4.56408 13.3103 4.59951 13.2433 4.6272 13.188L4.65487 13.1349C4.83607 12.7879 4.9424 12.5842 4.97384 12.3955C5.03987 12.115 5.25446 10.3818 5.33699 9.65545C5.55158 9.93604 5.8487 10.3983 5.78268 10.6953C6.26138 10.0186 5.91473 9.35838 5.74967 9.09427C5.6011 8.83016 5.40302 8.30187 5.56809 7.74069C5.73316 7.17937 6.3274 5.62778 6.3274 5.62778C6.3274 5.62778 6.52549 5.97443 6.80612 5.9084C7.08671 5.84237 9.34819 2.44196 9.34819 2.44196C9.34819 2.44196 9.95895 3.77902 9.31516 4.75292C8.65489 5.72682 8.01109 5.9084 8.01109 5.9084C8.01109 5.9084 8.91899 6.07347 9.76091 5.46271C10.1075 6.27155 10.4376 7.11337 10.4541 7.22895C10.4458 7.24834 10.4203 7.30909 10.3833 7.39725L10.3833 7.39732C10.1997 7.8346 9.73327 8.9458 9.67829 9.0282C9.64526 9.06123 9.41418 9.12723 9.2491 9.16026C8.96858 9.24273 8.80349 9.29231 8.73743 9.34182C8.62185 9.44085 8.09363 10.8935 7.84601 11.6032C7.54893 11.6858 7.25179 11.8509 7.0372 12.181C7.15277 12.0984 7.5159 12.0489 7.78001 12.0159C8.01109 11.9993 8.72088 12.3791 8.90251 13.0888V13.1218C8.93554 13.3859 8.85293 13.6336 8.72088 13.8317ZM7.16925 14.0297C7.28616 13.8608 7.30084 13.5998 7.30983 13.4401C7.31226 13.3968 7.31428 13.361 7.31779 13.3364C7.33434 13.2209 7.36737 13.0063 7.49942 12.9733C7.63148 12.9403 7.9451 12.9898 7.9451 13.2209C7.9451 13.3686 7.83554 13.4381 7.71343 13.5156C7.65817 13.5506 7.60035 13.5873 7.54894 13.6336C7.47348 13.709 7.34879 13.8407 7.26213 13.9323C7.21605 13.9809 7.18072 14.0183 7.16925 14.0297ZM13.7555 10.877C13.9206 10.0351 13.9371 9.30879 13.8876 8.71451C14.5313 9.5729 14.9274 10.6128 15.0431 11.6858C15.0595 11.8178 15.1916 11.9499 15.3236 12.0819C15.4393 12.181 15.5713 12.313 15.5713 12.3955C15.5713 12.7752 15.5383 13.1549 15.4722 13.5345C15.4565 13.5817 15.3217 13.6585 15.2091 13.7226L15.1916 13.7326C15.0265 13.8151 14.878 13.8977 14.845 14.0297C14.4818 15.3007 13.706 16.4232 12.6661 17.2155C14.2012 15.6144 14.944 12.9733 13.7555 10.877ZM12.7156 17.3641C13.7885 16.5388 14.6139 15.3833 14.977 14.0792C14.9898 14.041 15.0813 13.983 15.168 13.9282L15.168 13.9282C15.1935 13.912 15.2186 13.8962 15.2411 13.8811C15.4062 13.7987 15.5713 13.6996 15.6043 13.5676C15.6703 13.1878 15.7034 12.7917 15.7034 12.3955C15.7034 12.2472 15.555 12.0988 15.4067 11.9503L15.4062 11.9499C15.3854 11.925 15.3615 11.899 15.3374 11.8728L15.3374 11.8728C15.2655 11.7948 15.1916 11.7145 15.1916 11.6527C15.0595 10.4477 14.5809 9.30879 13.8381 8.36793C13.5132 6.41897 12.2296 5.79636 12.1569 5.7611L12.1543 5.75984L12.1563 5.76282C12.2125 5.84611 13.0369 7.06892 12.4514 8.49998C11.9057 9.81289 10.5952 9.76791 10.2284 9.75532H10.2284C10.1848 9.75382 10.1546 9.75278 10.1405 9.75454C10.0085 9.75454 9.4968 10.4147 8.85293 11.6362C8.77046 11.6033 8.42381 11.5207 8.02764 11.5868C8.32471 10.7614 8.77046 9.58945 8.85293 9.49043C8.87928 9.46408 9.04213 9.41673 9.19074 9.37352L9.19077 9.37351C9.22848 9.36254 9.26527 9.35184 9.29868 9.34182C9.6123 9.25928 9.7609 9.20977 9.81035 9.14371C9.84338 9.09426 10.0085 8.71451 10.1735 8.31842C10.3221 8.31842 10.7017 8.28539 10.7347 8.26891C10.7678 8.23587 11.0815 7.427 11.0815 7.32797C11.0815 7.24543 10.4376 5.64429 10.19 5.03354C10.3055 4.90148 10.4212 4.73641 10.5367 4.55484C13.9206 4.91799 16.5617 7.7902 16.5617 11.2731C16.5617 13.9472 14.9935 16.2747 12.7156 17.3641ZM9.18284 3.43295C9.18284 3.43295 9.33144 4.09323 8.95176 4.53891C8.47306 5.08364 8.06042 5.06713 8.0769 5.06713L9.18284 3.43295ZM5.36942 12.8075L5.23737 13.4678C5.23737 13.4678 5.50148 13.4348 5.50148 13.7319C5.50148 13.963 5.23737 14.2766 5.02278 14.2931C4.8082 14.3096 4.72566 14.0455 4.77518 13.8969C4.8247 13.7649 5.36942 12.8075 5.36942 12.8075ZM7.89522 7.29451C8.47295 7.41008 8.63797 8.08684 8.32441 8.45004C8.01079 8.79663 7.21846 9.29181 6.75623 9.40746C6.65721 9.78707 5.81536 9.62199 6.12899 8.41701C6.12899 8.41701 6.27755 8.99474 6.42612 8.94523C6.57467 8.89565 8.25835 6.25459 8.25835 6.25459C8.25835 6.25459 8.04382 6.94786 7.89522 7.29451Z" fill="white"/>
</svg>
