<svg width="20" height="20" viewBox="0 0 20 20" fill="none" xmlns="http://www.w3.org/2000/svg">
<path d="M16.6145 10.8987C16.8015 11.5173 16.9123 12.1635 16.852 12.807C16.5413 16.1245 14.6539 18.6621 12.1064 19.6064C9.59748 20.5302 6.91691 19.8033 5.03396 17.6831C2.83297 15.2095 2.32311 11.8777 3.97385 9.02552C5.69526 6.04712 7.60346 3.16463 9.5268 0.312432C10.0708 -0.499403 11.8195 0.421733 11.5339 1.35633C11.5179 1.40853 11.497 1.45784 11.4703 1.50379C9.82464 4.3358 7.78015 6.95578 6.35657 9.88371C5.68517 11.2669 5.61449 13.3215 6.09912 14.8056C6.84624 17.0874 9.44603 17.9153 11.5057 17.0723C13.6259 16.1989 14.9737 13.6799 14.4184 11.5143C14.2519 10.8681 13.7622 10.2825 13.7117 9.64644C13.6346 8.69488 15.3771 7.83737 15.7915 8.69739C16.1566 9.44663 16.418 10.2487 16.6145 10.8987Z" fill="white"/>
</svg>
