<svg width="20" height="20" viewBox="0 0 20 20" fill="none" xmlns="http://www.w3.org/2000/svg">
<path fill-rule="evenodd" clip-rule="evenodd" d="M0.833008 9.99967V19.1663H3.6403H6.44759V17.345C6.44759 15.3303 6.4724 15.1341 6.80744 14.5025C7.83267 12.5696 10.7034 12.4671 11.9014 14.3206C12.3046 14.9445 12.3619 15.2321 12.3871 16.7601C12.3993 17.5006 12.4219 18.186 12.4371 18.2833C12.4745 18.5211 12.8327 18.9283 13.1189 19.0583C13.3336 19.1558 13.5499 19.1639 15.9723 19.1651L18.5934 19.1663V16.5661V13.9659L18.4333 13.6595C18.3168 13.4364 18.1973 13.306 17.9939 13.1802L17.7145 13.0075L16.4209 12.9752C14.9654 12.939 14.7919 12.8997 14.1278 12.4562C12.4549 11.339 12.4549 8.66031 14.1278 7.54312C14.7919 7.09963 14.9654 7.06038 16.4209 7.02412L17.7145 6.99186L17.9939 6.81913C18.1973 6.69332 18.3168 6.56298 18.4333 6.33988L18.5934 6.03349V3.43325V0.833008L15.9723 0.834268C13.5499 0.835414 13.3336 0.843549 13.1189 0.94106C12.8327 1.071 12.4745 1.47823 12.4371 1.71604C12.4217 1.81333 12.399 2.51165 12.3865 3.2679C12.3685 4.35891 12.3434 4.70799 12.2654 4.95801C11.7166 6.71526 9.76507 7.55246 8.07141 6.75714C7.66676 6.5671 7.00292 5.92085 6.77793 5.49798C6.4748 4.92827 6.44759 4.6963 6.44759 2.68296V0.833008H3.6403H0.833008V9.99967Z" fill="white"/>
</svg>
