<svg width="24" height="24" viewBox="0 0 24 24" fill="none" xmlns="http://www.w3.org/2000/svg">
<path fill-rule="evenodd" clip-rule="evenodd" d="M1 12V23H4.36875H7.7375V20.8144C7.7375 18.3967 7.76727 18.1613 8.16932 17.4033C9.3996 15.0839 12.8445 14.9609 14.282 17.1851C14.7659 17.9337 14.8346 18.2789 14.8649 20.1125C14.8796 21.0011 14.9066 21.8236 14.9249 21.9404C14.9698 22.2257 15.3997 22.7143 15.743 22.8703C16.0008 22.9874 16.2603 22.9971 19.1672 22.9985L22.3125 23V19.8797V16.7594L22.1204 16.3918C21.9806 16.124 21.8371 15.9676 21.593 15.8167L21.2577 15.6094L19.7054 15.5707C17.9589 15.5272 17.7507 15.4801 16.9538 14.9479C14.9462 13.6072 14.9462 10.3928 16.9538 9.05214C17.7507 8.51994 17.9589 8.47285 19.7054 8.42933L21.2577 8.39062L21.593 8.18334C21.8371 8.03237 21.9806 7.87596 22.1204 7.60825L22.3125 7.24058V4.12029V1L19.1672 1.00151C16.2603 1.00289 16.0008 1.01265 15.743 1.12966C15.3997 1.28559 14.9698 1.77426 14.9249 2.05964C14.9065 2.17638 14.8792 3.01437 14.8642 3.92188C14.8425 5.23108 14.8125 5.64998 14.7189 5.95C14.0604 8.0587 11.7185 9.06334 9.68608 8.10896C9.2005 7.88091 8.40389 7.10541 8.13391 6.59797C7.77016 5.91432 7.7375 5.63595 7.7375 3.21994V1H4.36875H1V12Z" fill="#1D1D22"/>
</svg>
