<svg width="20" height="20" viewBox="0 0 20 20" fill="none" xmlns="http://www.w3.org/2000/svg">
<path d="M2.14152 14.4742V14.6462C2.14152 14.6462 8.85105 12.163 10.1555 12.8044L9.36863 13.0214C9.43755 13.0214 10.7126 13.0996 10.7126 13.0996C10.7425 13.3463 10.8305 13.5837 10.9701 13.7947C11.1098 14.0057 11.2977 14.185 11.5203 14.3197C12.2883 14.7948 12.3029 15.053 12.3029 15.053C12.3029 15.053 11.9043 15.2055 11.9043 15.399C12.275 15.2996 12.6583 15.2476 13.0438 15.2445C13.3915 15.2562 13.7364 15.308 14.0705 15.399C14.0705 15.399 14.0309 15.2035 13.4945 15.053C12.9582 14.9024 12.4406 14.3705 12.1798 14.0753C12.0233 13.8865 11.9219 13.663 11.8853 13.4265C11.8487 13.19 11.8783 12.9487 11.971 12.7262C12.1568 12.2804 12.8059 12.032 14.1227 11.3907C15.6859 10.634 16.0427 10.067 16.2619 9.63095C16.481 9.19495 16.8107 8.32096 16.9923 7.91036C17.1433 7.52658 17.403 7.18859 17.7436 6.93273C17.9753 6.76654 19.0313 6.39308 19.0313 6.39308C19.0313 6.39308 18.2257 5.7498 17.9627 5.55623C17.634 5.2646 17.2185 5.07365 16.771 5.00875C16.2118 4.94032 15.6441 5.28836 15.2601 5.52104C14.8761 5.75371 14.1331 6.43415 13.8326 6.62967C13.5321 6.8252 12.762 7.02072 11.537 7.72265C10.312 8.4246 5.44935 11.332 5.44935 11.332L6.70152 11.3438L1.08136 14.0753H1.64276L0.833008 14.6619C1.28149 14.758 1.75223 14.691 2.14988 14.4742H2.14152Z" fill="white"/>
</svg>
