<svg width="20" height="20" viewBox="0 0 20 20" fill="none" xmlns="http://www.w3.org/2000/svg">
<path fill-rule="evenodd" clip-rule="evenodd" d="M1.49068 10.441L3.72671 7.95652H5.96273L9.81366 3.85714L11.4286 2.24224L10.1863 1L3.72671 7.45963H1.61491L0.0621118 9.01242L1.49068 10.441ZM7.70186 9.19876L4.2236 13.1739L2.79503 11.7453L5.59006 8.70186H7.95031L12.9193 3.73292L14.1615 4.97516L12.5466 6.59006L10.0621 9.19876H7.70186ZM7.20497 15.6584L12.1739 10.1925H14.4099L15.528 9.07453L17.1429 7.45963L15.9006 6.21739L12.4224 9.69565H10.0621L5.7764 14.2298L7.20497 15.6584ZM10.0621 18.2671L16.1491 11.4348H17.3913H17.6398H18.6335L20 10.0683L18.7578 8.82609L16.646 10.9379H14.1615L8.63354 16.8385L10.0621 18.2671Z" fill="white"/>
</svg>
