<svg width="20" height="20" viewBox="0 0 20 20" fill="none" xmlns="http://www.w3.org/2000/svg">
<path fill-rule="evenodd" clip-rule="evenodd" d="M15.1945 5.45222C17.8427 4.01989 16.8252 0 13.8145 0H3.29008C2.0253 0 1 1.0253 1 2.29008V9.28752C1 11.0223 2.85374 12.1271 4.37958 11.3018L15.1945 5.45222ZM4.67479 20C1.34145 20 0.214918 15.5484 3.14686 13.9623L15.1208 7.48451C16.8102 6.57058 18.8626 7.7941 18.8626 9.71512L18.8626 17.464C18.8626 18.8646 17.7274 20 16.3271 20L4.67479 20ZM15.8091 14.8856C15.8091 15.7709 15.0914 16.4886 14.2061 16.4886C13.3208 16.4886 12.603 15.7709 12.603 14.8856C12.603 14.0002 13.3208 13.2825 14.2061 13.2825C15.0914 13.2825 15.8091 14.0002 15.8091 14.8856Z" fill="white"/>
</svg>
