<svg width="20" height="20" viewBox="0 0 20 20" fill="none" xmlns="http://www.w3.org/2000/svg">
<path fill-rule="evenodd" clip-rule="evenodd" d="M12.0468 1.83919C13.0187 2.32931 13.6718 3.16426 13.9017 4.21024C13.9363 4.36797 13.9448 4.50326 13.9439 4.88604C13.9427 5.4211 13.9118 5.62111 13.7574 6.09239C13.6831 6.31924 13.4507 6.84709 13.4251 6.84709C13.379 6.84709 12.7798 6.51065 12.6026 6.38531C12.3086 6.17734 11.8568 5.72492 11.6765 5.45801C11.0014 4.45839 10.9039 3.26292 11.4042 2.11955C11.4492 2.01683 11.5222 1.87297 11.5666 1.7999L11.6472 1.66699L11.7441 1.70119C11.7974 1.72001 11.9337 1.78211 12.0468 1.83919ZM8.30373 2.16874C8.55465 2.21352 8.83734 2.31652 9.06422 2.44581C9.77134 2.84879 10.2002 3.55719 10.2966 4.48129C10.3205 4.71071 10.3196 4.75241 10.2908 4.77064C10.2387 4.8036 9.79184 4.7962 9.54512 4.75831C9.11637 4.69243 8.75769 4.55864 8.44509 4.34796C8.25426 4.21935 7.97063 3.93575 7.84204 3.74497C7.56644 3.33599 7.39919 2.79701 7.39777 2.31321L7.3973 2.1567L7.47317 2.14395C7.68564 2.10826 8.02087 2.11827 8.30373 2.16874ZM8.86823 5.21534C10.2433 5.38532 11.5432 6.18567 12.4561 7.42447C12.5369 7.53403 12.603 7.63297 12.603 7.64434C12.603 7.67369 12.2928 7.91641 12.0562 8.07223C10.432 9.14186 8.62842 9.32055 7.04564 8.56861C6.27023 8.20023 5.54646 7.57036 5.03586 6.81958L4.87288 6.57998L4.98508 6.47987C5.7219 5.82231 6.69123 5.36877 7.66284 5.22694C7.92417 5.1888 8.60078 5.18228 8.86823 5.21534ZM15.7667 8.32107C15.9569 8.34213 16.2633 8.39594 16.3678 8.42666C16.4197 8.44188 16.4217 8.60078 16.3746 8.94912C16.1968 10.2644 15.5695 11.4099 14.5986 12.1924C13.9296 12.7315 13.1283 13.0669 12.1597 13.2132C11.6684 13.2874 10.5609 13.257 10.2395 13.1605C10.1852 13.1442 10.1865 13.0511 10.246 12.6861C10.4426 11.4812 10.9523 10.4365 11.716 9.67273C12.7599 8.62881 14.2012 8.14786 15.7667 8.32107ZM6.07489 9.31936C6.41009 9.38664 6.76329 9.50412 7.07393 9.65164C7.21295 9.71766 7.32672 9.77638 7.32672 9.7821C7.32672 9.78784 7.27456 9.89672 7.2108 10.0241C6.8288 10.7871 6.24405 11.4051 5.58453 11.7427C4.82852 12.1298 4.01075 12.2192 3.18282 12.0054C2.71219 11.8838 2.14834 11.6186 2.16237 11.5253C2.1661 11.5005 2.22654 11.3612 2.29672 11.2156C2.79004 10.1921 3.68804 9.49209 4.75867 9.29652C5.09501 9.23508 5.70812 9.24572 6.07489 9.31936ZM8.23147 10.7183C8.62576 11.1941 9.01477 11.8969 9.2264 12.5157C9.42666 13.1014 9.50202 13.5424 9.5027 14.1327C9.50396 15.2461 9.14023 16.2588 8.41653 17.1568C8.11757 17.5278 7.51643 18.0588 7.14766 18.2776L7.05021 18.3355L6.85997 18.1075C6.22477 17.3468 5.80837 16.394 5.69115 15.4333C5.65532 15.1396 5.67495 14.3785 5.72531 14.1095C5.81302 13.6412 5.92177 13.3061 6.12324 12.8836C6.43974 12.22 6.90369 11.6067 7.46295 11.1127C7.69757 10.9054 8.08558 10.6074 8.12081 10.6074C8.13113 10.6074 8.18093 10.6573 8.23147 10.7183ZM16.2939 12.5296C16.7796 12.6146 17.2335 12.8429 17.595 13.1839C17.7274 13.3089 17.7567 13.3486 17.7398 13.3802C17.6904 13.4725 17.3862 13.7747 17.2139 13.9027C16.5954 14.3619 15.8402 14.5104 15.1238 14.3137C14.7594 14.2136 14.2688 13.9392 13.9894 13.6791C13.828 13.5289 13.8251 13.5384 14.1181 13.2596C14.7504 12.6579 15.531 12.396 16.2939 12.5296ZM5.26333 12.9542C5.2882 13.0533 5.25633 13.638 5.21599 13.8234C5.13741 14.1841 5.00812 14.4952 4.82144 14.7726C4.6985 14.9554 4.41221 15.2403 4.22458 15.3668C3.81614 15.642 3.27659 15.8097 2.79429 15.8111C2.64616 15.8115 2.63855 15.8088 2.62384 15.7501C2.59443 15.633 2.60857 15.1018 2.64635 14.9042C2.72285 14.5042 2.90446 14.1155 3.16185 13.8009C3.59102 13.2763 4.37285 12.9205 5.14927 12.8964C5.23737 12.8936 5.2497 12.8999 5.26333 12.9542ZM12.3694 14.0292C13.2519 14.1723 14.065 14.7054 14.58 15.4785C14.8086 15.8216 15.0659 16.4119 15.0835 16.6334C15.0889 16.7015 15.0811 16.7083 14.9258 16.7728C14.4993 16.9496 14.0606 17.0332 13.56 17.0328C13.1427 17.0325 12.8816 16.9926 12.5094 16.8723C11.484 16.5408 10.6551 15.6791 10.2591 14.5329L10.1764 14.2936L10.2613 14.2582C10.4089 14.1965 10.7152 14.1095 10.9605 14.0595C11.4262 13.9647 11.9075 13.9543 12.3694 14.0292Z" fill="white"/>
</svg>
