<svg width="24" height="24" viewBox="0 0 24 24" fill="none" xmlns="http://www.w3.org/2000/svg">
<path fill-rule="evenodd" clip-rule="evenodd" d="M14.4564 2.20664C15.6226 2.79479 16.4064 3.79672 16.6822 5.0519C16.7238 5.24117 16.7339 5.40352 16.7329 5.86285C16.7315 6.50493 16.6944 6.74494 16.5091 7.31048C16.4199 7.5827 16.141 8.21612 16.1103 8.21612C16.055 8.21612 15.3359 7.81239 15.1233 7.66198C14.7705 7.41242 14.2283 6.86952 14.012 6.54922C13.2019 5.34967 13.0849 3.91511 13.6852 2.54307C13.7392 2.41981 13.8269 2.24718 13.8801 2.15949L13.9768 2L14.0931 2.04104C14.1571 2.06362 14.3206 2.13814 14.4564 2.20664ZM9.96467 2.6021C10.2658 2.65584 10.605 2.77944 10.8773 2.93459C11.7258 3.41815 12.2405 4.26824 12.3561 5.37716C12.3848 5.65246 12.3838 5.7025 12.3492 5.72438C12.2867 5.76393 11.7504 5.75505 11.4543 5.70958C10.9398 5.63053 10.5094 5.46997 10.1343 5.21716C9.9053 5.06283 9.56495 4.72251 9.41064 4.49357C9.07992 4.0028 8.87922 3.35602 8.87751 2.77546L8.87695 2.58765L8.968 2.57235C9.22297 2.52952 9.62524 2.54153 9.96467 2.6021ZM10.6421 6.25802C12.2922 6.462 13.852 7.42241 14.9476 8.90897C15.0445 9.04045 15.1238 9.15918 15.1238 9.17282C15.1238 9.20803 14.7515 9.49931 14.4676 9.68628C12.5185 10.9698 10.3543 11.1843 8.45496 10.2819C7.52447 9.83989 6.65595 9.08404 6.04323 8.1831L5.84766 7.89558L5.9823 7.77545C6.86648 6.98638 8.02967 6.44213 9.1956 6.27194C9.5092 6.22617 10.3211 6.21835 10.6421 6.25802ZM18.9202 9.98489C19.1484 10.0102 19.5161 10.0747 19.6416 10.1116C19.7038 10.1299 19.7063 10.3205 19.6497 10.7386C19.4363 12.3169 18.6836 13.6915 17.5185 14.6304C16.7158 15.2774 15.7541 15.6799 14.5919 15.8554C14.0023 15.9445 12.6732 15.9081 12.2876 15.7922C12.2224 15.7726 12.224 15.6609 12.2954 15.2229C12.5313 13.7771 13.1429 12.5234 14.0594 11.6069C15.3121 10.3542 17.0417 9.77705 18.9202 9.98489ZM7.29006 11.1828C7.6923 11.2636 8.11614 11.4045 8.48891 11.5816C8.65574 11.6608 8.79226 11.7313 8.79226 11.7381C8.79226 11.745 8.72967 11.8757 8.65316 12.0285C8.19475 12.9442 7.49306 13.6857 6.70163 14.0909C5.79442 14.5554 4.8131 14.6626 3.81957 14.4061C3.25482 14.2602 2.5782 13.9419 2.59503 13.83C2.59952 13.8003 2.67205 13.6331 2.75626 13.4584C3.34825 12.2301 4.42585 11.3901 5.7106 11.1554C6.11421 11.0817 6.84994 11.0945 7.29006 11.1828ZM9.87796 12.8616C10.3511 13.4325 10.8179 14.2758 11.0719 15.0185C11.3122 15.7213 11.4026 16.2505 11.4034 16.9588C11.4049 18.2949 10.9685 19.5102 10.1 20.5878C9.74127 21.0329 9.01991 21.6701 8.57739 21.9328L8.46045 22.0022L8.23216 21.7287C7.46992 20.8157 6.97025 19.6724 6.82958 18.5195C6.78658 18.1671 6.81014 17.2538 6.87057 16.931C6.97582 16.369 7.10631 15.9669 7.34808 15.46C7.72789 14.6636 8.28463 13.9276 8.95573 13.3348C9.23728 13.0861 9.70289 12.7285 9.74517 12.7285C9.75755 12.7285 9.81731 12.7884 9.87796 12.8616ZM19.5529 15.0351C20.1357 15.1371 20.6804 15.4111 21.1142 15.8203C21.2731 15.9702 21.3083 16.0179 21.2879 16.0558C21.2286 16.1666 20.8636 16.5293 20.6568 16.6829C19.9146 17.2339 19.0085 17.4121 18.1488 17.1761C17.7115 17.056 17.1228 16.7266 16.7875 16.4145C16.5938 16.2343 16.5903 16.2457 16.9419 15.9112C17.7007 15.189 18.6374 14.8748 19.5529 15.0351ZM6.3162 15.5447C6.34603 15.6636 6.30779 16.3652 6.25938 16.5876C6.16508 17.0206 6.00994 17.3939 5.78593 17.7268C5.6384 17.946 5.29485 18.288 5.06969 18.4398C4.57956 18.7701 3.93211 18.9712 3.35334 18.9729C3.17559 18.9734 3.16646 18.9702 3.14881 18.8998C3.11351 18.7592 3.13049 18.1217 3.17581 17.8847C3.26762 17.4046 3.48555 16.9382 3.79441 16.5607C4.30942 15.9312 5.24761 15.5042 6.17931 15.4752C6.28504 15.472 6.29984 15.4795 6.3162 15.5447ZM14.8435 16.8347C15.9025 17.0064 16.8782 17.6461 17.4962 18.5738C17.7705 18.9856 18.0793 19.6939 18.1004 19.9597C18.1069 20.0414 18.0976 20.0496 17.9111 20.1269C17.3993 20.3392 16.8729 20.4394 16.2722 20.439C15.7715 20.4386 15.4581 20.3908 15.0115 20.2464C13.781 19.8486 12.7864 18.8146 12.3111 17.4391L12.2119 17.1519L12.3137 17.1094C12.4909 17.0354 12.8584 16.931 13.1528 16.871C13.7116 16.7572 14.2892 16.7448 14.8435 16.8347Z" fill="black"/>
</svg>
