<svg width="20" height="20" viewBox="0 0 20 20" fill="none" xmlns="http://www.w3.org/2000/svg">
<path d="M10.8232 17.7001C10.8232 17.0718 10.8232 16.4434 10.8232 15.8151C10.8232 15.3962 10.597 15.3543 10.2661 15.3627C9.93516 15.371 9.67126 15.3627 9.6922 15.7816C9.71734 16.301 9.6922 16.8246 9.6922 17.3483C9.6922 17.6918 9.59586 17.8468 9.23142 17.8384C8.56117 17.8174 7.89091 17.8384 7.22066 17.8384C6.99445 17.8384 6.80176 17.8384 6.80176 17.5116C6.80176 17.1849 7.01121 17.21 7.22066 17.1933C8.29305 17.1137 8.29305 17.1137 8.29305 16.058C8.29305 14.307 8.29306 14.3196 10.0525 14.3573C10.2404 14.3499 10.4269 14.3936 10.592 14.4836C10.7572 14.5735 10.895 14.7065 10.9908 14.8684C11.3357 15.4153 11.6168 16 11.8286 16.611C11.8793 16.8134 12.0071 16.9881 12.1848 17.0977C12.3624 17.2072 12.5758 17.243 12.7795 17.1975C13.6969 17.1681 13.6969 17.1974 13.6969 18.1023C13.6969 18.584 13.6969 19.0658 13.6969 19.5433C13.6969 19.8533 13.6089 20.0083 13.278 19.9999C12.6078 19.979 11.9375 19.9748 11.2673 19.9999C10.8903 19.9999 10.8023 19.8407 10.8107 19.5098C10.8107 18.9024 10.8107 18.295 10.8107 17.6876L10.8232 17.7001Z" fill="white"/>
<path d="M13.2577 1.69813C13.2577 2.03325 13.2577 2.36419 13.2577 2.69931C13.2577 3.03443 13.2786 3.43239 12.734 3.37374C12.7028 3.3659 12.6701 3.36585 12.6388 3.37359C12.6075 3.38132 12.5787 3.3966 12.5547 3.4181C12.5307 3.4396 12.5124 3.46668 12.5013 3.49693C12.4902 3.52717 12.4867 3.55967 12.4911 3.59158C12.5497 4.09845 12.2313 4.01048 11.9046 4.01048C11.2595 3.98954 10.6102 4.01048 9.96089 4.01048C9.75563 4.01048 9.59225 3.98534 9.58806 3.71724C9.58387 3.44915 9.65509 3.34024 9.90224 3.35699C10.384 3.39888 10.3714 3.08471 10.3672 2.75377C10.3672 2.02069 10.3672 1.28761 10.3672 0.558721C10.3672 0.16914 10.451 -0.0193733 10.8825 0.00157189C11.5276 0.0308951 12.1769 0.00157189 12.8262 0.00157189C13.1487 0.00157189 13.2786 0.114676 13.2451 0.420475C13.2451 0.860324 13.2577 1.27922 13.2577 1.69813Z" fill="white"/>
<path d="M6.91521 4.02687H5.91402C5.68362 4.02687 5.49512 4.00175 5.49512 3.70014C5.49512 3.39853 5.6208 3.35244 5.84701 3.37338C6.32037 3.41946 6.36644 3.12205 6.31198 2.78274C6.20726 2.12506 6.48793 1.94491 7.10791 2.00356C7.6659 2.0385 8.22553 2.0385 8.78353 2.00356C9.13122 2.00356 9.25689 2.17113 9.20243 2.46018C9.14797 2.74922 9.49983 3.29797 8.87148 3.3608C8.55311 3.39432 8.36461 3.45297 8.35624 3.81323C8.35624 4.052 8.13423 4.01849 7.97504 4.02268C7.61479 4.03106 7.25871 4.02687 6.91521 4.02687Z" fill="white"/>
<path fill-rule="evenodd" clip-rule="evenodd" d="M14.5431 13.5066C14.1886 12.937 13.6682 12.4897 13.0518 12.2247C13.8334 11.955 14.5085 11.4428 14.9788 10.7628C15.045 10.6113 15.1592 10.4858 15.3037 10.4055C15.4483 10.3253 15.6152 10.2948 15.7788 10.3187C15.8352 10.3331 15.8941 10.3347 15.9511 10.3236C16.0082 10.3124 16.0621 10.2888 16.109 10.2544C16.1559 10.2199 16.1945 10.1755 16.2222 10.1244C16.2498 10.0732 16.2658 10.0165 16.269 9.95847C16.5622 8.52582 16.4072 7.25236 15.339 6.09619C14.2708 4.94001 12.8172 4.73893 11.3636 4.69704C10.1051 4.66283 8.8452 4.66853 7.58553 4.67423C6.68581 4.67831 5.78622 4.68238 4.88735 4.67191C4.35534 4.66353 4.21711 4.84366 4.21711 5.35472C4.23108 6.33511 4.22642 7.31364 4.22177 8.29155C4.21944 8.78027 4.21711 9.26884 4.21711 9.7574C4.21711 9.79214 4.21861 9.82838 4.22013 9.86499C4.22993 10.102 4.24037 10.3545 3.84848 10.3145C3.39606 10.2685 3.33323 10.503 3.33323 10.8759V13.1421C3.32905 13.4773 3.37931 13.737 3.79821 13.6951C4.14171 13.6658 4.21711 13.8543 4.21711 14.1559V16.041C4.21293 16.3593 4.32602 16.4934 4.65696 16.4934H7.17038C7.49713 16.4976 7.61442 16.3635 7.61442 16.0451V14.7256C7.62072 14.1371 7.58802 13.8745 7.7025 13.7631C7.8162 13.6524 8.07511 13.691 8.66168 13.7077C9.05785 13.7182 9.3903 13.7048 9.6765 13.6932C10.9761 13.6407 11.3223 13.6268 12.3522 16.0745C12.3955 16.212 12.4862 16.3296 12.6083 16.4063C12.7303 16.4831 12.8756 16.5139 13.0183 16.4934C14.0865 16.4682 15.1547 16.4599 16.2229 16.4934C16.7675 16.5101 16.7633 16.3049 16.579 15.9153C16.336 15.4042 16.0972 14.8932 15.8752 14.3737C15.6909 13.9423 15.4856 13.5778 14.9201 13.6825C14.8466 13.6992 14.7697 13.691 14.7015 13.6591C14.6332 13.6273 14.5775 13.5736 14.5431 13.5066ZM8.05413 10.3164H9.5622L10.9446 10.2996C11.7531 10.2871 12.3521 9.78435 12.3605 9.09735C12.3688 8.41035 11.8033 7.87416 10.9655 7.87416H8.13792C7.77766 7.86997 7.61009 7.9705 7.61009 8.36846C7.62406 8.70358 7.6194 9.03871 7.61475 9.37384C7.61242 9.54141 7.61009 9.70897 7.61009 9.87653C7.60171 10.1991 7.72738 10.3164 8.05413 10.3164Z" fill="white"/>
<path d="M8.88405 9.65663C8.39393 9.74879 8.31434 9.50163 8.30596 9.09529C8.29758 8.68895 8.46515 8.54236 8.88405 8.53817C9.30295 8.53398 9.45375 8.69316 9.44956 9.11626C9.44537 9.53935 9.30295 9.74041 8.88405 9.65663Z" fill="white"/>
</svg>
