<svg width="24" height="24" viewBox="0 0 24 24" fill="none" xmlns="http://www.w3.org/2000/svg">
<path d="M12.9884 21.2399C12.9884 20.4859 12.9884 19.7319 12.9884 18.9778C12.9884 18.4751 12.7169 18.4249 12.3198 18.4349C11.9227 18.445 11.606 18.4349 11.6311 18.9376C11.6613 19.5609 11.6311 20.1893 11.6311 20.8176C11.6311 21.2298 11.5155 21.4159 11.0782 21.4058C10.2739 21.3807 9.46958 21.4058 8.66528 21.4058C8.39383 21.4058 8.1626 21.4058 8.1626 21.0137C8.1626 20.6216 8.41394 20.6518 8.66528 20.6316C9.95215 20.5361 9.95215 20.5362 9.95215 19.2694C9.95215 17.1682 9.95216 17.1832 12.0634 17.2285C12.289 17.2197 12.5127 17.272 12.7109 17.38C12.9092 17.488 13.0745 17.6475 13.1894 17.8418C13.6033 18.4981 13.9406 19.1998 14.1948 19.9329C14.2556 20.1759 14.409 20.3854 14.6222 20.5169C14.8354 20.6484 15.0915 20.6914 15.3359 20.6367C16.4368 20.6015 16.4368 20.6367 16.4368 21.7225C16.4368 22.3005 16.4368 22.8786 16.4368 23.4517C16.4368 23.8237 16.3312 24.0097 15.9341 23.9996C15.1298 23.9745 14.3255 23.9695 13.5212 23.9996C13.0688 23.9996 12.9632 23.8086 12.9733 23.4115C12.9733 22.6826 12.9733 21.9537 12.9733 21.2248L12.9884 21.2399Z" fill="#1D1D22"/>
<path d="M15.9091 2.03775C15.9091 2.4399 15.9091 2.83703 15.9091 3.23917C15.9091 3.64132 15.9342 4.11886 15.2807 4.04849C15.2432 4.03908 15.204 4.03902 15.1665 4.0483C15.129 4.05759 15.0943 4.07592 15.0655 4.10172C15.0367 4.12752 15.0147 4.16002 15.0014 4.19631C14.9881 4.2326 14.9839 4.2716 14.9892 4.30989C15.0596 4.91814 14.6775 4.81258 14.2854 4.81258C13.5113 4.78744 12.7321 4.81258 11.953 4.81258C11.7067 4.81258 11.5106 4.78241 11.5056 4.46069C11.5006 4.13898 11.586 4.00829 11.8826 4.02839C12.4607 4.07866 12.4456 3.70165 12.4406 3.30453C12.4406 2.42483 12.4406 1.54514 12.4406 0.670465C12.4406 0.202969 12.5411 -0.023248 13.0589 0.00188626C13.833 0.0370742 14.6122 0.00188626 15.3913 0.00188626C15.7784 0.00188626 15.9342 0.137611 15.894 0.504571C15.894 1.03239 15.9091 1.53507 15.9091 2.03775Z" fill="#1D1D22"/>
<path d="M8.29883 4.83181H7.09741C6.82093 4.83181 6.59473 4.80166 6.59473 4.43973C6.59473 4.0778 6.74555 4.02249 7.01699 4.04762C7.58503 4.10292 7.64032 3.74602 7.57497 3.33885C7.4493 2.54964 7.78611 2.33346 8.53008 2.40383C9.19967 2.44576 9.87123 2.44576 10.5408 2.40383C10.958 2.40383 11.1089 2.60492 11.0435 2.95177C10.9782 3.29862 11.4004 3.95712 10.6464 4.03253C10.2643 4.07274 10.0381 4.14312 10.0281 4.57543C10.0281 4.86196 9.76166 4.82175 9.57064 4.82678C9.13833 4.83683 8.71103 4.83181 8.29883 4.83181Z" fill="#1D1D22"/>
<path fill-rule="evenodd" clip-rule="evenodd" d="M17.4521 16.2074C17.0267 15.5239 16.4022 14.9871 15.6626 14.6692C16.6005 14.3455 17.4105 13.7309 17.9749 12.9148C18.0544 12.733 18.1914 12.5824 18.3649 12.4861C18.5384 12.3898 18.7387 12.3532 18.935 12.382C19.0026 12.3992 19.0733 12.4011 19.1418 12.3878C19.2103 12.3744 19.275 12.3461 19.3312 12.3047C19.3874 12.2634 19.4338 12.2101 19.467 12.1487C19.5002 12.0873 19.5194 12.0193 19.5232 11.9496C19.875 10.2305 19.689 8.70232 18.4072 7.31491C17.1253 5.9275 15.381 5.6862 13.6367 5.63593C12.1265 5.59488 10.6146 5.60172 9.10302 5.60857C8.02336 5.61345 6.94385 5.61834 5.86521 5.60577C5.2268 5.59572 5.06093 5.81188 5.06093 6.42515C5.07769 7.60162 5.0721 8.77585 5.06651 9.94934C5.06372 10.5358 5.06093 11.1221 5.06093 11.7084C5.06093 11.7501 5.06273 11.7935 5.06454 11.8375C5.07631 12.1219 5.08884 12.4248 4.61856 12.3769C4.07566 12.3217 4.00027 12.6031 4.00027 13.0505V15.7701C3.99524 16.1722 4.05556 16.4839 4.55824 16.4336C4.97044 16.3984 5.06093 16.6246 5.06093 16.9866V19.2486C5.0559 19.6307 5.19162 19.7915 5.58874 19.7915H8.60485C8.99694 19.7966 9.13769 19.6357 9.13769 19.2537V17.6702C9.14526 16.9641 9.10601 16.6489 9.24338 16.5152C9.37983 16.3824 9.69052 16.4286 10.3944 16.4487C10.8698 16.4614 11.2687 16.4453 11.6122 16.4314C13.1717 16.3684 13.5872 16.3516 14.823 19.2889C14.875 19.4539 14.9839 19.595 15.1303 19.6871C15.2767 19.7792 15.4511 19.8162 15.6223 19.7915C16.9042 19.7614 18.186 19.7513 19.4678 19.7915C20.1213 19.8116 20.1163 19.5653 19.8951 19.0978C19.6036 18.4846 19.3171 17.8713 19.0506 17.248C18.8295 16.7302 18.5831 16.2928 17.9045 16.4185C17.8164 16.4385 17.7241 16.4287 17.6421 16.3904C17.5602 16.3522 17.4934 16.2878 17.4521 16.2074ZM9.66535 12.3791H11.475L13.1339 12.359C14.1041 12.344 14.8229 11.7407 14.833 10.9163C14.843 10.0919 14.1644 9.44848 13.159 9.44848H9.76589C9.33358 9.44345 9.1325 9.56409 9.1325 10.0416C9.14926 10.4438 9.14367 10.8459 9.13809 11.2481C9.13529 11.4492 9.1325 11.6502 9.1325 11.8513C9.12245 12.2384 9.27325 12.3791 9.66535 12.3791Z" fill="#1D1D22"/>
<path d="M10.6609 11.5886C10.0727 11.6992 9.97721 11.4026 9.96715 10.915C9.9571 10.4274 10.1582 10.2515 10.6609 10.2464C11.1635 10.2414 11.3445 10.4324 11.3395 10.9401C11.3344 11.4479 11.1635 11.6891 10.6609 11.5886Z" fill="#1D1D22"/>
</svg>
