<svg width="20" height="20" viewBox="0 0 20 20" fill="none" xmlns="http://www.w3.org/2000/svg">
<path fill-rule="evenodd" clip-rule="evenodd" d="M2.51635 0.556865C2.5353 0.560077 2.56017 0.565472 2.59148 0.573948C2.67853 0.597505 2.79585 0.639463 2.9403 0.70138C3.2281 0.824743 3.60238 1.01817 4.02047 1.27132C4.7605 1.7194 5.62204 2.34504 6.37023 3.07981C6.45924 3.17465 6.54807 3.26969 6.63658 3.36492C6.64632 3.37538 6.65611 3.3858 6.66591 3.39623C6.70813 3.44118 6.75044 3.48622 6.78875 3.53435C6.8555 3.6183 6.86592 3.6195 6.96447 3.58711C7.01743 3.56971 7.07035 3.55217 7.12328 3.53462C7.34943 3.45964 7.57617 3.38447 7.80542 3.32054C8.14112 3.22689 8.48377 3.16103 8.83153 3.13388C9.19274 3.10576 9.55482 3.08406 9.91701 3.07119C10.2653 3.05876 10.614 3.07207 10.9607 3.11197C11.2166 3.14152 11.473 3.17172 11.7268 3.21609C12.2146 3.30135 12.6921 3.42913 13.1576 3.59998C13.2077 3.61841 13.2379 3.60554 13.2685 3.5664C13.3072 3.51691 13.3456 3.46718 13.3839 3.41745C13.4945 3.27413 13.6054 3.1305 13.7225 2.9928C13.7972 2.90501 13.8729 2.81804 13.9492 2.73154C14.5826 2.17938 15.2527 1.73773 15.8388 1.41825C16.2376 1.20087 16.593 1.04256 16.8663 0.945068C17.0034 0.89617 17.1151 0.864259 17.1986 0.847234C17.2509 0.836547 17.2814 0.834066 17.2952 0.833264C17.5103 0.931522 17.6741 1.15468 17.7798 1.52816C17.89 1.91765 17.9211 2.42031 17.9014 2.96835C17.8664 3.94036 17.6755 4.98684 17.5514 5.66697C17.5358 5.75245 17.5212 5.83252 17.5081 5.90554L17.5093 5.90576C17.4763 6.03101 17.4424 6.15604 17.4073 6.28069C17.3198 6.5904 17.2228 6.89737 17.1258 7.20433C17.0885 7.32215 17.0513 7.43998 17.0146 7.55796C17.0002 7.60408 17.0018 7.64387 17.024 7.68814C17.0666 7.77284 17.1096 7.85737 17.1526 7.94189C17.2787 8.1897 17.4049 8.43792 17.5211 8.69033C17.7091 9.09896 17.8527 9.52548 17.9569 9.96312C18.0302 10.2709 18.0905 10.5822 18.1425 10.8943C18.1747 11.0878 18.1943 11.2835 18.2139 11.479C18.2188 11.5281 18.2238 11.5781 18.2289 11.6271C18.2384 11.7179 18.2432 11.8091 18.248 11.9002L18.248 11.9013C18.2496 11.931 18.2511 11.9607 18.2529 11.9904C18.2555 12.0344 18.2585 12.0785 18.2615 12.1226C18.2693 12.2352 18.277 12.348 18.2775 12.4606C18.2787 12.7533 18.2171 13.0368 18.1402 13.3177C17.9976 13.8392 17.7358 14.3016 17.4341 14.7422C17.0313 15.3303 16.534 15.8314 15.9858 16.2819C15.0187 17.0765 13.9445 17.6854 12.7771 18.1286C12.0256 18.4138 11.2544 18.6184 10.4499 18.6838C10.0657 18.7149 9.68419 18.6981 9.30398 18.6436C8.87862 18.5827 8.46282 18.479 8.05374 18.3477C7.34988 18.1219 6.67857 17.8205 6.0305 17.465C5.55304 17.2031 5.0897 16.919 4.64828 16.5995C3.95657 16.0987 3.31305 15.5441 2.7632 14.8858C2.44986 14.5107 2.17569 14.11 1.97609 13.6615C1.86658 13.4155 1.78398 13.1608 1.7436 12.8934C1.71441 12.7003 1.71549 12.5075 1.7346 12.3131C1.7441 12.2163 1.74991 12.1191 1.75571 12.0218C1.76242 11.9093 1.76913 11.7968 1.78159 11.6849C1.81187 11.4135 1.8453 11.1418 1.89339 10.8732C1.99888 10.284 2.15485 9.70767 2.35521 9.14345C2.52637 8.66143 2.72543 8.19152 2.95358 7.73426C2.98744 7.66622 2.99623 7.61062 2.96465 7.5367C2.79967 7.14997 2.66411 6.75202 2.55166 6.34698C2.47798 6.08156 2.41228 5.81389 2.34658 5.54624L2.33729 5.50838C2.21674 4.81907 2.06415 3.85732 2.02039 2.94234C1.99207 2.35043 2.01041 1.79518 2.10536 1.35411C2.19395 0.942597 2.3372 0.684445 2.51635 0.556865ZM18.1636 5.38899C20.015 8.32903 20.3447 12.9715 17.3389 16.5719C13.9101 20.679 7.88692 21.1282 3.90111 17.7438C0.0963457 14.5134 -0.378547 9.30886 1.79124 5.59627C1.66957 4.90006 1.5132 3.91273 1.46805 2.96875C1.43881 2.3574 1.45511 1.74715 1.56478 1.23773C1.67223 0.738581 1.88391 0.269971 2.30235 0.0392412L2.33387 0.0218593L2.36879 0.0131282C2.43812 -0.00420412 2.50678 -0.00135773 2.55931 0.00462106C2.61569 0.0110366 2.67549 0.0238203 2.73594 0.0401804C2.85696 0.0729313 3.00024 0.125444 3.15816 0.193134C3.4751 0.328987 3.87257 0.535331 4.30688 0.7983C4.77198 1.07991 5.28508 1.42997 5.79212 1.83392C6.92388 1.26903 8.12177 0.939325 9.39115 0.856176C11.0917 0.744625 12.7005 1.06159 14.2202 1.8028C14.6868 1.45401 15.1517 1.16298 15.5742 0.932724C15.9932 0.70433 16.375 0.533208 16.6805 0.42424C16.8328 0.369907 16.9709 0.329329 17.088 0.305434C17.1922 0.284152 17.3212 0.266724 17.4322 0.294488L17.4496 0.29883L17.4663 0.305376C17.9273 0.486467 18.1791 0.908629 18.3119 1.37756C18.4451 1.84828 18.4746 2.4176 18.454 2.98824C18.4237 3.83059 18.2817 4.7231 18.1636 5.38899ZM2.48186 0.55298C2.48154 0.55298 2.48186 0.552977 2.48186 0.55298ZM13.8696 3.84983C13.8833 3.83423 13.896 3.81924 13.9082 3.80484C13.9329 3.7756 13.9556 3.74872 13.9805 3.72434C14.0387 3.6673 14.0967 3.61001 14.1547 3.55272C14.3209 3.3885 14.4872 3.22416 14.6589 3.06592C15.0703 2.68639 15.5016 2.33085 15.9732 2.02743C16.3015 1.81624 16.6442 1.63492 17.0131 1.50463C17.0625 1.48719 17.0789 1.50213 17.0991 1.54214C17.2172 1.77655 17.2923 2.02503 17.3168 2.28506C17.3389 2.51762 17.3586 2.75301 17.3469 2.98557C17.3314 3.29466 17.296 3.60397 17.2484 3.91002C17.1431 4.58785 16.9597 5.24725 16.7536 5.90033C16.7079 6.04522 16.6601 6.18944 16.6124 6.33367C16.5963 6.38225 16.58 6.43132 16.564 6.47992C16.5586 6.49635 16.5521 6.51242 16.5439 6.53269C16.5394 6.5439 16.5343 6.5564 16.5286 6.57096C15.8284 5.47326 14.9657 4.5511 13.8696 3.84983ZM3.3444 6.5722C4.04664 5.47058 4.91179 4.54951 6.00595 3.84802C6.00193 3.84284 5.99875 3.83853 5.99601 3.83483C5.99122 3.82835 5.98782 3.82377 5.98381 3.81967C5.61902 3.4493 5.24999 3.08351 4.85361 2.7464C4.51943 2.46205 4.17243 2.19581 3.79994 1.96401C3.50254 1.77899 3.19158 1.62177 2.8612 1.50402C2.81756 1.48854 2.79651 1.4989 2.77621 1.53924C2.67343 1.74378 2.60798 1.95987 2.57021 2.18512C2.51594 2.50937 2.50813 2.83624 2.53841 3.16223C2.56663 3.46729 2.6006 3.77268 2.65357 4.07414C2.78989 4.85043 3.01706 5.60305 3.26485 6.34967C3.28027 6.39614 3.29709 6.44218 3.31554 6.49266C3.32474 6.51786 3.33436 6.54418 3.3444 6.5722ZM8.07953 15.1061L8.2112 15.106C8.40457 15.1059 8.59644 15.1058 8.78785 15.1079C8.80261 15.1082 8.82638 15.1326 8.82974 15.1491C8.83625 15.1814 8.85058 15.1893 8.88086 15.1897C9.18466 15.1944 9.48845 15.1995 9.79214 15.2067C9.83219 15.2077 9.85444 15.1931 9.87376 15.1598C9.89021 15.1316 9.90795 15.1041 9.92569 15.0766C9.94928 15.0401 9.97287 15.0035 9.99337 14.9653C10.0192 14.917 10.0522 14.897 10.1052 14.9058C10.1142 14.9073 10.1237 14.9065 10.1344 14.9055C10.138 14.9051 10.1417 14.9048 10.1456 14.9045L10.148 14.9044L10.1519 14.9042L10.1525 14.8936L10.1529 14.8852C10.1537 14.8729 10.1543 14.8611 10.1543 14.8493C10.1544 14.7967 10.1543 14.744 10.1542 14.6913C10.154 14.5696 10.1538 14.4478 10.1555 14.3261C10.1562 14.2834 10.1441 14.2633 10.1031 14.2468C9.83664 14.14 9.58429 14.0073 9.3657 13.8175C9.2042 13.6773 9.07297 13.5154 9.02413 13.3001C9.01295 13.251 9.00753 13.1997 9.00677 13.1493C9.00508 13.0392 9.00541 12.929 9.00574 12.8189C9.00586 12.78 9.00598 12.7411 9.00601 12.7022C9.00601 12.4289 9.19768 12.2343 9.4699 12.2337C9.96548 12.2329 10.4611 12.2331 10.9567 12.2336C11.2018 12.234 11.4502 12.486 11.447 12.7324C11.4464 12.7768 11.4464 12.8212 11.4463 12.8657C11.4461 13.0014 11.4459 13.1372 11.4316 13.2715C11.3983 13.5837 11.229 13.8211 10.9861 14.0093C10.8506 14.1143 10.7014 14.1949 10.5399 14.2515C10.5062 14.2633 10.4918 14.2765 10.4922 14.3154C10.494 14.4602 10.4937 14.605 10.4935 14.7488V14.7501V14.7512C10.4934 14.8013 10.4933 14.8512 10.4933 14.9009C10.4959 14.9025 10.4979 14.9041 10.4996 14.9054C10.5024 14.9075 10.5042 14.9089 10.5058 14.9086C10.6047 14.891 10.6548 14.9476 10.6969 15.0267C10.7018 15.0358 10.7066 15.0453 10.7115 15.0549C10.739 15.1087 10.7687 15.1666 10.8139 15.1918C10.8499 15.2119 10.8995 15.2077 10.9489 15.2036C10.97 15.2018 10.9911 15.2001 11.0111 15.2002C11.0692 15.2007 11.1272 15.201 11.1853 15.2014C11.3262 15.2022 11.4671 15.203 11.608 15.2057C11.649 15.2065 11.6791 15.1992 11.6948 15.1596C11.7146 15.1101 11.75 15.0993 11.8014 15.1003C11.935 15.1028 12.0687 15.1023 12.2024 15.1019C12.2532 15.1018 12.304 15.1016 12.3548 15.1016H12.4211C12.3631 15.3267 12.3066 15.5455 12.2492 15.7683C12.2457 15.7683 12.2421 15.7684 12.2386 15.7684C12.2355 15.7685 12.2323 15.7685 12.2291 15.7686L12.214 15.7691C12.1886 15.7699 12.1638 15.7707 12.1397 15.7675C12.0803 15.7594 12.0523 15.7807 12.0305 15.8391C11.9757 15.986 11.9168 16.1313 11.8579 16.2767C11.8366 16.3293 11.815 16.3826 11.7939 16.4353C11.7911 16.4423 11.788 16.4493 11.7844 16.4571L11.7801 16.4663L11.7741 16.4794L11.7698 16.4889C11.7555 16.4618 11.7395 16.4364 11.7238 16.4114C11.6786 16.3397 11.6354 16.2713 11.6407 16.174C11.6495 16.0145 11.6485 15.8544 11.6476 15.6942C11.6472 15.6271 11.6468 15.5599 11.6472 15.4928L11.6472 15.479L11.6472 15.4606L11.6472 15.439C10.7307 15.5989 9.81939 15.6078 8.90322 15.4456C8.90285 15.4531 8.9024 15.4599 8.90199 15.4662C8.90119 15.4783 8.90051 15.4886 8.90073 15.4989C8.90197 15.5593 8.90311 15.6196 8.90425 15.6799C8.90767 15.8611 8.91109 16.0425 8.91744 16.2236C8.91983 16.2921 8.91115 16.3521 8.86654 16.4057C8.85343 16.4214 8.84265 16.4391 8.83052 16.459C8.82467 16.4686 8.8185 16.4787 8.81162 16.4893C8.80708 16.4827 8.80284 16.4766 8.79884 16.4708C8.79052 16.4589 8.78315 16.4482 8.77634 16.4374C8.6538 16.2431 8.58391 16.0283 8.5355 15.8057C8.52616 15.763 8.51043 15.7483 8.46777 15.7556C8.44024 15.7603 8.41231 15.7625 8.38022 15.765C8.36487 15.7662 8.34857 15.7674 8.33091 15.7691C8.3257 15.7356 8.32032 15.7022 8.31495 15.669C8.30121 15.5839 8.28754 15.4992 8.2774 15.4145C8.27208 15.3702 8.26068 15.3364 8.22465 15.3081C8.20371 15.2917 8.1844 15.2732 8.16509 15.2547C8.14637 15.2368 8.12762 15.2188 8.10743 15.2028C8.074 15.1765 8.06488 15.1473 8.07953 15.1061ZM6.8844 10.8543C7.182 10.9208 7.482 10.9725 7.78829 10.9741C7.80252 10.9741 7.8168 10.9747 7.83108 10.9752C7.86225 10.9763 7.89338 10.9775 7.92375 10.9731C7.99636 10.9622 8.07016 10.9505 8.13919 10.9265C8.21083 10.9016 8.22993 10.8619 8.20844 10.7909C8.18304 10.7067 8.15591 10.6208 8.11401 10.5442C8.02393 10.3796 7.89466 10.2447 7.74466 10.1358C7.55027 9.99462 7.34991 9.86073 7.14597 9.73372C6.72061 9.46867 6.28896 9.21441 5.82573 9.02002C5.6156 8.93192 5.40178 8.85615 5.17016 8.84688C5.04469 8.84187 5.01604 8.85168 4.97653 8.96976C4.94582 9.06167 4.91846 9.15837 4.91271 9.25432C4.90592 9.3672 4.90735 9.48056 4.90878 9.59392C4.9095 9.65093 4.91022 9.70795 4.90989 9.7649C4.90935 9.86902 4.94951 9.94926 5.02592 10.0212C5.20077 10.1857 5.40004 10.3118 5.61288 10.4178C6.01751 10.6192 6.4446 10.756 6.8844 10.8543ZM12.2788 10.9684C12.2062 10.9579 12.1375 10.9479 12.0708 10.9301C11.9702 10.9032 11.9521 10.8603 11.9735 10.7598C12.0144 10.5677 12.1261 10.4172 12.2563 10.2785C12.4327 10.0903 12.6461 9.9499 12.8619 9.81285C13.2651 9.55653 13.6708 9.30413 14.1008 9.09479C14.3302 8.98315 14.5634 8.88033 14.8169 8.83628C14.8733 8.82646 14.9311 8.82366 14.9887 8.82087L15.0095 8.81985L15.0268 8.81895C15.0787 8.81612 15.1134 8.84021 15.1369 8.88894C15.1922 9.00364 15.2219 9.12641 15.2252 9.25081C15.2302 9.44619 15.2218 9.64211 15.213 9.8376C15.2114 9.87325 15.188 9.91327 15.1634 9.94161C14.9687 10.1673 14.7183 10.3158 14.4546 10.4429C13.9962 10.6637 13.5139 10.8116 13.0136 10.898C12.8676 10.9231 12.7203 10.9412 12.5758 10.959C12.5097 10.9671 12.4442 10.9752 12.3797 10.9838C12.3452 10.9781 12.3116 10.9732 12.2788 10.9684ZM9.49642 15.7344L9.3867 15.7345C9.3867 15.749 9.38661 15.7629 9.38652 15.7764C9.38629 15.8119 9.38607 15.8446 9.38756 15.8772C9.38811 15.8895 9.39473 15.9066 9.40428 15.9129C9.49578 15.9726 9.59585 16.0113 9.70037 16.0341L9.703 16.0314L9.70546 16.0291C9.7065 16.0281 9.70739 16.0272 9.70815 16.0264L9.70935 16.025C9.70984 16.0244 9.71024 16.0238 9.71057 16.0232C9.71708 16.0103 9.72327 15.9972 9.72924 15.9841C9.77607 15.8813 9.77687 15.8813 9.88654 15.8833L9.89313 15.8834C9.93296 15.8842 9.95456 15.899 9.97399 15.9318C10.0018 15.9786 10.0317 16.0241 10.0615 16.0697C10.0743 16.0893 10.0872 16.1089 10.0999 16.1286C10.1596 16.2213 10.2645 16.2303 10.3376 16.1487C10.3918 16.088 10.4459 16.0271 10.5006 15.9654L10.5654 15.8924C10.5979 15.919 10.6258 15.9418 10.6536 15.9645C10.7468 16.0406 10.7492 16.0394 10.8455 15.9906L10.8628 15.9819C10.9451 15.9406 10.9794 15.888 10.9686 15.7958C10.9635 15.7526 10.9559 15.7378 10.9103 15.7378C10.6207 15.738 10.3311 15.7369 10.0415 15.7357C9.94091 15.7353 9.84024 15.7349 9.73966 15.7346C9.65933 15.7343 9.57906 15.7344 9.49642 15.7344ZM14.4358 8.17802C14.4844 8.16723 14.5248 8.14677 14.5582 8.11885C14.9804 7.76589 14.5593 7.00545 14.0516 6.79331C13.8993 6.72969 13.7511 6.70016 13.6435 6.70743C13.3676 6.72608 13.1104 7.02058 12.8532 7.31508C12.596 7.60958 12.7482 8.24732 13.0564 8.27125C13.3565 8.29455 14.0157 8.27122 14.4358 8.17802ZM5.65558 7.83737C5.68897 7.86529 5.7294 7.88575 5.77801 7.89654C6.19807 7.98974 6.85726 8.01307 7.1574 7.98977C7.46559 7.96584 7.6178 7.3281 7.36058 7.0336C7.10337 6.7391 6.84616 6.4446 6.57031 6.42595C6.46273 6.41868 6.31451 6.44821 6.16225 6.51183C5.65453 6.72397 5.23344 7.48441 5.65558 7.83737Z" fill="white"/>
</svg>
