<svg width="24" height="24" viewBox="0 0 24 24" fill="none" xmlns="http://www.w3.org/2000/svg">
<path d="M16.125 11.681C17.1692 11.681 18.0156 10.8744 18.0156 9.87931C18.0156 8.88425 17.1692 8.07759 16.125 8.07759C15.0808 8.07759 14.2344 8.88425 14.2344 9.87931C14.2344 10.8744 15.0808 11.681 16.125 11.681Z" fill="black"/>
<path d="M9.76562 9.87931C9.76562 10.8744 8.91916 11.681 7.875 11.681C6.83084 11.681 5.98438 10.8744 5.98438 9.87931C5.98438 8.88425 6.83084 8.07759 7.875 8.07759C8.91916 8.07759 9.76562 8.88425 9.76562 9.87931Z" fill="black"/>
<path fill-rule="evenodd" clip-rule="evenodd" d="M1 5.2931C1 4.02666 2.07731 3 3.40625 3H20.5938C21.9227 3 23 4.02666 23 5.2931V19.7935C23 20.2378 22.7222 20.6393 22.2937 20.8143C21.9786 20.943 21.62 20.933 21.3134 20.7869L21.0329 20.6532C20.8559 20.5689 20.6943 20.4579 20.5543 20.3245L20.3162 20.0976C20.0537 19.8474 19.6977 19.7069 19.3265 19.7069C18.9297 19.7069 18.5516 19.8674 18.2861 20.1485L17.3585 21.1307C17.2242 21.2729 17.0717 21.3985 16.9047 21.5046L16.655 21.6633C16.3094 21.8828 15.9034 22 15.488 22C15.0103 22 14.5468 21.8451 14.1737 21.5607L13.8906 21.3448L13.4898 20.9976C12.6276 20.2506 11.3277 20.1997 10.4041 20.8768L9.76562 21.3448L9.37599 21.6419C9.07191 21.8737 8.6941 22 8.30469 22C7.91528 22 7.53746 21.8737 7.23338 21.6419L6.84375 21.3448L5.446 20.0128C5.24047 19.8169 4.96171 19.7069 4.67104 19.7069C4.40943 19.7069 4.15644 19.7961 3.95781 19.9583L3.41614 20.4008C3.18358 20.5908 2.9078 20.7265 2.61064 20.7973L2.53972 20.8142C2.43032 20.8403 2.31798 20.8534 2.20522 20.8534H2.03125C1.70666 20.8534 1.40101 20.7078 1.20625 20.4603C1.07237 20.2902 1 20.0833 1 19.8707V5.2931ZM16.125 12.1724C17.4539 12.1724 18.5312 11.1458 18.5312 9.87931C18.5312 8.61286 17.4539 7.58621 16.125 7.58621C14.7961 7.58621 13.7188 8.61286 13.7188 9.87931C13.7188 11.1458 14.7961 12.1724 16.125 12.1724ZM10.2812 9.87931C10.2812 11.1458 9.20394 12.1724 7.875 12.1724C6.54606 12.1724 5.46875 11.1458 5.46875 9.87931C5.46875 8.61286 6.54606 7.58621 7.875 7.58621C9.20394 7.58621 10.2812 8.61286 10.2812 9.87931Z" fill="black"/>
</svg>
