<svg width="20" height="20" viewBox="0 0 20 20" fill="none" xmlns="http://www.w3.org/2000/svg">
<path d="M13.75 9.22414C14.6992 9.22414 15.4688 8.45993 15.4688 7.51724C15.4688 6.57455 14.6992 5.81034 13.75 5.81034C12.8008 5.81034 12.0312 6.57455 12.0312 7.51724C12.0312 8.45993 12.8008 9.22414 13.75 9.22414Z" fill="white"/>
<path d="M7.96875 7.51724C7.96875 8.45993 7.19924 9.22414 6.25 9.22414C5.30076 9.22414 4.53125 8.45993 4.53125 7.51724C4.53125 6.57455 5.30076 5.81034 6.25 5.81034C7.19924 5.81034 7.96875 6.57455 7.96875 7.51724Z" fill="white"/>
<path fill-rule="evenodd" clip-rule="evenodd" d="M0 3.17241C0 1.97262 0.979377 1 2.1875 1H17.8125C19.0206 1 20 1.97262 20 3.17241V16.9097C20 17.3306 19.7474 17.7109 19.3579 17.8767C19.0715 17.9987 18.7455 17.9891 18.4668 17.8507L18.2117 17.7241C18.0508 17.6442 17.9039 17.539 17.7766 17.4127L17.5602 17.1977C17.3216 16.9607 16.9979 16.8276 16.6604 16.8276C16.2997 16.8276 15.956 16.9796 15.7147 17.2459L14.8714 18.1764C14.7493 18.3112 14.6107 18.4302 14.4588 18.5307L14.2318 18.681C13.9177 18.889 13.5485 19 13.1709 19C12.7366 19 12.3152 18.8532 11.9761 18.5838L11.7188 18.3793L11.3544 18.0504C10.5706 17.3427 9.38881 17.2945 8.54918 17.9359L7.96875 18.3793L7.61454 18.6607C7.3381 18.8803 6.99463 19 6.64062 19C6.28662 19 5.94315 18.8803 5.66671 18.6607L5.3125 18.3793L4.04181 17.1174C3.85497 16.9318 3.60155 16.8276 3.33731 16.8276C3.09948 16.8276 2.86949 16.9121 2.68892 17.0658L2.19649 17.485C1.98507 17.6649 1.73436 17.7935 1.46422 17.8606L1.39974 17.8766C1.30029 17.9013 1.19816 17.9138 1.09565 17.9138H0.9375C0.642415 17.9138 0.364551 17.7758 0.1875 17.5414C0.0657917 17.3802 0 17.1842 0 16.9828V3.17241ZM13.75 9.68965C14.9581 9.68965 15.9375 8.71703 15.9375 7.51724C15.9375 6.31745 14.9581 5.34483 13.75 5.34483C12.5419 5.34483 11.5625 6.31745 11.5625 7.51724C11.5625 8.71703 12.5419 9.68965 13.75 9.68965ZM8.4375 7.51724C8.4375 8.71703 7.45812 9.68965 6.25 9.68965C5.04188 9.68965 4.0625 8.71703 4.0625 7.51724C4.0625 6.31745 5.04188 5.34483 6.25 5.34483C7.45812 5.34483 8.4375 6.31745 8.4375 7.51724Z" fill="white"/>
</svg>
