<svg width="20" height="20" viewBox="0 0 20 20" fill="none" xmlns="http://www.w3.org/2000/svg">
<path fill-rule="evenodd" clip-rule="evenodd" d="M8.16349 0.29597C4.21799 1.46803 1.62683 4.44609 1.25316 8.23816L1.12948 9.49221H2.84838H4.5671V9.00962C4.5671 8.33555 5.01516 6.71203 5.4569 5.78542C6.64704 3.28891 9.84502 1.36252 12.7992 1.36252C14.5103 1.36252 15.9947 1.85186 18.0755 3.10175C18.649 3.44631 18.6376 3.42262 17.9001 2.74232C16.7901 1.71832 15.7659 1.05255 14.5093 0.537958C13.0456 -0.0613905 9.78502 -0.185757 8.16349 0.29597ZM14.7926 2.27062C14.7001 2.38963 14.3228 3.02737 13.954 3.68778L13.2837 4.8889L13.8814 5.32358C15.0884 6.20141 16.2824 7.55596 16.8483 8.68945C17.3524 9.69874 17.4385 10.0701 17.5104 11.5416C17.6023 13.4268 17.3418 14.6494 16.5343 16.1203C15.9513 17.1824 14.2282 18.7758 12.9483 19.4366C12.4025 19.7183 11.9779 19.9702 12.0046 19.9966C12.0313 20.0229 12.5023 19.892 13.0512 19.7059C17.3325 18.2536 20 14.6316 20 10.2706C20 7.19601 18.7149 4.65833 16.2334 2.83243C15.0694 1.97605 15.0326 1.96169 14.7926 2.27062ZM0.224418 7.3157C-0.731871 11.7926 1.42526 16.1717 5.60374 18.2366C6.12565 18.4946 6.95458 18.8111 7.44579 18.9401C8.50225 19.2174 10.6496 19.243 11.7599 18.9913C12.7949 18.7566 14.5668 17.9689 14.5668 17.7432C14.5668 17.6456 14.2089 16.9641 13.7716 16.2284L12.9765 14.8912L12.2888 15.2188C9.49714 16.5486 6.59073 16.2829 4.02343 14.4633C1.76332 12.8614 0.752824 10.9388 0.546865 7.84898L0.443008 6.29223L0.224418 7.3157Z" fill="white"/>
</svg>
