<svg width="20" height="20" viewBox="0 0 20 20" fill="none" xmlns="http://www.w3.org/2000/svg">
<g clip-path="url(#clip0)">
<path fill-rule="evenodd" clip-rule="evenodd" d="M17.355 1.4365C16.535 0.79225 15.6044 0.472587 14.5623 0.46753C13.818 0.464523 13.074 0.477371 12.3297 0.480651C11.9481 0.482427 11.5665 0.48229 11.1849 0.48024C10.7848 0.478464 10.3846 0.471494 9.98398 0.471904C9.61252 0.472451 9.2412 0.482701 8.86974 0.483794C8.29287 0.485844 7.71546 0.479693 7.13872 0.484613C6.68909 0.488713 6.23973 0.505387 5.79064 0.515227C5.52701 0.521103 5.26256 0.50812 5.00057 0.531217C3.86132 0.627977 2.89318 1.10276 1.92571 2.05464C1.53608 2.39753 1.21054 3.02483 0.977248 3.69737C0.853155 4.05653 0.790835 4.4381 0.725645 4.8138C0.681092 5.07155 0.759812 5.14781 1.01893 5.17378C1.06745 5.17911 1.11651 5.17624 1.1653 5.17501C1.4497 5.16859 1.73315 5.16039 2.01687 5.15492C2.42769 5.14754 2.83769 5.14399 3.2481 5.13428C3.67778 5.12444 4.10746 5.10668 4.537 5.09615C4.74186 5.09137 4.947 5.09889 5.15132 5.09356C5.59179 5.08221 6.032 5.06076 6.47165 5.05242C6.90147 5.04408 7.33101 5.04996 7.7596 5.04367C8.23984 5.03629 8.71954 5.01689 9.19938 5.01128C9.63904 5.0065 10.0792 5.01921 10.5194 5.01333C11.0969 5.00554 11.6736 4.98395 12.2517 4.97438C12.6039 4.96851 12.9561 4.97684 13.3083 4.9737C13.7873 4.97028 14.2668 4.95785 14.7459 4.95607C15.1563 4.95457 15.5668 4.96741 15.9772 4.96646C16.8958 4.96441 17.8148 4.95771 18.7336 4.95183C18.7923 4.9517 18.8513 4.94732 18.9095 4.94076C19.1588 4.91261 19.2 4.89033 19.1628 4.65281C19.104 4.27779 19.0463 3.89485 18.9188 3.5413C18.6865 2.89623 18.3208 2.34519 17.8482 1.8726C17.6946 1.71899 17.53 1.57385 17.355 1.4365ZM18.4018 8.44339C17.9585 8.03202 17.4558 7.7945 16.8362 7.85764C16.7879 7.86242 16.7387 7.8575 16.6899 7.85627C16.2014 7.84848 15.7137 7.83673 15.2254 7.83222C14.7174 7.82798 14.2097 7.83167 13.7016 7.82976C13.2811 7.82853 12.8605 7.8221 12.4403 7.82279C12.0004 7.82374 11.5608 7.83632 11.1212 7.83427C10.6621 7.83222 10.2035 7.81582 9.74454 7.81199C9.18831 7.80734 8.63221 7.80939 8.07584 7.80871C7.04839 7.80707 6.02134 7.80475 4.99319 7.80352C3.63364 7.80133 2.27339 7.80092 0.913152 7.79723C0.654989 7.79709 0.632849 7.80967 0.632029 8.08109C0.628886 8.73722 0.632301 9.39281 0.630798 10.0484C0.629704 10.4513 0.728241 10.8256 0.959754 11.1553C1.18047 11.4697 1.44806 11.7422 1.78741 11.9302C2.036 12.0681 2.2995 12.1725 2.59183 12.1781C3.11991 12.1887 3.64744 12.1983 4.17483 12.2096C4.54629 12.2178 4.91734 12.2338 5.28867 12.237C6.03118 12.2429 6.77341 12.2389 7.51565 12.2464C8.12149 12.2528 8.72761 12.2707 9.33304 12.2808C10.1637 12.2948 10.9949 12.306 11.825 12.3177C12.6076 12.3295 13.3898 12.3393 14.1721 12.3522C14.5146 12.3579 14.6592 12.5383 14.5846 12.8639C14.4496 13.4532 14.1837 13.9729 13.7012 14.3508C13.2939 14.6701 12.826 14.8822 12.3025 14.8977C11.6974 14.9163 11.0914 14.8999 10.4861 14.8954C10.0557 14.892 9.62605 14.88 9.19569 14.8779C8.63973 14.8749 8.08322 14.8774 7.52727 14.8785C7.43925 14.8793 7.35151 14.8875 7.2635 14.8897C7.07818 14.8927 6.89286 14.8965 6.70658 14.8961C6.29699 14.8949 5.88713 14.8874 5.47699 14.8891C5.03788 14.8915 4.59864 14.9018 4.15967 14.9081C4.12058 14.9089 4.08176 14.9024 4.0424 14.9013C3.58416 14.8949 3.12551 14.8869 2.66686 14.8815C2.4527 14.8789 2.23813 14.8819 2.02384 14.8822C1.65293 14.8827 1.28201 14.8759 0.911101 14.8868C0.688471 14.8935 0.619454 14.9642 0.657174 15.1828C0.722091 15.5569 0.780721 15.9394 0.90946 16.2942C1.22721 17.1698 1.79739 17.8649 2.52541 18.4429C3.25603 19.0229 4.09365 19.321 5.00823 19.3814C5.68049 19.4263 6.35754 19.3927 7.03294 19.3924C7.53178 19.3927 8.03074 19.3896 8.52971 19.3886C8.99875 19.3881 9.46766 19.3882 9.93683 19.3878C10.3664 19.3874 10.7965 19.3834 11.2257 19.3874C11.7039 19.3916 12.1824 19.4081 12.6599 19.4098C13.1486 19.4117 13.6379 19.4114 14.1259 19.3943C14.7301 19.3726 15.0318 19.352 15.2924 19.3015C15.5492 19.2522 16.4612 19.0534 17.3679 18.3303C17.8256 17.9652 18.1014 17.6107 18.1767 17.5111C18.3079 17.3389 18.7905 16.6775 19.0103 15.6506C19.0918 15.2695 19.1123 15.0948 19.1073 14.1902C19.0999 12.8495 19.0964 11.5083 19.1184 10.1677C19.1293 9.5098 18.927 8.96587 18.4736 8.51241C18.4503 8.48917 18.4266 8.46621 18.4018 8.44339Z" fill="white"/>
</g>
<defs>
<clipPath id="clip0">
<rect width="20" height="20" fill="white"/>
</clipPath>
</defs>
</svg>
