<svg width="24" height="24" viewBox="0 0 24 24" fill="none" xmlns="http://www.w3.org/2000/svg">
<g clip-path="url(#clip0_442_22803)">
<path fill-rule="evenodd" clip-rule="evenodd" d="M12.7221 0.480002C11.1856 0.480002 9.7273 0.809795 8.40813 1.3981C8.17731 1.49484 7.95247 1.60525 7.7348 1.72875C7.58536 1.80862 7.43592 1.88763 7.29164 1.97352L7.32599 1.98468C6.88885 2.28785 6.51268 2.64083 6.20435 3.04964C3.15291 7.08961 12.7725 9.22967 18.2399 9.23998C20.7563 11.0495 22.0696 4.93994 19.6117 3.02302C17.694 1.37732 15.2491 0.474897 12.7221 0.480002Z" fill="white" fill-opacity="0.3"/>
<path fill-rule="evenodd" clip-rule="evenodd" d="M8.87887 2.84936C7.49615 4.88051 2.88935 6.31219 2.13185 6.08889L2.12842 6.0803L2.22289 5.89737C3.01436 4.41227 4.13834 3.13016 5.50708 2.15113C5.7905 1.94758 6.08422 1.75778 6.38739 1.58086C7.03066 1.21585 7.69196 1.19352 7.90925 1.18494C9.96015 1.22273 8.88918 2.83304 8.87801 2.84936" fill="white"/>
<path fill-rule="evenodd" clip-rule="evenodd" d="M5.97797 20.9143C5.25913 20.5158 3.88096 19.3653 2.92523 18.0809C2.22608 17.1401 1.67839 16.0957 1.30203 14.9856C0.914604 13.8374 0.717902 12.6334 0.719741 11.4215C0.717596 10.0893 0.955576 8.76757 1.42227 7.51978H1.42399C2.24847 8.60105 3.20178 9.57927 4.01166 10.6717C4.78376 11.7109 5.7624 12.8749 5.97797 13.2373V20.9143Z" fill="white"/>
<path fill-rule="evenodd" clip-rule="evenodd" d="M23.122 9.03072C23.122 9.03072 11.8308 11.2499 8.22897 11.0396C7.71896 10.4673 7.17339 9.59369 7.07816 8.86498C6.60237 5.22523 13.9643 2.68823 17.1995 2.59204C17.5869 2.59634 18.7678 2.61008 19.4557 3.17176C20.6486 4.21616 21.6041 5.50377 22.2582 6.94807C22.5321 7.55313 22.9609 8.39015 23.122 9.03072Z" fill="white"/>
<path d="M14.7889 14.5657C15.07 14.5233 15.3381 14.486 15.6053 14.4419C16.5796 14.2815 17.5538 14.1198 18.5277 13.9566C19.2416 13.8367 19.9531 13.7009 20.6688 13.5951C21.3313 13.4971 21.9955 13.4186 22.6613 13.3556C22.8762 13.3353 23.1022 13.3727 23.3158 13.4179C23.5555 13.4685 23.6279 13.5875 23.6279 13.8338C23.6279 14.035 23.6279 14.2361 23.6279 14.4372C23.6279 14.4436 23.6225 14.45 23.617 14.4625C23.4583 14.2732 23.2361 14.256 23.0165 14.2382C22.4782 14.1947 21.9449 14.256 21.4158 14.3402C20.1958 14.5338 18.9787 14.7424 17.7594 14.944C16.8006 15.1019 15.8412 15.2564 14.8824 15.4149C14.8471 15.4206 14.7878 15.453 14.7878 15.4741C14.7814 15.7526 14.7835 16.0315 14.7835 16.3259C14.9813 16.2968 15.1635 16.2733 15.3445 16.2433C16.6099 16.0333 17.8753 15.8228 19.1405 15.6118C19.94 15.4793 20.7384 15.3385 21.5407 15.224C21.9763 15.1617 22.4181 15.1343 22.8582 15.1165C23.0343 15.1094 23.2167 15.1575 23.3899 15.2043C23.5555 15.2493 23.6338 15.3761 23.6298 15.5538C23.6251 15.7734 23.6298 15.993 23.6298 16.2305C23.4145 15.997 23.1393 16.0019 22.875 15.9904C22.2932 15.965 21.7184 16.0469 21.1477 16.1387C20.083 16.3095 19.0215 16.4936 17.9582 16.6706C17.0188 16.8266 16.0804 16.9877 15.1391 17.1306C14.3574 17.2494 13.5738 17.3555 12.7884 17.4488C12.0456 17.5381 11.3012 17.6171 10.5557 17.6781C9.8257 17.7378 9.09362 17.7775 8.36177 17.8102C7.76763 17.8369 7.17231 17.8404 6.57746 17.8539C6.55049 17.8539 6.52327 17.8539 6.48139 17.8539C6.47784 17.8045 6.47217 17.7593 6.47217 17.7141C6.47217 16.4048 6.47217 15.0956 6.47217 13.7863C6.47217 13.3093 6.47832 12.8325 6.48068 12.3555C6.48234 11.97 6.72535 11.7067 7.11245 11.6885C7.37273 11.6762 7.633 11.6899 7.89328 11.6757C8.76615 11.6284 9.6402 11.5884 10.5114 11.5153C11.4421 11.4373 12.3707 11.34 13.2973 11.2233C14.2743 11.0988 15.2487 10.9509 16.2207 10.7933C17.7336 10.5477 19.2432 10.283 20.7552 10.0314C21.4317 9.91905 22.1119 9.83245 22.7993 9.83032C22.9802 9.83035 23.1605 9.85067 23.3369 9.8909C23.5662 9.94295 23.6312 10.0452 23.6312 10.2778V10.9476C23.4377 10.7358 23.1883 10.7259 22.9436 10.7122C22.3814 10.6805 21.8252 10.7498 21.2729 10.8395C19.883 11.0659 18.495 11.3054 17.1056 11.5354C16.3643 11.6582 15.6213 11.772 14.8796 11.8922C14.8455 11.8976 14.7901 11.9348 14.7896 11.9584C14.7833 12.2331 14.7856 12.5083 14.7856 12.8024C14.9356 12.7819 15.071 12.7669 15.2049 12.7447C16.4623 12.536 17.7189 12.3226 18.9768 12.1172C19.9788 11.9537 20.9809 11.7904 21.9856 11.644C22.4015 11.5839 22.8246 11.5396 23.2441 11.6338C23.3272 11.6525 23.4199 11.6773 23.4807 11.7306C23.5465 11.7874 23.6158 11.8782 23.6227 11.9589C23.6412 12.2007 23.6293 12.4447 23.6293 12.7076C23.415 12.4733 23.1372 12.4627 22.8757 12.4709C22.3689 12.4885 21.8583 12.5126 21.3583 12.5893C20.0905 12.7821 18.8265 13.0071 17.5623 13.2156C16.681 13.3609 15.7991 13.5028 14.9167 13.6415C14.8185 13.6569 14.7766 13.6905 14.7811 13.7981C14.7904 14.0111 14.7835 14.224 14.7842 14.437C14.7818 14.4763 14.7856 14.5141 14.7889 14.5657ZM13.3652 12.7561L13.3856 12.7847C13.4973 12.624 13.6269 12.589 13.785 12.7395C13.7632 12.6323 13.7183 12.5464 13.7412 12.4866C13.7649 12.4227 13.8543 12.3836 13.9149 12.3335L13.8974 12.2902C13.7097 12.3723 13.6134 12.2937 13.5675 12.1023C13.555 12.32 13.4272 12.3862 13.2159 12.3862L13.4289 12.5282L13.3652 12.7561ZM13.4284 13.7567L13.3662 13.9862L13.3856 14.0087C13.4996 13.8679 13.6222 13.8047 13.7961 13.9614C13.6477 13.7605 13.7739 13.6521 13.9092 13.527C13.7071 13.6117 13.6141 13.527 13.5718 13.3339C13.5465 13.5402 13.4353 13.6256 13.2528 13.6415L13.4284 13.7567ZM13.573 14.5633C13.5493 14.7716 13.435 14.8511 13.2521 14.8643L13.427 14.9869C13.4033 15.0711 13.3844 15.1454 13.356 15.2497L13.5749 15.0747L13.7802 15.1821C13.7623 15.0874 13.7206 15.0023 13.7419 14.9391C13.7632 14.8759 13.847 14.8295 13.9033 14.776L13.8988 14.7458C13.7171 14.8238 13.6106 14.7682 13.573 14.5633ZM13.926 15.9975C13.8112 15.9975 13.7232 16.0211 13.6693 15.9901C13.6203 15.961 13.6082 15.8699 13.5801 15.8063L13.5514 15.798C13.5477 16.0001 13.4353 16.08 13.2353 16.0819C13.4589 16.1543 13.4246 16.2996 13.3844 16.4558L13.5756 16.302L13.7649 16.4077L13.797 16.3985C13.665 16.2158 13.7623 16.1035 13.926 15.9975ZM12.8397 11.5841C12.816 11.7893 12.7058 11.8707 12.5058 11.868C12.7228 11.9435 12.6975 12.0831 12.6509 12.2426L12.8454 12.0905L13.0503 12.2104C13.0283 12.1113 12.9826 12.0273 13.003 11.9653C13.0255 11.8988 13.1099 11.8529 13.1674 11.7978C12.9864 11.8392 12.8752 11.7912 12.8416 11.5841H12.8397ZM13.1975 14.2482C13.082 14.2482 12.9933 14.2732 12.9388 14.2408C12.8894 14.2112 12.8771 14.1194 12.8397 14.0359C12.8018 14.1306 12.7924 14.2236 12.7399 14.268C12.6873 14.3125 12.5979 14.3047 12.5234 14.3199C12.7155 14.4005 12.7044 14.5364 12.6253 14.6944L12.6542 14.7013L12.8435 14.5482L13.0328 14.6566L13.0647 14.6497C12.9377 14.4682 13.0231 14.352 13.1987 14.2482H13.1975ZM12.8425 12.8138C12.8078 13.0066 12.716 13.1093 12.5032 13.0932C12.7162 13.1725 12.7063 13.3109 12.6516 13.4744L12.8428 13.3199L13.0427 13.434C13.0191 13.252 13.0191 13.252 13.1681 12.9972C12.9864 13.0693 12.8771 13.0189 12.844 12.8138H12.8425ZM12.5103 15.5512C12.7247 15.6267 12.6996 15.7701 12.6447 15.934C12.7697 15.7899 12.8946 15.7466 13.0567 15.8888C12.9299 15.6941 13.0406 15.5812 13.1736 15.4648C12.9791 15.5375 12.883 15.4592 12.8392 15.2699C12.8073 15.4644 12.7176 15.5642 12.5103 15.5512ZM12.5056 16.7754C12.716 16.8538 12.7055 16.995 12.6426 17.1715C12.7654 17.0005 12.8982 16.9877 13.0612 17.1131C12.9296 16.9202 13.0363 16.81 13.2031 16.6955C13.0863 16.7021 12.9975 16.7331 12.9448 16.7026C12.892 16.672 12.883 16.5795 12.8544 16.5133C12.8035 16.6843 12.7207 16.7989 12.5044 16.7754H12.5056ZM9.91846 11.8626C9.8948 12.0682 9.78004 12.1418 9.58507 12.1385C9.7888 12.213 9.78004 12.3498 9.73508 12.5064L9.91846 12.373L10.1108 12.4847C10.0072 12.302 10.0992 12.1889 10.244 12.0824C10.0529 12.1238 9.94449 12.0678 9.91727 11.8626H9.91846ZM11.7752 13.7891C11.9881 13.8615 11.9678 14.0052 11.916 14.1708C12.0416 14.0182 12.1703 13.9983 12.3255 14.1457C12.3019 14.0354 12.2562 13.9522 12.2761 13.8895C12.296 13.8267 12.3811 13.7839 12.464 13.708L12.2037 13.7286L12.1211 13.5215L12.092 13.5118C12.0856 13.7158 11.9746 13.795 11.774 13.7891H11.7752ZM10.222 17.0071C10.1511 17.0007 10.0614 17.0175 10.0103 16.9813C9.95916 16.9451 9.95135 16.8575 9.92437 16.792L9.89007 16.7683C9.90403 16.9957 9.7843 17.0606 9.57016 17.0303C9.65558 17.1032 9.74005 17.141 9.75685 17.199C9.77578 17.2626 9.73319 17.3445 9.71615 17.4186C9.84771 17.295 9.97454 17.2529 10.1253 17.4115C10.0403 17.2371 10.0538 17.1043 10.2209 17.0059L10.222 17.0071ZM11.1607 16.1023C11.2532 16.0332 11.3098 15.9589 11.3722 15.9534C11.4347 15.948 11.5092 16.0079 11.6178 16.0571C11.4735 15.8626 11.5629 15.7447 11.7125 15.6312C11.5109 15.6977 11.4162 15.6193 11.3874 15.4277C11.346 15.51 11.3381 15.6044 11.2868 15.6482C11.2355 15.692 11.1408 15.6851 11.0651 15.7007C11.2676 15.7783 11.2293 15.9241 11.1595 16.1011L11.1607 16.1023ZM12.4651 12.4821C12.3892 12.4873 12.3468 12.4821 12.308 12.4946C12.2238 12.5213 12.184 12.4892 12.1661 12.4092C12.1547 12.3704 12.1408 12.3324 12.1244 12.2954L12.088 12.2876C12.0951 12.5005 11.9635 12.5557 11.7804 12.5545C11.8542 12.6193 11.9368 12.6583 11.9548 12.717C11.9728 12.7757 11.9273 12.8554 11.9098 12.926C12.0409 12.8005 12.1701 12.7646 12.3253 12.9191C12.3016 12.8102 12.2574 12.7265 12.278 12.6638C12.2986 12.6011 12.3807 12.5564 12.463 12.4799L12.4651 12.4821ZM11.3725 12.979C11.3471 13.0499 11.3415 13.146 11.2911 13.1877C11.2366 13.2326 11.1408 13.2276 11.0223 13.2532C11.2447 13.3223 11.2449 13.4586 11.1796 13.6207C11.2556 13.575 11.3119 13.5005 11.3739 13.4955C11.4359 13.4905 11.5097 13.5513 11.6188 13.6024C11.4714 13.4032 11.5639 13.2866 11.7148 13.1765C11.5147 13.2362 11.4106 13.1716 11.3713 12.9775L11.3725 12.979ZM11.5724 14.8312L11.5873 14.8021C11.567 14.7287 11.5464 14.6554 11.5272 14.5865C11.5909 14.5283 11.6476 14.477 11.7042 14.4254L11.7092 14.3913C11.5123 14.4692 11.4174 14.3859 11.3767 14.1933C11.3639 14.4083 11.2376 14.4744 11.0492 14.4673C11.1231 14.5347 11.2033 14.5752 11.2215 14.6346C11.2397 14.6939 11.194 14.7708 11.1765 14.8402C11.3069 14.7209 11.4292 14.6674 11.5712 14.8298L11.5724 14.8312ZM9.93124 15.5573L9.5924 15.8377C9.78737 15.9019 9.78335 16.0367 9.71237 16.204C9.84511 16.0661 9.97264 16.023 10.125 16.1804C10.0268 16.0005 10.0753 15.8739 10.2412 15.7701C10.0453 15.8167 9.94898 15.7405 9.93124 15.5573ZM9.71592 14.9698C9.84795 14.8255 9.9762 14.8075 10.134 14.9507C10.0015 14.7614 10.0895 14.6504 10.2419 14.5458C10.0526 14.5856 9.94756 14.5167 9.92012 14.3286C9.88084 14.4091 9.87279 14.5011 9.82547 14.5416C9.77815 14.582 9.68185 14.5756 9.60731 14.5889C9.78596 14.6715 9.78666 14.8011 9.71592 14.9698ZM11.4709 16.8774C11.443 16.8064 11.4158 16.7355 11.3888 16.6666L11.3531 16.6451C11.3644 16.8694 11.2402 16.933 11.0341 16.9153C11.1172 16.9863 11.1997 17.0239 11.2196 17.0826C11.2395 17.1412 11.1943 17.2245 11.1709 17.3251L11.3798 17.1623L11.5736 17.2697L11.6041 17.2626C11.4692 17.0823 11.566 16.9706 11.6947 16.8604L11.4709 16.8774ZM11.9072 15.3813L11.9231 15.4088C12.0371 15.2462 12.1684 15.2266 12.3296 15.355C12.1997 15.1646 12.3019 15.0538 12.4412 14.9426C12.2494 14.9959 12.1426 14.9365 12.1079 14.7268C12.097 14.9478 11.9716 15.0167 11.7766 15.0089C11.8521 15.0758 11.9342 15.1149 11.9524 15.1745C11.9706 15.2341 11.925 15.3113 11.9072 15.3813ZM11.9219 16.6238L12.1145 16.4733L12.322 16.5944C12.2995 16.4965 12.2541 16.4137 12.2735 16.3507C12.2929 16.2878 12.3764 16.2438 12.4495 16.1749C12.3499 16.1749 12.2602 16.2002 12.2089 16.1676C12.1575 16.1349 12.1481 16.0448 12.1109 15.9586C12.0752 16.0533 12.0662 16.1451 12.0163 16.1901C11.9664 16.235 11.8743 16.2267 11.8007 16.2419C11.9976 16.324 11.9616 16.4681 11.9219 16.6238ZM11.5244 12.1305L11.7056 11.9648V11.9324C11.5149 12.0098 11.415 11.9381 11.3784 11.7405C11.3497 11.9414 11.2416 12.0245 11.0315 12.0008C11.1145 12.0699 11.1993 12.1066 11.2175 12.1645C11.2369 12.2263 11.1938 12.3065 11.1772 12.3808C11.3095 12.2537 11.4361 12.2152 11.5897 12.3472C11.5684 12.2753 11.5464 12.2014 11.5244 12.1305ZM10.854 14.2574C10.8356 14.184 10.7871 14.101 10.8067 14.0395C10.8273 13.9744 10.9125 13.9297 10.9846 13.862C10.8836 13.862 10.7939 13.8878 10.7433 13.8544C10.6927 13.8211 10.6844 13.729 10.6574 13.6625C10.6177 13.8405 10.5296 13.9465 10.312 13.9195C10.518 14.0004 10.5159 14.1372 10.4482 14.3061C10.577 14.1653 10.7035 14.1258 10.854 14.2574ZM7.72149 14.3161L7.9122 14.4389C7.82489 14.2669 7.88334 14.1476 8.04329 14.0456C7.83152 14.1031 7.75935 13.9886 7.71676 13.8133C7.69996 14.0184 7.58922 14.0887 7.39212 14.0683C7.58709 14.1523 7.59846 14.2839 7.53812 14.4469L7.72149 14.3161ZM9.39483 13.1567C9.28197 12.9674 9.35437 12.8491 9.51811 12.748C9.31983 12.7982 9.21832 12.7213 9.17975 12.5254C9.16673 12.7383 9.04275 12.7979 8.84849 12.7776C8.92657 12.8486 9.00749 12.889 9.02595 12.9487C9.0444 13.0083 9.00087 13.088 8.98454 13.1588C9.11515 13.031 9.24316 13.0059 9.39365 13.1557L9.39483 13.1567ZM9.58791 13.3653C9.79566 13.4415 9.77507 13.5816 9.71947 13.7439C9.85032 13.5963 9.97832 13.5783 10.1361 13.7238C9.99417 13.5326 10.099 13.4226 10.2407 13.3133C10.0446 13.3606 9.95253 13.2783 9.91846 13.0921C9.88604 13.279 9.79329 13.38 9.58672 13.3644L9.58791 13.3653ZM10.9863 16.323C10.8898 16.323 10.7989 16.3495 10.7497 16.3157C10.7005 16.2819 10.6858 16.1872 10.6501 16.1046C10.6136 16.1936 10.6027 16.2868 10.55 16.3311C10.4972 16.3753 10.408 16.3635 10.3332 16.3767C10.5209 16.4574 10.5095 16.5985 10.4686 16.7553C10.5299 16.708 10.5914 16.6595 10.6513 16.6134L10.8642 16.7397C10.8368 16.6406 10.7866 16.5599 10.8058 16.5031C10.8254 16.4368 10.9096 16.3926 10.9851 16.3223L10.9863 16.323ZM10.4482 13.0814C10.5755 12.9229 10.7085 12.9158 10.8656 13.0428C10.7341 12.8512 10.8384 12.7412 10.9619 12.629L10.7383 12.6477C10.723 12.6061 10.7097 12.5698 10.6962 12.5336L10.6503 12.4127C10.6122 12.5112 10.603 12.6051 10.5509 12.6494C10.5036 12.6905 10.409 12.6787 10.3363 12.6903L10.3141 12.7139C10.5294 12.7755 10.506 12.916 10.4471 13.0807L10.4482 13.0814ZM10.8576 15.5086C10.8351 15.4097 10.7897 15.3269 10.8103 15.2644C10.8308 15.202 10.9146 15.1598 10.9977 15.0846L10.7402 15.1021L10.6584 14.8922C10.6219 15.0775 10.523 15.1698 10.315 15.1525C10.5204 15.2313 10.5109 15.3707 10.4674 15.5278L10.6513 15.3858L10.8576 15.5086ZM7.52131 13.2239C7.65405 13.0807 7.7816 13.0738 7.92877 13.212C7.82915 13.032 7.88145 12.9148 8.05181 12.8214C7.85069 12.8625 7.75083 12.7802 7.72055 12.5829C7.70517 12.788 7.58828 12.8531 7.40064 12.8493C7.59065 12.9293 7.60082 13.0533 7.51943 13.2231L7.52131 13.2239ZM7.81306 15.2746C7.78349 15.1982 7.75627 15.1279 7.72315 15.0418C7.68694 15.1303 7.67583 15.2206 7.62661 15.2606C7.5774 15.3006 7.48819 15.2855 7.41626 15.2947C7.59703 15.3827 7.59395 15.5185 7.53338 15.678L7.72457 15.5443L7.92759 15.6794C7.90605 15.5848 7.86252 15.5043 7.88026 15.4445C7.89801 15.3846 7.97964 15.3406 8.0492 15.2746H7.81306ZM8.12871 15.8867C8.31918 15.9731 8.32841 16.1061 8.27068 16.2677L8.45334 16.1342L8.63956 16.2537L8.68144 16.2565C8.54538 16.0765 8.62158 15.9622 8.76189 15.8614H8.54278C8.51392 15.7857 8.48694 15.7142 8.45973 15.6428C8.42093 15.8153 8.34071 15.9201 8.12681 15.886L8.12871 15.8867ZM9.50675 16.4421C9.41944 16.4347 9.32976 16.4525 9.27936 16.416C9.22896 16.3796 9.2195 16.2894 9.19205 16.2227C9.15301 16.3985 9.06949 16.5083 8.85133 16.4704C9.04441 16.5544 9.0605 16.6858 8.98762 16.8599C9.11965 16.7009 9.24908 16.7085 9.38987 16.8521C9.34325 16.6105 9.34325 16.6105 9.50533 16.4413L9.50675 16.4421ZM8.65825 17.4879C8.55177 17.3057 8.6185 17.1898 8.78035 17.0873C8.56881 17.1491 8.4938 17.0355 8.44624 16.8611C8.4356 17.0679 8.31847 17.1311 8.12776 17.1242C8.33551 17.2042 8.31705 17.3431 8.25458 17.5059C8.3833 17.3627 8.50777 17.3346 8.65636 17.4872L8.65825 17.4879ZM9.49326 13.9813C9.42015 13.9756 9.33165 13.9929 9.27865 13.9576C9.22991 13.9247 9.2195 13.835 9.19205 13.7704C9.16579 13.9614 9.05269 14.0307 8.88256 14.0097C8.93816 14.0714 9.01128 14.1187 9.02737 14.1805C9.04346 14.2422 9.0011 14.3172 8.9843 14.3863C9.11823 14.2498 9.24695 14.2444 9.39483 14.3828C9.29238 14.2006 9.34135 14.0792 9.49137 13.9805L9.49326 13.9813ZM8.88114 15.2429L8.85606 15.2665C9.06523 15.3295 9.04417 15.47 8.98927 15.6335C9.11941 15.4722 9.24955 15.4826 9.39696 15.6099C9.2867 15.4284 9.34964 15.311 9.5129 15.2112C9.31912 15.2507 9.21619 15.1788 9.1904 14.9899C9.15206 15.0683 9.14544 15.1601 9.09575 15.2001C9.04606 15.24 8.95284 15.2301 8.87925 15.2422L8.88114 15.2429ZM7.38644 16.5116C7.46902 16.5864 7.55207 16.6266 7.5684 16.6858C7.58473 16.7449 7.53883 16.8251 7.51351 16.921L7.72362 16.7724C7.78609 16.8135 7.84666 16.8535 7.92427 16.9051C7.90463 16.8105 7.86417 16.7305 7.88263 16.6685C7.90108 16.6065 7.9794 16.5684 8.04826 16.5043H7.81354L7.72954 16.2812C7.69475 16.4605 7.5968 16.5471 7.38456 16.5109L7.38644 16.5116ZM8.23826 15.037L8.27186 15.0387L8.45382 14.9059L8.66038 15.0392C8.63672 14.9412 8.59271 14.8619 8.61069 14.8011C8.62867 14.7403 8.70912 14.7015 8.76236 14.653L8.78223 14.6092C8.55083 14.7133 8.50303 14.5619 8.44246 14.4034C8.43844 14.6175 8.3154 14.6705 8.12847 14.6648C8.31279 14.7481 8.33527 14.8735 8.23707 15.0363L8.23826 15.037ZM8.45334 13.6786L8.64263 13.7969C8.56029 13.6252 8.60383 13.5054 8.77183 13.4184C8.68641 13.4042 8.59531 13.4247 8.54799 13.3885C8.49664 13.349 8.48599 13.2565 8.45784 13.1869C8.43654 13.3812 8.31587 13.4411 8.12942 13.4283C8.2004 13.496 8.28156 13.5374 8.29931 13.5975C8.31705 13.6576 8.26949 13.7328 8.24275 13.8296L8.45334 13.6786ZM8.44293 11.9182C8.42424 12.1342 8.33361 12.2324 8.12539 12.2069C8.32486 12.2869 8.32368 12.4222 8.27328 12.5805L8.45429 12.4499L8.64074 12.5701L8.68262 12.5736C8.54799 12.3966 8.61661 12.28 8.79478 12.1839C8.68593 12.1749 8.59555 12.1932 8.5468 12.1565C8.49806 12.1198 8.48552 12.0261 8.44175 11.9175L8.44293 11.9182ZM7.19266 17.5305C7.1018 17.3568 7.13587 17.2342 7.29511 17.1394H7.08216L6.99579 16.9167C6.96716 17.1036 6.85856 17.1758 6.643 17.1396L6.85099 17.3007C6.82946 17.3746 6.80863 17.446 6.78805 17.5175L6.80461 17.543C6.92623 17.3833 7.05187 17.3942 7.19147 17.5298L7.19266 17.5305ZM7.169 12.607L7.20591 12.6039C7.08926 12.435 7.15977 12.3221 7.29251 12.222H7.07956C7.05093 12.1458 7.02395 12.0749 6.99698 12.0036C6.96574 12.1891 6.86305 12.2639 6.66572 12.2386C6.85217 12.3283 6.87204 12.4541 6.79964 12.6172L6.99012 12.488L7.169 12.607ZM7.31286 13.4751L7.2892 13.4515H7.07979C7.05022 13.3732 7.023 13.3005 6.98964 13.2113C6.95628 13.2991 6.94824 13.3923 6.89831 13.4304C6.84839 13.4685 6.75468 13.4541 6.65743 13.4669L6.85099 13.6143C6.83868 13.6545 6.82733 13.6912 6.81621 13.7283C6.80509 13.7655 6.79799 13.8019 6.7845 13.8568C6.86163 13.805 6.92221 13.733 6.98444 13.7314C7.04667 13.7297 7.11292 13.7972 7.17728 13.8343C7.09565 13.667 7.13918 13.5501 7.31073 13.4744L7.31286 13.4751ZM6.98325 15.6797C6.96432 15.8806 6.85477 15.9475 6.67873 15.94L6.84838 16.0703C6.82709 16.146 6.80627 16.2194 6.77929 16.3145C6.86045 16.2608 6.92126 16.1896 6.98278 16.1884C7.0443 16.1872 7.1115 16.2537 7.1761 16.2909C7.08145 16.1139 7.16072 16.0024 7.31664 15.9021C7.09778 15.9736 7.02821 15.8548 6.98325 15.6797ZM6.78402 15.0827C6.91937 14.9372 7.04785 14.9296 7.19195 15.0718C7.09494 14.8984 7.14605 14.781 7.306 14.6833C7.09304 14.7394 7.02845 14.6135 6.98042 14.4481C6.96622 14.6528 6.85714 14.7226 6.66146 14.6987C6.85714 14.7824 6.86708 14.9114 6.78426 15.0815L6.78402 15.0827Z" fill="white"/>
<mask id="mask0_442_22803" style="mask-type:alpha" maskUnits="userSpaceOnUse" x="6" y="9" width="18" height="9">
<path d="M14.7894 14.5658C15.0705 14.5235 15.3386 14.4861 15.6058 14.4421C16.5801 14.2816 17.5543 14.1199 18.5282 13.9568C19.2421 13.8368 19.9536 13.701 20.6693 13.5952C21.3318 13.4973 21.996 13.4187 22.6618 13.3558C22.8767 13.3354 23.1027 13.3728 23.3163 13.418C23.556 13.4686 23.6284 13.5877 23.6284 13.834C23.6284 14.0351 23.6284 14.2362 23.6284 14.4373C23.6284 14.4437 23.623 14.4501 23.6175 14.4627C23.4588 14.2734 23.2366 14.2561 23.017 14.2383C22.4787 14.1948 21.9454 14.2561 21.4163 14.3403C20.1963 14.5339 18.9792 14.7426 17.7599 14.9442C16.8011 15.102 15.8417 15.2565 14.8829 15.415C14.8476 15.4207 14.7882 15.4531 14.7882 15.4742C14.7819 15.7527 14.784 16.0316 14.784 16.326C14.9818 16.2969 15.164 16.2735 15.345 16.2434C16.6104 16.0335 17.8758 15.823 19.141 15.6119C19.9405 15.4794 20.7389 15.3386 21.5412 15.2241C21.9768 15.1619 22.4186 15.1344 22.8587 15.1167C23.0347 15.1096 23.2172 15.1576 23.3904 15.2044C23.556 15.2494 23.6343 15.3762 23.6303 15.5539C23.6256 15.7735 23.6303 15.9931 23.6303 16.2306C23.415 15.9971 23.1398 16.0021 22.8755 15.9905C22.2937 15.9652 21.7189 16.047 21.1482 16.1388C20.0835 16.3097 19.022 16.4938 17.9586 16.6707C17.0193 16.8267 16.0809 16.9878 15.1396 17.1307C14.3578 17.2495 13.5743 17.3556 12.7889 17.449C12.0461 17.5382 11.3017 17.6172 10.5562 17.6783C9.82619 17.7379 9.09411 17.7776 8.36226 17.8103C7.76812 17.837 7.1728 17.8406 6.57795 17.8541C6.55097 17.8541 6.52376 17.8541 6.48188 17.8541C6.47833 17.8046 6.47266 17.7594 6.47266 17.7142C6.47266 16.4049 6.47266 15.0957 6.47266 13.7864C6.47266 13.3094 6.47881 12.8326 6.48117 12.3556C6.48283 11.9702 6.72584 11.7068 7.11294 11.6886C7.37321 11.6763 7.63349 11.69 7.89377 11.6758C8.76664 11.6285 9.64069 11.5885 10.5119 11.5154C11.4426 11.4375 12.3712 11.3401 13.2978 11.2234C14.2748 11.0989 15.2492 10.9511 16.2212 10.7935C17.7341 10.5479 19.2437 10.2831 20.7557 10.0316C21.4322 9.91917 22.1124 9.83257 22.7998 9.83044C22.9807 9.83047 23.161 9.85079 23.3374 9.89102C23.5667 9.94307 23.6317 10.0453 23.6317 10.2779V10.9477C23.4382 10.736 23.1888 10.726 22.9441 10.7123C22.3819 10.6806 21.8256 10.7499 21.2734 10.8396C19.8835 11.066 18.4955 11.3055 17.1061 11.5355C16.3648 11.6583 15.6218 11.7721 14.8801 11.8923C14.846 11.8977 14.7906 11.9349 14.7901 11.9586C14.7838 12.2333 14.7861 12.5085 14.7861 12.8026C14.9361 12.782 15.0715 12.7671 15.2054 12.7448C16.4628 12.5361 17.7194 12.3227 18.9773 12.1173C19.9793 11.9538 20.9814 11.7906 21.9861 11.6441C22.402 11.584 22.8251 11.5398 23.2446 11.6339C23.3277 11.6526 23.4204 11.6775 23.4812 11.7307C23.547 11.7875 23.6163 11.8783 23.6232 11.959C23.6417 12.2009 23.6298 12.4448 23.6298 12.7077C23.4155 12.4734 23.1377 12.4628 22.8762 12.4711C22.3694 12.4886 21.8588 12.5127 21.3588 12.5894C20.091 12.7822 18.827 13.0072 17.5628 13.2157C16.6815 13.361 15.7996 13.5029 14.9172 13.6416C14.819 13.657 14.7771 13.6906 14.7816 13.7982C14.7908 14.0112 14.784 14.2241 14.7847 14.4371C14.7823 14.4764 14.7861 14.5142 14.7894 14.5658ZM13.3657 12.7562L13.3861 12.7848C13.4977 12.6242 13.6274 12.5891 13.7855 12.7396C13.7637 12.6324 13.7187 12.5465 13.7417 12.4867C13.7654 12.4228 13.8548 12.3838 13.9154 12.3336L13.8979 12.2903C13.7102 12.3724 13.6139 12.2938 13.568 12.1024C13.5555 12.3201 13.4277 12.3864 13.2164 12.3864L13.4294 12.5283L13.3657 12.7562ZM13.4289 13.7568L13.3667 13.9863L13.3861 14.0088C13.5001 13.868 13.6227 13.8049 13.7966 13.9615C13.6482 13.7606 13.7744 13.6522 13.9097 13.5271C13.7076 13.6118 13.6146 13.5271 13.5723 13.334C13.547 13.5403 13.4358 13.6257 13.2533 13.6416L13.4289 13.7568ZM13.5735 14.5635C13.5498 14.7717 13.4355 14.8512 13.2526 14.8644L13.4275 14.987C13.4038 15.0712 13.3849 15.1455 13.3565 15.2499L13.5754 15.0748L13.7807 15.1822C13.7628 15.0876 13.7211 15.0024 13.7424 14.9392C13.7637 14.876 13.8475 14.8296 13.9038 14.7762L13.8993 14.7459C13.7176 14.824 13.6111 14.7684 13.5735 14.5635ZM13.9265 15.9976C13.8117 15.9976 13.7237 16.0212 13.6698 15.9902C13.6208 15.9611 13.6087 15.87 13.5806 15.8064L13.5519 15.7981C13.5481 16.0002 13.4358 16.0802 13.2358 16.082C13.4594 16.1544 13.4251 16.2997 13.3849 16.4559L13.5761 16.3021L13.7654 16.4079L13.7975 16.3986C13.6655 16.216 13.7628 16.1036 13.9265 15.9976ZM12.8402 11.5842C12.8165 11.7894 12.7063 11.8708 12.5063 11.8682C12.7233 11.9437 12.698 12.0833 12.6514 12.2427L12.8459 12.0906L13.0508 12.2106C13.0288 12.1114 12.9831 12.0274 13.0035 11.9654C13.0259 11.8989 13.1104 11.853 13.1679 11.7979C12.9869 11.8393 12.8757 11.7913 12.8421 11.5842H12.8402ZM13.198 14.2483C13.0825 14.2483 12.9938 14.2734 12.9393 14.2409C12.8899 14.2114 12.8776 14.1196 12.8402 14.036C12.8023 14.1307 12.7929 14.2237 12.7403 14.2682C12.6878 14.3126 12.5984 14.3048 12.5238 14.32C12.716 14.4007 12.7049 14.5365 12.6258 14.6945L12.6547 14.7014L12.844 14.5483L13.0333 14.6567L13.0652 14.6498C12.9382 14.4683 13.0236 14.3522 13.1991 14.2483H13.198ZM12.843 12.8139C12.8083 13.0068 12.7164 13.1095 12.5037 13.0934C12.7167 13.1726 12.7067 13.311 12.6521 13.4745L12.8433 13.32L13.0432 13.4341C13.0196 13.2521 13.0196 13.2521 13.1686 12.9973C12.9869 13.0695 12.8776 13.0191 12.8445 12.8139H12.843ZM12.5108 15.5513C12.7252 15.6268 12.7001 15.7702 12.6452 15.9342C12.7702 15.7901 12.8951 15.7468 13.0572 15.889C12.9303 15.6942 13.0411 15.5814 13.1741 15.465C12.9796 15.5376 12.8835 15.4593 12.8397 15.27C12.8078 15.4645 12.7181 15.5643 12.5108 15.5513ZM12.5061 16.7756C12.7164 16.8539 12.706 16.9951 12.6431 17.1717C12.7659 17.0006 12.8986 16.9878 13.0617 17.1132C12.9301 16.9204 13.0368 16.8101 13.2036 16.6956C13.0868 16.7022 12.998 16.7332 12.9453 16.7027C12.8925 16.6722 12.8835 16.5796 12.8549 16.5134C12.804 16.6845 12.7212 16.799 12.5049 16.7756H12.5061ZM9.91895 11.8627C9.89529 12.0683 9.78053 12.1419 9.58556 12.1386C9.78929 12.2132 9.78053 12.3499 9.73557 12.5066L9.91895 12.3731L10.1113 12.4848C10.0077 12.3021 10.0997 12.189 10.2445 12.0825C10.0533 12.124 9.94498 12.0679 9.91776 11.8627H9.91895ZM11.7757 13.7892C11.9886 13.8617 11.9683 14.0053 11.9165 14.1709C12.0421 14.0183 12.1708 13.9984 12.326 14.1458C12.3024 14.0356 12.2567 13.9523 12.2766 13.8896C12.2965 13.8269 12.3816 13.784 12.4645 13.7081L12.2042 13.7287L12.1216 13.5216L12.0925 13.5119C12.0861 13.7159 11.9751 13.7952 11.7745 13.7892H11.7757ZM10.2225 17.0072C10.1515 17.0008 10.0619 17.0176 10.0108 16.9814C9.95965 16.9452 9.95184 16.8577 9.92486 16.7921L9.89056 16.7685C9.90452 16.9959 9.78479 17.0607 9.57065 17.0304C9.65607 17.1033 9.74054 17.1411 9.75734 17.1991C9.77627 17.2628 9.73368 17.3446 9.71664 17.4187C9.8482 17.2952 9.97503 17.2531 10.1258 17.4116C10.0408 17.2372 10.0543 17.1045 10.2213 17.006L10.2225 17.0072ZM11.1612 16.1024C11.2537 16.0333 11.3102 15.959 11.3727 15.9536C11.4352 15.9481 11.5097 16.008 11.6183 16.0572C11.474 15.8627 11.5634 15.7449 11.713 15.6313C11.5114 15.6978 11.4167 15.6195 11.3879 15.4278C11.3464 15.5101 11.3386 15.6046 11.2873 15.6483C11.2359 15.6921 11.1413 15.6852 11.0656 15.7009C11.2681 15.7785 11.2298 15.9242 11.16 16.1012L11.1612 16.1024ZM12.4656 12.4822C12.3897 12.4874 12.3473 12.4822 12.3085 12.4947C12.2243 12.5215 12.1845 12.4893 12.1666 12.4093C12.1552 12.3705 12.1413 12.3325 12.1249 12.2955L12.0885 12.2877C12.0956 12.5006 11.964 12.5558 11.7809 12.5546C11.8547 12.6194 11.9373 12.6585 11.9553 12.7171C11.9732 12.7758 11.9278 12.8556 11.9103 12.9261C12.0414 12.8007 12.1706 12.7647 12.3258 12.9192C12.3021 12.8104 12.2579 12.7266 12.2785 12.6639C12.2991 12.6012 12.3812 12.5565 12.4635 12.4801L12.4656 12.4822ZM11.3729 12.9791C11.3476 13.0501 11.342 13.1461 11.2916 13.1878C11.2371 13.2327 11.1413 13.2278 11.0228 13.2533C11.2452 13.3224 11.2454 13.4587 11.1801 13.6208C11.2561 13.5751 11.3124 13.5006 11.3744 13.4956C11.4364 13.4906 11.5102 13.5514 11.6193 13.6026C11.4719 13.4033 11.5644 13.2867 11.7153 13.1767C11.5152 13.2363 11.411 13.1717 11.3718 12.9777L11.3729 12.9791ZM11.5729 14.8313L11.5878 14.8022C11.5674 14.7288 11.5469 14.6555 11.5277 14.5866C11.5913 14.5284 11.6481 14.4771 11.7047 14.4255L11.7096 14.3914C11.5128 14.4693 11.4179 14.386 11.3772 14.1934C11.3644 14.4085 11.2381 14.4745 11.0497 14.4674C11.1236 14.5348 11.2038 14.5753 11.222 14.6347C11.2402 14.6941 11.1945 14.771 11.177 14.8403C11.3074 14.721 11.4297 14.6676 11.5717 14.8299L11.5729 14.8313ZM9.93173 15.5575L9.59289 15.8379C9.78786 15.902 9.78384 16.0369 9.71286 16.2041C9.8456 16.0662 9.97313 16.0231 10.1255 16.1805C10.0273 16.0006 10.0758 15.8741 10.2417 15.7702C10.0458 15.8168 9.94947 15.7406 9.93173 15.5575ZM9.71641 14.97C9.84844 14.8256 9.97669 14.8076 10.1345 14.9508C10.002 14.7615 10.09 14.6505 10.2424 14.5459C10.0531 14.5857 9.94805 14.5168 9.92061 14.3287C9.88133 14.4092 9.87328 14.5012 9.82596 14.5417C9.77864 14.5821 9.68234 14.5758 9.6078 14.589C9.78645 14.6716 9.78715 14.8012 9.71641 14.97ZM11.4714 16.8775C11.4435 16.8066 11.4163 16.7356 11.3893 16.6667L11.3535 16.6452C11.3649 16.8695 11.2407 16.9331 11.0346 16.9154C11.1176 16.9864 11.2002 17.024 11.2201 17.0827C11.24 17.1414 11.1948 17.2247 11.1714 17.3252L11.3803 17.1624L11.5741 17.2699L11.6046 17.2628C11.4697 17.0825 11.5665 16.9708 11.6952 16.8605L11.4714 16.8775ZM11.9077 15.3814L11.9235 15.4089C12.0376 15.2463 12.1689 15.2267 12.3301 15.3552C12.2002 15.1647 12.3024 15.054 12.4417 14.9427C12.2498 14.996 12.1431 14.9366 12.1083 14.727C12.0975 14.948 11.9721 15.0168 11.7771 15.009C11.8526 15.076 11.9347 15.115 11.9529 15.1746C11.9711 15.2343 11.9254 15.3114 11.9077 15.3814ZM11.9224 16.6239L12.115 16.4734L12.3225 16.5946C12.3 16.4966 12.2546 16.4138 12.274 16.3508C12.2934 16.2879 12.3769 16.2439 12.45 16.175C12.3504 16.175 12.2607 16.2004 12.2094 16.1677C12.158 16.135 12.1486 16.0449 12.1114 15.9588C12.0757 16.0534 12.0667 16.1452 12.0168 16.1902C11.9669 16.2351 11.8748 16.2269 11.8012 16.242C11.9981 16.3241 11.9621 16.4682 11.9224 16.6239ZM11.5249 12.1306L11.7061 11.9649V11.9325C11.5154 12.0099 11.4155 11.9382 11.3789 11.7406C11.3502 11.9415 11.2421 12.0246 11.032 12.0009C11.115 12.07 11.1997 12.1067 11.218 12.1647C11.2374 12.2264 11.1943 12.3066 11.1777 12.3809C11.31 12.2539 11.4366 12.2153 11.5902 12.3473C11.5689 12.2754 11.5469 12.2016 11.5249 12.1306ZM10.8545 14.2575C10.8361 14.1842 10.7876 14.1011 10.8072 14.0396C10.8278 13.9745 10.913 13.9298 10.9851 13.8621C10.8841 13.8621 10.7944 13.8879 10.7438 13.8546C10.6932 13.8212 10.6849 13.7291 10.6579 13.6627C10.6181 13.8406 10.5301 13.9466 10.3124 13.9196C10.5185 14.0005 10.5164 14.1373 10.4487 14.3063C10.5775 14.1655 10.704 14.126 10.8545 14.2575ZM7.72198 14.3162L7.91269 14.439C7.82538 14.267 7.88382 14.1477 8.04378 14.0457C7.83201 14.1032 7.75984 13.9887 7.71725 13.8134C7.70045 14.0185 7.58971 14.0888 7.39261 14.0685C7.58758 14.1525 7.59894 14.284 7.53861 14.447L7.72198 14.3162ZM9.39532 13.1568C9.28246 12.9675 9.35486 12.8492 9.5186 12.7481C9.32032 12.7983 9.21881 12.7214 9.18024 12.5255C9.16722 12.7384 9.04324 12.7981 8.84898 12.7777C8.92706 12.8487 9.00798 12.8892 9.02644 12.9488C9.04489 13.0084 9.00136 13.0882 8.98503 13.1589C9.11564 13.0311 9.24365 13.0061 9.39414 13.1558L9.39532 13.1568ZM9.5884 13.3655C9.79615 13.4417 9.77556 13.5817 9.71996 13.7441C9.85081 13.5964 9.97881 13.5784 10.1366 13.7239C9.99466 13.5328 10.0995 13.4227 10.2412 13.3134C10.0451 13.3607 9.95302 13.2784 9.91895 13.0922C9.88653 13.2791 9.79378 13.3801 9.58721 13.3645L9.5884 13.3655ZM10.9868 16.3232C10.8903 16.3232 10.7994 16.3497 10.7502 16.3158C10.701 16.282 10.6863 16.1873 10.6506 16.1048C10.6141 16.1937 10.6032 16.287 10.5505 16.3312C10.4977 16.3754 10.4085 16.3636 10.3337 16.3769C10.5214 16.4576 10.51 16.5986 10.4691 16.7555C10.5304 16.7081 10.5919 16.6596 10.6517 16.6135L10.8647 16.7398C10.8373 16.6407 10.7871 16.56 10.8063 16.5032C10.8259 16.437 10.9101 16.3927 10.9856 16.3224L10.9868 16.3232ZM10.4487 13.0815C10.576 12.923 10.709 12.9159 10.8661 13.043C10.7346 12.8513 10.8389 12.7413 10.9624 12.6291L10.7388 12.6478C10.7234 12.6062 10.7102 12.57 10.6967 12.5338L10.6508 12.4129C10.6127 12.5113 10.6035 12.6052 10.5514 12.6495C10.5041 12.6906 10.4095 12.6788 10.3368 12.6904L10.3146 12.7141C10.5299 12.7756 10.5065 12.9161 10.4475 13.0808L10.4487 13.0815ZM10.8581 15.5087C10.8356 15.4098 10.7902 15.327 10.8107 15.2645C10.8313 15.2021 10.9151 15.16 10.9982 15.0847L10.7407 15.1022L10.6588 14.8923C10.6224 15.0776 10.5235 15.1699 10.3155 15.1526C10.5209 15.2314 10.5114 15.3708 10.4679 15.5279L10.6517 15.3859L10.8581 15.5087ZM7.5218 13.224C7.65454 13.0808 7.78208 13.074 7.92926 13.2121C7.82964 13.0321 7.88193 12.915 8.0523 12.8215C7.85117 12.8627 7.75132 12.7803 7.72104 12.583C7.70566 12.7881 7.58877 12.8532 7.40113 12.8494C7.59113 12.9294 7.60131 13.0534 7.51991 13.2233L7.5218 13.224ZM7.81355 15.2747C7.78397 15.1983 7.75676 15.128 7.72364 15.0419C7.68743 15.1304 7.67632 15.2208 7.6271 15.2608C7.57789 15.3007 7.48868 15.2856 7.41675 15.2948C7.59752 15.3828 7.59444 15.5187 7.53387 15.6781L7.72506 15.5445L7.92807 15.6796C7.90654 15.5849 7.86301 15.5045 7.88075 15.4446C7.8985 15.3847 7.98013 15.3407 8.04969 15.2747H7.81355ZM8.1292 15.8868C8.31967 15.9732 8.3289 16.1062 8.27117 16.2678L8.45383 16.1343L8.64004 16.2538L8.68193 16.2567C8.54587 16.0766 8.62207 15.9623 8.76238 15.8615H8.54327C8.51441 15.7858 8.48743 15.7143 8.46022 15.6429C8.42142 15.8154 8.3412 15.9202 8.1273 15.8861L8.1292 15.8868ZM9.50724 16.4422C9.41993 16.4348 9.33025 16.4526 9.27985 16.4161C9.22945 16.3797 9.21999 16.2896 9.19254 16.2228C9.1535 16.3986 9.06998 16.5084 8.85182 16.4706C9.0449 16.5546 9.06099 16.6859 8.98811 16.86C9.12014 16.701 9.24957 16.7086 9.39036 16.8522C9.34374 16.6106 9.34374 16.6106 9.50582 16.4415L9.50724 16.4422ZM8.65874 17.488C8.55226 17.3058 8.61899 17.1899 8.78084 17.0874C8.5693 17.1492 8.49429 17.0356 8.44673 16.8612C8.43608 17.068 8.31896 17.1312 8.12825 17.1243C8.336 17.2043 8.31754 17.3432 8.25507 17.506C8.38379 17.3628 8.50826 17.3347 8.65685 17.4873L8.65874 17.488ZM9.49375 13.9814C9.42064 13.9757 9.33214 13.993 9.27914 13.9577C9.2304 13.9248 9.21999 13.8352 9.19254 13.7706C9.16628 13.9615 9.05317 14.0308 8.88305 14.0098C8.93865 14.0715 9.01177 14.1189 9.02786 14.1806C9.04395 14.2424 9.00159 14.3174 8.98479 14.3865C9.11872 14.2499 9.24744 14.2445 9.39532 14.3829C9.29287 14.2007 9.34184 14.0793 9.49186 13.9807L9.49375 13.9814ZM8.88163 15.243L8.85655 15.2667C9.06572 15.3296 9.04466 15.4702 8.98976 15.6337C9.1199 15.4723 9.25004 15.4827 9.39745 15.61C9.28719 15.4285 9.35013 15.3112 9.51339 15.2113C9.31961 15.2508 9.21668 15.1789 9.19088 14.9901C9.15255 15.0684 9.14593 15.1602 9.09624 15.2002C9.04655 15.2402 8.95333 15.2302 8.87974 15.2423L8.88163 15.243ZM7.38693 16.5117C7.46951 16.5865 7.55256 16.6267 7.56889 16.6859C7.58522 16.745 7.53932 16.8253 7.514 16.9211L7.72411 16.7725C7.78658 16.8137 7.84715 16.8536 7.92476 16.9052C7.90512 16.8106 7.86466 16.7306 7.88311 16.6686C7.90157 16.6066 7.97989 16.5685 8.04874 16.5044H7.81402L7.73003 16.2813C7.69524 16.4606 7.59729 16.5472 7.38504 16.511L7.38693 16.5117ZM8.23875 15.0372L8.27235 15.0388L8.45431 14.9061L8.66087 15.0393C8.63721 14.9413 8.5932 14.8621 8.61118 14.8012C8.62916 14.7404 8.70961 14.7016 8.76285 14.6531L8.78272 14.6094C8.55132 14.7135 8.50352 14.562 8.44295 14.4035C8.43893 14.6176 8.31589 14.6706 8.12896 14.665C8.31328 14.7482 8.33576 14.8737 8.23756 15.0364L8.23875 15.0372ZM8.45383 13.6787L8.64312 13.7971C8.56078 13.6253 8.60432 13.5055 8.77231 13.4185C8.6869 13.4043 8.5958 13.4249 8.54848 13.3887C8.49713 13.3491 8.48648 13.2566 8.45833 13.1871C8.43703 13.3813 8.31636 13.4412 8.12991 13.4284C8.20089 13.4961 8.28205 13.5375 8.2998 13.5976C8.31754 13.6577 8.26998 13.7329 8.24324 13.8297L8.45383 13.6787ZM8.44342 11.9183C8.42473 12.1344 8.3341 12.2326 8.12588 12.207C8.32535 12.287 8.32416 12.4223 8.27377 12.5806L8.45478 12.45L8.64123 12.5702L8.68311 12.5738C8.54848 12.3968 8.61709 12.2801 8.79527 12.1841C8.68642 12.1751 8.59604 12.1933 8.54729 12.1566C8.49855 12.1199 8.48601 12.0262 8.44224 11.9176L8.44342 11.9183ZM7.19315 17.5306C7.10229 17.3569 7.13636 17.2344 7.2956 17.1395H7.08265L6.99628 16.9168C6.96765 17.1037 6.85905 17.1759 6.64349 17.1397L6.85148 17.3008C6.82994 17.3747 6.80912 17.4461 6.78853 17.5176L6.8051 17.5431C6.92672 17.3834 7.05236 17.3943 7.19196 17.5299L7.19315 17.5306ZM7.16949 12.6071L7.2064 12.604C7.08975 12.4351 7.16026 12.3222 7.293 12.2221H7.08004C7.05141 12.146 7.02444 12.075 6.99747 12.0038C6.96623 12.1893 6.86354 12.264 6.66621 12.2387C6.85266 12.3284 6.87253 12.4543 6.80013 12.6173L6.9906 12.4881L7.16949 12.6071ZM7.31335 13.4753L7.28969 13.4516H7.08028C7.0507 13.3733 7.02349 13.3006 6.99013 13.2114C6.95677 13.2992 6.94873 13.3924 6.8988 13.4305C6.84887 13.4686 6.75517 13.4542 6.65792 13.467L6.85148 13.6144C6.83917 13.6546 6.82782 13.6913 6.8167 13.7284C6.80557 13.7656 6.79847 13.802 6.78499 13.8569C6.86212 13.8051 6.9227 13.7332 6.98493 13.7315C7.04715 13.7299 7.11341 13.7973 7.17777 13.8344C7.09614 13.6672 7.13967 13.5503 7.31122 13.4745L7.31335 13.4753ZM6.98374 15.6798C6.96481 15.8807 6.85526 15.9476 6.67922 15.9401L6.84887 16.0705C6.82758 16.1462 6.80676 16.2195 6.77978 16.3146C6.86094 16.2609 6.92175 16.1897 6.98327 16.1885C7.04479 16.1873 7.11199 16.2538 7.17659 16.291C7.08194 16.114 7.1612 16.0025 7.31713 15.9022C7.09826 15.9737 7.0287 15.8549 6.98374 15.6798ZM6.78451 15.0828C6.91986 14.9373 7.04834 14.9297 7.19244 15.0719C7.09542 14.8985 7.14654 14.7811 7.30649 14.6834C7.09353 14.7395 7.02894 14.6136 6.9809 14.4482C6.96671 14.6529 6.85763 14.7227 6.66195 14.6988C6.85763 14.7826 6.86757 14.9115 6.78475 15.0816L6.78451 15.0828Z" fill="white"/>
</mask>
<g mask="url(#mask0_442_22803)">
<rect x="14.3662" y="9.89941" width="9.52917" height="8.57625" fill="white"/>
</g>
<path d="M6.48071 22.2564C6.72513 22.2564 6.9608 22.2649 7.19576 22.255C8.2345 22.2112 9.27514 22.1873 10.3113 22.1078C11.4061 22.0236 12.5004 21.9124 13.5882 21.7628C15.1117 21.5532 16.6296 21.3012 18.1487 21.0596C19.2986 20.8767 20.4438 20.6723 21.5959 20.4967C22.0152 20.4326 22.4423 20.4118 22.8668 20.3971C23.0428 20.3912 23.225 20.4404 23.3975 20.4889C23.5584 20.5341 23.6317 20.6602 23.6294 20.8325C23.6258 21.0965 23.6294 21.3606 23.6318 21.6246C23.6326 21.6819 23.6214 21.7387 23.5988 21.7913C23.5762 21.8439 23.5428 21.8911 23.5007 21.9299C23.2785 22.1523 22.9924 22.2564 22.7037 22.3496C22.0112 22.573 21.2952 22.684 20.5763 22.7772C19.2986 22.9428 18.0133 23.0361 16.7259 23.0919C15.8445 23.13 14.9627 23.1664 14.0808 23.1865C12.9898 23.213 11.8982 23.2279 10.807 23.236C9.84916 23.2438 8.8904 23.2381 7.93377 23.2374C7.68154 23.2374 7.42883 23.222 7.1766 23.2329C6.75755 23.2507 6.51597 22.9144 6.48166 22.5993C6.47077 22.4914 6.48071 22.3811 6.48071 22.2564Z" fill="white"/>
<path d="M6.46875 19.6113C6.46875 19.3302 6.46875 19.0671 6.46875 18.8035C6.46875 18.7203 6.53429 18.7408 6.58138 18.7401C6.96753 18.7349 7.3544 18.7437 7.74079 18.7243C8.75185 18.6736 9.76314 18.6244 10.7723 18.5487C11.5652 18.4891 12.3576 18.4044 13.146 18.3057C14.0598 18.1917 14.9717 18.0596 15.8815 17.9174C16.8921 17.7598 17.8996 17.5821 18.9083 17.4132C19.6418 17.2901 20.3741 17.161 21.1088 17.0462C21.7039 16.9532 22.3002 16.8545 22.9057 16.877C23.0703 16.8867 23.2332 16.9166 23.3905 16.9662C23.5547 17.0135 23.6347 17.138 23.6304 17.3164C23.625 17.5369 23.629 17.7579 23.629 17.9946C23.3924 17.7343 23.0791 17.7407 22.7888 17.7525C22.2576 17.7707 21.7279 17.8185 21.2021 17.8956C20.0008 18.08 18.804 18.2948 17.6055 18.4936C16.6974 18.6441 15.7895 18.7981 14.879 18.9332C14.1277 19.0449 13.3736 19.1402 12.6188 19.2266C11.856 19.3139 11.0917 19.3922 10.3265 19.4547C9.69854 19.5068 9.06867 19.5394 8.43904 19.5657C7.83284 19.5908 7.22592 19.5969 6.61924 19.6111C6.57476 19.6121 6.53193 19.6113 6.46875 19.6113Z" fill="white"/>
<path d="M6.48242 21.3665V20.4982C6.64427 20.4982 6.80067 20.4998 6.95707 20.4982C8.17871 20.4823 9.39988 20.4433 10.6161 20.3228C11.7956 20.206 12.9761 20.0902 14.1506 19.9334C15.3252 19.7765 16.4997 19.5725 17.6729 19.3816C18.9582 19.1724 20.2406 18.9427 21.5278 18.7463C22.0048 18.6736 22.4923 18.6611 22.9757 18.6415C23.1195 18.6355 23.2702 18.6874 23.4108 18.7337C23.5603 18.7832 23.6308 18.9015 23.6287 19.0633C23.6254 19.2867 23.6287 19.5105 23.6287 19.7533C23.4505 19.5486 23.2196 19.5316 22.9929 19.5167C22.4669 19.4817 21.9445 19.5347 21.427 19.6194C19.8623 19.8754 18.3002 20.1482 16.7349 20.4002C15.6782 20.5706 14.6196 20.7315 13.5586 20.8713C12.6529 20.9896 11.7428 21.0774 10.8338 21.1668C9.4879 21.2991 8.13778 21.3561 6.78553 21.3663C6.6871 21.367 6.58961 21.3665 6.48242 21.3665Z" fill="white"/>
</g>
<defs>
<clipPath id="clip0_442_22803">
<rect width="24" height="24" fill="white"/>
</clipPath>
</defs>
</svg>
