<svg width="20" height="20" viewBox="0 0 20 20" fill="none" xmlns="http://www.w3.org/2000/svg">
<path fill-rule="evenodd" clip-rule="evenodd" d="M7.21744 6.60889H12.8261C13.0246 6.60889 13.2229 6.63801 13.4301 6.73464C13.6784 6.85039 13.8102 7.03295 13.9024 7.16789C13.9096 7.17839 13.9164 7.1892 13.9226 7.20026C14.0311 7.39345 14.087 7.60195 14.087 7.82626C14.087 8.03939 14.0363 8.27164 13.9226 8.47401C13.9215 8.47595 13.9204 8.47789 13.9192 8.47982L10.3758 14.5668C10.2976 14.701 10.1538 14.7834 9.9985 14.7828C9.84319 14.7823 9.69994 14.6989 9.62275 14.5641L6.1443 8.49014C6.14331 8.48845 6.14231 8.48682 6.1413 8.4852C6.06171 8.35401 5.9386 8.15114 5.91708 7.88932C5.89729 7.64857 5.95139 7.40739 6.07235 7.19826C6.19331 6.98907 6.37544 6.82182 6.59444 6.71951C6.82931 6.60976 7.06731 6.60889 7.21744 6.60889ZM9.56525 7.47845H7.21744C7.06319 7.47845 7.00394 7.48795 6.96256 7.50732C6.90531 7.53401 6.85725 7.57795 6.82512 7.63357C6.79294 7.68914 6.77844 7.75357 6.78375 7.81807C6.78675 7.85507 6.80181 7.89732 6.89069 8.04395C6.89256 8.04701 6.89437 8.05014 6.89619 8.05326L9.56525 12.7139V7.47845ZM10.4348 7.47845V12.7369L13.1657 8.04582C13.1966 7.98982 13.2174 7.90895 13.2174 7.82626C13.2174 7.7592 13.2036 7.70101 13.1724 7.64101C13.1399 7.59414 13.12 7.56932 13.1034 7.55232C13.0891 7.53776 13.0782 7.53001 13.0627 7.52276C12.9981 7.49264 12.9321 7.47845 12.8261 7.47845H10.4348Z" fill="white"/>
<path fill-rule="evenodd" clip-rule="evenodd" d="M20 10C20 15.5228 15.5228 20 10 20C4.47714 20 0 15.5228 0 10C0 4.47714 4.47714 0 10 0C15.5228 0 20 4.47714 20 10ZM19.1304 10C19.1304 15.0426 15.0426 19.1304 10 19.1304C4.95739 19.1304 0.869563 15.0426 0.869563 10C0.869563 4.95739 4.95739 0.869563 10 0.869563C15.0426 0.869563 19.1304 4.95739 19.1304 10Z" fill="white"/>
</svg>
