<svg width="20" height="20" viewBox="0 0 20 20" fill="none" xmlns="http://www.w3.org/2000/svg">
<g clip-path="url(#clip0)">
<path d="M11.8968 7.64284C10.7857 7.64284 9.76983 7.62696 8.75395 7.65871C8.61903 7.65871 8.44442 7.8333 8.36506 7.97616C7.05553 10.2143 5.76189 12.4603 4.46823 14.6984C4.12697 15.2936 3.7857 15.8809 3.42062 16.508C2.55553 16.008 1.7222 15.5476 0.904745 15.0635C0.579348 14.873 0.103158 14.7063 0.00791956 14.4286C-0.0714455 14.1825 0.293634 13.7857 0.476173 13.4682C2.15872 10.5635 3.84919 7.66665 5.5238 4.75395C5.98411 3.94441 6.65078 3.5714 7.57141 3.57934C8.88094 3.58727 10.1905 3.59521 11.5 3.5714C11.8571 3.56348 11.9524 3.68252 11.9444 4.02379C11.9285 5.01585 11.9365 6.00791 11.9365 6.99998C11.9365 7.1349 11.9365 7.27776 11.9365 7.41268C11.9682 7.42062 12 7.42855 12.0317 7.43649C12.3016 6.97616 12.5714 6.51585 12.8412 6.05554C13.1349 5.55554 13.4127 5.0476 13.7222 4.5476C14.1111 3.91268 14.7063 3.58727 15.4365 3.57934C16.8253 3.56348 18.2142 3.57934 19.6031 3.56348C19.9206 3.56348 20.0158 3.66665 20.0158 3.97616C20 5.06348 20 6.14284 20.0158 7.23013C20.0158 7.53966 19.9127 7.64284 19.6031 7.64284C18.7459 7.62696 17.8809 7.65077 17.0238 7.6349C16.7381 7.62696 16.5714 7.71426 16.4206 7.96823C14.8809 10.6508 13.3254 13.3254 11.7857 16.008C11.492 16.5158 11.492 16.5158 10.992 16.2302C10.0952 15.7142 9.20633 15.1905 8.3095 14.6905C8.03173 14.5317 8.01586 14.3968 8.16666 14.127C9.32538 12.1428 10.4762 10.1508 11.627 8.15871C11.7143 8.01585 11.7857 7.85712 11.8968 7.64284Z" fill="white"/>
<path d="M2.34922 3.57939C2.88891 3.57939 3.43653 3.58733 3.9762 3.57146C4.26192 3.56352 4.37303 3.63495 4.34922 3.95241C4.22223 5.68256 2.80955 7.26988 1.11113 7.55558C0.277795 7.6905 0.293668 7.79367 0.293668 6.85717C0.293668 5.90478 0.301604 4.95241 0.285733 4.00003C0.277795 3.67463 0.388908 3.55558 0.72224 3.57146C1.26192 3.59527 1.80161 3.57939 2.34922 3.57939Z" fill="white"/>
</g>
<defs>
<clipPath id="clip0">
<rect width="20" height="20" fill="white"/>
</clipPath>
</defs>
</svg>
