<svg width="20" height="20" viewBox="0 0 20 20" fill="none" xmlns="http://www.w3.org/2000/svg">
<path fill-rule="evenodd" clip-rule="evenodd" d="M20 10C20 15.5229 15.5229 20 10 20C4.47716 20 0 15.5229 0 10C0 4.47716 4.47716 0 10 0C15.5229 0 20 4.47716 20 10ZM7.71873 17.25C7.93753 17.3203 8.125 17.1875 8.125 16.9531V16.3594C8.125 16.2031 8.0078 16.0234 7.85941 15.9688C5.46094 15.0937 3.75 12.7969 3.75 10.1015C3.75 7.41406 5.46094 5.10938 7.85941 4.22656C8.0078 4.17188 8.125 3.99219 8.125 3.83594V3.25C8.125 3.01562 7.94533 2.88281 7.71873 2.95312C4.6875 3.92188 2.5 6.7578 2.5 10.1015C2.5 13.4531 4.6875 16.2812 7.71873 17.25ZM10.625 14.7891C10.625 14.9609 10.4844 15.1015 10.3125 15.1015H9.68753C9.51561 15.1015 9.375 14.9609 9.375 14.7891V13.8047C8.00781 13.6172 7.34373 12.8594 7.16408 11.8125C7.1328 11.6328 7.27347 11.4765 7.45314 11.4765H8.16408C8.31253 11.4765 8.43753 11.5859 8.46873 11.7265C8.60161 12.3437 8.96094 12.8203 10.0547 12.8203C10.8594 12.8203 11.4375 12.3672 11.4375 11.6953C11.4375 11.0235 11.1016 10.7656 9.91408 10.5703C8.16408 10.3359 7.33594 9.80467 7.33594 8.43747C7.33594 7.3828 8.14061 6.55469 9.375 6.38281V5.41406C9.375 5.24219 9.51561 5.10156 9.68753 5.10156H10.3125C10.4844 5.10156 10.625 5.24219 10.625 5.41406V6.40625C11.6328 6.58594 12.2735 7.15627 12.4844 8.10941C12.5235 8.28906 12.3828 8.45314 12.1953 8.45314H11.5391C11.3985 8.45314 11.2813 8.35941 11.2422 8.22653C11.0625 7.625 10.6328 7.35941 9.88281 7.35941C9.05467 7.35941 8.625 7.7578 8.625 8.32034C8.625 8.91406 8.8672 9.21094 10.1406 9.39061C11.8594 9.625 12.75 10.1172 12.75 11.5781C12.75 12.6875 11.9219 13.5859 10.6328 13.7891V14.7891H10.625ZM11.875 16.9531C11.875 17.1875 12.0547 17.3203 12.2813 17.25C15.3125 16.2812 17.5 13.4531 17.5 10.1015C17.5 6.7578 15.3125 3.92188 12.2813 2.96875C12.0625 2.89844 11.875 3.03125 11.875 3.26562V3.85156C11.875 4.00781 11.9922 4.1875 12.1406 4.24219C14.5391 5.11719 16.25 7.41406 16.25 10.1094C16.25 12.7969 14.5313 15.1015 12.1406 15.9766C11.9765 16.0312 11.875 16.1953 11.875 16.3672V16.9531Z" fill="white"/>
</svg>
