<svg width="20" height="20" viewBox="0 0 20 20" fill="none" xmlns="http://www.w3.org/2000/svg">
<path d="M11.8295 7.57537V5.36613H16.8739V2H3.13797V5.36613H8.18292V7.57359C4.08284 7.7622 1 8.57544 1 9.54967C1 10.5239 4.08432 11.3371 8.18292 11.5269V18.6034H11.8307V11.5263C15.9234 11.3371 19 10.5245 19 9.55115C19 8.57782 15.9234 7.76517 11.8307 7.57597L11.8295 7.57537ZM11.8307 10.927V10.9252C11.7278 10.9317 11.199 10.9635 10.0216 10.9635C9.08034 10.9635 8.4181 10.9368 8.1847 10.9246V10.9275C4.56239 10.7669 1.85857 10.1351 1.85857 9.37918C1.85857 8.62326 4.56269 7.99239 8.1847 7.8314V10.2982C8.42195 10.3145 9.1005 10.3546 10.0371 10.3546C11.162 10.3546 11.7275 10.3077 11.8313 10.2982V7.8314C15.4465 7.99269 18.1441 8.62504 18.1441 9.37829C18.1441 10.1315 15.4453 10.7642 11.8313 10.9255" fill="white"/>
</svg>
