<svg width="20" height="20" viewBox="0 0 20 20" fill="none" xmlns="http://www.w3.org/2000/svg">
<g clip-path="url(#clip0)">
<path d="M7.02853 2.54254C5.8386 4.2921 1.8741 5.52324 1.22022 5.32885V5.32296C1.89693 3.97517 2.89416 2.8141 4.12437 1.94168C4.37178 1.76496 4.62508 1.60002 4.88428 1.45275C5.43803 1.13465 6.00354 1.11697 6.19205 1.11108C7.95928 1.14054 7.04032 2.52487 7.02853 2.54254ZM6.0271 15.6436C6.11547 16.215 6.0271 18.4888 5.90929 18.6773C5.80326 18.6832 5.59119 18.695 4.97264 18.3533C2.88111 17.1699 1.29338 15.2637 0.50744 12.9927C-0.203833 10.901 -0.166352 8.62721 0.613474 6.56002C1.32037 7.49076 2.14507 8.33314 2.84018 9.26977C3.50584 10.1711 4.41891 11.6261 4.60741 11.9383C5.75613 13.8764 5.93874 15.0663 6.0271 15.6436ZM20 10.0238C20 11.2667 19.7526 12.4567 19.3108 13.5465C18.1326 14.7541 10.2272 11.7733 10.1506 11.738C9.06674 11.2844 5.7738 9.89419 5.47926 7.7205C5.04922 4.58664 11.6646 2.40116 14.5687 2.31869C14.9222 2.32458 15.9825 2.33636 16.5951 2.81941C17.6559 3.6974 18.5108 4.79782 19.0991 6.04281C19.6875 7.28776 19.9951 8.64682 20 10.0238ZM14.875 18.5065C14.0503 18.9012 13.1373 18.6125 13.3729 17.776C13.8265 16.1737 17.791 14.5302 18.6628 14.4419C18.7747 14.4301 18.816 14.5008 18.7688 14.595C17.8709 16.2423 16.5196 17.5977 14.875 18.5006" fill="white"/>
</g>
<defs>
<clipPath id="clip0">
<rect width="20" height="20" fill="white"/>
</clipPath>
</defs>
</svg>
