<svg width="20" height="20" viewBox="0 0 20 20" fill="none" xmlns="http://www.w3.org/2000/svg">
<g clip-path="url(#clip0_4022_7964)">
<path fill-rule="evenodd" clip-rule="evenodd" d="M15.1804 2.24179C13.6457 1.21702 11.8416 0.670448 9.99617 0.671207C7.5242 0.675011 5.15457 1.65868 3.40663 3.40662C1.65868 5.15457 0.675013 7.5242 0.671209 9.99616C0.67045 11.8416 1.21703 13.6457 2.2418 15.1804C3.26656 16.7151 4.72348 17.9114 6.42825 18.6179C8.13303 19.3245 10.0091 19.5096 11.819 19.1497C13.629 18.7899 15.2916 17.9013 16.5965 16.5965C17.9013 15.2916 18.7899 13.629 19.1497 11.819C19.5096 10.009 19.3245 8.13302 18.6179 6.42825C17.9114 4.72348 16.7151 3.26656 15.1804 2.24179ZM4.44111 1.68744C6.08518 0.587991 8.01835 0.000760197 9.99617 7.3374e-07C11.3094 -0.000502306 12.6098 0.257656 13.8233 0.759738C15.0367 1.26182 16.1394 1.99799 17.0684 2.92622C17.9973 3.85445 18.7343 4.95656 19.2373 6.16962C19.7403 7.38268 19.9995 8.68295 20 9.99616C20.0008 11.974 19.415 13.9076 18.3168 15.5525C17.2186 17.1974 15.6573 18.4797 13.8304 19.2373C12.0034 19.9949 9.99282 20.1937 8.05286 19.8086C6.1129 19.4235 4.33071 18.4718 2.93165 17.0738C1.53259 15.6758 0.579497 13.8943 0.192901 11.9547C-0.193695 10.015 0.0035665 8.00426 0.759742 6.17671C1.51592 4.34916 2.79704 2.78688 4.44111 1.68744ZM8.20177 2.33562C6.90864 2.63625 5.71341 3.26138 4.72886 4.15202L4.32422 3.71094C4.81064 3.20679 5.37254 2.7814 5.98977 2.45003C6.55344 2.15079 7.14917 1.91629 7.76558 1.75102L7.87106 1.72321L7.99763 1.69253C8.61624 1.54835 9.24858 1.4712 9.88372 1.4624H9.90577H10.2193C12.1775 1.51661 14.0565 2.24708 15.5372 3.52972C15.5547 3.54607 15.5723 3.56225 15.5899 3.57844L15.5899 3.57849L15.5899 3.5785C15.6311 3.6164 15.6724 3.65434 15.7127 3.69464L15.285 4.15681C14.6086 3.57795 13.8486 3.10467 13.0307 2.75303L13.0182 2.74728C12.9156 2.70413 12.8111 2.6629 12.7066 2.62455L12.6299 2.59674C12.5532 2.56893 12.4746 2.54208 12.3959 2.51715C12.3413 2.49894 12.2866 2.48168 12.231 2.46538L12.1198 2.43373C10.8433 2.06875 9.49491 2.03498 8.20177 2.33562ZM9.59352 9.58992C10.2592 9.60173 11.7022 9.62731 11.7022 8.61555C11.7022 7.58046 10.3063 7.61696 9.62665 7.63473L9.62661 7.63473C9.55075 7.63671 9.48382 7.63846 9.42875 7.63846V9.58783C9.47564 9.58783 9.53117 9.58882 9.59352 9.58992ZM9.61514 12.7147C10.4098 12.7263 12.1504 12.7518 12.1529 11.6441L12.1529 11.6465V11.6417L12.1529 11.6441C12.1505 10.5075 10.4805 10.5478 9.66523 10.5675L9.66512 10.5675C9.57377 10.5697 9.49316 10.5716 9.42683 10.5716V12.7128C9.48079 12.7128 9.54419 12.7137 9.61514 12.7147ZM11.1537 6.51947C12.4108 6.64028 13.4042 7.02383 13.5145 8.18406L13.5164 8.18118C13.6008 9.02498 13.246 9.53222 12.6812 9.81988C13.6104 10.0414 14.1914 10.5937 14.0754 11.8335C13.9277 13.3725 12.7876 13.7819 11.147 13.8778V15.4858H10.1757V13.8903H9.39998V15.4964H8.42865V13.8663H6.46777L6.65955 12.7032C6.65955 12.7032 7.3787 12.7147 7.36623 12.7032C7.41133 12.706 7.45655 12.7 7.49929 12.6853C7.54204 12.6706 7.58147 12.6477 7.61532 12.6178C7.64917 12.5878 7.67678 12.5515 7.69656 12.5109C7.71635 12.4702 7.72791 12.4261 7.7306 12.381V7.99804C7.71221 7.86912 7.64439 7.75241 7.5415 7.6726C7.4386 7.59279 7.30869 7.55613 7.17925 7.57038C7.1898 7.55792 6.47257 7.57038 6.47257 7.57038V6.52906H8.44112V4.92871H9.41149V6.49741C9.67133 6.48783 9.93212 6.48783 10.1881 6.48783H10.1882V4.92871H11.1537V6.51947ZM4.18771 4.68967L3.71787 4.27832C0.530602 7.61901 0.994693 13.0548 3.71787 15.6457L4.1973 15.2707C2.8718 13.8282 2.13552 11.941 2.13392 9.98189C2.13232 8.02282 2.86552 6.1344 4.18867 4.68967H4.18771ZM16.2571 4.26221C16.3347 4.33412 16.4095 4.40987 16.4833 4.48658H16.4872C17.811 6.05526 18.5233 8.04947 18.493 10.1018C18.4627 12.1542 17.6918 14.1265 16.3223 15.6554L15.9215 15.1712C18.7722 11.8161 18.262 7.4581 15.8457 4.71287L16.2571 4.26221ZM15.3161 15.8125C15.038 16.0206 14.7619 16.2114 14.4847 16.3878C13.4791 17.0985 12.3196 17.5612 11.1009 17.7379C10.4774 17.8373 9.84328 17.8522 9.21578 17.782C7.63529 17.6287 6.1391 16.9972 4.92678 15.9717L4.78831 15.8712L4.73501 15.8326L4.29297 16.2286C5.83962 17.7561 7.95967 18.4906 10.0462 18.4896H10.1842H10.2063C12.1471 18.439 14.0118 17.7238 15.4887 16.4636L15.529 16.4257C15.5829 16.3752 15.6367 16.3247 15.6881 16.2718L15.3161 15.8125Z" fill="white"/>
</g>
<defs>
<clipPath id="clip0_4022_7964">
<rect width="20" height="20" fill="white"/>
</clipPath>
</defs>
</svg>
