<svg width="20" height="20" viewBox="0 0 20 20" fill="none" xmlns="http://www.w3.org/2000/svg">
<path d="M5.47263 19.9999C10.6048 19.9999 10.6048 19.9235 11.475 19.6652C12.6123 19.3276 7.5 20 4.5 16.5C1.70839 16.5 0.417969 17.1421 0.417969 18.1589C0.417969 19.1756 2.68113 19.9999 5.47263 19.9999Z" fill="white"/>
<path d="M17.1268 4.34455L17.3628 4.59894L19.5 8C21.5 23 4.5 21 4.97136 17.4759C3.97489 17.1411 2.97557 16.1344 1.97622 14.6726C1.62495 14.1587 1.2951 13.6177 0.995103 13.0792C0.79533 12.7207 0.626242 12.3937 0.538447 12.2095C0.426454 11.9745 0.379172 11.8298 0.341659 11.6397C0.33937 11.628 0.33937 11.628 0.337195 11.6168C0.321538 11.5361 0.316122 11.5106 0.304418 11.4665C0.103012 10.7074 0 9.92101 0 9.12134C0 4.08376 4.08376 0 9.12134 0C10.6995 0 12.2204 0.401659 13.5683 1.15564L13.6031 1.17742C14.7066 1.94571 15.8804 3.00141 17.1268 4.34455ZM13.1418 1.87599C11.9225 1.19783 10.5486 0.83682 9.12134 0.83682C4.54593 0.83682 0.83682 4.54593 0.83682 9.12134C0.83682 9.8484 0.930384 10.5627 1.11325 11.2519C1.13133 11.3201 1.13951 11.3586 1.1587 11.4575C1.16071 11.4678 1.16071 11.4678 1.16265 11.4777C1.18686 11.6004 1.2124 11.6785 1.29384 11.8494C1.37393 12.0174 1.53488 12.3287 1.72612 12.6719C2.01445 13.1894 2.33131 13.7092 2.66704 14.2003C3.56994 15.521 3.72753 16.2405 4.5 16.5C8.3835 24.3174 26.5 15 16.2761 4.66065C15.1633 3.48605 14.1179 2.55782 13.1418 1.87599Z" fill="white"/>
<path d="M13.9997 2.49985C2.39975 0.899846 1.49975 9.83318 2.49975 14.4998C-0.700641 10.8997 0.499908 6.3332 1.50023 4.49995C7.10023 -1.90005 12.1666 0.499882 13.9997 2.49985Z" fill="white" fill-opacity="0.4"/>
<path d="M10.7952 19.9165C5.75759 19.9165 1.67383 15.8327 1.67383 10.7952C1.67383 5.75759 5.75759 1.67383 10.7952 1.67383C15.8327 1.67383 19.9165 5.75759 19.9165 10.7952C19.9165 15.8327 15.8327 19.9165 10.7952 19.9165ZM10.7952 19.0797C15.3706 19.0797 19.0797 15.3706 19.0797 10.7952C19.0797 6.21975 15.3706 2.51065 10.7952 2.51065C6.21975 2.51065 2.51065 6.21975 2.51065 10.7952C2.51065 15.3706 6.21975 19.0797 10.7952 19.0797Z" fill="white"/>
<path fill-rule="evenodd" clip-rule="evenodd" d="M4.59755 12.4918L3.50098 9.18808H4.46165L5.03336 11.086L5.666 9.17871H6.44859L7.08123 11.086L7.65294 9.18808H8.59487L7.4983 12.4918H6.70633L6.04558 10.6033L5.38951 12.4918H4.59755ZM8.9557 12.4684V9.18808H11.594V9.9613H9.85545V10.458H11.43V11.175H9.85545V11.6952H11.6175V12.4684H8.9557ZM12.8827 12.4684V9.98474H11.8986V9.18808H14.776V9.98474H13.7919V12.4684H12.8827ZM15.1743 12.4684V9.18808H16.0834V10.4159H17.2503V9.18808H18.1594V12.4684H17.2503V11.2219H16.0834V12.4684H15.1743Z" fill="white"/>
<path d="M0.543329 8.20134C0.311841 8.0856 0.218012 7.80411 0.333756 7.57263C0.4495 7.34114 0.730987 7.24731 0.962474 7.36305L2.30139 8.03251C2.53287 8.14825 2.6267 8.42974 2.51096 8.66123C2.39522 8.89272 2.11373 8.98654 1.88224 8.8708L0.543329 8.20134Z" fill="white"/>
<path d="M0.38955 10.4216C0.154558 10.3131 0.0519764 10.0347 0.160428 9.79971C0.26888 9.56471 0.547297 9.46213 0.782289 9.57058L2.1212 10.1885C2.35619 10.297 2.45878 10.5754 2.35032 10.8104C2.24187 11.0454 1.96345 11.1479 1.72846 11.0395L0.38955 10.4216Z" fill="white"/>
</svg>
