<svg width="20" height="20" viewBox="0 0 20 20" fill="none" xmlns="http://www.w3.org/2000/svg">
<path fill-rule="evenodd" clip-rule="evenodd" d="M8.22672 0.115176C4.68384 0.756544 1.68344 3.31529 0.54744 6.66421C0.15072 7.83369 0 8.75064 0 9.99487C0 12.7817 0.96656 15.1299 2.91712 17.0814C4.88328 19.0486 7.18976 20 9.99232 20C11.2713 20 12.154 19.866 13.213 19.5113C15.135 18.8673 16.805 17.6549 18.0492 16.0002C19.3669 14.2478 20 12.2988 20 9.99487C20 7.18255 19.0512 4.87769 17.0829 2.90837C15.5565 1.38118 13.8224 0.478882 11.7032 0.109092C10.8547 -0.0389034 9.06056 -0.0357818 8.22672 0.115176ZM12.2321 0.754223C16.5843 1.86087 19.5087 5.58806 19.5184 10.0408C19.5297 15.2055 15.1975 19.5198 10 19.5198C4.9748 19.5198 0.79712 15.5562 0.50912 10.5151C0.26152 6.183 3.01488 2.24098 7.21896 0.908382C8.78216 0.412928 10.6625 0.355058 12.2321 0.754223ZM8.8096 0.879487C7.14192 1.07303 5.6536 1.72432 4.19624 2.89828C2.52152 4.24721 1.43368 6.03469 1.0324 8.0967C0.892 8.81843 0.81672 10.405 0.92824 10.2934C0.9548 10.2669 1.12832 9.86721 1.31392 9.40513C2.32464 6.88929 3.98592 5.1708 6.27752 4.27066C7.57968 3.7592 8.4652 3.57575 9.84 3.53277C12.1486 3.46041 13.691 3.94906 15.4908 5.32296C15.8589 5.60399 16.16 5.79392 16.16 5.74502C16.16 5.551 15.4942 4.25089 15.0617 3.60048C14.5182 2.78326 13.5244 1.71696 13.1081 1.50445C12.6214 1.256 11.5113 0.966972 10.6933 0.875725C9.83952 0.780476 9.65928 0.780796 8.8096 0.879487ZM14.6642 2.57107C15.4985 3.5539 16.359 5.17161 16.6382 6.28153C17.0138 7.7743 17.0362 8.92281 16.72 10.475C16.0314 13.8558 14.0345 16.3 11.1214 17.3277C10.8361 17.4283 10.5911 17.5454 10.577 17.5879C10.4932 17.8394 13.3456 17.8578 14.4475 17.6129C15.4498 17.3902 15.8118 17.1992 16.4946 16.5329C18.5546 14.5226 19.4525 12.0205 19.125 9.20311C18.8758 7.06049 17.9976 5.26405 16.4402 3.71166C15.76 3.03355 14.6066 2.15086 14.4007 2.15086C14.3495 2.15086 14.4681 2.33991 14.6642 2.57107ZM9.05976 3.83436C8.08512 3.95722 6.58032 4.38888 5.8 4.76948C5.2472 5.03906 4.15424 5.77535 4.18216 5.85932C4.20288 5.92143 9.32552 9.01525 9.72704 9.20815C9.86448 9.27419 10.3112 9.10106 12.247 8.23141C13.5412 7.65007 14.969 7.00991 15.42 6.80884C15.871 6.60786 16.24 6.41704 16.24 6.38495C16.24 6.29306 15.2906 5.48945 14.7482 5.1223C13.2023 4.07576 11.0358 3.58527 9.05976 3.83436ZM3.80528 6.57312C3.56824 7.40899 3.49984 8.08566 3.54136 9.18438C3.606 10.8936 4.00608 12.1089 4.99216 13.5909C5.60016 14.5045 6.7816 15.7824 7.47808 16.2797C7.93936 16.6091 9.09408 17.202 9.5 17.318L9.68 17.3695V13.4453V9.52111L7.62 8.2896C4.95864 6.69847 4.02664 6.15291 3.97016 6.15291C3.94504 6.15291 3.8708 6.34196 3.80528 6.57312ZM3.14336 6.85006C2.30744 7.8613 1.74288 8.9108 1.2632 10.3454L0.9388 11.3156L1.03304 11.9325C1.54744 15.3008 4.47912 18.2196 8.09648 18.9645C8.79736 19.1088 9.11064 19.1287 10.2 19.0973C11.6454 19.0558 12.4529 18.8853 13.7 18.3586C14.3727 18.0745 14.6458 17.8429 14.18 17.9516C13.6897 18.066 11.8466 18.0985 11.1916 18.0043C9.91248 17.8202 8.38448 17.2536 7.44 16.6131C6.52152 15.9903 5.15912 14.4577 4.436 13.2341C3.33784 11.3756 2.94488 9.20167 3.35152 7.23346C3.43336 6.83726 3.49128 6.50261 3.48032 6.48988C3.46928 6.47707 3.31768 6.63916 3.14336 6.85006ZM15.6 7.03656C15.226 7.20585 13.813 7.84049 12.46 8.44696L10 9.54961V13.4541C10 15.6696 10.0306 17.3586 10.0709 17.3586C10.2752 17.3586 11.4861 16.8961 12.08 16.5911C13.4974 15.8635 14.6971 14.6655 15.462 13.2142C16.4 11.4343 16.8391 9.03086 16.5482 7.26892C16.4975 6.9614 16.4171 6.71672 16.3682 6.72104C16.3198 6.72528 15.974 6.86727 15.6 7.03656Z" fill="white"/>
</svg>
