<svg width="20" height="20" viewBox="0 0 20 20" fill="none" xmlns="http://www.w3.org/2000/svg">
<path d="M17.9058 10.2823H1.9642C1.70877 10.283 1.46401 10.3848 1.28336 10.5654C1.10271 10.746 1.00084 10.9907 1 11.2461C1.00066 11.5017 1.10244 11.7466 1.28311 11.9273C1.46378 12.1081 1.70865 12.2099 1.9642 12.2107H5.96939L8.68341 19.3779C8.75623 19.5685 8.88742 19.7311 9.05823 19.8427C9.22904 19.9542 9.43073 20.0088 9.63448 19.9988C9.83822 20.0088 10.0399 19.9542 10.2107 19.8427C10.3815 19.7311 10.5127 19.5685 10.5855 19.3779L13.2996 12.2103H17.9061C18.1616 12.2096 18.4064 12.1078 18.5871 11.9271C18.7678 11.7464 18.8696 11.5016 18.8703 11.2461C18.8696 10.9907 18.7678 10.7458 18.5871 10.5652C18.4064 10.3845 18.1616 10.2827 17.9061 10.2819L17.9058 10.2823ZM9.63412 16.4438L8.03091 12.21H11.2373L9.63412 16.4434V16.4438ZM1.9642 8.48242H17.9061C18.1617 8.48167 18.4066 8.37979 18.5872 8.19905C18.7679 8.01832 18.8697 7.77341 18.8703 7.51786C18.8696 7.26237 18.7678 7.01756 18.5871 6.8369C18.4064 6.65624 18.1616 6.55441 17.9061 6.55366H15.4417L17.429 1.30489C17.5188 1.06569 17.5103 0.800669 17.4053 0.567725C17.3004 0.334781 17.1075 0.152842 16.8688 0.0616529C16.6296 -0.0281288 16.3645 -0.0195666 16.1316 0.085468C15.8986 0.190503 15.7167 0.383471 15.6256 0.622209L13.3791 6.55366H5.8888L3.64267 0.622209C3.55147 0.38353 3.36956 0.190624 3.13663 0.0856007C2.9037 -0.0194222 2.63869 -0.0280315 2.39944 0.0616529C2.16076 0.152842 1.96788 0.334781 1.86291 0.567725C1.75795 0.800669 1.74944 1.06569 1.83924 1.30489L3.82692 6.55366H1.9642C1.70871 6.55441 1.46389 6.65624 1.28323 6.8369C1.10257 7.01756 1.00075 7.26237 1 7.51786C1.00075 7.77335 1.10257 8.01816 1.28323 8.19882C1.46389 8.37948 1.70871 8.48131 1.9642 8.48206V8.48242Z" fill="white"/>
</svg>
