<svg width="315" height="180" viewBox="0 0 315 180" fill="none" xmlns="http://www.w3.org/2000/svg">
<g clip-path="url(#clip0)">
<circle cx="167" cy="75" r="75" fill="#E9F5EE"/>
<path d="M162.203 133.151H32V61.0265C32 55.336 36.7392 50.7231 42.5855 50.7231H151.618C157.464 50.7231 162.203 55.336 162.203 61.0265V133.151Z" fill="#F2F4F8"/>
<path d="M151.618 149.636H42.5855C36.7392 149.636 32 144.317 32 137.755V130.627H162.203V137.755C162.203 144.317 157.464 149.636 151.618 149.636Z" fill="#DEE1E9"/>
<path d="M151.618 50.7229H137.857C143.703 50.7229 148.442 55.3358 148.442 61.0263V133.151H162.203V61.0263C162.203 55.3358 157.464 50.7229 151.618 50.7229Z" fill="#DEE1E9"/>
<path d="M148.442 130.627V137.755C148.442 144.317 143.703 149.636 137.857 149.636H151.618C157.464 149.636 162.203 144.317 162.203 137.755V130.627H148.442Z" fill="#BDC7D4" fill-opacity="0.3"/>
<path d="M122.507 177.456L114.039 149.637H80.1648L71.696 177.456H122.507Z" fill="#D4D9E3"/>
<rect x="31.5" y="49.5" width="131.407" height="100.559" rx="14.5" stroke="#BDC4D4" stroke-width="3"/>
<path d="M31 131L162 131" stroke="#BDC7D4" stroke-width="3"/>
<path d="M64.2542 178H130.356" stroke="#BDC4D4" stroke-width="3" stroke-linecap="round"/>
<path d="M80.7796 150.458L73.0677 177.449" stroke="#BDC4D4" stroke-width="3" stroke-linecap="round"/>
<path d="M113.28 150.458L120.992 177.449" stroke="#BDC4D4" stroke-width="3" stroke-linecap="round"/>
<path d="M98.5 161C98.5 159.619 99.6193 158.5 101 158.5H110.5V169.5H101C99.6193 169.5 98.5 168.381 98.5 167V161Z" fill="#D3ECDD" stroke="#3FBB7D" stroke-width="3"/>
<path d="M139.5 166C139.5 167.381 138.381 168.5 137 168.5L131.5 168.5L131.5 159.5L137 159.5C138.381 159.5 139.5 160.619 139.5 162L139.5 164L139.5 166Z" fill="#A6D9BC" stroke="#3FBB7D" stroke-width="3"/>
<path d="M111.89 155.814C111.966 155.624 112.15 155.5 112.354 155.5H129.646C129.85 155.5 130.034 155.624 130.11 155.814L130.636 157.129C132.4 161.54 132.4 166.46 130.636 170.871L130.11 172.186C130.034 172.376 129.85 172.5 129.646 172.5H112.354C112.15 172.5 111.966 172.376 111.89 172.186L111.364 170.871C109.6 166.46 109.6 161.54 111.364 157.129L111.89 155.814Z" fill="#A6D9BC" stroke="#3FBB7D" stroke-width="3"/>
<path d="M103 163L103 165" stroke="#3FBB7D" stroke-width="3" stroke-linecap="round"/>
<path d="M230.5 25C230.5 20.3056 234.306 16.5 239 16.5H275C279.694 16.5 283.5 20.3056 283.5 25V66.7118C283.5 68.2622 283.076 69.7831 282.274 71.1098L273.634 85.3981C272.095 87.9442 269.336 89.5 266.361 89.5H247.639C244.664 89.5 241.905 87.9442 240.366 85.3981L231.726 71.1098C230.924 69.7831 230.5 68.2622 230.5 66.7118V25Z" fill="#F2F4F8" stroke="#BDC4D4" stroke-width="3"/>
<path d="M273.623 17H258C263.788 17 268.479 21.3331 268.479 26.6784V88.5L272 88L284.103 68.5V26.6784C284.103 21.3331 279.411 17 273.623 17Z" fill="#DEE1E9"/>
<rect x="241.5" y="65.5" width="11" height="3" rx="1.5" stroke="#BDC4D4" stroke-width="3"/>
<rect x="261.5" y="65.5" width="11" height="3" rx="1.5" stroke="#BDC4D4" stroke-width="3"/>
<rect x="239.5" y="25.5" width="35" height="31" rx="3.5" fill="#E9F5EE" stroke="#3FBB7D" stroke-width="3"/>
<path d="M261.952 36.8368H264V46.9521H263.986L257 50L250.014 46.9521H250V36.8368H252.049V35.4167C252.049 32.9816 254.271 31 257.001 31C259.73 31 261.952 32.9816 261.952 35.4167V36.8368ZM261.183 45.2698V39.2103H252.817V45.2698L257 47.0904L261.183 45.2698ZM254.589 35.4167V36.8368H259.412V35.4167C259.412 34.2897 258.33 33.3726 257.001 33.3726C255.671 33.3726 254.589 34.2897 254.589 35.4167Z" fill="#3FBB7D"/>
<path d="M263.5 89.5L263.5 92C263.5 95.5899 260.59 98.5 257 98.5L256 98.5C252.41 98.5 249.5 95.5899 249.5 92L249.5 89.5L263.5 89.5Z" fill="#A6D9BC" stroke="#3FBB7D" stroke-width="3"/>
<path d="M230.5 25C230.5 20.3056 234.306 16.5 239 16.5H275C279.694 16.5 283.5 20.3056 283.5 25V66.7118C283.5 68.2622 283.076 69.7831 282.274 71.1098L273.634 85.3981C272.095 87.9442 269.336 89.5 266.361 89.5H247.639C244.664 89.5 241.905 87.9442 240.366 85.3981L231.726 71.1098C230.924 69.7831 230.5 68.2622 230.5 66.7118V25Z" stroke="#BDC4D4" stroke-width="3"/>
<path d="M140 164H228.496C234.985 164 240.246 158.739 240.246 152.25V152.25C240.246 145.761 234.985 140.5 228.496 140.5H195.823C189.905 140.5 185.108 135.702 185.108 129.784V129.784C185.108 123.866 189.905 119.069 195.823 119.069H201.689H243C250.732 119.069 257 112.801 257 105.069V99" stroke="#3FBB7D" stroke-width="3" stroke-linecap="round"/>
<rect x="268" y="27" width="5" height="28" fill="#A6D9BC"/>
<rect x="239.5" y="25.5" width="35" height="31" rx="3.5" stroke="#3FBB7D" stroke-width="3"/>
<path d="M122.474 42.2259C143.375 6.46433 189.309 -5.58271 225.07 15.318" stroke="#3FBB7D" stroke-width="3" stroke-linecap="round" stroke-dasharray="10 10"/>
<rect x="50.5" y="61.5" width="79" height="57" rx="3.5" fill="#E9F5EE" stroke="#3FBB7D" stroke-width="3"/>
<path d="M49 66C49 63.2386 51.2386 61 54 61H126C128.761 61 131 63.2386 131 66V74H49V66Z" fill="#D3ECDD"/>
<path d="M51 73.5H129.5" stroke="#3FBB7D" stroke-width="3" stroke-linecap="round"/>
<circle cx="57.5" cy="67.5" r="1.5" fill="#3FBB7D"/>
<circle cx="62.5" cy="67.5" r="1.5" fill="#3FBB7D"/>
<circle cx="67.5" cy="67.5" r="1.5" fill="#3FBB7D"/>
<rect x="50.5" y="61.5" width="79" height="57" rx="3.5" stroke="#3FBB7D" stroke-width="3"/>
<path d="M116 84.2498C116 82.4549 114.578 81 112.824 81H65.1771C63.4228 81 62 82.4549 62 84.2498V93.7502C62 95.5451 63.4228 97 65.1771 97H112.824C114.578 97 116 95.5451 116 93.7502V84.2498Z" fill="#A6D9BC"/>
<path d="M90 102.5C90 101.672 89.3036 101 88.4448 101H63.5559C62.6971 101 62 101.672 62 102.5C62 103.328 62.6971 104 63.5559 104H88.4448C89.3036 104 90 103.328 90 102.5Z" fill="#3FBB7D"/>
<path d="M95.5717 101C94.7035 101 94 101.672 94 102.5C94 103.328 94.7035 104 95.5717 104H114.428C115.296 104 116 103.328 116 102.5C116 101.672 115.296 101 114.428 101H95.5717Z" fill="#3FBB7D"/>
<path d="M116 84.2498C116 82.4549 114.578 81 112.824 81H65.1771C63.4228 81 62 82.4549 62 84.2498V93.7502C62 95.5451 63.4228 97 65.1771 97H112.824C114.578 97 116 95.5451 116 93.7502V84.2498ZM65.1771 93.7502V84.2498H112.824V93.7502H65.1771Z" fill="#3FBB7D"/>
</g>
<defs>
<clipPath id="clip0">
<rect width="315" height="180" fill="white"/>
</clipPath>
</defs>
</svg>
