<svg width="315" height="180" viewBox="0 0 315 180" fill="none" xmlns="http://www.w3.org/2000/svg">
<g clip-path="url(#clip0)">
<circle cx="167" cy="75" r="75" fill="#E9F5EE"/>
<circle cx="187" cy="81" r="75" stroke="#3FBB7D" stroke-width="3" stroke-linecap="round" stroke-dasharray="10 10"/>
<path d="M162.203 133.151H32V61.0265C32 55.336 36.7392 50.7231 42.5855 50.7231H151.618C157.464 50.7231 162.203 55.336 162.203 61.0265V133.151Z" fill="#F2F4F8"/>
<path d="M151.618 149.636H42.5855C36.7392 149.636 32 144.317 32 137.755V130.627H162.203V137.755C162.203 144.317 157.464 149.636 151.618 149.636Z" fill="#DEE1E9"/>
<path d="M151.618 50.7229H137.857C143.703 50.7229 148.442 55.3358 148.442 61.0263V133.151H162.203V61.0263C162.203 55.3358 157.464 50.7229 151.618 50.7229Z" fill="#DEE1E9"/>
<path d="M148.442 130.627V137.755C148.442 144.317 143.703 149.636 137.857 149.636H151.618C157.464 149.636 162.203 144.317 162.203 137.755V130.627H148.442Z" fill="#BDC7D4" fill-opacity="0.3"/>
<path d="M122.507 177.456L114.039 149.637H80.1648L71.696 177.456H122.507Z" fill="#D4D9E3"/>
<rect x="31.5" y="49.5" width="131.407" height="100.559" rx="14.5" stroke="#BDC4D4" stroke-width="3"/>
<path d="M31 131L162 131" stroke="#BDC7D4" stroke-width="3"/>
<path d="M64.2542 178H130.356" stroke="#BDC4D4" stroke-width="3" stroke-linecap="round"/>
<path d="M80.7796 150.458L73.0677 177.449" stroke="#BDC4D4" stroke-width="3" stroke-linecap="round"/>
<path d="M113.28 150.458L120.992 177.449" stroke="#BDC4D4" stroke-width="3" stroke-linecap="round"/>
<rect x="50.5" y="61.5" width="79" height="57" rx="3.5" fill="#E9F5EE" stroke="#3FBB7D" stroke-width="3"/>
<path d="M49 66C49 63.2386 51.2386 61 54 61H126C128.761 61 131 63.2386 131 66V74H49V66Z" fill="#D3ECDD"/>
<path d="M51 73.5H129.5" stroke="#3FBB7D" stroke-width="3" stroke-linecap="round"/>
<circle cx="57.5" cy="67.5" r="1.5" fill="#3FBB7D"/>
<circle cx="62.5" cy="67.5" r="1.5" fill="#3FBB7D"/>
<circle cx="67.5" cy="67.5" r="1.5" fill="#3FBB7D"/>
<rect x="50.5" y="61.5" width="79" height="57" rx="3.5" stroke="#3FBB7D" stroke-width="3"/>
<path d="M116 84.2498C116 82.4549 114.578 81 112.824 81H65.1771C63.4228 81 62 82.4549 62 84.2498V93.7502C62 95.5451 63.4228 97 65.1771 97H112.824C114.578 97 116 95.5451 116 93.7502V84.2498Z" fill="#A6D9BC"/>
<path d="M90 102.5C90 101.672 89.3036 101 88.4448 101H63.5559C62.6971 101 62 101.672 62 102.5C62 103.328 62.6971 104 63.5559 104H88.4448C89.3036 104 90 103.328 90 102.5Z" fill="#3FBB7D"/>
<path d="M95.5717 101C94.7035 101 94 101.672 94 102.5C94 103.328 94.7035 104 95.5717 104H114.428C115.296 104 116 103.328 116 102.5C116 101.672 115.296 101 114.428 101H95.5717Z" fill="#3FBB7D"/>
<path d="M116 84.2498C116 82.4549 114.578 81 112.824 81H65.1771C63.4228 81 62 82.4549 62 84.2498V93.7502C62 95.5451 63.4228 97 65.1771 97H112.824C114.578 97 116 95.5451 116 93.7502V84.2498ZM65.1771 93.7502V84.2498H112.824V93.7502H65.1771Z" fill="#3FBB7D"/>
<path d="M206.5 74C206.5 73.7239 206.724 73.5 207 73.5L277 73.5C280.59 73.5 283.5 76.4101 283.5 80L283.5 100C283.5 103.59 280.59 106.5 277 106.5L207 106.5C206.724 106.5 206.5 106.276 206.5 106L206.5 74Z" fill="#DEE1E9" stroke="#BDC4D4" stroke-width="3"/>
<path d="M215.5 73.5L215.5 107" stroke="#BDC4D4" stroke-width="3"/>
<path d="M206 99H245H271.597C275.742 99 279.763 97.5893 283 95V105H206V99Z" fill="#D4D9E3"/>
<path d="M206.5 74C206.5 73.7239 206.724 73.5 207 73.5L277 73.5C280.59 73.5 283.5 76.4101 283.5 80L283.5 100C283.5 103.59 280.59 106.5 277 106.5L207 106.5C206.724 106.5 206.5 106.276 206.5 106L206.5 74Z" stroke="#BDC4D4" stroke-width="3"/>
<path d="M215.5 73.5L215.5 107" stroke="#BDC4D4" stroke-width="3"/>
<path d="M185 79.5C185 79.2239 185.224 79 185.5 79L206 79L206 100L185.5 100C185.224 100 185 99.7761 185 99.5L185 79.5Z" fill="#F2F4F8" stroke="#BDC4D4" stroke-width="3"/>
<rect x="185" y="90" width="20" height="9" fill="#DEE1E9"/>
<path d="M185 89.5L206 89.5" stroke="#BDC4D4" stroke-width="2"/>
<path d="M193.695 84.0415L193.695 85.4557" stroke="#BDC4D4" stroke-width="3" stroke-linecap="round"/>
<path d="M193.695 93.9412L193.695 95.3554" stroke="#BDC4D4" stroke-width="3" stroke-linecap="round"/>
<path d="M185 79.5C185 79.2239 185.224 79 185.5 79L206 79L206 100L185.5 100C185.224 100 185 99.7761 185 99.5L185 79.5Z" stroke="#BDC4D4" stroke-width="3"/>
<path d="M251 106C241.887 106 234.5 98.6127 234.5 89.5L234.5 30.5C234.5 21.3873 241.887 14 251 14C260.113 14 267.5 21.3873 267.5 30.5L267.5 89.5C267.5 98.6127 260.113 106 251 106Z" fill="#F2F4F8" stroke="#3FBB7D" stroke-width="3"/>
<g clip-path="url(#clip1)">
<path d="M245.135 78.3011L245.135 83.6689L252.377 83.6689L252.377 76.4215L247.009 76.4215C246.762 76.4215 246.518 76.4701 246.29 76.5647C246.063 76.6592 245.856 76.7977 245.682 76.9724C245.508 77.147 245.37 77.3542 245.276 77.5822C245.182 77.8103 245.134 78.0545 245.135 78.3011Z" fill="#3FBB7D"/>
<path d="M245.135 85.3423L245.135 86.2674C245.135 86.7643 245.333 87.2409 245.684 87.5923C246.035 87.9437 246.512 88.1411 247.009 88.1411L247.934 88.1411L247.934 85.3423L245.135 85.3423Z" fill="#3FBB7D"/>
<path d="M249.607 88.1411L249.607 85.3423L252.406 85.3423L252.406 88.1411L249.607 88.1411Z" fill="#3FBB7D"/>
<path d="M256.855 79.1968L256.855 78.2717C256.855 78.0251 256.806 77.781 256.712 77.5533C256.617 77.3256 256.479 77.1187 256.304 76.9447C256.129 76.7706 255.922 76.6327 255.694 76.5389C255.466 76.4451 255.222 76.3972 254.975 76.398L254.08 76.398L254.08 79.1968L256.855 79.1968Z" fill="#3FBB7D"/>
<path d="M254.08 83.6689L254.08 80.8701L256.878 80.8701L256.878 83.6689L254.08 83.6689Z" fill="#3FBB7D"/>
<path d="M254.08 88.1411L255.005 88.1411C255.502 88.1411 255.978 87.9437 256.33 87.5923C256.681 87.2409 256.878 86.7643 256.878 86.2674L256.878 85.3423L254.08 85.3423L254.08 88.1411Z" fill="#3FBB7D"/>
<path d="M245.883 69.2683L245.883 70.3643L256.13 70.3643L256.13 64.5604L255.152 64.5604L255.152 69.2683L245.883 69.2683Z" fill="#3FBB7D"/>
<path d="M248.6 61.0366C248.6 63.1696 250.185 64.6721 252.465 64.6721L252.724 64.6721C253.689 64.6372 254.603 64.2308 255.275 63.5379C255.947 62.8451 256.325 61.9193 256.33 60.9541L256.33 60.8127C256.329 59.8144 255.971 58.8493 255.323 58.0905L255.293 58.0905L254.486 58.5854L254.516 58.6384C255.065 59.2276 255.374 60.0012 255.382 60.8068C255.39 61.1752 255.323 61.5415 255.185 61.8831C255.047 62.2248 254.84 62.5347 254.578 62.7939C254.316 63.0531 254.004 63.2561 253.661 63.3906C253.318 63.5251 252.951 63.5883 252.583 63.5762L252.583 58.0374L252.524 58.0374C252.524 58.0374 252.176 58.0374 252.005 58.0374C249.925 57.9844 248.6 59.1923 248.6 61.0366ZM251.658 63.5172C251.066 63.4464 250.521 63.1605 250.127 62.7139C249.733 62.2673 249.516 61.6913 249.519 61.0955C249.519 60.1704 250.073 59.157 251.658 59.0745L251.658 63.5172Z" fill="#3FBB7D"/>
<path d="M249.466 51.6092L249.849 51.6092C249.465 51.8397 249.147 52.1651 248.925 52.5541C248.703 52.9432 248.585 53.3827 248.582 53.8306L248.582 53.9661C248.582 55.9282 250.138 57.2834 252.418 57.2834C254.698 57.2834 256.289 55.9872 256.289 54.0545C256.312 53.5624 256.201 53.0733 255.966 52.6401C255.731 52.207 255.382 51.8464 254.957 51.5974L256.083 51.5974L256.083 50.5604L245.883 50.5604L245.883 51.6092L249.466 51.6092ZM255.323 53.86C255.323 55.2153 254.144 56.1109 252.435 56.1109C250.727 56.1109 249.578 55.1622 249.578 53.8306C249.578 52.7287 250.473 51.6092 252.435 51.6092C254.563 51.6092 255.323 52.7877 255.323 53.8836L255.323 53.86Z" fill="#3FBB7D"/>
<path d="M249.607 44.2143L249.666 44.2143C249.319 44.4206 248.57 45.051 248.57 46.5712C248.57 48.5039 250.043 49.7766 252.294 49.7766C254.545 49.7766 256.071 48.445 256.071 46.4828C256.105 46.031 256.012 45.5786 255.804 45.1761C255.596 44.7736 255.281 44.4366 254.893 44.2025L255.906 44.2025C257.32 44.2025 258.128 45.0982 258.128 46.6891C258.132 47.3747 257.972 48.0515 257.662 48.663L257.633 48.716L258.528 49.1226L258.558 49.0636C258.934 48.3216 259.135 47.5033 259.147 46.6714C259.147 44.9685 258.281 43.136 255.883 43.136L248.812 43.136L248.812 44.2143L249.607 44.2143ZM255.152 46.3532C255.152 47.7674 254.056 48.7101 252.353 48.7101C250.65 48.7101 249.637 47.9029 249.637 46.5182C249.637 44.9921 250.532 44.2674 252.353 44.2674C254.174 44.2674 255.152 44.9685 255.152 46.3532Z" fill="#3FBB7D"/>
<path d="M248.6 38.7875C248.6 40.9263 250.185 42.3994 252.435 42.3994L252.695 42.3994C253.67 42.3688 254.594 41.9599 255.273 41.2593C255.952 40.5587 256.331 39.6214 256.33 38.646L256.33 38.4987C256.325 37.5037 255.965 36.543 255.317 35.7883L254.457 36.2891L254.457 36.3481C255.006 36.9351 255.315 37.7067 255.323 38.5105C255.331 38.8792 255.264 39.2457 255.126 39.5877C254.988 39.9296 254.781 40.2399 254.52 40.4996C254.258 40.7592 253.946 40.9628 253.603 41.098C253.26 41.2332 252.892 41.2971 252.524 41.2858L252.524 35.6999L252.465 35.6999C252.465 35.6999 252.117 35.6999 251.946 35.6999C249.925 35.6999 248.6 36.9137 248.6 38.7875ZM251.658 41.2445C251.066 41.1723 250.521 40.8852 250.126 40.4377C249.732 39.9901 249.516 39.4134 249.519 38.8169C249.519 37.8977 250.073 36.8843 251.658 36.8018L251.658 41.2445Z" fill="#3FBB7D"/>
<path d="M248.741 31.1983C248.741 31.3456 248.741 31.4576 248.682 31.6049C248.697 32.114 248.868 32.6062 249.173 33.0143C249.478 33.4224 249.901 33.7265 250.385 33.8852L248.741 33.8852L248.741 34.9517L256.042 34.9517L256.101 34.9517L256.101 33.8557L253.013 33.8557C252.538 33.8519 252.067 33.7744 251.617 33.6259C250.491 33.2783 249.772 32.5005 249.772 31.5754C249.761 31.4598 249.761 31.3433 249.772 31.2278L249.772 31.1688L248.741 31.1688L248.741 31.1983Z" fill="#3FBB7D"/>
</g>
</g>
<defs>
<clipPath id="clip0">
<rect width="315" height="180" fill="white"/>
</clipPath>
<clipPath id="clip1">
<rect width="56.9722" height="14" fill="white" transform="translate(245.135 88.1411) rotate(-90)"/>
</clipPath>
</defs>
</svg>
