<svg width="315" height="180" viewBox="0 0 315 180" fill="none" xmlns="http://www.w3.org/2000/svg">
<path d="M2 178H95.5C99.366 178 102.5 174.866 102.5 171C102.5 167.134 99.366 164 95.5 164H75C72.2386 164 70 161.761 70 159V120.5C70 117.739 72.2386 115.5 75 115.5H107.25" stroke="#BDC4D4" stroke-width="3" stroke-linecap="round"/>
<path d="M130.75 178H119.25C115.384 178 112.25 174.866 112.25 171C112.25 167.134 115.384 164 119.25 164H139.75C142.511 164 144.75 161.761 144.75 159V120.5C144.75 117.739 142.511 115.5 139.75 115.5H107.5" stroke="#BDC4D4" stroke-width="3" stroke-linecap="round"/>
<rect x="76.5" y="122" width="62" height="36" rx="3" fill="#EDFAF7"/>
<path d="M230.16 42.5118H227.18C227.181 38.0883 226.079 33.7338 223.973 29.8392C221.867 25.9447 218.822 22.6321 215.113 20.1988C211.404 17.7654 207.147 16.2876 202.722 15.898C198.298 15.5083 193.846 16.219 189.766 17.9663C185.65 10.9211 179.139 5.57542 171.409 2.89632C163.68 0.217219 155.243 0.381549 147.625 3.35959C140.007 6.33763 133.71 11.9327 129.874 19.1329C126.037 26.3331 124.915 34.6629 126.709 42.6157C120.781 43.1455 115.266 45.8651 111.248 50.2397C107.231 54.6143 105.002 60.3275 105 66.2559C105 72.5532 107.512 78.5926 111.983 83.0455C116.453 87.4984 122.517 90 128.84 90H230.16C236.483 90 242.547 87.4984 247.017 83.0455C251.488 78.5926 254 72.5532 254 66.2559C254 59.9586 251.488 53.9192 247.017 49.4663C242.547 45.0134 236.483 42.5118 230.16 42.5118Z" fill="#FAFBFD"/>
<path d="M229.18 42.5118H230.16C236.483 42.5118 242.547 45.0134 247.017 49.4663C251.488 53.9192 254 59.9586 254 66.2559C254 72.5532 251.488 78.5926 247.017 83.0455C242.547 87.4984 236.483 90 230.16 90H187.484C186.664 90 186 89.3356 186 88.516C186 87.6964 186.664 87.032 187.484 87.032H230.16C235.692 87.032 240.998 84.8431 244.91 80.9468C248.822 77.0505 251.02 71.7661 251.02 66.2559C251.02 60.7457 248.822 55.4613 244.91 51.565C240.998 47.6687 235.692 45.4798 230.16 45.4798H226.2C225.095 45.4798 224.2 44.5844 224.2 43.4798V42.5118C224.199 38.582 223.219 34.7138 221.348 31.2541C219.476 27.7945 216.772 24.8516 213.477 22.6894C210.182 20.5272 206.4 19.2133 202.47 18.8656C198.539 18.5178 194.584 19.1471 190.958 20.6969L190.145 21.0448C189.221 21.44 188.147 21.0883 187.636 20.2231L187.188 19.4652C183.424 13.0472 177.48 8.18059 170.43 5.74349C163.38 3.3064 155.687 3.45933 148.74 6.17468C141.793 8.89003 136.049 13.989 132.545 20.5515C129.04 27.1139 128.007 34.7078 129.63 41.9627L129.872 43.0396C130.138 44.221 129.301 45.3658 128.095 45.4712L126.978 45.5689C121.641 46.0623 116.699 48.5826 113.178 52.6072C109.657 56.6318 107.827 61.8518 108.066 67.1846C108.306 72.5173 110.597 77.5537 114.465 81.249C118.333 84.9444 123.48 87.0152 128.84 87.032H171.516C172.336 87.032 173 87.6964 173 88.516C173 89.3356 172.336 90 171.516 90H128.84C122.517 90 116.453 87.4984 111.983 83.0455C107.512 78.5926 105 72.5532 105 66.2559C105.002 60.3275 107.231 54.6143 111.248 50.2397C114.749 46.4273 119.388 43.8718 124.447 42.9273C125.636 42.7052 126.468 41.5669 126.282 40.3716C125.149 33.1119 126.397 25.6585 129.874 19.1329C133.71 11.9327 140.007 6.33763 147.625 3.35959C155.243 0.38155 163.68 0.217219 171.409 2.89632C178.58 5.3817 184.702 10.1619 188.836 16.4651C189.389 17.3087 190.46 17.6603 191.411 17.3249C195.029 16.0496 198.886 15.5601 202.722 15.898C207.147 16.2876 211.404 17.7654 215.113 20.1988C218.822 22.6321 221.867 25.9447 223.973 29.8392C225.761 33.1455 226.825 36.7832 227.105 40.5132C227.188 41.6148 228.076 42.5118 229.18 42.5118Z" fill="#BDC4D4"/>
<ellipse cx="179.5" cy="72" rx="8.5" ry="8" fill="white"/>
<path fill-rule="evenodd" clip-rule="evenodd" d="M183.5 78.6164C183.5 78.0706 183.776 77.5692 184.182 77.204C185.605 75.9227 186.5 74.0659 186.5 72C186.5 68.134 183.366 65 179.5 65C175.634 65 172.5 68.134 172.5 72C172.5 74.0659 173.395 75.9227 174.818 77.204C175.224 77.5692 175.5 78.0706 175.5 78.6164C175.5 79.8201 174.263 80.6049 173.317 79.86C170.993 78.0289 169.5 75.1888 169.5 72C169.5 66.4772 173.977 62 179.5 62C185.023 62 189.5 66.4772 189.5 72C189.5 75.1888 188.007 78.0289 185.683 79.86C184.737 80.6049 183.5 79.8201 183.5 78.6164Z" fill="#BDC4D4"/>
<path d="M140 178H159.5C170.546 178 179.5 169.046 179.5 158V72.5" stroke="#3FBB7D" stroke-width="3" stroke-linecap="round"/>
<path d="M123.356 25.2554C100.438 15.1732 73.977 24.9157 64.2549 47.0159" stroke="#F2F4F8" stroke-width="2" stroke-linecap="round" stroke-dasharray="20 15"/>
<path d="M63.9293 47.7566C54.0272 70.266 64.2474 96.5408 86.7568 106.443" stroke="#F2F4F8" stroke-width="2" stroke-linecap="round" stroke-dasharray="20 15"/>
<line x1="268.5" y1="123.5" x2="313.5" y2="123.5" stroke="#F2F4F8" stroke-width="3" stroke-linecap="round" stroke-dasharray="20 10"/>
<line x1="157.5" y1="123.5" x2="200.5" y2="123.5" stroke="#F2F4F8" stroke-width="3" stroke-linecap="round" stroke-dasharray="20 10"/>
<path d="M235.906 100.469C222.108 100.21 210.719 110.787 210.469 124.093" stroke="#F2F4F8" stroke-width="3"/>
<path d="M235.461 100.461C249.013 100.715 259.794 111.908 259.539 125.461C259.284 139.013 248.092 149.794 234.539 149.539" stroke="#3FBB7D" stroke-width="3" stroke-linecap="round"/>
<path d="M210.461 124.539C210.206 138.091 220.987 149.284 234.539 149.539" stroke="#3FBB7D" stroke-width="3" stroke-linecap="round"/>
</svg>
