<svg width="315" height="180" viewBox="0 0 315 180" fill="none" xmlns="http://www.w3.org/2000/svg">
<circle cx="167" cy="75" r="75" fill="#F2F4F8"/>
<path d="M162.203 133.152H32V61.027C32 55.3365 36.7392 50.7236 42.5855 50.7236H151.618C157.464 50.7236 162.203 55.3365 162.203 61.027V133.152Z" fill="#F2F4F8"/>
<path d="M151.618 149.636H42.5855C36.7392 149.636 32 144.317 32 137.755V130.627H162.203V137.755C162.203 144.317 157.464 149.636 151.618 149.636Z" fill="#DEE1E9"/>
<path d="M151.618 50.7231H137.857C143.703 50.7231 148.442 55.336 148.442 61.0265V133.151H162.203V61.0265C162.203 55.336 157.464 50.7231 151.618 50.7231Z" fill="#DEE1E9"/>
<path d="M148.442 130.627V137.755C148.442 144.317 143.703 149.636 137.857 149.636H151.618C157.464 149.636 162.203 144.317 162.203 137.755V130.627H148.442Z" fill="#BDC7D4" fill-opacity="0.3"/>
<path d="M122.507 177.456L114.039 149.637H80.1648L71.696 177.456H122.507Z" fill="#D4D9E3"/>
<rect x="31.5" y="49.5" width="131.407" height="100.559" rx="14.5" stroke="#BDC4D4" stroke-width="3"/>
<path d="M31 131L162 131" stroke="#BDC7D4" stroke-width="3"/>
<path d="M64.2542 178H130.356" stroke="#BDC4D4" stroke-width="3" stroke-linecap="round"/>
<path d="M80.7796 150.458L73.0677 177.449" stroke="#BDC4D4" stroke-width="3" stroke-linecap="round"/>
<path d="M113.28 150.458L120.992 177.449" stroke="#BDC4D4" stroke-width="3" stroke-linecap="round"/>
<path d="M50.5 66C50.5 64.067 52.067 62.5 54 62.5H126C127.933 62.5 129.5 64.067 129.5 66V115C129.5 116.933 127.933 118.5 126 118.5H54C52.067 118.5 50.5 116.933 50.5 115V66Z" fill="#DEE1E9" stroke="#7D7E8D" stroke-width="3"/>
<path d="M50.5 66C50.5 64.067 52.067 62.5 54 62.5H126C127.933 62.5 129.5 64.067 129.5 66V72.5H50.5V66Z" fill="#BDC4D4" stroke="#7D7E8D" stroke-width="3"/>
<circle cx="57.5" cy="67.5" r="1" fill="#7D7E8D" stroke="#7D7E8D"/>
<circle cx="62.5" cy="67.5" r="1" fill="#7D7E8D" stroke="#7D7E8D"/>
<circle cx="67.5" cy="67.5" r="1" fill="#7D7E8D" stroke="#7D7E8D"/>
<path d="M50.5 66C50.5 64.067 52.067 62.5 54 62.5H126C127.933 62.5 129.5 64.067 129.5 66V115C129.5 116.933 127.933 118.5 126 118.5H54C52.067 118.5 50.5 116.933 50.5 115V66Z" stroke="#7D7E8D" stroke-width="3"/>
<path d="M112.824 81.5C114.291 81.5 115.5 82.7202 115.5 84.2498V93.7502C115.5 95.2798 114.291 96.5 112.824 96.5H65.1771C63.7095 96.5 62.5 95.2796 62.5 93.7502V84.2498C62.5 82.7204 63.7095 81.5 65.1771 81.5H112.824Z" fill="#BDC4D4" stroke="#7D7E8D"/>
<path d="M88.4448 101.5C89.0447 101.5 89.5 101.965 89.5 102.5C89.5 103.035 89.0446 103.5 88.4448 103.5H63.5559C62.9558 103.5 62.5 103.035 62.5 102.5C62.5 101.965 62.9557 101.5 63.5559 101.5H88.4448Z" fill="#7D7E8D" stroke="#7D7E8D"/>
<path d="M94.5 102.5C94.5 101.969 94.9573 101.5 95.5717 101.5H114.428C115.043 101.5 115.5 101.969 115.5 102.5C115.5 103.031 115.043 103.5 114.428 103.5H95.5717C94.9575 103.5 94.5 103.031 94.5 102.5Z" fill="#7D7E8D" stroke="#7D7E8D"/>
<path d="M64.6771 93.7502V94.2502H65.1771H112.824H113.324V93.7502V84.2498V83.7498H112.824H65.1771H64.6771V84.2498V93.7502ZM112.824 81.5C114.291 81.5 115.5 82.7202 115.5 84.2498V93.7502C115.5 95.2798 114.291 96.5 112.824 96.5H65.1771C63.7095 96.5 62.5 95.2796 62.5 93.7502V84.2498C62.5 82.7204 63.7095 81.5 65.1771 81.5H112.824Z" fill="#7D7E8D" stroke="#7D7E8D"/>
<path d="M98.5 161C98.5 159.619 99.6193 158.5 101 158.5H110.5V169.5H101C99.6193 169.5 98.5 168.381 98.5 167V161Z" fill="#F2F4F8" stroke="#7D7E8D" stroke-width="3"/>
<path d="M139.5 166C139.5 167.381 138.381 168.5 137 168.5L131.5 168.5L131.5 159.5L137 159.5C138.381 159.5 139.5 160.619 139.5 162L139.5 164L139.5 166Z" fill="#D4D9E3" stroke="#7D7E8D" stroke-width="3"/>
<path d="M111.89 155.814C111.966 155.624 112.15 155.5 112.354 155.5H129.646C129.85 155.5 130.034 155.624 130.11 155.814L130.636 157.129C132.4 161.54 132.4 166.46 130.636 170.871L130.11 172.186C130.034 172.376 129.85 172.5 129.646 172.5H112.354C112.15 172.5 111.966 172.376 111.89 172.186L111.364 170.871C109.6 166.46 109.6 161.54 111.364 157.129L111.89 155.814Z" fill="#D4D9E3" stroke="#7D7E8D" stroke-width="3"/>
<path d="M103 163L103 165" stroke="#7D7E8D" stroke-width="3" stroke-linecap="round"/>
<path d="M140 164H228.496C234.985 164 240.246 158.739 240.246 152.25V152.25C240.246 145.761 234.985 140.5 228.496 140.5H195.823C189.905 140.5 185.108 135.702 185.108 129.784V129.784C185.108 123.866 189.905 119.069 195.823 119.069H201.689H243C250.732 119.069 257 112.801 257 105.069V62.5" stroke="#7D7E8D" stroke-width="3" stroke-linecap="round"/>
<path d="M256.5 58.5V29" stroke="#7D7E8D" stroke-width="3" stroke-linecap="round"/>
<circle cx="256.5" cy="52.5" r="31" fill="#FCE6E6" stroke="#EB5757" stroke-width="3"/>
<path d="M246.605 40.1334C246.281 39.8206 245.848 39.6475 245.397 39.6514C244.947 39.6553 244.516 39.836 244.198 40.1544C243.88 40.4728 243.699 40.9035 243.695 41.3537C243.691 41.804 243.864 42.2378 244.177 42.5617L254.094 52.4791L244.175 62.3965C244.011 62.5549 243.881 62.7444 243.791 62.9539C243.701 63.1635 243.653 63.3888 243.651 63.6168C243.649 63.8448 243.693 64.071 243.779 64.282C243.865 64.4931 243.993 64.6848 244.154 64.8461C244.315 65.0073 244.507 65.1348 244.718 65.2212C244.929 65.3075 245.155 65.351 245.383 65.349C245.611 65.347 245.837 65.2996 246.046 65.2096C246.256 65.1196 246.445 64.9888 246.603 64.8248L256.522 54.9074L266.439 64.8248C266.763 65.1376 267.196 65.3107 267.647 65.3068C268.097 65.3029 268.527 65.1222 268.846 64.8038C269.164 64.4854 269.345 64.0547 269.349 63.6045C269.353 63.1542 269.18 62.7204 268.867 62.3965L258.95 52.4791L268.867 42.5617C269.18 42.2378 269.353 41.804 269.349 41.3537C269.345 40.9035 269.164 40.4728 268.846 40.1544C268.527 39.836 268.097 39.6553 267.647 39.6514C267.196 39.6475 266.763 39.8206 266.439 40.1334L256.522 50.0508L246.605 40.1334Z" fill="#EB5757" stroke="#EB5757" stroke-width="0.5"/>
</svg>
