<svg width="162" height="24" viewBox="0 0 162 24" fill="none" xmlns="http://www.w3.org/2000/svg">
<path fill-rule="evenodd" clip-rule="evenodd" d="M2.52374 21.1994C1.12992 21.1994 0 20.0695 0 18.6757V15.8325V5.36695V2.52374C0 1.12992 1.12992 0 2.52374 0H23.4708C24.8646 0 25.9946 1.12992 25.9946 2.52374V5.05757C25.9946 5.19361 25.8782 5.29986 25.7422 5.29986L18.4233 5.29986C16.7507 5.29986 15.3948 6.65576 15.3948 8.32835V12.8711C15.3948 14.5437 16.7507 15.8996 18.4233 15.8996H25.7422C25.8782 15.8996 25.9946 16.0058 25.9946 16.1419V18.6757C25.9946 20.0695 24.8646 21.1994 23.4708 21.1994L2.52374 21.1994ZM25.7425 6.81368C26.5788 6.81368 27.2567 7.49163 27.2567 8.32792V12.8707C27.2567 13.707 26.5788 14.3849 25.7425 14.3849H18.4236C17.5873 14.3849 16.9094 13.707 16.9094 12.8707V8.32792C16.9094 7.49163 17.5873 6.81368 18.4236 6.81368H25.7425ZM20.695 12.1135C19.8587 12.1135 19.1808 11.4356 19.1808 10.5993C19.1808 9.763 19.8587 9.08505 20.695 9.08505C21.5313 9.08505 22.2093 9.763 22.2093 10.5993C22.2093 11.4356 21.5313 12.1135 20.695 12.1135Z" fill="#3FBB7D"/>
<path d="M49.6845 14.5797C49.6845 13.9108 49.4472 13.3992 48.9724 13.0451C48.4977 12.6831 47.6432 12.3053 46.4089 11.9118C45.1746 11.5105 44.1974 11.117 43.4774 10.7314C41.5152 9.67681 40.5341 8.2563 40.5341 6.46985C40.5341 5.54121 40.7952 4.71488 41.3174 3.99085C41.8475 3.25896 42.6031 2.68839 43.5842 2.27916C44.5733 1.86993 45.681 1.66532 46.9074 1.66532C48.1417 1.66532 49.2415 1.88961 50.2068 2.33819C51.172 2.7789 51.9197 3.40455 52.4499 4.21514C52.9879 5.02573 53.2569 5.94651 53.2569 6.97745H49.6964C49.6964 6.19047 49.4472 5.58056 48.9487 5.14772C48.4502 4.70701 47.75 4.48665 46.848 4.48665C45.9777 4.48665 45.3012 4.67159 44.8185 5.04147C44.3359 5.40349 44.0946 5.88355 44.0946 6.48165C44.0946 7.04041 44.3755 7.50867 44.9372 7.88642C45.5069 8.26417 46.3416 8.61831 47.4414 8.94885C49.467 9.55482 50.9426 10.3064 51.8683 11.2036C52.794 12.1007 53.2569 13.2182 53.2569 14.5561C53.2569 16.0435 52.6912 17.2122 51.5597 18.0621C50.4283 18.9042 48.9052 19.3252 46.9904 19.3252C45.6612 19.3252 44.4506 19.0852 43.3587 18.6051C42.2668 18.1172 41.4321 17.4522 40.8545 16.6101C40.2848 15.7681 40 14.7922 40 13.6826H43.5724C43.5724 15.5792 44.7117 16.5275 46.9904 16.5275C47.837 16.5275 48.4977 16.3583 48.9724 16.0199C49.4472 15.6736 49.6845 15.1936 49.6845 14.5797Z" fill="#1D1D22"/>
<path d="M64.3474 6.31639L64.4542 7.74476C65.3641 6.63512 66.5945 6.08029 68.1453 6.08029C69.7989 6.08029 70.9343 6.72955 71.5515 8.02808C72.4535 6.72955 73.7392 6.08029 75.4087 6.08029C76.8012 6.08029 77.8377 6.48559 78.5182 7.29618C79.1986 8.0989 79.5389 9.31086 79.5389 10.932V19.0891H76.0971V10.9438C76.0971 10.2198 75.9546 9.69254 75.6698 9.36201C75.385 9.02361 74.8825 8.85441 74.1625 8.85441C73.1339 8.85441 72.4218 9.34234 72.0262 10.3182L72.0381 19.0891H68.6082V10.9557C68.6082 10.2159 68.4618 9.68074 68.169 9.35021C67.8763 9.01967 67.3778 8.85441 66.6736 8.85441C65.7004 8.85441 64.9962 9.25577 64.5611 10.0585V19.0891H61.1311V6.31639H64.3474Z" fill="#1D1D22"/>
<path d="M93.3563 12.8208C93.3563 14.7883 92.9053 16.3662 92.0034 17.5545C91.1093 18.735 89.8987 19.3252 88.3717 19.3252C87.0741 19.3252 86.0257 18.8766 85.2265 17.9795V23.9999H81.7966V6.31639H84.9773L85.096 7.56769C85.9268 6.57609 87.0108 6.08029 88.3479 6.08029C89.9304 6.08029 91.1607 6.66266 92.039 7.82739C92.9172 8.99213 93.3563 10.5976 93.3563 12.6437V12.8208ZM89.9264 12.5729C89.9264 11.3846 89.7128 10.4677 89.2855 9.8224C88.8662 9.17707 88.253 8.85441 87.4459 8.85441C86.3699 8.85441 85.6301 9.26364 85.2265 10.0821V15.3116C85.6459 16.1537 86.3936 16.5747 87.4697 16.5747C89.1075 16.5747 89.9264 15.2408 89.9264 12.5729Z" fill="#1D1D22"/>
<path d="M98.7236 19.0891H95.2818V0.957031H98.7236V19.0891Z" fill="#1D1D22"/>
<path d="M107.082 19.3252C105.199 19.3252 103.664 18.7507 102.477 17.6017C101.298 16.4527 100.708 14.922 100.708 13.0097V12.6791C100.708 11.3964 100.958 10.2513 101.456 9.24397C101.955 8.22876 102.659 7.44964 103.569 6.90662C104.486 6.35574 105.531 6.08029 106.702 6.08029C108.458 6.08029 109.839 6.63118 110.844 7.73296C111.857 8.83473 112.363 10.3969 112.363 12.4194V13.8124H104.186C104.297 14.6466 104.629 15.3155 105.183 15.8192C105.744 16.3229 106.453 16.5747 107.307 16.5747C108.628 16.5747 109.661 16.0986 110.405 15.1463L112.09 17.0233C111.576 17.7473 110.879 18.3139 110.001 18.7232C109.123 19.1245 108.15 19.3252 107.082 19.3252ZM106.69 8.8426C106.01 8.8426 105.456 9.07083 105.028 9.52728C104.609 9.98373 104.34 10.6369 104.221 11.4869H108.992V11.2154C108.977 10.4599 108.771 9.87749 108.375 9.46826C107.98 9.05115 107.418 8.8426 106.69 8.8426Z" fill="#1D1D22"/>
<path d="M58.6836 19.0891H55.2418V6.31639H58.6836V19.0891ZM55.04 3.01106C55.04 2.49952 55.2102 2.07848 55.5504 1.74795C55.8985 1.41742 56.3693 1.25215 56.9627 1.25215C57.5482 1.25215 58.015 1.41742 58.3632 1.74795C58.7113 2.07848 58.8854 2.49952 58.8854 3.01106C58.8854 3.53047 58.7074 3.95544 58.3513 4.28597C58.0032 4.6165 57.5403 4.78177 56.9627 4.78177C56.3851 4.78177 55.9183 4.6165 55.5622 4.28597C55.2141 3.95544 55.04 3.53047 55.04 3.01106Z" fill="#3FBB7D"/>
<path d="M128.222 19.0891H124.662V11.723H117.719V19.0891H114.158V1.90141H117.719V8.86621H124.662V1.90141H128.222V19.0891Z" fill="#3FBB7D"/>
<path d="M130.195 12.5847C130.195 11.3177 130.44 10.1883 130.931 9.19674C131.421 8.20515 132.125 7.43784 133.043 6.89482C133.969 6.3518 135.041 6.08029 136.26 6.08029C137.992 6.08029 139.405 6.60757 140.497 7.66213C141.596 8.71668 142.21 10.149 142.336 11.9591L142.36 12.8326C142.36 14.7922 141.81 16.3662 140.71 17.5545C139.61 18.735 138.135 19.3252 136.283 19.3252C134.432 19.3252 132.952 18.735 131.845 17.5545C130.745 16.374 130.195 14.7686 130.195 12.7382V12.5847ZM133.625 12.8326C133.625 14.0446 133.854 14.9732 134.313 15.6185C134.772 16.256 135.429 16.5747 136.283 16.5747C137.114 16.5747 137.763 16.2599 138.23 15.6303C138.697 14.9929 138.93 13.9777 138.93 12.5847C138.93 11.3964 138.697 10.4756 138.23 9.8224C137.763 9.1692 137.106 8.8426 136.26 8.8426C135.421 8.8426 134.772 9.1692 134.313 9.8224C133.854 10.4677 133.625 11.4711 133.625 12.8326Z" fill="#3FBB7D"/>
<path d="M147.703 19.0891H144.262V0.957031H147.703V19.0891Z" fill="#3FBB7D"/>
<path d="M149.617 12.6083C149.617 10.6172 150.064 9.03148 150.958 7.851C151.86 6.67053 153.09 6.08029 154.649 6.08029C155.899 6.08029 156.932 6.54461 157.747 7.47325V0.957031H161.189V19.0891H158.091L157.925 17.7316C157.07 18.794 155.971 19.3252 154.625 19.3252C153.114 19.3252 151.9 18.735 150.982 17.5545C150.072 16.3662 149.617 14.7174 149.617 12.6083ZM153.047 12.8562C153.047 14.0524 153.257 14.9693 153.676 15.6067C154.095 16.2442 154.705 16.5629 155.504 16.5629C156.564 16.5629 157.312 16.1183 157.747 15.229V10.1883C157.32 9.29905 156.58 8.85441 155.527 8.85441C153.874 8.85441 153.047 10.1883 153.047 12.8562Z" fill="#3FBB7D"/>
</svg>
