<svg width="315" height="150" viewBox="0 0 315 150" fill="none" xmlns="http://www.w3.org/2000/svg">
<path fill-rule="evenodd" clip-rule="evenodd" d="M102.425 35.0266L158.112 8.17759L158.126 8.17036C158.269 8.09736 158.423 8.04536 158.581 8.01594C158.916 7.96944 159.258 8.02522 159.561 8.17621L159.57 8.18041L215.251 35.0266L215.253 35.0276C215.533 35.1645 215.77 35.3769 215.937 35.6409C216.103 35.904 216.193 36.208 216.197 36.5192V58.0367C216.197 96.8422 192.979 130.098 159.525 144.853L159.521 144.855C159.306 144.951 159.073 145 158.838 145C158.602 145 158.37 144.951 158.155 144.855L158.151 144.853C124.699 130.098 101.479 96.8405 101.479 58.0367V54.248L101.479 54.2374C101.476 54.0145 101.517 53.7933 101.6 53.5865C101.683 53.3797 101.806 53.1914 101.963 53.0327C102.119 52.874 102.306 52.748 102.511 52.662C102.717 52.576 102.938 52.5317 103.16 52.5317C103.383 52.5317 103.604 52.576 103.81 52.662C104.015 52.748 104.202 52.874 104.358 53.0327C104.515 53.1914 104.638 53.3797 104.721 53.5865C104.804 53.7933 104.845 54.0145 104.842 54.2374L104.842 54.248V58.0367C104.842 95.0092 126.684 126.552 158.21 141.076L158.838 141.365L159.465 141.076C190.993 126.553 212.834 95.011 212.834 58.0367V37.6082L158.838 11.5307L104.842 37.6082V41.6423L104.842 41.6529C104.845 41.8758 104.804 42.097 104.721 42.3038C104.638 42.5106 104.515 42.6988 104.358 42.8575C104.202 43.0162 104.015 43.1423 103.81 43.2283C103.604 43.3143 103.383 43.3586 103.16 43.3586C102.938 43.3586 102.717 43.3143 102.511 43.2283C102.306 43.1423 102.119 43.0162 101.963 42.8575C101.806 42.6988 101.683 42.5106 101.6 42.3038C101.517 42.097 101.476 41.8758 101.479 41.6529L101.479 41.6423V36.5189C101.483 36.2079 101.572 35.9039 101.739 35.6409C101.905 35.3769 102.142 35.1645 102.423 35.0276L102.425 35.0266ZM187.335 55.7002L187.337 55.7C187.69 55.6614 188.046 55.7355 188.354 55.9117C188.663 56.088 188.907 56.3573 189.053 56.6811C189.199 57.0049 189.238 57.3666 189.166 57.7143C189.094 58.062 188.913 58.3779 188.65 58.6167L188.636 58.6296L152.04 93.6343L152.038 93.637C151.721 93.9352 151.301 94.0991 150.866 94.0942C150.431 94.0893 150.014 93.9159 149.704 93.6105L149.702 93.6081L132.196 76.1018L132.182 76.0888C132.02 75.9347 131.89 75.7498 131.8 75.545C131.711 75.3401 131.663 75.1195 131.659 74.8958C131.656 74.6722 131.697 74.4502 131.781 74.2427C131.864 74.0352 131.988 73.8464 132.145 73.6874C132.302 73.5284 132.49 73.4024 132.696 73.3166C132.903 73.2309 133.125 73.1873 133.348 73.1882C133.572 73.1892 133.793 73.2347 133.999 73.3222C134.205 73.4097 134.391 73.5373 134.547 73.6976L134.554 73.7052L150.91 90.0613L186.329 56.1804L186.336 56.1731C186.606 55.9075 186.958 55.7409 187.335 55.7002Z" fill="#3FBB7D"/>
<rect x="198" y="88" width="55" height="47" rx="5" fill="#FAFBFD"/>
<path d="M225.437 102.758C223.936 102.761 222.488 103.313 221.366 104.311C220.245 105.309 219.528 106.683 219.351 108.174C219.175 109.665 219.55 111.169 220.408 112.401C221.265 113.633 222.544 114.509 224.003 114.862V124.929C224.003 125.309 224.154 125.674 224.423 125.943C224.692 126.212 225.057 126.363 225.437 126.363C225.818 126.363 226.182 126.212 226.451 125.943C226.72 125.674 226.871 125.309 226.871 124.929V114.862C228.331 114.509 229.61 113.633 230.467 112.401C231.324 111.169 231.7 109.665 231.523 108.174C231.347 106.683 230.63 105.309 229.508 104.311C228.387 103.313 226.939 102.761 225.437 102.758ZM225.437 112.175C224.791 112.175 224.158 111.984 223.621 111.624C223.083 111.265 222.664 110.754 222.417 110.157C222.169 109.559 222.104 108.902 222.23 108.268C222.357 107.634 222.668 107.051 223.125 106.594C223.583 106.136 224.165 105.825 224.799 105.699C225.434 105.573 226.091 105.637 226.689 105.885C227.286 106.132 227.797 106.551 228.156 107.089C228.515 107.627 228.707 108.259 228.707 108.906C228.704 109.772 228.359 110.602 227.747 111.215C227.134 111.828 226.304 112.173 225.437 112.175Z" fill="#BDC4D4" stroke="#BDC4D4" stroke-width="0.8"/>
<path fill-rule="evenodd" clip-rule="evenodd" d="M205.361 86.0274H205.029C202.635 86.03 200.34 86.9877 198.647 88.6904C196.955 90.3932 196.003 92.7019 196 95.1099V126.918C196.003 129.326 196.955 131.634 198.647 133.337C200.34 135.04 202.635 135.997 205.029 136H245.971C248.365 135.997 250.66 135.04 252.353 133.337C254.045 131.634 254.997 129.326 255 126.918V95.1481C254.997 92.7401 254.045 90.4314 252.353 88.7287C250.66 87.0259 248.365 86.0682 245.971 86.0657H245.639V79.2586C245.631 73.888 243.507 68.7396 239.732 64.942C235.957 61.1444 230.839 59.0076 225.5 59C224.539 59.0014 223.586 59.0717 222.646 59.2082C221.985 59.3043 221.515 59.8859 221.515 60.5545C221.515 61.4636 222.365 62.132 223.266 62.0138C224.003 61.9173 224.749 61.8681 225.5 61.8681C230.085 61.8681 234.482 63.7003 237.724 66.9617C240.966 70.223 242.788 74.6464 242.788 79.2586V86.0274H208.212H205.361ZM252.111 126.918V95.1481C252.108 93.5074 251.462 91.9339 250.312 90.7702C249.162 89.6064 247.602 88.9464 245.971 88.9338H205.029C203.391 88.9364 201.821 89.5919 200.663 90.7567C199.505 91.9216 198.854 93.5008 198.851 95.1481V126.918C198.854 128.565 199.505 130.144 200.663 131.309C201.821 132.474 203.391 133.129 205.029 133.132H245.933C247.571 133.129 249.141 132.474 250.299 131.309C251.457 130.144 252.108 128.565 252.111 126.918Z" fill="#BDC4D4" stroke="#BDC4D4" stroke-width="0.3"/>
<path d="M95 63H40.5711C39.245 63 37.9732 62.4732 37.0355 61.5355L30.4645 54.9645C29.5268 54.0268 28.255 53.5 26.9289 53.5H7.5" stroke="#F2F4F8" stroke-width="3" stroke-linecap="round"/>
<path d="M261 91H284.929C286.255 91 287.527 91.5268 288.464 92.4645L295.036 99.0355C295.973 99.9732 297.245 100.5 298.571 100.5H311.5" stroke="#F2F4F8" stroke-width="3" stroke-linecap="round"/>
<path d="M117 119H73.4146C72.1818 119 70.9925 119.455 70.0751 120.279L53.4249 135.221C52.5075 136.045 51.3182 136.5 50.0854 136.5H21.5" stroke="#F2F4F8" stroke-width="3" stroke-linecap="round"/>
<path d="M223 35H252.085C253.318 35 254.507 34.5446 255.425 33.7212L272.075 18.7788C272.993 17.9554 274.182 17.5 275.415 17.5H304" stroke="#F2F4F8" stroke-width="3" stroke-linecap="round"/>
<path d="M100.5 91L25 91" stroke="#F2F4F8" stroke-width="3" stroke-linecap="round"/>
<path d="M245.5 63L297.5 63" stroke="#F2F4F8" stroke-width="3" stroke-linecap="round"/>
<circle cx="5.5" cy="53.5" r="3.5" fill="#F2F4F8"/>
<circle cx="311.5" cy="100.5" r="3.5" transform="rotate(-180 311.5 100.5)" fill="#F2F4F8"/>
<circle cx="18.5" cy="136.5" r="3.5" fill="#F2F4F8"/>
<circle cx="307.5" cy="17.5" r="3.5" transform="rotate(-180 307.5 17.5)" fill="#F2F4F8"/>
<circle cx="25" cy="91" r="4" fill="#F2F4F8"/>
<circle cx="296.5" cy="63" r="4" transform="rotate(-180 296.5 63)" fill="#F2F4F8"/>
</svg>
