<svg width="315" height="150" viewBox="0 0 315 150" fill="none" xmlns="http://www.w3.org/2000/svg">
<rect width="315" height="150" fill="white"/>
<path d="M158.729 6.25129L158.732 6.25387C173.128 16.6082 189.93 25.2393 218.042 27.8298C218.634 27.8858 219.184 28.1611 219.583 28.6018C219.982 29.0426 220.203 29.6169 220.2 30.2118L220.2 30.2153C220.2 66.4418 213.614 91.3293 202.474 108.991C191.343 126.639 175.656 136.914 158.25 144.027L158.729 6.25129ZM158.729 6.25129C158.381 5.99867 157.972 5.8446 157.545 5.80532L158.729 6.25129ZM182.807 52.2864L182.8 52.2956L182.793 52.3046L152.961 88.2017L152.411 88.8636L151.791 88.2669L138.566 75.5388L138.566 75.5388L138.558 75.5308C138.334 75.309 138.068 75.1338 137.776 75.0154C137.484 74.8971 137.171 74.8378 136.856 74.8412C136.541 74.8446 136.229 74.9105 135.94 75.0351C135.65 75.1596 135.388 75.3404 135.169 75.567C134.95 75.7936 134.778 76.0613 134.663 76.3549C134.548 76.6484 134.493 76.9618 134.5 77.2769C134.507 77.592 134.576 77.9026 134.704 78.1907C134.832 78.4788 135.016 78.7386 135.245 78.955L135.25 78.96L150.953 94.0663C150.954 94.0675 150.956 94.0688 150.957 94.0701C151.194 94.2899 151.472 94.4594 151.777 94.5681C152.083 94.6774 152.408 94.723 152.732 94.7021C153.056 94.6812 153.372 94.5942 153.662 94.4464C153.951 94.2987 154.207 94.0933 154.414 93.8429L154.416 93.8415L186.435 55.3093L186.434 55.3093L186.44 55.3031C186.748 54.9391 186.941 54.4907 186.992 54.016C187.042 53.5414 186.949 53.0624 186.725 52.6412C186.5 52.22 186.154 51.876 185.732 51.6538C185.311 51.4328 184.835 51.3424 184.363 51.3942C183.748 51.4776 183.19 51.7976 182.807 52.2864Z" fill="#3FBB7D" stroke="white" stroke-width="1.6"/>
<rect x="199" y="88" width="55" height="47" rx="5" fill="#FAFBFD"/>
<path d="M226.437 102.758C224.936 102.761 223.488 103.313 222.366 104.311C221.245 105.309 220.528 106.683 220.351 108.174C220.175 109.665 220.55 111.169 221.408 112.401C222.265 113.633 223.544 114.509 225.003 114.862V124.929C225.003 125.309 225.154 125.674 225.423 125.943C225.692 126.212 226.057 126.363 226.437 126.363C226.818 126.363 227.182 126.212 227.451 125.943C227.72 125.674 227.871 125.309 227.871 124.929V114.862C229.331 114.509 230.61 113.633 231.467 112.401C232.324 111.169 232.7 109.665 232.523 108.174C232.347 106.683 231.63 105.309 230.508 104.311C229.387 103.313 227.939 102.761 226.437 102.758V102.758ZM226.437 112.175C225.791 112.175 225.158 111.984 224.621 111.624C224.083 111.265 223.664 110.754 223.417 110.157C223.169 109.559 223.104 108.902 223.23 108.268C223.357 107.634 223.668 107.051 224.125 106.594C224.583 106.136 225.165 105.825 225.799 105.699C226.434 105.573 227.091 105.637 227.689 105.885C228.286 106.132 228.797 106.551 229.156 107.089C229.515 107.627 229.707 108.259 229.707 108.906C229.704 109.772 229.359 110.602 228.747 111.215C228.134 111.828 227.304 112.173 226.437 112.175V112.175Z" fill="#BDC4D4" stroke="#BDC4D4" stroke-width="0.8"/>
<path fill-rule="evenodd" clip-rule="evenodd" d="M206.361 86.0274H206.029C203.635 86.03 201.34 86.9877 199.647 88.6904C197.955 90.3932 197.003 92.7018 197 95.1099V126.918C197.003 129.326 197.955 131.634 199.647 133.337C201.34 135.04 203.635 135.997 206.029 136H246.971C249.365 135.997 251.66 135.04 253.353 133.337C255.045 131.634 255.997 129.326 256 126.918V95.1481C255.997 92.7401 255.045 90.4314 253.353 88.7287C251.66 87.0259 249.365 86.0682 246.971 86.0657H246.639V79.2586C246.631 73.888 244.507 68.7396 240.732 64.942C236.957 61.1444 231.839 59.0076 226.5 59C225.539 59.0014 224.586 59.0717 223.646 59.2082C222.985 59.3043 222.515 59.8859 222.515 60.5545V60.5545C222.515 61.4636 223.365 62.132 224.266 62.0138C225.003 61.9173 225.749 61.8681 226.5 61.8681C231.085 61.8681 235.482 63.7003 238.724 66.9617C241.966 70.223 243.788 74.6464 243.788 79.2586V86.0274H209.212H206.361ZM253.111 126.918V95.1481C253.108 93.5074 252.462 91.9339 251.312 90.7702C250.162 89.6064 248.602 88.9464 246.971 88.9338H206.029C204.391 88.9364 202.821 89.5919 201.663 90.7567C200.505 91.9216 199.854 93.5008 199.851 95.1481V126.918C199.854 128.565 200.505 130.144 201.663 131.309C202.821 132.474 204.391 133.129 206.029 133.132H246.933C248.571 133.129 250.141 132.474 251.299 131.309C252.457 130.144 253.108 128.565 253.111 126.918Z" fill="#BDC4D4" stroke="#BDC4D4" stroke-width="0.3"/>
<path d="M91 63H40.5711C39.245 63 37.9732 62.4732 37.0355 61.5355L30.4645 54.9645C29.5268 54.0268 28.255 53.5 26.9289 53.5H7.5" stroke="#F2F4F8" stroke-width="3" stroke-linecap="round"/>
<path d="M262 91H284.929C286.255 91 287.527 91.5268 288.464 92.4645L295.036 99.0355C295.973 99.9732 297.245 100.5 298.571 100.5H311.5" stroke="#F2F4F8" stroke-width="3" stroke-linecap="round"/>
<path d="M114 119H73.4146C72.1818 119 70.9925 119.455 70.0751 120.279L53.4249 135.221C52.5075 136.045 51.3182 136.5 50.0854 136.5H21.5" stroke="#F2F4F8" stroke-width="3" stroke-linecap="round"/>
<path d="M226 35H252.085C253.318 35 254.507 34.5446 255.425 33.7212L272.075 18.7788C272.993 17.9554 274.182 17.5 275.415 17.5H304" stroke="#F2F4F8" stroke-width="3" stroke-linecap="round"/>
<path d="M97.5 91L25 91" stroke="#F2F4F8" stroke-width="3" stroke-linecap="round"/>
<path d="M246.5 63L297.5 63" stroke="#F2F4F8" stroke-width="3" stroke-linecap="round"/>
<circle cx="5.5" cy="53.5" r="3.5" fill="#F2F4F8"/>
<circle cx="311.5" cy="100.5" r="3.5" transform="rotate(-180 311.5 100.5)" fill="#F2F4F8"/>
<circle cx="18.5" cy="136.5" r="3.5" fill="#F2F4F8"/>
<circle cx="307.5" cy="17.5" r="3.5" transform="rotate(-180 307.5 17.5)" fill="#F2F4F8"/>
<circle cx="25" cy="91" r="4" fill="#F2F4F8"/>
<circle cx="296.5" cy="63" r="4" transform="rotate(-180 296.5 63)" fill="#F2F4F8"/>
</svg>
