<svg width="315" height="180" viewBox="0 0 315 180" fill="none" xmlns="http://www.w3.org/2000/svg">
<path d="M57 53C57 36.4315 70.4315 23 87 23C103.569 23 117 36.4315 117 53C117 69.5685 103.569 83 87 83C70.4315 83 57 69.5685 57 53Z" fill="#EDFAF7"/>
<rect x="95" y="61" width="125" height="81" rx="3" fill="white"/>
<path d="M159.5 53C159.5 53.8284 158.828 54.5 158 54.5C157.172 54.5 156.5 53.8284 156.5 53H159.5ZM291.061 24.9393C291.646 25.5251 291.646 26.4749 291.061 27.0607L281.515 36.6066C280.929 37.1924 279.979 37.1924 279.393 36.6066C278.808 36.0208 278.808 35.0711 279.393 34.4853L287.879 26L279.393 17.5147C278.808 16.9289 278.808 15.9792 279.393 15.3934C279.979 14.8076 280.929 14.8076 281.515 15.3934L291.061 24.9393ZM157.281 46.3452C157.474 45.5395 158.284 45.0427 159.089 45.2354C159.895 45.4282 160.392 46.2376 160.199 47.0433L157.281 46.3452ZM163.253 39.6758C162.82 40.3818 161.896 40.6026 161.19 40.1691C160.484 39.7356 160.263 38.8119 160.697 38.1059L163.253 39.6758ZM170.106 28.697C170.812 28.2635 171.736 28.4844 172.169 29.1903C172.603 29.8962 172.382 30.82 171.676 31.2535L170.106 28.697ZM179.043 28.1991C178.238 28.3919 177.428 27.895 177.235 27.0893C177.043 26.2837 177.54 25.4742 178.345 25.2815L179.043 28.1991ZM192.875 24.5C193.703 24.5 194.375 25.1716 194.375 26C194.375 26.8284 193.703 27.5 192.875 27.5V24.5ZM203.375 27.5C202.547 27.5 201.875 26.8284 201.875 26C201.875 25.1716 202.547 24.5 203.375 24.5V27.5ZM219.125 24.5C219.953 24.5 220.625 25.1716 220.625 26C220.625 26.8284 219.953 27.5 219.125 27.5V24.5ZM229.625 27.5C228.797 27.5 228.125 26.8284 228.125 26C228.125 25.1716 228.797 24.5 229.625 24.5V27.5ZM245.375 24.5C246.203 24.5 246.875 25.1716 246.875 26C246.875 26.8284 246.203 27.5 245.375 27.5V24.5ZM255.875 27.5C255.047 27.5 254.375 26.8284 254.375 26C254.375 25.1716 255.047 24.5 255.875 24.5V27.5ZM271.625 24.5C272.453 24.5 273.125 25.1716 273.125 26C273.125 26.8284 272.453 27.5 271.625 27.5V24.5ZM282.125 27.5C281.297 27.5 280.625 26.8284 280.625 26C280.625 25.1716 281.297 24.5 282.125 24.5V27.5ZM156.5 53C156.5 50.7103 156.77 48.4817 157.281 46.3452L160.199 47.0433C159.742 48.9528 159.5 50.9471 159.5 53H156.5ZM160.697 38.1059C163.048 34.2776 166.278 31.0479 170.106 28.697L171.676 31.2535C168.249 33.3576 165.358 36.2493 163.253 39.6758L160.697 38.1059ZM178.345 25.2815C180.482 24.7703 182.71 24.5 185 24.5V27.5C182.947 27.5 180.953 27.7423 179.043 28.1991L178.345 25.2815ZM185 24.5L192.875 24.5V27.5L185 27.5V24.5ZM203.375 24.5H219.125V27.5H203.375V24.5ZM229.625 24.5L245.375 24.5V27.5L229.625 27.5V24.5ZM255.875 24.5H271.625V27.5H255.875V24.5ZM282.125 24.5H290V27.5H282.125V24.5Z" fill="#F2F4F8"/>
<line x1="281.5" y1="172.5" x2="34.5" y2="172.5" stroke="#BDC4D4" stroke-width="3" stroke-linecap="round"/>
<path d="M137.641 165C144.106 165 149.347 159.785 149.347 153.352C149.347 146.919 144.106 141.704 137.641 141.704H100C97.2386 141.704 95 139.465 95 136.704V66C95 63.2386 97.2386 61 100 61H157.29" stroke="#BDC4D4" stroke-width="3" stroke-linecap="round"/>
<path d="M177.163 165C170.624 165 165.324 159.785 165.324 153.352C165.324 146.919 170.624 141.704 177.163 141.704H215.29C218.051 141.704 220.29 139.465 220.29 136.704V66C220.29 63.2386 218.051 61 215.29 61H157.29" stroke="#BDC4D4" stroke-width="3" stroke-linecap="round"/>
<rect x="103" y="69" width="110" height="64" rx="3" fill="#3FBB7D"/>
<path d="M130 53C130 29.2518 110.748 10 87 10C63.2518 10 44 29.2518 44 53" stroke="#3FBB7D" stroke-width="3" stroke-linecap="round"/>
<path d="M253.911 104.811C253.688 119.395 241.684 131.036 227.1 130.813" stroke="#F2F4F8" stroke-width="3" stroke-linecap="round"/>
<path d="M87 96C63.2518 96 44 76.7482 44 53" stroke="#F2F4F8" stroke-width="3" stroke-linecap="round"/>
<path d="M227.909 78C242.493 78.2231 254.134 90.2265 253.911 104.81" stroke="#3FBB7D" stroke-width="3" stroke-linecap="round"/>
<path d="M25 99C25 95.6863 27.6863 93 31 93C34.3137 93 37 95.6863 37 99C37 102.314 34.3137 105 31 105C27.6863 105 25 102.314 25 99Z" fill="#3FBB7D"/>
<path d="M187 44C187 41.7909 188.791 40 191 40C193.209 40 195 41.7909 195 44C195 46.2091 193.209 48 191 48C188.791 48 187 46.2091 187 44Z" fill="#3FBB7D"/>
<path d="M263 142C263 137.582 266.582 134 271 134C275.418 134 279 137.582 279 142C279 146.418 275.418 150 271 150C266.582 150 263 146.418 263 142Z" fill="#3FBB7D"/>
<line x1="85.5" y1="132.5" x2="34.5" y2="132.5" stroke="#F2F4F8" stroke-width="3" stroke-linecap="round" stroke-dasharray="15 10"/>
</svg>
