<svg width="315" height="180" viewBox="0 0 315 180" fill="none" xmlns="http://www.w3.org/2000/svg">
<g clip-path="url(#clip0)">
<rect width="315" height="180" fill="white"/>
<g opacity="0.6">
<rect x="148" y="36" width="125" height="10" rx="5" fill="url(#paint0_linear)"/>
</g>
<g opacity="0.6">
<rect x="148" y="53" width="90" height="10" rx="5" fill="url(#paint1_linear)"/>
</g>
<path d="M101.612 88.118L101.612 161.343C101.612 162.448 102.508 163.343 103.612 163.343L146.804 163.343C147.334 163.343 147.839 163.559 148.233 163.914C154.258 169.35 163.448 169.35 169.473 163.914C169.867 163.559 170.372 163.343 170.902 163.343L214.926 163.343C216.031 163.343 216.926 162.448 216.926 161.343L216.926 135.196" stroke="#BDC4D4" stroke-width="3" stroke-linecap="round"/>
<path d="M113.571 153.359V81H143.18H153.755L159.571 86.2817L162.744 82.5845L169.089 81H205.571V153.359H167.502L162.744 156H157.456L151.112 153.359H113.571Z" fill="#F3F4F7"/>
<path d="M205.571 86.9091V82C205.571 80.8954 204.676 80 203.571 80H169.376C163.409 80 158.571 84.7589 158.571 90.6294V156" stroke="#BDC4D4" stroke-width="3" stroke-linecap="round"/>
<path d="M205.289 143.13L205.289 151.256C205.289 152.36 204.394 153.256 203.289 153.256L167.654 153.256C167.123 153.256 166.62 153.474 166.217 153.819C162.269 157.199 156.421 157.199 152.473 153.819C152.07 153.474 151.566 153.256 151.036 153.256L114 153.255" stroke="#BDC4D4" stroke-width="3" stroke-linecap="round"/>
<path d="M158.571 90.5797C158.571 84.7367 153.94 80 148.226 80L115.571 80C114.467 80 113.571 80.8954 113.571 82L113.571 153" stroke="#BDC4D4" stroke-width="3" stroke-linecap="round"/>
<path d="M121.071 74.5H137.071V105.082L130.932 98.2396C129.939 97.1324 128.204 97.1324 127.21 98.2396L128.327 99.2414L127.21 98.2396L121.071 105.082V74.5Z" fill="#EDFAF7" stroke="#BDC4D4" stroke-width="3"/>
<path fill-rule="evenodd" clip-rule="evenodd" d="M123.5 52C124.328 52 125 52.6716 125 53.5C125 54.3284 124.328 55 123.5 55H35C31.134 55 28 58.134 28 62V108.353C28 112.219 31.134 115.353 35 115.353H39.8579C43.3057 115.353 46.6123 116.723 49.0502 119.161L54 124.11L58.9497 119.161C61.3877 116.723 64.6943 115.353 68.1421 115.353H94.5C95.3284 115.353 96 116.025 96 116.853C96 117.681 95.3284 118.353 94.5 118.353H68.1421C65.49 118.353 62.9464 119.407 61.0711 121.282L55.4142 126.939C54.6332 127.72 53.3668 127.72 52.5858 126.939L46.9289 121.282C45.0536 119.407 42.51 118.353 39.8579 118.353H35C29.4772 118.353 25 113.876 25 108.353V62C25 56.4771 29.4772 52 35 52H123.5Z" fill="#F2F4F8"/>
<path fill-rule="evenodd" clip-rule="evenodd" d="M280 20H140C136.134 20 133 23.134 133 27V67.5C133 68.3284 132.328 69 131.5 69C130.672 69 130 68.3284 130 67.5V27C130 21.4772 134.477 17 140 17H280C285.523 17 290 21.4771 290 27V89.3529C290 94.8758 285.523 99.3529 280 99.3529H275.142C272.49 99.3529 269.946 100.407 268.071 102.282L262.414 107.939C261.633 108.72 260.367 108.72 259.586 107.939L253.929 102.282C252.054 100.407 249.51 99.3529 246.858 99.3529H220.5C219.672 99.3529 219 98.6814 219 97.8529C219 97.0245 219.672 96.3529 220.5 96.3529H246.858C250.306 96.3529 253.612 97.7226 256.05 100.161L261 105.11L265.95 100.161C268.388 97.7226 271.694 96.3529 275.142 96.3529H280C283.866 96.3529 287 93.2189 287 89.3529V27C287 23.134 283.866 20 280 20Z" fill="#F2F4F8"/>
<path d="M195 90C181.193 90 170 101.193 170 115C170 128.807 181.193 140 195 140C208.807 140 220 128.807 220 115C220 101.193 208.807 90 195 90ZM192.111 125.791V114.347C192.111 113.58 192.415 112.846 192.957 112.304C193.499 111.762 194.234 111.458 195 111.458C195.766 111.458 196.501 111.762 197.043 112.304C197.585 112.846 197.889 113.58 197.889 114.347V125.791C197.889 126.557 197.585 127.292 197.043 127.834C196.501 128.376 195.766 128.68 195 128.68C194.234 128.68 193.499 128.376 192.957 127.834C192.415 127.292 192.111 126.557 192.111 125.791ZM195 108.306C194.313 108.306 193.642 108.102 193.071 107.72C192.5 107.339 192.055 106.797 191.792 106.162C191.529 105.528 191.461 104.829 191.594 104.156C191.728 103.482 192.059 102.864 192.545 102.378C193.03 101.893 193.649 101.562 194.323 101.428C194.996 101.294 195.694 101.363 196.329 101.625C196.963 101.888 197.506 102.333 197.887 102.904C198.269 103.475 198.472 104.147 198.472 104.833C198.472 105.754 198.106 106.637 197.455 107.289C196.804 107.94 195.921 108.306 195 108.306Z" fill="#3FBB7D"/>
<path d="M71.9091 125.292C72.0904 137.143 81.8444 146.603 93.6953 146.422" stroke="#3FBB7D" stroke-width="3" stroke-linecap="round"/>
<path d="M80.6046 13.1979C62.5976 13.4734 48.2233 28.2943 48.4988 46.3013" stroke="#F2F4F8" stroke-width="3" stroke-linecap="round"/>
<path d="M113.707 45.3033C113.431 27.2963 98.6105 12.922 80.6035 13.1975" stroke="#3FBB7D" stroke-width="3" stroke-linecap="round"/>
<path d="M229 160C256.614 160 279 137.614 279 110" stroke="#F2F4F8" stroke-width="3" stroke-linecap="round" stroke-dasharray="15 10"/>
</g>
<defs>
<linearGradient id="paint0_linear" x1="273" y1="41" x2="148" y2="41" gradientUnits="userSpaceOnUse">
<stop stop-color="#BDC4D4" stop-opacity="0.45"/>
<stop offset="1" stop-color="#BDC4D4" stop-opacity="0.3"/>
</linearGradient>
<linearGradient id="paint1_linear" x1="238" y1="58" x2="148" y2="58" gradientUnits="userSpaceOnUse">
<stop stop-color="#BDC4D4" stop-opacity="0.45"/>
<stop offset="1" stop-color="#BDC4D4" stop-opacity="0.3"/>
</linearGradient>
<clipPath id="clip0">
<rect width="315" height="180" fill="white"/>
</clipPath>
</defs>
</svg>
