<svg width="315" height="180" viewBox="0 0 315 180" fill="none" xmlns="http://www.w3.org/2000/svg">
<path d="M265 70V23C265 21.3431 263.657 20 262 20H53C51.3431 20 50 21.3431 50 23V70" stroke="#BDC4D4" stroke-width="3" stroke-linecap="round"/>
<g opacity="0.6">
<rect x="66" y="35" width="36" height="10" rx="5" fill="url(#paint0_linear)"/>
</g>
<path d="M275 60V13C275 11.3431 273.657 10 272 10H63C61.3431 10 60 11.3431 60 13V13.5" stroke="#F2F4F8" stroke-width="3" stroke-linecap="round"/>
<rect x="23" y="76" width="80" height="80" rx="10" fill="#F2F4F8" fill-opacity="0.35"/>
<path fill-rule="evenodd" clip-rule="evenodd" d="M63.4877 98.0365C63.0079 97.8545 62.478 97.8545 61.9982 98.0365L48.4375 103.18C47.6764 103.469 47.1566 104.177 47.0921 104.975C46.2146 115.831 48.4415 122.981 51.7613 127.497C55.0751 132.006 59.4135 133.796 62.5526 134.02C62.728 134.033 62.8955 134.021 63.0512 133.993C70.3538 132.692 74.4237 127.501 76.5288 121.691C78.6242 115.907 78.8417 109.366 78.4023 104.921C78.3229 104.117 77.7884 103.461 77.0655 103.187L63.4877 98.0365ZM49.2801 105.214L62.743 100.107L76.221 105.219C76.6283 109.448 76.3982 115.593 74.4604 120.941C72.5216 126.292 68.9432 130.701 62.6837 131.824C60.1822 131.637 56.4524 130.165 53.5339 126.195C50.617 122.226 48.4457 115.666 49.2801 105.214ZM71.3138 110.67C71.7225 110.221 71.6893 109.525 71.2398 109.117C70.7903 108.708 70.0946 108.741 69.686 109.191L60.3883 119.418L55.6964 115.579C55.2263 115.194 54.5332 115.264 54.1485 115.734C53.7638 116.204 53.8331 116.897 54.3033 117.282L59.436 121.481C60.0949 122.02 61.0604 121.949 61.6331 121.319L71.3138 110.67Z" fill="#3FBB7D"/>
<rect width="80" height="80" rx="10" transform="matrix(-1 0 0 1 293 76)" fill="#F2F4F8" fill-opacity="0.35"/>
<rect x="118" y="56" width="80" height="120" rx="10" fill="#F2F4F8" fill-opacity="0.35"/>
<circle cx="239" cy="40" r="5" fill="#DEE1E9"/>
<circle cx="224" cy="40" r="5" fill="#DEE1E9"/>
<path d="M241.118 134H264.411C265.579 134 266.529 133.05 266.529 131.882V116C266.529 114.833 265.579 113.882 264.411 113.882H263.353V107.53C263.353 102.275 259.078 98 253.823 98H251.706C246.451 98 242.176 102.275 242.176 107.53V113.882H241.118C239.95 113.882 239 114.833 239 116V131.882C239 133.05 239.95 134 241.118 134ZM244.294 107.53C244.294 103.443 247.619 100.118 251.706 100.118H253.823C257.91 100.118 261.235 103.443 261.235 107.53V113.882H244.294V107.53ZM241.118 116L243.235 116C243.235 116 243.235 116 243.235 116C243.235 116 243.235 116 243.235 116L262.289 115.999C262.291 115.999 262.292 116 262.294 116C262.296 116 262.297 115.999 262.299 115.999L264.411 115.999V131.882H241.118V116Z" fill="#3FBB7D" stroke="#3FBB7D" stroke-width="0.5"/>
<path d="M252.765 119.177C252.18 119.177 251.706 119.65 251.706 120.235V124.47C251.706 125.055 252.18 125.529 252.765 125.529C253.35 125.529 253.824 125.055 253.824 124.47V120.235C253.824 119.65 253.35 119.177 252.765 119.177Z" fill="#3FBB7D" stroke="#3FBB7D" stroke-width="0.5"/>
<path d="M136 101.552C136.003 104.483 137.169 107.294 139.242 109.366C141.314 111.439 144.125 112.605 147.056 112.608H157.363V135.413C157.363 135.623 157.446 135.825 157.595 135.974C157.744 136.122 157.945 136.206 158.156 136.206C158.366 136.206 158.568 136.122 158.716 135.974C158.865 135.825 158.949 135.623 158.949 135.413V112.608H171.436C171.483 112.614 171.531 112.614 171.578 112.608C173.715 112.53 175.754 111.7 177.338 110.263C178.921 108.827 179.945 106.877 180.23 104.759C180.514 102.64 180.041 100.489 178.893 98.6857C177.745 96.8824 175.997 95.5429 173.957 94.9041C173.881 91.5712 172.637 88.3708 170.443 85.8613C168.248 83.3519 165.242 81.6928 161.949 81.1736C158.656 80.6544 155.285 81.3081 152.425 83.0206C149.564 84.7331 147.396 87.3956 146.299 90.5435C143.512 90.745 140.903 91.9905 138.994 94.0312C137.085 96.0718 136.016 98.7575 136 101.552ZM146.87 91.9983C147.027 91.9954 147.18 91.9429 147.306 91.8482C147.432 91.7536 147.525 91.6216 147.571 91.4711C148.465 88.5553 150.376 86.0573 152.957 84.4317C155.537 82.8061 158.615 82.161 161.631 82.6138C164.647 83.0666 167.4 84.5872 169.39 86.8989C171.379 89.2105 172.472 92.1595 172.47 95.2093C172.47 95.2489 172.47 95.2925 172.47 95.3322V95.4392C172.466 95.6096 172.52 95.7763 172.624 95.9113C172.728 96.0463 172.875 96.1414 173.041 96.1805C174.827 96.6128 176.395 97.6803 177.452 99.1839C178.509 100.687 178.983 102.524 178.785 104.351C178.587 106.178 177.73 107.871 176.376 109.113C175.021 110.355 173.261 111.062 171.424 111.102H171.317H158.949V107.102C158.949 106.891 158.865 106.69 158.716 106.541C158.568 106.392 158.366 106.309 158.156 106.309C157.945 106.309 157.744 106.392 157.595 106.541C157.446 106.69 157.363 106.891 157.363 107.102V111.11H147.056C144.551 111.089 142.154 110.086 140.381 108.316C138.608 106.546 137.601 104.151 137.577 101.645C137.552 99.1403 138.512 96.7258 140.25 94.9215C141.988 93.1172 144.365 92.0675 146.87 91.9983Z" fill="#3FBB7D" stroke="#3FBB7D" stroke-width="0.7"/>
<path d="M161.326 146.232C161.846 146.232 162.362 146.13 162.843 145.931C163.324 145.731 163.761 145.439 164.129 145.071C164.497 144.703 164.789 144.266 164.988 143.785C165.187 143.304 165.29 142.789 165.29 142.268V139.097C165.29 138.576 165.187 138.061 164.988 137.58C164.789 137.099 164.497 136.662 164.129 136.294C163.761 135.926 163.324 135.634 162.843 135.435C162.362 135.235 161.846 135.133 161.326 135.133H154.983C153.932 135.133 152.923 135.55 152.18 136.294C151.436 137.037 151.019 138.046 151.019 139.097V142.268C151.019 143.32 151.436 144.328 152.18 145.071C152.923 145.815 153.932 146.232 154.983 146.232H157.361V149.507H154.587C154.376 149.507 154.175 149.591 154.026 149.74C153.877 149.888 153.794 150.09 153.794 150.3C153.794 150.51 153.877 150.712 154.026 150.861C154.175 151.01 154.376 151.093 154.587 151.093H161.722C161.932 151.093 162.134 151.01 162.283 150.861C162.431 150.712 162.515 150.51 162.515 150.3C162.515 150.09 162.431 149.888 162.283 149.74C162.134 149.591 161.932 149.507 161.722 149.507H158.947V146.232H161.326ZM152.604 142.268V139.097C152.604 138.466 152.855 137.861 153.301 137.415C153.747 136.969 154.352 136.718 154.983 136.718H161.326C161.956 136.718 162.561 136.969 163.007 137.415C163.454 137.861 163.704 138.466 163.704 139.097V142.268C163.704 142.899 163.454 143.504 163.007 143.95C162.561 144.396 161.956 144.647 161.326 144.647H154.983C154.352 144.647 153.747 144.396 153.301 143.95C152.855 143.504 152.604 142.899 152.604 142.268Z" fill="#3FBB7D" stroke="#3FBB7D" stroke-width="0.7"/>
<path d="M90 77H34C28.4772 77 24 81.4772 24 87V142" stroke="#F2F4F8" stroke-width="3" stroke-linecap="round"/>
<path d="M185 56H129C123.477 56 119 60.4772 119 66V163" stroke="#F2F4F8" stroke-width="3" stroke-linecap="round"/>
<path d="M280 77H224C218.477 77 214 81.4772 214 87V142" stroke="#F2F4F8" stroke-width="3" stroke-linecap="round"/>
<path d="M36 155L92 155C97.5228 155 102 150.523 102 145L102 90" stroke="#BDC4D4" stroke-width="3" stroke-linecap="round"/>
<path d="M131 175L187 175C192.523 175 197 170.523 197 165L197 69" stroke="#BDC4D4" stroke-width="3" stroke-linecap="round"/>
<path d="M226 155L282 155C287.523 155 292 150.523 292 145L292 90" stroke="#BDC4D4" stroke-width="3" stroke-linecap="round"/>
<defs>
<linearGradient id="paint0_linear" x1="102" y1="40" x2="66" y2="40" gradientUnits="userSpaceOnUse">
<stop stop-color="#BDC4D4" stop-opacity="0.45"/>
<stop offset="1" stop-color="#BDC4D4" stop-opacity="0.3"/>
</linearGradient>
</defs>
</svg>
