<svg width="80" height="22" viewBox="0 0 80 22" fill="none" xmlns="http://www.w3.org/2000/svg">
<g clip-path="url(#clip0)">
<path d="M13.8173 1.00001H6.27985V11.1686H16.4567V3.6311C16.4567 3.28488 16.3884 2.94207 16.2556 2.62231C16.1229 2.30255 15.9283 2.01214 15.6831 1.76771C15.438 1.52328 15.1469 1.32965 14.8268 1.19791C14.5066 1.06618 14.1636 0.998924 13.8173 1.00001V1.00001Z" fill="#1D1D22"/>
<path d="M3.93009 1H2.63109C1.93328 1 1.26405 1.2772 0.770628 1.77063C0.277203 2.26405 0 2.93328 0 3.63109L0 4.93009H3.93009V1Z" fill="#1D1D22"/>
<path d="M0 7.27979H3.93009V11.2099H0V7.27979Z" fill="#1D1D22"/>
<path d="M12.5597 17.4568H13.8587C14.2049 17.4568 14.5478 17.3885 14.8675 17.2557C15.1873 17.123 15.4777 16.9285 15.7221 16.6833C15.9665 16.4381 16.1602 16.147 16.2919 15.8269C16.4236 15.5067 16.4909 15.1637 16.4898 14.8174V13.5598H12.5597V17.4568Z" fill="#1D1D22"/>
<path d="M6.27985 13.5598H10.2099V17.4899H6.27985V13.5598Z" fill="#1D1D22"/>
<path d="M0 13.5598V14.8588C0 15.5566 0.277203 16.2258 0.770628 16.7193C1.26405 17.2127 1.93328 17.4899 2.63109 17.4899H3.93009V13.5598H0Z" fill="#1D1D22"/>
<path d="M26.5012 2.05078H24.9622V16.439H33.112V15.0656H26.5012V2.05078Z" fill="#1D1D22"/>
<path d="M38.0598 5.86499C35.0646 5.86499 32.9548 8.09066 32.9548 11.2926V11.6567C33.0039 13.0112 33.5745 14.2943 34.5474 15.2379C35.5203 16.1815 36.8203 16.7126 38.1756 16.7203H38.3742C39.776 16.7178 41.1311 16.2163 42.1967 15.3055V15.2641L41.5017 14.1306L41.4272 14.1719C40.6 14.9437 39.5137 15.3776 38.3825 15.3882C37.8651 15.3997 37.3509 15.3056 36.8711 15.1117C36.3914 14.9177 35.9562 14.628 35.5922 14.2601C35.2283 13.8923 34.9431 13.4541 34.7543 12.9723C34.5654 12.4905 34.4767 11.9753 34.4937 11.4581H42.2712V11.3754C42.2712 11.3754 42.2712 10.8872 42.2712 10.6473C42.3456 7.72661 40.6495 5.86499 38.0598 5.86499ZM34.5765 10.1591C34.676 9.32844 35.0775 8.56335 35.7045 8.00952C36.3316 7.4557 37.1404 7.15181 37.977 7.15571C39.276 7.15571 40.6991 7.93346 40.815 10.1591H34.5765Z" fill="#1D1D22"/>
<path d="M51.298 7.08129V7.61909C50.9743 7.0799 50.5174 6.63305 49.9711 6.32151C49.4248 6.00997 48.8076 5.84422 48.1787 5.84021H47.9884C45.2332 5.84021 43.3302 8.02451 43.3302 11.2265C43.3302 14.4285 45.1505 16.6624 47.8643 16.6624C48.5553 16.6954 49.2421 16.5385 49.8503 16.2089C50.4585 15.8793 50.9649 15.3894 51.3145 14.7925V16.3728H52.7707V2.05078H51.298V7.08129ZM48.1374 15.3055C46.2344 15.3055 44.9767 13.6507 44.9767 11.2513C44.9767 8.8519 46.3088 7.23849 48.1787 7.23849C49.7259 7.23849 51.298 8.49612 51.298 11.2513C51.298 14.2382 49.6432 15.3055 48.1043 15.3055H48.1374Z" fill="#1D1D22"/>
<path d="M61.6816 7.27993V7.36267C61.3921 6.87451 60.5068 5.82373 58.3721 5.82373C55.6583 5.82373 53.8711 7.8922 53.8711 11.0528C53.8711 14.2134 55.741 16.3564 58.4962 16.3564C59.1307 16.4034 59.7659 16.2737 60.3311 15.9816C60.8964 15.6895 61.3696 15.2464 61.6982 14.7016V16.1247C61.6982 18.1104 60.4406 19.2439 58.2066 19.2439C57.2438 19.2501 56.2935 19.026 55.4349 18.5903L55.3604 18.5489L54.7895 19.8066L54.8723 19.8479C55.9143 20.3762 57.0633 20.6592 58.2314 20.6753C60.6226 20.6753 63.1958 19.4591 63.1958 16.0916V6.16296H61.6816V7.27993ZM58.6782 15.0656C56.6925 15.0656 55.3687 13.5267 55.3687 11.1356C55.3687 8.7444 56.5022 7.3213 58.4466 7.3213C60.5895 7.3213 61.6072 8.57893 61.6072 11.1356C61.6072 13.6922 60.6226 15.0656 58.6782 15.0656Z" fill="#1D1D22"/>
<path d="M69.3019 5.86499C66.2985 5.86499 64.23 8.09066 64.23 11.2513V11.6153C64.273 12.9843 64.8472 14.2827 65.831 15.2356C66.8148 16.1885 68.1309 16.721 69.5005 16.7203H69.7073C71.1046 16.7123 72.4536 16.2079 73.5133 15.2972V15.2972L72.81 14.0892H72.7273C71.903 14.8604 70.8195 15.2944 69.6908 15.3055C69.1731 15.3169 68.6584 15.2229 68.1782 15.029C67.6981 14.8351 67.2624 14.5455 66.8978 14.1778C66.5332 13.8101 66.2472 13.372 66.0574 12.8902C65.8676 12.4084 65.7779 11.893 65.7938 11.3754H73.6374V11.2926C73.6374 11.2926 73.6374 10.8045 73.6374 10.5645C73.6374 7.72661 71.933 5.86499 69.3019 5.86499ZM65.8517 10.1591C65.9531 9.32774 66.3563 8.56255 66.9847 8.00887C67.6131 7.45519 68.423 7.15158 69.2605 7.15571C70.5512 7.15571 71.9743 7.93346 72.0902 10.1591H65.8517Z" fill="#1D1D22"/>
<path d="M79.9586 6.0637C79.7518 6.0637 79.5946 6.0637 79.3877 5.98096C78.6728 6.00157 77.9817 6.24227 77.4086 6.67021C76.8356 7.09815 76.4085 7.69248 76.1857 8.3721V6.0637H74.6882V16.315V16.3978H76.2271V12.0622C76.2324 11.3958 76.3412 10.7343 76.5498 10.1013C77.0379 8.52103 78.1301 7.51162 79.4291 7.51162C79.5914 7.4952 79.7549 7.4952 79.9172 7.51162H80V6.0637H79.9586Z" fill="#1D1D22"/>
</g>
<defs>
<clipPath id="clip0">
<rect width="80" height="19.6587" fill="white" transform="translate(0 1)"/>
</clipPath>
</defs>
</svg>
