<svg width="80" height="22" viewBox="0 0 80 22" fill="none" xmlns="http://www.w3.org/2000/svg">
<g clip-path="url(#clip0)">
<path d="M19.7845 6.69677H28.6261V9.27194H25.6341V17.6702H22.7926V9.27194H19.7845V6.69677ZM38.8104 10.3471C38.8104 12.1666 37.7595 13.1968 36.7198 13.5995L39.112 17.67H35.8531L33.8329 13.9668H32.735V17.67H29.9083V6.69603H35.0388C37.2956 6.69603 38.8104 8.16335 38.8104 10.3471ZM32.735 9.22504V11.4378H34.7152C35.4474 11.4378 35.9401 10.9929 35.9401 10.3309C35.9401 9.66995 35.4474 9.22504 34.7152 9.22504H32.735ZM40.1201 17.6701V6.69662H48.0364V9.22514H42.9459V10.8334H47.9288V13.3619H42.9459V15.1254H48.0364V17.6701H40.1201ZM57.7983 8.88645L53.25 15.0951H57.7983V17.6702H49.4353V15.4643L53.9822 9.27096H49.4353V6.69677H57.7983V8.88645ZM63.939 6.52504C67.2423 6.52504 69.6394 8.9087 69.6394 12.1905C69.6394 15.4738 67.2423 17.856 63.939 17.856C60.6444 17.856 58.2537 15.4738 58.2537 12.1905C58.2537 8.9087 60.6444 6.52504 63.939 6.52504ZM63.939 15.2646C65.5955 15.2646 66.7525 14.0006 66.7525 12.1905C66.7525 10.3809 65.5955 9.11642 63.939 9.11642C62.2653 9.11642 61.1405 10.352 61.1405 12.1905C61.1405 14.0006 62.2912 15.2646 63.939 15.2646ZM77.6073 13.5995L80 17.67H76.7416L74.7214 13.9668H73.6225V17.67H70.7967V6.69603H75.9273C78.1841 6.69603 79.7004 8.16335 79.7004 10.3471C79.7004 12.1666 78.648 13.1968 77.6073 13.5995ZM73.6225 9.22504V11.4378H75.6037C76.3359 11.4378 76.8286 10.9929 76.8286 10.3309C76.8286 9.66995 76.3359 9.22504 75.6037 9.22504H73.6225ZM12.0271 6.71631H14.0879V17.6682H14.0737L7.0442 20.9682L0.0141754 17.6682H0V6.71631H2.06179V5.17877C2.06179 2.54221 4.29759 0.396729 7.04518 0.396729C9.7913 0.396729 12.0271 2.54221 12.0271 5.17877V6.71631ZM11.2528 15.8468V9.28608H2.83508V15.8468L7.0442 17.8179L11.2528 15.8468ZM4.61776 5.17877V6.71631H9.47113V5.17877C9.47113 3.95846 8.38207 2.96552 7.04518 2.96552C5.70682 2.96552 4.61776 3.95846 4.61776 5.17877Z" fill="#1D1D22"/>
</g>
<defs>
<clipPath id="clip0">
<rect width="80" height="21.1429" fill="white"/>
</clipPath>
</defs>
</svg>
