<svg width="162" height="24" viewBox="0 0 162 24" fill="none" xmlns="http://www.w3.org/2000/svg">
<path fill-rule="evenodd" clip-rule="evenodd" d="M5.18389 10.7912C4.5029 11.4716 3.48948 11.5876 2.80849 10.9072C2.26346 10.3626 2.23109 9.5923 2.58901 8.95759C2.66237 8.83705 2.75118 8.72327 2.85545 8.61908L8.17489 3.30409C9.48673 1.99335 11.5587 1.90502 12.973 3.03911C12.8708 3.12105 12.7721 3.20938 12.6773 3.30409L5.18389 10.7912Z" fill="#0D693B"/>
<path fill-rule="evenodd" clip-rule="evenodd" d="M5.18377 10.7912C4.50278 11.4716 3.48936 11.5876 2.80837 10.9072C2.1488 10.2482 2.24001 9.25857 2.86512 8.57875C2.88562 8.55678 2.90649 8.53503 2.92772 8.5135C2.9063 8.53491 2.88542 8.55667 2.86512 8.57875C1.68501 9.84319 1.7131 11.8223 2.94412 13.0526L8.87951 18.9847C10.5674 20.6716 13.3044 20.6718 14.9926 18.9851L21.4909 12.4922C23.003 10.9813 23.003 8.53173 21.4909 7.02087L21.0705 6.60084C21.0305 6.64964 20.9877 6.69692 20.9421 6.74247L19.1412 8.54192C18.3952 9.28727 17.1857 9.28727 16.4397 8.54192C15.6937 7.79656 15.6937 6.5881 16.4397 5.84275L18.2407 4.0433C18.2863 3.99775 18.3336 3.95498 18.3824 3.91499L17.771 3.30409C16.3644 1.89864 14.0838 1.89863 12.6772 3.30409L5.18377 10.7912Z" fill="#3FBB7D"/>
<path d="M19.1413 8.54201L20.9422 6.74256C21.6882 5.99721 21.6882 4.78875 20.9422 4.04339C20.1963 3.29804 18.9868 3.29804 18.2408 4.04339L16.4399 5.84284C15.6939 6.5882 15.6939 7.79666 16.4399 8.54201C17.1858 9.28737 18.3953 9.28737 19.1413 8.54201Z" fill="#0F7944"/>
<path d="M35.3364 15.8779C34.7094 15.8779 34.1427 15.7705 33.636 15.5558C33.1379 15.3411 32.7428 15.032 32.4509 14.6284C32.1589 14.2247 32.0086 13.7481 32 13.1985H33.9323C33.958 13.5678 34.0868 13.8598 34.3187 14.0745C34.5592 14.2891 34.8855 14.3965 35.2977 14.3965C35.7185 14.3965 36.0491 14.2977 36.2896 14.1002C36.5301 13.8941 36.6503 13.6279 36.6503 13.3015C36.6503 13.0353 36.5687 12.8163 36.4055 12.6446C36.2424 12.4728 36.0363 12.3397 35.7872 12.2453C35.5468 12.1422 35.2118 12.0306 34.7824 11.9103C34.1985 11.7386 33.7219 11.5711 33.3526 11.4079C32.9919 11.2362 32.6784 10.9828 32.4122 10.6479C32.1546 10.3044 32.0258 9.84926 32.0258 9.28247C32.0258 8.75002 32.1589 8.28628 32.4251 7.89124C32.6913 7.49621 33.0649 7.19563 33.5458 6.98953C34.0267 6.77483 34.5763 6.66748 35.1947 6.66748C36.1221 6.66748 36.8736 6.89506 37.449 7.35021C38.0329 7.79678 38.355 8.42369 38.4151 9.23094H36.4313C36.4141 8.92178 36.281 8.66844 36.032 8.47092C35.7915 8.26481 35.4695 8.16176 35.0658 8.16176C34.7137 8.16176 34.4303 8.25193 34.2156 8.43227C34.0095 8.61262 33.9065 8.87455 33.9065 9.21806C33.9065 9.45851 33.9838 9.66033 34.1384 9.8235C34.3015 9.97808 34.499 10.1069 34.7309 10.2099C34.9714 10.3044 35.3063 10.4161 35.7357 10.5449C36.3197 10.7166 36.7963 10.8884 37.1656 11.0601C37.5348 11.2319 37.8526 11.4895 38.1188 11.833C38.385 12.1765 38.5181 12.6274 38.5181 13.1856C38.5181 13.6665 38.3936 14.1131 38.1446 14.5253C37.8955 14.9375 37.5305 15.2682 37.0496 15.5172C36.5687 15.7577 35.9976 15.8779 35.3364 15.8779Z" fill="#1D1D22"/>
<path d="M41.1107 7.80107C40.793 7.80107 40.5268 7.70231 40.3121 7.50479C40.106 7.29869 40.0029 7.04535 40.0029 6.74477C40.0029 6.4442 40.106 6.19516 40.3121 5.99764C40.5268 5.79153 40.793 5.68848 41.1107 5.68848C41.4285 5.68848 41.6904 5.79153 41.8965 5.99764C42.1112 6.19516 42.2186 6.4442 42.2186 6.74477C42.2186 7.04535 42.1112 7.29869 41.8965 7.50479C41.6904 7.70231 41.4285 7.80107 41.1107 7.80107ZM41.9996 8.65126V15.7877H40.1961V8.65126H41.9996Z" fill="#1D1D22"/>
<path d="M52.7585 8.54821C53.6344 8.54821 54.3386 8.81872 54.8711 9.35976C55.4121 9.8922 55.6826 10.6393 55.6826 11.6012V15.7877H53.8792V11.8459C53.8792 11.2877 53.7375 10.8626 53.4541 10.5706C53.1707 10.2701 52.7842 10.1198 52.2947 10.1198C51.8052 10.1198 51.4145 10.2701 51.1225 10.5706C50.8391 10.8626 50.6974 11.2877 50.6974 11.8459V15.7877H48.894V11.8459C48.894 11.2877 48.7523 10.8626 48.4689 10.5706C48.1855 10.2701 47.799 10.1198 47.3095 10.1198C46.8114 10.1198 46.4164 10.2701 46.1244 10.5706C45.841 10.8626 45.6993 11.2877 45.6993 11.8459V15.7877H43.8959V8.65126H45.6993V9.51434C45.9312 9.21376 46.2275 8.9776 46.5882 8.80584C46.9574 8.63409 47.3611 8.54821 47.799 8.54821C48.3572 8.54821 48.8553 8.66844 49.2933 8.9089C49.7313 9.14077 50.0705 9.47569 50.311 9.91367C50.5428 9.50145 50.8778 9.17082 51.3157 8.92178C51.7623 8.67273 52.2432 8.54821 52.7585 8.54821Z" fill="#1D1D22"/>
<path d="M59.3119 9.6818C59.5438 9.35546 59.8615 9.08495 60.2652 8.87025C60.6774 8.64697 61.1454 8.53533 61.6693 8.53533C62.279 8.53533 62.8286 8.68561 63.3181 8.98619C63.8162 9.28676 64.2069 9.71615 64.4903 10.2744C64.7823 10.824 64.9283 11.4638 64.9283 12.1937C64.9283 12.9237 64.7823 13.5721 64.4903 14.1389C64.2069 14.6971 63.8162 15.1307 63.3181 15.4399C62.8286 15.7491 62.279 15.9036 61.6693 15.9036C61.1454 15.9036 60.6817 15.7963 60.278 15.5816C59.883 15.3669 59.561 15.0964 59.3119 14.7701V19.1885H57.5085V8.65126H59.3119V9.6818ZM63.0862 12.1937C63.0862 11.7643 62.9961 11.3951 62.8157 11.0859C62.644 10.7682 62.4121 10.5277 62.1201 10.3645C61.8367 10.2014 61.5276 10.1198 61.1926 10.1198C60.8663 10.1198 60.5571 10.2057 60.2652 10.3774C59.9818 10.5406 59.7499 10.781 59.5695 11.0988C59.3978 11.4165 59.3119 11.7901 59.3119 12.2195C59.3119 12.6489 59.3978 13.0224 59.5695 13.3402C59.7499 13.6579 59.9818 13.9027 60.2652 14.0745C60.5571 14.2376 60.8663 14.3192 61.1926 14.3192C61.5276 14.3192 61.8367 14.2333 62.1201 14.0616C62.4121 13.8898 62.644 13.6451 62.8157 13.3273C62.9961 13.0096 63.0862 12.6317 63.0862 12.1937Z" fill="#1D1D22"/>
<path d="M68.1568 6.25527V15.7877H66.3533V6.25527H68.1568Z" fill="#1D1D22"/>
<path d="M76.6871 12.0649C76.6871 12.3225 76.67 12.5544 76.6356 12.7605H71.4185C71.4615 13.2758 71.6418 13.6794 71.9596 13.9714C72.2773 14.2634 72.668 14.4094 73.1318 14.4094C73.8016 14.4094 74.2783 14.1217 74.5617 13.5463H76.5068C76.3007 14.2333 75.9056 14.8001 75.3217 15.2467C74.7377 15.6847 74.0206 15.9036 73.1704 15.9036C72.4834 15.9036 71.8651 15.7534 71.3155 15.4528C70.7744 15.1436 70.3493 14.7099 70.0402 14.1517C69.7396 13.5935 69.5893 12.9495 69.5893 12.2195C69.5893 11.4809 69.7396 10.8326 70.0402 10.2744C70.3408 9.71615 70.7616 9.28676 71.3026 8.98619C71.8436 8.68561 72.4662 8.53533 73.1704 8.53533C73.8489 8.53533 74.4543 8.68132 74.9868 8.9733C75.5278 9.26529 75.9443 9.6818 76.2363 10.2228C76.5368 10.7553 76.6871 11.3693 76.6871 12.0649ZM74.8193 11.5496C74.8107 11.0859 74.6432 10.7166 74.3169 10.4418C73.9906 10.1584 73.5912 10.0167 73.1189 10.0167C72.6723 10.0167 72.2945 10.1541 71.9853 10.4289C71.6847 10.6952 71.5001 11.0687 71.4314 11.5496H74.8193Z" fill="#1D1D22"/>
<path d="M85.5765 6.7963V15.7877H83.773V11.9619H79.9214V15.7877H78.118V6.7963H79.9214V10.4933H83.773V6.7963H85.5765Z" fill="#1D1D22"/>
<path d="M90.6349 15.9036C89.9479 15.9036 89.3296 15.7534 88.78 15.4528C88.2303 15.1436 87.7967 14.7099 87.4789 14.1517C87.1698 13.5935 87.0152 12.9495 87.0152 12.2195C87.0152 11.4895 87.1741 10.8454 87.4918 10.2872C87.8181 9.72903 88.2604 9.29964 88.8186 8.99907C89.3768 8.68991 89.9994 8.53533 90.6865 8.53533C91.3735 8.53533 91.9961 8.68991 92.5543 8.99907C93.1125 9.29964 93.5505 9.72903 93.8682 10.2872C94.1946 10.8454 94.3577 11.4895 94.3577 12.2195C94.3577 12.9495 94.1903 13.5935 93.8553 14.1517C93.529 14.7099 93.0824 15.1436 92.5157 15.4528C91.9574 15.7534 91.3305 15.9036 90.6349 15.9036ZM90.6349 14.3321C90.9613 14.3321 91.2661 14.2548 91.5495 14.1002C91.8415 13.937 92.0734 13.6966 92.2451 13.3788C92.4169 13.0611 92.5028 12.6746 92.5028 12.2195C92.5028 11.5411 92.3224 11.0215 91.9617 10.6608C91.6096 10.2915 91.176 10.1069 90.6607 10.1069C90.1454 10.1069 89.7117 10.2915 89.3596 10.6608C89.0161 11.0215 88.8444 11.5411 88.8444 12.2195C88.8444 12.8979 89.0118 13.4218 89.3468 13.7911C89.6903 14.1517 90.1197 14.3321 90.6349 14.3321Z" fill="#1D1D22"/>
<path d="M97.5986 6.25527V15.7877H95.7951V6.25527H97.5986Z" fill="#1D1D22"/>
<path d="M99.0311 12.1937C99.0311 11.4724 99.1728 10.8326 99.4562 10.2744C99.7482 9.71615 100.143 9.28676 100.641 8.98619C101.139 8.68561 101.693 8.53533 102.303 8.53533C102.767 8.53533 103.209 8.63838 103.63 8.84449C104.051 9.04201 104.386 9.30823 104.635 9.64315V6.25527H106.464V15.7877H104.635V14.7314C104.411 15.0835 104.098 15.3669 103.694 15.5816C103.291 15.7963 102.823 15.9036 102.29 15.9036C101.689 15.9036 101.139 15.7491 100.641 15.4399C100.143 15.1307 99.7482 14.6971 99.4562 14.1389C99.1728 13.5721 99.0311 12.9237 99.0311 12.1937ZM104.648 12.2195C104.648 11.7815 104.562 11.4079 104.39 11.0988C104.218 10.781 103.986 10.5406 103.694 10.3774C103.402 10.2057 103.089 10.1198 102.754 10.1198C102.419 10.1198 102.11 10.2014 101.826 10.3645C101.543 10.5277 101.311 10.7682 101.131 11.0859C100.959 11.3951 100.873 11.7643 100.873 12.1937C100.873 12.6231 100.959 13.001 101.131 13.3273C101.311 13.6451 101.543 13.8898 101.826 14.0616C102.118 14.2333 102.428 14.3192 102.754 14.3192C103.089 14.3192 103.402 14.2376 103.694 14.0745C103.986 13.9027 104.218 13.6622 104.39 13.3531C104.562 13.0353 104.648 12.6575 104.648 12.2195Z" fill="#1D1D22"/>
</svg>
