<svg width="512" height="461" viewBox="0 0 512 461" fill="none" xmlns="http://www.w3.org/2000/svg">
<path opacity="1" fill-rule="evenodd" clip-rule="evenodd" d="M79.0347 218.655C62.1295 236.074 36.9722 239.043 20.067 221.624C6.53706 207.683 5.73362 187.963 14.6187 171.714C16.4397 168.629 18.6445 165.716 21.233 163.048L153.284 26.9848C185.849 -6.57032 237.285 -8.83154 272.394 20.2011C269.857 22.2989 267.405 24.5601 265.052 26.9847L79.0347 218.655Z" fill="#0D693B"/>
<path opacity="1" fill-rule="evenodd" clip-rule="evenodd" d="M79.0348 218.655C62.1296 236.074 36.9723 239.043 20.0671 221.624C3.6938 204.753 5.95806 179.419 21.4759 162.016C21.9849 161.454 22.5029 160.897 23.03 160.346C22.4981 160.894 21.98 161.451 21.4759 162.016C-7.81941 194.386 -7.12201 245.052 23.437 276.548L170.779 428.408C212.679 471.593 280.624 471.598 322.53 428.418L483.847 262.2C521.384 223.522 521.384 160.812 483.847 122.134L473.411 111.381C472.418 112.631 471.355 113.841 470.224 115.007L425.516 161.073C406.998 180.154 376.974 180.154 358.455 161.073C339.937 141.992 339.937 111.055 358.455 91.9744L403.163 45.9085C404.294 44.7424 405.469 43.6475 406.682 42.6239L391.504 26.9848C356.585 -8.99487 299.971 -8.99497 265.052 26.9847L79.0348 218.655Z" fill="#3FBB7D"/>
<path opacity="1" d="M425.516 161.073L470.223 115.007C488.742 95.9258 488.742 64.9892 470.223 45.9081C451.705 26.827 421.681 26.827 403.162 45.9081L358.455 91.9739C339.937 111.055 339.937 141.992 358.455 161.073C376.974 180.154 406.998 180.154 425.516 161.073Z" fill="#0F7944"/>
</svg>
