<svg width="30" height="30" viewBox="0 0 30 30" fill="none" xmlns="http://www.w3.org/2000/svg">
<path fill-rule="evenodd" clip-rule="evenodd" d="M2.77778 27C1.24365 27 0 25.7208 0 24.1429V20.924V9.07595V5.85714C0 4.27919 1.24365 3 2.77778 3H25.8333C27.3675 3 28.6111 4.27919 28.6111 5.85714V8.7257C28.6111 8.87972 28.4831 9 28.3333 9L20.2778 9C18.4368 9 16.9444 10.535 16.9444 12.4286V17.5714C16.9444 19.465 18.4368 21 20.2778 21H28.3333C28.4831 21 28.6111 21.1203 28.6111 21.2743V24.1429C28.6111 25.7208 27.3675 27 25.8333 27L2.77778 27ZM28.3336 10.7143C29.254 10.7143 30.0002 11.4818 30.0002 12.4286V17.5714C30.0002 18.5182 29.254 19.2857 28.3336 19.2857H20.278C19.3575 19.2857 18.6113 18.5182 18.6113 17.5714V12.4286C18.6113 11.4818 19.3575 10.7143 20.278 10.7143H28.3336ZM22.778 16.7143C21.8575 16.7143 21.1113 15.9468 21.1113 15C21.1113 14.0532 21.8575 13.2857 22.778 13.2857C23.6985 13.2857 24.4447 14.0532 24.4447 15C24.4447 15.9468 23.6985 16.7143 22.778 16.7143Z" fill="white"/>
</svg>
