<svg width="30" height="30" viewBox="0 0 30 30" fill="none" xmlns="http://www.w3.org/2000/svg">
<path d="M26.7857 6.16071H5.35714C5.19971 6.16301 5.04371 6.13058 4.90024 6.06573C4.75677 6.00089 4.62935 5.90522 4.52706 5.78553C4.42476 5.66584 4.3501 5.52508 4.30839 5.37326C4.26667 5.22144 4.25893 5.06229 4.28571 4.90714C4.33985 4.64883 4.48349 4.41795 4.69128 4.25524C4.89908 4.09253 5.15768 4.00846 5.42143 4.01786H26.7857C27.0699 4.01786 27.3424 3.90497 27.5433 3.70404C27.7443 3.50311 27.8571 3.23059 27.8571 2.94643C27.8571 2.66227 27.7443 2.38975 27.5433 2.18881C27.3424 1.98788 27.0699 1.875 26.7857 1.875H3.53571C2.59885 1.87783 1.70117 2.25125 1.03871 2.91371C0.376245 3.57617 0.00282614 4.47385 0 5.41071V22.6982C0.00423727 23.9941 0.520906 25.2357 1.43724 26.152C2.35358 27.0684 3.59518 27.5851 4.89107 27.5893H25.1089C26.4048 27.5851 27.6464 27.0684 28.5628 26.152C29.4791 25.2357 29.9958 23.9941 30 22.6982V9.375C30 8.52252 29.6614 7.70495 29.0586 7.10216C28.4558 6.49936 27.6382 6.16071 26.7857 6.16071ZM23.5714 19.0179C23.1476 19.0179 22.7333 18.8922 22.3809 18.6567C22.0285 18.4213 21.7539 18.0866 21.5917 17.695C21.4295 17.3035 21.3871 16.8726 21.4697 16.457C21.5524 16.0413 21.7565 15.6595 22.0562 15.3598C22.3559 15.0601 22.7377 14.856 23.1534 14.7733C23.569 14.6906 23.9999 14.7331 24.3915 14.8953C24.783 15.0574 25.1177 15.3321 25.3531 15.6845C25.5886 16.0369 25.7143 16.4512 25.7143 16.875C25.7143 17.4433 25.4885 17.9884 25.0867 18.3902C24.6848 18.7921 24.1397 19.0179 23.5714 19.0179Z" fill="white"/>
</svg>
