<svg width="94" height="18" viewBox="0 0 94 18" fill="none" xmlns="http://www.w3.org/2000/svg">
<path d="M7.52459 10.6414C7.52459 10.1189 7.34016 9.71926 6.97131 9.44262C6.60246 9.15984 5.93853 8.86475 4.97951 8.55738C4.02049 8.24385 3.26127 7.93648 2.70184 7.63525C1.17725 6.81148 0.414959 5.70184 0.414959 4.30635C0.414959 3.58094 0.617828 2.93545 1.02357 2.36988C1.43545 1.79816 2.02254 1.35246 2.78484 1.03279C3.55328 0.713115 4.41393 0.553279 5.3668 0.553279C6.32582 0.553279 7.18033 0.728484 7.93033 1.07889C8.68033 1.42316 9.26127 1.91189 9.67316 2.54508C10.0912 3.17828 10.3002 3.89754 10.3002 4.70287H7.53381C7.53381 4.08811 7.34016 3.61168 6.95287 3.27357C6.56557 2.9293 6.02152 2.75717 5.3207 2.75717C4.64447 2.75717 4.11885 2.90164 3.74385 3.19057C3.36885 3.47336 3.18135 3.84836 3.18135 4.31557C3.18135 4.75205 3.39959 5.11783 3.83607 5.41291C4.27869 5.70799 4.92725 5.98463 5.78176 6.24283C7.35553 6.71619 8.50205 7.30328 9.22131 8.0041C9.94057 8.70492 10.3002 9.57787 10.3002 10.623C10.3002 11.7848 9.86066 12.6977 8.98156 13.3617C8.10246 14.0195 6.91906 14.3484 5.43135 14.3484C4.39857 14.3484 3.45799 14.1609 2.60963 13.7859C1.76127 13.4047 1.1127 12.8852 0.663934 12.2275C0.221311 11.5697 0 10.8074 0 9.94057H2.77561C2.77561 11.4221 3.66086 12.1629 5.43135 12.1629C6.08914 12.1629 6.60246 12.0307 6.97131 11.7664C7.34016 11.4959 7.52459 11.1209 7.52459 10.6414Z" fill="#1D1D22"/>
<path d="M18.7661 4.18648L18.8491 5.30225C19.5561 4.43545 20.512 4.00205 21.7169 4.00205C23.0018 4.00205 23.8839 4.50922 24.3634 5.52357C25.0643 4.50922 26.0632 4.00205 27.3604 4.00205C28.4423 4.00205 29.2477 4.31865 29.7764 4.95184C30.305 5.57889 30.5694 6.52561 30.5694 7.79201V14.1639H27.8952V7.80123C27.8952 7.23566 27.7846 6.82377 27.5632 6.56557C27.3419 6.30123 26.9516 6.16906 26.3921 6.16906C25.593 6.16906 25.0397 6.5502 24.7323 7.3125L24.7415 14.1639H22.0766V7.81045C22.0766 7.23258 21.9628 6.81455 21.7354 6.55635C21.5079 6.29816 21.1206 6.16906 20.5735 6.16906C19.8173 6.16906 19.2702 6.48258 18.9321 7.10963V14.1639H16.2671V4.18648H18.7661Z" fill="#1D1D22"/>
<path d="M41.2296 9.26742C41.2296 10.8043 40.8792 12.0369 40.1784 12.9652C39.4837 13.8873 38.5431 14.3484 37.3566 14.3484C36.3484 14.3484 35.5339 13.998 34.913 13.2971V18H32.248V4.18648H34.7193L34.8116 5.16393C35.4571 4.38934 36.2993 4.00205 37.3382 4.00205C38.5677 4.00205 39.5237 4.45697 40.206 5.3668C40.8884 6.27664 41.2296 7.53074 41.2296 9.1291V9.26742ZM38.5646 9.07377C38.5646 8.14549 38.3987 7.4293 38.0667 6.9252C37.7409 6.42111 37.2644 6.16906 36.6374 6.16906C35.8013 6.16906 35.2265 6.48873 34.913 7.12807V11.2131C35.2388 11.8709 35.8198 12.1998 36.6558 12.1998C37.9284 12.1998 38.5646 11.1578 38.5646 9.07377Z" fill="#1D1D22"/>
<path d="M45.3242 14.1639H42.65V0H45.3242V14.1639Z" fill="#1D1D22"/>
<path d="M51.7426 14.3484C50.2795 14.3484 49.0869 13.8996 48.1648 13.002C47.2488 12.1045 46.7908 10.9088 46.7908 9.41496V9.15676C46.7908 8.15471 46.9844 7.26025 47.3717 6.47336C47.759 5.68033 48.3062 5.07172 49.0131 4.64754C49.7262 4.21721 50.5377 4.00205 51.4475 4.00205C52.8123 4.00205 53.885 4.43238 54.6658 5.29303C55.4527 6.15369 55.8461 7.37398 55.8461 8.95389V10.042H49.4926C49.5787 10.6936 49.8369 11.2162 50.2672 11.6096C50.7037 12.0031 51.2539 12.1998 51.9178 12.1998C52.9445 12.1998 53.7467 11.8279 54.3246 11.084L55.634 12.5502C55.2344 13.1158 54.6934 13.5584 54.0111 13.8781C53.3287 14.1916 52.5725 14.3484 51.7426 14.3484ZM51.4383 6.15984C50.9096 6.15984 50.4793 6.33811 50.1473 6.69467C49.8215 7.05123 49.6125 7.56148 49.5203 8.22541H53.2273V8.01332C53.215 7.42316 53.0551 6.96824 52.7477 6.64857C52.4404 6.32275 52.0039 6.15984 51.4383 6.15984Z" fill="#1D1D22"/>
<path d="M14.4413 14.1639H11.7671V4.18648H14.4413V14.1639ZM11.6104 1.60451C11.6104 1.20492 11.7425 0.876025 12.0069 0.617828C12.2774 0.359631 12.6431 0.230533 13.1042 0.230533C13.5591 0.230533 13.9218 0.359631 14.1923 0.617828C14.4628 0.876025 14.5981 1.20492 14.5981 1.60451C14.5981 2.01025 14.4597 2.34221 14.1831 2.60041C13.9126 2.85861 13.553 2.9877 13.1042 2.9877C12.6554 2.9877 12.2927 2.85861 12.0161 2.60041C11.7456 2.34221 11.6104 2.01025 11.6104 1.60451Z" fill="#3FBB7D"/>
<path d="M68.0927 14.1639H65.3263V8.40984H59.9319V14.1639H57.1655V0.737705H59.9319V6.17828H65.3263V0.737705H68.0927V14.1639Z" fill="#3FBB7D"/>
<path d="M69.5501 9.08299C69.5501 8.09324 69.7406 7.21107 70.1218 6.43648C70.5029 5.66189 71.0501 5.0625 71.7632 4.63832C72.4824 4.21414 73.3154 4.00205 74.2621 4.00205C75.6085 4.00205 76.7058 4.41393 77.5542 5.23771C78.4087 6.06148 78.8851 7.18033 78.9835 8.59426L79.0019 9.27664C79.0019 10.8074 78.5746 12.0369 77.7201 12.9652C76.8656 13.8873 75.7191 14.3484 74.2806 14.3484C72.8421 14.3484 71.6925 13.8873 70.8318 12.9652C69.9773 12.043 69.5501 10.7889 69.5501 9.20287V9.08299ZM72.215 9.27664C72.215 10.2234 72.3933 10.9488 72.7499 11.4529C73.1064 11.9508 73.6167 12.1998 74.2806 12.1998C74.9261 12.1998 75.4302 11.9539 75.7929 11.4621C76.1556 10.9641 76.3369 10.1711 76.3369 9.08299C76.3369 8.15471 76.1556 7.43545 75.7929 6.92521C75.4302 6.41496 74.9199 6.15984 74.2621 6.15984C73.6105 6.15984 73.1064 6.41496 72.7499 6.92521C72.3933 7.4293 72.215 8.21311 72.215 9.27664Z" fill="#3FBB7D"/>
<path d="M83.0781 14.1639H80.4039V0H83.0781V14.1639Z" fill="#3FBB7D"/>
<path d="M84.4893 9.10143C84.4893 7.54611 84.8367 6.30738 85.5313 5.38525C86.2321 4.46311 87.1881 4.00205 88.3992 4.00205C89.3705 4.00205 90.1727 4.36475 90.8059 5.09016V0H93.4801V14.1639H91.0733L90.9442 13.1035C90.2803 13.9334 89.4258 14.3484 88.3807 14.3484C87.2065 14.3484 86.2629 13.8873 85.5498 12.9652C84.8428 12.0369 84.4893 10.749 84.4893 9.10143ZM87.1543 9.29508C87.1543 10.2295 87.3172 10.9457 87.643 11.4436C87.9688 11.9416 88.4422 12.1906 89.0631 12.1906C89.8869 12.1906 90.4678 11.8432 90.8059 11.1486V7.21107C90.474 6.51639 89.8992 6.16906 89.0815 6.16906C87.7967 6.16906 87.1543 7.21107 87.1543 9.29508Z" fill="#3FBB7D"/>
</svg>
